<?xml version="1.0" encoding="UTF-8" standalone="no"?>
<!DOCTYPE svg PUBLIC "-//W3C//DTD SVG 1.1//EN"
 "http://www.w3.org/Graphics/SVG/1.1/DTD/svg11.dtd">
<!-- Generated by graphviz version 2.40.1 (20161225.0304)
 -->
<!-- Title: sys::ctl::Once&lt; T, SysctlT &gt; Pages: 1 -->
<svg width="104pt" height="106pt"
 viewBox="0.00 0.00 104.00 106.00" xmlns="http://www.w3.org/2000/svg" xmlns:xlink="http://www.w3.org/1999/xlink">
<g id="graph0" class="graph" transform="scale(1 1) rotate(0) translate(4 102)">
<title>sys::ctl::Once&lt; T, SysctlT &gt;</title>
<polygon fill="#ffffff" stroke="transparent" points="-4,4 -4,-102 100,-102 100,4 -4,4"/>
<!-- Node1 -->
<g id="node1" class="node">
<title>Node1</title>
<g id="a_node1"><a xlink:title="A read once representation of a Sysctl.">
<polygon fill="#bfbfbf" stroke="#000000" points="0,-.5 0,-30.5 96,-30.5 96,-.5 0,-.5"/>
<text text-anchor="start" x="8" y="-18.5" font-family="Helvetica,sans-Serif" font-size="10.00" fill="#000000">sys::ctl::Once&lt; T,</text>
<text text-anchor="middle" x="48" y="-7.5" font-family="Helvetica,sans-Serif" font-size="10.00" fill="#000000"> SysctlT &gt;</text>
</a>
</g>
</g>
<!-- Node2 -->
<g id="node2" class="node">
<title>Node2</title>
<g id="a_node2"><a xlink:title=" ">
<polygon fill="#ffffff" stroke="#bfbfbf" points="33.5,-78.5 33.5,-97.5 62.5,-97.5 62.5,-78.5 33.5,-78.5"/>
<text text-anchor="middle" x="48" y="-85.5" font-family="Helvetica,sans-Serif" font-size="10.00" fill="#000000">T</text>
</a>
</g>
</g>
<!-- Node2&#45;&gt;Node1 -->
<g id="edge1" class="edge">
<title>Node2&#45;&gt;Node1</title>
<path fill="none" stroke="#9a32cd" stroke-dasharray="5,2" d="M48,-68.0177C48,-56.2164 48,-41.513 48,-30.668"/>
<polygon fill="#9a32cd" stroke="#9a32cd" points="44.5001,-68.2223 48,-78.2223 51.5001,-68.2224 44.5001,-68.2223"/>
<text text-anchor="middle" x="61.5" y="-52" font-family="Helvetica,sans-Serif" font-size="10.00" fill="#000000"> value</text>
</g>
</g>
</svg>
