<?xml version="1.0" encoding="UTF-8" standalone="no"?>
<!DOCTYPE svg PUBLIC "-//W3C//DTD SVG 1.1//EN"
 "http://www.w3.org/Graphics/SVG/1.1/DTD/svg11.dtd">
<!-- Generated by graphviz version 2.42.2 ()
 -->
<!-- Title: anonymous_namespace{libloadplay.cpp}::Report Pages: 1 -->
<svg width="821pt" height="176pt"
 viewBox="0.00 0.00 821.00 175.50" xmlns="http://www.w3.org/2000/svg" xmlns:xlink="http://www.w3.org/1999/xlink">
<g id="graph0" class="graph" transform="scale(1 1) rotate(0) translate(4 171.5)">
<title>anonymous_namespace{libloadplay.cpp}::Report</title>
<polygon fill="white" stroke="transparent" points="-4,4 -4,-171.5 817,-171.5 817,4 -4,4"/>
<!-- Node1 -->
<g id="node1" class="node">
<title>Node1</title>
<g id="a_node1"><a xlink:title="Provides a mechanism to provide frame wise per core load information.">
<polygon fill="#bfbfbf" stroke="black" points="691,-86.5 691,-116.5 813,-116.5 813,-86.5 691,-86.5"/>
<text text-anchor="start" x="699" y="-104.5" font-family="Helvetica" font-size="10.00">anonymous_namespace</text>
<text text-anchor="middle" x="752" y="-93.5" font-family="Helvetica" font-size="10.00">{libloadplay.cpp}::Report</text>
</a>
</g>
</g>
<!-- Node2 -->
<g id="node2" class="node">
<title>Node2</title>
<g id="a_node2"><a xlink:title=" ">
<polygon fill="white" stroke="#bfbfbf" points="530.5,-148 530.5,-167 581.5,-167 581.5,-148 530.5,-148"/>
<text text-anchor="middle" x="556" y="-155" font-family="Helvetica" font-size="10.00">coreid_t</text>
</a>
</g>
</g>
<!-- Node2&#45;&gt;Node1 -->
<g id="edge1" class="edge">
<title>Node2&#45;&gt;Node1</title>
<path fill="none" stroke="#9a32cd" stroke-dasharray="5,2" d="M591.58,-148.19C602.88,-145.13 615.48,-141.69 627,-138.5 647.47,-132.83 652.62,-131.51 673,-125.5 682.65,-122.65 692.94,-119.54 702.79,-116.53"/>
<polygon fill="#9a32cd" stroke="#9a32cd" points="590.38,-144.89 581.64,-150.88 592.2,-151.65 590.38,-144.89"/>
<text text-anchor="middle" x="659" y="-135.5" font-family="Helvetica" font-size="10.00"> ncpu</text>
</g>
<!-- Node3 -->
<g id="node3" class="node">
<title>Node3</title>
<g id="a_node3"><a xlink:href="classutility_1_1Sum.html" target="_top" xlink:title=" ">
<polygon fill="white" stroke="black" points="496.5,-110 496.5,-129 615.5,-129 615.5,-110 496.5,-110"/>
<text text-anchor="middle" x="556" y="-117" font-family="Helvetica" font-size="10.00">utility::Sum&lt; uint64_t &gt;</text>
</a>
</g>
</g>
<!-- Node3&#45;&gt;Node1 -->
<g id="edge2" class="edge">
<title>Node3&#45;&gt;Node1</title>
<path fill="none" stroke="#9a32cd" stroke-dasharray="5,2" d="M625.95,-113.1C647.12,-111.14 670.25,-108.99 690.79,-107.09"/>
<polygon fill="#9a32cd" stroke="#9a32cd" points="625.37,-109.64 615.73,-114.05 626.01,-116.61 625.37,-109.64"/>
<text text-anchor="middle" x="659" y="-113.5" font-family="Helvetica" font-size="10.00"> time</text>
</g>
<!-- Node4 -->
<g id="node4" class="node">
<title>Node4</title>
<g id="a_node4"><a xlink:title=" ">
<polygon fill="white" stroke="#bfbfbf" points="485,-50 485,-91 627,-91 627,-50 485,-50"/>
<text text-anchor="start" x="493" y="-79" font-family="Helvetica" font-size="10.00">std::unique_ptr&lt; anonymous</text>
<text text-anchor="start" x="493" y="-68" font-family="Helvetica" font-size="10.00">_namespace{libloadplay.cpp}</text>
<text text-anchor="middle" x="556" y="-57" font-family="Helvetica" font-size="10.00">::CoreFrameReport[]&gt;</text>
</a>
</g>
</g>
<!-- Node4&#45;&gt;Node1 -->
<g id="edge3" class="edge">
<title>Node4&#45;&gt;Node1</title>
<path fill="none" stroke="#9a32cd" stroke-dasharray="5,2" d="M636.97,-83.28C655.04,-86.17 673.92,-89.18 691,-91.91"/>
<polygon fill="#9a32cd" stroke="#9a32cd" points="637.47,-79.81 627.04,-81.69 636.36,-86.73 637.47,-79.81"/>
<text text-anchor="middle" x="659" y="-91.5" font-family="Helvetica" font-size="10.00"> cores</text>
</g>
<!-- Node5 -->
<g id="node5" class="node">
<title>Node5</title>
<g id="a_node5"><a xlink:href="namespaceanonymous__namespace_02libloadplay_8cpp_03.html#structanonymous__namespace_02libloadplay_8cpp_03_1_1CoreFrameReport" target="_top" xlink:title="The report frame information for a single CPU pipeline.">
<polygon fill="white" stroke="black" points="294,-50 294,-91 434,-91 434,-50 294,-50"/>
<text text-anchor="start" x="302" y="-79" font-family="Helvetica" font-size="10.00">anonymous_namespace</text>
<text text-anchor="start" x="302" y="-68" font-family="Helvetica" font-size="10.00">{libloadplay.cpp}::CoreFrame</text>
<text text-anchor="middle" x="364" y="-57" font-family="Helvetica" font-size="10.00">Report</text>
</a>
</g>
</g>
<!-- Node5&#45;&gt;Node4 -->
<g id="edge4" class="edge">
<title>Node5&#45;&gt;Node4</title>
<path fill="none" stroke="#9a32cd" stroke-dasharray="5,2" d="M444.34,-70.5C457.82,-70.5 471.74,-70.5 484.96,-70.5"/>
<polygon fill="#9a32cd" stroke="#9a32cd" points="444.13,-67 434.13,-70.5 444.13,-74 444.13,-67"/>
<text text-anchor="middle" x="459.5" y="-73.5" font-family="Helvetica" font-size="10.00"> ptr</text>
</g>
<!-- Node6 -->
<g id="node6" class="node">
<title>Node6</title>
<g id="a_node6"><a xlink:href="namespaceanonymous__namespace_02libloadplay_8cpp_03.html#structanonymous__namespace_02libloadplay_8cpp_03_1_1CoreReport" target="_top" xlink:title="The reported state of a single CPU pipeline.">
<polygon fill="white" stroke="black" points="100,-55.5 100,-85.5 241,-85.5 241,-55.5 100,-55.5"/>
<text text-anchor="start" x="108" y="-73.5" font-family="Helvetica" font-size="10.00">anonymous_namespace</text>
<text text-anchor="middle" x="170.5" y="-62.5" font-family="Helvetica" font-size="10.00">{libloadplay.cpp}::CoreReport</text>
</a>
</g>
</g>
<!-- Node6&#45;&gt;Node5 -->
<g id="edge5" class="edge">
<title>Node6&#45;&gt;Node5</title>
<path fill="none" stroke="#9a32cd" stroke-dasharray="5,2" d="M251.32,-70.5C265.4,-70.5 279.94,-70.5 293.69,-70.5"/>
<polygon fill="#9a32cd" stroke="#9a32cd" points="251.18,-67 241.18,-70.5 251.18,-74 251.18,-67"/>
<text text-anchor="middle" x="267.5" y="-84.5" font-family="Helvetica" font-size="10.00"> run</text>
<text text-anchor="middle" x="267.5" y="-73.5" font-family="Helvetica" font-size="10.00">rec</text>
</g>
<!-- Node7 -->
<g id="node7" class="node">
<title>Node7</title>
<g id="a_node7"><a xlink:title=" ">
<polygon fill="white" stroke="#bfbfbf" points="0,-61 0,-80 44,-80 44,-61 0,-61"/>
<text text-anchor="middle" x="22" y="-68" font-family="Helvetica" font-size="10.00">mhz_t</text>
</a>
</g>
</g>
<!-- Node7&#45;&gt;Node6 -->
<g id="edge6" class="edge">
<title>Node7&#45;&gt;Node6</title>
<path fill="none" stroke="#9a32cd" stroke-dasharray="5,2" d="M54.36,-70.5C67.72,-70.5 83.88,-70.5 99.82,-70.5"/>
<polygon fill="#9a32cd" stroke="#9a32cd" points="54.3,-67 44.3,-70.5 54.3,-74 54.3,-67"/>
<text text-anchor="middle" x="72" y="-73.5" font-family="Helvetica" font-size="10.00"> freq</text>
</g>
<!-- Node8 -->
<g id="node8" class="node">
<title>Node8</title>
<g id="a_node8"><a xlink:href="namespacesys_1_1io.html#namespacesys_1_1io" target="_top" xlink:title=" ">
<polygon fill="white" stroke="black" points="512.5,-0.5 512.5,-30.5 599.5,-30.5 599.5,-0.5 512.5,-0.5"/>
<text text-anchor="start" x="520.5" y="-18.5" font-family="Helvetica" font-size="10.00">sys::io::file&lt; io::</text>
<text text-anchor="middle" x="556" y="-7.5" font-family="Helvetica" font-size="10.00">link &gt;</text>
</a>
</g>
</g>
<!-- Node8&#45;&gt;Node1 -->
<g id="edge7" class="edge">
<title>Node8&#45;&gt;Node1</title>
<path fill="none" stroke="#9a32cd" stroke-dasharray="5,2" d="M609.28,-33.43C615.29,-35.71 621.31,-38.09 627,-40.5 660.37,-54.61 697.51,-73.3 722.37,-86.25"/>
<polygon fill="#9a32cd" stroke="#9a32cd" points="610.46,-30.13 599.87,-29.94 608.03,-36.7 610.46,-30.13"/>
<text text-anchor="middle" x="659" y="-64.5" font-family="Helvetica" font-size="10.00"> fout</text>
</g>
</g>
</svg>
