<?xml version="1.0" encoding="UTF-8" standalone="no"?>
<!DOCTYPE svg PUBLIC "-//W3C//DTD SVG 1.1//EN"
 "http://www.w3.org/Graphics/SVG/1.1/DTD/svg11.dtd">
<!-- Generated by graphviz version 2.42.2 ()
 -->
<!-- Title: anonymous_namespace{libloadplay.cpp}::Report::Frame Pages: 1 -->
<svg width="1012pt" height="176pt"
 viewBox="0.00 0.00 1012.00 175.50" xmlns="http://www.w3.org/2000/svg" xmlns:xlink="http://www.w3.org/1999/xlink">
<g id="graph0" class="graph" transform="scale(1 1) rotate(0) translate(4 171.5)">
<title>anonymous_namespace{libloadplay.cpp}::Report::Frame</title>
<polygon fill="white" stroke="transparent" points="-4,4 -4,-171.5 1008,-171.5 1008,4 -4,4"/>
<!-- Node1 -->
<g id="node1" class="node">
<title>Node1</title>
<g id="a_node1"><a xlink:title="Represents a frame of the report.">
<polygon fill="#bfbfbf" stroke="black" points="882,-81 882,-122 1004,-122 1004,-81 882,-81"/>
<text text-anchor="start" x="890" y="-110" font-family="Helvetica,sans-Serif" font-size="10.00">anonymous_namespace</text>
<text text-anchor="start" x="890" y="-99" font-family="Helvetica,sans-Serif" font-size="10.00">{libloadplay.cpp}::Report</text>
<text text-anchor="middle" x="943" y="-88" font-family="Helvetica,sans-Serif" font-size="10.00">::Frame</text>
</a>
</g>
</g>
<!-- Node2 -->
<g id="node2" class="node">
<title>Node2</title>
<g id="a_node2"><a xlink:href="classanonymous__namespace_02libloadplay_8cpp_03_1_1Report.html" target="_top" xlink:title="Provides a mechanism to provide frame wise per core load information.">
<polygon fill="white" stroke="black" points="696,-86.5 696,-116.5 818,-116.5 818,-86.5 696,-86.5"/>
<text text-anchor="start" x="704" y="-104.5" font-family="Helvetica,sans-Serif" font-size="10.00">anonymous_namespace</text>
<text text-anchor="middle" x="757" y="-93.5" font-family="Helvetica,sans-Serif" font-size="10.00">{libloadplay.cpp}::Report</text>
</a>
</g>
</g>
<!-- Node2&#45;&gt;Node1 -->
<g id="edge1" class="edge">
<title>Node2&#45;&gt;Node1</title>
<path fill="none" stroke="#9a32cd" stroke-dasharray="5,2" d="M828.48,-101.5C846.11,-101.5 864.86,-101.5 881.93,-101.5"/>
<polygon fill="#9a32cd" stroke="#9a32cd" points="828.25,-98 818.25,-101.5 828.25,-105 828.25,-98"/>
<text text-anchor="middle" x="850" y="-104.5" font-family="Helvetica,sans-Serif" font-size="10.00"> report</text>
</g>
<!-- Node3 -->
<g id="node3" class="node">
<title>Node3</title>
<g id="a_node3"><a xlink:title=" ">
<polygon fill="white" stroke="#bfbfbf" points="535,-148 535,-167 586,-167 586,-148 535,-148"/>
<text text-anchor="middle" x="560.5" y="-155" font-family="Helvetica,sans-Serif" font-size="10.00">coreid_t</text>
</a>
</g>
</g>
<!-- Node3&#45;&gt;Node2 -->
<g id="edge2" class="edge">
<title>Node3&#45;&gt;Node2</title>
<path fill="none" stroke="#9a32cd" stroke-dasharray="5,2" d="M595.98,-148.3C607.45,-145.21 620.28,-141.73 632,-138.5 652.48,-132.85 657.62,-131.51 678,-125.5 687.65,-122.65 697.94,-119.54 707.79,-116.53"/>
<polygon fill="#9a32cd" stroke="#9a32cd" points="595.07,-144.92 586.32,-150.89 596.88,-151.68 595.07,-144.92"/>
<text text-anchor="middle" x="664" y="-135.5" font-family="Helvetica,sans-Serif" font-size="10.00"> ncpu</text>
</g>
<!-- Node4 -->
<g id="node4" class="node">
<title>Node4</title>
<g id="a_node4"><a xlink:href="classutility_1_1Sum.html" target="_top" xlink:title=" ">
<polygon fill="white" stroke="black" points="501,-110 501,-129 620,-129 620,-110 501,-110"/>
<text text-anchor="middle" x="560.5" y="-117" font-family="Helvetica,sans-Serif" font-size="10.00">utility::Sum&lt; uint64_t &gt;</text>
</a>
</g>
</g>
<!-- Node4&#45;&gt;Node2 -->
<g id="edge3" class="edge">
<title>Node4&#45;&gt;Node2</title>
<path fill="none" stroke="#9a32cd" stroke-dasharray="5,2" d="M630.13,-113.15C651.55,-111.17 675.02,-108.99 695.82,-107.07"/>
<polygon fill="#9a32cd" stroke="#9a32cd" points="629.76,-109.67 620.12,-114.07 630.4,-116.64 629.76,-109.67"/>
<text text-anchor="middle" x="664" y="-113.5" font-family="Helvetica,sans-Serif" font-size="10.00"> time</text>
</g>
<!-- Node5 -->
<g id="node5" class="node">
<title>Node5</title>
<g id="a_node5"><a xlink:title=" ">
<polygon fill="white" stroke="#bfbfbf" points="489,-50 489,-91 632,-91 632,-50 489,-50"/>
<text text-anchor="start" x="497" y="-79" font-family="Helvetica,sans-Serif" font-size="10.00">std::unique_ptr&lt; anonymous</text>
<text text-anchor="start" x="497" y="-68" font-family="Helvetica,sans-Serif" font-size="10.00">_namespace{libloadplay.cpp}</text>
<text text-anchor="middle" x="560.5" y="-57" font-family="Helvetica,sans-Serif" font-size="10.00">::CoreFrameReport[]&gt;</text>
</a>
</g>
</g>
<!-- Node5&#45;&gt;Node2 -->
<g id="edge4" class="edge">
<title>Node5&#45;&gt;Node2</title>
<path fill="none" stroke="#9a32cd" stroke-dasharray="5,2" d="M642.16,-83.36C660.13,-86.22 678.88,-89.21 695.86,-91.91"/>
<polygon fill="#9a32cd" stroke="#9a32cd" points="642.7,-79.9 632.27,-81.78 641.59,-86.81 642.7,-79.9"/>
<text text-anchor="middle" x="664" y="-91.5" font-family="Helvetica,sans-Serif" font-size="10.00"> cores</text>
</g>
<!-- Node6 -->
<g id="node6" class="node">
<title>Node6</title>
<g id="a_node6"><a xlink:href="namespaceanonymous__namespace_02libloadplay_8cpp_03.html#structanonymous__namespace_02libloadplay_8cpp_03_1_1CoreFrameReport" target="_top" xlink:title="The report frame information for a single CPU pipeline.">
<polygon fill="white" stroke="black" points="296,-50 296,-91 438,-91 438,-50 296,-50"/>
<text text-anchor="start" x="304" y="-79" font-family="Helvetica,sans-Serif" font-size="10.00">anonymous_namespace</text>
<text text-anchor="start" x="304" y="-68" font-family="Helvetica,sans-Serif" font-size="10.00">{libloadplay.cpp}::CoreFrame</text>
<text text-anchor="middle" x="367" y="-57" font-family="Helvetica,sans-Serif" font-size="10.00">Report</text>
</a>
</g>
</g>
<!-- Node6&#45;&gt;Node5 -->
<g id="edge5" class="edge">
<title>Node6&#45;&gt;Node5</title>
<path fill="none" stroke="#9a32cd" stroke-dasharray="5,2" d="M448.42,-70.5C461.89,-70.5 475.77,-70.5 488.97,-70.5"/>
<polygon fill="#9a32cd" stroke="#9a32cd" points="448.22,-67 438.22,-70.5 448.22,-74 448.22,-67"/>
<text text-anchor="middle" x="463.5" y="-73.5" font-family="Helvetica,sans-Serif" font-size="10.00"> ptr</text>
</g>
<!-- Node7 -->
<g id="node7" class="node">
<title>Node7</title>
<g id="a_node7"><a xlink:href="namespaceanonymous__namespace_02libloadplay_8cpp_03.html#structanonymous__namespace_02libloadplay_8cpp_03_1_1CoreReport" target="_top" xlink:title="The reported state of a single CPU pipeline.">
<polygon fill="white" stroke="black" points="100,-55.5 100,-85.5 243,-85.5 243,-55.5 100,-55.5"/>
<text text-anchor="start" x="108" y="-73.5" font-family="Helvetica,sans-Serif" font-size="10.00">anonymous_namespace</text>
<text text-anchor="middle" x="171.5" y="-62.5" font-family="Helvetica,sans-Serif" font-size="10.00">{libloadplay.cpp}::CoreReport</text>
</a>
</g>
</g>
<!-- Node7&#45;&gt;Node6 -->
<g id="edge6" class="edge">
<title>Node7&#45;&gt;Node6</title>
<path fill="none" stroke="#9a32cd" stroke-dasharray="5,2" d="M253.35,-70.5C267.47,-70.5 282.04,-70.5 295.84,-70.5"/>
<polygon fill="#9a32cd" stroke="#9a32cd" points="253.18,-67 243.18,-70.5 253.18,-74 253.18,-67"/>
<text text-anchor="middle" x="269.5" y="-84.5" font-family="Helvetica,sans-Serif" font-size="10.00"> run</text>
<text text-anchor="middle" x="269.5" y="-73.5" font-family="Helvetica,sans-Serif" font-size="10.00">rec</text>
</g>
<!-- Node8 -->
<g id="node8" class="node">
<title>Node8</title>
<g id="a_node8"><a xlink:title=" ">
<polygon fill="white" stroke="#bfbfbf" points="0,-61 0,-80 44,-80 44,-61 0,-61"/>
<text text-anchor="middle" x="22" y="-68" font-family="Helvetica,sans-Serif" font-size="10.00">mhz_t</text>
</a>
</g>
</g>
<!-- Node8&#45;&gt;Node7 -->
<g id="edge7" class="edge">
<title>Node8&#45;&gt;Node7</title>
<path fill="none" stroke="#9a32cd" stroke-dasharray="5,2" d="M54.18,-70.5C67.54,-70.5 83.73,-70.5 99.74,-70.5"/>
<polygon fill="#9a32cd" stroke="#9a32cd" points="54.13,-67 44.13,-70.5 54.13,-74 54.13,-67"/>
<text text-anchor="middle" x="72" y="-73.5" font-family="Helvetica,sans-Serif" font-size="10.00"> freq</text>
</g>
<!-- Node9 -->
<g id="node9" class="node">
<title>Node9</title>
<g id="a_node9"><a xlink:href="namespacesys_1_1io.html#namespacesys_1_1io" target="_top" xlink:title=" ">
<polygon fill="white" stroke="black" points="517,-0.5 517,-30.5 604,-30.5 604,-0.5 517,-0.5"/>
<text text-anchor="start" x="525" y="-18.5" font-family="Helvetica,sans-Serif" font-size="10.00">sys::io::file&lt; io::</text>
<text text-anchor="middle" x="560.5" y="-7.5" font-family="Helvetica,sans-Serif" font-size="10.00">link &gt;</text>
</a>
</g>
</g>
<!-- Node9&#45;&gt;Node2 -->
<g id="edge8" class="edge">
<title>Node9&#45;&gt;Node2</title>
<path fill="none" stroke="#9a32cd" stroke-dasharray="5,2" d="M613.9,-33.32C620.05,-35.63 626.19,-38.05 632,-40.5 665.6,-54.67 703.02,-73.52 727.87,-86.49"/>
<polygon fill="#9a32cd" stroke="#9a32cd" points="614.9,-29.95 604.31,-29.78 612.48,-36.52 614.9,-29.95"/>
<text text-anchor="middle" x="664" y="-64.5" font-family="Helvetica,sans-Serif" font-size="10.00"> fout</text>
</g>
</g>
</svg>
