<?xml version="1.0" encoding="UTF-8" standalone="no"?>
<!DOCTYPE svg PUBLIC "-//W3C//DTD SVG 1.1//EN"
 "http://www.w3.org/Graphics/SVG/1.1/DTD/svg11.dtd">
<!-- Generated by graphviz version 2.40.1 (20161225.0304)
 -->
<!-- Title: anonymous_namespace{loadplay.cpp}::Report Pages: 1 -->
<svg width="864pt" height="170pt"
 viewBox="0.00 0.00 864.00 169.50" xmlns="http://www.w3.org/2000/svg" xmlns:xlink="http://www.w3.org/1999/xlink">
<g id="graph0" class="graph" transform="scale(1 1) rotate(0) translate(4 165.5)">
<title>anonymous_namespace{loadplay.cpp}::Report</title>
<polygon fill="#ffffff" stroke="transparent" points="-4,4 -4,-165.5 860,-165.5 860,4 -4,4"/>
<!-- Node1 -->
<g id="node1" class="node">
<title>Node1</title>
<g id="a_node1"><a xlink:title="Provides a mechanism to provide frame wise per core load information.">
<polygon fill="#bfbfbf" stroke="#000000" points="734,-62.5 734,-92.5 856,-92.5 856,-62.5 734,-62.5"/>
<text text-anchor="start" x="742" y="-80.5" font-family="Helvetica,sans-Serif" font-size="10.00" fill="#000000">anonymous_namespace</text>
<text text-anchor="middle" x="795" y="-69.5" font-family="Helvetica,sans-Serif" font-size="10.00" fill="#000000">{loadplay.cpp}::Report</text>
</a>
</g>
</g>
<!-- Node2 -->
<g id="node2" class="node">
<title>Node2</title>
<g id="a_node2"><a xlink:title=" ">
<polygon fill="#ffffff" stroke="#bfbfbf" points="574.5,-142 574.5,-161 625.5,-161 625.5,-142 574.5,-142"/>
<text text-anchor="middle" x="600" y="-149" font-family="Helvetica,sans-Serif" font-size="10.00" fill="#000000">coreid_t</text>
</a>
</g>
</g>
<!-- Node2&#45;&gt;Node1 -->
<g id="edge1" class="edge">
<title>Node2&#45;&gt;Node1</title>
<path fill="none" stroke="#9a32cd" stroke-dasharray="5,2" d="M635.4228,-142.9865C646.5941,-140.0089 658.9103,-136.42 670,-132.5 702.86,-120.8845 739.1982,-104.4737 764.1853,-92.6046"/>
<polygon fill="#9a32cd" stroke="#9a32cd" points="634.3573,-139.6468 625.5534,-145.541 636.1114,-146.4235 634.3573,-139.6468"/>
<text text-anchor="middle" x="702" y="-127.5" font-family="Helvetica,sans-Serif" font-size="10.00" fill="#000000"> ncpu</text>
</g>
<!-- Node3 -->
<g id="node3" class="node">
<title>Node3</title>
<g id="a_node3"><a xlink:title=" ">
<polygon fill="#ffffff" stroke="#bfbfbf" points="530,-82 530,-123 670,-123 670,-82 530,-82"/>
<text text-anchor="start" x="538" y="-111" font-family="Helvetica,sans-Serif" font-size="10.00" fill="#000000">std::unique_ptr&lt; anonymous</text>
<text text-anchor="start" x="538" y="-100" font-family="Helvetica,sans-Serif" font-size="10.00" fill="#000000">_namespace{loadplay.cpp}</text>
<text text-anchor="middle" x="600" y="-89" font-family="Helvetica,sans-Serif" font-size="10.00" fill="#000000">::CoreFrameReport[]&gt;</text>
</a>
</g>
</g>
<!-- Node3&#45;&gt;Node1 -->
<g id="edge2" class="edge">
<title>Node3&#45;&gt;Node1</title>
<path fill="none" stroke="#9a32cd" stroke-dasharray="5,2" d="M680.2666,-92.2094C698.179,-89.9129 716.8929,-87.5137 733.8854,-85.3352"/>
<polygon fill="#9a32cd" stroke="#9a32cd" points="679.5977,-88.7664 670.124,-93.5097 680.4879,-95.7096 679.5977,-88.7664"/>
<text text-anchor="middle" x="702" y="-93.5" font-family="Helvetica,sans-Serif" font-size="10.00" fill="#000000"> cores</text>
</g>
<!-- Node4 -->
<g id="node4" class="node">
<title>Node4</title>
<g id="a_node4"><a xlink:href="namespaceanonymous__namespace_02loadplay_8cpp_03.html#structanonymous__namespace_02loadplay_8cpp_03_1_1CoreFrameReport" target="_top" xlink:title="The report frame information for a single CPU pipeline.">
<polygon fill="#ffffff" stroke="#000000" points="318,-87.5 318,-117.5 479,-117.5 479,-87.5 318,-87.5"/>
<text text-anchor="start" x="326" y="-105.5" font-family="Helvetica,sans-Serif" font-size="10.00" fill="#000000">anonymous_namespace</text>
<text text-anchor="middle" x="398.5" y="-94.5" font-family="Helvetica,sans-Serif" font-size="10.00" fill="#000000">{loadplay.cpp}::CoreFrameReport</text>
</a>
</g>
</g>
<!-- Node4&#45;&gt;Node3 -->
<g id="edge3" class="edge">
<title>Node4&#45;&gt;Node3</title>
<path fill="none" stroke="#9a32cd" stroke-dasharray="5,2" d="M489.3074,-102.5C502.8606,-102.5 516.6562,-102.5 529.7002,-102.5"/>
<polygon fill="#9a32cd" stroke="#9a32cd" points="489.0069,-99.0001 479.0068,-102.5 489.0068,-106.0001 489.0069,-99.0001"/>
<text text-anchor="middle" x="504.5" y="-105.5" font-family="Helvetica,sans-Serif" font-size="10.00" fill="#000000"> ptr</text>
</g>
<!-- Node5 -->
<g id="node5" class="node">
<title>Node5</title>
<g id="a_node5"><a xlink:href="namespaceanonymous__namespace_02loadplay_8cpp_03.html#structanonymous__namespace_02loadplay_8cpp_03_1_1CoreReport" target="_top" xlink:title="The reported state of a single CPU pipeline.">
<polygon fill="#ffffff" stroke="#000000" points="131,-87.5 131,-117.5 265,-117.5 265,-87.5 131,-87.5"/>
<text text-anchor="start" x="139" y="-105.5" font-family="Helvetica,sans-Serif" font-size="10.00" fill="#000000">anonymous_namespace</text>
<text text-anchor="middle" x="198" y="-94.5" font-family="Helvetica,sans-Serif" font-size="10.00" fill="#000000">{loadplay.cpp}::CoreReport</text>
</a>
</g>
</g>
<!-- Node5&#45;&gt;Node4 -->
<g id="edge4" class="edge">
<title>Node5&#45;&gt;Node4</title>
<path fill="none" stroke="#9a32cd" stroke-dasharray="5,2" d="M275.128,-102.5C289.1572,-102.5 303.8254,-102.5 317.9504,-102.5"/>
<polygon fill="#9a32cd" stroke="#9a32cd" points="275.0424,-99.0001 265.0424,-102.5 275.0423,-106.0001 275.0424,-99.0001"/>
<text text-anchor="middle" x="291.5" y="-116.5" font-family="Helvetica,sans-Serif" font-size="10.00" fill="#000000"> run</text>
<text text-anchor="middle" x="291.5" y="-105.5" font-family="Helvetica,sans-Serif" font-size="10.00" fill="#000000">rec</text>
</g>
<!-- Node6 -->
<g id="node6" class="node">
<title>Node6</title>
<g id="a_node6"><a xlink:title=" ">
<polygon fill="#ffffff" stroke="#bfbfbf" points="15.5,-93 15.5,-112 59.5,-112 59.5,-93 15.5,-93"/>
<text text-anchor="middle" x="37.5" y="-100" font-family="Helvetica,sans-Serif" font-size="10.00" fill="#000000">mhz_t</text>
</a>
</g>
</g>
<!-- Node6&#45;&gt;Node5 -->
<g id="edge5" class="edge">
<title>Node6&#45;&gt;Node5</title>
<path fill="none" stroke="#9a32cd" stroke-dasharray="5,2" d="M70.0417,-102.5C87.5346,-102.5 109.7758,-102.5 130.7909,-102.5"/>
<polygon fill="#9a32cd" stroke="#9a32cd" points="69.8169,-99.0001 59.8168,-102.5 69.8168,-106.0001 69.8169,-99.0001"/>
<text text-anchor="middle" x="103" y="-105.5" font-family="Helvetica,sans-Serif" font-size="10.00" fill="#000000"> freq</text>
</g>
<!-- Node7 -->
<g id="node7" class="node">
<title>Node7</title>
<g id="a_node7"><a xlink:href="classutility_1_1Sum.html" target="_top" xlink:title=" ">
<polygon fill="#ffffff" stroke="#000000" points="540.5,-44 540.5,-63 659.5,-63 659.5,-44 540.5,-44"/>
<text text-anchor="middle" x="600" y="-51" font-family="Helvetica,sans-Serif" font-size="10.00" fill="#000000">utility::Sum&lt; uint64_t &gt;</text>
</a>
</g>
</g>
<!-- Node7&#45;&gt;Node1 -->
<g id="edge6" class="edge">
<title>Node7&#45;&gt;Node1</title>
<path fill="none" stroke="#9a32cd" stroke-dasharray="5,2" d="M670.098,-57.6868C685.2671,-58.9421 701.196,-60.5264 716,-62.5 721.8119,-63.2748 727.8432,-64.1992 733.8654,-65.2031"/>
<polygon fill="#9a32cd" stroke="#9a32cd" points="669.9851,-54.1671 659.7408,-56.8696 669.4345,-61.1454 669.9851,-54.1671"/>
<text text-anchor="middle" x="702" y="-65.5" font-family="Helvetica,sans-Serif" font-size="10.00" fill="#000000"> time</text>
</g>
<!-- Node8 -->
<g id="node8" class="node">
<title>Node8</title>
<g id="a_node8"><a xlink:title="STL class.">
<polygon fill="#ffffff" stroke="#bfbfbf" points="564.5,-6 564.5,-25 635.5,-25 635.5,-6 564.5,-6"/>
<text text-anchor="middle" x="600" y="-13" font-family="Helvetica,sans-Serif" font-size="10.00" fill="#000000">std::ostream</text>
</a>
</g>
</g>
<!-- Node8&#45;&gt;Node1 -->
<g id="edge7" class="edge">
<title>Node8&#45;&gt;Node1</title>
<path fill="none" stroke="#9a32cd" stroke-dasharray="5,2" d="M645.5643,-25.2156C667.135,-30.2396 693.1229,-36.9103 716,-44.5 731.3774,-49.6016 747.9818,-56.3414 761.9807,-62.3996"/>
<polygon fill="#9a32cd" stroke="#9a32cd" points="646.2066,-21.7722 635.678,-22.9554 644.6465,-28.5961 646.2066,-21.7722"/>
<text text-anchor="middle" x="702" y="-47.5" font-family="Helvetica,sans-Serif" font-size="10.00" fill="#000000"> out</text>
</g>
<!-- Node9 -->
<g id="node9" class="node">
<title>Node9</title>
<g id="a_node9"><a xlink:title="STL class.">
<polygon fill="#ffffff" stroke="#bfbfbf" points="348.5,-.5 348.5,-30.5 448.5,-30.5 448.5,-.5 348.5,-.5"/>
<text text-anchor="start" x="356.5" y="-18.5" font-family="Helvetica,sans-Serif" font-size="10.00" fill="#000000">std::basic_ostream</text>
<text text-anchor="middle" x="398.5" y="-7.5" font-family="Helvetica,sans-Serif" font-size="10.00" fill="#000000">&lt; char &gt;</text>
</a>
</g>
</g>
<!-- Node9&#45;&gt;Node8 -->
<g id="edge8" class="edge">
<title>Node9&#45;&gt;Node8</title>
<path fill="none" stroke="#191970" d="M458.983,-15.5C493.3909,-15.5 535.2989,-15.5 564.4465,-15.5"/>
<polygon fill="#191970" stroke="#191970" points="458.5679,-12.0001 448.5679,-15.5 458.5679,-19.0001 458.5679,-12.0001"/>
</g>
<!-- Node10 -->
<g id="node10" class="node">
<title>Node10</title>
<g id="a_node10"><a xlink:title="STL class.">
<polygon fill="#ffffff" stroke="#bfbfbf" points="140,-6 140,-25 256,-25 256,-6 140,-6"/>
<text text-anchor="middle" x="198" y="-13" font-family="Helvetica,sans-Serif" font-size="10.00" fill="#000000">std::basic_ios&lt; Char &gt;</text>
</a>
</g>
</g>
<!-- Node10&#45;&gt;Node9 -->
<g id="edge9" class="edge">
<title>Node10&#45;&gt;Node9</title>
<path fill="none" stroke="#191970" d="M266.3679,-15.5C293.2192,-15.5 323.4765,-15.5 348.2551,-15.5"/>
<polygon fill="#191970" stroke="#191970" points="266.2623,-12.0001 256.2622,-15.5 266.2622,-19.0001 266.2623,-12.0001"/>
</g>
<!-- Node11 -->
<g id="node11" class="node">
<title>Node11</title>
<g id="a_node11"><a xlink:title="STL class.">
<polygon fill="#ffffff" stroke="#bfbfbf" points="0,-6 0,-25 75,-25 75,-6 0,-6"/>
<text text-anchor="middle" x="37.5" y="-13" font-family="Helvetica,sans-Serif" font-size="10.00" fill="#000000">std::ios_base</text>
</a>
</g>
</g>
<!-- Node11&#45;&gt;Node10 -->
<g id="edge10" class="edge">
<title>Node11&#45;&gt;Node10</title>
<path fill="none" stroke="#191970" d="M85.4415,-15.5C102.5467,-15.5 122.0027,-15.5 139.8715,-15.5"/>
<polygon fill="#191970" stroke="#191970" points="85.1302,-12.0001 75.1301,-15.5 85.1301,-19.0001 85.1302,-12.0001"/>
</g>
</g>
</svg>
