<?xml version="1.0" encoding="UTF-8" standalone="no"?>
<!DOCTYPE svg PUBLIC "-//W3C//DTD SVG 1.1//EN"
 "http://www.w3.org/Graphics/SVG/1.1/DTD/svg11.dtd">
<!-- Generated by graphviz version 2.42.2 ()
 -->
<!-- Title: src/clas.hpp Pages: 1 -->
<svg width="280pt" height="196pt"
 viewBox="0.00 0.00 279.50 196.00" xmlns="http://www.w3.org/2000/svg" xmlns:xlink="http://www.w3.org/1999/xlink">
<g id="graph0" class="graph" transform="scale(1 1) rotate(0) translate(4 192)">
<title>src/clas.hpp</title>
<polygon fill="white" stroke="transparent" points="-4,4 -4,-192 275.5,-192 275.5,4 -4,4"/>
<!-- Node1 -->
<g id="node1" class="node">
<title>Node1</title>
<g id="a_node1"><a xlink:title="Provides functions to process command line arguments.">
<polygon fill="#bfbfbf" stroke="black" points="130.5,-168.5 130.5,-187.5 200.5,-187.5 200.5,-168.5 130.5,-168.5"/>
<text text-anchor="middle" x="165.5" y="-175.5" font-family="Helvetica" font-size="10.00">src/clas.hpp</text>
</a>
</g>
</g>
<!-- Node2 -->
<g id="node2" class="node">
<title>Node2</title>
<g id="a_node2"><a xlink:href="types_8hpp.html" target="_top" xlink:title="A collection of type aliases.">
<polygon fill="white" stroke="black" points="0,-112.5 0,-131.5 59,-131.5 59,-112.5 0,-112.5"/>
<text text-anchor="middle" x="29.5" y="-119.5" font-family="Helvetica" font-size="10.00">types.hpp</text>
</a>
</g>
</g>
<!-- Node1&#45;&gt;Node2 -->
<g id="edge1" class="edge">
<title>Node1&#45;&gt;Node2</title>
<path fill="none" stroke="midnightblue" d="M143.95,-168.44C121.47,-159.52 86.01,-145.44 60.52,-135.32"/>
<polygon fill="midnightblue" stroke="midnightblue" points="61.53,-131.95 50.95,-131.52 58.95,-138.46 61.53,-131.95"/>
</g>
<!-- Node4 -->
<g id="node4" class="node">
<title>Node4</title>
<g id="a_node4"><a xlink:href="errors_8hpp.html" target="_top" xlink:title="Common error handling code.">
<polygon fill="white" stroke="black" points="77.5,-112.5 77.5,-131.5 137.5,-131.5 137.5,-112.5 77.5,-112.5"/>
<text text-anchor="middle" x="107.5" y="-119.5" font-family="Helvetica" font-size="10.00">errors.hpp</text>
</a>
</g>
</g>
<!-- Node1&#45;&gt;Node4 -->
<g id="edge3" class="edge">
<title>Node1&#45;&gt;Node4</title>
<path fill="none" stroke="midnightblue" d="M156.18,-168.32C147.61,-160.34 134.69,-148.31 124.31,-138.65"/>
<polygon fill="midnightblue" stroke="midnightblue" points="126.69,-136.09 116.99,-131.83 121.92,-141.21 126.69,-136.09"/>
</g>
<!-- Node5 -->
<g id="node5" class="node">
<title>Node5</title>
<g id="a_node5"><a xlink:href="utility_8hpp.html" target="_top" xlink:title="Implements generally useful functions.">
<polygon fill="white" stroke="black" points="114.5,-56.5 114.5,-75.5 172.5,-75.5 172.5,-56.5 114.5,-56.5"/>
<text text-anchor="middle" x="143.5" y="-63.5" font-family="Helvetica" font-size="10.00">utility.hpp</text>
</a>
</g>
</g>
<!-- Node1&#45;&gt;Node5 -->
<g id="edge8" class="edge">
<title>Node1&#45;&gt;Node5</title>
<path fill="none" stroke="midnightblue" d="M163.77,-168.37C160.22,-150.62 152.03,-109.67 147.22,-85.6"/>
<polygon fill="midnightblue" stroke="midnightblue" points="150.61,-84.71 145.22,-75.59 143.75,-86.08 150.61,-84.71"/>
</g>
<!-- Node7 -->
<g id="node7" class="node">
<title>Node7</title>
<g id="a_node7"><a xlink:title=" ">
<polygon fill="white" stroke="#bfbfbf" points="183,-0.5 183,-19.5 224,-19.5 224,-0.5 183,-0.5"/>
<text text-anchor="middle" x="203.5" y="-7.5" font-family="Helvetica" font-size="10.00">string</text>
</a>
</g>
</g>
<!-- Node1&#45;&gt;Node7 -->
<g id="edge9" class="edge">
<title>Node1&#45;&gt;Node7</title>
<path fill="none" stroke="midnightblue" d="M167.54,-168.08C173.52,-141.95 191.09,-65.21 199.25,-29.58"/>
<polygon fill="midnightblue" stroke="midnightblue" points="202.72,-30.1 201.54,-19.57 195.9,-28.53 202.72,-30.1"/>
</g>
<!-- Node9 -->
<g id="node9" class="node">
<title>Node9</title>
<g id="a_node9"><a xlink:title=" ">
<polygon fill="white" stroke="#bfbfbf" points="231.5,-112.5 231.5,-131.5 271.5,-131.5 271.5,-112.5 231.5,-112.5"/>
<text text-anchor="middle" x="251.5" y="-119.5" font-family="Helvetica" font-size="10.00">utility</text>
</a>
</g>
</g>
<!-- Node1&#45;&gt;Node9 -->
<g id="edge10" class="edge">
<title>Node1&#45;&gt;Node9</title>
<path fill="none" stroke="midnightblue" d="M179.32,-168.32C192.73,-159.9 213.32,-146.97 229.09,-137.07"/>
<polygon fill="midnightblue" stroke="midnightblue" points="231.11,-139.94 237.72,-131.65 227.39,-134.01 231.11,-139.94"/>
</g>
<!-- Node3 -->
<g id="node3" class="node">
<title>Node3</title>
<g id="a_node3"><a xlink:title=" ">
<polygon fill="white" stroke="#bfbfbf" points="6.5,-56.5 6.5,-75.5 52.5,-75.5 52.5,-56.5 6.5,-56.5"/>
<text text-anchor="middle" x="29.5" y="-63.5" font-family="Helvetica" font-size="10.00">chrono</text>
</a>
</g>
</g>
<!-- Node2&#45;&gt;Node3 -->
<g id="edge2" class="edge">
<title>Node2&#45;&gt;Node3</title>
<path fill="none" stroke="midnightblue" d="M29.5,-112.08C29.5,-105.01 29.5,-94.86 29.5,-85.99"/>
<polygon fill="midnightblue" stroke="midnightblue" points="33,-85.75 29.5,-75.75 26,-85.75 33,-85.75"/>
</g>
<!-- Node4&#45;&gt;Node5 -->
<g id="edge4" class="edge">
<title>Node4&#45;&gt;Node5</title>
<path fill="none" stroke="midnightblue" d="M113.44,-112.08C118.48,-104.53 125.84,-93.49 132.01,-84.23"/>
<polygon fill="midnightblue" stroke="midnightblue" points="135.03,-86.01 137.67,-75.75 129.21,-82.13 135.03,-86.01"/>
</g>
<!-- Node6 -->
<g id="node6" class="node">
<title>Node6</title>
<g id="a_node6"><a xlink:title=" ">
<polygon fill="white" stroke="#bfbfbf" points="41.5,-0.5 41.5,-19.5 103.5,-19.5 103.5,-0.5 41.5,-0.5"/>
<text text-anchor="middle" x="72.5" y="-7.5" font-family="Helvetica" font-size="10.00">type_traits</text>
</a>
</g>
</g>
<!-- Node5&#45;&gt;Node6 -->
<g id="edge5" class="edge">
<title>Node5&#45;&gt;Node6</title>
<path fill="none" stroke="midnightblue" d="M132.09,-56.32C121.39,-48.18 105.16,-35.84 92.34,-26.09"/>
<polygon fill="midnightblue" stroke="midnightblue" points="94.19,-23.1 84.11,-19.83 89.96,-28.67 94.19,-23.1"/>
</g>
<!-- Node5&#45;&gt;Node7 -->
<g id="edge6" class="edge">
<title>Node5&#45;&gt;Node7</title>
<path fill="none" stroke="midnightblue" d="M153.14,-56.32C162.01,-48.34 175.37,-36.31 186.11,-26.65"/>
<polygon fill="midnightblue" stroke="midnightblue" points="188.59,-29.13 193.68,-19.83 183.91,-23.92 188.59,-29.13"/>
</g>
<!-- Node8 -->
<g id="node8" class="node">
<title>Node8</title>
<g id="a_node8"><a xlink:title=" ">
<polygon fill="white" stroke="#bfbfbf" points="122,-0.5 122,-19.5 165,-19.5 165,-0.5 122,-0.5"/>
<text text-anchor="middle" x="143.5" y="-7.5" font-family="Helvetica" font-size="10.00">cstdio</text>
</a>
</g>
</g>
<!-- Node5&#45;&gt;Node8 -->
<g id="edge7" class="edge">
<title>Node5&#45;&gt;Node8</title>
<path fill="none" stroke="midnightblue" d="M143.5,-56.08C143.5,-49.01 143.5,-38.86 143.5,-29.99"/>
<polygon fill="midnightblue" stroke="midnightblue" points="147,-29.75 143.5,-19.75 140,-29.75 147,-29.75"/>
</g>
</g>
</svg>
