<?xml version="1.0" encoding="UTF-8" standalone="no"?>
<!DOCTYPE svg PUBLIC "-//W3C//DTD SVG 1.1//EN"
 "http://www.w3.org/Graphics/SVG/1.1/DTD/svg11.dtd">
<!-- Generated by graphviz version 2.42.2 ()
 -->
<!-- Title: anonymous_namespace{powerd++.cpp}::FreqGuard Pages: 1 -->
<svg width="145pt" height="173pt"
 viewBox="0.00 0.00 145.00 173.00" xmlns="http://www.w3.org/2000/svg" xmlns:xlink="http://www.w3.org/1999/xlink">
<g id="graph0" class="graph" transform="scale(1 1) rotate(0) translate(4 169)">
<title>anonymous_namespace{powerd++.cpp}::FreqGuard</title>
<polygon fill="white" stroke="transparent" points="-4,4 -4,-169 141,-169 141,4 -4,4"/>
<!-- Node1 -->
<g id="node1" class="node">
<title>Node1</title>
<g id="a_node1"><a xlink:title="A core frequency guard.">
<polygon fill="#bfbfbf" stroke="black" points="0,-0.5 0,-30.5 137,-30.5 137,-0.5 0,-0.5"/>
<text text-anchor="start" x="8" y="-18.5" font-family="Helvetica,sans-Serif" font-size="10.00">anonymous_namespace</text>
<text text-anchor="middle" x="68.5" y="-7.5" font-family="Helvetica,sans-Serif" font-size="10.00">{powerd++.cpp}::FreqGuard</text>
</a>
</g>
</g>
<!-- Node2 -->
<g id="node2" class="node">
<title>Node2</title>
<g id="a_node2"><a xlink:title=" ">
<polygon fill="white" stroke="#bfbfbf" points="4,-78.5 4,-97.5 133,-97.5 133,-78.5 4,-78.5"/>
<text text-anchor="middle" x="68.5" y="-85.5" font-family="Helvetica,sans-Serif" font-size="10.00">std::unique_ptr&lt; mhz_t[]&gt;</text>
</a>
</g>
</g>
<!-- Node2&#45;&gt;Node1 -->
<g id="edge1" class="edge">
<title>Node2&#45;&gt;Node1</title>
<path fill="none" stroke="#9a32cd" stroke-dasharray="5,2" d="M68.5,-68.24C68.5,-56.41 68.5,-41.38 68.5,-30.58"/>
<polygon fill="#9a32cd" stroke="#9a32cd" points="65,-68.36 68.5,-78.36 72,-68.36 65,-68.36"/>
<text text-anchor="middle" x="81" y="-52" font-family="Helvetica,sans-Serif" font-size="10.00"> freqs</text>
</g>
<!-- Node3 -->
<g id="node3" class="node">
<title>Node3</title>
<g id="a_node3"><a xlink:title=" ">
<polygon fill="white" stroke="#bfbfbf" points="46.5,-145.5 46.5,-164.5 90.5,-164.5 90.5,-145.5 46.5,-145.5"/>
<text text-anchor="middle" x="68.5" y="-152.5" font-family="Helvetica,sans-Serif" font-size="10.00">mhz_t</text>
</a>
</g>
</g>
<!-- Node3&#45;&gt;Node2 -->
<g id="edge2" class="edge">
<title>Node3&#45;&gt;Node2</title>
<path fill="none" stroke="#9a32cd" stroke-dasharray="5,2" d="M68.5,-135.04C68.5,-122.67 68.5,-107.12 68.5,-97.63"/>
<polygon fill="#9a32cd" stroke="#9a32cd" points="65,-135.23 68.5,-145.23 72,-135.23 65,-135.23"/>
<text text-anchor="middle" x="76" y="-119" font-family="Helvetica,sans-Serif" font-size="10.00"> ptr</text>
</g>
</g>
</svg>
