<?xml version="1.0" encoding="UTF-8" standalone="no"?>
<!DOCTYPE svg PUBLIC "-//W3C//DTD SVG 1.1//EN"
 "http://www.w3.org/Graphics/SVG/1.1/DTD/svg11.dtd">
<!-- Generated by graphviz version 2.40.1 (20161225.0304)
 -->
<!-- Title: anonymous_namespace{libloadplay.cpp}::Report Pages: 1 -->
<svg width="857pt" height="175pt"
 viewBox="0.00 0.00 857.00 174.50" xmlns="http://www.w3.org/2000/svg" xmlns:xlink="http://www.w3.org/1999/xlink">
<g id="graph0" class="graph" transform="scale(1 1) rotate(0) translate(4 170.5)">
<title>anonymous_namespace{libloadplay.cpp}::Report</title>
<polygon fill="#ffffff" stroke="transparent" points="-4,4 -4,-170.5 853,-170.5 853,4 -4,4"/>
<!-- Node1 -->
<g id="node1" class="node">
<title>Node1</title>
<g id="a_node1"><a xlink:title="Provides a mechanism to provide frame wise per core load information.">
<polygon fill="#bfbfbf" stroke="#000000" points="727,-85.5 727,-115.5 849,-115.5 849,-85.5 727,-85.5"/>
<text text-anchor="start" x="735" y="-103.5" font-family="Helvetica,sans-Serif" font-size="10.00" fill="#000000">anonymous_namespace</text>
<text text-anchor="middle" x="788" y="-92.5" font-family="Helvetica,sans-Serif" font-size="10.00" fill="#000000">{libloadplay.cpp}::Report</text>
</a>
</g>
</g>
<!-- Node2 -->
<g id="node2" class="node">
<title>Node2</title>
<g id="a_node2"><a xlink:title=" ">
<polygon fill="#ffffff" stroke="#bfbfbf" points="566,-147 566,-166 617,-166 617,-147 566,-147"/>
<text text-anchor="middle" x="591.5" y="-154" font-family="Helvetica,sans-Serif" font-size="10.00" fill="#000000">coreid_t</text>
</a>
</g>
</g>
<!-- Node2&#45;&gt;Node1 -->
<g id="edge1" class="edge">
<title>Node2&#45;&gt;Node1</title>
<path fill="none" stroke="#9a32cd" stroke-dasharray="5,2" d="M626.7574,-147.2484C638.3163,-144.184 651.216,-140.7306 663,-137.5 683.4892,-131.8828 688.6129,-130.4769 709,-124.5 718.7662,-121.6368 729.1919,-118.5157 739.16,-115.5"/>
<polygon fill="#9a32cd" stroke="#9a32cd" points="625.78,-143.8865 617.0066,-149.8259 627.569,-150.654 625.78,-143.8865"/>
<text text-anchor="middle" x="695" y="-134.5" font-family="Helvetica,sans-Serif" font-size="10.00" fill="#000000"> ncpu</text>
</g>
<!-- Node3 -->
<g id="node3" class="node">
<title>Node3</title>
<g id="a_node3"><a xlink:href="classutility_1_1Sum.html" target="_top" xlink:title=" ">
<polygon fill="#ffffff" stroke="#000000" points="532,-109 532,-128 651,-128 651,-109 532,-109"/>
<text text-anchor="middle" x="591.5" y="-116" font-family="Helvetica,sans-Serif" font-size="10.00" fill="#000000">utility::Sum&lt; uint64_t &gt;</text>
</a>
</g>
</g>
<!-- Node3&#45;&gt;Node1 -->
<g id="edge2" class="edge">
<title>Node3&#45;&gt;Node1</title>
<path fill="none" stroke="#9a32cd" stroke-dasharray="5,2" d="M661.2598,-112.1098C682.6648,-110.149 706.0447,-108.0074 726.8298,-106.1034"/>
<polygon fill="#9a32cd" stroke="#9a32cd" points="660.8958,-108.6284 651.2568,-113.0261 661.5344,-115.5992 660.8958,-108.6284"/>
<text text-anchor="middle" x="695" y="-112.5" font-family="Helvetica,sans-Serif" font-size="10.00" fill="#000000"> time</text>
</g>
<!-- Node4 -->
<g id="node4" class="node">
<title>Node4</title>
<g id="a_node4"><a xlink:title=" ">
<polygon fill="#ffffff" stroke="#bfbfbf" points="520,-49 520,-90 663,-90 663,-49 520,-49"/>
<text text-anchor="start" x="528" y="-78" font-family="Helvetica,sans-Serif" font-size="10.00" fill="#000000">std::unique_ptr&lt; anonymous</text>
<text text-anchor="start" x="528" y="-67" font-family="Helvetica,sans-Serif" font-size="10.00" fill="#000000">_namespace{libloadplay.cpp}</text>
<text text-anchor="middle" x="591.5" y="-56" font-family="Helvetica,sans-Serif" font-size="10.00" fill="#000000">::CoreFrameReport[]&gt;</text>
</a>
</g>
</g>
<!-- Node4&#45;&gt;Node1 -->
<g id="edge3" class="edge">
<title>Node4&#45;&gt;Node1</title>
<path fill="none" stroke="#9a32cd" stroke-dasharray="5,2" d="M673.6479,-82.4597C691.4384,-85.2664 709.9529,-88.1872 726.7721,-90.8406"/>
<polygon fill="#9a32cd" stroke="#9a32cd" points="673.6984,-78.9245 663.2751,-80.8233 672.6075,-85.839 673.6984,-78.9245"/>
<text text-anchor="middle" x="695" y="-90.5" font-family="Helvetica,sans-Serif" font-size="10.00" fill="#000000"> cores</text>
</g>
<!-- Node5 -->
<g id="node5" class="node">
<title>Node5</title>
<g id="a_node5"><a xlink:href="namespaceanonymous__namespace_02libloadplay_8cpp_03.html#structanonymous__namespace_02libloadplay_8cpp_03_1_1CoreFrameReport" target="_top" xlink:title="The report frame information for a single CPU pipeline.">
<polygon fill="#ffffff" stroke="#000000" points="327,-50 327,-91 469,-91 469,-50 327,-50"/>
<text text-anchor="start" x="335" y="-79" font-family="Helvetica,sans-Serif" font-size="10.00" fill="#000000">anonymous_namespace</text>
<text text-anchor="start" x="335" y="-68" font-family="Helvetica,sans-Serif" font-size="10.00" fill="#000000">{libloadplay.cpp}::CoreFrame</text>
<text text-anchor="middle" x="398" y="-57" font-family="Helvetica,sans-Serif" font-size="10.00" fill="#000000">Report</text>
</a>
</g>
</g>
<!-- Node5&#45;&gt;Node4 -->
<g id="edge4" class="edge">
<title>Node5&#45;&gt;Node4</title>
<path fill="none" stroke="#9a32cd" stroke-dasharray="5,2" d="M479.389,-70.0794C492.8027,-70.0101 506.6207,-69.9387 519.7759,-69.8707"/>
<polygon fill="#9a32cd" stroke="#9a32cd" points="479.2096,-66.5802 469.2279,-70.1319 479.2459,-73.5801 479.2096,-66.5802"/>
<text text-anchor="middle" x="494.5" y="-72.5" font-family="Helvetica,sans-Serif" font-size="10.00" fill="#000000"> ptr</text>
</g>
<!-- Node6 -->
<g id="node6" class="node">
<title>Node6</title>
<g id="a_node6"><a xlink:href="namespaceanonymous__namespace_02libloadplay_8cpp_03.html#structanonymous__namespace_02libloadplay_8cpp_03_1_1CoreReport" target="_top" xlink:title="The reported state of a single CPU pipeline.">
<polygon fill="#ffffff" stroke="#000000" points="131,-55.5 131,-85.5 274,-85.5 274,-55.5 131,-55.5"/>
<text text-anchor="start" x="139" y="-73.5" font-family="Helvetica,sans-Serif" font-size="10.00" fill="#000000">anonymous_namespace</text>
<text text-anchor="middle" x="202.5" y="-62.5" font-family="Helvetica,sans-Serif" font-size="10.00" fill="#000000">{libloadplay.cpp}::CoreReport</text>
</a>
</g>
</g>
<!-- Node6&#45;&gt;Node5 -->
<g id="edge5" class="edge">
<title>Node6&#45;&gt;Node5</title>
<path fill="none" stroke="#9a32cd" stroke-dasharray="5,2" d="M284.3913,-70.5C298.54,-70.5 313.1441,-70.5 326.9751,-70.5"/>
<polygon fill="#9a32cd" stroke="#9a32cd" points="284.1869,-67.0001 274.1869,-70.5 284.1868,-74.0001 284.1869,-67.0001"/>
<text text-anchor="middle" x="300.5" y="-84.5" font-family="Helvetica,sans-Serif" font-size="10.00" fill="#000000"> run</text>
<text text-anchor="middle" x="300.5" y="-73.5" font-family="Helvetica,sans-Serif" font-size="10.00" fill="#000000">rec</text>
</g>
<!-- Node7 -->
<g id="node7" class="node">
<title>Node7</title>
<g id="a_node7"><a xlink:title=" ">
<polygon fill="#ffffff" stroke="#bfbfbf" points="15.5,-61 15.5,-80 59.5,-80 59.5,-61 15.5,-61"/>
<text text-anchor="middle" x="37.5" y="-68" font-family="Helvetica,sans-Serif" font-size="10.00" fill="#000000">mhz_t</text>
</a>
</g>
</g>
<!-- Node7&#45;&gt;Node6 -->
<g id="edge6" class="edge">
<title>Node7&#45;&gt;Node6</title>
<path fill="none" stroke="#9a32cd" stroke-dasharray="5,2" d="M69.906,-70.5C87.2859,-70.5 109.4388,-70.5 130.6386,-70.5"/>
<polygon fill="#9a32cd" stroke="#9a32cd" points="69.7527,-67.0001 59.7526,-70.5 69.7526,-74.0001 69.7527,-67.0001"/>
<text text-anchor="middle" x="103" y="-73.5" font-family="Helvetica,sans-Serif" font-size="10.00" fill="#000000"> freq</text>
</g>
<!-- Node8 -->
<g id="node8" class="node">
<title>Node8</title>
<g id="a_node8"><a xlink:title="STL class.">
<polygon fill="#ffffff" stroke="#bfbfbf" points="556,-10 556,-29 627,-29 627,-10 556,-10"/>
<text text-anchor="middle" x="591.5" y="-17" font-family="Helvetica,sans-Serif" font-size="10.00" fill="#000000">std::ostream</text>
</a>
</g>
</g>
<!-- Node8&#45;&gt;Node1 -->
<g id="edge7" class="edge">
<title>Node8&#45;&gt;Node1</title>
<path fill="none" stroke="#9a32cd" stroke-dasharray="5,2" d="M636.901,-30.8615C645.6546,-33.4268 654.684,-36.3378 663,-39.5 697.759,-52.7175 735.9333,-72.1072 760.8353,-85.4601"/>
<polygon fill="#9a32cd" stroke="#9a32cd" points="637.7628,-27.4681 627.1879,-28.1172 635.8595,-34.2044 637.7628,-27.4681"/>
<text text-anchor="middle" x="695" y="-61.5" font-family="Helvetica,sans-Serif" font-size="10.00" fill="#000000"> out</text>
</g>
<!-- Node9 -->
<g id="node9" class="node">
<title>Node9</title>
<g id="a_node9"><a xlink:title="STL class.">
<polygon fill="#ffffff" stroke="#bfbfbf" points="348,-.5 348,-30.5 448,-30.5 448,-.5 348,-.5"/>
<text text-anchor="start" x="356" y="-18.5" font-family="Helvetica,sans-Serif" font-size="10.00" fill="#000000">std::basic_ostream</text>
<text text-anchor="middle" x="398" y="-7.5" font-family="Helvetica,sans-Serif" font-size="10.00" fill="#000000">&lt; char &gt;</text>
</a>
</g>
</g>
<!-- Node9&#45;&gt;Node8 -->
<g id="edge8" class="edge">
<title>Node9&#45;&gt;Node8</title>
<path fill="none" stroke="#191970" d="M458.2545,-16.7456C490.3297,-17.4086 528.6757,-18.2013 555.9783,-18.7657"/>
<polygon fill="#191970" stroke="#191970" points="458.1529,-13.2428 448.0827,-16.5353 458.0082,-20.2413 458.1529,-13.2428"/>
</g>
<!-- Node10 -->
<g id="node10" class="node">
<title>Node10</title>
<g id="a_node10"><a xlink:title="STL class.">
<polygon fill="#ffffff" stroke="#bfbfbf" points="144.5,-6 144.5,-25 260.5,-25 260.5,-6 144.5,-6"/>
<text text-anchor="middle" x="202.5" y="-13" font-family="Helvetica,sans-Serif" font-size="10.00" fill="#000000">std::basic_ios&lt; Char &gt;</text>
</a>
</g>
</g>
<!-- Node10&#45;&gt;Node9 -->
<g id="edge9" class="edge">
<title>Node10&#45;&gt;Node9</title>
<path fill="none" stroke="#191970" d="M270.8904,-15.5C296.1671,-15.5 324.3311,-15.5 347.7114,-15.5"/>
<polygon fill="#191970" stroke="#191970" points="270.6272,-12.0001 260.6271,-15.5 270.6271,-19.0001 270.6272,-12.0001"/>
</g>
<!-- Node11 -->
<g id="node11" class="node">
<title>Node11</title>
<g id="a_node11"><a xlink:title="STL class.">
<polygon fill="#ffffff" stroke="#bfbfbf" points="0,-6 0,-25 75,-25 75,-6 0,-6"/>
<text text-anchor="middle" x="37.5" y="-13" font-family="Helvetica,sans-Serif" font-size="10.00" fill="#000000">std::ios_base</text>
</a>
</g>
</g>
<!-- Node11&#45;&gt;Node10 -->
<g id="edge10" class="edge">
<title>Node11&#45;&gt;Node10</title>
<path fill="none" stroke="#191970" d="M85.5531,-15.5C103.9701,-15.5 125.1787,-15.5 144.435,-15.5"/>
<polygon fill="#191970" stroke="#191970" points="85.3544,-12.0001 75.3543,-15.5 85.3543,-19.0001 85.3544,-12.0001"/>
</g>
</g>
</svg>
