<?xml version="1.0" encoding="UTF-8" standalone="no"?>
<!DOCTYPE svg PUBLIC "-//W3C//DTD SVG 1.1//EN"
 "http://www.w3.org/Graphics/SVG/1.1/DTD/svg11.dtd">
<!-- Generated by graphviz version 2.42.2 ()
 -->
<!-- Title: src/clas.cpp Pages: 1 -->
<svg width="406pt" height="252pt"
 viewBox="0.00 0.00 406.00 252.00" xmlns="http://www.w3.org/2000/svg" xmlns:xlink="http://www.w3.org/1999/xlink">
<g id="graph0" class="graph" transform="scale(1 1) rotate(0) translate(4 248)">
<title>src/clas.cpp</title>
<polygon fill="white" stroke="transparent" points="-4,4 -4,-248 402,-248 402,4 -4,4"/>
<!-- Node1 -->
<g id="node1" class="node">
<title>Node1</title>
<g id="a_node1"><a xlink:title="Implements functions to process command line arguments.">
<polygon fill="#bfbfbf" stroke="black" points="280,-224.5 280,-243.5 350,-243.5 350,-224.5 280,-224.5"/>
<text text-anchor="middle" x="315" y="-231.5" font-family="Helvetica,sans-Serif" font-size="10.00">src/clas.cpp</text>
</a>
</g>
</g>
<!-- Node2 -->
<g id="node2" class="node">
<title>Node2</title>
<g id="a_node2"><a xlink:href="clas_8hpp.html" target="_top" xlink:title="Provides functions to process command line arguments.">
<polygon fill="white" stroke="black" points="221.5,-168.5 221.5,-187.5 274.5,-187.5 274.5,-168.5 221.5,-168.5"/>
<text text-anchor="middle" x="248" y="-175.5" font-family="Helvetica,sans-Serif" font-size="10.00">clas.hpp</text>
</a>
</g>
</g>
<!-- Node1&#45;&gt;Node2 -->
<g id="edge1" class="edge">
<title>Node1&#45;&gt;Node2</title>
<path fill="none" stroke="midnightblue" d="M304.24,-224.32C294.23,-216.26 279.11,-204.08 267.07,-194.37"/>
<polygon fill="midnightblue" stroke="midnightblue" points="268.94,-191.38 258.96,-187.83 264.55,-196.83 268.94,-191.38"/>
</g>
<!-- Node13 -->
<g id="node13" class="node">
<title>Node13</title>
<g id="a_node13"><a xlink:title=" ">
<polygon fill="white" stroke="#bfbfbf" points="292.5,-168.5 292.5,-187.5 337.5,-187.5 337.5,-168.5 292.5,-168.5"/>
<text text-anchor="middle" x="315" y="-175.5" font-family="Helvetica,sans-Serif" font-size="10.00">cstdlib</text>
</a>
</g>
</g>
<!-- Node1&#45;&gt;Node13 -->
<g id="edge14" class="edge">
<title>Node1&#45;&gt;Node13</title>
<path fill="none" stroke="midnightblue" d="M315,-224.08C315,-217.01 315,-206.86 315,-197.99"/>
<polygon fill="midnightblue" stroke="midnightblue" points="318.5,-197.75 315,-187.75 311.5,-197.75 318.5,-197.75"/>
</g>
<!-- Node14 -->
<g id="node14" class="node">
<title>Node14</title>
<g id="a_node14"><a xlink:title=" ">
<polygon fill="white" stroke="#bfbfbf" points="356,-168.5 356,-187.5 398,-187.5 398,-168.5 356,-168.5"/>
<text text-anchor="middle" x="377" y="-175.5" font-family="Helvetica,sans-Serif" font-size="10.00">locale</text>
</a>
</g>
</g>
<!-- Node1&#45;&gt;Node14 -->
<g id="edge15" class="edge">
<title>Node1&#45;&gt;Node14</title>
<path fill="none" stroke="midnightblue" d="M324.96,-224.32C334.13,-216.34 347.94,-204.31 359.03,-194.65"/>
<polygon fill="midnightblue" stroke="midnightblue" points="361.62,-197.04 366.86,-187.83 357.02,-191.76 361.62,-197.04"/>
</g>
<!-- Node3 -->
<g id="node3" class="node">
<title>Node3</title>
<g id="a_node3"><a xlink:href="types_8hpp.html" target="_top" xlink:title="A collection of type aliases.">
<polygon fill="white" stroke="black" points="82.5,-112.5 82.5,-131.5 141.5,-131.5 141.5,-112.5 82.5,-112.5"/>
<text text-anchor="middle" x="112" y="-119.5" font-family="Helvetica,sans-Serif" font-size="10.00">types.hpp</text>
</a>
</g>
</g>
<!-- Node2&#45;&gt;Node3 -->
<g id="edge2" class="edge">
<title>Node2&#45;&gt;Node3</title>
<path fill="none" stroke="midnightblue" d="M226.45,-168.44C203.97,-159.52 168.51,-145.44 143.02,-135.32"/>
<polygon fill="midnightblue" stroke="midnightblue" points="144.03,-131.95 133.45,-131.52 141.45,-138.46 144.03,-131.95"/>
</g>
<!-- Node5 -->
<g id="node5" class="node">
<title>Node5</title>
<g id="a_node5"><a xlink:href="errors_8hpp.html" target="_top" xlink:title="Common error handling code.">
<polygon fill="white" stroke="black" points="160,-112.5 160,-131.5 220,-131.5 220,-112.5 160,-112.5"/>
<text text-anchor="middle" x="190" y="-119.5" font-family="Helvetica,sans-Serif" font-size="10.00">errors.hpp</text>
</a>
</g>
</g>
<!-- Node2&#45;&gt;Node5 -->
<g id="edge4" class="edge">
<title>Node2&#45;&gt;Node5</title>
<path fill="none" stroke="midnightblue" d="M238.68,-168.32C230.11,-160.34 217.19,-148.31 206.81,-138.65"/>
<polygon fill="midnightblue" stroke="midnightblue" points="209.19,-136.09 199.49,-131.83 204.42,-141.21 209.19,-136.09"/>
</g>
<!-- Node6 -->
<g id="node6" class="node">
<title>Node6</title>
<g id="a_node6"><a xlink:href="utility_8hpp.html" target="_top" xlink:title="Implements generally useful functions.">
<polygon fill="white" stroke="black" points="160.5,-56.5 160.5,-75.5 219.5,-75.5 219.5,-56.5 160.5,-56.5"/>
<text text-anchor="middle" x="190" y="-63.5" font-family="Helvetica,sans-Serif" font-size="10.00">utility.hpp</text>
</a>
</g>
</g>
<!-- Node2&#45;&gt;Node6 -->
<g id="edge11" class="edge">
<title>Node2&#45;&gt;Node6</title>
<path fill="none" stroke="midnightblue" d="M246.65,-168.13C244.41,-155.17 239.13,-130.58 229,-112 223.21,-101.38 214.57,-91.07 206.89,-83"/>
<polygon fill="midnightblue" stroke="midnightblue" points="209.21,-80.37 199.67,-75.75 204.24,-85.31 209.21,-80.37"/>
</g>
<!-- Node10 -->
<g id="node10" class="node">
<title>Node10</title>
<g id="a_node10"><a xlink:title=" ">
<polygon fill="white" stroke="#bfbfbf" points="279.5,-0.5 279.5,-19.5 320.5,-19.5 320.5,-0.5 279.5,-0.5"/>
<text text-anchor="middle" x="300" y="-7.5" font-family="Helvetica,sans-Serif" font-size="10.00">string</text>
</a>
</g>
</g>
<!-- Node2&#45;&gt;Node10 -->
<g id="edge12" class="edge">
<title>Node2&#45;&gt;Node10</title>
<path fill="none" stroke="midnightblue" d="M250.8,-168.08C259.02,-141.83 283.23,-64.55 294.32,-29.12"/>
<polygon fill="midnightblue" stroke="midnightblue" points="297.67,-30.16 297.32,-19.57 290.99,-28.06 297.67,-30.16"/>
</g>
<!-- Node12 -->
<g id="node12" class="node">
<title>Node12</title>
<g id="a_node12"><a xlink:title=" ">
<polygon fill="white" stroke="#bfbfbf" points="314,-112.5 314,-131.5 354,-131.5 354,-112.5 314,-112.5"/>
<text text-anchor="middle" x="334" y="-119.5" font-family="Helvetica,sans-Serif" font-size="10.00">utility</text>
</a>
</g>
</g>
<!-- Node2&#45;&gt;Node12 -->
<g id="edge13" class="edge">
<title>Node2&#45;&gt;Node12</title>
<path fill="none" stroke="midnightblue" d="M261.82,-168.32C275.23,-159.9 295.82,-146.97 311.59,-137.07"/>
<polygon fill="midnightblue" stroke="midnightblue" points="313.61,-139.94 320.22,-131.65 309.89,-134.01 313.61,-139.94"/>
</g>
<!-- Node4 -->
<g id="node4" class="node">
<title>Node4</title>
<g id="a_node4"><a xlink:title=" ">
<polygon fill="white" stroke="#bfbfbf" points="89,-56.5 89,-75.5 135,-75.5 135,-56.5 89,-56.5"/>
<text text-anchor="middle" x="112" y="-63.5" font-family="Helvetica,sans-Serif" font-size="10.00">chrono</text>
</a>
</g>
</g>
<!-- Node3&#45;&gt;Node4 -->
<g id="edge3" class="edge">
<title>Node3&#45;&gt;Node4</title>
<path fill="none" stroke="midnightblue" d="M112,-112.08C112,-105.01 112,-94.86 112,-85.99"/>
<polygon fill="midnightblue" stroke="midnightblue" points="115.5,-85.75 112,-75.75 108.5,-85.75 115.5,-85.75"/>
</g>
<!-- Node5&#45;&gt;Node6 -->
<g id="edge5" class="edge">
<title>Node5&#45;&gt;Node6</title>
<path fill="none" stroke="midnightblue" d="M190,-112.08C190,-105.01 190,-94.86 190,-85.99"/>
<polygon fill="midnightblue" stroke="midnightblue" points="193.5,-85.75 190,-75.75 186.5,-85.75 193.5,-85.75"/>
</g>
<!-- Node7 -->
<g id="node7" class="node">
<title>Node7</title>
<g id="a_node7"><a xlink:title=" ">
<polygon fill="white" stroke="#bfbfbf" points="0,-0.5 0,-19.5 62,-19.5 62,-0.5 0,-0.5"/>
<text text-anchor="middle" x="31" y="-7.5" font-family="Helvetica,sans-Serif" font-size="10.00">type_traits</text>
</a>
</g>
</g>
<!-- Node6&#45;&gt;Node7 -->
<g id="edge6" class="edge">
<title>Node6&#45;&gt;Node7</title>
<path fill="none" stroke="midnightblue" d="M164.81,-56.44C138.06,-47.36 95.6,-32.94 65.69,-22.78"/>
<polygon fill="midnightblue" stroke="midnightblue" points="66.67,-19.42 56.08,-19.52 64.42,-26.05 66.67,-19.42"/>
</g>
<!-- Node8 -->
<g id="node8" class="node">
<title>Node8</title>
<g id="a_node8"><a xlink:title=" ">
<polygon fill="white" stroke="#bfbfbf" points="80,-0.5 80,-19.5 136,-19.5 136,-0.5 80,-0.5"/>
<text text-anchor="middle" x="108" y="-7.5" font-family="Helvetica,sans-Serif" font-size="10.00">charconv</text>
</a>
</g>
</g>
<!-- Node6&#45;&gt;Node8 -->
<g id="edge7" class="edge">
<title>Node6&#45;&gt;Node8</title>
<path fill="none" stroke="midnightblue" d="M176.83,-56.32C164.15,-47.98 144.77,-35.21 129.79,-25.35"/>
<polygon fill="midnightblue" stroke="midnightblue" points="131.42,-22.23 121.14,-19.65 127.57,-28.08 131.42,-22.23"/>
</g>
<!-- Node9 -->
<g id="node9" class="node">
<title>Node9</title>
<g id="a_node9"><a xlink:title=" ">
<polygon fill="white" stroke="#bfbfbf" points="154,-0.5 154,-19.5 200,-19.5 200,-0.5 154,-0.5"/>
<text text-anchor="middle" x="177" y="-7.5" font-family="Helvetica,sans-Serif" font-size="10.00">cctype</text>
</a>
</g>
</g>
<!-- Node6&#45;&gt;Node9 -->
<g id="edge8" class="edge">
<title>Node6&#45;&gt;Node9</title>
<path fill="none" stroke="midnightblue" d="M187.85,-56.08C186.13,-48.93 183.65,-38.64 181.5,-29.69"/>
<polygon fill="midnightblue" stroke="midnightblue" points="184.85,-28.65 179.11,-19.75 178.04,-30.29 184.85,-28.65"/>
</g>
<!-- Node6&#45;&gt;Node10 -->
<g id="edge9" class="edge">
<title>Node6&#45;&gt;Node10</title>
<path fill="none" stroke="midnightblue" d="M207.67,-56.32C225.39,-47.62 252.9,-34.12 273.29,-24.11"/>
<polygon fill="midnightblue" stroke="midnightblue" points="274.94,-27.2 282.37,-19.65 271.85,-20.92 274.94,-27.2"/>
</g>
<!-- Node11 -->
<g id="node11" class="node">
<title>Node11</title>
<g id="a_node11"><a xlink:title=" ">
<polygon fill="white" stroke="#bfbfbf" points="218.5,-0.5 218.5,-19.5 261.5,-19.5 261.5,-0.5 218.5,-0.5"/>
<text text-anchor="middle" x="240" y="-7.5" font-family="Helvetica,sans-Serif" font-size="10.00">cstdio</text>
</a>
</g>
</g>
<!-- Node6&#45;&gt;Node11 -->
<g id="edge10" class="edge">
<title>Node6&#45;&gt;Node11</title>
<path fill="none" stroke="midnightblue" d="M198.26,-56.08C205.46,-48.3 216.11,-36.8 224.85,-27.37"/>
<polygon fill="midnightblue" stroke="midnightblue" points="227.67,-29.47 231.9,-19.75 222.53,-24.71 227.67,-29.47"/>
</g>
</g>
</svg>
