<?xml version="1.0" encoding="UTF-8" standalone="no"?>
<!DOCTYPE svg PUBLIC "-//W3C//DTD SVG 1.1//EN"
 "http://www.w3.org/Graphics/SVG/1.1/DTD/svg11.dtd">
<!-- Generated by graphviz version 2.40.1 (20161225.0304)
 -->
<!-- Title: clas.hpp Pages: 1 -->
<svg width="346pt" height="196pt"
 viewBox="0.00 0.00 345.50 196.00" xmlns="http://www.w3.org/2000/svg" xmlns:xlink="http://www.w3.org/1999/xlink">
<g id="graph0" class="graph" transform="scale(1 1) rotate(0) translate(4 192)">
<title>clas.hpp</title>
<polygon fill="#ffffff" stroke="transparent" points="-4,4 -4,-192 341.5,-192 341.5,4 -4,4"/>
<!-- Node0 -->
<g id="node1" class="node">
<title>Node0</title>
<polygon fill="#bfbfbf" stroke="#000000" points="158,-168.5 158,-187.5 211,-187.5 211,-168.5 158,-168.5"/>
<text text-anchor="middle" x="184.5" y="-175.5" font-family="Helvetica,sans-Serif" font-size="10.00" fill="#000000">clas.hpp</text>
</g>
<!-- Node1 -->
<g id="node2" class="node">
<title>Node1</title>
<g id="a_node2"><a xlink:href="types_8hpp.html" target="_top" xlink:title="A collection of type aliases. ">
<polygon fill="#ffffff" stroke="#000000" points="0,-112.5 0,-131.5 59,-131.5 59,-112.5 0,-112.5"/>
<text text-anchor="middle" x="29.5" y="-119.5" font-family="Helvetica,sans-Serif" font-size="10.00" fill="#000000">types.hpp</text>
</a>
</g>
</g>
<!-- Node0&#45;&gt;Node1 -->
<g id="edge1" class="edge">
<title>Node0&#45;&gt;Node1</title>
<path fill="none" stroke="#191970" d="M157.8546,-168.3733C132.3036,-159.1419 93.5488,-145.1402 65.3091,-134.9375"/>
<polygon fill="#191970" stroke="#191970" points="66.3921,-131.6074 55.7978,-131.5011 64.0135,-138.1909 66.3921,-131.6074"/>
</g>
<!-- Node3 -->
<g id="node4" class="node">
<title>Node3</title>
<g id="a_node4"><a xlink:href="errors_8hpp.html" target="_top" xlink:title="Common error handling code. ">
<polygon fill="#ffffff" stroke="#000000" points="77.5,-112.5 77.5,-131.5 137.5,-131.5 137.5,-112.5 77.5,-112.5"/>
<text text-anchor="middle" x="107.5" y="-119.5" font-family="Helvetica,sans-Serif" font-size="10.00" fill="#000000">errors.hpp</text>
</a>
</g>
</g>
<!-- Node0&#45;&gt;Node3 -->
<g id="edge3" class="edge">
<title>Node0&#45;&gt;Node3</title>
<path fill="none" stroke="#191970" d="M171.0876,-168.2455C159.4943,-159.814 142.5252,-147.4729 129.0322,-137.6598"/>
<polygon fill="#191970" stroke="#191970" points="130.9047,-134.6938 120.7587,-131.6427 126.7874,-140.355 130.9047,-134.6938"/>
</g>
<!-- Node4 -->
<g id="node5" class="node">
<title>Node4</title>
<g id="a_node5"><a xlink:href="utility_8hpp.html" target="_top" xlink:title="Implements generally useful functions. ">
<polygon fill="#ffffff" stroke="#000000" points="114,-56.5 114,-75.5 173,-75.5 173,-56.5 114,-56.5"/>
<text text-anchor="middle" x="143.5" y="-63.5" font-family="Helvetica,sans-Serif" font-size="10.00" fill="#000000">utility.hpp</text>
</a>
</g>
</g>
<!-- Node0&#45;&gt;Node4 -->
<g id="edge8" class="edge">
<title>Node0&#45;&gt;Node4</title>
<path fill="none" stroke="#191970" d="M181.0044,-168.4509C174.2568,-150.0186 159.3236,-109.2254 150.4711,-85.043"/>
<polygon fill="#191970" stroke="#191970" points="153.7112,-83.7123 146.9868,-75.5249 147.1378,-86.1187 153.7112,-83.7123"/>
</g>
<!-- Node6 -->
<g id="node7" class="node">
<title>Node6</title>
<polygon fill="#ffffff" stroke="#bfbfbf" points="183,-.5 183,-19.5 224,-19.5 224,-.5 183,-.5"/>
<text text-anchor="middle" x="203.5" y="-7.5" font-family="Helvetica,sans-Serif" font-size="10.00" fill="#000000">string</text>
</g>
<!-- Node0&#45;&gt;Node6 -->
<g id="edge10" class="edge">
<title>Node0&#45;&gt;Node6</title>
<path fill="none" stroke="#191970" d="M185.576,-168.4862C188.5794,-141.9293 197.1028,-66.5651 201.2194,-30.1655"/>
<polygon fill="#191970" stroke="#191970" points="204.7425,-30.1579 202.3885,-19.8279 197.7868,-29.3712 204.7425,-30.1579"/>
</g>
<!-- Node8 -->
<g id="node9" class="node">
<title>Node8</title>
<polygon fill="#ffffff" stroke="#bfbfbf" points="232,-112.5 232,-131.5 277,-131.5 277,-112.5 232,-112.5"/>
<text text-anchor="middle" x="254.5" y="-119.5" font-family="Helvetica,sans-Serif" font-size="10.00" fill="#000000">cstdlib</text>
</g>
<!-- Node0&#45;&gt;Node8 -->
<g id="edge9" class="edge">
<title>Node0&#45;&gt;Node8</title>
<path fill="none" stroke="#191970" d="M196.6931,-168.2455C207.1321,-159.8943 222.3655,-147.7076 234.574,-137.9408"/>
<polygon fill="#191970" stroke="#191970" points="236.8244,-140.6227 242.4467,-131.6427 232.4515,-135.1566 236.8244,-140.6227"/>
</g>
<!-- Node9 -->
<g id="node10" class="node">
<title>Node9</title>
<polygon fill="#ffffff" stroke="#bfbfbf" points="295.5,-112.5 295.5,-131.5 337.5,-131.5 337.5,-112.5 295.5,-112.5"/>
<text text-anchor="middle" x="316.5" y="-119.5" font-family="Helvetica,sans-Serif" font-size="10.00" fill="#000000">locale</text>
</g>
<!-- Node0&#45;&gt;Node9 -->
<g id="edge11" class="edge">
<title>Node0&#45;&gt;Node9</title>
<path fill="none" stroke="#191970" d="M207.1916,-168.3733C228.9598,-159.1383 261.9814,-145.1291 286.0332,-134.9253"/>
<polygon fill="#191970" stroke="#191970" points="287.572,-138.0745 295.4108,-130.9469 284.8381,-131.6304 287.572,-138.0745"/>
</g>
<!-- Node2 -->
<g id="node3" class="node">
<title>Node2</title>
<polygon fill="#ffffff" stroke="#bfbfbf" points="6.5,-56.5 6.5,-75.5 52.5,-75.5 52.5,-56.5 6.5,-56.5"/>
<text text-anchor="middle" x="29.5" y="-63.5" font-family="Helvetica,sans-Serif" font-size="10.00" fill="#000000">chrono</text>
</g>
<!-- Node1&#45;&gt;Node2 -->
<g id="edge2" class="edge">
<title>Node1&#45;&gt;Node2</title>
<path fill="none" stroke="#191970" d="M29.5,-112.2455C29.5,-104.9382 29.5,-94.6944 29.5,-85.7046"/>
<polygon fill="#191970" stroke="#191970" points="33.0001,-85.6426 29.5,-75.6427 26.0001,-85.6427 33.0001,-85.6426"/>
</g>
<!-- Node3&#45;&gt;Node4 -->
<g id="edge4" class="edge">
<title>Node3&#45;&gt;Node4</title>
<path fill="none" stroke="#191970" d="M113.7707,-112.2455C118.7264,-104.5367 125.783,-93.5598 131.7776,-84.2348"/>
<polygon fill="#191970" stroke="#191970" points="134.8376,-85.9471 137.3011,-75.6427 128.9494,-82.1618 134.8376,-85.9471"/>
</g>
<!-- Node5 -->
<g id="node6" class="node">
<title>Node5</title>
<polygon fill="#ffffff" stroke="#bfbfbf" points="41.5,-.5 41.5,-19.5 103.5,-19.5 103.5,-.5 41.5,-.5"/>
<text text-anchor="middle" x="72.5" y="-7.5" font-family="Helvetica,sans-Serif" font-size="10.00" fill="#000000">type_traits</text>
</g>
<!-- Node4&#45;&gt;Node5 -->
<g id="edge5" class="edge">
<title>Node4&#45;&gt;Node5</title>
<path fill="none" stroke="#191970" d="M131.1327,-56.2455C120.5446,-47.8943 105.0936,-35.7076 92.7107,-25.9408"/>
<polygon fill="#191970" stroke="#191970" points="94.7447,-23.0875 84.7255,-19.6427 90.4097,-28.5837 94.7447,-23.0875"/>
</g>
<!-- Node4&#45;&gt;Node6 -->
<g id="edge6" class="edge">
<title>Node4&#45;&gt;Node6</title>
<path fill="none" stroke="#191970" d="M153.9512,-56.2455C162.7269,-48.0549 175.4554,-36.1749 185.814,-26.5069"/>
<polygon fill="#191970" stroke="#191970" points="188.2461,-29.0246 193.1686,-19.6427 183.4699,-23.9072 188.2461,-29.0246"/>
</g>
<!-- Node7 -->
<g id="node8" class="node">
<title>Node7</title>
<polygon fill="#ffffff" stroke="#bfbfbf" points="122,-.5 122,-19.5 165,-19.5 165,-.5 122,-.5"/>
<text text-anchor="middle" x="143.5" y="-7.5" font-family="Helvetica,sans-Serif" font-size="10.00" fill="#000000">cstdio</text>
</g>
<!-- Node4&#45;&gt;Node7 -->
<g id="edge7" class="edge">
<title>Node4&#45;&gt;Node7</title>
<path fill="none" stroke="#191970" d="M143.5,-56.2455C143.5,-48.9382 143.5,-38.6944 143.5,-29.7046"/>
<polygon fill="#191970" stroke="#191970" points="147.0001,-29.6426 143.5,-19.6427 140.0001,-29.6427 147.0001,-29.6426"/>
</g>
</g>
</svg>
