<?xml version="1.0" encoding="UTF-8" standalone="no"?>
<!DOCTYPE svg PUBLIC "-//W3C//DTD SVG 1.1//EN"
 "http://www.w3.org/Graphics/SVG/1.1/DTD/svg11.dtd">
<!-- Generated by graphviz version 2.40.1 (20161225.0304)
 -->
<!-- Title: anonymous_namespace{libloadplay.cpp}::SysctlValue Pages: 1 -->
<svg width="553pt" height="105pt"
 viewBox="0.00 0.00 553.00 105.00" xmlns="http://www.w3.org/2000/svg" xmlns:xlink="http://www.w3.org/1999/xlink">
<g id="graph0" class="graph" transform="scale(1 1) rotate(0) translate(4 101)">
<title>anonymous_namespace{libloadplay.cpp}::SysctlValue</title>
<polygon fill="#ffffff" stroke="transparent" points="-4,4 -4,-101 549,-101 549,4 -4,4"/>
<!-- Node1 -->
<g id="node1" class="node">
<title>Node1</title>
<g id="a_node1"><a xlink:title="Instances of this class represents a specific sysctl value.">
<polygon fill="#bfbfbf" stroke="#000000" points="399,-28.5 399,-58.5 545,-58.5 545,-28.5 399,-28.5"/>
<text text-anchor="start" x="407" y="-46.5" font-family="Helvetica,sans-Serif" font-size="10.00" fill="#000000">anonymous_namespace</text>
<text text-anchor="middle" x="472" y="-35.5" font-family="Helvetica,sans-Serif" font-size="10.00" fill="#000000">{libloadplay.cpp}::SysctlValue</text>
</a>
</g>
</g>
<!-- Node2 -->
<g id="node2" class="node">
<title>Node2</title>
<g id="a_node2"><a xlink:href="classanonymous__namespace_02libloadplay_8cpp_03_1_1Callback.html" target="_top" xlink:title=" ">
<polygon fill="#ffffff" stroke="#000000" points="132,-44.5 132,-96.5 334,-96.5 334,-44.5 132,-44.5"/>
<text text-anchor="start" x="140" y="-84.5" font-family="Helvetica,sans-Serif" font-size="10.00" fill="#000000">anonymous_namespace</text>
<text text-anchor="start" x="140" y="-73.5" font-family="Helvetica,sans-Serif" font-size="10.00" fill="#000000">{libloadplay.cpp}::Callback</text>
<text text-anchor="start" x="140" y="-62.5" font-family="Helvetica,sans-Serif" font-size="10.00" fill="#000000">&lt; anonymous_namespace{libloadplay.cpp}</text>
<text text-anchor="middle" x="233" y="-51.5" font-family="Helvetica,sans-Serif" font-size="10.00" fill="#000000">::SysctlValue &amp; &gt;</text>
</a>
</g>
</g>
<!-- Node2&#45;&gt;Node1 -->
<g id="edge1" class="edge">
<title>Node2&#45;&gt;Node1</title>
<path fill="none" stroke="#9a32cd" stroke-dasharray="5,2" d="M344.0156,-57.9585C362.6402,-55.8545 381.541,-53.7192 398.8962,-51.7586"/>
<polygon fill="#9a32cd" stroke="#9a32cd" points="343.555,-54.4882 334.0111,-59.0887 344.3408,-61.4439 343.555,-54.4882"/>
<text text-anchor="middle" x="366.5" y="-59.5" font-family="Helvetica,sans-Serif" font-size="10.00" fill="#000000"> onSet</text>
</g>
<!-- Node3 -->
<g id="node3" class="node">
<title>Node3</title>
<g id="a_node3"><a xlink:title="STL class.">
<polygon fill="#ffffff" stroke="#bfbfbf" points="203,-6 203,-25 263,-25 263,-6 203,-6"/>
<text text-anchor="middle" x="233" y="-13" font-family="Helvetica,sans-Serif" font-size="10.00" fill="#000000">std::string</text>
</a>
</g>
</g>
<!-- Node3&#45;&gt;Node1 -->
<g id="edge2" class="edge">
<title>Node3&#45;&gt;Node1</title>
<path fill="none" stroke="#9a32cd" stroke-dasharray="5,2" d="M273.3682,-20.2293C307.6261,-24.2428 357.6448,-30.1027 398.9172,-34.938"/>
<polygon fill="#9a32cd" stroke="#9a32cd" points="273.6089,-16.7337 263.2695,-19.0462 272.7943,-23.6861 273.6089,-16.7337"/>
<text text-anchor="middle" x="366.5" y="-36.5" font-family="Helvetica,sans-Serif" font-size="10.00" fill="#000000"> value</text>
</g>
<!-- Node4 -->
<g id="node4" class="node">
<title>Node4</title>
<g id="a_node4"><a xlink:title="STL class.">
<polygon fill="#ffffff" stroke="#bfbfbf" points="0,-.5 0,-30.5 95,-30.5 95,-.5 0,-.5"/>
<text text-anchor="start" x="8" y="-18.5" font-family="Helvetica,sans-Serif" font-size="10.00" fill="#000000">std::basic_string&lt;</text>
<text text-anchor="middle" x="47.5" y="-7.5" font-family="Helvetica,sans-Serif" font-size="10.00" fill="#000000"> char &gt;</text>
</a>
</g>
</g>
<!-- Node4&#45;&gt;Node3 -->
<g id="edge3" class="edge">
<title>Node4&#45;&gt;Node3</title>
<path fill="none" stroke="#191970" d="M105.4878,-15.5C137.74,-15.5 176.549,-15.5 202.8157,-15.5"/>
<polygon fill="#191970" stroke="#191970" points="105.2709,-12.0001 95.2709,-15.5 105.2708,-19.0001 105.2709,-12.0001"/>
</g>
</g>
</svg>
