<?xml version="1.0" encoding="UTF-8" standalone="no"?>
<!DOCTYPE svg PUBLIC "-//W3C//DTD SVG 1.1//EN"
 "http://www.w3.org/Graphics/SVG/1.1/DTD/svg11.dtd">
<!-- Generated by graphviz version 2.40.1 (20161225.0304)
 -->
<!-- Title: src/clas.hpp Pages: 1 -->
<svg width="280pt" height="196pt"
 viewBox="0.00 0.00 279.50 196.00" xmlns="http://www.w3.org/2000/svg" xmlns:xlink="http://www.w3.org/1999/xlink">
<g id="graph0" class="graph" transform="scale(1 1) rotate(0) translate(4 192)">
<title>src/clas.hpp</title>
<polygon fill="#ffffff" stroke="transparent" points="-4,4 -4,-192 275.5,-192 275.5,4 -4,4"/>
<!-- Node0 -->
<g id="node1" class="node">
<title>Node0</title>
<g id="a_node1"><a xlink:title="Implements functions to process command line arguments.">
<polygon fill="#bfbfbf" stroke="#000000" points="130.5,-168.5 130.5,-187.5 200.5,-187.5 200.5,-168.5 130.5,-168.5"/>
<text text-anchor="middle" x="165.5" y="-175.5" font-family="Helvetica,sans-Serif" font-size="10.00" fill="#000000">src/clas.hpp</text>
</a>
</g>
</g>
<!-- Node1 -->
<g id="node2" class="node">
<title>Node1</title>
<g id="a_node2"><a xlink:href="types_8hpp.html" target="_top" xlink:title="A collection of type aliases.">
<polygon fill="#ffffff" stroke="#000000" points="0,-112.5 0,-131.5 59,-131.5 59,-112.5 0,-112.5"/>
<text text-anchor="middle" x="29.5" y="-119.5" font-family="Helvetica,sans-Serif" font-size="10.00" fill="#000000">types.hpp</text>
</a>
</g>
</g>
<!-- Node0&#45;&gt;Node1 -->
<g id="edge1" class="edge">
<title>Node0&#45;&gt;Node1</title>
<path fill="none" stroke="#191970" d="M142.1208,-168.3733C119.9955,-159.2629 86.5866,-145.5062 61.8981,-135.3404"/>
<polygon fill="#191970" stroke="#191970" points="63.1536,-132.0723 52.5742,-131.5011 60.4883,-138.5451 63.1536,-132.0723"/>
</g>
<!-- Node3 -->
<g id="node4" class="node">
<title>Node3</title>
<g id="a_node4"><a xlink:href="errors_8hpp.html" target="_top" xlink:title="Common error handling code.">
<polygon fill="#ffffff" stroke="#000000" points="77.5,-112.5 77.5,-131.5 137.5,-131.5 137.5,-112.5 77.5,-112.5"/>
<text text-anchor="middle" x="107.5" y="-119.5" font-family="Helvetica,sans-Serif" font-size="10.00" fill="#000000">errors.hpp</text>
</a>
</g>
</g>
<!-- Node0&#45;&gt;Node3 -->
<g id="edge3" class="edge">
<title>Node0&#45;&gt;Node3</title>
<path fill="none" stroke="#191970" d="M155.3972,-168.2455C146.9972,-160.1352 134.8506,-148.4075 124.8916,-138.7919"/>
<polygon fill="#191970" stroke="#191970" points="127.1122,-136.0707 117.4871,-131.6427 122.25,-141.1066 127.1122,-136.0707"/>
</g>
<!-- Node4 -->
<g id="node5" class="node">
<title>Node4</title>
<g id="a_node5"><a xlink:href="utility_8hpp.html" target="_top" xlink:title="Implements generally useful functions.">
<polygon fill="#ffffff" stroke="#000000" points="114,-56.5 114,-75.5 173,-75.5 173,-56.5 114,-56.5"/>
<text text-anchor="middle" x="143.5" y="-63.5" font-family="Helvetica,sans-Serif" font-size="10.00" fill="#000000">utility.hpp</text>
</a>
</g>
</g>
<!-- Node0&#45;&gt;Node4 -->
<g id="edge8" class="edge">
<title>Node0&#45;&gt;Node4</title>
<path fill="none" stroke="#191970" d="M163.6243,-168.4509C160.0199,-150.1013 152.0625,-109.5908 147.3047,-85.3693"/>
<polygon fill="#191970" stroke="#191970" points="150.7329,-84.6627 145.371,-75.5249 143.8641,-86.012 150.7329,-84.6627"/>
</g>
<!-- Node6 -->
<g id="node7" class="node">
<title>Node6</title>
<g id="a_node7"><a xlink:title=" ">
<polygon fill="#ffffff" stroke="#bfbfbf" points="183,-.5 183,-19.5 224,-19.5 224,-.5 183,-.5"/>
<text text-anchor="middle" x="203.5" y="-7.5" font-family="Helvetica,sans-Serif" font-size="10.00" fill="#000000">string</text>
</a>
</g>
</g>
<!-- Node0&#45;&gt;Node6 -->
<g id="edge9" class="edge">
<title>Node0&#45;&gt;Node6</title>
<path fill="none" stroke="#191970" d="M167.6519,-168.4862C173.6848,-141.8144 190.8533,-65.9117 199.0452,-29.695"/>
<polygon fill="#191970" stroke="#191970" points="202.4845,-30.3537 201.277,-19.8279 195.657,-28.8093 202.4845,-30.3537"/>
</g>
<!-- Node8 -->
<g id="node9" class="node">
<title>Node8</title>
<g id="a_node9"><a xlink:title=" ">
<polygon fill="#ffffff" stroke="#bfbfbf" points="231.5,-112.5 231.5,-131.5 271.5,-131.5 271.5,-112.5 231.5,-112.5"/>
<text text-anchor="middle" x="251.5" y="-119.5" font-family="Helvetica,sans-Serif" font-size="10.00" fill="#000000">utility</text>
</a>
</g>
</g>
<!-- Node0&#45;&gt;Node8 -->
<g id="edge10" class="edge">
<title>Node0&#45;&gt;Node8</title>
<path fill="none" stroke="#191970" d="M180.4801,-168.2455C193.6751,-159.6534 213.1051,-147.0014 228.3079,-137.1018"/>
<polygon fill="#191970" stroke="#191970" points="230.2215,-140.0325 236.6916,-131.6427 226.4017,-134.1665 230.2215,-140.0325"/>
</g>
<!-- Node2 -->
<g id="node3" class="node">
<title>Node2</title>
<g id="a_node3"><a xlink:title=" ">
<polygon fill="#ffffff" stroke="#bfbfbf" points="6.5,-56.5 6.5,-75.5 52.5,-75.5 52.5,-56.5 6.5,-56.5"/>
<text text-anchor="middle" x="29.5" y="-63.5" font-family="Helvetica,sans-Serif" font-size="10.00" fill="#000000">chrono</text>
</a>
</g>
</g>
<!-- Node1&#45;&gt;Node2 -->
<g id="edge2" class="edge">
<title>Node1&#45;&gt;Node2</title>
<path fill="none" stroke="#191970" d="M29.5,-112.2455C29.5,-104.9382 29.5,-94.6944 29.5,-85.7046"/>
<polygon fill="#191970" stroke="#191970" points="33.0001,-85.6426 29.5,-75.6427 26.0001,-85.6427 33.0001,-85.6426"/>
</g>
<!-- Node3&#45;&gt;Node4 -->
<g id="edge4" class="edge">
<title>Node3&#45;&gt;Node4</title>
<path fill="none" stroke="#191970" d="M113.7707,-112.2455C118.7264,-104.5367 125.783,-93.5598 131.7776,-84.2348"/>
<polygon fill="#191970" stroke="#191970" points="134.8376,-85.9471 137.3011,-75.6427 128.9494,-82.1618 134.8376,-85.9471"/>
</g>
<!-- Node5 -->
<g id="node6" class="node">
<title>Node5</title>
<g id="a_node6"><a xlink:title=" ">
<polygon fill="#ffffff" stroke="#bfbfbf" points="41.5,-.5 41.5,-19.5 103.5,-19.5 103.5,-.5 41.5,-.5"/>
<text text-anchor="middle" x="72.5" y="-7.5" font-family="Helvetica,sans-Serif" font-size="10.00" fill="#000000">type_traits</text>
</a>
</g>
</g>
<!-- Node4&#45;&gt;Node5 -->
<g id="edge5" class="edge">
<title>Node4&#45;&gt;Node5</title>
<path fill="none" stroke="#191970" d="M131.1327,-56.2455C120.5446,-47.8943 105.0936,-35.7076 92.7107,-25.9408"/>
<polygon fill="#191970" stroke="#191970" points="94.7447,-23.0875 84.7255,-19.6427 90.4097,-28.5837 94.7447,-23.0875"/>
</g>
<!-- Node4&#45;&gt;Node6 -->
<g id="edge6" class="edge">
<title>Node4&#45;&gt;Node6</title>
<path fill="none" stroke="#191970" d="M153.9512,-56.2455C162.7269,-48.0549 175.4554,-36.1749 185.814,-26.5069"/>
<polygon fill="#191970" stroke="#191970" points="188.2461,-29.0246 193.1686,-19.6427 183.4699,-23.9072 188.2461,-29.0246"/>
</g>
<!-- Node7 -->
<g id="node8" class="node">
<title>Node7</title>
<g id="a_node8"><a xlink:title=" ">
<polygon fill="#ffffff" stroke="#bfbfbf" points="122,-.5 122,-19.5 165,-19.5 165,-.5 122,-.5"/>
<text text-anchor="middle" x="143.5" y="-7.5" font-family="Helvetica,sans-Serif" font-size="10.00" fill="#000000">cstdio</text>
</a>
</g>
</g>
<!-- Node4&#45;&gt;Node7 -->
<g id="edge7" class="edge">
<title>Node4&#45;&gt;Node7</title>
<path fill="none" stroke="#191970" d="M143.5,-56.2455C143.5,-48.9382 143.5,-38.6944 143.5,-29.7046"/>
<polygon fill="#191970" stroke="#191970" points="147.0001,-29.6426 143.5,-19.6427 140.0001,-29.6427 147.0001,-29.6426"/>
</g>
</g>
</svg>
