<?xml version="1.0" encoding="UTF-8" standalone="no"?>
<!DOCTYPE svg PUBLIC "-//W3C//DTD SVG 1.1//EN"
 "http://www.w3.org/Graphics/SVG/1.1/DTD/svg11.dtd">
<!-- Generated by graphviz version 2.40.1 (20161225.0304)
 -->
<!-- Title: anonymous_namespace{libloadplay.cpp}::Main Pages: 1 -->
<svg width="293pt" height="356pt"
 viewBox="0.00 0.00 292.50 356.00" xmlns="http://www.w3.org/2000/svg" xmlns:xlink="http://www.w3.org/1999/xlink">
<g id="graph0" class="graph" transform="scale(1 1) rotate(0) translate(4 352)">
<title>anonymous_namespace{libloadplay.cpp}::Main</title>
<polygon fill="#ffffff" stroke="transparent" points="-4,4 -4,-352 288.5,-352 288.5,4 -4,4"/>
<!-- Node1 -->
<g id="node1" class="node">
<title>Node1</title>
<g id="a_node1"><a xlink:title="Singleton class representing the main execution environment.">
<polygon fill="#bfbfbf" stroke="#000000" points="105,-.5 105,-30.5 227,-30.5 227,-.5 105,-.5"/>
<text text-anchor="start" x="113" y="-18.5" font-family="Helvetica,sans-Serif" font-size="10.00" fill="#000000">anonymous_namespace</text>
<text text-anchor="middle" x="166" y="-7.5" font-family="Helvetica,sans-Serif" font-size="10.00" fill="#000000">{libloadplay.cpp}::Main</text>
</a>
</g>
</g>
<!-- Node2 -->
<g id="node2" class="node">
<title>Node2</title>
<g id="a_node2"><a xlink:title="STL class.">
<polygon fill="#ffffff" stroke="#bfbfbf" points="35.5,-78.5 35.5,-97.5 106.5,-97.5 106.5,-78.5 35.5,-78.5"/>
<text text-anchor="middle" x="71" y="-85.5" font-family="Helvetica,sans-Serif" font-size="10.00" fill="#000000">std::ifstream</text>
</a>
</g>
</g>
<!-- Node2&#45;&gt;Node1 -->
<g id="edge1" class="edge">
<title>Node2&#45;&gt;Node1</title>
<path fill="none" stroke="#9a32cd" stroke-dasharray="5,2" d="M92.0825,-71.9107C108.2127,-59.6008 130.3025,-42.7429 146.1247,-30.668"/>
<polygon fill="#9a32cd" stroke="#9a32cd" points="89.6383,-69.3732 83.8121,-78.2223 93.885,-74.9379 89.6383,-69.3732"/>
<text text-anchor="middle" x="127.5" y="-52" font-family="Helvetica,sans-Serif" font-size="10.00" fill="#000000"> in</text>
</g>
<!-- Node3 -->
<g id="node3" class="node">
<title>Node3</title>
<g id="a_node3"><a xlink:title="STL class.">
<polygon fill="#ffffff" stroke="#bfbfbf" points="0,-135.5 0,-165.5 100,-165.5 100,-135.5 0,-135.5"/>
<text text-anchor="start" x="8" y="-153.5" font-family="Helvetica,sans-Serif" font-size="10.00" fill="#000000">std::basic_ifstream</text>
<text text-anchor="middle" x="50" y="-142.5" font-family="Helvetica,sans-Serif" font-size="10.00" fill="#000000">&lt; char &gt;</text>
</a>
</g>
</g>
<!-- Node3&#45;&gt;Node2 -->
<g id="edge2" class="edge">
<title>Node3&#45;&gt;Node2</title>
<path fill="none" stroke="#191970" d="M58.3465,-125.6592C61.6349,-115.8722 65.2178,-105.2089 67.7288,-97.7356"/>
<polygon fill="#191970" stroke="#191970" points="54.9509,-124.7765 55.0835,-135.3705 61.5863,-127.006 54.9509,-124.7765"/>
</g>
<!-- Node4 -->
<g id="node4" class="node">
<title>Node4</title>
<g id="a_node4"><a xlink:title="STL class.">
<polygon fill="#ffffff" stroke="#bfbfbf" points="3.5,-203.5 3.5,-233.5 100.5,-233.5 100.5,-203.5 3.5,-203.5"/>
<text text-anchor="start" x="11.5" y="-221.5" font-family="Helvetica,sans-Serif" font-size="10.00" fill="#000000">std::basic_istream</text>
<text text-anchor="middle" x="52" y="-210.5" font-family="Helvetica,sans-Serif" font-size="10.00" fill="#000000">&lt; Char &gt;</text>
</a>
</g>
</g>
<!-- Node4&#45;&gt;Node3 -->
<g id="edge3" class="edge">
<title>Node4&#45;&gt;Node3</title>
<path fill="none" stroke="#191970" d="M51.2535,-193.1174C50.9805,-183.8378 50.6806,-173.6413 50.4426,-165.5492"/>
<polygon fill="#191970" stroke="#191970" points="47.7636,-193.5158 51.5561,-203.4086 54.7605,-193.31 47.7636,-193.5158"/>
</g>
<!-- Node5 -->
<g id="node5" class="node">
<title>Node5</title>
<g id="a_node5"><a xlink:title="STL class.">
<polygon fill="#ffffff" stroke="#bfbfbf" points="52,-271.5 52,-290.5 168,-290.5 168,-271.5 52,-271.5"/>
<text text-anchor="middle" x="110" y="-278.5" font-family="Helvetica,sans-Serif" font-size="10.00" fill="#000000">std::basic_ios&lt; Char &gt;</text>
</a>
</g>
</g>
<!-- Node5&#45;&gt;Node4 -->
<g id="edge4" class="edge">
<title>Node5&#45;&gt;Node4</title>
<path fill="none" stroke="#191970" d="M93.9027,-263.6538C85.2082,-254.2847 74.5701,-242.8212 66.1884,-233.7892"/>
<polygon fill="#191970" stroke="#191970" points="91.5697,-266.2851 100.9375,-271.2344 96.7007,-261.5235 91.5697,-266.2851"/>
</g>
<!-- Node9 -->
<g id="node9" class="node">
<title>Node9</title>
<g id="a_node9"><a xlink:title="STL class.">
<polygon fill="#ffffff" stroke="#bfbfbf" points="119,-203.5 119,-233.5 219,-233.5 219,-203.5 119,-203.5"/>
<text text-anchor="start" x="127" y="-221.5" font-family="Helvetica,sans-Serif" font-size="10.00" fill="#000000">std::basic_ostream</text>
<text text-anchor="middle" x="169" y="-210.5" font-family="Helvetica,sans-Serif" font-size="10.00" fill="#000000">&lt; Char &gt;</text>
</a>
</g>
</g>
<!-- Node5&#45;&gt;Node9 -->
<g id="edge9" class="edge">
<title>Node5&#45;&gt;Node9</title>
<path fill="none" stroke="#191970" d="M126.1074,-263.9371C135.0004,-254.5165 145.9547,-242.9124 154.567,-233.7892"/>
<polygon fill="#191970" stroke="#191970" points="123.5382,-261.56 119.2188,-271.2344 128.6284,-266.3652 123.5382,-261.56"/>
</g>
<!-- Node6 -->
<g id="node6" class="node">
<title>Node6</title>
<g id="a_node6"><a xlink:title="STL class.">
<polygon fill="#ffffff" stroke="#bfbfbf" points="72.5,-328.5 72.5,-347.5 147.5,-347.5 147.5,-328.5 72.5,-328.5"/>
<text text-anchor="middle" x="110" y="-335.5" font-family="Helvetica,sans-Serif" font-size="10.00" fill="#000000">std::ios_base</text>
</a>
</g>
</g>
<!-- Node6&#45;&gt;Node5 -->
<g id="edge5" class="edge">
<title>Node6&#45;&gt;Node5</title>
<path fill="none" stroke="#191970" d="M110,-318.2342C110,-308.8491 110,-298.0651 110,-290.5265"/>
<polygon fill="#191970" stroke="#191970" points="106.5001,-318.3307 110,-328.3307 113.5001,-318.3308 106.5001,-318.3307"/>
</g>
<!-- Node7 -->
<g id="node7" class="node">
<title>Node7</title>
<g id="a_node7"><a xlink:title="STL class.">
<polygon fill="#ffffff" stroke="#bfbfbf" points="129,-78.5 129,-97.5 203,-97.5 203,-78.5 129,-78.5"/>
<text text-anchor="middle" x="166" y="-85.5" font-family="Helvetica,sans-Serif" font-size="10.00" fill="#000000">std::ofstream</text>
</a>
</g>
</g>
<!-- Node7&#45;&gt;Node1 -->
<g id="edge6" class="edge">
<title>Node7&#45;&gt;Node1</title>
<path fill="none" stroke="#9a32cd" stroke-dasharray="5,2" d="M166,-68.0177C166,-56.2164 166,-41.513 166,-30.668"/>
<polygon fill="#9a32cd" stroke="#9a32cd" points="162.5001,-68.2223 166,-78.2223 169.5001,-68.2224 162.5001,-68.2223"/>
<text text-anchor="middle" x="174.5" y="-52" font-family="Helvetica,sans-Serif" font-size="10.00" fill="#000000"> out</text>
</g>
<!-- Node8 -->
<g id="node8" class="node">
<title>Node8</title>
<g id="a_node8"><a xlink:title="STL class.">
<polygon fill="#ffffff" stroke="#bfbfbf" points="118.5,-135.5 118.5,-165.5 221.5,-165.5 221.5,-135.5 118.5,-135.5"/>
<text text-anchor="start" x="126.5" y="-153.5" font-family="Helvetica,sans-Serif" font-size="10.00" fill="#000000">std::basic_ofstream</text>
<text text-anchor="middle" x="170" y="-142.5" font-family="Helvetica,sans-Serif" font-size="10.00" fill="#000000">&lt; char &gt;</text>
</a>
</g>
</g>
<!-- Node8&#45;&gt;Node7 -->
<g id="edge7" class="edge">
<title>Node8&#45;&gt;Node7</title>
<path fill="none" stroke="#191970" d="M168.3904,-125.3498C167.7695,-115.6481 167.0963,-105.1303 166.6231,-97.7356"/>
<polygon fill="#191970" stroke="#191970" points="164.9001,-125.6145 169.0317,-135.3705 171.8858,-125.1673 164.9001,-125.6145"/>
</g>
<!-- Node9&#45;&gt;Node8 -->
<g id="edge8" class="edge">
<title>Node9&#45;&gt;Node8</title>
<path fill="none" stroke="#191970" d="M169.3733,-193.1174C169.5097,-183.8378 169.6597,-173.6413 169.7787,-165.5492"/>
<polygon fill="#191970" stroke="#191970" points="165.8694,-193.3582 169.2219,-203.4086 172.8687,-193.4612 165.8694,-193.3582"/>
</g>
<!-- Node10 -->
<g id="node10" class="node">
<title>Node10</title>
<g id="a_node10"><a xlink:title="STL class.">
<polygon fill="#ffffff" stroke="#bfbfbf" points="221.5,-78.5 221.5,-97.5 284.5,-97.5 284.5,-78.5 221.5,-78.5"/>
<text text-anchor="middle" x="253" y="-85.5" font-family="Helvetica,sans-Serif" font-size="10.00" fill="#000000">std::thread</text>
</a>
</g>
</g>
<!-- Node10&#45;&gt;Node1 -->
<g id="edge10" class="edge">
<title>Node10&#45;&gt;Node1</title>
<path fill="none" stroke="#9a32cd" stroke-dasharray="5,2" d="M233.2811,-71.5676C218.5469,-59.2891 198.5573,-42.6311 184.2016,-30.668"/>
<polygon fill="#9a32cd" stroke="#9a32cd" points="231.3439,-74.5092 241.2668,-78.2223 235.8252,-69.1317 231.3439,-74.5092"/>
<text text-anchor="middle" x="237.5" y="-52" font-family="Helvetica,sans-Serif" font-size="10.00" fill="#000000"> bgthread</text>
</g>
</g>
</svg>
