<?xml version="1.0" encoding="UTF-8" standalone="no"?>
<!DOCTYPE svg PUBLIC "-//W3C//DTD SVG 1.1//EN"
 "http://www.w3.org/Graphics/SVG/1.1/DTD/svg11.dtd">
<!-- Generated by graphviz version 2.42.2 ()
 -->
<!-- Title: src/clas.hpp Pages: 1 -->
<svg width="293pt" height="84pt"
 viewBox="0.00 0.00 292.50 84.00" xmlns="http://www.w3.org/2000/svg" xmlns:xlink="http://www.w3.org/1999/xlink">
<g id="graph0" class="graph" transform="scale(1 1) rotate(0) translate(4 80)">
<title>src/clas.hpp</title>
<polygon fill="white" stroke="transparent" points="-4,4 -4,-80 288.5,-80 288.5,4 -4,4"/>
<!-- Node1 -->
<g id="node1" class="node">
<title>Node1</title>
<g id="a_node1"><a xlink:title="Provides functions to process command line arguments.">
<polygon fill="#bfbfbf" stroke="black" points="95,-56.5 95,-75.5 165,-75.5 165,-56.5 95,-56.5"/>
<text text-anchor="middle" x="130" y="-63.5" font-family="Helvetica" font-size="10.00">src/clas.hpp</text>
</a>
</g>
</g>
<!-- Node2 -->
<g id="node2" class="node">
<title>Node2</title>
<g id="a_node2"><a xlink:href="clas_8cpp.html" target="_top" xlink:title="Implements functions to process command line arguments.">
<polygon fill="white" stroke="black" points="0,-0.5 0,-19.5 70,-19.5 70,-0.5 0,-0.5"/>
<text text-anchor="middle" x="35" y="-7.5" font-family="Helvetica" font-size="10.00">src/clas.cpp</text>
</a>
</g>
</g>
<!-- Node1&#45;&gt;Node2 -->
<g id="edge1" class="edge">
<title>Node1&#45;&gt;Node2</title>
<path fill="none" stroke="midnightblue" d="M105.68,-51.18C88.2,-41.24 65.17,-28.15 50.23,-19.65"/>
<polygon fill="midnightblue" stroke="midnightblue" points="104.31,-54.43 114.74,-56.32 107.77,-48.34 104.31,-54.43"/>
</g>
<!-- Node3 -->
<g id="node3" class="node">
<title>Node3</title>
<g id="a_node3"><a xlink:href="loadrec_8cpp.html" target="_top" xlink:title="Implements a load recorder, useful for simulating loads to test CPU clock daemons and settings.">
<polygon fill="white" stroke="black" points="88.5,-0.5 88.5,-19.5 171.5,-19.5 171.5,-0.5 88.5,-0.5"/>
<text text-anchor="middle" x="130" y="-7.5" font-family="Helvetica" font-size="10.00">src/loadrec.cpp</text>
</a>
</g>
</g>
<!-- Node1&#45;&gt;Node3 -->
<g id="edge2" class="edge">
<title>Node1&#45;&gt;Node3</title>
<path fill="none" stroke="midnightblue" d="M130,-45.8C130,-36.91 130,-26.78 130,-19.75"/>
<polygon fill="midnightblue" stroke="midnightblue" points="126.5,-46.08 130,-56.08 133.5,-46.08 126.5,-46.08"/>
</g>
<!-- Node4 -->
<g id="node4" class="node">
<title>Node4</title>
<g id="a_node4"><a xlink:href="powerd_09_09_8cpp.html" target="_top" xlink:title="Implements powerd++ a drop in replacement for FreeBSD&#39;s powerd.">
<polygon fill="white" stroke="black" points="189.5,-0.5 189.5,-19.5 284.5,-19.5 284.5,-0.5 189.5,-0.5"/>
<text text-anchor="middle" x="237" y="-7.5" font-family="Helvetica" font-size="10.00">src/powerd++.cpp</text>
</a>
</g>
</g>
<!-- Node1&#45;&gt;Node4 -->
<g id="edge3" class="edge">
<title>Node1&#45;&gt;Node4</title>
<path fill="none" stroke="midnightblue" d="M156.3,-51.73C176.11,-41.73 202.71,-28.31 219.85,-19.65"/>
<polygon fill="midnightblue" stroke="midnightblue" points="154.54,-48.69 147.19,-56.32 157.7,-54.94 154.54,-48.69"/>
</g>
</g>
</svg>
