<?xml version="1.0" encoding="UTF-8" standalone="no"?>
<!DOCTYPE svg PUBLIC "-//W3C//DTD SVG 1.1//EN"
 "http://www.w3.org/Graphics/SVG/1.1/DTD/svg11.dtd">
<!-- Generated by graphviz version 2.40.1 (20161225.0304)
 -->
<!-- Title: anonymous_namespace{libloadplay.cpp}::Report Pages: 1 -->
<svg width="826pt" height="176pt"
 viewBox="0.00 0.00 826.00 175.50" xmlns="http://www.w3.org/2000/svg" xmlns:xlink="http://www.w3.org/1999/xlink">
<g id="graph0" class="graph" transform="scale(1 1) rotate(0) translate(4 171.5)">
<title>anonymous_namespace{libloadplay.cpp}::Report</title>
<polygon fill="#ffffff" stroke="transparent" points="-4,4 -4,-171.5 822,-171.5 822,4 -4,4"/>
<!-- Node1 -->
<g id="node1" class="node">
<title>Node1</title>
<g id="a_node1"><a xlink:title="Provides a mechanism to provide frame wise per core load information.">
<polygon fill="#bfbfbf" stroke="#000000" points="696,-86.5 696,-116.5 818,-116.5 818,-86.5 696,-86.5"/>
<text text-anchor="start" x="704" y="-104.5" font-family="Helvetica,sans-Serif" font-size="10.00" fill="#000000">anonymous_namespace</text>
<text text-anchor="middle" x="757" y="-93.5" font-family="Helvetica,sans-Serif" font-size="10.00" fill="#000000">{libloadplay.cpp}::Report</text>
</a>
</g>
</g>
<!-- Node2 -->
<g id="node2" class="node">
<title>Node2</title>
<g id="a_node2"><a xlink:title=" ">
<polygon fill="#ffffff" stroke="#bfbfbf" points="535,-148 535,-167 586,-167 586,-148 535,-148"/>
<text text-anchor="middle" x="560.5" y="-155" font-family="Helvetica,sans-Serif" font-size="10.00" fill="#000000">coreid_t</text>
</a>
</g>
</g>
<!-- Node2&#45;&gt;Node1 -->
<g id="edge1" class="edge">
<title>Node2&#45;&gt;Node1</title>
<path fill="none" stroke="#9a32cd" stroke-dasharray="5,2" d="M595.7574,-148.2484C607.3163,-145.184 620.216,-141.7306 632,-138.5 652.4892,-132.8828 657.6129,-131.4769 678,-125.5 687.7662,-122.6368 698.1919,-119.5157 708.16,-116.5"/>
<polygon fill="#9a32cd" stroke="#9a32cd" points="594.78,-144.8865 586.0066,-150.8259 596.569,-151.654 594.78,-144.8865"/>
<text text-anchor="middle" x="664" y="-135.5" font-family="Helvetica,sans-Serif" font-size="10.00" fill="#000000"> ncpu</text>
</g>
<!-- Node3 -->
<g id="node3" class="node">
<title>Node3</title>
<g id="a_node3"><a xlink:href="classutility_1_1Sum.html" target="_top" xlink:title=" ">
<polygon fill="#ffffff" stroke="#000000" points="501,-110 501,-129 620,-129 620,-110 501,-110"/>
<text text-anchor="middle" x="560.5" y="-117" font-family="Helvetica,sans-Serif" font-size="10.00" fill="#000000">utility::Sum&lt; uint64_t &gt;</text>
</a>
</g>
</g>
<!-- Node3&#45;&gt;Node1 -->
<g id="edge2" class="edge">
<title>Node3&#45;&gt;Node1</title>
<path fill="none" stroke="#9a32cd" stroke-dasharray="5,2" d="M630.2598,-113.1098C651.6648,-111.149 675.0447,-109.0074 695.8298,-107.1034"/>
<polygon fill="#9a32cd" stroke="#9a32cd" points="629.8958,-109.6284 620.2568,-114.0261 630.5344,-116.5992 629.8958,-109.6284"/>
<text text-anchor="middle" x="664" y="-113.5" font-family="Helvetica,sans-Serif" font-size="10.00" fill="#000000"> time</text>
</g>
<!-- Node4 -->
<g id="node4" class="node">
<title>Node4</title>
<g id="a_node4"><a xlink:title=" ">
<polygon fill="#ffffff" stroke="#bfbfbf" points="489,-50 489,-91 632,-91 632,-50 489,-50"/>
<text text-anchor="start" x="497" y="-79" font-family="Helvetica,sans-Serif" font-size="10.00" fill="#000000">std::unique_ptr&lt; anonymous</text>
<text text-anchor="start" x="497" y="-68" font-family="Helvetica,sans-Serif" font-size="10.00" fill="#000000">_namespace{libloadplay.cpp}</text>
<text text-anchor="middle" x="560.5" y="-57" font-family="Helvetica,sans-Serif" font-size="10.00" fill="#000000">::CoreFrameReport[]&gt;</text>
</a>
</g>
</g>
<!-- Node4&#45;&gt;Node1 -->
<g id="edge3" class="edge">
<title>Node4&#45;&gt;Node1</title>
<path fill="none" stroke="#9a32cd" stroke-dasharray="5,2" d="M642.6479,-83.4597C660.4384,-86.2664 678.9529,-89.1872 695.7721,-91.8406"/>
<polygon fill="#9a32cd" stroke="#9a32cd" points="642.6984,-79.9245 632.2751,-81.8233 641.6075,-86.839 642.6984,-79.9245"/>
<text text-anchor="middle" x="664" y="-91.5" font-family="Helvetica,sans-Serif" font-size="10.00" fill="#000000"> cores</text>
</g>
<!-- Node5 -->
<g id="node5" class="node">
<title>Node5</title>
<g id="a_node5"><a xlink:href="namespaceanonymous__namespace_02libloadplay_8cpp_03.html#structanonymous__namespace_02libloadplay_8cpp_03_1_1CoreFrameReport" target="_top" xlink:title="The report frame information for a single CPU pipeline.">
<polygon fill="#ffffff" stroke="#000000" points="296,-50 296,-91 438,-91 438,-50 296,-50"/>
<text text-anchor="start" x="304" y="-79" font-family="Helvetica,sans-Serif" font-size="10.00" fill="#000000">anonymous_namespace</text>
<text text-anchor="start" x="304" y="-68" font-family="Helvetica,sans-Serif" font-size="10.00" fill="#000000">{libloadplay.cpp}::CoreFrame</text>
<text text-anchor="middle" x="367" y="-57" font-family="Helvetica,sans-Serif" font-size="10.00" fill="#000000">Report</text>
</a>
</g>
</g>
<!-- Node5&#45;&gt;Node4 -->
<g id="edge4" class="edge">
<title>Node5&#45;&gt;Node4</title>
<path fill="none" stroke="#9a32cd" stroke-dasharray="5,2" d="M448.389,-70.5C461.8027,-70.5 475.6207,-70.5 488.7759,-70.5"/>
<polygon fill="#9a32cd" stroke="#9a32cd" points="448.2279,-67.0001 438.2279,-70.5 448.2279,-74.0001 448.2279,-67.0001"/>
<text text-anchor="middle" x="463.5" y="-73.5" font-family="Helvetica,sans-Serif" font-size="10.00" fill="#000000"> ptr</text>
</g>
<!-- Node6 -->
<g id="node6" class="node">
<title>Node6</title>
<g id="a_node6"><a xlink:href="namespaceanonymous__namespace_02libloadplay_8cpp_03.html#structanonymous__namespace_02libloadplay_8cpp_03_1_1CoreReport" target="_top" xlink:title="The reported state of a single CPU pipeline.">
<polygon fill="#ffffff" stroke="#000000" points="100,-55.5 100,-85.5 243,-85.5 243,-55.5 100,-55.5"/>
<text text-anchor="start" x="108" y="-73.5" font-family="Helvetica,sans-Serif" font-size="10.00" fill="#000000">anonymous_namespace</text>
<text text-anchor="middle" x="171.5" y="-62.5" font-family="Helvetica,sans-Serif" font-size="10.00" fill="#000000">{libloadplay.cpp}::CoreReport</text>
</a>
</g>
</g>
<!-- Node6&#45;&gt;Node5 -->
<g id="edge5" class="edge">
<title>Node6&#45;&gt;Node5</title>
<path fill="none" stroke="#9a32cd" stroke-dasharray="5,2" d="M253.3913,-70.5C267.54,-70.5 282.1441,-70.5 295.9751,-70.5"/>
<polygon fill="#9a32cd" stroke="#9a32cd" points="253.1869,-67.0001 243.1869,-70.5 253.1868,-74.0001 253.1869,-67.0001"/>
<text text-anchor="middle" x="269.5" y="-84.5" font-family="Helvetica,sans-Serif" font-size="10.00" fill="#000000"> run</text>
<text text-anchor="middle" x="269.5" y="-73.5" font-family="Helvetica,sans-Serif" font-size="10.00" fill="#000000">rec</text>
</g>
<!-- Node7 -->
<g id="node7" class="node">
<title>Node7</title>
<g id="a_node7"><a xlink:title=" ">
<polygon fill="#ffffff" stroke="#bfbfbf" points="0,-61 0,-80 44,-80 44,-61 0,-61"/>
<text text-anchor="middle" x="22" y="-68" font-family="Helvetica,sans-Serif" font-size="10.00" fill="#000000">mhz_t</text>
</a>
</g>
</g>
<!-- Node7&#45;&gt;Node6 -->
<g id="edge6" class="edge">
<title>Node7&#45;&gt;Node6</title>
<path fill="none" stroke="#9a32cd" stroke-dasharray="5,2" d="M54.1643,-70.5C67.5667,-70.5 83.7099,-70.5 99.675,-70.5"/>
<polygon fill="#9a32cd" stroke="#9a32cd" points="54.0593,-67.0001 44.0592,-70.5 54.0592,-74.0001 54.0593,-67.0001"/>
<text text-anchor="middle" x="72" y="-73.5" font-family="Helvetica,sans-Serif" font-size="10.00" fill="#000000"> freq</text>
</g>
<!-- Node8 -->
<g id="node8" class="node">
<title>Node8</title>
<g id="a_node8"><a xlink:href="namespacesys_1_1io.html#namespacesys_1_1io" target="_top" xlink:title=" ">
<polygon fill="#ffffff" stroke="#000000" points="517,-.5 517,-30.5 604,-30.5 604,-.5 517,-.5"/>
<text text-anchor="start" x="525" y="-18.5" font-family="Helvetica,sans-Serif" font-size="10.00" fill="#000000">sys::io::file&lt; io::</text>
<text text-anchor="middle" x="560.5" y="-7.5" font-family="Helvetica,sans-Serif" font-size="10.00" fill="#000000">link &gt;</text>
</a>
</g>
</g>
<!-- Node8&#45;&gt;Node1 -->
<g id="edge7" class="edge">
<title>Node8&#45;&gt;Node1</title>
<path fill="none" stroke="#9a32cd" stroke-dasharray="5,2" d="M613.9003,-33.3938C620.0438,-35.6817 626.1858,-38.0748 632,-40.5 665.8753,-54.6303 703.5911,-73.4857 728.6444,-86.4737"/>
<polygon fill="#9a32cd" stroke="#9a32cd" points="614.8859,-30.0279 604.2919,-29.8954 612.491,-36.6055 614.8859,-30.0279"/>
<text text-anchor="middle" x="664" y="-64.5" font-family="Helvetica,sans-Serif" font-size="10.00" fill="#000000"> fout</text>
</g>
</g>
</svg>
