<?xml version="1.0" encoding="UTF-8" standalone="no"?>
<!DOCTYPE svg PUBLIC "-//W3C//DTD SVG 1.1//EN"
 "http://www.w3.org/Graphics/SVG/1.1/DTD/svg11.dtd">
<!-- Generated by graphviz version 2.42.2 ()
 -->
<!-- Title: sys::io::file&lt; link, Features ... &gt; Pages: 1 -->
<svg width="115pt" height="117pt"
 viewBox="0.00 0.00 115.00 117.00" xmlns="http://www.w3.org/2000/svg" xmlns:xlink="http://www.w3.org/1999/xlink">
<g id="graph0" class="graph" transform="scale(1 1) rotate(0) translate(4 113)">
<title>sys::io::file&lt; link, Features ... &gt;</title>
<polygon fill="white" stroke="transparent" points="-4,4 -4,-113 111,-113 111,4 -4,4"/>
<!-- Node1 -->
<g id="node1" class="node">
<title>Node1</title>
<g id="a_node1"><a xlink:title="Specialise for FILE object linking file instances.">
<polygon fill="#bfbfbf" stroke="black" points="7.5,-0.5 7.5,-30.5 99.5,-30.5 99.5,-0.5 7.5,-0.5"/>
<text text-anchor="start" x="15.5" y="-18.5" font-family="Helvetica" font-size="10.00">sys::io::file&lt; link,</text>
<text text-anchor="middle" x="53.5" y="-7.5" font-family="Helvetica" font-size="10.00"> Features ... &gt;</text>
</a>
</g>
</g>
<!-- Node2 -->
<g id="node2" class="node">
<title>Node2</title>
<g id="a_node2"><a xlink:href="classsys_1_1io_1_1file__feature.html" target="_top" xlink:title=" ">
<polygon fill="white" stroke="black" points="0,-67.5 0,-108.5 107,-108.5 107,-67.5 0,-67.5"/>
<text text-anchor="start" x="8" y="-96.5" font-family="Helvetica" font-size="10.00">sys::io::file_feature</text>
<text text-anchor="start" x="8" y="-85.5" font-family="Helvetica" font-size="10.00">&lt; file&lt; link, Features</text>
<text text-anchor="middle" x="53.5" y="-74.5" font-family="Helvetica" font-size="10.00"> ... &gt;, Features ... &gt;</text>
</a>
</g>
</g>
<!-- Node2&#45;&gt;Node1 -->
<g id="edge1" class="edge">
<title>Node2&#45;&gt;Node1</title>
<path fill="none" stroke="midnightblue" d="M53.5,-57.08C53.5,-48.01 53.5,-38.45 53.5,-30.89"/>
<polygon fill="midnightblue" stroke="midnightblue" points="50,-57.36 53.5,-67.36 57,-57.36 50,-57.36"/>
</g>
</g>
</svg>
