<?xml version="1.0" encoding="UTF-8" standalone="no"?>
<!DOCTYPE svg PUBLIC "-//W3C//DTD SVG 1.1//EN"
 "http://www.w3.org/Graphics/SVG/1.1/DTD/svg11.dtd">
<!-- Generated by graphviz version 2.40.1 (20161225.0304)
 -->
<!-- Title: anonymous_namespace{libloadplay.cpp}::Emulator Pages: 1 -->
<svg width="1340pt" height="232pt"
 viewBox="0.00 0.00 1340.00 232.00" xmlns="http://www.w3.org/2000/svg" xmlns:xlink="http://www.w3.org/1999/xlink">
<g id="graph0" class="graph" transform="scale(1 1) rotate(0) translate(4 228)">
<title>anonymous_namespace{libloadplay.cpp}::Emulator</title>
<polygon fill="#ffffff" stroke="transparent" points="-4,4 -4,-228 1336,-228 1336,4 -4,4"/>
<!-- Node1 -->
<g id="node1" class="node">
<title>Node1</title>
<g id="a_node1"><a xlink:title="Instances of this class represent an emulator session.">
<polygon fill="#bfbfbf" stroke="#000000" points="1200,-77.5 1200,-107.5 1332,-107.5 1332,-77.5 1200,-77.5"/>
<text text-anchor="start" x="1208" y="-95.5" font-family="Helvetica,sans-Serif" font-size="10.00" fill="#000000">anonymous_namespace</text>
<text text-anchor="middle" x="1266" y="-84.5" font-family="Helvetica,sans-Serif" font-size="10.00" fill="#000000">{libloadplay.cpp}::Emulator</text>
</a>
</g>
</g>
<!-- Node2 -->
<g id="node2" class="node">
<title>Node2</title>
<g id="a_node2"><a xlink:title=" ">
<polygon fill="#ffffff" stroke="#bfbfbf" points="993,-97 993,-138 1136,-138 1136,-97 993,-97"/>
<text text-anchor="start" x="1001" y="-126" font-family="Helvetica,sans-Serif" font-size="10.00" fill="#000000">std::unique_ptr&lt; anonymous</text>
<text text-anchor="start" x="1001" y="-115" font-family="Helvetica,sans-Serif" font-size="10.00" fill="#000000">_namespace{libloadplay.cpp}</text>
<text text-anchor="middle" x="1064.5" y="-104" font-family="Helvetica,sans-Serif" font-size="10.00" fill="#000000">::Emulator::Core[]&gt;</text>
</a>
</g>
</g>
<!-- Node2&#45;&gt;Node1 -->
<g id="edge1" class="edge">
<title>Node2&#45;&gt;Node1</title>
<path fill="none" stroke="#9a32cd" stroke-dasharray="5,2" d="M1146.425,-107.3356C1164.1338,-105.1385 1182.6471,-102.8416 1199.6703,-100.7295"/>
<polygon fill="#9a32cd" stroke="#9a32cd" points="1145.6017,-103.9108 1136.1087,-108.6155 1146.4636,-110.8576 1145.6017,-103.9108"/>
<text text-anchor="middle" x="1168" y="-108.5" font-family="Helvetica,sans-Serif" font-size="10.00" fill="#000000"> cores</text>
</g>
<!-- Node3 -->
<g id="node3" class="node">
<title>Node3</title>
<g id="a_node3"><a xlink:href="classanonymous__namespace_02libloadplay_8cpp_03_1_1Emulator.html#structanonymous__namespace_02libloadplay_8cpp_03_1_1Emulator_1_1Core" target="_top" xlink:title="Per core information.">
<polygon fill="#ffffff" stroke="#000000" points="658,-102.5 658,-132.5 817,-132.5 817,-102.5 658,-102.5"/>
<text text-anchor="start" x="666" y="-120.5" font-family="Helvetica,sans-Serif" font-size="10.00" fill="#000000">anonymous_namespace</text>
<text text-anchor="middle" x="737.5" y="-109.5" font-family="Helvetica,sans-Serif" font-size="10.00" fill="#000000">{libloadplay.cpp}::Emulator::Core</text>
</a>
</g>
</g>
<!-- Node3&#45;&gt;Node2 -->
<g id="edge2" class="edge">
<title>Node3&#45;&gt;Node2</title>
<path fill="none" stroke="#9a32cd" stroke-dasharray="5,2" d="M827.3275,-117.5C879.4751,-117.5 944.265,-117.5 992.9437,-117.5"/>
<polygon fill="#9a32cd" stroke="#9a32cd" points="827.0751,-114.0001 817.0751,-117.5 827.075,-121.0001 827.0751,-114.0001"/>
<text text-anchor="middle" x="905" y="-120.5" font-family="Helvetica,sans-Serif" font-size="10.00" fill="#000000"> ptr</text>
</g>
<!-- Node4 -->
<g id="node4" class="node">
<title>Node4</title>
<g id="a_node4"><a xlink:title=" ">
<polygon fill="#ffffff" stroke="#bfbfbf" points="450,-108 450,-127 494,-127 494,-108 450,-108"/>
<text text-anchor="middle" x="472" y="-115" font-family="Helvetica,sans-Serif" font-size="10.00" fill="#000000">mhz_t</text>
</a>
</g>
</g>
<!-- Node4&#45;&gt;Node3 -->
<g id="edge3" class="edge">
<title>Node4&#45;&gt;Node3</title>
<path fill="none" stroke="#9a32cd" stroke-dasharray="5,2" d="M504.6238,-117.5C542.5915,-117.5 606.6357,-117.5 657.9621,-117.5"/>
<polygon fill="#9a32cd" stroke="#9a32cd" points="504.1798,-114.0001 494.1797,-117.5 504.1797,-121.0001 504.1798,-114.0001"/>
<text text-anchor="middle" x="601.5" y="-131.5" font-family="Helvetica,sans-Serif" font-size="10.00" fill="#000000"> runFreq</text>
<text text-anchor="middle" x="601.5" y="-120.5" font-family="Helvetica,sans-Serif" font-size="10.00" fill="#000000">recFreq</text>
</g>
<!-- Node5 -->
<g id="node5" class="node">
<title>Node5</title>
<g id="a_node5"><a xlink:href="classanonymous__namespace_02libloadplay_8cpp_03_1_1SysctlValue.html" target="_top" xlink:title="Instances of this class represents a specific sysctl value.">
<polygon fill="#ffffff" stroke="#000000" points="399,-160.5 399,-190.5 545,-190.5 545,-160.5 399,-160.5"/>
<text text-anchor="start" x="407" y="-178.5" font-family="Helvetica,sans-Serif" font-size="10.00" fill="#000000">anonymous_namespace</text>
<text text-anchor="middle" x="472" y="-167.5" font-family="Helvetica,sans-Serif" font-size="10.00" fill="#000000">{libloadplay.cpp}::SysctlValue</text>
</a>
</g>
</g>
<!-- Node5&#45;&gt;Node1 -->
<g id="edge11" class="edge">
<title>Node5&#45;&gt;Node1</title>
<path fill="none" stroke="#9a32cd" stroke-dasharray="5,2" d="M555.4028,-181.5103C682.482,-188.5455 931.417,-193.9558 1136,-147.5 1173.0417,-139.0887 1212.8852,-120.7004 1238.5585,-107.5001"/>
<polygon fill="#9a32cd" stroke="#9a32cd" points="555.5331,-178.0121 545.3498,-180.9361 555.1339,-185.0007 555.5331,-178.0121"/>
<text text-anchor="middle" x="905" y="-186.5" font-family="Helvetica,sans-Serif" font-size="10.00" fill="#000000"> cp_times</text>
</g>
<!-- Node5&#45;&gt;Node3 -->
<g id="edge4" class="edge">
<title>Node5&#45;&gt;Node3</title>
<path fill="none" stroke="#9a32cd" stroke-dasharray="5,2" d="M555.1068,-158.6367C582.2057,-153.0178 612.413,-146.6264 640,-140.5 651.2904,-137.9927 663.2942,-135.236 674.8789,-132.5287"/>
<polygon fill="#9a32cd" stroke="#9a32cd" points="554.3583,-155.2174 545.2743,-160.67 555.7759,-162.0724 554.3583,-155.2174"/>
<text text-anchor="middle" x="601.5" y="-158.5" font-family="Helvetica,sans-Serif" font-size="10.00" fill="#000000"> freqCtl</text>
</g>
<!-- Node6 -->
<g id="node6" class="node">
<title>Node6</title>
<g id="a_node6"><a xlink:href="classanonymous__namespace_02libloadplay_8cpp_03_1_1Callback.html" target="_top" xlink:title=" ">
<polygon fill="#ffffff" stroke="#000000" points="132,-171.5 132,-223.5 334,-223.5 334,-171.5 132,-171.5"/>
<text text-anchor="start" x="140" y="-211.5" font-family="Helvetica,sans-Serif" font-size="10.00" fill="#000000">anonymous_namespace</text>
<text text-anchor="start" x="140" y="-200.5" font-family="Helvetica,sans-Serif" font-size="10.00" fill="#000000">{libloadplay.cpp}::Callback</text>
<text text-anchor="start" x="140" y="-189.5" font-family="Helvetica,sans-Serif" font-size="10.00" fill="#000000">&lt; anonymous_namespace{libloadplay.cpp}</text>
<text text-anchor="middle" x="233" y="-178.5" font-family="Helvetica,sans-Serif" font-size="10.00" fill="#000000">::SysctlValue &amp; &gt;</text>
</a>
</g>
</g>
<!-- Node6&#45;&gt;Node5 -->
<g id="edge5" class="edge">
<title>Node6&#45;&gt;Node5</title>
<path fill="none" stroke="#9a32cd" stroke-dasharray="5,2" d="M344.0156,-187.281C362.6402,-185.5666 381.541,-183.8268 398.8962,-182.2292"/>
<polygon fill="#9a32cd" stroke="#9a32cd" points="343.6482,-183.7999 334.0111,-188.2019 344.2899,-190.7705 343.6482,-183.7999"/>
<text text-anchor="middle" x="366.5" y="-189.5" font-family="Helvetica,sans-Serif" font-size="10.00" fill="#000000"> onSet</text>
</g>
<!-- Node7 -->
<g id="node7" class="node">
<title>Node7</title>
<g id="a_node7"><a xlink:title="STL class.">
<polygon fill="#ffffff" stroke="#bfbfbf" points="203,-133 203,-152 263,-152 263,-133 203,-133"/>
<text text-anchor="middle" x="233" y="-140" font-family="Helvetica,sans-Serif" font-size="10.00" fill="#000000">std::string</text>
</a>
</g>
</g>
<!-- Node7&#45;&gt;Node5 -->
<g id="edge6" class="edge">
<title>Node7&#45;&gt;Node5</title>
<path fill="none" stroke="#9a32cd" stroke-dasharray="5,2" d="M273.3682,-148.0738C307.6261,-152.804 357.6448,-159.7104 398.9172,-165.4091"/>
<polygon fill="#9a32cd" stroke="#9a32cd" points="273.6543,-144.5802 263.2695,-146.6795 272.6968,-151.5144 273.6543,-144.5802"/>
<text text-anchor="middle" x="366.5" y="-165.5" font-family="Helvetica,sans-Serif" font-size="10.00" fill="#000000"> value</text>
</g>
<!-- Node8 -->
<g id="node8" class="node">
<title>Node8</title>
<g id="a_node8"><a xlink:title="STL class.">
<polygon fill="#ffffff" stroke="#bfbfbf" points="0,-127.5 0,-157.5 95,-157.5 95,-127.5 0,-127.5"/>
<text text-anchor="start" x="8" y="-145.5" font-family="Helvetica,sans-Serif" font-size="10.00" fill="#000000">std::basic_string&lt;</text>
<text text-anchor="middle" x="47.5" y="-134.5" font-family="Helvetica,sans-Serif" font-size="10.00" fill="#000000"> char &gt;</text>
</a>
</g>
</g>
<!-- Node8&#45;&gt;Node7 -->
<g id="edge7" class="edge">
<title>Node8&#45;&gt;Node7</title>
<path fill="none" stroke="#191970" d="M105.4878,-142.5C137.74,-142.5 176.549,-142.5 202.8157,-142.5"/>
<polygon fill="#191970" stroke="#191970" points="105.2709,-139.0001 95.2709,-142.5 105.2708,-146.0001 105.2709,-139.0001"/>
</g>
<!-- Node9 -->
<g id="node9" class="node">
<title>Node9</title>
<g id="a_node9"><a xlink:title=" ">
<polygon fill="#ffffff" stroke="#bfbfbf" points="445,-46 445,-65 499,-65 499,-46 445,-46"/>
<text text-anchor="middle" x="472" y="-53" font-family="Helvetica,sans-Serif" font-size="10.00" fill="#000000">cptime_t</text>
</a>
</g>
</g>
<!-- Node9&#45;&gt;Node3 -->
<g id="edge8" class="edge">
<title>Node9&#45;&gt;Node3</title>
<path fill="none" stroke="#9a32cd" stroke-dasharray="5,2" d="M509.1442,-62.9094C543.266,-69.8463 595.1858,-80.7302 640,-91.5 653.9676,-94.8567 668.9907,-98.7306 682.96,-102.446"/>
<polygon fill="#9a32cd" stroke="#9a32cd" points="509.6492,-59.4407 499.1536,-60.8878 508.2608,-66.3017 509.6492,-59.4407"/>
<text text-anchor="middle" x="601.5" y="-105.5" font-family="Helvetica,sans-Serif" font-size="10.00" fill="#000000"> carryLoadCycles</text>
<text text-anchor="middle" x="601.5" y="-94.5" font-family="Helvetica,sans-Serif" font-size="10.00" fill="#000000">runLoadCycles</text>
</g>
<!-- Node10 -->
<g id="node10" class="node">
<title>Node10</title>
<g id="a_node10"><a xlink:title=" ">
<polygon fill="#ffffff" stroke="#bfbfbf" points="835,-44 835,-63 975,-63 975,-44 835,-44"/>
<text text-anchor="middle" x="905" y="-51" font-family="Helvetica,sans-Serif" font-size="10.00" fill="#000000">std::unique_ptr&lt; cptime_t[]&gt;</text>
</a>
</g>
</g>
<!-- Node9&#45;&gt;Node10 -->
<g id="edge10" class="edge">
<title>Node9&#45;&gt;Node10</title>
<path fill="none" stroke="#9a32cd" stroke-dasharray="5,2" d="M509.5308,-55.3266C581.9915,-54.992 742.1736,-54.2521 834.9122,-53.8237"/>
<polygon fill="#9a32cd" stroke="#9a32cd" points="509.0698,-51.8286 499.0861,-55.3749 509.1022,-58.8286 509.0698,-51.8286"/>
<text text-anchor="middle" x="601.5" y="-57.5" font-family="Helvetica,sans-Serif" font-size="10.00" fill="#000000"> ptr</text>
</g>
<!-- Node10&#45;&gt;Node1 -->
<g id="edge9" class="edge">
<title>Node10&#45;&gt;Node1</title>
<path fill="none" stroke="#9a32cd" stroke-dasharray="5,2" d="M985.2143,-61.025C1029.672,-65.3117 1085.9262,-70.9264 1136,-76.5 1156.7922,-78.8143 1179.4295,-81.5316 1199.9005,-84.0634"/>
<polygon fill="#9a32cd" stroke="#9a32cd" points="985.3374,-57.5208 975.0484,-60.0481 984.6677,-64.4887 985.3374,-57.5208"/>
<text text-anchor="middle" x="1064.5" y="-79.5" font-family="Helvetica,sans-Serif" font-size="10.00" fill="#000000"> sum</text>
</g>
<!-- Node11 -->
<g id="node11" class="node">
<title>Node11</title>
<g id="a_node11"><a xlink:href="namespacesys_1_1io.html#namespacesys_1_1io" target="_top" xlink:title=" ">
<polygon fill="#ffffff" stroke="#000000" points="1021,-.5 1021,-30.5 1108,-30.5 1108,-.5 1021,-.5"/>
<text text-anchor="start" x="1029" y="-18.5" font-family="Helvetica,sans-Serif" font-size="10.00" fill="#000000">sys::io::file&lt; io::</text>
<text text-anchor="middle" x="1064.5" y="-7.5" font-family="Helvetica,sans-Serif" font-size="10.00" fill="#000000">link &gt;</text>
</a>
</g>
</g>
<!-- Node11&#45;&gt;Node1 -->
<g id="edge12" class="edge">
<title>Node11&#45;&gt;Node1</title>
<path fill="none" stroke="#9a32cd" stroke-dasharray="5,2" d="M1118.3484,-17.2661C1138.8489,-19.3589 1162.0598,-23.496 1182,-31.5 1208.5941,-42.1749 1234.5569,-63.1207 1250.4138,-77.4612"/>
<polygon fill="#9a32cd" stroke="#9a32cd" points="1118.4878,-13.7648 1108.2187,-16.3716 1117.872,-20.7377 1118.4878,-13.7648"/>
<text text-anchor="middle" x="1168" y="-45.5" font-family="Helvetica,sans-Serif" font-size="10.00" fill="#000000"> fin</text>
<text text-anchor="middle" x="1168" y="-34.5" font-family="Helvetica,sans-Serif" font-size="10.00" fill="#000000">fout</text>
</g>
</g>
</svg>
