<?xml version="1.0" encoding="UTF-8" standalone="no"?>
<!DOCTYPE svg PUBLIC "-//W3C//DTD SVG 1.1//EN"
 "http://www.w3.org/Graphics/SVG/1.1/DTD/svg11.dtd">
<!-- Generated by graphviz version 2.42.2 ()
 -->
<!-- Title: anonymous_namespace{libloadplay.cpp}::Emulator Pages: 1 -->
<svg width="1203pt" height="199pt"
 viewBox="0.00 0.00 1203.00 199.00" xmlns="http://www.w3.org/2000/svg" xmlns:xlink="http://www.w3.org/1999/xlink">
<g id="graph0" class="graph" transform="scale(1 1) rotate(0) translate(4 195)">
<title>anonymous_namespace{libloadplay.cpp}::Emulator</title>
<polygon fill="white" stroke="transparent" points="-4,4 -4,-195 1199,-195 1199,4 -4,4"/>
<!-- Node1 -->
<g id="node1" class="node">
<title>Node1</title>
<g id="a_node1"><a xlink:title="Instances of this class represent an emulator session.">
<polygon fill="#bfbfbf" stroke="black" points="1063,-68.5 1063,-98.5 1195,-98.5 1195,-68.5 1063,-68.5"/>
<text text-anchor="start" x="1071" y="-86.5" font-family="Helvetica,sans-Serif" font-size="10.00">anonymous_namespace</text>
<text text-anchor="middle" x="1129" y="-75.5" font-family="Helvetica,sans-Serif" font-size="10.00">{libloadplay.cpp}::Emulator</text>
</a>
</g>
</g>
<!-- Node2 -->
<g id="node2" class="node">
<title>Node2</title>
<g id="a_node2"><a xlink:title=" ">
<polygon fill="white" stroke="#bfbfbf" points="856,-126 856,-167 999,-167 999,-126 856,-126"/>
<text text-anchor="start" x="864" y="-155" font-family="Helvetica,sans-Serif" font-size="10.00">std::unique_ptr&lt; anonymous</text>
<text text-anchor="start" x="864" y="-144" font-family="Helvetica,sans-Serif" font-size="10.00">_namespace{libloadplay.cpp}</text>
<text text-anchor="middle" x="927.5" y="-133" font-family="Helvetica,sans-Serif" font-size="10.00">::Emulator::Core[]&gt;</text>
</a>
</g>
</g>
<!-- Node2&#45;&gt;Node1 -->
<g id="edge1" class="edge">
<title>Node2&#45;&gt;Node1</title>
<path fill="none" stroke="#9a32cd" stroke-dasharray="5,2" d="M1008.09,-122.98C1020.46,-119.21 1033.09,-115.3 1045,-111.5 1057.75,-107.44 1071.54,-102.86 1084.15,-98.6"/>
<polygon fill="#9a32cd" stroke="#9a32cd" points="1006.78,-119.72 998.23,-125.97 1008.82,-126.41 1006.78,-119.72"/>
<text text-anchor="middle" x="1031" y="-121.5" font-family="Helvetica,sans-Serif" font-size="10.00"> cores</text>
</g>
<!-- Node3 -->
<g id="node3" class="node">
<title>Node3</title>
<g id="a_node3"><a xlink:href="classanonymous__namespace_02libloadplay_8cpp_03_1_1Emulator.html#structanonymous__namespace_02libloadplay_8cpp_03_1_1Emulator_1_1Core" target="_top" xlink:title="Per core information.">
<polygon fill="white" stroke="black" points="618,-131.5 618,-161.5 777,-161.5 777,-131.5 618,-131.5"/>
<text text-anchor="start" x="626" y="-149.5" font-family="Helvetica,sans-Serif" font-size="10.00">anonymous_namespace</text>
<text text-anchor="middle" x="697.5" y="-138.5" font-family="Helvetica,sans-Serif" font-size="10.00">{libloadplay.cpp}::Emulator::Core</text>
</a>
</g>
</g>
<!-- Node3&#45;&gt;Node2 -->
<g id="edge2" class="edge">
<title>Node3&#45;&gt;Node2</title>
<path fill="none" stroke="#9a32cd" stroke-dasharray="5,2" d="M787.56,-146.5C810.17,-146.5 834.16,-146.5 855.73,-146.5"/>
<polygon fill="#9a32cd" stroke="#9a32cd" points="787.28,-143 777.28,-146.5 787.28,-150 787.28,-143"/>
<text text-anchor="middle" x="816.5" y="-149.5" font-family="Helvetica,sans-Serif" font-size="10.00"> ptr</text>
</g>
<!-- Node4 -->
<g id="node4" class="node">
<title>Node4</title>
<g id="a_node4"><a xlink:title=" ">
<polygon fill="white" stroke="#bfbfbf" points="450,-155 450,-174 494,-174 494,-155 450,-155"/>
<text text-anchor="middle" x="472" y="-162" font-family="Helvetica,sans-Serif" font-size="10.00">mhz_t</text>
</a>
</g>
</g>
<!-- Node4&#45;&gt;Node3 -->
<g id="edge3" class="edge">
<title>Node4&#45;&gt;Node3</title>
<path fill="none" stroke="#9a32cd" stroke-dasharray="5,2" d="M504.08,-162C533.43,-159.63 578.67,-155.99 617.91,-152.83"/>
<polygon fill="#9a32cd" stroke="#9a32cd" points="503.71,-158.52 494.03,-162.81 504.28,-165.49 503.71,-158.52"/>
<text text-anchor="middle" x="581.5" y="-170.5" font-family="Helvetica,sans-Serif" font-size="10.00"> runFreq</text>
<text text-anchor="middle" x="581.5" y="-159.5" font-family="Helvetica,sans-Serif" font-size="10.00">recFreq</text>
</g>
<!-- Node5 -->
<g id="node5" class="node">
<title>Node5</title>
<g id="a_node5"><a xlink:href="classanonymous__namespace_02libloadplay_8cpp_03_1_1SysctlValue.html" target="_top" xlink:title="Instances of this class represents a specific sysctl value.">
<polygon fill="white" stroke="black" points="399,-94.5 399,-124.5 545,-124.5 545,-94.5 399,-94.5"/>
<text text-anchor="start" x="407" y="-112.5" font-family="Helvetica,sans-Serif" font-size="10.00">anonymous_namespace</text>
<text text-anchor="middle" x="472" y="-101.5" font-family="Helvetica,sans-Serif" font-size="10.00">{libloadplay.cpp}::SysctlValue</text>
</a>
</g>
</g>
<!-- Node5&#45;&gt;Node1 -->
<g id="edge11" class="edge">
<title>Node5&#45;&gt;Node1</title>
<path fill="none" stroke="#9a32cd" stroke-dasharray="5,2" d="M555.33,-106.23C687.12,-101 942.82,-90.85 1062.83,-86.09"/>
<polygon fill="#9a32cd" stroke="#9a32cd" points="555.14,-102.74 545.28,-106.63 555.42,-109.73 555.14,-102.74"/>
<text text-anchor="middle" x="816.5" y="-99.5" font-family="Helvetica,sans-Serif" font-size="10.00"> cp_times</text>
</g>
<!-- Node5&#45;&gt;Node3 -->
<g id="edge4" class="edge">
<title>Node5&#45;&gt;Node3</title>
<path fill="none" stroke="#9a32cd" stroke-dasharray="5,2" d="M555.19,-123.11C575.69,-126.5 597.61,-130.13 617.93,-133.49"/>
<polygon fill="#9a32cd" stroke="#9a32cd" points="555.69,-119.64 545.26,-121.46 554.55,-126.55 555.69,-119.64"/>
<text text-anchor="middle" x="581.5" y="-132.5" font-family="Helvetica,sans-Serif" font-size="10.00"> freqCtl</text>
</g>
<!-- Node6 -->
<g id="node6" class="node">
<title>Node6</title>
<g id="a_node6"><a xlink:href="classanonymous__namespace_02libloadplay_8cpp_03_1_1Callback.html" target="_top" xlink:title=" ">
<polygon fill="white" stroke="black" points="132,-138.5 132,-190.5 334,-190.5 334,-138.5 132,-138.5"/>
<text text-anchor="start" x="140" y="-178.5" font-family="Helvetica,sans-Serif" font-size="10.00">anonymous_namespace</text>
<text text-anchor="start" x="140" y="-167.5" font-family="Helvetica,sans-Serif" font-size="10.00">{libloadplay.cpp}::Callback</text>
<text text-anchor="start" x="140" y="-156.5" font-family="Helvetica,sans-Serif" font-size="10.00">&lt; anonymous_namespace{libloadplay.cpp}</text>
<text text-anchor="middle" x="233" y="-145.5" font-family="Helvetica,sans-Serif" font-size="10.00">::SysctlValue &amp; &gt;</text>
</a>
</g>
</g>
<!-- Node6&#45;&gt;Node5 -->
<g id="edge5" class="edge">
<title>Node6&#45;&gt;Node5</title>
<path fill="none" stroke="#9a32cd" stroke-dasharray="5,2" d="M343.93,-138.99C365.25,-134.04 386.95,-129.01 406.23,-124.53"/>
<polygon fill="#9a32cd" stroke="#9a32cd" points="343.12,-135.58 334.17,-141.25 344.7,-142.4 343.12,-135.58"/>
<text text-anchor="middle" x="366.5" y="-139.5" font-family="Helvetica,sans-Serif" font-size="10.00"> onSet</text>
</g>
<!-- Node7 -->
<g id="node7" class="node">
<title>Node7</title>
<g id="a_node7"><a xlink:title="STL class.">
<polygon fill="white" stroke="#bfbfbf" points="179,-100 179,-119 287,-119 287,-100 179,-100"/>
<text text-anchor="middle" x="233" y="-107" font-family="Helvetica,sans-Serif" font-size="10.00">std::recursive_mutex</text>
</a>
</g>
</g>
<!-- Node7&#45;&gt;Node5 -->
<g id="edge6" class="edge">
<title>Node7&#45;&gt;Node5</title>
<path fill="none" stroke="#9a32cd" stroke-dasharray="5,2" d="M297.49,-109.5C328.67,-109.5 366.38,-109.5 398.67,-109.5"/>
<polygon fill="#9a32cd" stroke="#9a32cd" points="297.19,-106 287.19,-109.5 297.19,-113 297.19,-106"/>
<text text-anchor="middle" x="366.5" y="-112.5" font-family="Helvetica,sans-Serif" font-size="10.00"> mtx</text>
</g>
<!-- Node8 -->
<g id="node8" class="node">
<title>Node8</title>
<g id="a_node8"><a xlink:title="STL class.">
<polygon fill="white" stroke="#bfbfbf" points="203,-62 203,-81 263,-81 263,-62 203,-62"/>
<text text-anchor="middle" x="233" y="-69" font-family="Helvetica,sans-Serif" font-size="10.00">std::string</text>
</a>
</g>
</g>
<!-- Node8&#45;&gt;Node5 -->
<g id="edge7" class="edge">
<title>Node8&#45;&gt;Node5</title>
<path fill="none" stroke="#9a32cd" stroke-dasharray="5,2" d="M272.97,-77.49C302.61,-82.07 344.39,-88.58 381,-94.5 386.79,-95.43 392.78,-96.41 398.8,-97.4"/>
<polygon fill="#9a32cd" stroke="#9a32cd" points="273.44,-74.02 263.02,-75.95 272.37,-80.94 273.44,-74.02"/>
<text text-anchor="middle" x="366.5" y="-97.5" font-family="Helvetica,sans-Serif" font-size="10.00"> value</text>
</g>
<!-- Node9 -->
<g id="node9" class="node">
<title>Node9</title>
<g id="a_node9"><a xlink:title="STL class.">
<polygon fill="white" stroke="#bfbfbf" points="0,-56.5 0,-86.5 95,-86.5 95,-56.5 0,-56.5"/>
<text text-anchor="start" x="8" y="-74.5" font-family="Helvetica,sans-Serif" font-size="10.00">std::basic_string&lt;</text>
<text text-anchor="middle" x="47.5" y="-63.5" font-family="Helvetica,sans-Serif" font-size="10.00"> char &gt;</text>
</a>
</g>
</g>
<!-- Node9&#45;&gt;Node8 -->
<g id="edge8" class="edge">
<title>Node9&#45;&gt;Node8</title>
<path fill="none" stroke="midnightblue" d="M105.49,-71.5C137.74,-71.5 176.71,-71.5 202.8,-71.5"/>
<polygon fill="midnightblue" stroke="midnightblue" points="105.28,-68 95.28,-71.5 105.28,-75 105.28,-68"/>
</g>
<!-- Node10 -->
<g id="node10" class="node">
<title>Node10</title>
<g id="a_node10"><a xlink:title=" ">
<polygon fill="white" stroke="#bfbfbf" points="857.5,-50 857.5,-69 997.5,-69 997.5,-50 857.5,-50"/>
<text text-anchor="middle" x="927.5" y="-57" font-family="Helvetica,sans-Serif" font-size="10.00">std::unique_ptr&lt; cptime_t[]&gt;</text>
</a>
</g>
</g>
<!-- Node10&#45;&gt;Node1 -->
<g id="edge9" class="edge">
<title>Node10&#45;&gt;Node1</title>
<path fill="none" stroke="#9a32cd" stroke-dasharray="5,2" d="M1007.51,-68.09C1020.05,-69.52 1032.89,-71.02 1045,-72.5 1050.77,-73.2 1056.77,-73.96 1062.77,-74.73"/>
<polygon fill="#9a32cd" stroke="#9a32cd" points="1007.85,-64.61 997.52,-66.96 1007.07,-71.57 1007.85,-64.61"/>
<text text-anchor="middle" x="1031" y="-75.5" font-family="Helvetica,sans-Serif" font-size="10.00"> sum</text>
</g>
<!-- Node11 -->
<g id="node11" class="node">
<title>Node11</title>
<g id="a_node11"><a xlink:title=" ">
<polygon fill="white" stroke="#bfbfbf" points="670.5,-50 670.5,-69 724.5,-69 724.5,-50 670.5,-50"/>
<text text-anchor="middle" x="697.5" y="-57" font-family="Helvetica,sans-Serif" font-size="10.00">cptime_t</text>
</a>
</g>
</g>
<!-- Node11&#45;&gt;Node10 -->
<g id="edge10" class="edge">
<title>Node11&#45;&gt;Node10</title>
<path fill="none" stroke="#9a32cd" stroke-dasharray="5,2" d="M734.72,-59.5C767.62,-59.5 817.04,-59.5 857.47,-59.5"/>
<polygon fill="#9a32cd" stroke="#9a32cd" points="734.65,-56 724.65,-59.5 734.65,-63 734.65,-56"/>
<text text-anchor="middle" x="816.5" y="-62.5" font-family="Helvetica,sans-Serif" font-size="10.00"> ptr</text>
</g>
<!-- Node12 -->
<g id="node12" class="node">
<title>Node12</title>
<g id="a_node12"><a xlink:href="namespacesys_1_1io.html#namespacesys_1_1io" target="_top" xlink:title=" ">
<polygon fill="white" stroke="black" points="884,-0.5 884,-30.5 971,-30.5 971,-0.5 884,-0.5"/>
<text text-anchor="start" x="892" y="-18.5" font-family="Helvetica,sans-Serif" font-size="10.00">sys::io::file&lt; io::</text>
<text text-anchor="middle" x="927.5" y="-7.5" font-family="Helvetica,sans-Serif" font-size="10.00">link &gt;</text>
</a>
</g>
</g>
<!-- Node12&#45;&gt;Node1 -->
<g id="edge12" class="edge">
<title>Node12&#45;&gt;Node1</title>
<path fill="none" stroke="#9a32cd" stroke-dasharray="5,2" d="M981.18,-25.66C1001.41,-30.21 1024.55,-36.21 1045,-43.5 1064.13,-50.32 1084.71,-60.22 1100.59,-68.46"/>
<polygon fill="#9a32cd" stroke="#9a32cd" points="981.71,-22.19 971.19,-23.48 980.22,-29.03 981.71,-22.19"/>
<text text-anchor="middle" x="1031" y="-57.5" font-family="Helvetica,sans-Serif" font-size="10.00"> fin</text>
<text text-anchor="middle" x="1031" y="-46.5" font-family="Helvetica,sans-Serif" font-size="10.00">fout</text>
</g>
</g>
</svg>
