<?xml version="1.0" encoding="UTF-8" standalone="no"?>
<!DOCTYPE svg PUBLIC "-//W3C//DTD SVG 1.1//EN"
 "http://www.w3.org/Graphics/SVG/1.1/DTD/svg11.dtd">
<!-- Generated by graphviz version 2.42.2 ()
 -->
<!-- Title: anonymous_namespace{libloadplay.cpp}::Emulator Pages: 1 -->
<svg width="1333pt" height="232pt"
 viewBox="0.00 0.00 1333.00 232.00" xmlns="http://www.w3.org/2000/svg" xmlns:xlink="http://www.w3.org/1999/xlink">
<g id="graph0" class="graph" transform="scale(1 1) rotate(0) translate(4 228)">
<title>anonymous_namespace{libloadplay.cpp}::Emulator</title>
<polygon fill="white" stroke="transparent" points="-4,4 -4,-228 1329,-228 1329,4 -4,4"/>
<!-- Node1 -->
<g id="node1" class="node">
<title>Node1</title>
<g id="a_node1"><a xlink:title="Instances of this class represent an emulator session.">
<polygon fill="#bfbfbf" stroke="black" points="1194,-77.5 1194,-107.5 1325,-107.5 1325,-77.5 1194,-77.5"/>
<text text-anchor="start" x="1202" y="-95.5" font-family="Helvetica" font-size="10.00">anonymous_namespace</text>
<text text-anchor="middle" x="1259.5" y="-84.5" font-family="Helvetica" font-size="10.00">{libloadplay.cpp}::Emulator</text>
</a>
</g>
</g>
<!-- Node2 -->
<g id="node2" class="node">
<title>Node2</title>
<g id="a_node2"><a xlink:title=" ">
<polygon fill="white" stroke="#bfbfbf" points="988,-97 988,-138 1130,-138 1130,-97 988,-97"/>
<text text-anchor="start" x="996" y="-126" font-family="Helvetica" font-size="10.00">std::unique_ptr&lt; anonymous</text>
<text text-anchor="start" x="996" y="-115" font-family="Helvetica" font-size="10.00">_namespace{libloadplay.cpp}</text>
<text text-anchor="middle" x="1059" y="-104" font-family="Helvetica" font-size="10.00">::Emulator::Core[]&gt;</text>
</a>
</g>
</g>
<!-- Node2&#45;&gt;Node1 -->
<g id="edge1" class="edge">
<title>Node2&#45;&gt;Node1</title>
<path fill="none" stroke="#9a32cd" stroke-dasharray="5,2" d="M1140.6,-107.35C1158.36,-105.11 1176.94,-102.77 1193.97,-100.63"/>
<polygon fill="#9a32cd" stroke="#9a32cd" points="1139.75,-103.93 1130.26,-108.65 1140.62,-110.87 1139.75,-103.93"/>
<text text-anchor="middle" x="1162" y="-108.5" font-family="Helvetica" font-size="10.00"> cores</text>
</g>
<!-- Node3 -->
<g id="node3" class="node">
<title>Node3</title>
<g id="a_node3"><a xlink:href="classanonymous__namespace_02libloadplay_8cpp_03_1_1Emulator.html#structanonymous__namespace_02libloadplay_8cpp_03_1_1Emulator_1_1Core" target="_top" xlink:title="Per core information.">
<polygon fill="white" stroke="black" points="654,-102.5 654,-132.5 812,-132.5 812,-102.5 654,-102.5"/>
<text text-anchor="start" x="662" y="-120.5" font-family="Helvetica" font-size="10.00">anonymous_namespace</text>
<text text-anchor="middle" x="733" y="-109.5" font-family="Helvetica" font-size="10.00">{libloadplay.cpp}::Emulator::Core</text>
</a>
</g>
</g>
<!-- Node3&#45;&gt;Node2 -->
<g id="edge2" class="edge">
<title>Node3&#45;&gt;Node2</title>
<path fill="none" stroke="#9a32cd" stroke-dasharray="5,2" d="M822.25,-117.5C874.31,-117.5 939.29,-117.5 987.83,-117.5"/>
<polygon fill="#9a32cd" stroke="#9a32cd" points="822.02,-114 812.02,-117.5 822.02,-121 822.02,-114"/>
<text text-anchor="middle" x="900" y="-120.5" font-family="Helvetica" font-size="10.00"> ptr</text>
</g>
<!-- Node4 -->
<g id="node4" class="node">
<title>Node4</title>
<g id="a_node4"><a xlink:title=" ">
<polygon fill="white" stroke="#bfbfbf" points="448,-108 448,-127 492,-127 492,-108 448,-108"/>
<text text-anchor="middle" x="470" y="-115" font-family="Helvetica" font-size="10.00">mhz_t</text>
</a>
</g>
</g>
<!-- Node4&#45;&gt;Node3 -->
<g id="edge3" class="edge">
<title>Node4&#45;&gt;Node3</title>
<path fill="none" stroke="#9a32cd" stroke-dasharray="5,2" d="M502.59,-117.5C539.85,-117.5 603.12,-117.5 653.79,-117.5"/>
<polygon fill="#9a32cd" stroke="#9a32cd" points="502.36,-114 492.36,-117.5 502.36,-121 502.36,-114"/>
<text text-anchor="middle" x="598" y="-131.5" font-family="Helvetica" font-size="10.00"> runFreq</text>
<text text-anchor="middle" x="598" y="-120.5" font-family="Helvetica" font-size="10.00">recFreq</text>
</g>
<!-- Node5 -->
<g id="node5" class="node">
<title>Node5</title>
<g id="a_node5"><a xlink:href="classanonymous__namespace_02libloadplay_8cpp_03_1_1SysctlValue.html" target="_top" xlink:title="Instances of this class represents a specific sysctl value.">
<polygon fill="white" stroke="black" points="398,-160.5 398,-190.5 542,-190.5 542,-160.5 398,-160.5"/>
<text text-anchor="start" x="406" y="-178.5" font-family="Helvetica" font-size="10.00">anonymous_namespace</text>
<text text-anchor="middle" x="470" y="-167.5" font-family="Helvetica" font-size="10.00">{libloadplay.cpp}::SysctlValue</text>
</a>
</g>
</g>
<!-- Node5&#45;&gt;Node1 -->
<g id="edge11" class="edge">
<title>Node5&#45;&gt;Node1</title>
<path fill="none" stroke="#9a32cd" stroke-dasharray="5,2" d="M552.66,-181.47C678.47,-188.57 926.45,-194.19 1130,-147.5 1166.66,-139.09 1206.04,-120.7 1231.4,-107.5"/>
<polygon fill="#9a32cd" stroke="#9a32cd" points="552.53,-177.96 542.35,-180.87 552.13,-184.94 552.53,-177.96"/>
<text text-anchor="middle" x="900" y="-186.5" font-family="Helvetica" font-size="10.00"> cp_times</text>
</g>
<!-- Node5&#45;&gt;Node3 -->
<g id="edge4" class="edge">
<title>Node5&#45;&gt;Node3</title>
<path fill="none" stroke="#9a32cd" stroke-dasharray="5,2" d="M552.23,-158.71C578.94,-153.07 608.77,-146.65 636,-140.5 647.12,-137.99 658.94,-135.23 670.34,-132.52"/>
<polygon fill="#9a32cd" stroke="#9a32cd" points="551.22,-155.35 542.15,-160.83 552.66,-162.2 551.22,-155.35"/>
<text text-anchor="middle" x="598" y="-158.5" font-family="Helvetica" font-size="10.00"> freqCtl</text>
</g>
<!-- Node6 -->
<g id="node6" class="node">
<title>Node6</title>
<g id="a_node6"><a xlink:href="classanonymous__namespace_02libloadplay_8cpp_03_1_1Callback.html" target="_top" xlink:title=" ">
<polygon fill="white" stroke="black" points="132,-171.5 132,-223.5 333,-223.5 333,-171.5 132,-171.5"/>
<text text-anchor="start" x="140" y="-211.5" font-family="Helvetica" font-size="10.00">anonymous_namespace</text>
<text text-anchor="start" x="140" y="-200.5" font-family="Helvetica" font-size="10.00">{libloadplay.cpp}::Callback</text>
<text text-anchor="start" x="140" y="-189.5" font-family="Helvetica" font-size="10.00">&lt; anonymous_namespace{libloadplay.cpp}</text>
<text text-anchor="middle" x="232.5" y="-178.5" font-family="Helvetica" font-size="10.00">::SysctlValue &amp; &gt;</text>
</a>
</g>
</g>
<!-- Node6&#45;&gt;Node5 -->
<g id="edge5" class="edge">
<title>Node6&#45;&gt;Node5</title>
<path fill="none" stroke="#9a32cd" stroke-dasharray="5,2" d="M343.01,-187.27C361.57,-185.54 380.42,-183.78 397.67,-182.16"/>
<polygon fill="#9a32cd" stroke="#9a32cd" points="342.66,-183.79 333.03,-188.2 343.31,-190.76 342.66,-183.79"/>
<text text-anchor="middle" x="365.5" y="-189.5" font-family="Helvetica" font-size="10.00"> onSet</text>
</g>
<!-- Node7 -->
<g id="node7" class="node">
<title>Node7</title>
<g id="a_node7"><a xlink:title="STL class.">
<polygon fill="white" stroke="#bfbfbf" points="202.5,-133 202.5,-152 262.5,-152 262.5,-133 202.5,-133"/>
<text text-anchor="middle" x="232.5" y="-140" font-family="Helvetica" font-size="10.00">std::string</text>
</a>
</g>
</g>
<!-- Node7&#45;&gt;Node5 -->
<g id="edge6" class="edge">
<title>Node7&#45;&gt;Node5</title>
<path fill="none" stroke="#9a32cd" stroke-dasharray="5,2" d="M272.85,-148.01C306.81,-152.77 356.71,-159.77 397.68,-165.51"/>
<polygon fill="#9a32cd" stroke="#9a32cd" points="273.24,-144.53 262.85,-146.61 272.27,-151.47 273.24,-144.53"/>
<text text-anchor="middle" x="365.5" y="-165.5" font-family="Helvetica" font-size="10.00"> value</text>
</g>
<!-- Node8 -->
<g id="node8" class="node">
<title>Node8</title>
<g id="a_node8"><a xlink:title="STL class.">
<polygon fill="white" stroke="#bfbfbf" points="0,-127.5 0,-157.5 95,-157.5 95,-127.5 0,-127.5"/>
<text text-anchor="start" x="8" y="-145.5" font-family="Helvetica" font-size="10.00">std::basic_string&lt;</text>
<text text-anchor="middle" x="47.5" y="-134.5" font-family="Helvetica" font-size="10.00"> char &gt;</text>
</a>
</g>
</g>
<!-- Node8&#45;&gt;Node7 -->
<g id="edge7" class="edge">
<title>Node8&#45;&gt;Node7</title>
<path fill="none" stroke="midnightblue" d="M105.33,-142.5C137.5,-142.5 176.36,-142.5 202.38,-142.5"/>
<polygon fill="midnightblue" stroke="midnightblue" points="105.15,-139 95.15,-142.5 105.15,-146 105.15,-139"/>
</g>
<!-- Node9 -->
<g id="node9" class="node">
<title>Node9</title>
<g id="a_node9"><a xlink:title=" ">
<polygon fill="white" stroke="#bfbfbf" points="443,-46 443,-65 497,-65 497,-46 443,-46"/>
<text text-anchor="middle" x="470" y="-53" font-family="Helvetica" font-size="10.00">cptime_t</text>
</a>
</g>
</g>
<!-- Node9&#45;&gt;Node3 -->
<g id="edge8" class="edge">
<title>Node9&#45;&gt;Node3</title>
<path fill="none" stroke="#9a32cd" stroke-dasharray="5,2" d="M506.9,-62.8C540.4,-69.73 591.73,-80.68 636,-91.5 649.75,-94.86 664.55,-98.74 678.3,-102.45"/>
<polygon fill="#9a32cd" stroke="#9a32cd" points="507.6,-59.37 497.1,-60.78 506.19,-66.22 507.6,-59.37"/>
<text text-anchor="middle" x="598" y="-105.5" font-family="Helvetica" font-size="10.00"> carryLoadCycles</text>
<text text-anchor="middle" x="598" y="-94.5" font-family="Helvetica" font-size="10.00">runLoadCycles</text>
</g>
<!-- Node10 -->
<g id="node10" class="node">
<title>Node10</title>
<g id="a_node10"><a xlink:title=" ">
<polygon fill="white" stroke="#bfbfbf" points="830,-44 830,-63 970,-63 970,-44 830,-44"/>
<text text-anchor="middle" x="900" y="-51" font-family="Helvetica" font-size="10.00">std::unique_ptr&lt; cptime_t[]&gt;</text>
</a>
</g>
</g>
<!-- Node9&#45;&gt;Node10 -->
<g id="edge10" class="edge">
<title>Node9&#45;&gt;Node10</title>
<path fill="none" stroke="#9a32cd" stroke-dasharray="5,2" d="M507.4,-55.33C578.71,-55 737.89,-54.25 829.84,-53.82"/>
<polygon fill="#9a32cd" stroke="#9a32cd" points="507.11,-51.83 497.13,-55.38 507.15,-58.83 507.11,-51.83"/>
<text text-anchor="middle" x="598" y="-57.5" font-family="Helvetica" font-size="10.00"> ptr</text>
</g>
<!-- Node10&#45;&gt;Node1 -->
<g id="edge9" class="edge">
<title>Node10&#45;&gt;Node1</title>
<path fill="none" stroke="#9a32cd" stroke-dasharray="5,2" d="M980.28,-60.99C1024.39,-65.28 1080.27,-70.91 1130,-76.5 1150.78,-78.84 1173.42,-81.59 1193.82,-84.14"/>
<polygon fill="#9a32cd" stroke="#9a32cd" points="980.48,-57.5 970.19,-60.02 979.81,-64.47 980.48,-57.5"/>
<text text-anchor="middle" x="1059" y="-79.5" font-family="Helvetica" font-size="10.00"> sum</text>
</g>
<!-- Node11 -->
<g id="node11" class="node">
<title>Node11</title>
<g id="a_node11"><a xlink:href="namespacesys_1_1io.html#namespacesys_1_1io" target="_top" xlink:title=" ">
<polygon fill="white" stroke="black" points="1015.5,-0.5 1015.5,-30.5 1102.5,-30.5 1102.5,-0.5 1015.5,-0.5"/>
<text text-anchor="start" x="1023.5" y="-18.5" font-family="Helvetica" font-size="10.00">sys::io::file&lt; io::</text>
<text text-anchor="middle" x="1059" y="-7.5" font-family="Helvetica" font-size="10.00">link &gt;</text>
</a>
</g>
</g>
<!-- Node11&#45;&gt;Node1 -->
<g id="edge12" class="edge">
<title>Node11&#45;&gt;Node1</title>
<path fill="none" stroke="#9a32cd" stroke-dasharray="5,2" d="M1112.7,-17.21C1133.07,-19.29 1156.19,-23.43 1176,-31.5 1202.23,-42.19 1227.7,-63.13 1243.24,-77.47"/>
<polygon fill="#9a32cd" stroke="#9a32cd" points="1112.91,-13.72 1102.65,-16.33 1112.3,-20.69 1112.91,-13.72"/>
<text text-anchor="middle" x="1162" y="-45.5" font-family="Helvetica" font-size="10.00"> fin</text>
<text text-anchor="middle" x="1162" y="-34.5" font-family="Helvetica" font-size="10.00">fout</text>
</g>
</g>
</svg>
