<?xml version="1.0" encoding="UTF-8" standalone="no"?>
<!DOCTYPE svg PUBLIC "-//W3C//DTD SVG 1.1//EN"
 "http://www.w3.org/Graphics/SVG/1.1/DTD/svg11.dtd">
<!-- Generated by graphviz version 2.42.2 ()
 -->
<!-- Title: anonymous_namespace{libloadplay.cpp}::SysctlValue Pages: 1 -->
<svg width="553pt" height="143pt"
 viewBox="0.00 0.00 553.00 143.00" xmlns="http://www.w3.org/2000/svg" xmlns:xlink="http://www.w3.org/1999/xlink">
<g id="graph0" class="graph" transform="scale(1 1) rotate(0) translate(4 139)">
<title>anonymous_namespace{libloadplay.cpp}::SysctlValue</title>
<polygon fill="white" stroke="transparent" points="-4,4 -4,-139 549,-139 549,4 -4,4"/>
<!-- Node1 -->
<g id="node1" class="node">
<title>Node1</title>
<g id="a_node1"><a xlink:title="Instances of this class represents a specific sysctl value.">
<polygon fill="#bfbfbf" stroke="black" points="399,-38.5 399,-68.5 545,-68.5 545,-38.5 399,-38.5"/>
<text text-anchor="start" x="407" y="-56.5" font-family="Helvetica,sans-Serif" font-size="10.00">anonymous_namespace</text>
<text text-anchor="middle" x="472" y="-45.5" font-family="Helvetica,sans-Serif" font-size="10.00">{libloadplay.cpp}::SysctlValue</text>
</a>
</g>
</g>
<!-- Node2 -->
<g id="node2" class="node">
<title>Node2</title>
<g id="a_node2"><a xlink:href="classanonymous__namespace_02libloadplay_8cpp_03_1_1Callback.html" target="_top" xlink:title=" ">
<polygon fill="white" stroke="black" points="132,-82.5 132,-134.5 334,-134.5 334,-82.5 132,-82.5"/>
<text text-anchor="start" x="140" y="-122.5" font-family="Helvetica,sans-Serif" font-size="10.00">anonymous_namespace</text>
<text text-anchor="start" x="140" y="-111.5" font-family="Helvetica,sans-Serif" font-size="10.00">{libloadplay.cpp}::Callback</text>
<text text-anchor="start" x="140" y="-100.5" font-family="Helvetica,sans-Serif" font-size="10.00">&lt; anonymous_namespace{libloadplay.cpp}</text>
<text text-anchor="middle" x="233" y="-89.5" font-family="Helvetica,sans-Serif" font-size="10.00">::SysctlValue &amp; &gt;</text>
</a>
</g>
</g>
<!-- Node2&#45;&gt;Node1 -->
<g id="edge1" class="edge">
<title>Node2&#45;&gt;Node1</title>
<path fill="none" stroke="#9a32cd" stroke-dasharray="5,2" d="M343.93,-82.99C365.25,-78.04 386.95,-73.01 406.23,-68.53"/>
<polygon fill="#9a32cd" stroke="#9a32cd" points="343.12,-79.58 334.17,-85.25 344.7,-86.4 343.12,-79.58"/>
<text text-anchor="middle" x="366.5" y="-83.5" font-family="Helvetica,sans-Serif" font-size="10.00"> onSet</text>
</g>
<!-- Node3 -->
<g id="node3" class="node">
<title>Node3</title>
<g id="a_node3"><a xlink:title="STL class.">
<polygon fill="white" stroke="#bfbfbf" points="179,-44 179,-63 287,-63 287,-44 179,-44"/>
<text text-anchor="middle" x="233" y="-51" font-family="Helvetica,sans-Serif" font-size="10.00">std::recursive_mutex</text>
</a>
</g>
</g>
<!-- Node3&#45;&gt;Node1 -->
<g id="edge2" class="edge">
<title>Node3&#45;&gt;Node1</title>
<path fill="none" stroke="#9a32cd" stroke-dasharray="5,2" d="M297.49,-53.5C328.67,-53.5 366.38,-53.5 398.67,-53.5"/>
<polygon fill="#9a32cd" stroke="#9a32cd" points="297.19,-50 287.19,-53.5 297.19,-57 297.19,-50"/>
<text text-anchor="middle" x="366.5" y="-56.5" font-family="Helvetica,sans-Serif" font-size="10.00"> mtx</text>
</g>
<!-- Node4 -->
<g id="node4" class="node">
<title>Node4</title>
<g id="a_node4"><a xlink:title="STL class.">
<polygon fill="white" stroke="#bfbfbf" points="203,-6 203,-25 263,-25 263,-6 203,-6"/>
<text text-anchor="middle" x="233" y="-13" font-family="Helvetica,sans-Serif" font-size="10.00">std::string</text>
</a>
</g>
</g>
<!-- Node4&#45;&gt;Node1 -->
<g id="edge3" class="edge">
<title>Node4&#45;&gt;Node1</title>
<path fill="none" stroke="#9a32cd" stroke-dasharray="5,2" d="M272.97,-21.49C302.61,-26.07 344.39,-32.58 381,-38.5 386.79,-39.43 392.78,-40.41 398.8,-41.4"/>
<polygon fill="#9a32cd" stroke="#9a32cd" points="273.44,-18.02 263.02,-19.95 272.37,-24.94 273.44,-18.02"/>
<text text-anchor="middle" x="366.5" y="-41.5" font-family="Helvetica,sans-Serif" font-size="10.00"> value</text>
</g>
<!-- Node5 -->
<g id="node5" class="node">
<title>Node5</title>
<g id="a_node5"><a xlink:title="STL class.">
<polygon fill="white" stroke="#bfbfbf" points="0,-0.5 0,-30.5 95,-30.5 95,-0.5 0,-0.5"/>
<text text-anchor="start" x="8" y="-18.5" font-family="Helvetica,sans-Serif" font-size="10.00">std::basic_string&lt;</text>
<text text-anchor="middle" x="47.5" y="-7.5" font-family="Helvetica,sans-Serif" font-size="10.00"> char &gt;</text>
</a>
</g>
</g>
<!-- Node5&#45;&gt;Node4 -->
<g id="edge4" class="edge">
<title>Node5&#45;&gt;Node4</title>
<path fill="none" stroke="midnightblue" d="M105.49,-15.5C137.74,-15.5 176.71,-15.5 202.8,-15.5"/>
<polygon fill="midnightblue" stroke="midnightblue" points="105.28,-12 95.28,-15.5 105.28,-19 105.28,-12"/>
</g>
</g>
</svg>
