<?xml version="1.0" encoding="UTF-8" standalone="no"?>
<!DOCTYPE svg PUBLIC "-//W3C//DTD SVG 1.1//EN"
 "http://www.w3.org/Graphics/SVG/1.1/DTD/svg11.dtd">
<!-- Generated by graphviz version 2.40.1 (20161225.0304)
 -->
<!-- Title: anonymous_namespace{loadplay.cpp}::Emulator Pages: 1 -->
<svg width="1297pt" height="198pt"
 viewBox="0.00 0.00 1297.00 197.50" xmlns="http://www.w3.org/2000/svg" xmlns:xlink="http://www.w3.org/1999/xlink">
<g id="graph0" class="graph" transform="scale(1 1) rotate(0) translate(4 193.5)">
<title>anonymous_namespace{loadplay.cpp}::Emulator</title>
<polygon fill="#ffffff" stroke="transparent" points="-4,4 -4,-193.5 1293,-193.5 1293,4 -4,4"/>
<!-- Node1 -->
<g id="node1" class="node">
<title>Node1</title>
<g id="a_node1"><a xlink:title="Instances of this class represent an emulator session.">
<polygon fill="#bfbfbf" stroke="#000000" points="1167,-83.5 1167,-113.5 1289,-113.5 1289,-83.5 1167,-83.5"/>
<text text-anchor="start" x="1175" y="-101.5" font-family="Helvetica,sans-Serif" font-size="10.00" fill="#000000">anonymous_namespace</text>
<text text-anchor="middle" x="1228" y="-90.5" font-family="Helvetica,sans-Serif" font-size="10.00" fill="#000000">{loadplay.cpp}::Emulator</text>
</a>
</g>
</g>
<!-- Node2 -->
<g id="node2" class="node">
<title>Node2</title>
<g id="a_node2"><a xlink:href="classanonymous__namespace_02loadplay_8cpp_03_1_1SysctlValue.html" target="_top" xlink:title="Instances of this class represents a specific sysctl value.">
<polygon fill="#ffffff" stroke="#000000" points="389,-28.5 389,-58.5 525,-58.5 525,-28.5 389,-28.5"/>
<text text-anchor="start" x="397" y="-46.5" font-family="Helvetica,sans-Serif" font-size="10.00" fill="#000000">anonymous_namespace</text>
<text text-anchor="middle" x="457" y="-35.5" font-family="Helvetica,sans-Serif" font-size="10.00" fill="#000000">{loadplay.cpp}::SysctlValue</text>
</a>
</g>
</g>
<!-- Node2&#45;&gt;Node1 -->
<g id="edge1" class="edge">
<title>Node2&#45;&gt;Node1</title>
<path fill="none" stroke="#9a32cd" stroke-dasharray="5,2" d="M535.6438,-41.5808C657.7138,-39.7167 899.8949,-40.4759 1103,-68.5 1127.0979,-71.825 1153.3362,-77.7572 1175.5234,-83.4737"/>
<polygon fill="#9a32cd" stroke="#9a32cd" points="535.2219,-38.0872 525.2804,-41.7499 535.3362,-45.0862 535.2219,-38.0872"/>
<text text-anchor="middle" x="875" y="-54.5" font-family="Helvetica,sans-Serif" font-size="10.00" fill="#000000"> cp_times</text>
</g>
<!-- Node7 -->
<g id="node7" class="node">
<title>Node7</title>
<g id="a_node7"><a xlink:href="classanonymous__namespace_02loadplay_8cpp_03_1_1Emulator.html#structanonymous__namespace_02loadplay_8cpp_03_1_1Emulator_1_1Core" target="_top" xlink:title="Per core information.">
<polygon fill="#ffffff" stroke="#000000" points="638,-83.5 638,-113.5 787,-113.5 787,-83.5 638,-83.5"/>
<text text-anchor="start" x="646" y="-101.5" font-family="Helvetica,sans-Serif" font-size="10.00" fill="#000000">anonymous_namespace</text>
<text text-anchor="middle" x="712.5" y="-90.5" font-family="Helvetica,sans-Serif" font-size="10.00" fill="#000000">{loadplay.cpp}::Emulator::Core</text>
</a>
</g>
</g>
<!-- Node2&#45;&gt;Node7 -->
<g id="edge8" class="edge">
<title>Node2&#45;&gt;Node7</title>
<path fill="none" stroke="#9a32cd" stroke-dasharray="5,2" d="M535.1247,-60.3175C569.4617,-67.709 609.4622,-76.3196 642.7771,-83.4912"/>
<polygon fill="#9a32cd" stroke="#9a32cd" points="535.6463,-56.8496 525.1337,-58.1667 534.1732,-63.6929 535.6463,-56.8496"/>
<text text-anchor="middle" x="581.5" y="-80.5" font-family="Helvetica,sans-Serif" font-size="10.00" fill="#000000"> freqCtl</text>
</g>
<!-- Node3 -->
<g id="node3" class="node">
<title>Node3</title>
<g id="a_node3"><a xlink:href="classanonymous__namespace_02loadplay_8cpp_03_1_1Callback.html" target="_top" xlink:title=" ">
<polygon fill="#ffffff" stroke="#000000" points="132,-44.5 132,-96.5 324,-96.5 324,-44.5 132,-44.5"/>
<text text-anchor="start" x="140" y="-84.5" font-family="Helvetica,sans-Serif" font-size="10.00" fill="#000000">anonymous_namespace</text>
<text text-anchor="start" x="140" y="-73.5" font-family="Helvetica,sans-Serif" font-size="10.00" fill="#000000">{loadplay.cpp}::Callback</text>
<text text-anchor="start" x="140" y="-62.5" font-family="Helvetica,sans-Serif" font-size="10.00" fill="#000000">&lt; anonymous_namespace{loadplay.cpp}</text>
<text text-anchor="middle" x="228" y="-51.5" font-family="Helvetica,sans-Serif" font-size="10.00" fill="#000000">::SysctlValue &amp; &gt;</text>
</a>
</g>
</g>
<!-- Node3&#45;&gt;Node2 -->
<g id="edge2" class="edge">
<title>Node3&#45;&gt;Node2</title>
<path fill="none" stroke="#9a32cd" stroke-dasharray="5,2" d="M334.1305,-57.9868C352.7696,-55.7892 371.706,-53.5565 388.95,-51.5234"/>
<polygon fill="#9a32cd" stroke="#9a32cd" points="333.6426,-54.52 324.1213,-59.1669 334.4623,-61.4718 333.6426,-54.52"/>
<text text-anchor="middle" x="356.5" y="-59.5" font-family="Helvetica,sans-Serif" font-size="10.00" fill="#000000"> onSet</text>
</g>
<!-- Node4 -->
<g id="node4" class="node">
<title>Node4</title>
<g id="a_node4"><a xlink:title="STL class.">
<polygon fill="#ffffff" stroke="#bfbfbf" points="198,-6 198,-25 258,-25 258,-6 198,-6"/>
<text text-anchor="middle" x="228" y="-13" font-family="Helvetica,sans-Serif" font-size="10.00" fill="#000000">std::string</text>
</a>
</g>
</g>
<!-- Node4&#45;&gt;Node2 -->
<g id="edge3" class="edge">
<title>Node4&#45;&gt;Node2</title>
<path fill="none" stroke="#9a32cd" stroke-dasharray="5,2" d="M268.6728,-20.4731C301.9436,-24.5411 349.7134,-30.382 388.8157,-35.1631"/>
<polygon fill="#9a32cd" stroke="#9a32cd" points="268.7603,-16.9578 258.4094,-19.2182 267.9107,-23.9061 268.7603,-16.9578"/>
<text text-anchor="middle" x="356.5" y="-36.5" font-family="Helvetica,sans-Serif" font-size="10.00" fill="#000000"> value</text>
</g>
<!-- Node5 -->
<g id="node5" class="node">
<title>Node5</title>
<g id="a_node5"><a xlink:title="STL class.">
<polygon fill="#ffffff" stroke="#bfbfbf" points="0,-.5 0,-30.5 95,-30.5 95,-.5 0,-.5"/>
<text text-anchor="start" x="8" y="-18.5" font-family="Helvetica,sans-Serif" font-size="10.00" fill="#000000">std::basic_string&lt;</text>
<text text-anchor="middle" x="47.5" y="-7.5" font-family="Helvetica,sans-Serif" font-size="10.00" fill="#000000"> char &gt;</text>
</a>
</g>
</g>
<!-- Node5&#45;&gt;Node4 -->
<g id="edge4" class="edge">
<title>Node5&#45;&gt;Node4</title>
<path fill="none" stroke="#191970" d="M105.5618,-15.5C136.254,-15.5 172.6617,-15.5 197.7542,-15.5"/>
<polygon fill="#191970" stroke="#191970" points="105.3968,-12.0001 95.3968,-15.5 105.3968,-19.0001 105.3968,-12.0001"/>
</g>
<!-- Node6 -->
<g id="node6" class="node">
<title>Node6</title>
<g id="a_node6"><a xlink:title=" ">
<polygon fill="#ffffff" stroke="#bfbfbf" points="963,-78 963,-119 1103,-119 1103,-78 963,-78"/>
<text text-anchor="start" x="971" y="-107" font-family="Helvetica,sans-Serif" font-size="10.00" fill="#000000">std::unique_ptr&lt; anonymous</text>
<text text-anchor="start" x="971" y="-96" font-family="Helvetica,sans-Serif" font-size="10.00" fill="#000000">_namespace{loadplay.cpp}</text>
<text text-anchor="middle" x="1033" y="-85" font-family="Helvetica,sans-Serif" font-size="10.00" fill="#000000">::Emulator::Core[]&gt;</text>
</a>
</g>
</g>
<!-- Node6&#45;&gt;Node1 -->
<g id="edge5" class="edge">
<title>Node6&#45;&gt;Node1</title>
<path fill="none" stroke="#9a32cd" stroke-dasharray="5,2" d="M1113.2666,-98.5C1131.179,-98.5 1149.8929,-98.5 1166.8854,-98.5"/>
<polygon fill="#9a32cd" stroke="#9a32cd" points="1113.124,-95.0001 1103.124,-98.5 1113.1239,-102.0001 1113.124,-95.0001"/>
<text text-anchor="middle" x="1135" y="-101.5" font-family="Helvetica,sans-Serif" font-size="10.00" fill="#000000"> cores</text>
</g>
<!-- Node7&#45;&gt;Node6 -->
<g id="edge6" class="edge">
<title>Node7&#45;&gt;Node6</title>
<path fill="none" stroke="#9a32cd" stroke-dasharray="5,2" d="M797.3728,-98.5C848.9896,-98.5 914.118,-98.5 962.8147,-98.5"/>
<polygon fill="#9a32cd" stroke="#9a32cd" points="797.2386,-95.0001 787.2385,-98.5 797.2385,-102.0001 797.2386,-95.0001"/>
<text text-anchor="middle" x="875" y="-101.5" font-family="Helvetica,sans-Serif" font-size="10.00" fill="#000000"> ptr</text>
</g>
<!-- Node8 -->
<g id="node8" class="node">
<title>Node8</title>
<g id="a_node8"><a xlink:title=" ">
<polygon fill="#ffffff" stroke="#bfbfbf" points="435,-89 435,-108 479,-108 479,-89 435,-89"/>
<text text-anchor="middle" x="457" y="-96" font-family="Helvetica,sans-Serif" font-size="10.00" fill="#000000">mhz_t</text>
</a>
</g>
</g>
<!-- Node8&#45;&gt;Node7 -->
<g id="edge7" class="edge">
<title>Node8&#45;&gt;Node7</title>
<path fill="none" stroke="#9a32cd" stroke-dasharray="5,2" d="M489.4691,-98.5C526.638,-98.5 588.7335,-98.5 637.9785,-98.5"/>
<polygon fill="#9a32cd" stroke="#9a32cd" points="489.227,-95.0001 479.227,-98.5 489.227,-102.0001 489.227,-95.0001"/>
<text text-anchor="middle" x="581.5" y="-112.5" font-family="Helvetica,sans-Serif" font-size="10.00" fill="#000000"> runFreq</text>
<text text-anchor="middle" x="581.5" y="-101.5" font-family="Helvetica,sans-Serif" font-size="10.00" fill="#000000">recFreq</text>
</g>
<!-- Node9 -->
<g id="node9" class="node">
<title>Node9</title>
<g id="a_node9"><a xlink:title=" ">
<polygon fill="#ffffff" stroke="#bfbfbf" points="430,-156 430,-175 484,-175 484,-156 430,-156"/>
<text text-anchor="middle" x="457" y="-163" font-family="Helvetica,sans-Serif" font-size="10.00" fill="#000000">cptime_t</text>
</a>
</g>
</g>
<!-- Node9&#45;&gt;Node7 -->
<g id="edge9" class="edge">
<title>Node9&#45;&gt;Node7</title>
<path fill="none" stroke="#9a32cd" stroke-dasharray="5,2" d="M494.2177,-155.7404C536.4892,-144.6555 605.966,-126.4365 655.1708,-113.5335"/>
<polygon fill="#9a32cd" stroke="#9a32cd" points="493.1281,-152.4077 484.343,-158.3298 494.9037,-159.1787 493.1281,-152.4077"/>
<text text-anchor="middle" x="581.5" y="-155.5" font-family="Helvetica,sans-Serif" font-size="10.00" fill="#000000"> carryLoadCycles</text>
<text text-anchor="middle" x="581.5" y="-144.5" font-family="Helvetica,sans-Serif" font-size="10.00" fill="#000000">runLoadCycles</text>
</g>
<!-- Node10 -->
<g id="node10" class="node">
<title>Node10</title>
<g id="a_node10"><a xlink:title=" ">
<polygon fill="#ffffff" stroke="#bfbfbf" points="805,-170 805,-189 945,-189 945,-170 805,-170"/>
<text text-anchor="middle" x="875" y="-177" font-family="Helvetica,sans-Serif" font-size="10.00" fill="#000000">std::unique_ptr&lt; cptime_t[]&gt;</text>
</a>
</g>
</g>
<!-- Node9&#45;&gt;Node10 -->
<g id="edge11" class="edge">
<title>Node9&#45;&gt;Node10</title>
<path fill="none" stroke="#9a32cd" stroke-dasharray="5,2" d="M494.1842,-166.7454C563.9637,-169.0825 715.5459,-174.1594 804.9943,-177.1553"/>
<polygon fill="#9a32cd" stroke="#9a32cd" points="494.2157,-163.2446 484.1041,-166.4078 493.9813,-170.2407 494.2157,-163.2446"/>
<text text-anchor="middle" x="581.5" y="-173.5" font-family="Helvetica,sans-Serif" font-size="10.00" fill="#000000"> ptr</text>
</g>
<!-- Node10&#45;&gt;Node1 -->
<g id="edge10" class="edge">
<title>Node10&#45;&gt;Node1</title>
<path fill="none" stroke="#9a32cd" stroke-dasharray="5,2" d="M928.5601,-167.7649C974.7983,-157.5754 1043.3638,-142.3253 1103,-128.5 1123.7627,-123.6866 1146.43,-118.2896 1166.6914,-113.4142"/>
<polygon fill="#9a32cd" stroke="#9a32cd" points="927.7684,-164.3553 918.7548,-169.9236 929.2735,-171.1916 927.7684,-164.3553"/>
<text text-anchor="middle" x="1033" y="-161.5" font-family="Helvetica,sans-Serif" font-size="10.00" fill="#000000"> sum</text>
</g>
</g>
</svg>
