<?xml version="1.0" encoding="UTF-8" standalone="no"?>
<!DOCTYPE svg PUBLIC "-//W3C//DTD SVG 1.1//EN"
 "http://www.w3.org/Graphics/SVG/1.1/DTD/svg11.dtd">
<!-- Generated by graphviz version 2.40.1 (20161225.0304)
 -->
<!-- Title: anonymous_namespace{libloadplay.cpp}::Sysctls Pages: 1 -->
<svg width="987pt" height="144pt"
 viewBox="0.00 0.00 987.00 144.00" xmlns="http://www.w3.org/2000/svg" xmlns:xlink="http://www.w3.org/1999/xlink">
<g id="graph0" class="graph" transform="scale(1 1) rotate(0) translate(4 140)">
<title>anonymous_namespace{libloadplay.cpp}::Sysctls</title>
<polygon fill="#ffffff" stroke="transparent" points="-4,4 -4,-140 983,-140 983,4 -4,4"/>
<!-- Node1 -->
<g id="node1" class="node">
<title>Node1</title>
<g id="a_node1"><a xlink:title="Singleton class representing the sysctl table for this library.">
<polygon fill="#bfbfbf" stroke="#000000" points="853,-58.5 853,-88.5 979,-88.5 979,-58.5 853,-58.5"/>
<text text-anchor="start" x="861" y="-76.5" font-family="Helvetica,sans-Serif" font-size="10.00" fill="#000000">anonymous_namespace</text>
<text text-anchor="middle" x="916" y="-65.5" font-family="Helvetica,sans-Serif" font-size="10.00" fill="#000000">{libloadplay.cpp}::Sysctls</text>
</a>
</g>
</g>
<!-- Node2 -->
<g id="node2" class="node">
<title>Node2</title>
<g id="a_node2"><a xlink:title=" ">
<polygon fill="#ffffff" stroke="#bfbfbf" points="631.5,-83.5 631.5,-135.5 774.5,-135.5 774.5,-83.5 631.5,-83.5"/>
<text text-anchor="start" x="639.5" y="-123.5" font-family="Helvetica,sans-Serif" font-size="10.00" fill="#000000">std::unordered_map</text>
<text text-anchor="start" x="639.5" y="-112.5" font-family="Helvetica,sans-Serif" font-size="10.00" fill="#000000">&lt; std::string, anonymous</text>
<text text-anchor="start" x="639.5" y="-101.5" font-family="Helvetica,sans-Serif" font-size="10.00" fill="#000000">_namespace{libloadplay.cpp}</text>
<text text-anchor="middle" x="703" y="-90.5" font-family="Helvetica,sans-Serif" font-size="10.00" fill="#000000">::mib_t &gt;</text>
</a>
</g>
</g>
<!-- Node2&#45;&gt;Node1 -->
<g id="edge1" class="edge">
<title>Node2&#45;&gt;Node1</title>
<path fill="none" stroke="#9a32cd" stroke-dasharray="5,2" d="M784.4676,-95.7308C807.1483,-91.8975 831.4347,-87.7927 852.8878,-84.1668"/>
<polygon fill="#9a32cd" stroke="#9a32cd" points="783.7953,-92.2947 774.5185,-97.4124 784.9619,-99.1968 783.7953,-92.2947"/>
<text text-anchor="middle" x="817.5" y="-95.5" font-family="Helvetica,sans-Serif" font-size="10.00" fill="#000000"> mibs</text>
</g>
<!-- Node3 -->
<g id="node3" class="node">
<title>Node3</title>
<g id="a_node3"><a xlink:href="structanonymous__namespace_02libloadplay_8cpp_03_1_1mib__t.html" target="_top" xlink:title="Represents MIB, but wraps it to provide the necessary operators to use it as an std::map key.">
<polygon fill="#ffffff" stroke="#000000" points="411,-60.5 411,-90.5 533,-90.5 533,-60.5 411,-60.5"/>
<text text-anchor="start" x="419" y="-78.5" font-family="Helvetica,sans-Serif" font-size="10.00" fill="#000000">anonymous_namespace</text>
<text text-anchor="middle" x="472" y="-67.5" font-family="Helvetica,sans-Serif" font-size="10.00" fill="#000000">{libloadplay.cpp}::mib_t</text>
</a>
</g>
</g>
<!-- Node3&#45;&gt;Node2 -->
<g id="edge2" class="edge">
<title>Node3&#45;&gt;Node2</title>
<path fill="none" stroke="#9a32cd" stroke-dasharray="5,2" d="M543.378,-86.0058C571.2766,-90.1121 603.2174,-94.8134 631.1604,-98.9262"/>
<polygon fill="#9a32cd" stroke="#9a32cd" points="543.7004,-82.5157 533.2973,-84.5221 542.681,-89.4411 543.7004,-82.5157"/>
<text text-anchor="middle" x="584.5" y="-97.5" font-family="Helvetica,sans-Serif" font-size="10.00" fill="#000000"> elements</text>
</g>
<!-- Node6 -->
<g id="node6" class="node">
<title>Node6</title>
<g id="a_node6"><a xlink:title=" ">
<polygon fill="#ffffff" stroke="#bfbfbf" points="624,-12.5 624,-64.5 782,-64.5 782,-12.5 624,-12.5"/>
<text text-anchor="start" x="632" y="-52.5" font-family="Helvetica,sans-Serif" font-size="10.00" fill="#000000">std::map&lt; anonymous</text>
<text text-anchor="start" x="632" y="-41.5" font-family="Helvetica,sans-Serif" font-size="10.00" fill="#000000">_namespace{libloadplay.cpp}</text>
<text text-anchor="start" x="632" y="-30.5" font-family="Helvetica,sans-Serif" font-size="10.00" fill="#000000">::mib_t, anonymous_namespace</text>
<text text-anchor="middle" x="703" y="-19.5" font-family="Helvetica,sans-Serif" font-size="10.00" fill="#000000">{libloadplay.cpp}::SysctlValue &gt;</text>
</a>
</g>
</g>
<!-- Node3&#45;&gt;Node6 -->
<g id="edge6" class="edge">
<title>Node3&#45;&gt;Node6</title>
<path fill="none" stroke="#9a32cd" stroke-dasharray="5,2" d="M543.2801,-64.0828C568.8359,-59.9895 597.7937,-55.3512 623.9674,-51.1589"/>
<polygon fill="#9a32cd" stroke="#9a32cd" points="542.6178,-60.6442 533.2973,-65.6818 543.725,-67.5561 542.6178,-60.6442"/>
<text text-anchor="middle" x="584.5" y="-63.5" font-family="Helvetica,sans-Serif" font-size="10.00" fill="#000000"> keys</text>
</g>
<!-- Node4 -->
<g id="node4" class="node">
<title>Node4</title>
<g id="a_node4"><a xlink:title="STL class.">
<polygon fill="#ffffff" stroke="#bfbfbf" points="203,-89 203,-108 263,-108 263,-89 203,-89"/>
<text text-anchor="middle" x="233" y="-96" font-family="Helvetica,sans-Serif" font-size="10.00" fill="#000000">std::string</text>
</a>
</g>
</g>
<!-- Node4&#45;&gt;Node2 -->
<g id="edge3" class="edge">
<title>Node4&#45;&gt;Node2</title>
<path fill="none" stroke="#9a32cd" stroke-dasharray="5,2" d="M273.1758,-100.2709C335.2997,-102.9118 458.4305,-107.7577 563,-109.5 585.2365,-109.8705 609.4624,-109.9762 631.4149,-109.959"/>
<polygon fill="#9a32cd" stroke="#9a32cd" points="273.1627,-96.7673 263.0219,-99.8358 272.8629,-103.7608 273.1627,-96.7673"/>
<text text-anchor="middle" x="472" y="-111.5" font-family="Helvetica,sans-Serif" font-size="10.00" fill="#000000"> keys</text>
</g>
<!-- Node7 -->
<g id="node7" class="node">
<title>Node7</title>
<g id="a_node7"><a xlink:href="classanonymous__namespace_02libloadplay_8cpp_03_1_1SysctlValue.html" target="_top" xlink:title="Instances of this class represents a specific sysctl value.">
<polygon fill="#ffffff" stroke="#000000" points="399,-11.5 399,-41.5 545,-41.5 545,-11.5 399,-11.5"/>
<text text-anchor="start" x="407" y="-29.5" font-family="Helvetica,sans-Serif" font-size="10.00" fill="#000000">anonymous_namespace</text>
<text text-anchor="middle" x="472" y="-18.5" font-family="Helvetica,sans-Serif" font-size="10.00" fill="#000000">{libloadplay.cpp}::SysctlValue</text>
</a>
</g>
</g>
<!-- Node4&#45;&gt;Node7 -->
<g id="edge9" class="edge">
<title>Node4&#45;&gt;Node7</title>
<path fill="none" stroke="#9a32cd" stroke-dasharray="5,2" d="M272.9113,-86.4765C313.8731,-74.1366 377.7112,-54.905 422.0115,-41.5593"/>
<polygon fill="#9a32cd" stroke="#9a32cd" points="271.8349,-83.1453 263.2695,-89.3812 273.8541,-89.8478 271.8349,-83.1453"/>
<text text-anchor="middle" x="366.5" y="-65.5" font-family="Helvetica,sans-Serif" font-size="10.00" fill="#000000"> value</text>
</g>
<!-- Node5 -->
<g id="node5" class="node">
<title>Node5</title>
<g id="a_node5"><a xlink:title="STL class.">
<polygon fill="#ffffff" stroke="#bfbfbf" points="0,-83.5 0,-113.5 95,-113.5 95,-83.5 0,-83.5"/>
<text text-anchor="start" x="8" y="-101.5" font-family="Helvetica,sans-Serif" font-size="10.00" fill="#000000">std::basic_string&lt;</text>
<text text-anchor="middle" x="47.5" y="-90.5" font-family="Helvetica,sans-Serif" font-size="10.00" fill="#000000"> char &gt;</text>
</a>
</g>
</g>
<!-- Node5&#45;&gt;Node4 -->
<g id="edge4" class="edge">
<title>Node5&#45;&gt;Node4</title>
<path fill="none" stroke="#191970" d="M105.4878,-98.5C137.74,-98.5 176.549,-98.5 202.8157,-98.5"/>
<polygon fill="#191970" stroke="#191970" points="105.2709,-95.0001 95.2709,-98.5 105.2708,-102.0001 105.2709,-95.0001"/>
</g>
<!-- Node6&#45;&gt;Node1 -->
<g id="edge5" class="edge">
<title>Node6&#45;&gt;Node1</title>
<path fill="none" stroke="#9a32cd" stroke-dasharray="5,2" d="M791.9487,-53.116C812.3654,-56.4708 833.667,-59.9711 852.74,-63.1052"/>
<polygon fill="#9a32cd" stroke="#9a32cd" points="792.4459,-49.6508 782.0106,-51.483 791.3108,-56.5582 792.4459,-49.6508"/>
<text text-anchor="middle" x="817.5" y="-63.5" font-family="Helvetica,sans-Serif" font-size="10.00" fill="#000000"> sysctls</text>
</g>
<!-- Node7&#45;&gt;Node6 -->
<g id="edge7" class="edge">
<title>Node7&#45;&gt;Node6</title>
<path fill="none" stroke="#9a32cd" stroke-dasharray="5,2" d="M555.3739,-29.1617C572.1421,-29.8236 589.6375,-30.6046 606,-31.5 611.8163,-31.8183 617.8266,-32.1779 623.873,-32.562"/>
<polygon fill="#9a32cd" stroke="#9a32cd" points="555.171,-25.6515 545.044,-28.7651 554.9023,-32.6463 555.171,-25.6515"/>
<text text-anchor="middle" x="584.5" y="-34.5" font-family="Helvetica,sans-Serif" font-size="10.00" fill="#000000"> elements</text>
</g>
<!-- Node8 -->
<g id="node8" class="node">
<title>Node8</title>
<g id="a_node8"><a xlink:href="classanonymous__namespace_02libloadplay_8cpp_03_1_1Callback.html" target="_top" xlink:title=" ">
<polygon fill="#ffffff" stroke="#000000" points="132,-.5 132,-52.5 334,-52.5 334,-.5 132,-.5"/>
<text text-anchor="start" x="140" y="-40.5" font-family="Helvetica,sans-Serif" font-size="10.00" fill="#000000">anonymous_namespace</text>
<text text-anchor="start" x="140" y="-29.5" font-family="Helvetica,sans-Serif" font-size="10.00" fill="#000000">{libloadplay.cpp}::Callback</text>
<text text-anchor="start" x="140" y="-18.5" font-family="Helvetica,sans-Serif" font-size="10.00" fill="#000000">&lt; anonymous_namespace{libloadplay.cpp}</text>
<text text-anchor="middle" x="233" y="-7.5" font-family="Helvetica,sans-Serif" font-size="10.00" fill="#000000">::SysctlValue &amp; &gt;</text>
</a>
</g>
</g>
<!-- Node8&#45;&gt;Node7 -->
<g id="edge8" class="edge">
<title>Node8&#45;&gt;Node7</title>
<path fill="none" stroke="#9a32cd" stroke-dasharray="5,2" d="M344.0156,-26.5C362.6402,-26.5 381.541,-26.5 398.8962,-26.5"/>
<polygon fill="#9a32cd" stroke="#9a32cd" points="344.0111,-23.0001 334.0111,-26.5 344.0111,-30.0001 344.0111,-23.0001"/>
<text text-anchor="middle" x="366.5" y="-29.5" font-family="Helvetica,sans-Serif" font-size="10.00" fill="#000000"> onSet</text>
</g>
</g>
</svg>
