<?xml version="1.0" encoding="UTF-8" standalone="no"?>
<!DOCTYPE svg PUBLIC "-//W3C//DTD SVG 1.1//EN"
 "http://www.w3.org/Graphics/SVG/1.1/DTD/svg11.dtd">
<!-- Generated by graphviz version 2.40.1 (20161225.0304)
 -->
<!-- Title: anonymous_namespace{libloadplay.cpp}::Emulator Pages: 1 -->
<svg width="1340pt" height="302pt"
 viewBox="0.00 0.00 1340.00 302.00" xmlns="http://www.w3.org/2000/svg" xmlns:xlink="http://www.w3.org/1999/xlink">
<g id="graph0" class="graph" transform="scale(1 1) rotate(0) translate(4 298)">
<title>anonymous_namespace{libloadplay.cpp}::Emulator</title>
<polygon fill="#ffffff" stroke="transparent" points="-4,4 -4,-298 1336,-298 1336,4 -4,4"/>
<!-- Node1 -->
<g id="node1" class="node">
<title>Node1</title>
<g id="a_node1"><a xlink:title="Instances of this class represent an emulator session.">
<polygon fill="#bfbfbf" stroke="#000000" points="1200,-95.5 1200,-125.5 1332,-125.5 1332,-95.5 1200,-95.5"/>
<text text-anchor="start" x="1208" y="-113.5" font-family="Helvetica,sans-Serif" font-size="10.00" fill="#000000">anonymous_namespace</text>
<text text-anchor="middle" x="1266" y="-102.5" font-family="Helvetica,sans-Serif" font-size="10.00" fill="#000000">{libloadplay.cpp}::Emulator</text>
</a>
</g>
</g>
<!-- Node2 -->
<g id="node2" class="node">
<title>Node2</title>
<g id="a_node2"><a xlink:title=" ">
<polygon fill="#ffffff" stroke="#bfbfbf" points="993,-153 993,-194 1136,-194 1136,-153 993,-153"/>
<text text-anchor="start" x="1001" y="-182" font-family="Helvetica,sans-Serif" font-size="10.00" fill="#000000">std::unique_ptr&lt; anonymous</text>
<text text-anchor="start" x="1001" y="-171" font-family="Helvetica,sans-Serif" font-size="10.00" fill="#000000">_namespace{libloadplay.cpp}</text>
<text text-anchor="middle" x="1064.5" y="-160" font-family="Helvetica,sans-Serif" font-size="10.00" fill="#000000">::Emulator::Core[]&gt;</text>
</a>
</g>
</g>
<!-- Node2&#45;&gt;Node1 -->
<g id="edge1" class="edge">
<title>Node2&#45;&gt;Node1</title>
<path fill="none" stroke="#9a32cd" stroke-dasharray="5,2" d="M1140.0681,-149.8733C1166.1655,-141.7138 1194.6716,-132.8012 1217.9523,-125.5224"/>
<polygon fill="#9a32cd" stroke="#9a32cd" points="1138.6997,-146.6339 1130.1998,-152.9586 1140.7887,-153.315 1138.6997,-146.6339"/>
<text text-anchor="middle" x="1168" y="-146.5" font-family="Helvetica,sans-Serif" font-size="10.00" fill="#000000"> cores</text>
</g>
<!-- Node3 -->
<g id="node3" class="node">
<title>Node3</title>
<g id="a_node3"><a xlink:href="classanonymous__namespace_02libloadplay_8cpp_03_1_1Emulator.html#structanonymous__namespace_02libloadplay_8cpp_03_1_1Emulator_1_1Core" target="_top" xlink:title="Per core information.">
<polygon fill="#ffffff" stroke="#000000" points="658,-169.5 658,-199.5 817,-199.5 817,-169.5 658,-169.5"/>
<text text-anchor="start" x="666" y="-187.5" font-family="Helvetica,sans-Serif" font-size="10.00" fill="#000000">anonymous_namespace</text>
<text text-anchor="middle" x="737.5" y="-176.5" font-family="Helvetica,sans-Serif" font-size="10.00" fill="#000000">{libloadplay.cpp}::Emulator::Core</text>
</a>
</g>
</g>
<!-- Node3&#45;&gt;Node2 -->
<g id="edge2" class="edge">
<title>Node3&#45;&gt;Node2</title>
<path fill="none" stroke="#9a32cd" stroke-dasharray="5,2" d="M827.3275,-181.4783C879.4751,-179.7241 944.265,-177.5446 992.9437,-175.9071"/>
<polygon fill="#9a32cd" stroke="#9a32cd" points="826.9517,-177.9888 817.0751,-181.8232 827.1871,-184.9849 826.9517,-177.9888"/>
<text text-anchor="middle" x="905" y="-183.5" font-family="Helvetica,sans-Serif" font-size="10.00" fill="#000000"> ptr</text>
</g>
<!-- Node4 -->
<g id="node4" class="node">
<title>Node4</title>
<g id="a_node4"><a xlink:title=" ">
<polygon fill="#ffffff" stroke="#bfbfbf" points="450,-178 450,-197 494,-197 494,-178 450,-178"/>
<text text-anchor="middle" x="472" y="-185" font-family="Helvetica,sans-Serif" font-size="10.00" fill="#000000">mhz_t</text>
</a>
</g>
</g>
<!-- Node4&#45;&gt;Node3 -->
<g id="edge3" class="edge">
<title>Node4&#45;&gt;Node3</title>
<path fill="none" stroke="#9a32cd" stroke-dasharray="5,2" d="M504.6238,-187.1314C542.5915,-186.7024 606.6357,-185.9787 657.9621,-185.3987"/>
<polygon fill="#9a32cd" stroke="#9a32cd" points="504.1395,-183.6365 494.1797,-187.2494 504.2187,-190.6361 504.1395,-183.6365"/>
<text text-anchor="middle" x="601.5" y="-199.5" font-family="Helvetica,sans-Serif" font-size="10.00" fill="#000000"> runFreq</text>
<text text-anchor="middle" x="601.5" y="-188.5" font-family="Helvetica,sans-Serif" font-size="10.00" fill="#000000">recFreq</text>
</g>
<!-- Node5 -->
<g id="node5" class="node">
<title>Node5</title>
<g id="a_node5"><a xlink:href="classanonymous__namespace_02libloadplay_8cpp_03_1_1SysctlValue.html" target="_top" xlink:title="Instances of this class represents a specific sysctl value.">
<polygon fill="#ffffff" stroke="#000000" points="399,-230.5 399,-260.5 545,-260.5 545,-230.5 399,-230.5"/>
<text text-anchor="start" x="407" y="-248.5" font-family="Helvetica,sans-Serif" font-size="10.00" fill="#000000">anonymous_namespace</text>
<text text-anchor="middle" x="472" y="-237.5" font-family="Helvetica,sans-Serif" font-size="10.00" fill="#000000">{libloadplay.cpp}::SysctlValue</text>
</a>
</g>
</g>
<!-- Node5&#45;&gt;Node1 -->
<g id="edge15" class="edge">
<title>Node5&#45;&gt;Node1</title>
<path fill="none" stroke="#9a32cd" stroke-dasharray="5,2" d="M555.4049,-254.8813C684.2922,-266.1878 937.6926,-275.6004 1136,-203.5 1182.9437,-186.4323 1228.1428,-147.3882 1250.8425,-125.7101"/>
<polygon fill="#9a32cd" stroke="#9a32cd" points="555.4855,-251.3744 545.2111,-253.9602 554.8555,-258.346 555.4855,-251.3744"/>
<text text-anchor="middle" x="905" y="-262.5" font-family="Helvetica,sans-Serif" font-size="10.00" fill="#000000"> cp_times</text>
</g>
<!-- Node5&#45;&gt;Node3 -->
<g id="edge4" class="edge">
<title>Node5&#45;&gt;Node3</title>
<path fill="none" stroke="#9a32cd" stroke-dasharray="5,2" d="M555.2156,-229.1105C582.3209,-223.5195 612.5046,-217.0249 640,-210.5 654.0623,-207.1629 669.1869,-203.2764 683.2286,-199.5412"/>
<polygon fill="#9a32cd" stroke="#9a32cd" points="554.4723,-225.69 545.3794,-231.1278 555.8787,-232.5473 554.4723,-225.69"/>
<text text-anchor="middle" x="601.5" y="-229.5" font-family="Helvetica,sans-Serif" font-size="10.00" fill="#000000"> freqCtl</text>
</g>
<!-- Node6 -->
<g id="node6" class="node">
<title>Node6</title>
<g id="a_node6"><a xlink:href="classanonymous__namespace_02libloadplay_8cpp_03_1_1Callback.html" target="_top" xlink:title=" ">
<polygon fill="#ffffff" stroke="#000000" points="132,-197.5 132,-249.5 334,-249.5 334,-197.5 132,-197.5"/>
<text text-anchor="start" x="140" y="-237.5" font-family="Helvetica,sans-Serif" font-size="10.00" fill="#000000">anonymous_namespace</text>
<text text-anchor="start" x="140" y="-226.5" font-family="Helvetica,sans-Serif" font-size="10.00" fill="#000000">{libloadplay.cpp}::Callback</text>
<text text-anchor="start" x="140" y="-215.5" font-family="Helvetica,sans-Serif" font-size="10.00" fill="#000000">&lt; anonymous_namespace{libloadplay.cpp}</text>
<text text-anchor="middle" x="233" y="-204.5" font-family="Helvetica,sans-Serif" font-size="10.00" fill="#000000">::SysctlValue &amp; &gt;</text>
</a>
</g>
</g>
<!-- Node6&#45;&gt;Node5 -->
<g id="edge5" class="edge">
<title>Node6&#45;&gt;Node5</title>
<path fill="none" stroke="#9a32cd" stroke-dasharray="5,2" d="M344.4933,-231.233C356.8183,-232.2525 369.1799,-233.347 381,-234.5 386.7018,-235.0562 392.5996,-235.6735 398.5254,-236.3237"/>
<polygon fill="#9a32cd" stroke="#9a32cd" points="344.412,-227.7149 334.1616,-230.3945 343.8457,-234.692 344.412,-227.7149"/>
<text text-anchor="middle" x="366.5" y="-237.5" font-family="Helvetica,sans-Serif" font-size="10.00" fill="#000000"> onSet</text>
</g>
<!-- Node7 -->
<g id="node7" class="node">
<title>Node7</title>
<g id="a_node7"><a xlink:title="STL class.">
<polygon fill="#ffffff" stroke="#bfbfbf" points="203,-269 203,-288 263,-288 263,-269 203,-269"/>
<text text-anchor="middle" x="233" y="-276" font-family="Helvetica,sans-Serif" font-size="10.00" fill="#000000">std::string</text>
</a>
</g>
</g>
<!-- Node7&#45;&gt;Node5 -->
<g id="edge6" class="edge">
<title>Node7&#45;&gt;Node5</title>
<path fill="none" stroke="#9a32cd" stroke-dasharray="5,2" d="M273.3682,-272.9262C307.6261,-268.196 357.6448,-261.2896 398.9172,-255.5909"/>
<polygon fill="#9a32cd" stroke="#9a32cd" points="272.6968,-269.4856 263.2695,-274.3205 273.6543,-276.4198 272.6968,-269.4856"/>
<text text-anchor="middle" x="366.5" y="-264.5" font-family="Helvetica,sans-Serif" font-size="10.00" fill="#000000"> value</text>
</g>
<!-- Node8 -->
<g id="node8" class="node">
<title>Node8</title>
<g id="a_node8"><a xlink:title="STL class.">
<polygon fill="#ffffff" stroke="#bfbfbf" points="0,-263.5 0,-293.5 95,-293.5 95,-263.5 0,-263.5"/>
<text text-anchor="start" x="8" y="-281.5" font-family="Helvetica,sans-Serif" font-size="10.00" fill="#000000">std::basic_string&lt;</text>
<text text-anchor="middle" x="47.5" y="-270.5" font-family="Helvetica,sans-Serif" font-size="10.00" fill="#000000"> char &gt;</text>
</a>
</g>
</g>
<!-- Node8&#45;&gt;Node7 -->
<g id="edge7" class="edge">
<title>Node8&#45;&gt;Node7</title>
<path fill="none" stroke="#191970" d="M105.4878,-278.5C137.74,-278.5 176.549,-278.5 202.8157,-278.5"/>
<polygon fill="#191970" stroke="#191970" points="105.2709,-275.0001 95.2709,-278.5 105.2708,-282.0001 105.2709,-275.0001"/>
</g>
<!-- Node9 -->
<g id="node9" class="node">
<title>Node9</title>
<g id="a_node9"><a xlink:title=" ">
<polygon fill="#ffffff" stroke="#bfbfbf" points="445,-116 445,-135 499,-135 499,-116 445,-116"/>
<text text-anchor="middle" x="472" y="-123" font-family="Helvetica,sans-Serif" font-size="10.00" fill="#000000">cptime_t</text>
</a>
</g>
</g>
<!-- Node9&#45;&gt;Node3 -->
<g id="edge8" class="edge">
<title>Node9&#45;&gt;Node3</title>
<path fill="none" stroke="#9a32cd" stroke-dasharray="5,2" d="M509.1423,-132.4494C543.2628,-138.9679 595.1818,-149.226 640,-159.5 653.2856,-162.5456 667.5267,-166.0561 680.9076,-169.4655"/>
<polygon fill="#9a32cd" stroke="#9a32cd" points="509.6298,-128.9795 499.1521,-130.5506 508.3227,-135.8564 509.6298,-128.9795"/>
<text text-anchor="middle" x="601.5" y="-173.5" font-family="Helvetica,sans-Serif" font-size="10.00" fill="#000000"> carryLoadCycles</text>
<text text-anchor="middle" x="601.5" y="-162.5" font-family="Helvetica,sans-Serif" font-size="10.00" fill="#000000">runLoadCycles</text>
</g>
<!-- Node14 -->
<g id="node14" class="node">
<title>Node14</title>
<g id="a_node14"><a xlink:title=" ">
<polygon fill="#ffffff" stroke="#bfbfbf" points="835,-100 835,-119 975,-119 975,-100 835,-100"/>
<text text-anchor="middle" x="905" y="-107" font-family="Helvetica,sans-Serif" font-size="10.00" fill="#000000">std::unique_ptr&lt; cptime_t[]&gt;</text>
</a>
</g>
</g>
<!-- Node9&#45;&gt;Node14 -->
<g id="edge14" class="edge">
<title>Node9&#45;&gt;Node14</title>
<path fill="none" stroke="#9a32cd" stroke-dasharray="5,2" d="M509.0856,-124.1296C581.3334,-121.46 741.9832,-115.5237 834.9122,-112.0899"/>
<polygon fill="#9a32cd" stroke="#9a32cd" points="508.95,-120.6322 499.0861,-124.4991 509.2085,-127.6274 508.95,-120.6322"/>
<text text-anchor="middle" x="601.5" y="-124.5" font-family="Helvetica,sans-Serif" font-size="10.00" fill="#000000"> ptr</text>
</g>
<!-- Node10 -->
<g id="node10" class="node">
<title>Node10</title>
<g id="a_node10"><a xlink:title="STL class.">
<polygon fill="#ffffff" stroke="#bfbfbf" points="1030.5,-14 1030.5,-33 1098.5,-33 1098.5,-14 1030.5,-14"/>
<text text-anchor="middle" x="1064.5" y="-21" font-family="Helvetica,sans-Serif" font-size="10.00" fill="#000000">std::istream</text>
</a>
</g>
</g>
<!-- Node10&#45;&gt;Node1 -->
<g id="edge9" class="edge">
<title>Node10&#45;&gt;Node1</title>
<path fill="none" stroke="#9a32cd" stroke-dasharray="5,2" d="M1107.4534,-36.0045C1116.9117,-38.9555 1126.8384,-42.2066 1136,-45.5 1156.8156,-52.9829 1162.0474,-54.9513 1182,-64.5 1201.9471,-74.0461 1223.8406,-86.0892 1240.2741,-95.4581"/>
<polygon fill="#9a32cd" stroke="#9a32cd" points="1108.4049,-32.6355 1097.8181,-33.0486 1106.3518,-39.3276 1108.4049,-32.6355"/>
<text text-anchor="middle" x="1168" y="-67.5" font-family="Helvetica,sans-Serif" font-size="10.00" fill="#000000"> cin</text>
</g>
<!-- Node11 -->
<g id="node11" class="node">
<title>Node11</title>
<g id="a_node11"><a xlink:title="STL class.">
<polygon fill="#ffffff" stroke="#bfbfbf" points="689,-.5 689,-30.5 786,-30.5 786,-.5 689,-.5"/>
<text text-anchor="start" x="697" y="-18.5" font-family="Helvetica,sans-Serif" font-size="10.00" fill="#000000">std::basic_istream</text>
<text text-anchor="middle" x="737.5" y="-7.5" font-family="Helvetica,sans-Serif" font-size="10.00" fill="#000000">&lt; char &gt;</text>
</a>
</g>
</g>
<!-- Node11&#45;&gt;Node10 -->
<g id="edge10" class="edge">
<title>Node11&#45;&gt;Node10</title>
<path fill="none" stroke="#191970" d="M796.2594,-16.9375C864.4539,-18.6059 974.6331,-21.3014 1030.1666,-22.66"/>
<polygon fill="#191970" stroke="#191970" points="796.1848,-13.4348 786.1021,-16.689 796.0135,-20.4327 796.1848,-13.4348"/>
</g>
<!-- Node12 -->
<g id="node12" class="node">
<title>Node12</title>
<g id="a_node12"><a xlink:title="STL class.">
<polygon fill="#ffffff" stroke="#bfbfbf" points="414,-28 414,-47 530,-47 530,-28 414,-28"/>
<text text-anchor="middle" x="472" y="-35" font-family="Helvetica,sans-Serif" font-size="10.00" fill="#000000">std::basic_ios&lt; Char &gt;</text>
</a>
</g>
</g>
<!-- Node12&#45;&gt;Node11 -->
<g id="edge11" class="edge">
<title>Node12&#45;&gt;Node11</title>
<path fill="none" stroke="#191970" d="M540.2512,-31.8445C586.6963,-27.996 647.0565,-22.9944 688.7102,-19.5428"/>
<polygon fill="#191970" stroke="#191970" points="539.9419,-28.3581 530.2651,-32.672 540.52,-35.3342 539.9419,-28.3581"/>
</g>
<!-- Node16 -->
<g id="node16" class="node">
<title>Node16</title>
<g id="a_node16"><a xlink:title="STL class.">
<polygon fill="#ffffff" stroke="#bfbfbf" points="687.5,-49.5 687.5,-79.5 787.5,-79.5 787.5,-49.5 687.5,-49.5"/>
<text text-anchor="start" x="695.5" y="-67.5" font-family="Helvetica,sans-Serif" font-size="10.00" fill="#000000">std::basic_ostream</text>
<text text-anchor="middle" x="737.5" y="-56.5" font-family="Helvetica,sans-Serif" font-size="10.00" fill="#000000">&lt; char &gt;</text>
</a>
</g>
</g>
<!-- Node12&#45;&gt;Node16 -->
<g id="edge18" class="edge">
<title>Node12&#45;&gt;Node16</title>
<path fill="none" stroke="#191970" d="M540.442,-44.4602C586.3802,-49.1319 645.8656,-55.1812 687.4104,-59.4061"/>
<polygon fill="#191970" stroke="#191970" points="540.5679,-40.955 530.2651,-43.4253 539.8597,-47.9191 540.5679,-40.955"/>
</g>
<!-- Node13 -->
<g id="node13" class="node">
<title>Node13</title>
<g id="a_node13"><a xlink:title="STL class.">
<polygon fill="#ffffff" stroke="#bfbfbf" points="195.5,-28 195.5,-47 270.5,-47 270.5,-28 195.5,-28"/>
<text text-anchor="middle" x="233" y="-35" font-family="Helvetica,sans-Serif" font-size="10.00" fill="#000000">std::ios_base</text>
</a>
</g>
</g>
<!-- Node13&#45;&gt;Node12 -->
<g id="edge12" class="edge">
<title>Node13&#45;&gt;Node12</title>
<path fill="none" stroke="#191970" d="M280.9605,-37.5C319.208,-37.5 372.9284,-37.5 413.6654,-37.5"/>
<polygon fill="#191970" stroke="#191970" points="280.6067,-34.0001 270.6067,-37.5 280.6066,-41.0001 280.6067,-34.0001"/>
</g>
<!-- Node14&#45;&gt;Node1 -->
<g id="edge13" class="edge">
<title>Node14&#45;&gt;Node1</title>
<path fill="none" stroke="#9a32cd" stroke-dasharray="5,2" d="M985.1664,-109.7221C1049.7021,-109.9008 1139.3172,-110.1491 1199.8158,-110.3167"/>
<polygon fill="#9a32cd" stroke="#9a32cd" points="985.0422,-106.2218 975.0325,-109.694 985.0227,-113.2218 985.0422,-106.2218"/>
<text text-anchor="middle" x="1064.5" y="-112.5" font-family="Helvetica,sans-Serif" font-size="10.00" fill="#000000"> sum</text>
</g>
<!-- Node15 -->
<g id="node15" class="node">
<title>Node15</title>
<g id="a_node15"><a xlink:title="STL class.">
<polygon fill="#ffffff" stroke="#bfbfbf" points="1029,-55 1029,-74 1100,-74 1100,-55 1029,-55"/>
<text text-anchor="middle" x="1064.5" y="-62" font-family="Helvetica,sans-Serif" font-size="10.00" fill="#000000">std::ostream</text>
</a>
</g>
</g>
<!-- Node15&#45;&gt;Node1 -->
<g id="edge16" class="edge">
<title>Node15&#45;&gt;Node1</title>
<path fill="none" stroke="#9a32cd" stroke-dasharray="5,2" d="M1110.1975,-71.4402C1132.0473,-75.0707 1158.5023,-79.9222 1182,-85.5 1193.9913,-88.3465 1206.8039,-91.8945 1218.7175,-95.4151"/>
<polygon fill="#9a32cd" stroke="#9a32cd" points="1110.6258,-67.9639 1100.1929,-69.8092 1109.4994,-74.8727 1110.6258,-67.9639"/>
<text text-anchor="middle" x="1168" y="-88.5" font-family="Helvetica,sans-Serif" font-size="10.00" fill="#000000"> cout</text>
</g>
<!-- Node16&#45;&gt;Node15 -->
<g id="edge17" class="edge">
<title>Node16&#45;&gt;Node15</title>
<path fill="none" stroke="#191970" d="M797.6111,-64.5C865.2717,-64.5 972.9892,-64.5 1028.6262,-64.5"/>
<polygon fill="#191970" stroke="#191970" points="797.5203,-61.0001 787.5202,-64.5 797.5202,-68.0001 797.5203,-61.0001"/>
</g>
</g>
</svg>
