<?xml version="1.0" encoding="UTF-8" standalone="no"?>
<!DOCTYPE svg PUBLIC "-//W3C//DTD SVG 1.1//EN"
 "http://www.w3.org/Graphics/SVG/1.1/DTD/svg11.dtd">
<!-- Generated by graphviz version 2.42.2 ()
 -->
<!-- Title: anonymous_namespace{libloadplay.cpp}::SysctlValue Pages: 1 -->
<svg width="550pt" height="105pt"
 viewBox="0.00 0.00 550.00 105.00" xmlns="http://www.w3.org/2000/svg" xmlns:xlink="http://www.w3.org/1999/xlink">
<g id="graph0" class="graph" transform="scale(1 1) rotate(0) translate(4 101)">
<title>anonymous_namespace{libloadplay.cpp}::SysctlValue</title>
<polygon fill="white" stroke="transparent" points="-4,4 -4,-101 546,-101 546,4 -4,4"/>
<!-- Node1 -->
<g id="node1" class="node">
<title>Node1</title>
<g id="a_node1"><a xlink:title="Instances of this class represents a specific sysctl value.">
<polygon fill="#bfbfbf" stroke="black" points="398,-28.5 398,-58.5 542,-58.5 542,-28.5 398,-28.5"/>
<text text-anchor="start" x="406" y="-46.5" font-family="Helvetica" font-size="10.00">anonymous_namespace</text>
<text text-anchor="middle" x="470" y="-35.5" font-family="Helvetica" font-size="10.00">{libloadplay.cpp}::SysctlValue</text>
</a>
</g>
</g>
<!-- Node2 -->
<g id="node2" class="node">
<title>Node2</title>
<g id="a_node2"><a xlink:href="classanonymous__namespace_02libloadplay_8cpp_03_1_1Callback.html" target="_top" xlink:title=" ">
<polygon fill="white" stroke="black" points="132,-44.5 132,-96.5 333,-96.5 333,-44.5 132,-44.5"/>
<text text-anchor="start" x="140" y="-84.5" font-family="Helvetica" font-size="10.00">anonymous_namespace</text>
<text text-anchor="start" x="140" y="-73.5" font-family="Helvetica" font-size="10.00">{libloadplay.cpp}::Callback</text>
<text text-anchor="start" x="140" y="-62.5" font-family="Helvetica" font-size="10.00">&lt; anonymous_namespace{libloadplay.cpp}</text>
<text text-anchor="middle" x="232.5" y="-51.5" font-family="Helvetica" font-size="10.00">::SysctlValue &amp; &gt;</text>
</a>
</g>
</g>
<!-- Node2&#45;&gt;Node1 -->
<g id="edge1" class="edge">
<title>Node2&#45;&gt;Node1</title>
<path fill="none" stroke="#9a32cd" stroke-dasharray="5,2" d="M343.01,-57.95C361.57,-55.82 380.42,-53.66 397.67,-51.68"/>
<polygon fill="#9a32cd" stroke="#9a32cd" points="342.57,-54.47 333.03,-59.09 343.37,-61.43 342.57,-54.47"/>
<text text-anchor="middle" x="365.5" y="-59.5" font-family="Helvetica" font-size="10.00"> onSet</text>
</g>
<!-- Node3 -->
<g id="node3" class="node">
<title>Node3</title>
<g id="a_node3"><a xlink:title="STL class.">
<polygon fill="white" stroke="#bfbfbf" points="202.5,-6 202.5,-25 262.5,-25 262.5,-6 202.5,-6"/>
<text text-anchor="middle" x="232.5" y="-13" font-family="Helvetica" font-size="10.00">std::string</text>
</a>
</g>
</g>
<!-- Node3&#45;&gt;Node1 -->
<g id="edge2" class="edge">
<title>Node3&#45;&gt;Node1</title>
<path fill="none" stroke="#9a32cd" stroke-dasharray="5,2" d="M272.85,-20.18C306.81,-24.22 356.71,-30.15 397.68,-35.02"/>
<polygon fill="#9a32cd" stroke="#9a32cd" points="273.19,-16.69 262.85,-18.99 272.37,-23.65 273.19,-16.69"/>
<text text-anchor="middle" x="365.5" y="-36.5" font-family="Helvetica" font-size="10.00"> value</text>
</g>
<!-- Node4 -->
<g id="node4" class="node">
<title>Node4</title>
<g id="a_node4"><a xlink:title="STL class.">
<polygon fill="white" stroke="#bfbfbf" points="0,-0.5 0,-30.5 95,-30.5 95,-0.5 0,-0.5"/>
<text text-anchor="start" x="8" y="-18.5" font-family="Helvetica" font-size="10.00">std::basic_string&lt;</text>
<text text-anchor="middle" x="47.5" y="-7.5" font-family="Helvetica" font-size="10.00"> char &gt;</text>
</a>
</g>
</g>
<!-- Node4&#45;&gt;Node3 -->
<g id="edge3" class="edge">
<title>Node4&#45;&gt;Node3</title>
<path fill="none" stroke="midnightblue" d="M105.33,-15.5C137.5,-15.5 176.36,-15.5 202.38,-15.5"/>
<polygon fill="midnightblue" stroke="midnightblue" points="105.15,-12 95.15,-15.5 105.15,-19 105.15,-12"/>
</g>
</g>
</svg>
