<?xml version="1.0" encoding="UTF-8" standalone="no"?>
<!DOCTYPE svg PUBLIC "-//W3C//DTD SVG 1.1//EN"
 "http://www.w3.org/Graphics/SVG/1.1/DTD/svg11.dtd">
<!-- Generated by graphviz version 2.42.2 ()
 -->
<!-- Title: anonymous_namespace{libloadplay.cpp}::Sysctls Pages: 1 -->
<svg width="983pt" height="144pt"
 viewBox="0.00 0.00 983.00 144.00" xmlns="http://www.w3.org/2000/svg" xmlns:xlink="http://www.w3.org/1999/xlink">
<g id="graph0" class="graph" transform="scale(1 1) rotate(0) translate(4 140)">
<title>anonymous_namespace{libloadplay.cpp}::Sysctls</title>
<polygon fill="white" stroke="transparent" points="-4,4 -4,-140 979,-140 979,4 -4,4"/>
<!-- Node1 -->
<g id="node1" class="node">
<title>Node1</title>
<g id="a_node1"><a xlink:title="Singleton class representing the sysctl table for this library.">
<polygon fill="#bfbfbf" stroke="black" points="850,-58.5 850,-88.5 975,-88.5 975,-58.5 850,-58.5"/>
<text text-anchor="start" x="858" y="-76.5" font-family="Helvetica" font-size="10.00">anonymous_namespace</text>
<text text-anchor="middle" x="912.5" y="-65.5" font-family="Helvetica" font-size="10.00">{libloadplay.cpp}::Sysctls</text>
</a>
</g>
</g>
<!-- Node2 -->
<g id="node2" class="node">
<title>Node2</title>
<g id="a_node2"><a xlink:title=" ">
<polygon fill="white" stroke="#bfbfbf" points="629,-83.5 629,-135.5 771,-135.5 771,-83.5 629,-83.5"/>
<text text-anchor="start" x="637" y="-123.5" font-family="Helvetica" font-size="10.00">std::unordered_map</text>
<text text-anchor="start" x="637" y="-112.5" font-family="Helvetica" font-size="10.00">&lt; std::string, anonymous</text>
<text text-anchor="start" x="637" y="-101.5" font-family="Helvetica" font-size="10.00">_namespace{libloadplay.cpp}</text>
<text text-anchor="middle" x="700" y="-90.5" font-family="Helvetica" font-size="10.00">::mib_t &gt;</text>
</a>
</g>
</g>
<!-- Node2&#45;&gt;Node1 -->
<g id="edge1" class="edge">
<title>Node2&#45;&gt;Node1</title>
<path fill="none" stroke="#9a32cd" stroke-dasharray="5,2" d="M781.08,-95.8C803.87,-91.91 828.33,-87.72 849.84,-84.05"/>
<polygon fill="#9a32cd" stroke="#9a32cd" points="780.36,-92.38 771.09,-97.51 781.54,-99.28 780.36,-92.38"/>
<text text-anchor="middle" x="814.5" y="-95.5" font-family="Helvetica" font-size="10.00"> mibs</text>
</g>
<!-- Node3 -->
<g id="node3" class="node">
<title>Node3</title>
<g id="a_node3"><a xlink:href="structanonymous__namespace_02libloadplay_8cpp_03_1_1mib__t.html" target="_top" xlink:title="Represents MIB, but wraps it to provide the necessary operators to use it as an std::map key.">
<polygon fill="white" stroke="black" points="409,-60.5 409,-90.5 531,-90.5 531,-60.5 409,-60.5"/>
<text text-anchor="start" x="417" y="-78.5" font-family="Helvetica" font-size="10.00">anonymous_namespace</text>
<text text-anchor="middle" x="470" y="-67.5" font-family="Helvetica" font-size="10.00">{libloadplay.cpp}::mib_t</text>
</a>
</g>
</g>
<!-- Node3&#45;&gt;Node2 -->
<g id="edge2" class="edge">
<title>Node3&#45;&gt;Node2</title>
<path fill="none" stroke="#9a32cd" stroke-dasharray="5,2" d="M541.25,-85.98C569.05,-90.12 600.94,-94.88 628.74,-99.02"/>
<polygon fill="#9a32cd" stroke="#9a32cd" points="541.61,-82.49 531.2,-84.48 540.58,-89.41 541.61,-82.49"/>
<text text-anchor="middle" x="581.5" y="-97.5" font-family="Helvetica" font-size="10.00"> elements</text>
</g>
<!-- Node6 -->
<g id="node6" class="node">
<title>Node6</title>
<g id="a_node6"><a xlink:title=" ">
<polygon fill="white" stroke="#bfbfbf" points="621,-12.5 621,-64.5 779,-64.5 779,-12.5 621,-12.5"/>
<text text-anchor="start" x="629" y="-52.5" font-family="Helvetica" font-size="10.00">std::map&lt; anonymous</text>
<text text-anchor="start" x="629" y="-41.5" font-family="Helvetica" font-size="10.00">_namespace{libloadplay.cpp}</text>
<text text-anchor="start" x="629" y="-30.5" font-family="Helvetica" font-size="10.00">::mib_t, anonymous_namespace</text>
<text text-anchor="middle" x="700" y="-19.5" font-family="Helvetica" font-size="10.00">{libloadplay.cpp}::SysctlValue &gt;</text>
</a>
</g>
</g>
<!-- Node3&#45;&gt;Node6 -->
<g id="edge6" class="edge">
<title>Node3&#45;&gt;Node6</title>
<path fill="none" stroke="#9a32cd" stroke-dasharray="5,2" d="M541.39,-64.08C566.55,-59.99 595.03,-55.37 620.8,-51.19"/>
<polygon fill="#9a32cd" stroke="#9a32cd" points="540.51,-60.67 531.2,-65.73 541.63,-67.58 540.51,-60.67"/>
<text text-anchor="middle" x="581.5" y="-63.5" font-family="Helvetica" font-size="10.00"> keys</text>
</g>
<!-- Node4 -->
<g id="node4" class="node">
<title>Node4</title>
<g id="a_node4"><a xlink:title="STL class.">
<polygon fill="white" stroke="#bfbfbf" points="202.5,-89 202.5,-108 262.5,-108 262.5,-89 202.5,-89"/>
<text text-anchor="middle" x="232.5" y="-96" font-family="Helvetica" font-size="10.00">std::string</text>
</a>
</g>
</g>
<!-- Node4&#45;&gt;Node2 -->
<g id="edge3" class="edge">
<title>Node4&#45;&gt;Node2</title>
<path fill="none" stroke="#9a32cd" stroke-dasharray="5,2" d="M272.77,-100.25C334.08,-102.89 456.27,-107.75 560,-109.5 582.44,-109.88 606.92,-109.98 629,-109.96"/>
<polygon fill="#9a32cd" stroke="#9a32cd" points="272.9,-96.75 262.76,-99.82 272.6,-103.75 272.9,-96.75"/>
<text text-anchor="middle" x="470" y="-111.5" font-family="Helvetica" font-size="10.00"> keys</text>
</g>
<!-- Node7 -->
<g id="node7" class="node">
<title>Node7</title>
<g id="a_node7"><a xlink:href="classanonymous__namespace_02libloadplay_8cpp_03_1_1SysctlValue.html" target="_top" xlink:title="Instances of this class represents a specific sysctl value.">
<polygon fill="white" stroke="black" points="398,-11.5 398,-41.5 542,-41.5 542,-11.5 398,-11.5"/>
<text text-anchor="start" x="406" y="-29.5" font-family="Helvetica" font-size="10.00">anonymous_namespace</text>
<text text-anchor="middle" x="470" y="-18.5" font-family="Helvetica" font-size="10.00">{libloadplay.cpp}::SysctlValue</text>
</a>
</g>
</g>
<!-- Node4&#45;&gt;Node7 -->
<g id="edge9" class="edge">
<title>Node4&#45;&gt;Node7</title>
<path fill="none" stroke="#9a32cd" stroke-dasharray="5,2" d="M272.58,-86.55C312.86,-74.24 375.79,-55 419.53,-41.63"/>
<polygon fill="#9a32cd" stroke="#9a32cd" points="271.39,-83.26 262.85,-89.53 273.44,-89.95 271.39,-83.26"/>
<text text-anchor="middle" x="365.5" y="-65.5" font-family="Helvetica" font-size="10.00"> value</text>
</g>
<!-- Node5 -->
<g id="node5" class="node">
<title>Node5</title>
<g id="a_node5"><a xlink:title="STL class.">
<polygon fill="white" stroke="#bfbfbf" points="0,-83.5 0,-113.5 95,-113.5 95,-83.5 0,-83.5"/>
<text text-anchor="start" x="8" y="-101.5" font-family="Helvetica" font-size="10.00">std::basic_string&lt;</text>
<text text-anchor="middle" x="47.5" y="-90.5" font-family="Helvetica" font-size="10.00"> char &gt;</text>
</a>
</g>
</g>
<!-- Node5&#45;&gt;Node4 -->
<g id="edge4" class="edge">
<title>Node5&#45;&gt;Node4</title>
<path fill="none" stroke="midnightblue" d="M105.33,-98.5C137.5,-98.5 176.36,-98.5 202.38,-98.5"/>
<polygon fill="midnightblue" stroke="midnightblue" points="105.15,-95 95.15,-98.5 105.15,-102 105.15,-95"/>
</g>
<!-- Node6&#45;&gt;Node1 -->
<g id="edge5" class="edge">
<title>Node6&#45;&gt;Node1</title>
<path fill="none" stroke="#9a32cd" stroke-dasharray="5,2" d="M789.06,-53.14C809.54,-56.55 830.93,-60.1 849.98,-63.27"/>
<polygon fill="#9a32cd" stroke="#9a32cd" points="789.52,-49.67 779.08,-51.48 788.37,-56.58 789.52,-49.67"/>
<text text-anchor="middle" x="814.5" y="-63.5" font-family="Helvetica" font-size="10.00"> sysctls</text>
</g>
<!-- Node7&#45;&gt;Node6 -->
<g id="edge7" class="edge">
<title>Node7&#45;&gt;Node6</title>
<path fill="none" stroke="#9a32cd" stroke-dasharray="5,2" d="M552.55,-29.14C569.24,-29.81 586.69,-30.6 603,-31.5 608.84,-31.82 614.88,-32.19 620.95,-32.58"/>
<polygon fill="#9a32cd" stroke="#9a32cd" points="552.4,-25.63 542.27,-28.74 552.12,-32.63 552.4,-25.63"/>
<text text-anchor="middle" x="581.5" y="-34.5" font-family="Helvetica" font-size="10.00"> elements</text>
</g>
<!-- Node8 -->
<g id="node8" class="node">
<title>Node8</title>
<g id="a_node8"><a xlink:href="classanonymous__namespace_02libloadplay_8cpp_03_1_1Callback.html" target="_top" xlink:title=" ">
<polygon fill="white" stroke="black" points="132,-0.5 132,-52.5 333,-52.5 333,-0.5 132,-0.5"/>
<text text-anchor="start" x="140" y="-40.5" font-family="Helvetica" font-size="10.00">anonymous_namespace</text>
<text text-anchor="start" x="140" y="-29.5" font-family="Helvetica" font-size="10.00">{libloadplay.cpp}::Callback</text>
<text text-anchor="start" x="140" y="-18.5" font-family="Helvetica" font-size="10.00">&lt; anonymous_namespace{libloadplay.cpp}</text>
<text text-anchor="middle" x="232.5" y="-7.5" font-family="Helvetica" font-size="10.00">::SysctlValue &amp; &gt;</text>
</a>
</g>
</g>
<!-- Node8&#45;&gt;Node7 -->
<g id="edge8" class="edge">
<title>Node8&#45;&gt;Node7</title>
<path fill="none" stroke="#9a32cd" stroke-dasharray="5,2" d="M343.26,-26.5C361.75,-26.5 380.5,-26.5 397.67,-26.5"/>
<polygon fill="#9a32cd" stroke="#9a32cd" points="343.03,-23 333.03,-26.5 343.03,-30 343.03,-23"/>
<text text-anchor="middle" x="365.5" y="-29.5" font-family="Helvetica" font-size="10.00"> onSet</text>
</g>
</g>
</svg>
