<?xml version="1.0" encoding="UTF-8" standalone="no"?>
<!DOCTYPE svg PUBLIC "-//W3C//DTD SVG 1.1//EN"
 "http://www.w3.org/Graphics/SVG/1.1/DTD/svg11.dtd">
<!-- Generated by graphviz version 2.40.1 (20161225.0304)
 -->
<!-- Title: anonymous_namespace{libloadplay.cpp}::Main Pages: 1 -->
<svg width="176pt" height="128pt"
 viewBox="0.00 0.00 176.00 128.00" xmlns="http://www.w3.org/2000/svg" xmlns:xlink="http://www.w3.org/1999/xlink">
<g id="graph0" class="graph" transform="scale(1 1) rotate(0) translate(4 124)">
<title>anonymous_namespace{libloadplay.cpp}::Main</title>
<polygon fill="#ffffff" stroke="transparent" points="-4,4 -4,-124 172,-124 172,4 -4,4"/>
<!-- Node1 -->
<g id="node1" class="node">
<title>Node1</title>
<g id="a_node1"><a xlink:title="Singleton class representing the main execution environment.">
<polygon fill="#bfbfbf" stroke="#000000" points="28.5,-.5 28.5,-30.5 150.5,-30.5 150.5,-.5 28.5,-.5"/>
<text text-anchor="start" x="36.5" y="-18.5" font-family="Helvetica,sans-Serif" font-size="10.00" fill="#000000">anonymous_namespace</text>
<text text-anchor="middle" x="89.5" y="-7.5" font-family="Helvetica,sans-Serif" font-size="10.00" fill="#000000">{libloadplay.cpp}::Main</text>
</a>
</g>
</g>
<!-- Node2 -->
<g id="node2" class="node">
<title>Node2</title>
<g id="a_node2"><a xlink:href="namespacesys_1_1io.html#namespacesys_1_1io" target="_top" xlink:title=" ">
<polygon fill="#ffffff" stroke="#000000" points="0,-89.5 0,-119.5 87,-119.5 87,-89.5 0,-89.5"/>
<text text-anchor="start" x="8" y="-107.5" font-family="Helvetica,sans-Serif" font-size="10.00" fill="#000000">sys::io::file&lt; io::</text>
<text text-anchor="middle" x="43.5" y="-96.5" font-family="Helvetica,sans-Serif" font-size="10.00" fill="#000000">own &gt;</text>
</a>
</g>
</g>
<!-- Node2&#45;&gt;Node1 -->
<g id="edge1" class="edge">
<title>Node2&#45;&gt;Node1</title>
<path fill="none" stroke="#9a32cd" stroke-dasharray="5,2" d="M56.0544,-80.2099C64.2299,-64.3921 74.6411,-44.2487 81.6584,-30.6717"/>
<polygon fill="#9a32cd" stroke="#9a32cd" points="52.7856,-78.9117 51.3033,-89.4024 59.0041,-82.1258 52.7856,-78.9117"/>
<text text-anchor="middle" x="81" y="-63" font-family="Helvetica,sans-Serif" font-size="10.00" fill="#000000"> fin</text>
<text text-anchor="middle" x="81" y="-52" font-family="Helvetica,sans-Serif" font-size="10.00" fill="#000000">fout</text>
</g>
<!-- Node3 -->
<g id="node3" class="node">
<title>Node3</title>
<g id="a_node3"><a xlink:title="STL class.">
<polygon fill="#ffffff" stroke="#bfbfbf" points="105,-95 105,-114 168,-114 168,-95 105,-95"/>
<text text-anchor="middle" x="136.5" y="-102" font-family="Helvetica,sans-Serif" font-size="10.00" fill="#000000">std::thread</text>
</a>
</g>
</g>
<!-- Node3&#45;&gt;Node1 -->
<g id="edge2" class="edge">
<title>Node3&#45;&gt;Node1</title>
<path fill="none" stroke="#9a32cd" stroke-dasharray="5,2" d="M126.6341,-85.8177C117.9637,-69.3993 105.5078,-45.8126 97.4596,-30.5725"/>
<polygon fill="#9a32cd" stroke="#9a32cd" points="123.7054,-87.7672 131.4702,-94.9754 129.8953,-84.4983 123.7054,-87.7672"/>
<text text-anchor="middle" x="139" y="-57.5" font-family="Helvetica,sans-Serif" font-size="10.00" fill="#000000"> bgthread</text>
</g>
</g>
</svg>
