<?xml version="1.0" encoding="UTF-8" standalone="no"?>
<!DOCTYPE svg PUBLIC "-//W3C//DTD SVG 1.1//EN"
 "http://www.w3.org/Graphics/SVG/1.1/DTD/svg11.dtd">
<!-- Generated by graphviz version 2.40.1 (20161225.0304)
 -->
<!-- Title: anonymous_namespace{loadplay.cpp}::Sysctls Pages: 1 -->
<svg width="963pt" height="144pt"
 viewBox="0.00 0.00 963.00 144.00" xmlns="http://www.w3.org/2000/svg" xmlns:xlink="http://www.w3.org/1999/xlink">
<g id="graph0" class="graph" transform="scale(1 1) rotate(0) translate(4 140)">
<title>anonymous_namespace{loadplay.cpp}::Sysctls</title>
<polygon fill="#ffffff" stroke="transparent" points="-4,4 -4,-140 959,-140 959,4 -4,4"/>
<!-- Node1 -->
<g id="node1" class="node">
<title>Node1</title>
<g id="a_node1"><a xlink:title="Singleton class representing the sysctl table for this library.">
<polygon fill="#bfbfbf" stroke="#000000" points="833,-58.5 833,-88.5 955,-88.5 955,-58.5 833,-58.5"/>
<text text-anchor="start" x="841" y="-76.5" font-family="Helvetica,sans-Serif" font-size="10.00" fill="#000000">anonymous_namespace</text>
<text text-anchor="middle" x="894" y="-65.5" font-family="Helvetica,sans-Serif" font-size="10.00" fill="#000000">{loadplay.cpp}::Sysctls</text>
</a>
</g>
</g>
<!-- Node2 -->
<g id="node2" class="node">
<title>Node2</title>
<g id="a_node2"><a xlink:title=" ">
<polygon fill="#ffffff" stroke="#bfbfbf" points="616.5,-83.5 616.5,-135.5 749.5,-135.5 749.5,-83.5 616.5,-83.5"/>
<text text-anchor="start" x="624.5" y="-123.5" font-family="Helvetica,sans-Serif" font-size="10.00" fill="#000000">std::unordered_map</text>
<text text-anchor="start" x="624.5" y="-112.5" font-family="Helvetica,sans-Serif" font-size="10.00" fill="#000000">&lt; std::string, anonymous</text>
<text text-anchor="start" x="624.5" y="-101.5" font-family="Helvetica,sans-Serif" font-size="10.00" fill="#000000">_namespace{loadplay.cpp}</text>
<text text-anchor="middle" x="683" y="-90.5" font-family="Helvetica,sans-Serif" font-size="10.00" fill="#000000">::mib_t &gt;</text>
</a>
</g>
</g>
<!-- Node2&#45;&gt;Node1 -->
<g id="edge1" class="edge">
<title>Node2&#45;&gt;Node1</title>
<path fill="none" stroke="#9a32cd" stroke-dasharray="5,2" d="M759.8847,-96.3822C783.8467,-92.2939 809.9392,-87.8421 832.6866,-83.961"/>
<polygon fill="#9a32cd" stroke="#9a32cd" points="759.0306,-92.9773 749.7617,-98.1094 760.208,-99.8776 759.0306,-92.9773"/>
<text text-anchor="middle" x="797.5" y="-95.5" font-family="Helvetica,sans-Serif" font-size="10.00" fill="#000000"> mibs</text>
</g>
<!-- Node3 -->
<g id="node3" class="node">
<title>Node3</title>
<g id="a_node3"><a xlink:href="structanonymous__namespace_02loadplay_8cpp_03_1_1mib__t.html" target="_top" xlink:title="Represents MIB, but wraps it to provide the necessary operators to use it as an std::map key.">
<polygon fill="#ffffff" stroke="#000000" points="396,-60.5 396,-90.5 518,-90.5 518,-60.5 396,-60.5"/>
<text text-anchor="start" x="404" y="-78.5" font-family="Helvetica,sans-Serif" font-size="10.00" fill="#000000">anonymous_namespace</text>
<text text-anchor="middle" x="457" y="-67.5" font-family="Helvetica,sans-Serif" font-size="10.00" fill="#000000">{loadplay.cpp}::mib_t</text>
</a>
</g>
</g>
<!-- Node3&#45;&gt;Node2 -->
<g id="edge2" class="edge">
<title>Node3&#45;&gt;Node2</title>
<path fill="none" stroke="#9a32cd" stroke-dasharray="5,2" d="M528.3228,-86.23C556.4452,-90.4608 588.5727,-95.2941 616.2338,-99.4555"/>
<polygon fill="#9a32cd" stroke="#9a32cd" points="528.5683,-82.7276 518.1589,-84.7009 527.5269,-89.6497 528.5683,-82.7276"/>
<text text-anchor="middle" x="564.5" y="-97.5" font-family="Helvetica,sans-Serif" font-size="10.00" fill="#000000"> elements</text>
</g>
<!-- Node6 -->
<g id="node6" class="node">
<title>Node6</title>
<g id="a_node6"><a xlink:title=" ">
<polygon fill="#ffffff" stroke="#bfbfbf" points="604,-12.5 604,-64.5 762,-64.5 762,-12.5 604,-12.5"/>
<text text-anchor="start" x="612" y="-52.5" font-family="Helvetica,sans-Serif" font-size="10.00" fill="#000000">std::map&lt; anonymous</text>
<text text-anchor="start" x="612" y="-41.5" font-family="Helvetica,sans-Serif" font-size="10.00" fill="#000000">_namespace{loadplay.cpp}</text>
<text text-anchor="start" x="612" y="-30.5" font-family="Helvetica,sans-Serif" font-size="10.00" fill="#000000">::mib_t, anonymous_namespace</text>
<text text-anchor="middle" x="683" y="-19.5" font-family="Helvetica,sans-Serif" font-size="10.00" fill="#000000">{loadplay.cpp}::SysctlValue &gt;</text>
</a>
</g>
</g>
<!-- Node3&#45;&gt;Node6 -->
<g id="edge6" class="edge">
<title>Node3&#45;&gt;Node6</title>
<path fill="none" stroke="#9a32cd" stroke-dasharray="5,2" d="M528.2718,-63.8316C552.3239,-59.8939 579.3105,-55.4757 603.9289,-51.4453"/>
<polygon fill="#9a32cd" stroke="#9a32cd" points="527.462,-60.4175 518.1589,-65.4873 528.593,-67.3255 527.462,-60.4175"/>
<text text-anchor="middle" x="564.5" y="-64.5" font-family="Helvetica,sans-Serif" font-size="10.00" fill="#000000"> keys</text>
</g>
<!-- Node4 -->
<g id="node4" class="node">
<title>Node4</title>
<g id="a_node4"><a xlink:title="STL class.">
<polygon fill="#ffffff" stroke="#bfbfbf" points="198,-89 198,-108 258,-108 258,-89 198,-89"/>
<text text-anchor="middle" x="228" y="-96" font-family="Helvetica,sans-Serif" font-size="10.00" fill="#000000">std::string</text>
</a>
</g>
</g>
<!-- Node4&#45;&gt;Node2 -->
<g id="edge3" class="edge">
<title>Node4&#45;&gt;Node2</title>
<path fill="none" stroke="#9a32cd" stroke-dasharray="5,2" d="M268.5826,-100.3702C328.5612,-103.0315 444.4181,-107.7793 543,-109.5 566.9373,-109.9178 593.1804,-110.0141 616.411,-109.9745"/>
<polygon fill="#9a32cd" stroke="#9a32cd" points="268.5457,-96.8652 258.3992,-99.9146 268.2327,-103.8582 268.5457,-96.8652"/>
<text text-anchor="middle" x="457" y="-111.5" font-family="Helvetica,sans-Serif" font-size="10.00" fill="#000000"> keys</text>
</g>
<!-- Node7 -->
<g id="node7" class="node">
<title>Node7</title>
<g id="a_node7"><a xlink:href="classanonymous__namespace_02loadplay_8cpp_03_1_1SysctlValue.html" target="_top" xlink:title="Instances of this class represents a specific sysctl value.">
<polygon fill="#ffffff" stroke="#000000" points="389,-11.5 389,-41.5 525,-41.5 525,-11.5 389,-11.5"/>
<text text-anchor="start" x="397" y="-29.5" font-family="Helvetica,sans-Serif" font-size="10.00" fill="#000000">anonymous_namespace</text>
<text text-anchor="middle" x="457" y="-18.5" font-family="Helvetica,sans-Serif" font-size="10.00" fill="#000000">{loadplay.cpp}::SysctlValue</text>
</a>
</g>
</g>
<!-- Node4&#45;&gt;Node7 -->
<g id="edge9" class="edge">
<title>Node4&#45;&gt;Node7</title>
<path fill="none" stroke="#9a32cd" stroke-dasharray="5,2" d="M268.1624,-85.8725C307.3915,-73.5385 367.1263,-54.7572 408.8763,-41.6306"/>
<polygon fill="#9a32cd" stroke="#9a32cd" points="266.8992,-82.6007 258.4094,-88.939 268.9988,-89.2784 266.8992,-82.6007"/>
<text text-anchor="middle" x="356.5" y="-65.5" font-family="Helvetica,sans-Serif" font-size="10.00" fill="#000000"> value</text>
</g>
<!-- Node5 -->
<g id="node5" class="node">
<title>Node5</title>
<g id="a_node5"><a xlink:title="STL class.">
<polygon fill="#ffffff" stroke="#bfbfbf" points="0,-83.5 0,-113.5 95,-113.5 95,-83.5 0,-83.5"/>
<text text-anchor="start" x="8" y="-101.5" font-family="Helvetica,sans-Serif" font-size="10.00" fill="#000000">std::basic_string&lt;</text>
<text text-anchor="middle" x="47.5" y="-90.5" font-family="Helvetica,sans-Serif" font-size="10.00" fill="#000000"> char &gt;</text>
</a>
</g>
</g>
<!-- Node5&#45;&gt;Node4 -->
<g id="edge4" class="edge">
<title>Node5&#45;&gt;Node4</title>
<path fill="none" stroke="#191970" d="M105.5618,-98.5C136.254,-98.5 172.6617,-98.5 197.7542,-98.5"/>
<polygon fill="#191970" stroke="#191970" points="105.3968,-95.0001 95.3968,-98.5 105.3968,-102.0001 105.3968,-95.0001"/>
</g>
<!-- Node6&#45;&gt;Node1 -->
<g id="edge5" class="edge">
<title>Node6&#45;&gt;Node1</title>
<path fill="none" stroke="#9a32cd" stroke-dasharray="5,2" d="M772.131,-53.2848C792.5903,-56.6785 813.8914,-60.2119 832.855,-63.3575"/>
<polygon fill="#9a32cd" stroke="#9a32cd" points="772.6069,-49.816 762.1689,-51.6323 771.4614,-56.7216 772.6069,-49.816"/>
<text text-anchor="middle" x="797.5" y="-63.5" font-family="Helvetica,sans-Serif" font-size="10.00" fill="#000000"> sysctls</text>
</g>
<!-- Node7&#45;&gt;Node6 -->
<g id="edge7" class="edge">
<title>Node7&#45;&gt;Node6</title>
<path fill="none" stroke="#9a32cd" stroke-dasharray="5,2" d="M535.5561,-29.1271C552.2149,-29.8012 569.6918,-30.5958 586,-31.5 591.8161,-31.8225 597.8262,-32.1852 603.8725,-32.5714"/>
<polygon fill="#9a32cd" stroke="#9a32cd" points="535.4373,-25.6197 525.3071,-28.723 535.1615,-32.6143 535.4373,-25.6197"/>
<text text-anchor="middle" x="564.5" y="-34.5" font-family="Helvetica,sans-Serif" font-size="10.00" fill="#000000"> elements</text>
</g>
<!-- Node8 -->
<g id="node8" class="node">
<title>Node8</title>
<g id="a_node8"><a xlink:href="classanonymous__namespace_02loadplay_8cpp_03_1_1Callback.html" target="_top" xlink:title=" ">
<polygon fill="#ffffff" stroke="#000000" points="132,-.5 132,-52.5 324,-52.5 324,-.5 132,-.5"/>
<text text-anchor="start" x="140" y="-40.5" font-family="Helvetica,sans-Serif" font-size="10.00" fill="#000000">anonymous_namespace</text>
<text text-anchor="start" x="140" y="-29.5" font-family="Helvetica,sans-Serif" font-size="10.00" fill="#000000">{loadplay.cpp}::Callback</text>
<text text-anchor="start" x="140" y="-18.5" font-family="Helvetica,sans-Serif" font-size="10.00" fill="#000000">&lt; anonymous_namespace{loadplay.cpp}</text>
<text text-anchor="middle" x="228" y="-7.5" font-family="Helvetica,sans-Serif" font-size="10.00" fill="#000000">::SysctlValue &amp; &gt;</text>
</a>
</g>
</g>
<!-- Node8&#45;&gt;Node7 -->
<g id="edge8" class="edge">
<title>Node8&#45;&gt;Node7</title>
<path fill="none" stroke="#9a32cd" stroke-dasharray="5,2" d="M334.1305,-26.5C352.7696,-26.5 371.706,-26.5 388.95,-26.5"/>
<polygon fill="#9a32cd" stroke="#9a32cd" points="334.1213,-23.0001 324.1213,-26.5 334.1212,-30.0001 334.1213,-23.0001"/>
<text text-anchor="middle" x="356.5" y="-29.5" font-family="Helvetica,sans-Serif" font-size="10.00" fill="#000000"> onSet</text>
</g>
</g>
</svg>
