<?xml version="1.0" encoding="UTF-8" standalone="no"?>
<!DOCTYPE svg PUBLIC "-//W3C//DTD SVG 1.1//EN"
 "http://www.w3.org/Graphics/SVG/1.1/DTD/svg11.dtd">
<!-- Generated by graphviz version 2.42.2 ()
 -->
<!-- Title: anonymous_namespace{libloadplay.cpp}::Sysctls Pages: 1 -->
<svg width="987pt" height="187pt"
 viewBox="0.00 0.00 987.00 187.00" xmlns="http://www.w3.org/2000/svg" xmlns:xlink="http://www.w3.org/1999/xlink">
<g id="graph0" class="graph" transform="scale(1 1) rotate(0) translate(4 183)">
<title>anonymous_namespace{libloadplay.cpp}::Sysctls</title>
<polygon fill="white" stroke="transparent" points="-4,4 -4,-183 983,-183 983,4 -4,4"/>
<!-- Node1 -->
<g id="node1" class="node">
<title>Node1</title>
<g id="a_node1"><a xlink:title="Singleton class representing the sysctl table for this library.">
<polygon fill="#bfbfbf" stroke="black" points="853,-66.5 853,-96.5 979,-96.5 979,-66.5 853,-66.5"/>
<text text-anchor="start" x="861" y="-84.5" font-family="Helvetica,sans-Serif" font-size="10.00">anonymous_namespace</text>
<text text-anchor="middle" x="916" y="-73.5" font-family="Helvetica,sans-Serif" font-size="10.00">{libloadplay.cpp}::Sysctls</text>
</a>
</g>
</g>
<!-- Node2 -->
<g id="node2" class="node">
<title>Node2</title>
<g id="a_node2"><a xlink:title=" ">
<polygon fill="white" stroke="#bfbfbf" points="631.5,-126.5 631.5,-178.5 774.5,-178.5 774.5,-126.5 631.5,-126.5"/>
<text text-anchor="start" x="639.5" y="-166.5" font-family="Helvetica,sans-Serif" font-size="10.00">std::unordered_map</text>
<text text-anchor="start" x="639.5" y="-155.5" font-family="Helvetica,sans-Serif" font-size="10.00">&lt; std::string, anonymous</text>
<text text-anchor="start" x="639.5" y="-144.5" font-family="Helvetica,sans-Serif" font-size="10.00">_namespace{libloadplay.cpp}</text>
<text text-anchor="middle" x="703" y="-133.5" font-family="Helvetica,sans-Serif" font-size="10.00">::mib_t &gt;</text>
</a>
</g>
</g>
<!-- Node2&#45;&gt;Node1 -->
<g id="edge1" class="edge">
<title>Node2&#45;&gt;Node1</title>
<path fill="none" stroke="#9a32cd" stroke-dasharray="5,2" d="M784.32,-125.47C813.48,-115.66 845.36,-104.93 870.33,-96.53"/>
<polygon fill="#9a32cd" stroke="#9a32cd" points="782.91,-122.25 774.55,-128.76 785.15,-128.89 782.91,-122.25"/>
<text text-anchor="middle" x="817.5" y="-121.5" font-family="Helvetica,sans-Serif" font-size="10.00"> mibs</text>
</g>
<!-- Node3 -->
<g id="node3" class="node">
<title>Node3</title>
<g id="a_node3"><a xlink:href="structanonymous__namespace_02libloadplay_8cpp_03_1_1mib__t.html" target="_top" xlink:title="Represents MIB, but wraps it to provide the necessary operators to use it as an std::map key.">
<polygon fill="white" stroke="black" points="411,-98.5 411,-128.5 533,-128.5 533,-98.5 411,-98.5"/>
<text text-anchor="start" x="419" y="-116.5" font-family="Helvetica,sans-Serif" font-size="10.00">anonymous_namespace</text>
<text text-anchor="middle" x="472" y="-105.5" font-family="Helvetica,sans-Serif" font-size="10.00">{libloadplay.cpp}::mib_t</text>
</a>
</g>
</g>
<!-- Node3&#45;&gt;Node2 -->
<g id="edge2" class="edge">
<title>Node3&#45;&gt;Node2</title>
<path fill="none" stroke="#9a32cd" stroke-dasharray="5,2" d="M543.26,-125.46C571.19,-130.22 603.28,-135.69 631.26,-140.45"/>
<polygon fill="#9a32cd" stroke="#9a32cd" points="543.61,-121.98 533.17,-123.75 542.44,-128.88 543.61,-121.98"/>
<text text-anchor="middle" x="584.5" y="-137.5" font-family="Helvetica,sans-Serif" font-size="10.00"> elements</text>
</g>
<!-- Node7 -->
<g id="node7" class="node">
<title>Node7</title>
<g id="a_node7"><a xlink:title=" ">
<polygon fill="white" stroke="#bfbfbf" points="624,-55.5 624,-107.5 782,-107.5 782,-55.5 624,-55.5"/>
<text text-anchor="start" x="632" y="-95.5" font-family="Helvetica,sans-Serif" font-size="10.00">std::map&lt; anonymous</text>
<text text-anchor="start" x="632" y="-84.5" font-family="Helvetica,sans-Serif" font-size="10.00">_namespace{libloadplay.cpp}</text>
<text text-anchor="start" x="632" y="-73.5" font-family="Helvetica,sans-Serif" font-size="10.00">::mib_t, anonymous_namespace</text>
<text text-anchor="middle" x="703" y="-62.5" font-family="Helvetica,sans-Serif" font-size="10.00">{libloadplay.cpp}::SysctlValue &gt;</text>
</a>
</g>
</g>
<!-- Node3&#45;&gt;Node7 -->
<g id="edge7" class="edge">
<title>Node3&#45;&gt;Node7</title>
<path fill="none" stroke="#9a32cd" stroke-dasharray="5,2" d="M543.12,-103.7C568.6,-100.14 597.55,-96.1 623.7,-92.44"/>
<polygon fill="#9a32cd" stroke="#9a32cd" points="542.59,-100.24 533.17,-105.09 543.56,-107.17 542.59,-100.24"/>
<text text-anchor="middle" x="584.5" y="-102.5" font-family="Helvetica,sans-Serif" font-size="10.00"> keys</text>
</g>
<!-- Node4 -->
<g id="node4" class="node">
<title>Node4</title>
<g id="a_node4"><a xlink:title="STL class.">
<polygon fill="white" stroke="#bfbfbf" points="203,-121 203,-140 263,-140 263,-121 203,-121"/>
<text text-anchor="middle" x="233" y="-128" font-family="Helvetica,sans-Serif" font-size="10.00">std::string</text>
</a>
</g>
</g>
<!-- Node4&#45;&gt;Node2 -->
<g id="edge3" class="edge">
<title>Node4&#45;&gt;Node2</title>
<path fill="none" stroke="#9a32cd" stroke-dasharray="5,2" d="M273.08,-133.22C334.69,-137.39 458.16,-145.34 563,-149.5 585.19,-150.38 609.38,-151.01 631.27,-151.47"/>
<polygon fill="#9a32cd" stroke="#9a32cd" points="273.24,-129.72 263.03,-132.53 272.77,-136.7 273.24,-129.72"/>
<text text-anchor="middle" x="472" y="-151.5" font-family="Helvetica,sans-Serif" font-size="10.00"> keys</text>
</g>
<!-- Node8 -->
<g id="node8" class="node">
<title>Node8</title>
<g id="a_node8"><a xlink:href="classanonymous__namespace_02libloadplay_8cpp_03_1_1SysctlValue.html" target="_top" xlink:title="Instances of this class represents a specific sysctl value.">
<polygon fill="white" stroke="black" points="399,-49.5 399,-79.5 545,-79.5 545,-49.5 399,-49.5"/>
<text text-anchor="start" x="407" y="-67.5" font-family="Helvetica,sans-Serif" font-size="10.00">anonymous_namespace</text>
<text text-anchor="middle" x="472" y="-56.5" font-family="Helvetica,sans-Serif" font-size="10.00">{libloadplay.cpp}::SysctlValue</text>
</a>
</g>
</g>
<!-- Node4&#45;&gt;Node8 -->
<g id="edge11" class="edge">
<title>Node4&#45;&gt;Node8</title>
<path fill="none" stroke="#9a32cd" stroke-dasharray="5,2" d="M272.78,-119.7C311.99,-108.78 372.91,-91.82 416.87,-79.57"/>
<polygon fill="#9a32cd" stroke="#9a32cd" points="271.76,-116.35 263.06,-122.41 273.63,-123.1 271.76,-116.35"/>
<text text-anchor="middle" x="366.5" y="-100.5" font-family="Helvetica,sans-Serif" font-size="10.00"> value</text>
</g>
<!-- Node5 -->
<g id="node5" class="node">
<title>Node5</title>
<g id="a_node5"><a xlink:title="STL class.">
<polygon fill="white" stroke="#bfbfbf" points="0,-115.5 0,-145.5 95,-145.5 95,-115.5 0,-115.5"/>
<text text-anchor="start" x="8" y="-133.5" font-family="Helvetica,sans-Serif" font-size="10.00">std::basic_string&lt;</text>
<text text-anchor="middle" x="47.5" y="-122.5" font-family="Helvetica,sans-Serif" font-size="10.00"> char &gt;</text>
</a>
</g>
</g>
<!-- Node5&#45;&gt;Node4 -->
<g id="edge4" class="edge">
<title>Node5&#45;&gt;Node4</title>
<path fill="none" stroke="midnightblue" d="M105.49,-130.5C137.74,-130.5 176.71,-130.5 202.8,-130.5"/>
<polygon fill="midnightblue" stroke="midnightblue" points="105.28,-127 95.28,-130.5 105.28,-134 105.28,-127"/>
</g>
<!-- Node6 -->
<g id="node6" class="node">
<title>Node6</title>
<g id="a_node6"><a xlink:title="STL class.">
<polygon fill="white" stroke="#bfbfbf" points="671.5,-17 671.5,-36 734.5,-36 734.5,-17 671.5,-17"/>
<text text-anchor="middle" x="703" y="-24" font-family="Helvetica,sans-Serif" font-size="10.00">std::mutex</text>
</a>
</g>
</g>
<!-- Node6&#45;&gt;Node1 -->
<g id="edge5" class="edge">
<title>Node6&#45;&gt;Node1</title>
<path fill="none" stroke="#9a32cd" stroke-dasharray="5,2" d="M744.6,-36.18C756.65,-39.11 769.87,-42.38 782,-45.5 807.95,-52.17 836.65,-59.9 860.73,-66.47"/>
<polygon fill="#9a32cd" stroke="#9a32cd" points="745.34,-32.76 734.79,-33.81 743.69,-39.56 745.34,-32.76"/>
<text text-anchor="middle" x="817.5" y="-62.5" font-family="Helvetica,sans-Serif" font-size="10.00"> mtx</text>
</g>
<!-- Node7&#45;&gt;Node1 -->
<g id="edge6" class="edge">
<title>Node7&#45;&gt;Node1</title>
<path fill="none" stroke="#9a32cd" stroke-dasharray="5,2" d="M792.44,-81.5C812.69,-81.5 833.79,-81.5 852.67,-81.5"/>
<polygon fill="#9a32cd" stroke="#9a32cd" points="792.27,-78 782.27,-81.5 792.27,-85 792.27,-78"/>
<text text-anchor="middle" x="817.5" y="-84.5" font-family="Helvetica,sans-Serif" font-size="10.00"> sysctls</text>
</g>
<!-- Node8&#45;&gt;Node7 -->
<g id="edge8" class="edge">
<title>Node8&#45;&gt;Node7</title>
<path fill="none" stroke="#9a32cd" stroke-dasharray="5,2" d="M555.49,-67.33C572.22,-68.16 589.69,-69.2 606,-70.5 611.85,-70.97 617.9,-71.51 623.98,-72.1"/>
<polygon fill="#9a32cd" stroke="#9a32cd" points="555.34,-63.82 545.19,-66.85 555.01,-70.82 555.34,-63.82"/>
<text text-anchor="middle" x="584.5" y="-73.5" font-family="Helvetica,sans-Serif" font-size="10.00"> elements</text>
</g>
<!-- Node9 -->
<g id="node9" class="node">
<title>Node9</title>
<g id="a_node9"><a xlink:href="classanonymous__namespace_02libloadplay_8cpp_03_1_1Callback.html" target="_top" xlink:title=" ">
<polygon fill="white" stroke="black" points="132,-0.5 132,-52.5 334,-52.5 334,-0.5 132,-0.5"/>
<text text-anchor="start" x="140" y="-40.5" font-family="Helvetica,sans-Serif" font-size="10.00">anonymous_namespace</text>
<text text-anchor="start" x="140" y="-29.5" font-family="Helvetica,sans-Serif" font-size="10.00">{libloadplay.cpp}::Callback</text>
<text text-anchor="start" x="140" y="-18.5" font-family="Helvetica,sans-Serif" font-size="10.00">&lt; anonymous_namespace{libloadplay.cpp}</text>
<text text-anchor="middle" x="233" y="-7.5" font-family="Helvetica,sans-Serif" font-size="10.00">::SysctlValue &amp; &gt;</text>
</a>
</g>
</g>
<!-- Node9&#45;&gt;Node8 -->
<g id="edge9" class="edge">
<title>Node9&#45;&gt;Node8</title>
<path fill="none" stroke="#9a32cd" stroke-dasharray="5,2" d="M344.14,-44.16C362.72,-47.14 381.57,-50.16 398.86,-52.93"/>
<polygon fill="#9a32cd" stroke="#9a32cd" points="344.59,-40.69 334.17,-42.56 343.49,-47.6 344.59,-40.69"/>
<text text-anchor="middle" x="366.5" y="-53.5" font-family="Helvetica,sans-Serif" font-size="10.00"> onSet</text>
</g>
<!-- Node10 -->
<g id="node10" class="node">
<title>Node10</title>
<g id="a_node10"><a xlink:title="STL class.">
<polygon fill="white" stroke="#bfbfbf" points="179,-72 179,-91 287,-91 287,-72 179,-72"/>
<text text-anchor="middle" x="233" y="-79" font-family="Helvetica,sans-Serif" font-size="10.00">std::recursive_mutex</text>
</a>
</g>
</g>
<!-- Node10&#45;&gt;Node8 -->
<g id="edge10" class="edge">
<title>Node10&#45;&gt;Node8</title>
<path fill="none" stroke="#9a32cd" stroke-dasharray="5,2" d="M297.49,-76.95C328.67,-74.71 366.38,-72 398.67,-69.69"/>
<polygon fill="#9a32cd" stroke="#9a32cd" points="296.91,-73.48 287.19,-77.68 297.41,-80.46 296.91,-73.48"/>
<text text-anchor="middle" x="366.5" y="-76.5" font-family="Helvetica,sans-Serif" font-size="10.00"> mtx</text>
</g>
</g>
</svg>
