<?xml version="1.0" encoding="UTF-8" standalone="no"?>
<!DOCTYPE svg PUBLIC "-//W3C//DTD SVG 1.1//EN"
 "http://www.w3.org/Graphics/SVG/1.1/DTD/svg11.dtd">
<!-- Generated by graphviz version 2.40.1 (20161225.0304)
 -->
<!-- Title: anonymous_namespace{loadplay.cpp}::Main Pages: 1 -->
<svg width="130pt" height="106pt"
 viewBox="0.00 0.00 130.00 106.00" xmlns="http://www.w3.org/2000/svg" xmlns:xlink="http://www.w3.org/1999/xlink">
<g id="graph0" class="graph" transform="scale(1 1) rotate(0) translate(4 102)">
<title>anonymous_namespace{loadplay.cpp}::Main</title>
<polygon fill="#ffffff" stroke="transparent" points="-4,4 -4,-102 126,-102 126,4 -4,4"/>
<!-- Node1 -->
<g id="node1" class="node">
<title>Node1</title>
<polygon fill="#bfbfbf" stroke="#000000" points="0,-.5 0,-30.5 122,-30.5 122,-.5 0,-.5"/>
<text text-anchor="start" x="8" y="-18.5" font-family="Helvetica,sans-Serif" font-size="10.00" fill="#000000">anonymous_namespace</text>
<text text-anchor="middle" x="61" y="-7.5" font-family="Helvetica,sans-Serif" font-size="10.00" fill="#000000">{loadplay.cpp}::Main</text>
</g>
<!-- Node2 -->
<g id="node2" class="node">
<title>Node2</title>
<g id="a_node2"><a xlink:title="STL class. ">
<polygon fill="#ffffff" stroke="#bfbfbf" points="29.5,-78.5 29.5,-97.5 92.5,-97.5 92.5,-78.5 29.5,-78.5"/>
<text text-anchor="middle" x="61" y="-85.5" font-family="Helvetica,sans-Serif" font-size="10.00" fill="#000000">std::thread</text>
</a>
</g>
</g>
<!-- Node2&#45;&gt;Node1 -->
<g id="edge1" class="edge">
<title>Node2&#45;&gt;Node1</title>
<path fill="none" stroke="#9a32cd" stroke-dasharray="5,2" d="M61,-68.0177C61,-56.2164 61,-41.513 61,-30.668"/>
<polygon fill="#9a32cd" stroke="#9a32cd" points="57.5001,-68.2223 61,-78.2223 64.5001,-68.2224 57.5001,-68.2223"/>
<text text-anchor="middle" x="81.5" y="-52" font-family="Helvetica,sans-Serif" font-size="10.00" fill="#000000"> bgthread</text>
</g>
</g>
</svg>
