<?xml version="1.0" encoding="UTF-8" standalone="no"?>
<!DOCTYPE svg PUBLIC "-//W3C//DTD SVG 1.1//EN"
 "http://www.w3.org/Graphics/SVG/1.1/DTD/svg11.dtd">
<!-- Generated by graphviz version 2.42.2 ()
 -->
<!-- Title: sys::io::file_feature&lt; FileT, seek, Tail ... &gt; Pages: 1 -->
<svg width="124pt" height="106pt"
 viewBox="0.00 0.00 124.00 106.00" xmlns="http://www.w3.org/2000/svg" xmlns:xlink="http://www.w3.org/1999/xlink">
<g id="graph0" class="graph" transform="scale(1 1) rotate(0) translate(4 102)">
<title>sys::io::file_feature&lt; FileT, seek, Tail ... &gt;</title>
<polygon fill="white" stroke="transparent" points="-4,4 -4,-102 120,-102 120,4 -4,4"/>
<!-- Node1 -->
<g id="node1" class="node">
<title>Node1</title>
<g id="a_node1"><a xlink:title="Implement seek support for file types.">
<polygon fill="#bfbfbf" stroke="black" points="0,-0.5 0,-30.5 116,-30.5 116,-0.5 0,-0.5"/>
<text text-anchor="start" x="8" y="-18.5" font-family="Helvetica" font-size="10.00">sys::io::file_feature</text>
<text text-anchor="middle" x="58" y="-7.5" font-family="Helvetica" font-size="10.00">&lt; FileT, seek, Tail ... &gt;</text>
</a>
</g>
</g>
<!-- Node2 -->
<g id="node2" class="node">
<title>Node2</title>
<g id="a_node2"><a xlink:href="classsys_1_1io_1_1file__feature.html" target="_top" xlink:title=" ">
<polygon fill="white" stroke="black" points="8,-67.5 8,-97.5 108,-97.5 108,-67.5 8,-67.5"/>
<text text-anchor="start" x="16" y="-85.5" font-family="Helvetica" font-size="10.00">sys::io::file_feature</text>
<text text-anchor="middle" x="58" y="-74.5" font-family="Helvetica" font-size="10.00">&lt; FileT, Tail ... &gt;</text>
</a>
</g>
</g>
<!-- Node2&#45;&gt;Node1 -->
<g id="edge1" class="edge">
<title>Node2&#45;&gt;Node1</title>
<path fill="none" stroke="midnightblue" d="M58,-57.11C58,-48.15 58,-38.32 58,-30.58"/>
<polygon fill="midnightblue" stroke="midnightblue" points="54.5,-57.4 58,-67.4 61.5,-57.4 54.5,-57.4"/>
</g>
</g>
</svg>
