<?xml version="1.0" encoding="UTF-8" standalone="no"?>
<!DOCTYPE svg PUBLIC "-//W3C//DTD SVG 1.1//EN"
 "http://www.w3.org/Graphics/SVG/1.1/DTD/svg11.dtd">
<!-- Generated by graphviz version 2.40.1 (20161225.0304)
 -->
<!-- Title: anonymous_namespace{loadplay.cpp}::SysctlValue Pages: 1 -->
<svg width="533pt" height="105pt"
 viewBox="0.00 0.00 533.00 105.00" xmlns="http://www.w3.org/2000/svg" xmlns:xlink="http://www.w3.org/1999/xlink">
<g id="graph0" class="graph" transform="scale(1 1) rotate(0) translate(4 101)">
<title>anonymous_namespace{loadplay.cpp}::SysctlValue</title>
<polygon fill="#ffffff" stroke="transparent" points="-4,4 -4,-101 529,-101 529,4 -4,4"/>
<!-- Node1 -->
<g id="node1" class="node">
<title>Node1</title>
<polygon fill="#bfbfbf" stroke="#000000" points="389,-28.5 389,-58.5 525,-58.5 525,-28.5 389,-28.5"/>
<text text-anchor="start" x="397" y="-46.5" font-family="Helvetica,sans-Serif" font-size="10.00" fill="#000000">anonymous_namespace</text>
<text text-anchor="middle" x="457" y="-35.5" font-family="Helvetica,sans-Serif" font-size="10.00" fill="#000000">{loadplay.cpp}::SysctlValue</text>
</g>
<!-- Node2 -->
<g id="node2" class="node">
<title>Node2</title>
<g id="a_node2"><a xlink:title="STL class. ">
<polygon fill="#ffffff" stroke="#bfbfbf" points="198,-72 198,-91 258,-91 258,-72 198,-72"/>
<text text-anchor="middle" x="228" y="-79" font-family="Helvetica,sans-Serif" font-size="10.00" fill="#000000">std::string</text>
</a>
</g>
</g>
<!-- Node2&#45;&gt;Node1 -->
<g id="edge1" class="edge">
<title>Node2&#45;&gt;Node1</title>
<path fill="none" stroke="#9a32cd" stroke-dasharray="5,2" d="M268.6728,-74.7508C301.9436,-69.2299 349.7134,-61.303 388.8157,-54.8144"/>
<polygon fill="#9a32cd" stroke="#9a32cd" points="267.7016,-71.364 258.4094,-76.4539 268.8475,-78.2696 267.7016,-71.364"/>
<text text-anchor="middle" x="356.5" y="-65.5" font-family="Helvetica,sans-Serif" font-size="10.00" fill="#000000"> value</text>
</g>
<!-- Node3 -->
<g id="node3" class="node">
<title>Node3</title>
<g id="a_node3"><a xlink:title="STL class. ">
<polygon fill="#ffffff" stroke="#bfbfbf" points="0,-66.5 0,-96.5 95,-96.5 95,-66.5 0,-66.5"/>
<text text-anchor="start" x="8" y="-84.5" font-family="Helvetica,sans-Serif" font-size="10.00" fill="#000000">std::basic_string&lt;</text>
<text text-anchor="middle" x="47.5" y="-73.5" font-family="Helvetica,sans-Serif" font-size="10.00" fill="#000000"> char &gt;</text>
</a>
</g>
</g>
<!-- Node3&#45;&gt;Node2 -->
<g id="edge2" class="edge">
<title>Node3&#45;&gt;Node2</title>
<path fill="none" stroke="#191970" d="M105.5618,-81.5C136.254,-81.5 172.6617,-81.5 197.7542,-81.5"/>
<polygon fill="#191970" stroke="#191970" points="105.3968,-78.0001 95.3968,-81.5 105.3968,-85.0001 105.3968,-78.0001"/>
</g>
<!-- Node4 -->
<g id="node4" class="node">
<title>Node4</title>
<g id="a_node4"><a xlink:href="classanonymous__namespace_02loadplay_8cpp_03_1_1Callback.html" target="_top" xlink:title="anonymous_namespace\l\{loadplay.cpp\}::Callback\l\&lt; anonymous_namespace\{loadplay.cpp\}\l::SysctlValue &amp;\&gt;">
<polygon fill="#ffffff" stroke="#000000" points="132,-.5 132,-52.5 324,-52.5 324,-.5 132,-.5"/>
<text text-anchor="start" x="140" y="-40.5" font-family="Helvetica,sans-Serif" font-size="10.00" fill="#000000">anonymous_namespace</text>
<text text-anchor="start" x="140" y="-29.5" font-family="Helvetica,sans-Serif" font-size="10.00" fill="#000000">{loadplay.cpp}::Callback</text>
<text text-anchor="start" x="140" y="-18.5" font-family="Helvetica,sans-Serif" font-size="10.00" fill="#000000">&lt; anonymous_namespace{loadplay.cpp}</text>
<text text-anchor="middle" x="228" y="-7.5" font-family="Helvetica,sans-Serif" font-size="10.00" fill="#000000">::SysctlValue &amp;&gt;</text>
</a>
</g>
</g>
<!-- Node4&#45;&gt;Node1 -->
<g id="edge3" class="edge">
<title>Node4&#45;&gt;Node1</title>
<path fill="none" stroke="#9a32cd" stroke-dasharray="5,2" d="M334.1305,-34.3787C352.7696,-35.7624 371.706,-37.1681 388.95,-38.4483"/>
<polygon fill="#9a32cd" stroke="#9a32cd" points="334.353,-30.8857 324.1213,-33.6356 333.8347,-37.8664 334.353,-30.8857"/>
<text text-anchor="middle" x="356.5" y="-40.5" font-family="Helvetica,sans-Serif" font-size="10.00" fill="#000000"> onSet</text>
</g>
</g>
</svg>
