<?xml version="1.0" encoding="UTF-8" standalone="no"?>
<!DOCTYPE svg PUBLIC "-//W3C//DTD SVG 1.1//EN"
 "http://www.w3.org/Graphics/SVG/1.1/DTD/svg11.dtd">
<!-- Generated by graphviz version 2.40.1 (20161225.0304)
 -->
<!-- Title: anonymous_namespace{loadplay.cpp}::Emulator Pages: 1 -->
<svg width="923pt" height="196pt"
 viewBox="0.00 0.00 923.00 195.50" xmlns="http://www.w3.org/2000/svg" xmlns:xlink="http://www.w3.org/1999/xlink">
<g id="graph0" class="graph" transform="scale(1 1) rotate(0) translate(4 191.5)">
<title>anonymous_namespace{loadplay.cpp}::Emulator</title>
<polygon fill="#ffffff" stroke="transparent" points="-4,4 -4,-191.5 919,-191.5 919,4 -4,4"/>
<!-- Node1 -->
<g id="node1" class="node">
<title>Node1</title>
<polygon fill="#bfbfbf" stroke="#000000" points="793,-60 793,-90 915,-90 915,-60 793,-60"/>
<text text-anchor="start" x="801" y="-78" font-family="Helvetica,sans-Serif" font-size="10.00" fill="#000000">anonymous_namespace</text>
<text text-anchor="middle" x="854" y="-67" font-family="Helvetica,sans-Serif" font-size="10.00" fill="#000000">{loadplay.cpp}::Emulator</text>
</g>
<!-- Node2 -->
<g id="node2" class="node">
<title>Node2</title>
<g id="a_node2"><a xlink:href="classanonymous__namespace_02loadplay_8cpp_03_1_1SysctlValue.html" target="_top" xlink:title="Instances of this class represents a specific sysctl value. ">
<polygon fill="#ffffff" stroke="#000000" points="389,-124 389,-154 525,-154 525,-124 389,-124"/>
<text text-anchor="start" x="397" y="-142" font-family="Helvetica,sans-Serif" font-size="10.00" fill="#000000">anonymous_namespace</text>
<text text-anchor="middle" x="457" y="-131" font-family="Helvetica,sans-Serif" font-size="10.00" fill="#000000">{loadplay.cpp}::SysctlValue</text>
</a>
</g>
</g>
<!-- Node2&#45;&gt;Node1 -->
<g id="edge1" class="edge">
<title>Node2&#45;&gt;Node1</title>
<path fill="none" stroke="#9a32cd" stroke-dasharray="5,2" d="M535.1923,-141.7121C586.9961,-141.9645 656.1736,-139.3349 716,-127 753.9892,-119.1675 795.3454,-102.3939 822.7788,-90.0049"/>
<polygon fill="#9a32cd" stroke="#9a32cd" points="535.1008,-138.2113 525.0711,-141.6253 535.0407,-145.2111 535.1008,-138.2113"/>
<text text-anchor="middle" x="646" y="-144" font-family="Helvetica,sans-Serif" font-size="10.00" fill="#000000"> cp_times</text>
</g>
<!-- Node6 -->
<g id="node6" class="node">
<title>Node6</title>
<polygon fill="#ffffff" stroke="#bfbfbf" points="576,-76.5 576,-117.5 716,-117.5 716,-76.5 576,-76.5"/>
<text text-anchor="start" x="584" y="-105.5" font-family="Helvetica,sans-Serif" font-size="10.00" fill="#000000">std::unique_ptr&lt; anonymous</text>
<text text-anchor="start" x="584" y="-94.5" font-family="Helvetica,sans-Serif" font-size="10.00" fill="#000000">_namespace{loadplay.cpp}</text>
<text text-anchor="middle" x="646" y="-83.5" font-family="Helvetica,sans-Serif" font-size="10.00" fill="#000000">::SysctlValue *[]&gt;</text>
</g>
<!-- Node2&#45;&gt;Node6 -->
<g id="edge6" class="edge">
<title>Node2&#45;&gt;Node6</title>
<path fill="none" stroke="#9a32cd" stroke-dasharray="5,2" d="M534.5644,-121.7635C548.2547,-118.7212 562.4353,-115.5699 575.9056,-112.5765"/>
<polygon fill="#9a32cd" stroke="#9a32cd" points="533.7021,-118.3696 524.6995,-123.9557 535.2207,-125.2029 533.7021,-118.3696"/>
<text text-anchor="middle" x="550.5" y="-122" font-family="Helvetica,sans-Serif" font-size="10.00" fill="#000000"> ptr</text>
</g>
<!-- Node3 -->
<g id="node3" class="node">
<title>Node3</title>
<g id="a_node3"><a xlink:title="STL class. ">
<polygon fill="#ffffff" stroke="#bfbfbf" points="198,-162.5 198,-181.5 258,-181.5 258,-162.5 198,-162.5"/>
<text text-anchor="middle" x="228" y="-169.5" font-family="Helvetica,sans-Serif" font-size="10.00" fill="#000000">std::string</text>
</a>
</g>
</g>
<!-- Node3&#45;&gt;Node2 -->
<g id="edge2" class="edge">
<title>Node3&#45;&gt;Node2</title>
<path fill="none" stroke="#9a32cd" stroke-dasharray="5,2" d="M268.6728,-166.1389C301.9436,-161.3444 349.7134,-154.4605 388.8157,-148.8257"/>
<polygon fill="#9a32cd" stroke="#9a32cd" points="267.808,-162.7272 258.4094,-167.6179 268.8064,-169.6557 267.808,-162.7272"/>
<text text-anchor="middle" x="356.5" y="-158" font-family="Helvetica,sans-Serif" font-size="10.00" fill="#000000"> value</text>
</g>
<!-- Node4 -->
<g id="node4" class="node">
<title>Node4</title>
<g id="a_node4"><a xlink:title="STL class. ">
<polygon fill="#ffffff" stroke="#bfbfbf" points="0,-157 0,-187 95,-187 95,-157 0,-157"/>
<text text-anchor="start" x="8" y="-175" font-family="Helvetica,sans-Serif" font-size="10.00" fill="#000000">std::basic_string&lt;</text>
<text text-anchor="middle" x="47.5" y="-164" font-family="Helvetica,sans-Serif" font-size="10.00" fill="#000000"> char &gt;</text>
</a>
</g>
</g>
<!-- Node4&#45;&gt;Node3 -->
<g id="edge3" class="edge">
<title>Node4&#45;&gt;Node3</title>
<path fill="none" stroke="#191970" d="M105.5618,-172C136.254,-172 172.6617,-172 197.7542,-172"/>
<polygon fill="#191970" stroke="#191970" points="105.3968,-168.5001 95.3968,-172 105.3968,-175.5001 105.3968,-168.5001"/>
</g>
<!-- Node5 -->
<g id="node5" class="node">
<title>Node5</title>
<g id="a_node5"><a xlink:href="classanonymous__namespace_02loadplay_8cpp_03_1_1Callback.html" target="_top" xlink:title="anonymous_namespace\l\{loadplay.cpp\}::Callback\l\&lt; anonymous_namespace\{loadplay.cpp\}\l::SysctlValue &amp;\&gt;">
<polygon fill="#ffffff" stroke="#000000" points="132,-91 132,-143 324,-143 324,-91 132,-91"/>
<text text-anchor="start" x="140" y="-131" font-family="Helvetica,sans-Serif" font-size="10.00" fill="#000000">anonymous_namespace</text>
<text text-anchor="start" x="140" y="-120" font-family="Helvetica,sans-Serif" font-size="10.00" fill="#000000">{loadplay.cpp}::Callback</text>
<text text-anchor="start" x="140" y="-109" font-family="Helvetica,sans-Serif" font-size="10.00" fill="#000000">&lt; anonymous_namespace{loadplay.cpp}</text>
<text text-anchor="middle" x="228" y="-98" font-family="Helvetica,sans-Serif" font-size="10.00" fill="#000000">::SysctlValue &amp;&gt;</text>
</a>
</g>
</g>
<!-- Node5&#45;&gt;Node2 -->
<g id="edge4" class="edge">
<title>Node5&#45;&gt;Node2</title>
<path fill="none" stroke="#9a32cd" stroke-dasharray="5,2" d="M334.5223,-124.5976C346.8302,-125.6522 359.1954,-126.7918 371,-128 376.8398,-128.5977 382.8963,-129.2686 388.9678,-129.9765"/>
<polygon fill="#9a32cd" stroke="#9a32cd" points="334.4683,-121.0809 324.2106,-123.7321 333.8828,-128.0563 334.4683,-121.0809"/>
<text text-anchor="middle" x="356.5" y="-131" font-family="Helvetica,sans-Serif" font-size="10.00" fill="#000000"> onSet</text>
</g>
<!-- Node6&#45;&gt;Node1 -->
<g id="edge5" class="edge">
<title>Node6&#45;&gt;Node1</title>
<path fill="none" stroke="#9a32cd" stroke-dasharray="5,2" d="M726.1827,-88.5191C748.3304,-86.1766 772.0012,-83.673 792.8776,-81.4649"/>
<polygon fill="#9a32cd" stroke="#9a32cd" points="725.7057,-85.05 716.1293,-89.5825 726.442,-92.0111 725.7057,-85.05"/>
<text text-anchor="middle" x="754.5" y="-90" font-family="Helvetica,sans-Serif" font-size="10.00" fill="#000000"> freqs</text>
</g>
<!-- Node7 -->
<g id="node7" class="node">
<title>Node7</title>
<polygon fill="#ffffff" stroke="#bfbfbf" points="581.5,-38.5 581.5,-57.5 710.5,-57.5 710.5,-38.5 581.5,-38.5"/>
<text text-anchor="middle" x="646" y="-45.5" font-family="Helvetica,sans-Serif" font-size="10.00" fill="#000000">std::unique_ptr&lt; mhz_t[]&gt;</text>
</g>
<!-- Node7&#45;&gt;Node1 -->
<g id="edge7" class="edge">
<title>Node7&#45;&gt;Node1</title>
<path fill="none" stroke="#9a32cd" stroke-dasharray="5,2" d="M720.6784,-57.6938C744.3795,-60.7704 770.2932,-64.1342 792.9197,-67.0713"/>
<polygon fill="#9a32cd" stroke="#9a32cd" points="721.0397,-54.2114 710.6723,-56.395 720.1386,-61.1532 721.0397,-54.2114"/>
<text text-anchor="middle" x="754.5" y="-67" font-family="Helvetica,sans-Serif" font-size="10.00" fill="#000000"> freqRefs</text>
</g>
<!-- Node8 -->
<g id="node8" class="node">
<title>Node8</title>
<polygon fill="#ffffff" stroke="#bfbfbf" points="435,-38.5 435,-57.5 479,-57.5 479,-38.5 435,-38.5"/>
<text text-anchor="middle" x="457" y="-45.5" font-family="Helvetica,sans-Serif" font-size="10.00" fill="#000000">mhz_t</text>
</g>
<!-- Node8&#45;&gt;Node7 -->
<g id="edge8" class="edge">
<title>Node8&#45;&gt;Node7</title>
<path fill="none" stroke="#9a32cd" stroke-dasharray="5,2" d="M489.1416,-48C514.3156,-48 550.1542,-48 581.2213,-48"/>
<polygon fill="#9a32cd" stroke="#9a32cd" points="489.0506,-44.5001 479.0506,-48 489.0506,-51.5001 489.0506,-44.5001"/>
<text text-anchor="middle" x="550.5" y="-51" font-family="Helvetica,sans-Serif" font-size="10.00" fill="#000000"> ptr</text>
</g>
<!-- Node9 -->
<g id="node9" class="node">
<title>Node9</title>
<polygon fill="#ffffff" stroke="#bfbfbf" points="576,-.5 576,-19.5 716,-19.5 716,-.5 576,-.5"/>
<text text-anchor="middle" x="646" y="-7.5" font-family="Helvetica,sans-Serif" font-size="10.00" fill="#000000">std::unique_ptr&lt; cptime_t[]&gt;</text>
</g>
<!-- Node9&#45;&gt;Node1 -->
<g id="edge9" class="edge">
<title>Node9&#45;&gt;Node1</title>
<path fill="none" stroke="#9a32cd" stroke-dasharray="5,2" d="M726.3845,-20.3279C742.7137,-23.5369 759.597,-27.6803 775,-33 794.5272,-39.7441 815.0876,-50.817 830.3369,-59.9004"/>
<polygon fill="#9a32cd" stroke="#9a32cd" points="726.7793,-16.8413 716.3071,-18.4485 725.4959,-23.7226 726.7793,-16.8413"/>
<text text-anchor="middle" x="754.5" y="-47" font-family="Helvetica,sans-Serif" font-size="10.00" fill="#000000"> carry</text>
<text text-anchor="middle" x="754.5" y="-36" font-family="Helvetica,sans-Serif" font-size="10.00" fill="#000000">sum</text>
</g>
<!-- Node10 -->
<g id="node10" class="node">
<title>Node10</title>
<polygon fill="#ffffff" stroke="#bfbfbf" points="430,-.5 430,-19.5 484,-19.5 484,-.5 430,-.5"/>
<text text-anchor="middle" x="457" y="-7.5" font-family="Helvetica,sans-Serif" font-size="10.00" fill="#000000">cptime_t</text>
</g>
<!-- Node10&#45;&gt;Node9 -->
<g id="edge10" class="edge">
<title>Node10&#45;&gt;Node9</title>
<path fill="none" stroke="#9a32cd" stroke-dasharray="5,2" d="M494.1927,-10C517.4229,-10 548.0766,-10 575.7535,-10"/>
<polygon fill="#9a32cd" stroke="#9a32cd" points="494.0791,-6.5001 484.0791,-10 494.0791,-13.5001 494.0791,-6.5001"/>
<text text-anchor="middle" x="550.5" y="-13" font-family="Helvetica,sans-Serif" font-size="10.00" fill="#000000"> ptr</text>
</g>
</g>
</svg>
