<?xml version="1.0" encoding="UTF-8" standalone="no"?>
<!DOCTYPE svg PUBLIC "-//W3C//DTD SVG 1.1//EN"
 "http://www.w3.org/Graphics/SVG/1.1/DTD/svg11.dtd">
<!-- Generated by graphviz version 2.40.1 (20161225.0304)
 -->
<!-- Title: constants.hpp Pages: 1 -->
<svg width="261pt" height="84pt"
 viewBox="0.00 0.00 261.00 84.00" xmlns="http://www.w3.org/2000/svg" xmlns:xlink="http://www.w3.org/1999/xlink">
<g id="graph0" class="graph" transform="scale(1 1) rotate(0) translate(4 80)">
<title>constants.hpp</title>
<polygon fill="#ffffff" stroke="transparent" points="-4,4 -4,-80 257,-80 257,4 -4,4"/>
<!-- Node3 -->
<g id="node1" class="node">
<title>Node3</title>
<g id="a_node1"><a xlink:title="Defines a collection of constants.">
<polygon fill="#bfbfbf" stroke="#000000" points="83.5,-56.5 83.5,-75.5 161.5,-75.5 161.5,-56.5 83.5,-56.5"/>
<text text-anchor="middle" x="122.5" y="-63.5" font-family="Helvetica,sans-Serif" font-size="10.00" fill="#000000">constants.hpp</text>
</a>
</g>
</g>
<!-- Node4 -->
<g id="node2" class="node">
<title>Node4</title>
<g id="a_node2"><a xlink:href="loadplay_8cpp.html" target="_top" xlink:title="Implements a library intended to be injected into a clock frequency deamon via LD_PRELOAD.">
<polygon fill="#ffffff" stroke="#000000" points="0,-.5 0,-19.5 71,-19.5 71,-.5 0,-.5"/>
<text text-anchor="middle" x="35.5" y="-7.5" font-family="Helvetica,sans-Serif" font-size="10.00" fill="#000000">loadplay.cpp</text>
</a>
</g>
</g>
<!-- Node3&#45;&gt;Node4 -->
<g id="edge1" class="edge">
<title>Node3&#45;&gt;Node4</title>
<path fill="none" stroke="#191970" d="M98.8375,-50.769C83.4209,-40.8456 63.774,-28.1994 50.4806,-19.6427"/>
<polygon fill="#191970" stroke="#191970" points="97.0427,-53.7761 107.3458,-56.2455 100.8315,-47.89 97.0427,-53.7761"/>
</g>
<!-- Node5 -->
<g id="node3" class="node">
<title>Node5</title>
<g id="a_node3"><a xlink:href="loadrec_8cpp.html" target="_top" xlink:title="Implements a load recorder, useful for simulating loads to test CPU clock daemons and settings.">
<polygon fill="#ffffff" stroke="#000000" points="89,-.5 89,-19.5 156,-19.5 156,-.5 89,-.5"/>
<text text-anchor="middle" x="122.5" y="-7.5" font-family="Helvetica,sans-Serif" font-size="10.00" fill="#000000">loadrec.cpp</text>
</a>
</g>
</g>
<!-- Node3&#45;&gt;Node5 -->
<g id="edge2" class="edge">
<title>Node3&#45;&gt;Node5</title>
<path fill="none" stroke="#191970" d="M122.5,-46.1575C122.5,-37.155 122.5,-26.9199 122.5,-19.6427"/>
<polygon fill="#191970" stroke="#191970" points="119.0001,-46.2455 122.5,-56.2455 126.0001,-46.2456 119.0001,-46.2455"/>
</g>
<!-- Node6 -->
<g id="node4" class="node">
<title>Node6</title>
<g id="a_node4"><a xlink:href="powerd_09_09_8cpp.html" target="_top" xlink:title="Implements powerd++ a drop in replacement for FreeBSD&#39;s powerd.">
<polygon fill="#ffffff" stroke="#000000" points="174,-.5 174,-19.5 253,-19.5 253,-.5 174,-.5"/>
<text text-anchor="middle" x="213.5" y="-7.5" font-family="Helvetica,sans-Serif" font-size="10.00" fill="#000000">powerd++.cpp</text>
</a>
</g>
</g>
<!-- Node3&#45;&gt;Node6 -->
<g id="edge3" class="edge">
<title>Node3&#45;&gt;Node6</title>
<path fill="none" stroke="#191970" d="M147.2504,-50.769C163.3758,-40.8456 183.926,-28.1994 197.8307,-19.6427"/>
<polygon fill="#191970" stroke="#191970" points="145.0332,-48.0237 138.351,-56.2455 148.7019,-53.9853 145.0332,-48.0237"/>
</g>
</g>
</svg>
