<?xml version="1.0" encoding="UTF-8" standalone="no"?>
<!DOCTYPE svg PUBLIC "-//W3C//DTD SVG 1.1//EN"
 "http://www.w3.org/Graphics/SVG/1.1/DTD/svg11.dtd">
<!-- Generated by graphviz version 2.40.1 (20161225.0304)
 -->
<!-- Title: constants.hpp Pages: 1 -->
<svg width="86pt" height="140pt"
 viewBox="0.00 0.00 86.00 140.00" xmlns="http://www.w3.org/2000/svg" xmlns:xlink="http://www.w3.org/1999/xlink">
<g id="graph0" class="graph" transform="scale(1 1) rotate(0) translate(4 136)">
<title>constants.hpp</title>
<polygon fill="#ffffff" stroke="transparent" points="-4,4 -4,-136 82,-136 82,4 -4,4"/>
<!-- Node0 -->
<g id="node1" class="node">
<title>Node0</title>
<polygon fill="#bfbfbf" stroke="#000000" points="0,-112.5 0,-131.5 78,-131.5 78,-112.5 0,-112.5"/>
<text text-anchor="middle" x="39" y="-119.5" font-family="Helvetica,sans-Serif" font-size="10.00" fill="#000000">constants.hpp</text>
</g>
<!-- Node1 -->
<g id="node2" class="node">
<title>Node1</title>
<g id="a_node2"><a xlink:href="types_8hpp.html" target="_top" xlink:title="A collection of type aliases. ">
<polygon fill="#ffffff" stroke="#000000" points="9.5,-56.5 9.5,-75.5 68.5,-75.5 68.5,-56.5 9.5,-56.5"/>
<text text-anchor="middle" x="39" y="-63.5" font-family="Helvetica,sans-Serif" font-size="10.00" fill="#000000">types.hpp</text>
</a>
</g>
</g>
<!-- Node0&#45;&gt;Node1 -->
<g id="edge1" class="edge">
<title>Node0&#45;&gt;Node1</title>
<path fill="none" stroke="#191970" d="M39,-112.2455C39,-104.9382 39,-94.6944 39,-85.7046"/>
<polygon fill="#191970" stroke="#191970" points="42.5001,-85.6426 39,-75.6427 35.5001,-85.6427 42.5001,-85.6426"/>
</g>
<!-- Node2 -->
<g id="node3" class="node">
<title>Node2</title>
<polygon fill="#ffffff" stroke="#bfbfbf" points="16,-.5 16,-19.5 62,-19.5 62,-.5 16,-.5"/>
<text text-anchor="middle" x="39" y="-7.5" font-family="Helvetica,sans-Serif" font-size="10.00" fill="#000000">chrono</text>
</g>
<!-- Node1&#45;&gt;Node2 -->
<g id="edge2" class="edge">
<title>Node1&#45;&gt;Node2</title>
<path fill="none" stroke="#191970" d="M39,-56.2455C39,-48.9382 39,-38.6944 39,-29.7046"/>
<polygon fill="#191970" stroke="#191970" points="42.5001,-29.6426 39,-19.6427 35.5001,-29.6427 42.5001,-29.6426"/>
</g>
</g>
</svg>
