<?xml version="1.0" encoding="UTF-8" standalone="no"?>
<!DOCTYPE svg PUBLIC "-//W3C//DTD SVG 1.1//EN"
 "http://www.w3.org/Graphics/SVG/1.1/DTD/svg11.dtd">
<!-- Generated by graphviz version 2.42.2 ()
 -->
<!-- Title: src/constants.hpp Pages: 1 -->
<svg width="319pt" height="84pt"
 viewBox="0.00 0.00 319.00 84.00" xmlns="http://www.w3.org/2000/svg" xmlns:xlink="http://www.w3.org/1999/xlink">
<g id="graph0" class="graph" transform="scale(1 1) rotate(0) translate(4 80)">
<title>src/constants.hpp</title>
<polygon fill="white" stroke="transparent" points="-4,4 -4,-80 315,-80 315,4 -4,4"/>
<!-- Node1 -->
<g id="node1" class="node">
<title>Node1</title>
<g id="a_node1"><a xlink:title="Defines a collection of constants.">
<polygon fill="#bfbfbf" stroke="black" points="109,-56.5 109,-75.5 204,-75.5 204,-56.5 109,-56.5"/>
<text text-anchor="middle" x="156.5" y="-63.5" font-family="Helvetica" font-size="10.00">src/constants.hpp</text>
</a>
</g>
</g>
<!-- Node2 -->
<g id="node2" class="node">
<title>Node2</title>
<g id="a_node2"><a xlink:href="libloadplay_8cpp.html" target="_top" xlink:title="Implements a library intended to be injected into a clock frequency deamon via LD_PRELOAD.">
<polygon fill="white" stroke="black" points="0,-0.5 0,-19.5 97,-19.5 97,-0.5 0,-0.5"/>
<text text-anchor="middle" x="48.5" y="-7.5" font-family="Helvetica" font-size="10.00">src/libloadplay.cpp</text>
</a>
</g>
</g>
<!-- Node1&#45;&gt;Node2 -->
<g id="edge1" class="edge">
<title>Node1&#45;&gt;Node2</title>
<path fill="none" stroke="midnightblue" d="M129.95,-51.73C109.95,-41.73 83.11,-28.31 65.81,-19.65"/>
<polygon fill="midnightblue" stroke="midnightblue" points="128.64,-54.98 139.15,-56.32 131.77,-48.72 128.64,-54.98"/>
</g>
<!-- Node3 -->
<g id="node3" class="node">
<title>Node3</title>
<g id="a_node3"><a xlink:href="loadrec_8cpp.html" target="_top" xlink:title="Implements a load recorder, useful for simulating loads to test CPU clock daemons and settings.">
<polygon fill="white" stroke="black" points="115,-0.5 115,-19.5 198,-19.5 198,-0.5 115,-0.5"/>
<text text-anchor="middle" x="156.5" y="-7.5" font-family="Helvetica" font-size="10.00">src/loadrec.cpp</text>
</a>
</g>
</g>
<!-- Node1&#45;&gt;Node3 -->
<g id="edge2" class="edge">
<title>Node1&#45;&gt;Node3</title>
<path fill="none" stroke="midnightblue" d="M156.5,-45.8C156.5,-36.91 156.5,-26.78 156.5,-19.75"/>
<polygon fill="midnightblue" stroke="midnightblue" points="153,-46.08 156.5,-56.08 160,-46.08 153,-46.08"/>
</g>
<!-- Node4 -->
<g id="node4" class="node">
<title>Node4</title>
<g id="a_node4"><a xlink:href="powerd_09_09_8cpp.html" target="_top" xlink:title="Implements powerd++ a drop in replacement for FreeBSD&#39;s powerd.">
<polygon fill="white" stroke="black" points="216,-0.5 216,-19.5 311,-19.5 311,-0.5 216,-0.5"/>
<text text-anchor="middle" x="263.5" y="-7.5" font-family="Helvetica" font-size="10.00">src/powerd++.cpp</text>
</a>
</g>
</g>
<!-- Node1&#45;&gt;Node4 -->
<g id="edge3" class="edge">
<title>Node1&#45;&gt;Node4</title>
<path fill="none" stroke="midnightblue" d="M182.8,-51.73C202.61,-41.73 229.21,-28.31 246.35,-19.65"/>
<polygon fill="midnightblue" stroke="midnightblue" points="181.04,-48.69 173.69,-56.32 184.2,-54.94 181.04,-48.69"/>
</g>
</g>
</svg>
