<?xml version="1.0" encoding="UTF-8" standalone="no"?>
<!DOCTYPE svg PUBLIC "-//W3C//DTD SVG 1.1//EN"
 "http://www.w3.org/Graphics/SVG/1.1/DTD/svg11.dtd">
<!-- Generated by graphviz version 2.42.2 ()
 -->
<!-- Title: src/sys/env.hpp Pages: 1 -->
<svg width="210pt" height="84pt"
 viewBox="0.00 0.00 210.00 84.00" xmlns="http://www.w3.org/2000/svg" xmlns:xlink="http://www.w3.org/1999/xlink">
<g id="graph0" class="graph" transform="scale(1 1) rotate(0) translate(4 80)">
<title>src/sys/env.hpp</title>
<polygon fill="white" stroke="transparent" points="-4,4 -4,-80 206,-80 206,4 -4,4"/>
<!-- Node1 -->
<g id="node1" class="node">
<title>Node1</title>
<g id="a_node1"><a xlink:title="Implements zero&#45;cost abstractions for the getenv(3) facilities.">
<polygon fill="#bfbfbf" stroke="black" points="60.5,-56.5 60.5,-75.5 146.5,-75.5 146.5,-56.5 60.5,-56.5"/>
<text text-anchor="middle" x="103.5" y="-63.5" font-family="Helvetica" font-size="10.00">src/sys/env.hpp</text>
</a>
</g>
</g>
<!-- Node2 -->
<g id="node2" class="node">
<title>Node2</title>
<g id="a_node2"><a xlink:href="libloadplay_8cpp.html" target="_top" xlink:title="Implements a library intended to be injected into a clock frequency deamon via LD_PRELOAD.">
<polygon fill="white" stroke="black" points="0,-0.5 0,-19.5 97,-19.5 97,-0.5 0,-0.5"/>
<text text-anchor="middle" x="48.5" y="-7.5" font-family="Helvetica" font-size="10.00">src/libloadplay.cpp</text>
</a>
</g>
</g>
<!-- Node1&#45;&gt;Node2 -->
<g id="edge1" class="edge">
<title>Node1&#45;&gt;Node2</title>
<path fill="none" stroke="midnightblue" d="M87.21,-49C77.46,-39.43 65.45,-27.64 57.41,-19.75"/>
<polygon fill="midnightblue" stroke="midnightblue" points="84.83,-51.57 94.42,-56.08 89.73,-46.58 84.83,-51.57"/>
</g>
<!-- Node3 -->
<g id="node3" class="node">
<title>Node3</title>
<g id="a_node3"><a xlink:href="loadplay_8cpp.html" target="_top" xlink:title="Implements loadplay, a bootstrapping tool for libloadplay.">
<polygon fill="white" stroke="black" points="115,-0.5 115,-19.5 202,-19.5 202,-0.5 115,-0.5"/>
<text text-anchor="middle" x="158.5" y="-7.5" font-family="Helvetica" font-size="10.00">src/loadplay.cpp</text>
</a>
</g>
</g>
<!-- Node1&#45;&gt;Node3 -->
<g id="edge2" class="edge">
<title>Node1&#45;&gt;Node3</title>
<path fill="none" stroke="midnightblue" d="M119.79,-49C129.54,-39.43 141.55,-27.64 149.59,-19.75"/>
<polygon fill="midnightblue" stroke="midnightblue" points="117.27,-46.58 112.58,-56.08 122.17,-51.57 117.27,-46.58"/>
</g>
</g>
</svg>
