<?xml version="1.0" encoding="UTF-8" standalone="no"?>
<!DOCTYPE svg PUBLIC "-//W3C//DTD SVG 1.1//EN"
 "http://www.w3.org/Graphics/SVG/1.1/DTD/svg11.dtd">
<!-- Generated by graphviz version 2.42.2 ()
 -->
<!-- Title: src/sys/error.hpp Pages: 1 -->
<svg width="550pt" height="140pt"
 viewBox="0.00 0.00 549.50 140.00" xmlns="http://www.w3.org/2000/svg" xmlns:xlink="http://www.w3.org/1999/xlink">
<g id="graph0" class="graph" transform="scale(1 1) rotate(0) translate(4 136)">
<title>src/sys/error.hpp</title>
<polygon fill="white" stroke="transparent" points="-4,4 -4,-136 545.5,-136 545.5,4 -4,4"/>
<!-- Node1 -->
<g id="node1" class="node">
<title>Node1</title>
<g id="a_node1"><a xlink:title=" ">
<polygon fill="#bfbfbf" stroke="black" points="277,-112.5 277,-131.5 366,-131.5 366,-112.5 277,-112.5"/>
<text text-anchor="middle" x="321.5" y="-119.5" font-family="Helvetica" font-size="10.00">src/sys/error.hpp</text>
</a>
</g>
</g>
<!-- Node2 -->
<g id="node2" class="node">
<title>Node2</title>
<g id="a_node2"><a xlink:href="env_8hpp.html" target="_top" xlink:title=" ">
<polygon fill="white" stroke="black" points="111.5,-56.5 111.5,-75.5 197.5,-75.5 197.5,-56.5 111.5,-56.5"/>
<text text-anchor="middle" x="154.5" y="-63.5" font-family="Helvetica" font-size="10.00">src/sys/env.hpp</text>
</a>
</g>
</g>
<!-- Node1&#45;&gt;Node2 -->
<g id="edge1" class="edge">
<title>Node1&#45;&gt;Node2</title>
<path fill="none" stroke="midnightblue" d="M285.33,-109.3C253.86,-99.13 209.01,-84.62 180.84,-75.52"/>
<polygon fill="midnightblue" stroke="midnightblue" points="284.45,-112.7 295.04,-112.44 286.6,-106.04 284.45,-112.7"/>
</g>
<!-- Node5 -->
<g id="node5" class="node">
<title>Node5</title>
<g id="a_node5"><a xlink:href="sysctl_8hpp.html" target="_top" xlink:title=" ">
<polygon fill="white" stroke="black" points="216,-56.5 216,-75.5 313,-75.5 313,-56.5 216,-56.5"/>
<text text-anchor="middle" x="264.5" y="-63.5" font-family="Helvetica" font-size="10.00">src/sys/sysctl.hpp</text>
</a>
</g>
</g>
<!-- Node1&#45;&gt;Node5 -->
<g id="edge4" class="edge">
<title>Node1&#45;&gt;Node5</title>
<path fill="none" stroke="midnightblue" d="M304.88,-105.25C294.77,-95.67 282.22,-83.79 273.82,-75.83"/>
<polygon fill="midnightblue" stroke="midnightblue" points="302.68,-107.99 312.34,-112.32 307.49,-102.91 302.68,-107.99"/>
</g>
<!-- Node8 -->
<g id="node8" class="node">
<title>Node8</title>
<g id="a_node8"><a xlink:href="pidfile_8hpp.html" target="_top" xlink:title=" ">
<polygon fill="white" stroke="black" points="331.5,-56.5 331.5,-75.5 427.5,-75.5 427.5,-56.5 331.5,-56.5"/>
<text text-anchor="middle" x="379.5" y="-63.5" font-family="Helvetica" font-size="10.00">src/sys/pidfile.hpp</text>
</a>
</g>
</g>
<!-- Node1&#45;&gt;Node8 -->
<g id="edge7" class="edge">
<title>Node1&#45;&gt;Node8</title>
<path fill="none" stroke="midnightblue" d="M338.41,-105.25C348.7,-95.67 361.47,-83.79 370.01,-75.83"/>
<polygon fill="midnightblue" stroke="midnightblue" points="335.75,-102.95 330.82,-112.32 340.52,-108.07 335.75,-102.95"/>
</g>
<!-- Node9 -->
<g id="node9" class="node">
<title>Node9</title>
<g id="a_node9"><a xlink:href="signal_8hpp.html" target="_top" xlink:title=" ">
<polygon fill="white" stroke="black" points="445.5,-56.5 445.5,-75.5 541.5,-75.5 541.5,-56.5 445.5,-56.5"/>
<text text-anchor="middle" x="493.5" y="-63.5" font-family="Helvetica" font-size="10.00">src/sys/signal.hpp</text>
</a>
</g>
</g>
<!-- Node1&#45;&gt;Node9 -->
<g id="edge9" class="edge">
<title>Node1&#45;&gt;Node9</title>
<path fill="none" stroke="midnightblue" d="M358.33,-109.44C390.76,-99.26 437.24,-84.66 466.37,-75.52"/>
<polygon fill="midnightblue" stroke="midnightblue" points="357.25,-106.11 348.75,-112.44 359.34,-112.79 357.25,-106.11"/>
</g>
<!-- Node3 -->
<g id="node3" class="node">
<title>Node3</title>
<g id="a_node3"><a xlink:href="libloadplay_8cpp.html" target="_top" xlink:title=" ">
<polygon fill="white" stroke="black" points="0,-0.5 0,-19.5 97,-19.5 97,-0.5 0,-0.5"/>
<text text-anchor="middle" x="48.5" y="-7.5" font-family="Helvetica" font-size="10.00">src/libloadplay.cpp</text>
</a>
</g>
</g>
<!-- Node2&#45;&gt;Node3 -->
<g id="edge2" class="edge">
<title>Node2&#45;&gt;Node3</title>
<path fill="none" stroke="midnightblue" d="M128.44,-51.73C108.82,-41.73 82.47,-28.31 65.49,-19.65"/>
<polygon fill="midnightblue" stroke="midnightblue" points="126.97,-54.9 137.47,-56.32 130.15,-48.67 126.97,-54.9"/>
</g>
<!-- Node4 -->
<g id="node4" class="node">
<title>Node4</title>
<g id="a_node4"><a xlink:href="loadplay_8cpp.html" target="_top" xlink:title=" ">
<polygon fill="white" stroke="black" points="115,-0.5 115,-19.5 202,-19.5 202,-0.5 115,-0.5"/>
<text text-anchor="middle" x="158.5" y="-7.5" font-family="Helvetica" font-size="10.00">src/loadplay.cpp</text>
</a>
</g>
</g>
<!-- Node2&#45;&gt;Node4 -->
<g id="edge3" class="edge">
<title>Node2&#45;&gt;Node4</title>
<path fill="none" stroke="midnightblue" d="M155.9,-46.1C156.56,-37.14 157.33,-26.86 157.85,-19.75"/>
<polygon fill="midnightblue" stroke="midnightblue" points="152.41,-45.85 155.16,-56.08 159.39,-46.37 152.41,-45.85"/>
</g>
<!-- Node6 -->
<g id="node6" class="node">
<title>Node6</title>
<g id="a_node6"><a xlink:href="loadrec_8cpp.html" target="_top" xlink:title=" ">
<polygon fill="white" stroke="black" points="223,-0.5 223,-19.5 306,-19.5 306,-0.5 223,-0.5"/>
<text text-anchor="middle" x="264.5" y="-7.5" font-family="Helvetica" font-size="10.00">src/loadrec.cpp</text>
</a>
</g>
</g>
<!-- Node5&#45;&gt;Node6 -->
<g id="edge5" class="edge">
<title>Node5&#45;&gt;Node6</title>
<path fill="none" stroke="midnightblue" d="M264.5,-45.8C264.5,-36.91 264.5,-26.78 264.5,-19.75"/>
<polygon fill="midnightblue" stroke="midnightblue" points="261,-46.08 264.5,-56.08 268,-46.08 261,-46.08"/>
</g>
<!-- Node7 -->
<g id="node7" class="node">
<title>Node7</title>
<g id="a_node7"><a xlink:href="powerd_09_09_8cpp.html" target="_top" xlink:title=" ">
<polygon fill="white" stroke="black" points="332,-0.5 332,-19.5 427,-19.5 427,-0.5 332,-0.5"/>
<text text-anchor="middle" x="379.5" y="-7.5" font-family="Helvetica" font-size="10.00">src/powerd++.cpp</text>
</a>
</g>
</g>
<!-- Node5&#45;&gt;Node7 -->
<g id="edge6" class="edge">
<title>Node5&#45;&gt;Node7</title>
<path fill="none" stroke="midnightblue" d="M291.98,-52.1C313.47,-42.01 342.72,-28.27 361.36,-19.52"/>
<polygon fill="midnightblue" stroke="midnightblue" points="290.29,-49.02 282.72,-56.44 293.26,-55.36 290.29,-49.02"/>
</g>
<!-- Node8&#45;&gt;Node7 -->
<g id="edge8" class="edge">
<title>Node8&#45;&gt;Node7</title>
<path fill="none" stroke="midnightblue" d="M379.5,-45.8C379.5,-36.91 379.5,-26.78 379.5,-19.75"/>
<polygon fill="midnightblue" stroke="midnightblue" points="376,-46.08 379.5,-56.08 383,-46.08 376,-46.08"/>
</g>
<!-- Node9&#45;&gt;Node7 -->
<g id="edge10" class="edge">
<title>Node9&#45;&gt;Node7</title>
<path fill="none" stroke="midnightblue" d="M466.26,-52.1C444.96,-42.01 415.96,-28.27 397.48,-19.52"/>
<polygon fill="midnightblue" stroke="midnightblue" points="464.9,-55.33 475.44,-56.44 467.9,-49 464.9,-55.33"/>
</g>
</g>
</svg>
