<?xml version="1.0" encoding="UTF-8" standalone="no"?>
<!DOCTYPE svg PUBLIC "-//W3C//DTD SVG 1.1//EN"
 "http://www.w3.org/Graphics/SVG/1.1/DTD/svg11.dtd">
<!-- Generated by graphviz version 2.42.2 ()
 -->
<!-- Title: src/errors.hpp Pages: 1 -->
<svg width="282pt" height="140pt"
 viewBox="0.00 0.00 282.00 140.00" xmlns="http://www.w3.org/2000/svg" xmlns:xlink="http://www.w3.org/1999/xlink">
<g id="graph0" class="graph" transform="scale(1 1) rotate(0) translate(4 136)">
<title>src/errors.hpp</title>
<polygon fill="white" stroke="transparent" points="-4,4 -4,-136 278,-136 278,4 -4,4"/>
<!-- Node1 -->
<g id="node1" class="node">
<title>Node1</title>
<g id="a_node1"><a xlink:title=" ">
<polygon fill="#bfbfbf" stroke="black" points="88,-112.5 88,-131.5 165,-131.5 165,-112.5 88,-112.5"/>
<text text-anchor="middle" x="126.5" y="-119.5" font-family="Helvetica" font-size="10.00">src/errors.hpp</text>
</a>
</g>
</g>
<!-- Node2 -->
<g id="node2" class="node">
<title>Node2</title>
<g id="a_node2"><a xlink:href="clas_8hpp.html" target="_top" xlink:title=" ">
<polygon fill="white" stroke="black" points="60.5,-56.5 60.5,-75.5 130.5,-75.5 130.5,-56.5 60.5,-56.5"/>
<text text-anchor="middle" x="95.5" y="-63.5" font-family="Helvetica" font-size="10.00">src/clas.hpp</text>
</a>
</g>
</g>
<!-- Node1&#45;&gt;Node2 -->
<g id="edge1" class="edge">
<title>Node1&#45;&gt;Node2</title>
<path fill="none" stroke="midnightblue" d="M116.32,-103.27C111.03,-94.05 104.78,-83.17 100.52,-75.75"/>
<polygon fill="midnightblue" stroke="midnightblue" points="113.37,-105.15 121.38,-112.08 119.44,-101.67 113.37,-105.15"/>
</g>
<!-- Node3 -->
<g id="node3" class="node">
<title>Node3</title>
<g id="a_node3"><a xlink:href="loadrec_8cpp.html" target="_top" xlink:title=" ">
<polygon fill="white" stroke="black" points="0,-0.5 0,-19.5 83,-19.5 83,-0.5 0,-0.5"/>
<text text-anchor="middle" x="41.5" y="-7.5" font-family="Helvetica" font-size="10.00">src/loadrec.cpp</text>
</a>
</g>
</g>
<!-- Node1&#45;&gt;Node3 -->
<g id="edge5" class="edge">
<title>Node1&#45;&gt;Node3</title>
<path fill="none" stroke="midnightblue" d="M91.79,-108.09C77.09,-100.87 61.15,-90.37 51.5,-76 39.91,-58.75 39.75,-33.17 40.62,-19.83"/>
<polygon fill="midnightblue" stroke="midnightblue" points="90.65,-111.42 101.2,-112.37 93.55,-105.04 90.65,-111.42"/>
</g>
<!-- Node4 -->
<g id="node4" class="node">
<title>Node4</title>
<g id="a_node4"><a xlink:href="powerd_09_09_8cpp.html" target="_top" xlink:title=" ">
<polygon fill="white" stroke="black" points="106,-0.5 106,-19.5 201,-19.5 201,-0.5 106,-0.5"/>
<text text-anchor="middle" x="153.5" y="-7.5" font-family="Helvetica" font-size="10.00">src/powerd++.cpp</text>
</a>
</g>
</g>
<!-- Node1&#45;&gt;Node4 -->
<g id="edge6" class="edge">
<title>Node1&#45;&gt;Node4</title>
<path fill="none" stroke="midnightblue" d="M132.06,-102.83C134.48,-94.66 137.26,-84.88 139.5,-76 144.52,-56.07 149.33,-32.43 151.79,-19.88"/>
<polygon fill="midnightblue" stroke="midnightblue" points="128.7,-101.84 129.17,-112.42 135.41,-103.86 128.7,-101.84"/>
</g>
<!-- Node5 -->
<g id="node5" class="node">
<title>Node5</title>
<g id="a_node5"><a xlink:href="loadplay_8cpp.html" target="_top" xlink:title=" ">
<polygon fill="white" stroke="black" points="187,-56.5 187,-75.5 274,-75.5 274,-56.5 187,-56.5"/>
<text text-anchor="middle" x="230.5" y="-63.5" font-family="Helvetica" font-size="10.00">src/loadplay.cpp</text>
</a>
</g>
</g>
<!-- Node1&#45;&gt;Node5 -->
<g id="edge4" class="edge">
<title>Node1&#45;&gt;Node5</title>
<path fill="none" stroke="midnightblue" d="M152.33,-107.59C171.56,-97.61 197.24,-84.27 213.83,-75.65"/>
<polygon fill="midnightblue" stroke="midnightblue" points="150.47,-104.61 143.21,-112.32 153.7,-110.82 150.47,-104.61"/>
</g>
<!-- Node2&#45;&gt;Node3 -->
<g id="edge2" class="edge">
<title>Node2&#45;&gt;Node3</title>
<path fill="none" stroke="midnightblue" d="M79.5,-49C69.93,-39.43 58.14,-27.64 50.25,-19.75"/>
<polygon fill="midnightblue" stroke="midnightblue" points="77.04,-51.49 86.58,-56.08 81.99,-46.54 77.04,-51.49"/>
</g>
<!-- Node2&#45;&gt;Node4 -->
<g id="edge3" class="edge">
<title>Node2&#45;&gt;Node4</title>
<path fill="none" stroke="midnightblue" d="M112.41,-49.25C122.7,-39.67 135.47,-27.79 144.01,-19.83"/>
<polygon fill="midnightblue" stroke="midnightblue" points="109.75,-46.95 104.82,-56.32 114.52,-52.07 109.75,-46.95"/>
</g>
</g>
</svg>
