<?xml version="1.0" encoding="UTF-8" standalone="no"?>
<!DOCTYPE svg PUBLIC "-//W3C//DTD SVG 1.1//EN"
 "http://www.w3.org/Graphics/SVG/1.1/DTD/svg11.dtd">
<!-- Generated by graphviz version 2.40.1 (20161225.0304)
 -->
<!-- Title: errors.hpp Pages: 1 -->
<svg width="177pt" height="140pt"
 viewBox="0.00 0.00 177.00 140.00" xmlns="http://www.w3.org/2000/svg" xmlns:xlink="http://www.w3.org/1999/xlink">
<g id="graph0" class="graph" transform="scale(1 1) rotate(0) translate(4 136)">
<title>errors.hpp</title>
<polygon fill="#ffffff" stroke="transparent" points="-4,4 -4,-136 173,-136 173,4 -4,4"/>
<!-- Node5 -->
<g id="node1" class="node">
<title>Node5</title>
<g id="a_node1"><a xlink:title="Common error handling code.">
<polygon fill="#bfbfbf" stroke="#000000" points="49.5,-112.5 49.5,-131.5 109.5,-131.5 109.5,-112.5 49.5,-112.5"/>
<text text-anchor="middle" x="79.5" y="-119.5" font-family="Helvetica,sans-Serif" font-size="10.00" fill="#000000">errors.hpp</text>
</a>
</g>
</g>
<!-- Node6 -->
<g id="node2" class="node">
<title>Node6</title>
<g id="a_node2"><a xlink:href="clas_8hpp.html" target="_top" xlink:title="Implements functions to process command line arguments.">
<polygon fill="#ffffff" stroke="#000000" points="53,-56.5 53,-75.5 106,-75.5 106,-56.5 53,-56.5"/>
<text text-anchor="middle" x="79.5" y="-63.5" font-family="Helvetica,sans-Serif" font-size="10.00" fill="#000000">clas.hpp</text>
</a>
</g>
</g>
<!-- Node5&#45;&gt;Node6 -->
<g id="edge1" class="edge">
<title>Node5&#45;&gt;Node6</title>
<path fill="none" stroke="#191970" d="M79.5,-102.1575C79.5,-93.155 79.5,-82.9199 79.5,-75.6427"/>
<polygon fill="#191970" stroke="#191970" points="76.0001,-102.2455 79.5,-112.2455 83.0001,-102.2456 76.0001,-102.2455"/>
</g>
<!-- Node7 -->
<g id="node3" class="node">
<title>Node7</title>
<g id="a_node3"><a xlink:href="loadrec_8cpp.html" target="_top" xlink:title="Implements a load recorder, useful for simulating loads to test CPU clock daemons and settings.">
<polygon fill="#ffffff" stroke="#000000" points="0,-.5 0,-19.5 67,-19.5 67,-.5 0,-.5"/>
<text text-anchor="middle" x="33.5" y="-7.5" font-family="Helvetica,sans-Serif" font-size="10.00" fill="#000000">loadrec.cpp</text>
</a>
</g>
</g>
<!-- Node5&#45;&gt;Node7 -->
<g id="edge4" class="edge">
<title>Node5&#45;&gt;Node7</title>
<path fill="none" stroke="#191970" d="M63.1136,-104.6794C56.319,-96.5584 48.9895,-86.3924 44.5,-76 36.392,-57.2316 34.2333,-33.0744 33.6759,-19.8091"/>
<polygon fill="#191970" stroke="#191970" points="60.619,-107.1422 69.8592,-112.3258 65.8683,-102.5113 60.619,-107.1422"/>
</g>
<!-- Node8 -->
<g id="node4" class="node">
<title>Node8</title>
<g id="a_node4"><a xlink:href="powerd_09_09_8cpp.html" target="_top" xlink:title="Implements powerd++ a drop in replacement for FreeBSD&#39;s powerd.">
<polygon fill="#ffffff" stroke="#000000" points="90,-.5 90,-19.5 169,-19.5 169,-.5 90,-.5"/>
<text text-anchor="middle" x="129.5" y="-7.5" font-family="Helvetica,sans-Serif" font-size="10.00" fill="#000000">powerd++.cpp</text>
</a>
</g>
</g>
<!-- Node5&#45;&gt;Node8 -->
<g id="edge5" class="edge">
<title>Node5&#45;&gt;Node8</title>
<path fill="none" stroke="#191970" d="M96.1489,-104.656C103.0981,-96.5305 110.663,-86.3675 115.5,-76 124.2162,-57.3179 127.5648,-33.1284 128.8065,-19.8343"/>
<polygon fill="#191970" stroke="#191970" points="93.3518,-102.5321 89.27,-112.3092 98.5579,-107.2115 93.3518,-102.5321"/>
</g>
<!-- Node6&#45;&gt;Node7 -->
<g id="edge2" class="edge">
<title>Node6&#45;&gt;Node7</title>
<path fill="none" stroke="#191970" d="M65.1253,-48.5004C57.3029,-38.9775 47.924,-27.5596 41.4208,-19.6427"/>
<polygon fill="#191970" stroke="#191970" points="62.4354,-50.7399 71.4874,-56.2455 67.8445,-46.2967 62.4354,-50.7399"/>
</g>
<!-- Node6&#45;&gt;Node8 -->
<g id="edge3" class="edge">
<title>Node6&#45;&gt;Node8</title>
<path fill="none" stroke="#191970" d="M95.1247,-48.5004C103.6273,-38.9775 113.8218,-27.5596 120.8905,-19.6427"/>
<polygon fill="#191970" stroke="#191970" points="92.2587,-46.4551 88.2093,-56.2455 97.4803,-51.1172 92.2587,-46.4551"/>
</g>
</g>
</svg>
