<?xml version="1.0" encoding="UTF-8" standalone="no"?>
<!DOCTYPE svg PUBLIC "-//W3C//DTD SVG 1.1//EN"
 "http://www.w3.org/Graphics/SVG/1.1/DTD/svg11.dtd">
<!-- Generated by graphviz version 2.40.1 (20161225.0304)
 -->
<!-- Title: src/sys/error.hpp Pages: 1 -->
<svg width="552pt" height="140pt"
 viewBox="0.00 0.00 552.00 140.00" xmlns="http://www.w3.org/2000/svg" xmlns:xlink="http://www.w3.org/1999/xlink">
<g id="graph0" class="graph" transform="scale(1 1) rotate(0) translate(4 136)">
<title>src/sys/error.hpp</title>
<polygon fill="#ffffff" stroke="transparent" points="-4,4 -4,-136 548,-136 548,4 -4,4"/>
<!-- Node1 -->
<g id="node1" class="node">
<title>Node1</title>
<g id="a_node1"><a xlink:title=" ">
<polygon fill="#bfbfbf" stroke="#000000" points="279,-112.5 279,-131.5 369,-131.5 369,-112.5 279,-112.5"/>
<text text-anchor="middle" x="324" y="-119.5" font-family="Helvetica,sans-Serif" font-size="10.00" fill="#000000">src/sys/error.hpp</text>
</a>
</g>
</g>
<!-- Node2 -->
<g id="node2" class="node">
<title>Node2</title>
<g id="a_node2"><a xlink:href="env_8hpp.html" target="_top" xlink:title=" ">
<polygon fill="#ffffff" stroke="#000000" points="114,-56.5 114,-75.5 200,-75.5 200,-56.5 114,-56.5"/>
<text text-anchor="middle" x="157" y="-63.5" font-family="Helvetica,sans-Serif" font-size="10.00" fill="#000000">src/sys/env.hpp</text>
</a>
</g>
</g>
<!-- Node1&#45;&gt;Node2 -->
<g id="edge1" class="edge">
<title>Node1&#45;&gt;Node2</title>
<path fill="none" stroke="#191970" d="M285.8002,-109.1905C255.2046,-98.9309 212.9722,-84.7691 185.3337,-75.5011"/>
<polygon fill="#191970" stroke="#191970" points="284.6978,-112.5123 295.2917,-112.3733 286.9233,-105.8755 284.6978,-112.5123"/>
</g>
<!-- Node5 -->
<g id="node5" class="node">
<title>Node5</title>
<g id="a_node5"><a xlink:href="sysctl_8hpp.html" target="_top" xlink:title=" ">
<polygon fill="#ffffff" stroke="#000000" points="218.5,-56.5 218.5,-75.5 315.5,-75.5 315.5,-56.5 218.5,-56.5"/>
<text text-anchor="middle" x="267" y="-63.5" font-family="Helvetica,sans-Serif" font-size="10.00" fill="#000000">src/sys/sysctl.hpp</text>
</a>
</g>
</g>
<!-- Node1&#45;&gt;Node5 -->
<g id="edge4" class="edge">
<title>Node1&#45;&gt;Node5</title>
<path fill="none" stroke="#191970" d="M306.7729,-105.0751C296.9659,-95.4402 285.036,-83.7196 276.8149,-75.6427"/>
<polygon fill="#191970" stroke="#191970" points="304.4851,-107.734 314.0714,-112.2455 309.3909,-102.7406 304.4851,-107.734"/>
</g>
<!-- Node8 -->
<g id="node8" class="node">
<title>Node8</title>
<g id="a_node8"><a xlink:href="pidfile_8hpp.html" target="_top" xlink:title=" ">
<polygon fill="#ffffff" stroke="#000000" points="334,-56.5 334,-75.5 430,-75.5 430,-56.5 334,-56.5"/>
<text text-anchor="middle" x="382" y="-63.5" font-family="Helvetica,sans-Serif" font-size="10.00" fill="#000000">src/sys/pidfile.hpp</text>
</a>
</g>
</g>
<!-- Node1&#45;&gt;Node8 -->
<g id="edge7" class="edge">
<title>Node1&#45;&gt;Node8</title>
<path fill="none" stroke="#191970" d="M341.5293,-105.0751C351.5083,-95.4402 363.6476,-83.7196 372.0129,-75.6427"/>
<polygon fill="#191970" stroke="#191970" points="338.8658,-102.7817 334.1028,-112.2455 343.728,-107.8175 338.8658,-102.7817"/>
</g>
<!-- Node9 -->
<g id="node9" class="node">
<title>Node9</title>
<g id="a_node9"><a xlink:href="signal_8hpp.html" target="_top" xlink:title=" ">
<polygon fill="#ffffff" stroke="#000000" points="448,-56.5 448,-75.5 544,-75.5 544,-56.5 448,-56.5"/>
<text text-anchor="middle" x="496" y="-63.5" font-family="Helvetica,sans-Serif" font-size="10.00" fill="#000000">src/sys/signal.hpp</text>
</a>
</g>
</g>
<!-- Node1&#45;&gt;Node9 -->
<g id="edge9" class="edge">
<title>Node1&#45;&gt;Node9</title>
<path fill="none" stroke="#191970" d="M363.3435,-109.1905C394.8551,-98.9309 438.3519,-84.7691 466.818,-75.5011"/>
<polygon fill="#191970" stroke="#191970" points="361.993,-105.9493 353.5679,-112.3733 364.1601,-112.6054 361.993,-105.9493"/>
</g>
<!-- Node3 -->
<g id="node3" class="node">
<title>Node3</title>
<g id="a_node3"><a xlink:href="libloadplay_8cpp.html" target="_top" xlink:title=" ">
<polygon fill="#ffffff" stroke="#000000" points="0,-.5 0,-19.5 98,-19.5 98,-.5 0,-.5"/>
<text text-anchor="middle" x="49" y="-7.5" font-family="Helvetica,sans-Serif" font-size="10.00" fill="#000000">src/libloadplay.cpp</text>
</a>
</g>
</g>
<!-- Node2&#45;&gt;Node3 -->
<g id="edge2" class="edge">
<title>Node2&#45;&gt;Node3</title>
<path fill="none" stroke="#191970" d="M129.2229,-51.5971C109.8618,-41.558 84.5615,-28.4393 67.5966,-19.6427"/>
<polygon fill="#191970" stroke="#191970" points="127.6992,-54.7495 138.1878,-56.2455 130.9214,-48.5352 127.6992,-54.7495"/>
</g>
<!-- Node4 -->
<g id="node4" class="node">
<title>Node4</title>
<g id="a_node4"><a xlink:href="loadplay_8cpp.html" target="_top" xlink:title=" ">
<polygon fill="#ffffff" stroke="#000000" points="116,-.5 116,-19.5 204,-19.5 204,-.5 116,-.5"/>
<text text-anchor="middle" x="160" y="-7.5" font-family="Helvetica,sans-Serif" font-size="10.00" fill="#000000">src/loadplay.cpp</text>
</a>
</g>
</g>
<!-- Node2&#45;&gt;Node4 -->
<g id="edge3" class="edge">
<title>Node2&#45;&gt;Node4</title>
<path fill="none" stroke="#191970" d="M158.063,-46.1575C158.5453,-37.155 159.0936,-26.9199 159.4834,-19.6427"/>
<polygon fill="#191970" stroke="#191970" points="154.5626,-46.0726 157.5226,-56.2455 161.5526,-46.4471 154.5626,-46.0726"/>
</g>
<!-- Node6 -->
<g id="node6" class="node">
<title>Node6</title>
<g id="a_node6"><a xlink:href="loadrec_8cpp.html" target="_top" xlink:title=" ">
<polygon fill="#ffffff" stroke="#000000" points="225.5,-.5 225.5,-19.5 308.5,-19.5 308.5,-.5 225.5,-.5"/>
<text text-anchor="middle" x="267" y="-7.5" font-family="Helvetica,sans-Serif" font-size="10.00" fill="#000000">src/loadrec.cpp</text>
</a>
</g>
</g>
<!-- Node5&#45;&gt;Node6 -->
<g id="edge5" class="edge">
<title>Node5&#45;&gt;Node6</title>
<path fill="none" stroke="#191970" d="M267,-46.1575C267,-37.155 267,-26.9199 267,-19.6427"/>
<polygon fill="#191970" stroke="#191970" points="263.5001,-46.2455 267,-56.2455 270.5001,-46.2456 263.5001,-46.2455"/>
</g>
<!-- Node7 -->
<g id="node7" class="node">
<title>Node7</title>
<g id="a_node7"><a xlink:href="powerd_09_09_8cpp.html" target="_top" xlink:title=" ">
<polygon fill="#ffffff" stroke="#000000" points="334.5,-.5 334.5,-19.5 429.5,-19.5 429.5,-.5 334.5,-.5"/>
<text text-anchor="middle" x="382" y="-7.5" font-family="Helvetica,sans-Serif" font-size="10.00" fill="#000000">src/powerd++.cpp</text>
</a>
</g>
</g>
<!-- Node5&#45;&gt;Node7 -->
<g id="edge6" class="edge">
<title>Node5&#45;&gt;Node7</title>
<path fill="none" stroke="#191970" d="M295.8033,-51.9741C316.625,-41.8348 344.1978,-28.408 362.4888,-19.5011"/>
<polygon fill="#191970" stroke="#191970" points="294.2276,-48.8484 286.7692,-56.3733 297.2922,-55.1419 294.2276,-48.8484"/>
</g>
<!-- Node8&#45;&gt;Node7 -->
<g id="edge8" class="edge">
<title>Node8&#45;&gt;Node7</title>
<path fill="none" stroke="#191970" d="M382,-46.1575C382,-37.155 382,-26.9199 382,-19.6427"/>
<polygon fill="#191970" stroke="#191970" points="378.5001,-46.2455 382,-56.2455 385.5001,-46.2456 378.5001,-46.2455"/>
</g>
<!-- Node9&#45;&gt;Node7 -->
<g id="edge10" class="edge">
<title>Node9&#45;&gt;Node7</title>
<path fill="none" stroke="#191970" d="M467.1679,-51.8368C446.5605,-41.7139 419.3918,-28.3679 401.3416,-19.5011"/>
<polygon fill="#191970" stroke="#191970" points="465.884,-55.1056 476.4027,-56.3733 468.9703,-48.8227 465.884,-55.1056"/>
</g>
</g>
</svg>
