<?xml version="1.0" encoding="UTF-8" standalone="no"?>
<!DOCTYPE svg PUBLIC "-//W3C//DTD SVG 1.1//EN"
 "http://www.w3.org/Graphics/SVG/1.1/DTD/svg11.dtd">
<!-- Generated by graphviz version 2.40.1 (20161225.0304)
 -->
<!-- Title: sys/error.hpp Pages: 1 -->
<svg width="284pt" height="140pt"
 viewBox="0.00 0.00 284.00 140.00" xmlns="http://www.w3.org/2000/svg" xmlns:xlink="http://www.w3.org/1999/xlink">
<g id="graph0" class="graph" transform="scale(1 1) rotate(0) translate(4 136)">
<title>sys/error.hpp</title>
<polygon fill="#ffffff" stroke="transparent" points="-4,4 -4,-136 280,-136 280,4 -4,4"/>
<!-- Node3 -->
<g id="node1" class="node">
<title>Node3</title>
<polygon fill="#bfbfbf" stroke="#000000" points="101,-112.5 101,-131.5 175,-131.5 175,-112.5 101,-112.5"/>
<text text-anchor="middle" x="138" y="-119.5" font-family="Helvetica,sans-Serif" font-size="10.00" fill="#000000">sys/error.hpp</text>
</g>
<!-- Node4 -->
<g id="node2" class="node">
<title>Node4</title>
<g id="a_node2"><a xlink:href="sysctl_8hpp.html" target="_top" xlink:title="Implements safer c++ wrappers for the sysctl() interface. ">
<polygon fill="#ffffff" stroke="#000000" points="0,-56.5 0,-75.5 80,-75.5 80,-56.5 0,-56.5"/>
<text text-anchor="middle" x="40" y="-63.5" font-family="Helvetica,sans-Serif" font-size="10.00" fill="#000000">sys/sysctl.hpp</text>
</a>
</g>
</g>
<!-- Node3&#45;&gt;Node4 -->
<g id="edge1" class="edge">
<title>Node3&#45;&gt;Node4</title>
<path fill="none" stroke="#191970" d="M111.8314,-107.0465C94.3942,-97.0824 71.9889,-84.2794 56.8747,-75.6427"/>
<polygon fill="#191970" stroke="#191970" points="110.5108,-110.323 120.9297,-112.2455 113.9838,-104.2453 110.5108,-110.323"/>
</g>
<!-- Node7 -->
<g id="node5" class="node">
<title>Node7</title>
<g id="a_node5"><a xlink:href="pidfile_8hpp.html" target="_top" xlink:title="Implements safer c++ wrappers for the pidfile_*() interface. ">
<polygon fill="#ffffff" stroke="#000000" points="98,-56.5 98,-75.5 178,-75.5 178,-56.5 98,-56.5"/>
<text text-anchor="middle" x="138" y="-63.5" font-family="Helvetica,sans-Serif" font-size="10.00" fill="#000000">sys/pidfile.hpp</text>
</a>
</g>
</g>
<!-- Node3&#45;&gt;Node7 -->
<g id="edge4" class="edge">
<title>Node3&#45;&gt;Node7</title>
<path fill="none" stroke="#191970" d="M138,-102.1575C138,-93.155 138,-82.9199 138,-75.6427"/>
<polygon fill="#191970" stroke="#191970" points="134.5001,-102.2455 138,-112.2455 141.5001,-102.2456 134.5001,-102.2455"/>
</g>
<!-- Node8 -->
<g id="node6" class="node">
<title>Node8</title>
<g id="a_node6"><a xlink:href="signal_8hpp.html" target="_top" xlink:title="Implements a c++ wrapper for the signal(3) call. ">
<polygon fill="#ffffff" stroke="#000000" points="196,-56.5 196,-75.5 276,-75.5 276,-56.5 196,-56.5"/>
<text text-anchor="middle" x="236" y="-63.5" font-family="Helvetica,sans-Serif" font-size="10.00" fill="#000000">sys/signal.hpp</text>
</a>
</g>
</g>
<!-- Node3&#45;&gt;Node8 -->
<g id="edge6" class="edge">
<title>Node3&#45;&gt;Node8</title>
<path fill="none" stroke="#191970" d="M164.1686,-107.0465C181.6058,-97.0824 204.0111,-84.2794 219.1253,-75.6427"/>
<polygon fill="#191970" stroke="#191970" points="162.0162,-104.2453 155.0703,-112.2455 165.4892,-110.323 162.0162,-104.2453"/>
</g>
<!-- Node5 -->
<g id="node3" class="node">
<title>Node5</title>
<g id="a_node3"><a xlink:href="loadrec_8cpp.html" target="_top" xlink:title="Implements a load recorder, useful for simulating loads to test CPU clock daemons and settings...">
<polygon fill="#ffffff" stroke="#000000" points="6.5,-.5 6.5,-19.5 73.5,-19.5 73.5,-.5 6.5,-.5"/>
<text text-anchor="middle" x="40" y="-7.5" font-family="Helvetica,sans-Serif" font-size="10.00" fill="#000000">loadrec.cpp</text>
</a>
</g>
</g>
<!-- Node4&#45;&gt;Node5 -->
<g id="edge2" class="edge">
<title>Node4&#45;&gt;Node5</title>
<path fill="none" stroke="#191970" d="M40,-46.1575C40,-37.155 40,-26.9199 40,-19.6427"/>
<polygon fill="#191970" stroke="#191970" points="36.5001,-46.2455 40,-56.2455 43.5001,-46.2456 36.5001,-46.2455"/>
</g>
<!-- Node6 -->
<g id="node4" class="node">
<title>Node6</title>
<g id="a_node4"><a xlink:href="powerd_09_09_8cpp.html" target="_top" xlink:title="Implements powerd++ a drop in replacement for FreeBSD&#39;s powerd. ">
<polygon fill="#ffffff" stroke="#000000" points="98.5,-.5 98.5,-19.5 177.5,-19.5 177.5,-.5 98.5,-.5"/>
<text text-anchor="middle" x="138" y="-7.5" font-family="Helvetica,sans-Serif" font-size="10.00" fill="#000000">powerd++.cpp</text>
</a>
</g>
</g>
<!-- Node4&#45;&gt;Node6 -->
<g id="edge3" class="edge">
<title>Node4&#45;&gt;Node6</title>
<path fill="none" stroke="#191970" d="M66.1686,-51.0465C83.6058,-41.0824 106.0111,-28.2794 121.1253,-19.6427"/>
<polygon fill="#191970" stroke="#191970" points="64.0162,-48.2453 57.0703,-56.2455 67.4892,-54.323 64.0162,-48.2453"/>
</g>
<!-- Node7&#45;&gt;Node6 -->
<g id="edge5" class="edge">
<title>Node7&#45;&gt;Node6</title>
<path fill="none" stroke="#191970" d="M138,-46.1575C138,-37.155 138,-26.9199 138,-19.6427"/>
<polygon fill="#191970" stroke="#191970" points="134.5001,-46.2455 138,-56.2455 141.5001,-46.2456 134.5001,-46.2455"/>
</g>
<!-- Node8&#45;&gt;Node6 -->
<g id="edge7" class="edge">
<title>Node8&#45;&gt;Node6</title>
<path fill="none" stroke="#191970" d="M209.8314,-51.0465C192.3942,-41.0824 169.9889,-28.2794 154.8747,-19.6427"/>
<polygon fill="#191970" stroke="#191970" points="208.5108,-54.323 218.9297,-56.2455 211.9838,-48.2453 208.5108,-54.323"/>
</g>
</g>
</svg>
