<?xml version="1.0" encoding="UTF-8" standalone="no"?>
<!DOCTYPE svg PUBLIC "-//W3C//DTD SVG 1.1//EN"
 "http://www.w3.org/Graphics/SVG/1.1/DTD/svg11.dtd">
<!-- Generated by graphviz version 2.42.2 ()
 -->
<!-- Title: src/sys/error.hpp Pages: 1 -->
<svg width="552pt" height="140pt"
 viewBox="0.00 0.00 552.00 140.00" xmlns="http://www.w3.org/2000/svg" xmlns:xlink="http://www.w3.org/1999/xlink">
<g id="graph0" class="graph" transform="scale(1 1) rotate(0) translate(4 136)">
<title>src/sys/error.hpp</title>
<polygon fill="white" stroke="transparent" points="-4,4 -4,-136 548,-136 548,4 -4,4"/>
<!-- Node1 -->
<g id="node1" class="node">
<title>Node1</title>
<g id="a_node1"><a xlink:title="Provides system call error handling.">
<polygon fill="#bfbfbf" stroke="black" points="279,-112.5 279,-131.5 369,-131.5 369,-112.5 279,-112.5"/>
<text text-anchor="middle" x="324" y="-119.5" font-family="Helvetica,sans-Serif" font-size="10.00">src/sys/error.hpp</text>
</a>
</g>
</g>
<!-- Node2 -->
<g id="node2" class="node">
<title>Node2</title>
<g id="a_node2"><a xlink:href="env_8hpp.html" target="_top" xlink:title="Implements zero&#45;cost abstractions for the getenv(3) facilities.">
<polygon fill="white" stroke="black" points="114,-56.5 114,-75.5 200,-75.5 200,-56.5 114,-56.5"/>
<text text-anchor="middle" x="157" y="-63.5" font-family="Helvetica,sans-Serif" font-size="10.00">src/sys/env.hpp</text>
</a>
</g>
</g>
<!-- Node1&#45;&gt;Node2 -->
<g id="edge1" class="edge">
<title>Node1&#45;&gt;Node2</title>
<path fill="none" stroke="midnightblue" d="M287.83,-109.3C256.36,-99.13 211.51,-84.62 183.34,-75.52"/>
<polygon fill="midnightblue" stroke="midnightblue" points="286.95,-112.7 297.54,-112.44 289.1,-106.04 286.95,-112.7"/>
</g>
<!-- Node5 -->
<g id="node5" class="node">
<title>Node5</title>
<g id="a_node5"><a xlink:href="sysctl_8hpp.html" target="_top" xlink:title="Implements safer c++ wrappers for the sysctl() interface.">
<polygon fill="white" stroke="black" points="218.5,-56.5 218.5,-75.5 315.5,-75.5 315.5,-56.5 218.5,-56.5"/>
<text text-anchor="middle" x="267" y="-63.5" font-family="Helvetica,sans-Serif" font-size="10.00">src/sys/sysctl.hpp</text>
</a>
</g>
</g>
<!-- Node1&#45;&gt;Node5 -->
<g id="edge4" class="edge">
<title>Node1&#45;&gt;Node5</title>
<path fill="none" stroke="midnightblue" d="M307.38,-105.25C297.27,-95.67 284.72,-83.79 276.32,-75.83"/>
<polygon fill="midnightblue" stroke="midnightblue" points="305.18,-107.99 314.84,-112.32 309.99,-102.91 305.18,-107.99"/>
</g>
<!-- Node8 -->
<g id="node8" class="node">
<title>Node8</title>
<g id="a_node8"><a xlink:href="pidfile_8hpp.html" target="_top" xlink:title="Implements safer c++ wrappers for the pidfile_*() interface.">
<polygon fill="white" stroke="black" points="334,-56.5 334,-75.5 430,-75.5 430,-56.5 334,-56.5"/>
<text text-anchor="middle" x="382" y="-63.5" font-family="Helvetica,sans-Serif" font-size="10.00">src/sys/pidfile.hpp</text>
</a>
</g>
</g>
<!-- Node1&#45;&gt;Node8 -->
<g id="edge7" class="edge">
<title>Node1&#45;&gt;Node8</title>
<path fill="none" stroke="midnightblue" d="M340.91,-105.25C351.2,-95.67 363.97,-83.79 372.51,-75.83"/>
<polygon fill="midnightblue" stroke="midnightblue" points="338.25,-102.95 333.32,-112.32 343.02,-108.07 338.25,-102.95"/>
</g>
<!-- Node9 -->
<g id="node9" class="node">
<title>Node9</title>
<g id="a_node9"><a xlink:href="signal_8hpp.html" target="_top" xlink:title="Implements a c++ wrapper for the signal(3) call.">
<polygon fill="white" stroke="black" points="448,-56.5 448,-75.5 544,-75.5 544,-56.5 448,-56.5"/>
<text text-anchor="middle" x="496" y="-63.5" font-family="Helvetica,sans-Serif" font-size="10.00">src/sys/signal.hpp</text>
</a>
</g>
</g>
<!-- Node1&#45;&gt;Node9 -->
<g id="edge9" class="edge">
<title>Node1&#45;&gt;Node9</title>
<path fill="none" stroke="midnightblue" d="M360.83,-109.44C393.26,-99.26 439.74,-84.66 468.87,-75.52"/>
<polygon fill="midnightblue" stroke="midnightblue" points="359.75,-106.11 351.25,-112.44 361.84,-112.79 359.75,-106.11"/>
</g>
<!-- Node3 -->
<g id="node3" class="node">
<title>Node3</title>
<g id="a_node3"><a xlink:href="libloadplay_8cpp.html" target="_top" xlink:title="Implements a library intended to be injected into a clock frequency deamon via LD_PRELOAD.">
<polygon fill="white" stroke="black" points="0,-0.5 0,-19.5 98,-19.5 98,-0.5 0,-0.5"/>
<text text-anchor="middle" x="49" y="-7.5" font-family="Helvetica,sans-Serif" font-size="10.00">src/libloadplay.cpp</text>
</a>
</g>
</g>
<!-- Node2&#45;&gt;Node3 -->
<g id="edge2" class="edge">
<title>Node2&#45;&gt;Node3</title>
<path fill="none" stroke="midnightblue" d="M130.45,-51.73C110.45,-41.73 83.61,-28.31 66.31,-19.65"/>
<polygon fill="midnightblue" stroke="midnightblue" points="129.14,-54.98 139.65,-56.32 132.27,-48.72 129.14,-54.98"/>
</g>
<!-- Node4 -->
<g id="node4" class="node">
<title>Node4</title>
<g id="a_node4"><a xlink:href="loadplay_8cpp.html" target="_top" xlink:title="Implements loadplay, a bootstrapping tool for libloadplay.">
<polygon fill="white" stroke="black" points="116,-0.5 116,-19.5 204,-19.5 204,-0.5 116,-0.5"/>
<text text-anchor="middle" x="160" y="-7.5" font-family="Helvetica,sans-Serif" font-size="10.00">src/loadplay.cpp</text>
</a>
</g>
</g>
<!-- Node2&#45;&gt;Node4 -->
<g id="edge3" class="edge">
<title>Node2&#45;&gt;Node4</title>
<path fill="none" stroke="midnightblue" d="M158.07,-45.8C158.56,-36.91 159.12,-26.78 159.51,-19.75"/>
<polygon fill="midnightblue" stroke="midnightblue" points="154.56,-45.9 157.5,-56.08 161.54,-46.29 154.56,-45.9"/>
</g>
<!-- Node6 -->
<g id="node6" class="node">
<title>Node6</title>
<g id="a_node6"><a xlink:href="loadrec_8cpp.html" target="_top" xlink:title="Implements a load recorder, useful for simulating loads to test CPU clock daemons and settings.">
<polygon fill="white" stroke="black" points="225.5,-0.5 225.5,-19.5 308.5,-19.5 308.5,-0.5 225.5,-0.5"/>
<text text-anchor="middle" x="267" y="-7.5" font-family="Helvetica,sans-Serif" font-size="10.00">src/loadrec.cpp</text>
</a>
</g>
</g>
<!-- Node5&#45;&gt;Node6 -->
<g id="edge5" class="edge">
<title>Node5&#45;&gt;Node6</title>
<path fill="none" stroke="midnightblue" d="M267,-45.8C267,-36.91 267,-26.78 267,-19.75"/>
<polygon fill="midnightblue" stroke="midnightblue" points="263.5,-46.08 267,-56.08 270.5,-46.08 263.5,-46.08"/>
</g>
<!-- Node7 -->
<g id="node7" class="node">
<title>Node7</title>
<g id="a_node7"><a xlink:href="powerd_09_09_8cpp.html" target="_top" xlink:title="Implements powerd++ a drop in replacement for FreeBSD&#39;s powerd.">
<polygon fill="white" stroke="black" points="334.5,-0.5 334.5,-19.5 429.5,-19.5 429.5,-0.5 334.5,-0.5"/>
<text text-anchor="middle" x="382" y="-7.5" font-family="Helvetica,sans-Serif" font-size="10.00">src/powerd++.cpp</text>
</a>
</g>
</g>
<!-- Node5&#45;&gt;Node7 -->
<g id="edge6" class="edge">
<title>Node5&#45;&gt;Node7</title>
<path fill="none" stroke="midnightblue" d="M294.48,-52.1C315.97,-42.01 345.22,-28.27 363.86,-19.52"/>
<polygon fill="midnightblue" stroke="midnightblue" points="292.79,-49.02 285.22,-56.44 295.76,-55.36 292.79,-49.02"/>
</g>
<!-- Node8&#45;&gt;Node7 -->
<g id="edge8" class="edge">
<title>Node8&#45;&gt;Node7</title>
<path fill="none" stroke="midnightblue" d="M382,-45.8C382,-36.91 382,-26.78 382,-19.75"/>
<polygon fill="midnightblue" stroke="midnightblue" points="378.5,-46.08 382,-56.08 385.5,-46.08 378.5,-46.08"/>
</g>
<!-- Node9&#45;&gt;Node7 -->
<g id="edge10" class="edge">
<title>Node9&#45;&gt;Node7</title>
<path fill="none" stroke="midnightblue" d="M468.76,-52.1C447.46,-42.01 418.46,-28.27 399.98,-19.52"/>
<polygon fill="midnightblue" stroke="midnightblue" points="467.4,-55.33 477.94,-56.44 470.4,-49 467.4,-55.33"/>
</g>
</g>
</svg>
