<?xml version="1.0" encoding="UTF-8" standalone="no"?>
<!DOCTYPE svg PUBLIC "-//W3C//DTD SVG 1.1//EN"
 "http://www.w3.org/Graphics/SVG/1.1/DTD/svg11.dtd">
<!-- Generated by graphviz version 2.42.2 ()
 -->
<!-- Title: src/errors.hpp Pages: 1 -->
<svg width="324pt" height="140pt"
 viewBox="0.00 0.00 323.50 140.00" xmlns="http://www.w3.org/2000/svg" xmlns:xlink="http://www.w3.org/1999/xlink">
<g id="graph0" class="graph" transform="scale(1 1) rotate(0) translate(4 136)">
<title>src/errors.hpp</title>
<polygon fill="white" stroke="transparent" points="-4,4 -4,-136 319.5,-136 319.5,4 -4,4"/>
<!-- Node1 -->
<g id="node1" class="node">
<title>Node1</title>
<g id="a_node1"><a xlink:title="Common error handling code.">
<polygon fill="#bfbfbf" stroke="black" points="129,-112.5 129,-131.5 206,-131.5 206,-112.5 129,-112.5"/>
<text text-anchor="middle" x="167.5" y="-119.5" font-family="Helvetica,sans-Serif" font-size="10.00">src/errors.hpp</text>
</a>
</g>
</g>
<!-- Node2 -->
<g id="node2" class="node">
<title>Node2</title>
<g id="a_node2"><a xlink:href="clas_8hpp.html" target="_top" xlink:title="Provides functions to process command line arguments.">
<polygon fill="white" stroke="black" points="101.5,-56.5 101.5,-75.5 171.5,-75.5 171.5,-56.5 101.5,-56.5"/>
<text text-anchor="middle" x="136.5" y="-63.5" font-family="Helvetica,sans-Serif" font-size="10.00">src/clas.hpp</text>
</a>
</g>
</g>
<!-- Node1&#45;&gt;Node2 -->
<g id="edge1" class="edge">
<title>Node1&#45;&gt;Node2</title>
<path fill="none" stroke="midnightblue" d="M157.32,-103.27C152.03,-94.05 145.78,-83.17 141.52,-75.75"/>
<polygon fill="midnightblue" stroke="midnightblue" points="154.37,-105.15 162.38,-112.08 160.44,-101.67 154.37,-105.15"/>
</g>
<!-- Node4 -->
<g id="node4" class="node">
<title>Node4</title>
<g id="a_node4"><a xlink:href="loadrec_8cpp.html" target="_top" xlink:title="Implements a load recorder, useful for simulating loads to test CPU clock daemons and settings.">
<polygon fill="white" stroke="black" points="0,-0.5 0,-19.5 83,-19.5 83,-0.5 0,-0.5"/>
<text text-anchor="middle" x="41.5" y="-7.5" font-family="Helvetica,sans-Serif" font-size="10.00">src/loadrec.cpp</text>
</a>
</g>
</g>
<!-- Node1&#45;&gt;Node4 -->
<g id="edge6" class="edge">
<title>Node1&#45;&gt;Node4</title>
<path fill="none" stroke="midnightblue" d="M140.04,-107.67C125.1,-99.67 106.79,-88.61 92.5,-76 72.92,-58.73 55.41,-33.16 46.91,-19.82"/>
<polygon fill="midnightblue" stroke="midnightblue" points="138.82,-110.98 149.31,-112.47 142.04,-104.76 138.82,-110.98"/>
</g>
<!-- Node5 -->
<g id="node5" class="node">
<title>Node5</title>
<g id="a_node5"><a xlink:href="powerd_09_09_8cpp.html" target="_top" xlink:title="Implements powerd++ a drop in replacement for FreeBSD&#39;s powerd.">
<polygon fill="white" stroke="black" points="190,-0.5 190,-19.5 285,-19.5 285,-0.5 190,-0.5"/>
<text text-anchor="middle" x="237.5" y="-7.5" font-family="Helvetica,sans-Serif" font-size="10.00">src/powerd++.cpp</text>
</a>
</g>
</g>
<!-- Node1&#45;&gt;Node5 -->
<g id="edge7" class="edge">
<title>Node1&#45;&gt;Node5</title>
<path fill="none" stroke="midnightblue" d="M178.55,-103.64C193.75,-79.74 220.55,-37.63 232.03,-19.59"/>
<polygon fill="midnightblue" stroke="midnightblue" points="175.41,-102.05 172.99,-112.37 181.31,-105.81 175.41,-102.05"/>
</g>
<!-- Node6 -->
<g id="node6" class="node">
<title>Node6</title>
<g id="a_node6"><a xlink:href="loadplay_8cpp.html" target="_top" xlink:title="Implements loadplay, a bootstrapping tool for libloadplay.">
<polygon fill="white" stroke="black" points="227.5,-56.5 227.5,-75.5 315.5,-75.5 315.5,-56.5 227.5,-56.5"/>
<text text-anchor="middle" x="271.5" y="-63.5" font-family="Helvetica,sans-Serif" font-size="10.00">src/loadplay.cpp</text>
</a>
</g>
</g>
<!-- Node1&#45;&gt;Node6 -->
<g id="edge5" class="edge">
<title>Node1&#45;&gt;Node6</title>
<path fill="none" stroke="midnightblue" d="M193.33,-107.59C212.56,-97.61 238.24,-84.27 254.83,-75.65"/>
<polygon fill="midnightblue" stroke="midnightblue" points="191.47,-104.61 184.21,-112.32 194.7,-110.82 191.47,-104.61"/>
</g>
<!-- Node3 -->
<g id="node3" class="node">
<title>Node3</title>
<g id="a_node3"><a xlink:href="clas_8cpp.html" target="_top" xlink:title="Implements functions to process command line arguments.">
<polygon fill="white" stroke="black" points="101.5,-0.5 101.5,-19.5 171.5,-19.5 171.5,-0.5 101.5,-0.5"/>
<text text-anchor="middle" x="136.5" y="-7.5" font-family="Helvetica,sans-Serif" font-size="10.00">src/clas.cpp</text>
</a>
</g>
</g>
<!-- Node2&#45;&gt;Node3 -->
<g id="edge2" class="edge">
<title>Node2&#45;&gt;Node3</title>
<path fill="none" stroke="midnightblue" d="M136.5,-45.8C136.5,-36.91 136.5,-26.78 136.5,-19.75"/>
<polygon fill="midnightblue" stroke="midnightblue" points="133,-46.08 136.5,-56.08 140,-46.08 133,-46.08"/>
</g>
<!-- Node2&#45;&gt;Node4 -->
<g id="edge3" class="edge">
<title>Node2&#45;&gt;Node4</title>
<path fill="none" stroke="midnightblue" d="M112.18,-51.18C94.7,-41.24 71.67,-28.15 56.73,-19.65"/>
<polygon fill="midnightblue" stroke="midnightblue" points="110.81,-54.43 121.24,-56.32 114.27,-48.34 110.81,-54.43"/>
</g>
<!-- Node2&#45;&gt;Node5 -->
<g id="edge4" class="edge">
<title>Node2&#45;&gt;Node5</title>
<path fill="none" stroke="midnightblue" d="M161.58,-51.59C180.26,-41.61 205.2,-28.27 221.31,-19.65"/>
<polygon fill="midnightblue" stroke="midnightblue" points="159.9,-48.52 152.73,-56.32 163.2,-54.7 159.9,-48.52"/>
</g>
</g>
</svg>
