<?xml version="1.0" encoding="UTF-8" standalone="no"?>
<!DOCTYPE svg PUBLIC "-//W3C//DTD SVG 1.1//EN"
 "http://www.w3.org/Graphics/SVG/1.1/DTD/svg11.dtd">
<!-- Generated by graphviz version 2.42.2 ()
 -->
<!-- Title: Graph Legend Pages: 1 -->
<svg width="509pt" height="159pt"
 viewBox="0.00 0.00 508.50 159.00" xmlns="http://www.w3.org/2000/svg" xmlns:xlink="http://www.w3.org/1999/xlink">
<g id="graph0" class="graph" transform="scale(1 1) rotate(0) translate(4 155)">
<title>Graph Legend</title>
<polygon fill="white" stroke="transparent" points="-4,4 -4,-155 504.5,-155 504.5,4 -4,4"/>
<!-- Node9 -->
<g id="node1" class="node">
<title>Node9</title>
<polygon fill="#bfbfbf" stroke="black" points="293,-19 239,-19 239,0 293,0 293,-19"/>
<text text-anchor="middle" x="266" y="-7" font-family="Helvetica" font-size="10.00">Inherited</text>
</g>
<!-- Node10 -->
<g id="node2" class="node">
<title>Node10</title>
<g id="a_node2"><a xlink:href="$classPublicBase.html" xlink:title="PublicBase">
<polygon fill="none" stroke="black" points="66,-85 0,-85 0,-66 66,-66 66,-85"/>
<text text-anchor="middle" x="33" y="-73" font-family="Helvetica" font-size="10.00">PublicBase</text>
</a>
</g>
</g>
<!-- Node10&#45;&gt;Node9 -->
<g id="edge1" class="edge">
<title>Node10&#45;&gt;Node9</title>
<path fill="none" stroke="midnightblue" d="M74.07,-63.22C121.46,-50.2 198.08,-29.16 238.69,-18"/>
<polygon fill="midnightblue" stroke="midnightblue" points="73.14,-59.84 64.42,-65.87 74.99,-66.59 73.14,-59.84"/>
</g>
<!-- Node11 -->
<g id="node3" class="node">
<title>Node11</title>
<g id="a_node3"><a xlink:href="$classTruncated.html" xlink:title="Truncated">
<polygon fill="none" stroke="red" points="63,-151 3,-151 3,-132 63,-132 63,-151"/>
<text text-anchor="middle" x="33" y="-139" font-family="Helvetica" font-size="10.00">Truncated</text>
</a>
</g>
</g>
<!-- Node11&#45;&gt;Node10 -->
<g id="edge2" class="edge">
<title>Node11&#45;&gt;Node10</title>
<path fill="none" stroke="midnightblue" d="M33,-121.58C33,-109.63 33,-94.72 33,-85.41"/>
<polygon fill="midnightblue" stroke="midnightblue" points="29.5,-121.87 33,-131.87 36.5,-121.87 29.5,-121.87"/>
</g>
<!-- Node13 -->
<g id="node4" class="node">
<title>Node13</title>
<g id="a_node4"><a xlink:href="$classProtectedBase.html" xlink:title="ProtectedBase">
<polygon fill="none" stroke="black" points="165.5,-85 84.5,-85 84.5,-66 165.5,-66 165.5,-85"/>
<text text-anchor="middle" x="125" y="-73" font-family="Helvetica" font-size="10.00">ProtectedBase</text>
</a>
</g>
</g>
<!-- Node13&#45;&gt;Node9 -->
<g id="edge3" class="edge">
<title>Node13&#45;&gt;Node9</title>
<path fill="none" stroke="darkgreen" d="M153.21,-61.69C181,-49.08 222.69,-30.16 246.84,-19.2"/>
<polygon fill="darkgreen" stroke="darkgreen" points="151.68,-58.55 144.02,-65.87 154.57,-64.92 151.68,-58.55"/>
</g>
<!-- Node14 -->
<g id="node5" class="node">
<title>Node14</title>
<g id="a_node5"><a xlink:href="$classPrivateBase.html" xlink:title="PrivateBase">
<polygon fill="none" stroke="black" points="254,-85 184,-85 184,-66 254,-66 254,-85"/>
<text text-anchor="middle" x="219" y="-73" font-family="Helvetica" font-size="10.00">PrivateBase</text>
</a>
</g>
</g>
<!-- Node14&#45;&gt;Node9 -->
<g id="edge4" class="edge">
<title>Node14&#45;&gt;Node9</title>
<path fill="none" stroke="#8b1a1a" d="M231.29,-57.77C240.3,-45.49 252.2,-29.3 259.46,-19.41"/>
<polygon fill="#8b1a1a" stroke="#8b1a1a" points="228.44,-55.74 225.34,-65.87 234.08,-59.88 228.44,-55.74"/>
</g>
<!-- Node15 -->
<g id="node6" class="node">
<title>Node15</title>
<polygon fill="none" stroke="#bfbfbf" points="354,-85 272,-85 272,-66 354,-66 354,-85"/>
<text text-anchor="middle" x="313" y="-73" font-family="Helvetica" font-size="10.00">Undocumented</text>
</g>
<!-- Node15&#45;&gt;Node9 -->
<g id="edge5" class="edge">
<title>Node15&#45;&gt;Node9</title>
<path fill="none" stroke="midnightblue" d="M300.71,-57.77C291.7,-45.49 279.8,-29.3 272.54,-19.41"/>
<polygon fill="midnightblue" stroke="midnightblue" points="297.92,-59.88 306.66,-65.87 303.56,-55.74 297.92,-59.88"/>
</g>
<!-- Node16 -->
<g id="node7" class="node">
<title>Node16</title>
<g id="a_node7"><a xlink:href="$classTempl.html" xlink:title="Templ&lt; int &gt;">
<polygon fill="none" stroke="black" points="443.5,-85 372.5,-85 372.5,-66 443.5,-66 443.5,-85"/>
<text text-anchor="middle" x="408" y="-73" font-family="Helvetica" font-size="10.00">Templ&lt; int &gt;</text>
</a>
</g>
</g>
<!-- Node16&#45;&gt;Node9 -->
<g id="edge6" class="edge">
<title>Node16&#45;&gt;Node9</title>
<path fill="none" stroke="midnightblue" d="M379.59,-61.69C351.6,-49.08 309.62,-30.16 285.3,-19.2"/>
<polygon fill="midnightblue" stroke="midnightblue" points="378.29,-64.95 388.85,-65.87 381.17,-58.57 378.29,-64.95"/>
</g>
<!-- Node17 -->
<g id="node8" class="node">
<title>Node17</title>
<g id="a_node8"><a xlink:href="$classTempl.html" xlink:title="Templ&lt; T &gt;">
<polygon fill="none" stroke="black" points="441.5,-151 374.5,-151 374.5,-132 441.5,-132 441.5,-151"/>
<text text-anchor="middle" x="408" y="-139" font-family="Helvetica" font-size="10.00">Templ&lt; T &gt;</text>
</a>
</g>
</g>
<!-- Node17&#45;&gt;Node16 -->
<g id="edge7" class="edge">
<title>Node17&#45;&gt;Node16</title>
<path fill="none" stroke="orange" stroke-dasharray="5,2" d="M408,-121.58C408,-109.63 408,-94.72 408,-85.41"/>
<polygon fill="orange" stroke="orange" points="404.5,-121.87 408,-131.87 411.5,-121.87 404.5,-121.87"/>
<text text-anchor="middle" x="422.5" y="-106" font-family="Helvetica" font-size="10.00">&lt; int &gt;</text>
</g>
<!-- Node18 -->
<g id="node9" class="node">
<title>Node18</title>
<g id="a_node9"><a xlink:href="$classUsed.html" xlink:title="Used">
<polygon fill="none" stroke="black" points="500.5,-85 461.5,-85 461.5,-66 500.5,-66 500.5,-85"/>
<text text-anchor="middle" x="481" y="-73" font-family="Helvetica" font-size="10.00">Used</text>
</a>
</g>
</g>
<!-- Node18&#45;&gt;Node9 -->
<g id="edge8" class="edge">
<title>Node18&#45;&gt;Node9</title>
<path fill="none" stroke="#9a32cd" stroke-dasharray="5,2" d="M451.49,-65.56C389.56,-46.99 327.85,-28.74 293.27,-18.54"/>
<polygon fill="#9a32cd" stroke="#9a32cd" points="450.84,-69.02 461.42,-68.54 452.85,-62.31 450.84,-69.02"/>
<text text-anchor="middle" x="421" y="-40" font-family="Helvetica" font-size="10.00">m_usedClass</text>
</g>
</g>
</svg>
