<?xml version="1.0" encoding="UTF-8" standalone="no"?>
<!DOCTYPE svg PUBLIC "-//W3C//DTD SVG 1.1//EN"
 "http://www.w3.org/Graphics/SVG/1.1/DTD/svg11.dtd">
<!-- Generated by graphviz version 2.42.2 ()
 -->
<!-- Title: Graphical Class Hierarchy Pages: 1 -->
<svg width="261pt" height="137pt"
 viewBox="0.00 0.00 261.00 137.00" xmlns="http://www.w3.org/2000/svg" xmlns:xlink="http://www.w3.org/1999/xlink">
<g id="graph0" class="graph" transform="scale(1 1) rotate(0) translate(4 133)">
<title>Graphical Class Hierarchy</title>
<polygon fill="white" stroke="transparent" points="-4,4 -4,-133 257,-133 257,4 -4,4"/>
<!-- Node0 -->
<g id="node1" class="node">
<title>Node0</title>
<g id="a_node1"><a xlink:href="classsys_1_1io_1_1file__feature.html" target="_top" xlink:title=" ">
<polygon fill="white" stroke="black" points="0,-49.5 0,-79.5 100,-79.5 100,-49.5 0,-49.5"/>
<text text-anchor="start" x="8" y="-67.5" font-family="Helvetica,sans-Serif" font-size="10.00">sys::io::file_feature</text>
<text text-anchor="middle" x="50" y="-56.5" font-family="Helvetica,sans-Serif" font-size="10.00">&lt; FileT, Tail ... &gt;</text>
</a>
</g>
</g>
<!-- Node1 -->
<g id="node2" class="node">
<title>Node1</title>
<g id="a_node2"><a xlink:href="classsys_1_1io_1_1file__feature_3_01FileT_00_01read_00_01Tail_01_8_8_8_01_4.html" target="_top" xlink:title="Implement read support for file types.">
<polygon fill="white" stroke="black" points="137,-98.5 137,-128.5 252,-128.5 252,-98.5 137,-98.5"/>
<text text-anchor="start" x="145" y="-116.5" font-family="Helvetica,sans-Serif" font-size="10.00">sys::io::file_feature</text>
<text text-anchor="middle" x="194.5" y="-105.5" font-family="Helvetica,sans-Serif" font-size="10.00">&lt; FileT, read, Tail ... &gt;</text>
</a>
</g>
</g>
<!-- Node0&#45;&gt;Node1 -->
<g id="edge1" class="edge">
<title>Node0&#45;&gt;Node1</title>
<path fill="none" stroke="midnightblue" d="M104.48,-82.89C119.32,-87.99 135.25,-93.47 149.48,-98.36"/>
<polygon fill="midnightblue" stroke="midnightblue" points="105.51,-79.54 94.92,-79.6 103.24,-86.16 105.51,-79.54"/>
</g>
<!-- Node2 -->
<g id="node3" class="node">
<title>Node2</title>
<g id="a_node3"><a xlink:href="classsys_1_1io_1_1file__feature_3_01FileT_00_01seek_00_01Tail_01_8_8_8_01_4.html" target="_top" xlink:title="Implement seek support for file types.">
<polygon fill="white" stroke="black" points="136,-49.5 136,-79.5 253,-79.5 253,-49.5 136,-49.5"/>
<text text-anchor="start" x="144" y="-67.5" font-family="Helvetica,sans-Serif" font-size="10.00">sys::io::file_feature</text>
<text text-anchor="middle" x="194.5" y="-56.5" font-family="Helvetica,sans-Serif" font-size="10.00">&lt; FileT, seek, Tail ... &gt;</text>
</a>
</g>
</g>
<!-- Node0&#45;&gt;Node2 -->
<g id="edge2" class="edge">
<title>Node0&#45;&gt;Node2</title>
<path fill="none" stroke="midnightblue" d="M110.13,-64.5C118.53,-64.5 127.16,-64.5 135.53,-64.5"/>
<polygon fill="midnightblue" stroke="midnightblue" points="110.04,-61 100.04,-64.5 110.04,-68 110.04,-61"/>
</g>
<!-- Node3 -->
<g id="node4" class="node">
<title>Node3</title>
<g id="a_node4"><a xlink:href="classsys_1_1io_1_1file__feature_3_01FileT_00_01write_00_01Tail_01_8_8_8_01_4.html" target="_top" xlink:title="Implement write support for file types.">
<polygon fill="white" stroke="black" points="136,-0.5 136,-30.5 253,-30.5 253,-0.5 136,-0.5"/>
<text text-anchor="start" x="144" y="-18.5" font-family="Helvetica,sans-Serif" font-size="10.00">sys::io::file_feature</text>
<text text-anchor="middle" x="194.5" y="-7.5" font-family="Helvetica,sans-Serif" font-size="10.00">&lt; FileT, write, Tail ... &gt;</text>
</a>
</g>
</g>
<!-- Node0&#45;&gt;Node3 -->
<g id="edge3" class="edge">
<title>Node0&#45;&gt;Node3</title>
<path fill="none" stroke="midnightblue" d="M104.48,-46.11C119.32,-41.01 135.25,-35.53 149.48,-30.64"/>
<polygon fill="midnightblue" stroke="midnightblue" points="103.24,-42.84 94.92,-49.4 105.51,-49.46 103.24,-42.84"/>
</g>
</g>
</svg>
