<?xml version="1.0" encoding="UTF-8" standalone="no"?>
<!DOCTYPE svg PUBLIC "-//W3C//DTD SVG 1.1//EN"
 "http://www.w3.org/Graphics/SVG/1.1/DTD/svg11.dtd">
<!-- Generated by graphviz version 2.42.2 ()
 -->
<!-- Title: Graphical Class Hierarchy Pages: 1 -->
<svg width="260pt" height="137pt"
 viewBox="0.00 0.00 260.00 137.00" xmlns="http://www.w3.org/2000/svg" xmlns:xlink="http://www.w3.org/1999/xlink">
<g id="graph0" class="graph" transform="scale(1 1) rotate(0) translate(4 133)">
<title>Graphical Class Hierarchy</title>
<polygon fill="white" stroke="transparent" points="-4,4 -4,-133 256,-133 256,4 -4,4"/>
<!-- Node0 -->
<g id="node1" class="node">
<title>Node0</title>
<g id="a_node1"><a xlink:href="classsys_1_1io_1_1file__feature.html" target="_top" xlink:title=" ">
<polygon fill="white" stroke="black" points="0,-49.5 0,-79.5 100,-79.5 100,-49.5 0,-49.5"/>
<text text-anchor="start" x="8" y="-67.5" font-family="Helvetica" font-size="10.00">sys::io::file_feature</text>
<text text-anchor="middle" x="50" y="-56.5" font-family="Helvetica" font-size="10.00">&lt; FileT, Tail ... &gt;</text>
</a>
</g>
</g>
<!-- Node1 -->
<g id="node2" class="node">
<title>Node1</title>
<g id="a_node2"><a xlink:href="classsys_1_1io_1_1file__feature_3_01FileT_00_01read_00_01Tail_01_8_8_8_01_4.html" target="_top" xlink:title="Implement read support for file types.">
<polygon fill="white" stroke="black" points="137.5,-98.5 137.5,-128.5 250.5,-128.5 250.5,-98.5 137.5,-98.5"/>
<text text-anchor="start" x="145.5" y="-116.5" font-family="Helvetica" font-size="10.00">sys::io::file_feature</text>
<text text-anchor="middle" x="194" y="-105.5" font-family="Helvetica" font-size="10.00">&lt; FileT, read, Tail ... &gt;</text>
</a>
</g>
</g>
<!-- Node0&#45;&gt;Node1 -->
<g id="edge1" class="edge">
<title>Node0&#45;&gt;Node1</title>
<path fill="none" stroke="midnightblue" d="M104.29,-82.89C119.08,-87.99 134.96,-93.47 149.14,-98.36"/>
<polygon fill="midnightblue" stroke="midnightblue" points="105.36,-79.55 94.76,-79.6 103.07,-86.17 105.36,-79.55"/>
</g>
<!-- Node2 -->
<g id="node3" class="node">
<title>Node2</title>
<g id="a_node3"><a xlink:href="classsys_1_1io_1_1file__feature_3_01FileT_00_01seek_00_01Tail_01_8_8_8_01_4.html" target="_top" xlink:title="Implement seek support for file types.">
<polygon fill="white" stroke="black" points="136,-49.5 136,-79.5 252,-79.5 252,-49.5 136,-49.5"/>
<text text-anchor="start" x="144" y="-67.5" font-family="Helvetica" font-size="10.00">sys::io::file_feature</text>
<text text-anchor="middle" x="194" y="-56.5" font-family="Helvetica" font-size="10.00">&lt; FileT, seek, Tail ... &gt;</text>
</a>
</g>
</g>
<!-- Node0&#45;&gt;Node2 -->
<g id="edge2" class="edge">
<title>Node0&#45;&gt;Node2</title>
<path fill="none" stroke="midnightblue" d="M110.3,-64.5C118.65,-64.5 127.22,-64.5 135.53,-64.5"/>
<polygon fill="midnightblue" stroke="midnightblue" points="110.27,-61 100.27,-64.5 110.27,-68 110.27,-61"/>
</g>
<!-- Node3 -->
<g id="node4" class="node">
<title>Node3</title>
<g id="a_node4"><a xlink:href="classsys_1_1io_1_1file__feature_3_01FileT_00_01write_00_01Tail_01_8_8_8_01_4.html" target="_top" xlink:title="Implement write support for file types.">
<polygon fill="white" stroke="black" points="136.5,-0.5 136.5,-30.5 251.5,-30.5 251.5,-0.5 136.5,-0.5"/>
<text text-anchor="start" x="144.5" y="-18.5" font-family="Helvetica" font-size="10.00">sys::io::file_feature</text>
<text text-anchor="middle" x="194" y="-7.5" font-family="Helvetica" font-size="10.00">&lt; FileT, write, Tail ... &gt;</text>
</a>
</g>
</g>
<!-- Node0&#45;&gt;Node3 -->
<g id="edge3" class="edge">
<title>Node0&#45;&gt;Node3</title>
<path fill="none" stroke="midnightblue" d="M104.29,-46.11C119.08,-41.01 134.96,-35.53 149.14,-30.64"/>
<polygon fill="midnightblue" stroke="midnightblue" points="103.07,-42.83 94.76,-49.4 105.36,-49.45 103.07,-42.83"/>
</g>
</g>
</svg>
