<?xml version="1.0" encoding="UTF-8" standalone="no"?>
<!DOCTYPE svg PUBLIC "-//W3C//DTD SVG 1.1//EN"
 "http://www.w3.org/Graphics/SVG/1.1/DTD/svg11.dtd">
<!-- Generated by graphviz version 2.42.2 ()
 -->
<!-- Title: Graphical Class Hierarchy Pages: 1 -->
<svg width="247pt" height="50pt"
 viewBox="0.00 0.00 247.00 50.00" xmlns="http://www.w3.org/2000/svg" xmlns:xlink="http://www.w3.org/1999/xlink">
<g id="graph0" class="graph" transform="scale(1 1) rotate(0) translate(4 46)">
<title>Graphical Class Hierarchy</title>
<polygon fill="white" stroke="transparent" points="-4,4 -4,-46 243,-46 243,4 -4,4"/>
<!-- Node0 -->
<g id="node1" class="node">
<title>Node0</title>
<g id="a_node1"><a xlink:href="classsys_1_1io_1_1file__feature.html" target="_top" xlink:title=" ">
<polygon fill="white" stroke="black" points="0,-0.5 0,-41.5 109,-41.5 109,-0.5 0,-0.5"/>
<text text-anchor="start" x="8" y="-29.5" font-family="Helvetica" font-size="10.00">sys::io::file_feature</text>
<text text-anchor="start" x="8" y="-18.5" font-family="Helvetica" font-size="10.00">&lt; file&lt; own, Features</text>
<text text-anchor="middle" x="54.5" y="-7.5" font-family="Helvetica" font-size="10.00"> ... &gt;, Features ... &gt;</text>
</a>
</g>
</g>
<!-- Node1 -->
<g id="node2" class="node">
<title>Node1</title>
<g id="a_node2"><a xlink:href="classsys_1_1io_1_1file_3_01own_00_01Features_01_8_8_8_01_4.html" target="_top" xlink:title="Specialise for FILE object owning file instances.">
<polygon fill="white" stroke="black" points="145,-6 145,-36 239,-36 239,-6 145,-6"/>
<text text-anchor="start" x="153" y="-24" font-family="Helvetica" font-size="10.00">sys::io::file&lt; own,</text>
<text text-anchor="middle" x="192" y="-13" font-family="Helvetica" font-size="10.00"> Features ... &gt;</text>
</a>
</g>
</g>
<!-- Node0&#45;&gt;Node1 -->
<g id="edge1" class="edge">
<title>Node0&#45;&gt;Node1</title>
<path fill="none" stroke="midnightblue" d="M119.15,-21C127.81,-21 136.57,-21 144.84,-21"/>
<polygon fill="midnightblue" stroke="midnightblue" points="119.05,-17.5 109.05,-21 119.05,-24.5 119.05,-17.5"/>
</g>
</g>
</svg>
