<?xml version="1.0" encoding="UTF-8" standalone="no"?>
<!DOCTYPE svg PUBLIC "-//W3C//DTD SVG 1.1//EN"
 "http://www.w3.org/Graphics/SVG/1.1/DTD/svg11.dtd">
<!-- Generated by graphviz version 2.40.1 (20161225.0304)
 -->
<!-- Title: Graphical Class Hierarchy Pages: 1 -->
<svg width="261pt" height="137pt"
 viewBox="0.00 0.00 261.00 137.00" xmlns="http://www.w3.org/2000/svg" xmlns:xlink="http://www.w3.org/1999/xlink">
<g id="graph0" class="graph" transform="scale(1 1) rotate(0) translate(4 133)">
<title>Graphical Class Hierarchy</title>
<polygon fill="#ffffff" stroke="transparent" points="-4,4 -4,-133 257,-133 257,4 -4,4"/>
<!-- Node0 -->
<g id="node1" class="node">
<title>Node0</title>
<g id="a_node1"><a xlink:href="classsys_1_1io_1_1file__feature.html" target="_top" xlink:title=" ">
<polygon fill="#ffffff" stroke="#000000" points="0,-49.5 0,-79.5 100,-79.5 100,-49.5 0,-49.5"/>
<text text-anchor="start" x="8" y="-67.5" font-family="Helvetica,sans-Serif" font-size="10.00" fill="#000000">sys::io::file_feature</text>
<text text-anchor="middle" x="50" y="-56.5" font-family="Helvetica,sans-Serif" font-size="10.00" fill="#000000">&lt; FileT, Tail ... &gt;</text>
</a>
</g>
</g>
<!-- Node1 -->
<g id="node2" class="node">
<title>Node1</title>
<g id="a_node2"><a xlink:href="classsys_1_1io_1_1file__feature_3_01FileT_00_01read_00_01Tail_01_8_8_8_01_4.html" target="_top" xlink:title="Implement read support for file types.">
<polygon fill="#ffffff" stroke="#000000" points="137,-98.5 137,-128.5 252,-128.5 252,-98.5 137,-98.5"/>
<text text-anchor="start" x="145" y="-116.5" font-family="Helvetica,sans-Serif" font-size="10.00" fill="#000000">sys::io::file_feature</text>
<text text-anchor="middle" x="194.5" y="-105.5" font-family="Helvetica,sans-Serif" font-size="10.00" fill="#000000">&lt; FileT, read, Tail ... &gt;</text>
</a>
</g>
</g>
<!-- Node0&#45;&gt;Node1 -->
<g id="edge1" class="edge">
<title>Node0&#45;&gt;Node1</title>
<path fill="none" stroke="#191970" d="M104.2307,-82.8896C119.2761,-87.9916 135.4352,-93.4711 149.8645,-98.3641"/>
<polygon fill="#191970" stroke="#191970" points="105.1282,-79.4983 94.5338,-79.6014 102.8802,-86.1275 105.1282,-79.4983"/>
</g>
<!-- Node2 -->
<g id="node3" class="node">
<title>Node2</title>
<g id="a_node3"><a xlink:href="classsys_1_1io_1_1file__feature_3_01FileT_00_01seek_00_01Tail_01_8_8_8_01_4.html" target="_top" xlink:title="Implement seek support for file types.">
<polygon fill="#ffffff" stroke="#000000" points="136,-49.5 136,-79.5 253,-79.5 253,-49.5 136,-49.5"/>
<text text-anchor="start" x="144" y="-67.5" font-family="Helvetica,sans-Serif" font-size="10.00" fill="#000000">sys::io::file_feature</text>
<text text-anchor="middle" x="194.5" y="-56.5" font-family="Helvetica,sans-Serif" font-size="10.00" fill="#000000">&lt; FileT, seek, Tail ... &gt;</text>
</a>
</g>
</g>
<!-- Node0&#45;&gt;Node2 -->
<g id="edge2" class="edge">
<title>Node0&#45;&gt;Node2</title>
<path fill="none" stroke="#191970" d="M110.2756,-64.5C118.7076,-64.5 127.3634,-64.5 135.7662,-64.5"/>
<polygon fill="#191970" stroke="#191970" points="110.1336,-61.0001 100.1336,-64.5 110.1335,-68.0001 110.1336,-61.0001"/>
</g>
<!-- Node3 -->
<g id="node4" class="node">
<title>Node3</title>
<g id="a_node4"><a xlink:href="classsys_1_1io_1_1file__feature_3_01FileT_00_01write_00_01Tail_01_8_8_8_01_4.html" target="_top" xlink:title="Implement write support for file types.">
<polygon fill="#ffffff" stroke="#000000" points="136,-.5 136,-30.5 253,-30.5 253,-.5 136,-.5"/>
<text text-anchor="start" x="144" y="-18.5" font-family="Helvetica,sans-Serif" font-size="10.00" fill="#000000">sys::io::file_feature</text>
<text text-anchor="middle" x="194.5" y="-7.5" font-family="Helvetica,sans-Serif" font-size="10.00" fill="#000000">&lt; FileT, write, Tail ... &gt;</text>
</a>
</g>
</g>
<!-- Node0&#45;&gt;Node3 -->
<g id="edge3" class="edge">
<title>Node0&#45;&gt;Node3</title>
<path fill="none" stroke="#191970" d="M104.2307,-46.1104C119.2761,-41.0084 135.4352,-35.5289 149.8645,-30.6359"/>
<polygon fill="#191970" stroke="#191970" points="102.8802,-42.8725 94.5338,-49.3986 105.1282,-49.5017 102.8802,-42.8725"/>
</g>
</g>
</svg>
