<?xml version="1.0" encoding="UTF-8" standalone="no"?>
<!DOCTYPE svg PUBLIC "-//W3C//DTD SVG 1.1//EN"
 "http://www.w3.org/Graphics/SVG/1.1/DTD/svg11.dtd">
<!-- Generated by graphviz version 2.40.1 (20161225.0304)
 -->
<!-- Title: src/sys/io.hpp Pages: 1 -->
<svg width="427pt" height="84pt"
 viewBox="0.00 0.00 426.50 84.00" xmlns="http://www.w3.org/2000/svg" xmlns:xlink="http://www.w3.org/1999/xlink">
<g id="graph0" class="graph" transform="scale(1 1) rotate(0) translate(4 80)">
<title>src/sys/io.hpp</title>
<polygon fill="#ffffff" stroke="transparent" points="-4,4 -4,-80 422.5,-80 422.5,4 -4,4"/>
<!-- Node2 -->
<g id="node1" class="node">
<title>Node2</title>
<g id="a_node1"><a xlink:title="Implements c++ wrappers for &lt;cstdio&gt; I/O functionality.">
<polygon fill="#bfbfbf" stroke="#000000" points="173,-56.5 173,-75.5 251,-75.5 251,-56.5 173,-56.5"/>
<text text-anchor="middle" x="212" y="-63.5" font-family="Helvetica,sans-Serif" font-size="10.00" fill="#000000">src/sys/io.hpp</text>
</a>
</g>
</g>
<!-- Node3 -->
<g id="node2" class="node">
<title>Node3</title>
<g id="a_node2"><a xlink:href="libloadplay_8cpp.html" target="_top" xlink:title="Implements a library intended to be injected into a clock frequency deamon via LD_PRELOAD.">
<polygon fill="#ffffff" stroke="#000000" points="0,-.5 0,-19.5 98,-19.5 98,-.5 0,-.5"/>
<text text-anchor="middle" x="49" y="-7.5" font-family="Helvetica,sans-Serif" font-size="10.00" fill="#000000">src/libloadplay.cpp</text>
</a>
</g>
</g>
<!-- Node2&#45;&gt;Node3 -->
<g id="edge1" class="edge">
<title>Node2&#45;&gt;Node3</title>
<path fill="none" stroke="#191970" d="M174.3267,-53.057C144.4958,-42.8084 103.5148,-28.729 76.6551,-19.5011"/>
<polygon fill="#191970" stroke="#191970" points="173.3846,-56.4341 183.9793,-56.3733 175.6591,-49.8139 173.3846,-56.4341"/>
</g>
<!-- Node4 -->
<g id="node3" class="node">
<title>Node4</title>
<g id="a_node3"><a xlink:href="loadplay_8cpp.html" target="_top" xlink:title="Implements the loadplay a bootstrapping tool for libloadplay.">
<polygon fill="#ffffff" stroke="#000000" points="116,-.5 116,-19.5 204,-19.5 204,-.5 116,-.5"/>
<text text-anchor="middle" x="160" y="-7.5" font-family="Helvetica,sans-Serif" font-size="10.00" fill="#000000">src/loadplay.cpp</text>
</a>
</g>
</g>
<!-- Node2&#45;&gt;Node4 -->
<g id="edge2" class="edge">
<title>Node2&#45;&gt;Node4</title>
<path fill="none" stroke="#191970" d="M196.0178,-48.7884C187.1222,-39.2085 176.3796,-27.6396 168.9539,-19.6427"/>
<polygon fill="#191970" stroke="#191970" points="193.573,-51.2992 202.9423,-56.2455 198.7025,-46.536 193.573,-51.2992"/>
</g>
<!-- Node5 -->
<g id="node4" class="node">
<title>Node5</title>
<g id="a_node4"><a xlink:href="loadrec_8cpp.html" target="_top" xlink:title="Implements a load recorder, useful for simulating loads to test CPU clock daemons and settings.">
<polygon fill="#ffffff" stroke="#000000" points="222.5,-.5 222.5,-19.5 305.5,-19.5 305.5,-.5 222.5,-.5"/>
<text text-anchor="middle" x="264" y="-7.5" font-family="Helvetica,sans-Serif" font-size="10.00" fill="#000000">src/loadrec.cpp</text>
</a>
</g>
</g>
<!-- Node2&#45;&gt;Node5 -->
<g id="edge3" class="edge">
<title>Node2&#45;&gt;Node5</title>
<path fill="none" stroke="#191970" d="M227.9822,-48.7884C236.8778,-39.2085 247.6204,-27.6396 255.0461,-19.6427"/>
<polygon fill="#191970" stroke="#191970" points="225.2975,-46.536 221.0577,-56.2455 230.427,-51.2992 225.2975,-46.536"/>
</g>
<!-- Node6 -->
<g id="node5" class="node">
<title>Node6</title>
<g id="a_node5"><a xlink:href="powerd_09_09_8cpp.html" target="_top" xlink:title="Implements powerd++ a drop in replacement for FreeBSD&#39;s powerd.">
<polygon fill="#ffffff" stroke="#000000" points="323.5,-.5 323.5,-19.5 418.5,-19.5 418.5,-.5 323.5,-.5"/>
<text text-anchor="middle" x="371" y="-7.5" font-family="Helvetica,sans-Serif" font-size="10.00" fill="#000000">src/powerd++.cpp</text>
</a>
</g>
</g>
<!-- Node2&#45;&gt;Node6 -->
<g id="edge4" class="edge">
<title>Node2&#45;&gt;Node6</title>
<path fill="none" stroke="#191970" d="M249.129,-52.9231C278.195,-42.686 317.9369,-28.6889 344.0236,-19.5011"/>
<polygon fill="#191970" stroke="#191970" points="247.6025,-49.75 239.3331,-56.3733 249.9279,-56.3524 247.6025,-49.75"/>
</g>
</g>
</svg>
