<?xml version="1.0" encoding="UTF-8" standalone="no"?>
<!DOCTYPE svg PUBLIC "-//W3C//DTD SVG 1.1//EN"
 "http://www.w3.org/Graphics/SVG/1.1/DTD/svg11.dtd">
<!-- Generated by graphviz version 2.42.2 ()
 -->
<!-- Title: src/sys/io.hpp Pages: 1 -->
<svg width="424pt" height="84pt"
 viewBox="0.00 0.00 424.00 84.00" xmlns="http://www.w3.org/2000/svg" xmlns:xlink="http://www.w3.org/1999/xlink">
<g id="graph0" class="graph" transform="scale(1 1) rotate(0) translate(4 80)">
<title>src/sys/io.hpp</title>
<polygon fill="white" stroke="transparent" points="-4,4 -4,-80 420,-80 420,4 -4,4"/>
<!-- Node1 -->
<g id="node1" class="node">
<title>Node1</title>
<g id="a_node1"><a xlink:title="Implements c++ wrappers for &lt;cstdio&gt; I/O functionality.">
<polygon fill="#bfbfbf" stroke="black" points="170.5,-56.5 170.5,-75.5 248.5,-75.5 248.5,-56.5 170.5,-56.5"/>
<text text-anchor="middle" x="209.5" y="-63.5" font-family="Helvetica" font-size="10.00">src/sys/io.hpp</text>
</a>
</g>
</g>
<!-- Node2 -->
<g id="node2" class="node">
<title>Node2</title>
<g id="a_node2"><a xlink:href="libloadplay_8cpp.html" target="_top" xlink:title="Implements a library intended to be injected into a clock frequency deamon via LD_PRELOAD.">
<polygon fill="white" stroke="black" points="0,-0.5 0,-19.5 97,-19.5 97,-0.5 0,-0.5"/>
<text text-anchor="middle" x="48.5" y="-7.5" font-family="Helvetica" font-size="10.00">src/libloadplay.cpp</text>
</a>
</g>
</g>
<!-- Node1&#45;&gt;Node2 -->
<g id="edge1" class="edge">
<title>Node1&#45;&gt;Node2</title>
<path fill="none" stroke="midnightblue" d="M174.24,-53.17C143.92,-43 100.93,-28.59 73.89,-19.52"/>
<polygon fill="midnightblue" stroke="midnightblue" points="173.4,-56.58 183.99,-56.44 175.62,-49.95 173.4,-56.58"/>
</g>
<!-- Node3 -->
<g id="node3" class="node">
<title>Node3</title>
<g id="a_node3"><a xlink:href="loadplay_8cpp.html" target="_top" xlink:title="Implements loadplay, a bootstrapping tool for libloadplay.">
<polygon fill="white" stroke="black" points="115,-0.5 115,-19.5 202,-19.5 202,-0.5 115,-0.5"/>
<text text-anchor="middle" x="158.5" y="-7.5" font-family="Helvetica" font-size="10.00">src/loadplay.cpp</text>
</a>
</g>
</g>
<!-- Node1&#45;&gt;Node3 -->
<g id="edge2" class="edge">
<title>Node1&#45;&gt;Node3</title>
<path fill="none" stroke="midnightblue" d="M194.12,-48.72C185.13,-39.2 174.14,-27.56 166.76,-19.75"/>
<polygon fill="midnightblue" stroke="midnightblue" points="191.67,-51.22 201.08,-56.08 196.76,-46.41 191.67,-51.22"/>
</g>
<!-- Node4 -->
<g id="node4" class="node">
<title>Node4</title>
<g id="a_node4"><a xlink:href="loadrec_8cpp.html" target="_top" xlink:title="Implements a load recorder, useful for simulating loads to test CPU clock daemons and settings.">
<polygon fill="white" stroke="black" points="220,-0.5 220,-19.5 303,-19.5 303,-0.5 220,-0.5"/>
<text text-anchor="middle" x="261.5" y="-7.5" font-family="Helvetica" font-size="10.00">src/loadrec.cpp</text>
</a>
</g>
</g>
<!-- Node1&#45;&gt;Node4 -->
<g id="edge3" class="edge">
<title>Node1&#45;&gt;Node4</title>
<path fill="none" stroke="midnightblue" d="M225.18,-48.72C234.34,-39.2 245.55,-27.56 253.07,-19.75"/>
<polygon fill="midnightblue" stroke="midnightblue" points="222.5,-46.45 218.09,-56.08 227.54,-51.31 222.5,-46.45"/>
</g>
<!-- Node5 -->
<g id="node5" class="node">
<title>Node5</title>
<g id="a_node5"><a xlink:href="powerd_09_09_8cpp.html" target="_top" xlink:title="Implements powerd++ a drop in replacement for FreeBSD&#39;s powerd.">
<polygon fill="white" stroke="black" points="321,-0.5 321,-19.5 416,-19.5 416,-0.5 321,-0.5"/>
<text text-anchor="middle" x="368.5" y="-7.5" font-family="Helvetica" font-size="10.00">src/powerd++.cpp</text>
</a>
</g>
</g>
<!-- Node1&#45;&gt;Node5 -->
<g id="edge4" class="edge">
<title>Node1&#45;&gt;Node5</title>
<path fill="none" stroke="midnightblue" d="M244.33,-53.17C274.27,-43 316.72,-28.59 343.42,-19.52"/>
<polygon fill="midnightblue" stroke="midnightblue" points="243.04,-49.91 234.69,-56.44 245.29,-56.54 243.04,-49.91"/>
</g>
</g>
</svg>
