<?xml version="1.0" encoding="UTF-8" standalone="no"?>
<!DOCTYPE svg PUBLIC "-//W3C//DTD SVG 1.1//EN"
 "http://www.w3.org/Graphics/SVG/1.1/DTD/svg11.dtd">
<!-- Generated by graphviz version 2.40.1 (20161225.0304)
 -->
<!-- Title: src/libloadplay.cpp Pages: 1 -->
<svg width="1778pt" height="196pt"
 viewBox="0.00 0.00 1777.74 196.00" xmlns="http://www.w3.org/2000/svg" xmlns:xlink="http://www.w3.org/1999/xlink">
<g id="graph0" class="graph" transform="scale(1 1) rotate(0) translate(4 192)">
<title>src/libloadplay.cpp</title>
<polygon fill="#ffffff" stroke="transparent" points="-4,4 -4,-192 1773.7413,-192 1773.7413,4 -4,4"/>
<!-- Node0 -->
<g id="node1" class="node">
<title>Node0</title>
<g id="a_node1"><a xlink:title="Implements a library intended to be injected into a clock frequency deamon via LD_PRELOAD.">
<polygon fill="#bfbfbf" stroke="#000000" points="784.2413,-168.5 784.2413,-187.5 882.2413,-187.5 882.2413,-168.5 784.2413,-168.5"/>
<text text-anchor="middle" x="833.2413" y="-175.5" font-family="Helvetica,sans-Serif" font-size="10.00" fill="#000000">src/libloadplay.cpp</text>
</a>
</g>
</g>
<!-- Node1 -->
<g id="node2" class="node">
<title>Node1</title>
<g id="a_node2"><a xlink:href="utility_8hpp.html" target="_top" xlink:title="Implements generally useful functions.">
<polygon fill="#ffffff" stroke="#000000" points="157.7413,-56.5 157.7413,-75.5 216.7413,-75.5 216.7413,-56.5 157.7413,-56.5"/>
<text text-anchor="middle" x="187.2413" y="-63.5" font-family="Helvetica,sans-Serif" font-size="10.00" fill="#000000">utility.hpp</text>
</a>
</g>
</g>
<!-- Node0&#45;&gt;Node1 -->
<g id="edge1" class="edge">
<title>Node0&#45;&gt;Node1</title>
<path fill="none" stroke="#191970" d="M784.0121,-177.2477C645.761,-174.7331 261.0396,-164.8296 215.2413,-132 200.263,-121.2631 193.2443,-100.8683 189.9885,-85.5788"/>
<polygon fill="#191970" stroke="#191970" points="193.4053,-84.7999 188.2228,-75.5591 186.5115,-86.0148 193.4053,-84.7999"/>
</g>
<!-- Node3 -->
<g id="node4" class="node">
<title>Node3</title>
<g id="a_node4"><a xlink:title=" ">
<polygon fill="#ffffff" stroke="#bfbfbf" points="108.7413,-.5 108.7413,-19.5 149.7413,-19.5 149.7413,-.5 108.7413,-.5"/>
<text text-anchor="middle" x="129.2413" y="-7.5" font-family="Helvetica,sans-Serif" font-size="10.00" fill="#000000">string</text>
</a>
</g>
</g>
<!-- Node0&#45;&gt;Node3 -->
<g id="edge20" class="edge">
<title>Node0&#45;&gt;Node3</title>
<path fill="none" stroke="#191970" d="M783.9655,-176.6172C643.565,-172.3746 248.2159,-158.2139 196.2413,-132 166.9727,-117.2381 163.7976,-104.8543 148.2413,-76 140.4609,-61.5687 135.5571,-43.5996 132.6843,-30.0564"/>
<polygon fill="#191970" stroke="#191970" points="136.056,-29.0549 130.7304,-19.8959 129.1819,-30.3769 136.056,-29.0549"/>
</g>
<!-- Node5 -->
<g id="node6" class="node">
<title>Node5</title>
<g id="a_node6"><a xlink:href="constants_8hpp.html" target="_top" xlink:title="Defines a collection of constants.">
<polygon fill="#ffffff" stroke="#000000" points="23.2413,-112.5 23.2413,-131.5 101.2413,-131.5 101.2413,-112.5 23.2413,-112.5"/>
<text text-anchor="middle" x="62.2413" y="-119.5" font-family="Helvetica,sans-Serif" font-size="10.00" fill="#000000">constants.hpp</text>
</a>
</g>
</g>
<!-- Node0&#45;&gt;Node5 -->
<g id="edge5" class="edge">
<title>Node0&#45;&gt;Node5</title>
<path fill="none" stroke="#191970" d="M783.8607,-176.9189C667.1457,-173.9103 365.2703,-163.4767 115.2413,-132 113.9871,-131.8421 112.7178,-131.6731 111.4384,-131.4945"/>
<polygon fill="#191970" stroke="#191970" points="111.935,-128.0298 101.5185,-129.9653 110.8685,-134.948 111.935,-128.0298"/>
</g>
<!-- Node7 -->
<g id="node8" class="node">
<title>Node7</title>
<g id="a_node8"><a xlink:title=" ">
<polygon fill="#ffffff" stroke="#bfbfbf" points="4.2413,-.5 4.2413,-19.5 50.2413,-19.5 50.2413,-.5 4.2413,-.5"/>
<text text-anchor="middle" x="27.2413" y="-7.5" font-family="Helvetica,sans-Serif" font-size="10.00" fill="#000000">chrono</text>
</a>
</g>
</g>
<!-- Node0&#45;&gt;Node7 -->
<g id="edge27" class="edge">
<title>Node0&#45;&gt;Node7</title>
<path fill="none" stroke="#191970" d="M784.1556,-177.0829C611.4528,-173.6202 40.7946,-160.0865 14.2413,-132 -11.9694,-104.2758 4.862,-55.6228 17.3358,-28.9001"/>
<polygon fill="#191970" stroke="#191970" points="20.5284,-30.3392 21.8044,-19.8214 14.248,-27.2479 20.5284,-30.3392"/>
</g>
<!-- Node8 -->
<g id="node9" class="node">
<title>Node8</title>
<g id="a_node9"><a xlink:href="version_8hpp.html" target="_top" xlink:title="Defines types and constants used for version management.">
<polygon fill="#ffffff" stroke="#000000" points="224.7413,-112.5 224.7413,-131.5 291.7413,-131.5 291.7413,-112.5 224.7413,-112.5"/>
<text text-anchor="middle" x="258.2413" y="-119.5" font-family="Helvetica,sans-Serif" font-size="10.00" fill="#000000">version.hpp</text>
</a>
</g>
</g>
<!-- Node0&#45;&gt;Node8 -->
<g id="edge8" class="edge">
<title>Node0&#45;&gt;Node8</title>
<path fill="none" stroke="#191970" d="M784.111,-174.8614C692.3452,-168.7219 488.7556,-153.7927 318.2413,-132 312.8728,-131.3139 307.2491,-130.5017 301.6875,-129.6414"/>
<polygon fill="#191970" stroke="#191970" points="302.2405,-126.1854 291.8124,-128.0578 301.132,-133.0971 302.2405,-126.1854"/>
</g>
<!-- Node10 -->
<g id="node11" class="node">
<title>Node10</title>
<g id="a_node11"><a xlink:href="env_8hpp.html" target="_top" xlink:title="Implements zero&#45;cost abstractions for the getenv(3) facilities.">
<polygon fill="#ffffff" stroke="#000000" points="364.2413,-112.5 364.2413,-131.5 434.2413,-131.5 434.2413,-112.5 364.2413,-112.5"/>
<text text-anchor="middle" x="399.2413" y="-119.5" font-family="Helvetica,sans-Serif" font-size="10.00" fill="#000000">sys/env.hpp</text>
</a>
</g>
</g>
<!-- Node0&#45;&gt;Node10 -->
<g id="edge11" class="edge">
<title>Node0&#45;&gt;Node10</title>
<path fill="none" stroke="#191970" d="M784.137,-173.4413C710.7844,-166.336 568.358,-151.3988 448.2413,-132 446.9878,-131.7976 445.7175,-131.5856 444.4366,-131.3659"/>
<polygon fill="#191970" stroke="#191970" points="444.9718,-127.9059 434.5067,-129.5586 443.7183,-134.7927 444.9718,-127.9059"/>
</g>
<!-- Node13 -->
<g id="node14" class="node">
<title>Node13</title>
<g id="a_node14"><a xlink:title=" ">
<polygon fill="#ffffff" stroke="#bfbfbf" points="503.2413,-.5 503.2413,-19.5 549.2413,-19.5 549.2413,-.5 503.2413,-.5"/>
<text text-anchor="middle" x="526.2413" y="-7.5" font-family="Helvetica,sans-Serif" font-size="10.00" fill="#000000">cstring</text>
</a>
</g>
</g>
<!-- Node0&#45;&gt;Node13 -->
<g id="edge30" class="edge">
<title>Node0&#45;&gt;Node13</title>
<path fill="none" stroke="#191970" d="M784.1995,-175.1093C692.3507,-169.1924 501.8506,-154.3469 482.2413,-132 464.4271,-111.6988 506.6057,-77.3375 507.2413,-76 514.2786,-61.1921 519.2376,-43.251 522.3206,-29.8143"/>
<polygon fill="#191970" stroke="#191970" points="525.8032,-30.2657 524.4736,-19.7546 518.9582,-28.8007 525.8032,-30.2657"/>
</g>
<!-- Node15 -->
<g id="node16" class="node">
<title>Node15</title>
<g id="a_node16"><a xlink:href="io_8hpp.html" target="_top" xlink:title="Implements c++ wrappers for &lt;cstdio&gt; I/O functionality.">
<polygon fill="#ffffff" stroke="#000000" points="299.2413,-56.5 299.2413,-75.5 361.2413,-75.5 361.2413,-56.5 299.2413,-56.5"/>
<text text-anchor="middle" x="330.2413" y="-63.5" font-family="Helvetica,sans-Serif" font-size="10.00" fill="#000000">sys/io.hpp</text>
</a>
</g>
</g>
<!-- Node0&#45;&gt;Node15 -->
<g id="edge16" class="edge">
<title>Node0&#45;&gt;Node15</title>
<path fill="none" stroke="#191970" d="M784.1589,-176.1868C669.0379,-171.5252 388.8226,-157.652 355.2413,-132 340.9812,-121.107 334.855,-101.077 332.2233,-85.9293"/>
<polygon fill="#191970" stroke="#191970" points="335.6829,-85.3953 330.8582,-75.9628 328.7476,-86.3452 335.6829,-85.3953"/>
</g>
<!-- Node16 -->
<g id="node17" class="node">
<title>Node16</title>
<g id="a_node17"><a xlink:title=" ">
<polygon fill="#ffffff" stroke="#bfbfbf" points="490.7413,-112.5 490.7413,-131.5 573.7413,-131.5 573.7413,-112.5 490.7413,-112.5"/>
<text text-anchor="middle" x="532.2413" y="-119.5" font-family="Helvetica,sans-Serif" font-size="10.00" fill="#000000">unordered_map</text>
</a>
</g>
</g>
<!-- Node0&#45;&gt;Node16 -->
<g id="edge18" class="edge">
<title>Node0&#45;&gt;Node16</title>
<path fill="none" stroke="#191970" d="M783.8771,-169.0922C735.594,-160.3402 659.6977,-146.4785 584.153,-132.157"/>
<polygon fill="#191970" stroke="#191970" points="584.4596,-128.6527 573.9822,-130.2256 583.1536,-135.5298 584.4596,-128.6527"/>
</g>
<!-- Node17 -->
<g id="node18" class="node">
<title>Node17</title>
<g id="a_node18"><a xlink:title=" ">
<polygon fill="#ffffff" stroke="#bfbfbf" points="591.7413,-112.5 591.7413,-131.5 626.7413,-131.5 626.7413,-112.5 591.7413,-112.5"/>
<text text-anchor="middle" x="609.2413" y="-119.5" font-family="Helvetica,sans-Serif" font-size="10.00" fill="#000000">map</text>
</a>
</g>
</g>
<!-- Node0&#45;&gt;Node17 -->
<g id="edge19" class="edge">
<title>Node0&#45;&gt;Node17</title>
<path fill="none" stroke="#191970" d="M784.6241,-168.4218C746.673,-160.5456 692.5093,-148.432 636.5751,-131.8128"/>
<polygon fill="#191970" stroke="#191970" points="637.4372,-128.4172 626.8526,-128.8832 635.4176,-135.1195 637.4372,-128.4172"/>
</g>
<!-- Node18 -->
<g id="node19" class="node">
<title>Node18</title>
<g id="a_node19"><a xlink:title=" ">
<polygon fill="#ffffff" stroke="#bfbfbf" points="644.7413,-112.5 644.7413,-131.5 685.7413,-131.5 685.7413,-112.5 644.7413,-112.5"/>
<text text-anchor="middle" x="665.2413" y="-119.5" font-family="Helvetica,sans-Serif" font-size="10.00" fill="#000000">regex</text>
</a>
</g>
</g>
<!-- Node0&#45;&gt;Node18 -->
<g id="edge21" class="edge">
<title>Node0&#45;&gt;Node18</title>
<path fill="none" stroke="#191970" d="M804.3611,-168.3733C774.0175,-158.2587 726.4934,-142.4174 695.6041,-132.1209"/>
<polygon fill="#191970" stroke="#191970" points="696.4088,-128.6999 685.8151,-128.8579 694.1951,-135.3407 696.4088,-128.6999"/>
</g>
<!-- Node19 -->
<g id="node20" class="node">
<title>Node19</title>
<g id="a_node20"><a xlink:title=" ">
<polygon fill="#ffffff" stroke="#bfbfbf" points="704.2413,-112.5 704.2413,-131.5 756.2413,-131.5 756.2413,-112.5 704.2413,-112.5"/>
<text text-anchor="middle" x="730.2413" y="-119.5" font-family="Helvetica,sans-Serif" font-size="10.00" fill="#000000">sstream</text>
</a>
</g>
</g>
<!-- Node0&#45;&gt;Node19 -->
<g id="edge22" class="edge">
<title>Node0&#45;&gt;Node19</title>
<path fill="none" stroke="#191970" d="M815.3001,-168.2455C799.2013,-159.4928 775.3534,-146.527 757.0022,-136.5496"/>
<polygon fill="#191970" stroke="#191970" points="758.4342,-133.3444 747.9769,-131.6427 755.0906,-139.4942 758.4342,-133.3444"/>
</g>
<!-- Node20 -->
<g id="node21" class="node">
<title>Node20</title>
<g id="a_node21"><a xlink:title=" ">
<polygon fill="#ffffff" stroke="#bfbfbf" points="774.2413,-112.5 774.2413,-131.5 826.2413,-131.5 826.2413,-112.5 774.2413,-112.5"/>
<text text-anchor="middle" x="800.2413" y="-119.5" font-family="Helvetica,sans-Serif" font-size="10.00" fill="#000000">memory</text>
</a>
</g>
</g>
<!-- Node0&#45;&gt;Node20 -->
<g id="edge23" class="edge">
<title>Node0&#45;&gt;Node20</title>
<path fill="none" stroke="#191970" d="M827.4931,-168.2455C822.9978,-160.617 816.6165,-149.7881 811.1589,-140.5267"/>
<polygon fill="#191970" stroke="#191970" points="814.016,-138.4811 805.9236,-131.6427 807.9852,-142.035 814.016,-138.4811"/>
</g>
<!-- Node21 -->
<g id="node22" class="node">
<title>Node21</title>
<g id="a_node22"><a xlink:title=" ">
<polygon fill="#ffffff" stroke="#bfbfbf" points="844.2413,-112.5 844.2413,-131.5 888.2413,-131.5 888.2413,-112.5 844.2413,-112.5"/>
<text text-anchor="middle" x="866.2413" y="-119.5" font-family="Helvetica,sans-Serif" font-size="10.00" fill="#000000">thread</text>
</a>
</g>
</g>
<!-- Node0&#45;&gt;Node21 -->
<g id="edge24" class="edge">
<title>Node0&#45;&gt;Node21</title>
<path fill="none" stroke="#191970" d="M838.9895,-168.2455C843.4848,-160.617 849.8662,-149.7881 855.3238,-140.5267"/>
<polygon fill="#191970" stroke="#191970" points="858.4974,-142.035 860.559,-131.6427 852.4667,-138.4811 858.4974,-142.035"/>
</g>
<!-- Node22 -->
<g id="node23" class="node">
<title>Node22</title>
<g id="a_node23"><a xlink:title=" ">
<polygon fill="#ffffff" stroke="#bfbfbf" points="906.7413,-112.5 906.7413,-131.5 965.7413,-131.5 965.7413,-112.5 906.7413,-112.5"/>
<text text-anchor="middle" x="936.2413" y="-119.5" font-family="Helvetica,sans-Serif" font-size="10.00" fill="#000000">exception</text>
</a>
</g>
</g>
<!-- Node0&#45;&gt;Node22 -->
<g id="edge25" class="edge">
<title>Node0&#45;&gt;Node22</title>
<path fill="none" stroke="#191970" d="M851.1825,-168.2455C867.2813,-159.4928 891.1292,-146.527 909.4804,-136.5496"/>
<polygon fill="#191970" stroke="#191970" points="911.392,-139.4942 918.5057,-131.6427 908.0484,-133.3444 911.392,-139.4942"/>
</g>
<!-- Node23 -->
<g id="node24" class="node">
<title>Node23</title>
<g id="a_node24"><a xlink:title=" ">
<polygon fill="#ffffff" stroke="#bfbfbf" points="984.2413,-112.5 984.2413,-131.5 1028.2413,-131.5 1028.2413,-112.5 984.2413,-112.5"/>
<text text-anchor="middle" x="1006.2413" y="-119.5" font-family="Helvetica,sans-Serif" font-size="10.00" fill="#000000">mutex</text>
</a>
</g>
</g>
<!-- Node0&#45;&gt;Node23 -->
<g id="edge26" class="edge">
<title>Node0&#45;&gt;Node23</title>
<path fill="none" stroke="#191970" d="M862.9811,-168.3733C894.0148,-158.3276 942.5004,-142.6329 974.3225,-132.3321"/>
<polygon fill="#191970" stroke="#191970" points="975.5896,-135.6008 984.0256,-129.1912 973.4337,-128.941 975.5896,-135.6008"/>
</g>
<!-- Node24 -->
<g id="node25" class="node">
<title>Node24</title>
<g id="a_node25"><a xlink:title=" ">
<polygon fill="#ffffff" stroke="#bfbfbf" points="1046.2413,-112.5 1046.2413,-131.5 1090.2413,-131.5 1090.2413,-112.5 1046.2413,-112.5"/>
<text text-anchor="middle" x="1068.2413" y="-119.5" font-family="Helvetica,sans-Serif" font-size="10.00" fill="#000000">vector</text>
</a>
</g>
</g>
<!-- Node0&#45;&gt;Node24 -->
<g id="edge28" class="edge">
<title>Node0&#45;&gt;Node24</title>
<path fill="none" stroke="#191970" d="M881.357,-168.43C920.6977,-160.3171 977.9326,-147.8599 1036.2208,-132.1127"/>
<polygon fill="#191970" stroke="#191970" points="1037.2378,-135.4632 1045.9624,-129.4523 1035.3936,-128.7105 1037.2378,-135.4632"/>
</g>
<!-- Node25 -->
<g id="node26" class="node">
<title>Node25</title>
<g id="a_node26"><a xlink:title=" ">
<polygon fill="#ffffff" stroke="#bfbfbf" points="1108.2413,-112.5 1108.2413,-131.5 1164.2413,-131.5 1164.2413,-112.5 1108.2413,-112.5"/>
<text text-anchor="middle" x="1136.2413" y="-119.5" font-family="Helvetica,sans-Serif" font-size="10.00" fill="#000000">algorithm</text>
</a>
</g>
</g>
<!-- Node0&#45;&gt;Node25 -->
<g id="edge29" class="edge">
<title>Node0&#45;&gt;Node25</title>
<path fill="none" stroke="#191970" d="M882.534,-170.8763C934.0405,-163.1201 1017.3665,-149.6941 1098.185,-132.0832"/>
<polygon fill="#191970" stroke="#191970" points="1099.0135,-135.4847 1108.0262,-129.9149 1097.5073,-128.6487 1099.0135,-135.4847"/>
</g>
<!-- Node26 -->
<g id="node27" class="node">
<title>Node26</title>
<g id="a_node27"><a xlink:title=" ">
<polygon fill="#ffffff" stroke="#bfbfbf" points="1182.7413,-112.5 1182.7413,-131.5 1231.7413,-131.5 1231.7413,-112.5 1182.7413,-112.5"/>
<text text-anchor="middle" x="1207.2413" y="-119.5" font-family="Helvetica,sans-Serif" font-size="10.00" fill="#000000">cassert</text>
</a>
</g>
</g>
<!-- Node0&#45;&gt;Node26 -->
<g id="edge31" class="edge">
<title>Node0&#45;&gt;Node26</title>
<path fill="none" stroke="#191970" d="M882.345,-173.7145C946.8593,-167.565 1063.7566,-154.6366 1172.6355,-131.8477"/>
<polygon fill="#191970" stroke="#191970" points="1173.4164,-135.26 1182.4701,-129.7573 1171.9609,-128.4129 1173.4164,-135.26"/>
</g>
<!-- Node27 -->
<g id="node28" class="node">
<title>Node27</title>
<g id="a_node28"><a xlink:title=" ">
<polygon fill="#ffffff" stroke="#bfbfbf" points="1249.7413,-112.5 1249.7413,-131.5 1296.7413,-131.5 1296.7413,-112.5 1249.7413,-112.5"/>
<text text-anchor="middle" x="1273.2413" y="-119.5" font-family="Helvetica,sans-Serif" font-size="10.00" fill="#000000">csignal</text>
</a>
</g>
</g>
<!-- Node0&#45;&gt;Node27 -->
<g id="edge32" class="edge">
<title>Node0&#45;&gt;Node27</title>
<path fill="none" stroke="#191970" d="M882.3946,-175.4889C957.6514,-170.9836 1105.9527,-159.4996 1239.6038,-132.0293"/>
<polygon fill="#191970" stroke="#191970" points="1240.5371,-135.41 1249.6088,-129.9368 1239.104,-128.5582 1240.5371,-135.41"/>
</g>
<!-- Node28 -->
<g id="node29" class="node">
<title>Node28</title>
<g id="a_node29"><a xlink:title=" ">
<polygon fill="#ffffff" stroke="#bfbfbf" points="1315.2413,-112.5 1315.2413,-131.5 1383.2413,-131.5 1383.2413,-112.5 1315.2413,-112.5"/>
<text text-anchor="middle" x="1349.2413" y="-119.5" font-family="Helvetica,sans-Serif" font-size="10.00" fill="#000000">sys/types.h</text>
</a>
</g>
</g>
<!-- Node0&#45;&gt;Node28 -->
<g id="edge33" class="edge">
<title>Node0&#45;&gt;Node28</title>
<path fill="none" stroke="#191970" d="M882.5442,-175.3473C967.0899,-170.3319 1145.2707,-157.7266 1305.0444,-132.0105"/>
<polygon fill="#191970" stroke="#191970" points="1305.7485,-135.442 1315.0548,-130.3779 1304.6218,-128.5332 1305.7485,-135.442"/>
</g>
<!-- Node29 -->
<g id="node30" class="node">
<title>Node29</title>
<g id="a_node30"><a xlink:title=" ">
<polygon fill="#ffffff" stroke="#bfbfbf" points="1401.2413,-112.5 1401.2413,-131.5 1471.2413,-131.5 1471.2413,-112.5 1401.2413,-112.5"/>
<text text-anchor="middle" x="1436.2413" y="-119.5" font-family="Helvetica,sans-Serif" font-size="10.00" fill="#000000">sys/sysctl.h</text>
</a>
</g>
</g>
<!-- Node0&#45;&gt;Node29 -->
<g id="edge34" class="edge">
<title>Node0&#45;&gt;Node29</title>
<path fill="none" stroke="#191970" d="M882.4915,-176.287C978.5321,-172.4402 1197.6345,-161.1824 1390.7344,-132.0474"/>
<polygon fill="#191970" stroke="#191970" points="1391.4261,-135.4824 1400.7824,-130.5114 1390.3683,-128.5628 1391.4261,-135.4824"/>
</g>
<!-- Node30 -->
<g id="node31" class="node">
<title>Node30</title>
<g id="a_node31"><a xlink:title=" ">
<polygon fill="#ffffff" stroke="#bfbfbf" points="1489.7413,-112.5 1489.7413,-131.5 1570.7413,-131.5 1570.7413,-112.5 1489.7413,-112.5"/>
<text text-anchor="middle" x="1530.2413" y="-119.5" font-family="Helvetica,sans-Serif" font-size="10.00" fill="#000000">sys/resource.h</text>
</a>
</g>
</g>
<!-- Node0&#45;&gt;Node30 -->
<g id="edge35" class="edge">
<title>Node0&#45;&gt;Node30</title>
<path fill="none" stroke="#191970" d="M882.5637,-176.6198C989.4717,-173.1699 1250.6417,-162.2684 1479.4711,-131.9296"/>
<polygon fill="#191970" stroke="#191970" points="1480.2086,-135.3621 1489.6545,-130.5636 1479.2779,-128.4242 1480.2086,-135.3621"/>
</g>
<!-- Node31 -->
<g id="node32" class="node">
<title>Node31</title>
<g id="a_node32"><a xlink:title=" ">
<polygon fill="#ffffff" stroke="#bfbfbf" points="1588.7413,-112.5 1588.7413,-131.5 1635.7413,-131.5 1635.7413,-112.5 1588.7413,-112.5"/>
<text text-anchor="middle" x="1612.2413" y="-119.5" font-family="Helvetica,sans-Serif" font-size="10.00" fill="#000000">libutil.h</text>
</a>
</g>
</g>
<!-- Node0&#45;&gt;Node31 -->
<g id="edge36" class="edge">
<title>Node0&#45;&gt;Node31</title>
<path fill="none" stroke="#191970" d="M882.3862,-176.5217C1023.1433,-172.0481 1426.8974,-157.4823 1578.5854,-131.8584"/>
<polygon fill="#191970" stroke="#191970" points="1579.4015,-135.2684 1588.636,-130.0746 1578.1782,-128.3761 1579.4015,-135.2684"/>
</g>
<!-- Node32 -->
<g id="node33" class="node">
<title>Node32</title>
<g id="a_node33"><a xlink:title=" ">
<polygon fill="#ffffff" stroke="#bfbfbf" points="1654.2413,-112.5 1654.2413,-131.5 1700.2413,-131.5 1700.2413,-112.5 1654.2413,-112.5"/>
<text text-anchor="middle" x="1677.2413" y="-119.5" font-family="Helvetica,sans-Serif" font-size="10.00" fill="#000000">dlfcn.h</text>
</a>
</g>
</g>
<!-- Node0&#45;&gt;Node32 -->
<g id="edge37" class="edge">
<title>Node0&#45;&gt;Node32</title>
<path fill="none" stroke="#191970" d="M882.2857,-176.804C1031.3769,-172.924 1478.6033,-159.421 1643.9774,-131.7506"/>
<polygon fill="#191970" stroke="#191970" points="1644.7443,-135.1696 1653.9889,-129.9939 1643.5344,-128.275 1644.7443,-135.1696"/>
</g>
<!-- Node33 -->
<g id="node34" class="node">
<title>Node33</title>
<g id="a_node34"><a xlink:title=" ">
<polygon fill="#ffffff" stroke="#bfbfbf" points="1718.7413,-112.5 1718.7413,-131.5 1769.7413,-131.5 1769.7413,-112.5 1718.7413,-112.5"/>
<text text-anchor="middle" x="1744.2413" y="-119.5" font-family="Helvetica,sans-Serif" font-size="10.00" fill="#000000">unistd.h</text>
</a>
</g>
</g>
<!-- Node0&#45;&gt;Node33 -->
<g id="edge38" class="edge">
<title>Node0&#45;&gt;Node33</title>
<path fill="none" stroke="#191970" d="M882.4185,-176.8785C1039.5423,-173.0703 1529.0973,-159.408 1708.3151,-131.7167"/>
<polygon fill="#191970" stroke="#191970" points="1709.083,-135.1381 1718.3968,-130.0881 1707.9666,-128.2277 1709.083,-135.1381"/>
</g>
<!-- Node2 -->
<g id="node3" class="node">
<title>Node2</title>
<g id="a_node3"><a xlink:title=" ">
<polygon fill="#ffffff" stroke="#bfbfbf" points="168.2413,-.5 168.2413,-19.5 230.2413,-19.5 230.2413,-.5 168.2413,-.5"/>
<text text-anchor="middle" x="199.2413" y="-7.5" font-family="Helvetica,sans-Serif" font-size="10.00" fill="#000000">type_traits</text>
</a>
</g>
</g>
<!-- Node1&#45;&gt;Node2 -->
<g id="edge2" class="edge">
<title>Node1&#45;&gt;Node2</title>
<path fill="none" stroke="#191970" d="M189.3315,-56.2455C190.8974,-48.9382 193.0925,-38.6944 195.0189,-29.7046"/>
<polygon fill="#191970" stroke="#191970" points="198.502,-30.1541 197.175,-19.6427 191.6573,-28.6873 198.502,-30.1541"/>
</g>
<!-- Node1&#45;&gt;Node3 -->
<g id="edge3" class="edge">
<title>Node1&#45;&gt;Node3</title>
<path fill="none" stroke="#191970" d="M177.1385,-56.2455C168.7385,-48.1352 156.5919,-36.4075 146.6329,-26.7919"/>
<polygon fill="#191970" stroke="#191970" points="148.8535,-24.0707 139.2284,-19.6427 143.9913,-29.1066 148.8535,-24.0707"/>
</g>
<!-- Node4 -->
<g id="node5" class="node">
<title>Node4</title>
<g id="a_node5"><a xlink:title=" ">
<polygon fill="#ffffff" stroke="#bfbfbf" points="278.7413,-.5 278.7413,-19.5 321.7413,-19.5 321.7413,-.5 278.7413,-.5"/>
<text text-anchor="middle" x="300.2413" y="-7.5" font-family="Helvetica,sans-Serif" font-size="10.00" fill="#000000">cstdio</text>
</a>
</g>
</g>
<!-- Node1&#45;&gt;Node4 -->
<g id="edge4" class="edge">
<title>Node1&#45;&gt;Node4</title>
<path fill="none" stroke="#191970" d="M206.6667,-56.3733C224.6435,-47.4644 251.5854,-34.1127 271.9504,-24.0203"/>
<polygon fill="#191970" stroke="#191970" points="273.6635,-27.0776 281.0694,-19.5011 270.5552,-20.8055 273.6635,-27.0776"/>
</g>
<!-- Node6 -->
<g id="node7" class="node">
<title>Node6</title>
<g id="a_node7"><a xlink:href="types_8hpp.html" target="_top" xlink:title="A collection of type aliases.">
<polygon fill="#ffffff" stroke="#000000" points="28.7413,-56.5 28.7413,-75.5 87.7413,-75.5 87.7413,-56.5 28.7413,-56.5"/>
<text text-anchor="middle" x="58.2413" y="-63.5" font-family="Helvetica,sans-Serif" font-size="10.00" fill="#000000">types.hpp</text>
</a>
</g>
</g>
<!-- Node5&#45;&gt;Node6 -->
<g id="edge6" class="edge">
<title>Node5&#45;&gt;Node6</title>
<path fill="none" stroke="#191970" d="M61.5446,-112.2455C61.0226,-104.9382 60.2909,-94.6944 59.6488,-85.7046"/>
<polygon fill="#191970" stroke="#191970" points="63.1337,-85.3679 58.9301,-75.6427 56.1515,-85.8667 63.1337,-85.3679"/>
</g>
<!-- Node6&#45;&gt;Node7 -->
<g id="edge7" class="edge">
<title>Node6&#45;&gt;Node7</title>
<path fill="none" stroke="#191970" d="M52.8415,-56.2455C48.6186,-48.617 42.624,-37.7881 37.4972,-28.5267"/>
<polygon fill="#191970" stroke="#191970" points="40.4846,-26.6965 32.5792,-19.6427 34.3603,-30.0867 40.4846,-26.6965"/>
</g>
<!-- Node8&#45;&gt;Node1 -->
<g id="edge9" class="edge">
<title>Node8&#45;&gt;Node1</title>
<path fill="none" stroke="#191970" d="M245.874,-112.2455C235.2859,-103.8943 219.8349,-91.7076 207.452,-81.9408"/>
<polygon fill="#191970" stroke="#191970" points="209.486,-79.0875 199.4668,-75.6427 205.151,-84.5837 209.486,-79.0875"/>
</g>
<!-- Node9 -->
<g id="node10" class="node">
<title>Node9</title>
<g id="a_node10"><a xlink:title=" ">
<polygon fill="#ffffff" stroke="#bfbfbf" points="235.2413,-56.5 235.2413,-75.5 281.2413,-75.5 281.2413,-56.5 235.2413,-56.5"/>
<text text-anchor="middle" x="258.2413" y="-63.5" font-family="Helvetica,sans-Serif" font-size="10.00" fill="#000000">cstdint</text>
</a>
</g>
</g>
<!-- Node8&#45;&gt;Node9 -->
<g id="edge10" class="edge">
<title>Node8&#45;&gt;Node9</title>
<path fill="none" stroke="#191970" d="M258.2413,-112.2455C258.2413,-104.9382 258.2413,-94.6944 258.2413,-85.7046"/>
<polygon fill="#191970" stroke="#191970" points="261.7414,-85.6426 258.2413,-75.6427 254.7414,-85.6427 261.7414,-85.6426"/>
</g>
<!-- Node11 -->
<g id="node12" class="node">
<title>Node11</title>
<g id="a_node12"><a xlink:href="error_8hpp.html" target="_top" xlink:title="Provides system call error handling.">
<polygon fill="#ffffff" stroke="#000000" points="442.7413,-56.5 442.7413,-75.5 497.7413,-75.5 497.7413,-56.5 442.7413,-56.5"/>
<text text-anchor="middle" x="470.2413" y="-63.5" font-family="Helvetica,sans-Serif" font-size="10.00" fill="#000000">error.hpp</text>
</a>
</g>
</g>
<!-- Node10&#45;&gt;Node11 -->
<g id="edge12" class="edge">
<title>Node10&#45;&gt;Node11</title>
<path fill="none" stroke="#191970" d="M411.6086,-112.2455C422.1967,-103.8943 437.6477,-91.7076 450.0306,-81.9408"/>
<polygon fill="#191970" stroke="#191970" points="452.3316,-84.5837 458.0158,-75.6427 447.9966,-79.0875 452.3316,-84.5837"/>
</g>
<!-- Node14 -->
<g id="node15" class="node">
<title>Node14</title>
<g id="a_node15"><a xlink:title=" ">
<polygon fill="#ffffff" stroke="#bfbfbf" points="379.7413,-56.5 379.7413,-75.5 424.7413,-75.5 424.7413,-56.5 379.7413,-56.5"/>
<text text-anchor="middle" x="402.2413" y="-63.5" font-family="Helvetica,sans-Serif" font-size="10.00" fill="#000000">cstdlib</text>
</a>
</g>
</g>
<!-- Node10&#45;&gt;Node14 -->
<g id="edge15" class="edge">
<title>Node10&#45;&gt;Node14</title>
<path fill="none" stroke="#191970" d="M399.7639,-112.2455C400.1553,-104.9382 400.7041,-94.6944 401.1857,-85.7046"/>
<polygon fill="#191970" stroke="#191970" points="404.6847,-85.8156 401.7247,-75.6427 397.6947,-85.4411 404.6847,-85.8156"/>
</g>
<!-- Node12 -->
<g id="node13" class="node">
<title>Node12</title>
<g id="a_node13"><a xlink:title=" ">
<polygon fill="#ffffff" stroke="#bfbfbf" points="441.2413,-.5 441.2413,-19.5 485.2413,-19.5 485.2413,-.5 441.2413,-.5"/>
<text text-anchor="middle" x="463.2413" y="-7.5" font-family="Helvetica,sans-Serif" font-size="10.00" fill="#000000">cerrno</text>
</a>
</g>
</g>
<!-- Node11&#45;&gt;Node12 -->
<g id="edge13" class="edge">
<title>Node11&#45;&gt;Node12</title>
<path fill="none" stroke="#191970" d="M469.022,-56.2455C468.1086,-48.9382 466.8281,-38.6944 465.7044,-29.7046"/>
<polygon fill="#191970" stroke="#191970" points="469.16,-29.1313 464.4466,-19.6427 462.2141,-29.9996 469.16,-29.1313"/>
</g>
<!-- Node11&#45;&gt;Node13 -->
<g id="edge14" class="edge">
<title>Node11&#45;&gt;Node13</title>
<path fill="none" stroke="#191970" d="M479.9958,-56.2455C488.1061,-48.1352 499.8338,-36.4075 509.4494,-26.7919"/>
<polygon fill="#191970" stroke="#191970" points="512.0024,-29.1887 516.5986,-19.6427 507.0527,-24.2389 512.0024,-29.1887"/>
</g>
<!-- Node15&#45;&gt;Node4 -->
<g id="edge17" class="edge">
<title>Node15&#45;&gt;Node4</title>
<path fill="none" stroke="#191970" d="M325.0157,-56.2455C320.929,-48.617 315.1278,-37.7881 310.1663,-28.5267"/>
<polygon fill="#191970" stroke="#191970" points="313.2145,-26.8047 305.407,-19.6427 307.0441,-30.1103 313.2145,-26.8047"/>
</g>
</g>
</svg>
