<?xml version="1.0" encoding="UTF-8" standalone="no"?>
<!DOCTYPE svg PUBLIC "-//W3C//DTD SVG 1.1//EN"
 "http://www.w3.org/Graphics/SVG/1.1/DTD/svg11.dtd">
<!-- Generated by graphviz version 2.40.1 (20161225.0304)
 -->
<!-- Title: src/libloadplay.cpp Pages: 1 -->
<svg width="1964pt" height="196pt"
 viewBox="0.00 0.00 1964.32 196.00" xmlns="http://www.w3.org/2000/svg" xmlns:xlink="http://www.w3.org/1999/xlink">
<g id="graph0" class="graph" transform="scale(1 1) rotate(0) translate(4 192)">
<title>src/libloadplay.cpp</title>
<polygon fill="#ffffff" stroke="transparent" points="-4,4 -4,-192 1960.3249,-192 1960.3249,4 -4,4"/>
<!-- Node0 -->
<g id="node1" class="node">
<title>Node0</title>
<g id="a_node1"><a xlink:title="Implements a library intended to be injected into a clock frequency deamon via LD_PRELOAD.">
<polygon fill="#bfbfbf" stroke="#000000" points="872.8249,-168.5 872.8249,-187.5 970.8249,-187.5 970.8249,-168.5 872.8249,-168.5"/>
<text text-anchor="middle" x="921.8249" y="-175.5" font-family="Helvetica,sans-Serif" font-size="10.00" fill="#000000">src/libloadplay.cpp</text>
</a>
</g>
</g>
<!-- Node1 -->
<g id="node2" class="node">
<title>Node1</title>
<g id="a_node2"><a xlink:href="utility_8hpp.html" target="_top" xlink:title="Implements generally useful functions.">
<polygon fill="#ffffff" stroke="#000000" points="157.3249,-56.5 157.3249,-75.5 216.3249,-75.5 216.3249,-56.5 157.3249,-56.5"/>
<text text-anchor="middle" x="186.8249" y="-63.5" font-family="Helvetica,sans-Serif" font-size="10.00" fill="#000000">utility.hpp</text>
</a>
</g>
</g>
<!-- Node0&#45;&gt;Node1 -->
<g id="edge1" class="edge">
<title>Node0&#45;&gt;Node1</title>
<path fill="none" stroke="#191970" d="M872.7396,-176.4474C714.7985,-171.2453 228.4798,-153.5399 202.8249,-132 189.7291,-121.0048 186.3363,-101.2848 185.8557,-86.2546"/>
<polygon fill="#191970" stroke="#191970" points="189.3585,-85.9266 185.9432,-75.8973 182.3587,-85.8674 189.3585,-85.9266"/>
</g>
<!-- Node3 -->
<g id="node4" class="node">
<title>Node3</title>
<g id="a_node4"><a xlink:title=" ">
<polygon fill="#ffffff" stroke="#bfbfbf" points="102.3249,-.5 102.3249,-19.5 143.3249,-19.5 143.3249,-.5 102.3249,-.5"/>
<text text-anchor="middle" x="122.8249" y="-7.5" font-family="Helvetica,sans-Serif" font-size="10.00" fill="#000000">string</text>
</a>
</g>
</g>
<!-- Node0&#45;&gt;Node3 -->
<g id="edge23" class="edge">
<title>Node0&#45;&gt;Node3</title>
<path fill="none" stroke="#191970" d="M872.6962,-177.3843C717.7869,-175.1049 246.2997,-165.4622 186.8249,-132 149.0999,-110.7748 132.7286,-58.5883 126.3731,-29.8236"/>
<polygon fill="#191970" stroke="#191970" points="129.7471,-28.8482 124.345,-19.734 122.8843,-30.2277 129.7471,-28.8482"/>
</g>
<!-- Node5 -->
<g id="node6" class="node">
<title>Node5</title>
<g id="a_node6"><a xlink:href="constants_8hpp.html" target="_top" xlink:title="Defines a collection of constants.">
<polygon fill="#ffffff" stroke="#000000" points="22.8249,-112.5 22.8249,-131.5 100.8249,-131.5 100.8249,-112.5 22.8249,-112.5"/>
<text text-anchor="middle" x="61.8249" y="-119.5" font-family="Helvetica,sans-Serif" font-size="10.00" fill="#000000">constants.hpp</text>
</a>
</g>
</g>
<!-- Node0&#45;&gt;Node5 -->
<g id="edge5" class="edge">
<title>Node0&#45;&gt;Node5</title>
<path fill="none" stroke="#191970" d="M872.5003,-177.4091C746.0886,-175.4142 400.3764,-166.9281 114.8249,-132 113.5701,-131.8465 112.3003,-131.6814 111.0206,-131.5064"/>
<polygon fill="#191970" stroke="#191970" points="111.511,-128.0408 101.0982,-129.9964 110.4578,-134.9611 111.511,-128.0408"/>
</g>
<!-- Node7 -->
<g id="node8" class="node">
<title>Node7</title>
<g id="a_node8"><a xlink:title=" ">
<polygon fill="#ffffff" stroke="#bfbfbf" points="7.8249,-.5 7.8249,-19.5 53.8249,-19.5 53.8249,-.5 7.8249,-.5"/>
<text text-anchor="middle" x="30.8249" y="-7.5" font-family="Helvetica,sans-Serif" font-size="10.00" fill="#000000">chrono</text>
</a>
</g>
</g>
<!-- Node0&#45;&gt;Node7 -->
<g id="edge30" class="edge">
<title>Node0&#45;&gt;Node7</title>
<path fill="none" stroke="#191970" d="M872.5878,-177.3621C687.6637,-174.7295 43.6123,-163.3346 13.8249,-132 -12.5664,-104.2378 6.2953,-55.6 20.0049,-28.8898"/>
<polygon fill="#191970" stroke="#191970" points="23.2327,-30.2783 24.9019,-19.8157 17.0725,-26.9538 23.2327,-30.2783"/>
</g>
<!-- Node8 -->
<g id="node9" class="node">
<title>Node8</title>
<g id="a_node9"><a xlink:href="fixme_8hpp.html" target="_top" xlink:title="Implementations in the fixme namespace.">
<polygon fill="#ffffff" stroke="#000000" points="297.3249,-112.5 297.3249,-131.5 356.3249,-131.5 356.3249,-112.5 297.3249,-112.5"/>
<text text-anchor="middle" x="326.8249" y="-119.5" font-family="Helvetica,sans-Serif" font-size="10.00" fill="#000000">fixme.hpp</text>
</a>
</g>
</g>
<!-- Node0&#45;&gt;Node8 -->
<g id="edge8" class="edge">
<title>Node0&#45;&gt;Node8</title>
<path fill="none" stroke="#191970" d="M872.5335,-176.2035C775.8261,-172.1681 554.6268,-160.4155 370.8249,-132 369.3733,-131.7756 367.8983,-131.5304 366.4112,-131.2687"/>
<polygon fill="#191970" stroke="#191970" points="367.023,-127.8222 356.5384,-129.3467 365.6853,-134.6932 367.023,-127.8222"/>
</g>
<!-- Node9 -->
<g id="node10" class="node">
<title>Node9</title>
<g id="a_node10"><a xlink:title=" ">
<polygon fill="#ffffff" stroke="#bfbfbf" points="298.8249,-56.5 298.8249,-75.5 350.8249,-75.5 350.8249,-56.5 298.8249,-56.5"/>
<text text-anchor="middle" x="324.8249" y="-63.5" font-family="Helvetica,sans-Serif" font-size="10.00" fill="#000000">sstream</text>
</a>
</g>
</g>
<!-- Node0&#45;&gt;Node9 -->
<g id="edge25" class="edge">
<title>Node0&#45;&gt;Node9</title>
<path fill="none" stroke="#191970" d="M872.8183,-177.3613C760.5351,-175.305 487.8772,-166.774 403.8249,-132 377.949,-121.2947 354.1535,-98.9692 339.5853,-83.2584"/>
<polygon fill="#191970" stroke="#191970" points="342.1278,-80.8511 332.8461,-75.7422 336.916,-85.5242 342.1278,-80.8511"/>
</g>
<!-- Node10 -->
<g id="node11" class="node">
<title>Node10</title>
<g id="a_node11"><a xlink:href="version_8hpp.html" target="_top" xlink:title="Defines types and constants used for version management.">
<polygon fill="#ffffff" stroke="#000000" points="212.3249,-112.5 212.3249,-131.5 279.3249,-131.5 279.3249,-112.5 212.3249,-112.5"/>
<text text-anchor="middle" x="245.8249" y="-119.5" font-family="Helvetica,sans-Serif" font-size="10.00" fill="#000000">version.hpp</text>
</a>
</g>
</g>
<!-- Node0&#45;&gt;Node10 -->
<g id="edge10" class="edge">
<title>Node0&#45;&gt;Node10</title>
<path fill="none" stroke="#191970" d="M872.6013,-177.1268C767.221,-174.6768 511.9351,-165.6417 289.8729,-132.114"/>
<polygon fill="#191970" stroke="#191970" points="290.0727,-128.6039 279.6582,-130.5507 289.0136,-135.5234 290.0727,-128.6039"/>
</g>
<!-- Node12 -->
<g id="node13" class="node">
<title>Node12</title>
<g id="a_node13"><a xlink:href="env_8hpp.html" target="_top" xlink:title="Implements zero&#45;cost abstractions for the getenv(3) facilities.">
<polygon fill="#ffffff" stroke="#000000" points="412.8249,-112.5 412.8249,-131.5 482.8249,-131.5 482.8249,-112.5 412.8249,-112.5"/>
<text text-anchor="middle" x="447.8249" y="-119.5" font-family="Helvetica,sans-Serif" font-size="10.00" fill="#000000">sys/env.hpp</text>
</a>
</g>
</g>
<!-- Node0&#45;&gt;Node12 -->
<g id="edge13" class="edge">
<title>Node0&#45;&gt;Node12</title>
<path fill="none" stroke="#191970" d="M872.5472,-174.1727C793.1506,-167.6683 632.1204,-153.0803 496.8249,-132 495.5702,-131.8045 494.299,-131.5987 493.0172,-131.3845"/>
<polygon fill="#191970" stroke="#191970" points="493.5431,-127.923 483.0828,-129.6057 492.3093,-134.8135 493.5431,-127.923"/>
</g>
<!-- Node15 -->
<g id="node16" class="node">
<title>Node15</title>
<g id="a_node16"><a xlink:title=" ">
<polygon fill="#ffffff" stroke="#bfbfbf" points="492.8249,-.5 492.8249,-19.5 538.8249,-19.5 538.8249,-.5 492.8249,-.5"/>
<text text-anchor="middle" x="515.8249" y="-7.5" font-family="Helvetica,sans-Serif" font-size="10.00" fill="#000000">cstring</text>
</a>
</g>
</g>
<!-- Node0&#45;&gt;Node15 -->
<g id="edge33" class="edge">
<title>Node0&#45;&gt;Node15</title>
<path fill="none" stroke="#191970" d="M872.7557,-175.6036C772.9441,-170.2536 553.6573,-155.8935 529.8249,-132 502.9625,-105.0687 506.7431,-56.4173 511.5016,-29.4027"/>
<polygon fill="#191970" stroke="#191970" points="514.937,-30.0716 513.4466,-19.5822 508.0704,-28.7116 514.937,-30.0716"/>
</g>
<!-- Node17 -->
<g id="node18" class="node">
<title>Node17</title>
<g id="a_node18"><a xlink:title=" ">
<polygon fill="#ffffff" stroke="#bfbfbf" points="538.8249,-112.5 538.8249,-131.5 592.8249,-131.5 592.8249,-112.5 538.8249,-112.5"/>
<text text-anchor="middle" x="565.8249" y="-119.5" font-family="Helvetica,sans-Serif" font-size="10.00" fill="#000000">iostream</text>
</a>
</g>
</g>
<!-- Node0&#45;&gt;Node17 -->
<g id="edge18" class="edge">
<title>Node0&#45;&gt;Node17</title>
<path fill="none" stroke="#191970" d="M872.6915,-172.9183C811.6167,-166.1639 704.0681,-152.8377 602.9397,-132.0153"/>
<polygon fill="#191970" stroke="#191970" points="603.3647,-128.5287 592.8603,-129.9102 601.9336,-135.3808 603.3647,-128.5287"/>
</g>
<!-- Node18 -->
<g id="node19" class="node">
<title>Node18</title>
<g id="a_node19"><a xlink:title=" ">
<polygon fill="#ffffff" stroke="#bfbfbf" points="610.8249,-112.5 610.8249,-131.5 660.8249,-131.5 660.8249,-112.5 610.8249,-112.5"/>
<text text-anchor="middle" x="635.8249" y="-119.5" font-family="Helvetica,sans-Serif" font-size="10.00" fill="#000000">fstream</text>
</a>
</g>
</g>
<!-- Node0&#45;&gt;Node18 -->
<g id="edge19" class="edge">
<title>Node0&#45;&gt;Node18</title>
<path fill="none" stroke="#191970" d="M872.7261,-170.6112C823.8986,-162.9121 746.6928,-149.7939 671.1579,-132.1314"/>
<polygon fill="#191970" stroke="#191970" points="671.5341,-128.6237 660.9967,-129.7249 669.9209,-135.4353 671.5341,-128.6237"/>
</g>
<!-- Node19 -->
<g id="node20" class="node">
<title>Node19</title>
<g id="a_node20"><a xlink:title=" ">
<polygon fill="#ffffff" stroke="#bfbfbf" points="678.8249,-112.5 678.8249,-131.5 728.8249,-131.5 728.8249,-112.5 678.8249,-112.5"/>
<text text-anchor="middle" x="703.8249" y="-119.5" font-family="Helvetica,sans-Serif" font-size="10.00" fill="#000000">iomanip</text>
</a>
</g>
</g>
<!-- Node0&#45;&gt;Node19 -->
<g id="edge20" class="edge">
<title>Node0&#45;&gt;Node19</title>
<path fill="none" stroke="#191970" d="M882.4631,-168.4921C845.3396,-159.4336 788.1815,-145.2506 738.8249,-132 738.7257,-131.9734 738.6264,-131.9467 738.5269,-131.9199"/>
<polygon fill="#191970" stroke="#191970" points="739.6035,-128.5861 729.0331,-129.3066 737.7457,-135.3351 739.6035,-128.5861"/>
</g>
<!-- Node20 -->
<g id="node21" class="node">
<title>Node20</title>
<g id="a_node21"><a xlink:title=" ">
<polygon fill="#ffffff" stroke="#bfbfbf" points="747.3249,-112.5 747.3249,-131.5 830.3249,-131.5 830.3249,-112.5 747.3249,-112.5"/>
<text text-anchor="middle" x="788.8249" y="-119.5" font-family="Helvetica,sans-Serif" font-size="10.00" fill="#000000">unordered_map</text>
</a>
</g>
</g>
<!-- Node0&#45;&gt;Node20 -->
<g id="edge21" class="edge">
<title>Node0&#45;&gt;Node20</title>
<path fill="none" stroke="#191970" d="M898.9614,-168.3733C877.4199,-159.3032 844.9411,-145.6279 820.8293,-135.4755"/>
<polygon fill="#191970" stroke="#191970" points="821.9646,-132.156 811.3901,-131.5011 819.2482,-138.6075 821.9646,-132.156"/>
</g>
<!-- Node21 -->
<g id="node22" class="node">
<title>Node21</title>
<g id="a_node22"><a xlink:title=" ">
<polygon fill="#ffffff" stroke="#bfbfbf" points="848.3249,-112.5 848.3249,-131.5 883.3249,-131.5 883.3249,-112.5 848.3249,-112.5"/>
<text text-anchor="middle" x="865.8249" y="-119.5" font-family="Helvetica,sans-Serif" font-size="10.00" fill="#000000">map</text>
</a>
</g>
</g>
<!-- Node0&#45;&gt;Node21 -->
<g id="edge22" class="edge">
<title>Node0&#45;&gt;Node21</title>
<path fill="none" stroke="#191970" d="M912.0704,-168.2455C903.9601,-160.1352 892.2324,-148.4075 882.6168,-138.7919"/>
<polygon fill="#191970" stroke="#191970" points="885.0136,-136.2389 875.4676,-131.6427 880.0638,-141.1887 885.0136,-136.2389"/>
</g>
<!-- Node22 -->
<g id="node23" class="node">
<title>Node22</title>
<g id="a_node23"><a xlink:title=" ">
<polygon fill="#ffffff" stroke="#bfbfbf" points="901.3249,-112.5 901.3249,-131.5 942.3249,-131.5 942.3249,-112.5 901.3249,-112.5"/>
<text text-anchor="middle" x="921.8249" y="-119.5" font-family="Helvetica,sans-Serif" font-size="10.00" fill="#000000">regex</text>
</a>
</g>
</g>
<!-- Node0&#45;&gt;Node22 -->
<g id="edge24" class="edge">
<title>Node0&#45;&gt;Node22</title>
<path fill="none" stroke="#191970" d="M921.8249,-168.2455C921.8249,-160.9382 921.8249,-150.6944 921.8249,-141.7046"/>
<polygon fill="#191970" stroke="#191970" points="925.325,-141.6426 921.8249,-131.6427 918.325,-141.6427 925.325,-141.6426"/>
</g>
<!-- Node23 -->
<g id="node24" class="node">
<title>Node23</title>
<g id="a_node24"><a xlink:title=" ">
<polygon fill="#ffffff" stroke="#bfbfbf" points="960.8249,-112.5 960.8249,-131.5 1012.8249,-131.5 1012.8249,-112.5 960.8249,-112.5"/>
<text text-anchor="middle" x="986.8249" y="-119.5" font-family="Helvetica,sans-Serif" font-size="10.00" fill="#000000">memory</text>
</a>
</g>
</g>
<!-- Node0&#45;&gt;Node23 -->
<g id="edge26" class="edge">
<title>Node0&#45;&gt;Node23</title>
<path fill="none" stroke="#191970" d="M933.147,-168.2455C942.7472,-159.9746 956.7141,-147.9416 967.9944,-138.2232"/>
<polygon fill="#191970" stroke="#191970" points="970.3409,-140.8214 975.6325,-131.6427 965.7719,-135.5182 970.3409,-140.8214"/>
</g>
<!-- Node24 -->
<g id="node25" class="node">
<title>Node24</title>
<g id="a_node25"><a xlink:title=" ">
<polygon fill="#ffffff" stroke="#bfbfbf" points="1030.8249,-112.5 1030.8249,-131.5 1074.8249,-131.5 1074.8249,-112.5 1030.8249,-112.5"/>
<text text-anchor="middle" x="1052.8249" y="-119.5" font-family="Helvetica,sans-Serif" font-size="10.00" fill="#000000">thread</text>
</a>
</g>
</g>
<!-- Node0&#45;&gt;Node24 -->
<g id="edge27" class="edge">
<title>Node0&#45;&gt;Node24</title>
<path fill="none" stroke="#191970" d="M944.3446,-168.3733C965.5621,-159.3032 997.5525,-145.6279 1021.3018,-135.4755"/>
<polygon fill="#191970" stroke="#191970" points="1022.7797,-138.6502 1030.5991,-131.5011 1020.0282,-132.2136 1022.7797,-138.6502"/>
</g>
<!-- Node25 -->
<g id="node26" class="node">
<title>Node25</title>
<g id="a_node26"><a xlink:title=" ">
<polygon fill="#ffffff" stroke="#bfbfbf" points="1093.3249,-112.5 1093.3249,-131.5 1152.3249,-131.5 1152.3249,-112.5 1093.3249,-112.5"/>
<text text-anchor="middle" x="1122.8249" y="-119.5" font-family="Helvetica,sans-Serif" font-size="10.00" fill="#000000">exception</text>
</a>
</g>
</g>
<!-- Node0&#45;&gt;Node25 -->
<g id="edge28" class="edge">
<title>Node0&#45;&gt;Node25</title>
<path fill="none" stroke="#191970" d="M956.378,-168.3733C991.6717,-158.5402 1046.3927,-143.2945 1083.3676,-132.9931"/>
<polygon fill="#191970" stroke="#191970" points="1084.6011,-136.2828 1093.2949,-130.2273 1082.7224,-129.5396 1084.6011,-136.2828"/>
</g>
<!-- Node26 -->
<g id="node27" class="node">
<title>Node26</title>
<g id="a_node27"><a xlink:title=" ">
<polygon fill="#ffffff" stroke="#bfbfbf" points="1170.8249,-112.5 1170.8249,-131.5 1214.8249,-131.5 1214.8249,-112.5 1170.8249,-112.5"/>
<text text-anchor="middle" x="1192.8249" y="-119.5" font-family="Helvetica,sans-Serif" font-size="10.00" fill="#000000">mutex</text>
</a>
</g>
</g>
<!-- Node0&#45;&gt;Node26 -->
<g id="edge29" class="edge">
<title>Node0&#45;&gt;Node26</title>
<path fill="none" stroke="#191970" d="M970.9378,-170.4C1017.5308,-162.785 1089.6383,-149.9536 1160.5709,-132.0935"/>
<polygon fill="#191970" stroke="#191970" points="1161.7464,-135.4058 1170.5693,-129.54 1160.0142,-128.6235 1161.7464,-135.4058"/>
</g>
<!-- Node27 -->
<g id="node28" class="node">
<title>Node27</title>
<g id="a_node28"><a xlink:title=" ">
<polygon fill="#ffffff" stroke="#bfbfbf" points="1232.8249,-112.5 1232.8249,-131.5 1276.8249,-131.5 1276.8249,-112.5 1232.8249,-112.5"/>
<text text-anchor="middle" x="1254.8249" y="-119.5" font-family="Helvetica,sans-Serif" font-size="10.00" fill="#000000">vector</text>
</a>
</g>
</g>
<!-- Node0&#45;&gt;Node27 -->
<g id="edge31" class="edge">
<title>Node0&#45;&gt;Node27</title>
<path fill="none" stroke="#191970" d="M970.9318,-172.9797C1029.0205,-166.4981 1128.7063,-153.6715 1222.6452,-131.9803"/>
<polygon fill="#191970" stroke="#191970" points="1223.6597,-135.3374 1232.5948,-129.644 1222.0595,-128.5227 1223.6597,-135.3374"/>
</g>
<!-- Node28 -->
<g id="node29" class="node">
<title>Node28</title>
<g id="a_node29"><a xlink:title=" ">
<polygon fill="#ffffff" stroke="#bfbfbf" points="1294.8249,-112.5 1294.8249,-131.5 1350.8249,-131.5 1350.8249,-112.5 1294.8249,-112.5"/>
<text text-anchor="middle" x="1322.8249" y="-119.5" font-family="Helvetica,sans-Serif" font-size="10.00" fill="#000000">algorithm</text>
</a>
</g>
</g>
<!-- Node0&#45;&gt;Node28 -->
<g id="edge32" class="edge">
<title>Node0&#45;&gt;Node28</title>
<path fill="none" stroke="#191970" d="M971.0367,-173.9574C1039.3951,-167.8636 1167.0525,-154.7553 1284.7377,-131.9919"/>
<polygon fill="#191970" stroke="#191970" points="1285.499,-135.4093 1294.6378,-130.0491 1284.151,-128.5403 1285.499,-135.4093"/>
</g>
<!-- Node29 -->
<g id="node30" class="node">
<title>Node29</title>
<g id="a_node30"><a xlink:title=" ">
<polygon fill="#ffffff" stroke="#bfbfbf" points="1369.3249,-112.5 1369.3249,-131.5 1418.3249,-131.5 1418.3249,-112.5 1369.3249,-112.5"/>
<text text-anchor="middle" x="1393.8249" y="-119.5" font-family="Helvetica,sans-Serif" font-size="10.00" fill="#000000">cassert</text>
</a>
</g>
</g>
<!-- Node0&#45;&gt;Node29 -->
<g id="edge34" class="edge">
<title>Node0&#45;&gt;Node29</title>
<path fill="none" stroke="#191970" d="M970.868,-175.7548C1050.4836,-171.4777 1212.8111,-160.13 1359.0201,-131.8228"/>
<polygon fill="#191970" stroke="#191970" points="1359.9358,-135.2098 1369.0717,-129.8446 1358.584,-128.3416 1359.9358,-135.2098"/>
</g>
<!-- Node30 -->
<g id="node31" class="node">
<title>Node30</title>
<g id="a_node31"><a xlink:title=" ">
<polygon fill="#ffffff" stroke="#bfbfbf" points="1436.3249,-112.5 1436.3249,-131.5 1483.3249,-131.5 1483.3249,-112.5 1436.3249,-112.5"/>
<text text-anchor="middle" x="1459.8249" y="-119.5" font-family="Helvetica,sans-Serif" font-size="10.00" fill="#000000">csignal</text>
</a>
</g>
</g>
<!-- Node0&#45;&gt;Node30 -->
<g id="edge35" class="edge">
<title>Node0&#45;&gt;Node30</title>
<path fill="none" stroke="#191970" d="M971.1664,-176.9798C1060.5172,-174.3833 1255.0053,-165.294 1426.2582,-131.964"/>
<polygon fill="#191970" stroke="#191970" points="1427.0742,-135.3705 1436.2044,-129.9954 1425.7151,-128.5037 1427.0742,-135.3705"/>
</g>
<!-- Node31 -->
<g id="node32" class="node">
<title>Node31</title>
<g id="a_node32"><a xlink:title=" ">
<polygon fill="#ffffff" stroke="#bfbfbf" points="1501.8249,-112.5 1501.8249,-131.5 1569.8249,-131.5 1569.8249,-112.5 1501.8249,-112.5"/>
<text text-anchor="middle" x="1535.8249" y="-119.5" font-family="Helvetica,sans-Serif" font-size="10.00" fill="#000000">sys/types.h</text>
</a>
</g>
</g>
<!-- Node0&#45;&gt;Node31 -->
<g id="edge36" class="edge">
<title>Node0&#45;&gt;Node31</title>
<path fill="none" stroke="#191970" d="M970.995,-176.4908C1068.5535,-172.9665 1293.566,-162.1981 1491.6389,-131.977"/>
<polygon fill="#191970" stroke="#191970" points="1492.2989,-135.4166 1501.6466,-130.4297 1491.2293,-128.4988 1492.2989,-135.4166"/>
</g>
<!-- Node32 -->
<g id="node33" class="node">
<title>Node32</title>
<g id="a_node33"><a xlink:title=" ">
<polygon fill="#ffffff" stroke="#bfbfbf" points="1587.8249,-112.5 1587.8249,-131.5 1657.8249,-131.5 1657.8249,-112.5 1587.8249,-112.5"/>
<text text-anchor="middle" x="1622.8249" y="-119.5" font-family="Helvetica,sans-Serif" font-size="10.00" fill="#000000">sys/sysctl.h</text>
</a>
</g>
</g>
<!-- Node0&#45;&gt;Node32 -->
<g id="edge37" class="edge">
<title>Node0&#45;&gt;Node32</title>
<path fill="none" stroke="#191970" d="M971.1425,-177.1299C1079.3476,-174.6652 1345.7598,-165.5627 1577.4117,-132.0101"/>
<polygon fill="#191970" stroke="#191970" points="1577.9855,-135.4635 1587.3716,-130.5491 1576.9695,-128.5376 1577.9855,-135.4635"/>
</g>
<!-- Node33 -->
<g id="node34" class="node">
<title>Node33</title>
<g id="a_node34"><a xlink:title=" ">
<polygon fill="#ffffff" stroke="#bfbfbf" points="1676.3249,-112.5 1676.3249,-131.5 1757.3249,-131.5 1757.3249,-112.5 1676.3249,-112.5"/>
<text text-anchor="middle" x="1716.8249" y="-119.5" font-family="Helvetica,sans-Serif" font-size="10.00" fill="#000000">sys/resource.h</text>
</a>
</g>
</g>
<!-- Node0&#45;&gt;Node33 -->
<g id="edge38" class="edge">
<title>Node0&#45;&gt;Node33</title>
<path fill="none" stroke="#191970" d="M970.8569,-177.2707C1088.8995,-175.0221 1398.2918,-166.1984 1666.3247,-131.8796"/>
<polygon fill="#191970" stroke="#191970" points="1666.7745,-135.3507 1676.2423,-130.5956 1665.8757,-128.4086 1666.7745,-135.3507"/>
</g>
<!-- Node34 -->
<g id="node35" class="node">
<title>Node34</title>
<g id="a_node35"><a xlink:title=" ">
<polygon fill="#ffffff" stroke="#bfbfbf" points="1775.3249,-112.5 1775.3249,-131.5 1822.3249,-131.5 1822.3249,-112.5 1775.3249,-112.5"/>
<text text-anchor="middle" x="1798.8249" y="-119.5" font-family="Helvetica,sans-Serif" font-size="10.00" fill="#000000">libutil.h</text>
</a>
</g>
</g>
<!-- Node0&#45;&gt;Node34 -->
<g id="edge39" class="edge">
<title>Node0&#45;&gt;Node34</title>
<path fill="none" stroke="#191970" d="M970.9236,-176.9281C1124.2348,-173.3345 1593.5706,-160.4027 1765.3184,-131.8208"/>
<polygon fill="#191970" stroke="#191970" points="1765.9728,-135.2595 1775.2231,-130.094 1764.7705,-128.3636 1765.9728,-135.2595"/>
</g>
<!-- Node35 -->
<g id="node36" class="node">
<title>Node35</title>
<g id="a_node36"><a xlink:title=" ">
<polygon fill="#ffffff" stroke="#bfbfbf" points="1840.8249,-112.5 1840.8249,-131.5 1886.8249,-131.5 1886.8249,-112.5 1840.8249,-112.5"/>
<text text-anchor="middle" x="1863.8249" y="-119.5" font-family="Helvetica,sans-Serif" font-size="10.00" fill="#000000">dlfcn.h</text>
</a>
</g>
</g>
<!-- Node0&#45;&gt;Node35 -->
<g id="edge40" class="edge">
<title>Node0&#45;&gt;Node35</title>
<path fill="none" stroke="#191970" d="M970.9175,-177.1492C1132.151,-174.1043 1645.227,-162.3611 1830.6763,-131.7213"/>
<polygon fill="#191970" stroke="#191970" points="1831.3175,-135.1625 1840.5755,-130.0109 1830.1256,-128.2647 1831.3175,-135.1625"/>
</g>
<!-- Node36 -->
<g id="node37" class="node">
<title>Node36</title>
<g id="a_node37"><a xlink:title=" ">
<polygon fill="#ffffff" stroke="#bfbfbf" points="1905.3249,-112.5 1905.3249,-131.5 1956.3249,-131.5 1956.3249,-112.5 1905.3249,-112.5"/>
<text text-anchor="middle" x="1930.8249" y="-119.5" font-family="Helvetica,sans-Serif" font-size="10.00" fill="#000000">unistd.h</text>
</a>
</g>
</g>
<!-- Node0&#45;&gt;Node36 -->
<g id="edge41" class="edge">
<title>Node0&#45;&gt;Node36</title>
<path fill="none" stroke="#191970" d="M971.0216,-177.1786C1139.8087,-174.1299 1695.4514,-162.1292 1894.9062,-131.7073"/>
<polygon fill="#191970" stroke="#191970" points="1895.6574,-135.1319 1904.983,-130.1038 1894.5572,-128.2189 1895.6574,-135.1319"/>
</g>
<!-- Node2 -->
<g id="node3" class="node">
<title>Node2</title>
<g id="a_node3"><a xlink:title=" ">
<polygon fill="#ffffff" stroke="#bfbfbf" points="161.8249,-.5 161.8249,-19.5 223.8249,-19.5 223.8249,-.5 161.8249,-.5"/>
<text text-anchor="middle" x="192.8249" y="-7.5" font-family="Helvetica,sans-Serif" font-size="10.00" fill="#000000">type_traits</text>
</a>
</g>
</g>
<!-- Node1&#45;&gt;Node2 -->
<g id="edge2" class="edge">
<title>Node1&#45;&gt;Node2</title>
<path fill="none" stroke="#191970" d="M187.87,-56.2455C188.6529,-48.9382 189.7505,-38.6944 190.7137,-29.7046"/>
<polygon fill="#191970" stroke="#191970" points="194.2064,-29.9587 191.7918,-19.6427 187.2462,-29.2129 194.2064,-29.9587"/>
</g>
<!-- Node1&#45;&gt;Node3 -->
<g id="edge3" class="edge">
<title>Node1&#45;&gt;Node3</title>
<path fill="none" stroke="#191970" d="M175.6769,-56.2455C166.3162,-48.0549 152.7391,-36.1749 141.69,-26.5069"/>
<polygon fill="#191970" stroke="#191970" points="143.6757,-23.5937 133.8451,-19.6427 139.0661,-28.8618 143.6757,-23.5937"/>
</g>
<!-- Node4 -->
<g id="node5" class="node">
<title>Node4</title>
<g id="a_node5"><a xlink:title=" ">
<polygon fill="#ffffff" stroke="#bfbfbf" points="242.3249,-.5 242.3249,-19.5 285.3249,-19.5 285.3249,-.5 242.3249,-.5"/>
<text text-anchor="middle" x="263.8249" y="-7.5" font-family="Helvetica,sans-Serif" font-size="10.00" fill="#000000">cstdio</text>
</a>
</g>
</g>
<!-- Node1&#45;&gt;Node4 -->
<g id="edge4" class="edge">
<title>Node1&#45;&gt;Node4</title>
<path fill="none" stroke="#191970" d="M200.2373,-56.2455C211.8306,-47.814 228.7996,-35.4729 242.2927,-25.6598"/>
<polygon fill="#191970" stroke="#191970" points="244.5375,-28.355 250.5662,-19.6427 240.4202,-22.6938 244.5375,-28.355"/>
</g>
<!-- Node6 -->
<g id="node7" class="node">
<title>Node6</title>
<g id="a_node7"><a xlink:href="types_8hpp.html" target="_top" xlink:title="A collection of type aliases.">
<polygon fill="#ffffff" stroke="#000000" points="29.3249,-56.5 29.3249,-75.5 88.3249,-75.5 88.3249,-56.5 29.3249,-56.5"/>
<text text-anchor="middle" x="58.8249" y="-63.5" font-family="Helvetica,sans-Serif" font-size="10.00" fill="#000000">types.hpp</text>
</a>
</g>
</g>
<!-- Node5&#45;&gt;Node6 -->
<g id="edge6" class="edge">
<title>Node5&#45;&gt;Node6</title>
<path fill="none" stroke="#191970" d="M61.3023,-112.2455C60.9109,-104.9382 60.3621,-94.6944 59.8805,-85.7046"/>
<polygon fill="#191970" stroke="#191970" points="63.3715,-85.4411 59.3415,-75.6427 56.3815,-85.8156 63.3715,-85.4411"/>
</g>
<!-- Node6&#45;&gt;Node7 -->
<g id="edge7" class="edge">
<title>Node6&#45;&gt;Node7</title>
<path fill="none" stroke="#191970" d="M53.9477,-56.2455C50.1736,-48.6973 44.8328,-38.0158 40.2348,-28.8197"/>
<polygon fill="#191970" stroke="#191970" points="43.2489,-27.0217 35.6462,-19.6427 36.9879,-30.1522 43.2489,-27.0217"/>
</g>
<!-- Node8&#45;&gt;Node9 -->
<g id="edge9" class="edge">
<title>Node8&#45;&gt;Node9</title>
<path fill="none" stroke="#191970" d="M326.4765,-112.2455C326.2155,-104.9382 325.8497,-94.6944 325.5286,-85.7046"/>
<polygon fill="#191970" stroke="#191970" points="329.0241,-85.5113 325.1693,-75.6427 322.0285,-85.7613 329.0241,-85.5113"/>
</g>
<!-- Node10&#45;&gt;Node1 -->
<g id="edge11" class="edge">
<title>Node10&#45;&gt;Node1</title>
<path fill="none" stroke="#191970" d="M235.5479,-112.2455C227.0031,-104.1352 214.6471,-92.4075 204.5164,-82.7919"/>
<polygon fill="#191970" stroke="#191970" points="206.6467,-79.9884 196.9841,-75.6427 201.8277,-85.0655 206.6467,-79.9884"/>
</g>
<!-- Node11 -->
<g id="node12" class="node">
<title>Node11</title>
<g id="a_node12"><a xlink:title=" ">
<polygon fill="#ffffff" stroke="#bfbfbf" points="234.8249,-56.5 234.8249,-75.5 280.8249,-75.5 280.8249,-56.5 234.8249,-56.5"/>
<text text-anchor="middle" x="257.8249" y="-63.5" font-family="Helvetica,sans-Serif" font-size="10.00" fill="#000000">cstdint</text>
</a>
</g>
</g>
<!-- Node10&#45;&gt;Node11 -->
<g id="edge12" class="edge">
<title>Node10&#45;&gt;Node11</title>
<path fill="none" stroke="#191970" d="M247.9151,-112.2455C249.481,-104.9382 251.6761,-94.6944 253.6025,-85.7046"/>
<polygon fill="#191970" stroke="#191970" points="257.0855,-86.1541 255.7586,-75.6427 250.2409,-84.6873 257.0855,-86.1541"/>
</g>
<!-- Node13 -->
<g id="node14" class="node">
<title>Node13</title>
<g id="a_node14"><a xlink:href="error_8hpp.html" target="_top" xlink:title="Provides system call error handling.">
<polygon fill="#ffffff" stroke="#000000" points="432.3249,-56.5 432.3249,-75.5 487.3249,-75.5 487.3249,-56.5 432.3249,-56.5"/>
<text text-anchor="middle" x="459.8249" y="-63.5" font-family="Helvetica,sans-Serif" font-size="10.00" fill="#000000">error.hpp</text>
</a>
</g>
</g>
<!-- Node12&#45;&gt;Node13 -->
<g id="edge14" class="edge">
<title>Node12&#45;&gt;Node13</title>
<path fill="none" stroke="#191970" d="M449.9151,-112.2455C451.481,-104.9382 453.6761,-94.6944 455.6025,-85.7046"/>
<polygon fill="#191970" stroke="#191970" points="459.0855,-86.1541 457.7586,-75.6427 452.2409,-84.6873 459.0855,-86.1541"/>
</g>
<!-- Node16 -->
<g id="node17" class="node">
<title>Node16</title>
<g id="a_node17"><a xlink:title=" ">
<polygon fill="#ffffff" stroke="#bfbfbf" points="369.3249,-56.5 369.3249,-75.5 414.3249,-75.5 414.3249,-56.5 369.3249,-56.5"/>
<text text-anchor="middle" x="391.8249" y="-63.5" font-family="Helvetica,sans-Serif" font-size="10.00" fill="#000000">cstdlib</text>
</a>
</g>
</g>
<!-- Node12&#45;&gt;Node16 -->
<g id="edge17" class="edge">
<title>Node12&#45;&gt;Node16</title>
<path fill="none" stroke="#191970" d="M438.0704,-112.2455C429.9601,-104.1352 418.2324,-92.4075 408.6168,-82.7919"/>
<polygon fill="#191970" stroke="#191970" points="411.0136,-80.2389 401.4676,-75.6427 406.0638,-85.1887 411.0136,-80.2389"/>
</g>
<!-- Node14 -->
<g id="node15" class="node">
<title>Node14</title>
<g id="a_node15"><a xlink:title=" ">
<polygon fill="#ffffff" stroke="#bfbfbf" points="430.8249,-.5 430.8249,-19.5 474.8249,-19.5 474.8249,-.5 430.8249,-.5"/>
<text text-anchor="middle" x="452.8249" y="-7.5" font-family="Helvetica,sans-Serif" font-size="10.00" fill="#000000">cerrno</text>
</a>
</g>
</g>
<!-- Node13&#45;&gt;Node14 -->
<g id="edge15" class="edge">
<title>Node13&#45;&gt;Node14</title>
<path fill="none" stroke="#191970" d="M458.6056,-56.2455C457.6922,-48.9382 456.4117,-38.6944 455.288,-29.7046"/>
<polygon fill="#191970" stroke="#191970" points="458.7436,-29.1313 454.0302,-19.6427 451.7977,-29.9996 458.7436,-29.1313"/>
</g>
<!-- Node13&#45;&gt;Node15 -->
<g id="edge16" class="edge">
<title>Node13&#45;&gt;Node15</title>
<path fill="none" stroke="#191970" d="M469.5794,-56.2455C477.6897,-48.1352 489.4174,-36.4075 499.033,-26.7919"/>
<polygon fill="#191970" stroke="#191970" points="501.586,-29.1887 506.1822,-19.6427 496.6362,-24.2389 501.586,-29.1887"/>
</g>
</g>
</svg>
