<?xml version="1.0" encoding="UTF-8" standalone="no"?>
<!DOCTYPE svg PUBLIC "-//W3C//DTD SVG 1.1//EN"
 "http://www.w3.org/Graphics/SVG/1.1/DTD/svg11.dtd">
<!-- Generated by graphviz version 2.42.2 ()
 -->
<!-- Title: src/libloadplay.cpp Pages: 1 -->
<svg width="1862pt" height="196pt"
 viewBox="0.00 0.00 1862.50 196.00" xmlns="http://www.w3.org/2000/svg" xmlns:xlink="http://www.w3.org/1999/xlink">
<g id="graph0" class="graph" transform="scale(1 1) rotate(0) translate(4 192)">
<title>src/libloadplay.cpp</title>
<polygon fill="white" stroke="transparent" points="-4,4 -4,-192 1858.5,-192 1858.5,4 -4,4"/>
<!-- Node1 -->
<g id="node1" class="node">
<title>Node1</title>
<g id="a_node1"><a xlink:title="Implements a library intended to be injected into a clock frequency deamon via LD_PRELOAD.">
<polygon fill="#bfbfbf" stroke="black" points="902,-168.5 902,-187.5 1000,-187.5 1000,-168.5 902,-168.5"/>
<text text-anchor="middle" x="951" y="-175.5" font-family="Helvetica,sans-Serif" font-size="10.00">src/libloadplay.cpp</text>
</a>
</g>
</g>
<!-- Node2 -->
<g id="node2" class="node">
<title>Node2</title>
<g id="a_node2"><a xlink:href="utility_8hpp.html" target="_top" xlink:title="Implements generally useful functions.">
<polygon fill="white" stroke="black" points="109.5,-56.5 109.5,-75.5 168.5,-75.5 168.5,-56.5 109.5,-56.5"/>
<text text-anchor="middle" x="139" y="-63.5" font-family="Helvetica,sans-Serif" font-size="10.00">utility.hpp</text>
</a>
</g>
</g>
<!-- Node1&#45;&gt;Node2 -->
<g id="edge1" class="edge">
<title>Node1&#45;&gt;Node2</title>
<path fill="none" stroke="midnightblue" d="M901.73,-177.49C737.36,-178.66 214.87,-178.67 157,-132 143.49,-121.11 139.59,-101.04 138.7,-86.07"/>
<polygon fill="midnightblue" stroke="midnightblue" points="142.2,-85.78 138.5,-75.86 135.2,-85.92 142.2,-85.78"/>
</g>
<!-- Node6 -->
<g id="node6" class="node">
<title>Node6</title>
<g id="a_node6"><a xlink:title=" ">
<polygon fill="white" stroke="#bfbfbf" points="218.5,-0.5 218.5,-19.5 259.5,-19.5 259.5,-0.5 218.5,-0.5"/>
<text text-anchor="middle" x="239" y="-7.5" font-family="Helvetica,sans-Serif" font-size="10.00">string</text>
</a>
</g>
</g>
<!-- Node1&#45;&gt;Node6 -->
<g id="edge23" class="edge">
<title>Node1&#45;&gt;Node6</title>
<path fill="none" stroke="midnightblue" d="M902,-176.46C758.42,-174.5 345.64,-165.93 296,-132 261.12,-108.16 247.03,-57.09 241.79,-29.54"/>
<polygon fill="midnightblue" stroke="midnightblue" points="245.23,-28.89 240.1,-19.62 238.33,-30.07 245.23,-28.89"/>
</g>
<!-- Node8 -->
<g id="node8" class="node">
<title>Node8</title>
<g id="a_node8"><a xlink:href="constants_8hpp.html" target="_top" xlink:title="Defines a collection of constants.">
<polygon fill="white" stroke="black" points="423,-112.5 423,-131.5 501,-131.5 501,-112.5 423,-112.5"/>
<text text-anchor="middle" x="462" y="-119.5" font-family="Helvetica,sans-Serif" font-size="10.00">constants.hpp</text>
</a>
</g>
</g>
<!-- Node1&#45;&gt;Node8 -->
<g id="edge7" class="edge">
<title>Node1&#45;&gt;Node8</title>
<path fill="none" stroke="midnightblue" d="M901.89,-173.34C822.11,-167.1 659.2,-153.12 511.41,-132.1"/>
<polygon fill="midnightblue" stroke="midnightblue" points="511.64,-128.59 501.25,-130.64 510.65,-135.52 511.64,-128.59"/>
</g>
<!-- Node10 -->
<g id="node10" class="node">
<title>Node10</title>
<g id="a_node10"><a xlink:title=" ">
<polygon fill="white" stroke="#bfbfbf" points="401,-0.5 401,-19.5 447,-19.5 447,-0.5 401,-0.5"/>
<text text-anchor="middle" x="424" y="-7.5" font-family="Helvetica,sans-Serif" font-size="10.00">chrono</text>
</a>
</g>
</g>
<!-- Node1&#45;&gt;Node10 -->
<g id="edge29" class="edge">
<title>Node1&#45;&gt;Node10</title>
<path fill="none" stroke="midnightblue" d="M901.74,-176.58C775.26,-175.01 446.66,-167.51 414,-132 388.18,-103.92 403.86,-55.07 415.27,-28.85"/>
<polygon fill="midnightblue" stroke="midnightblue" points="418.48,-30.25 419.48,-19.71 412.12,-27.33 418.48,-30.25"/>
</g>
<!-- Node11 -->
<g id="node11" class="node">
<title>Node11</title>
<g id="a_node11"><a xlink:href="version_8hpp.html" target="_top" xlink:title="Defines types and constants used for version management.">
<polygon fill="white" stroke="black" points="166.5,-112.5 166.5,-131.5 233.5,-131.5 233.5,-112.5 166.5,-112.5"/>
<text text-anchor="middle" x="200" y="-119.5" font-family="Helvetica,sans-Serif" font-size="10.00">version.hpp</text>
</a>
</g>
</g>
<!-- Node1&#45;&gt;Node11 -->
<g id="edge10" class="edge">
<title>Node1&#45;&gt;Node11</title>
<path fill="none" stroke="midnightblue" d="M901.8,-175.9C786.92,-172.9 492.22,-162.6 248,-132 246.7,-131.84 245.38,-131.66 244.05,-131.47"/>
<polygon fill="midnightblue" stroke="midnightblue" points="244.17,-127.95 233.75,-129.86 243.09,-134.87 244.17,-127.95"/>
</g>
<!-- Node13 -->
<g id="node13" class="node">
<title>Node13</title>
<g id="a_node13"><a xlink:href="env_8hpp.html" target="_top" xlink:title="Implements zero&#45;cost abstractions for the getenv(3) facilities.">
<polygon fill="white" stroke="black" points="519,-112.5 519,-131.5 589,-131.5 589,-112.5 519,-112.5"/>
<text text-anchor="middle" x="554" y="-119.5" font-family="Helvetica,sans-Serif" font-size="10.00">sys/env.hpp</text>
</a>
</g>
</g>
<!-- Node1&#45;&gt;Node13 -->
<g id="edge13" class="edge">
<title>Node1&#45;&gt;Node13</title>
<path fill="none" stroke="midnightblue" d="M901.9,-171.48C834.4,-163.71 709.23,-148.61 603,-132 601.73,-131.8 600.43,-131.59 599.13,-131.38"/>
<polygon fill="midnightblue" stroke="midnightblue" points="599.47,-127.89 589.03,-129.67 598.3,-134.79 599.47,-127.89"/>
</g>
<!-- Node16 -->
<g id="node16" class="node">
<title>Node16</title>
<g id="a_node16"><a xlink:title=" ">
<polygon fill="white" stroke="#bfbfbf" points="596,-0.5 596,-19.5 642,-19.5 642,-0.5 596,-0.5"/>
<text text-anchor="middle" x="619" y="-7.5" font-family="Helvetica,sans-Serif" font-size="10.00">cstring</text>
</a>
</g>
</g>
<!-- Node1&#45;&gt;Node16 -->
<g id="edge32" class="edge">
<title>Node1&#45;&gt;Node16</title>
<path fill="none" stroke="midnightblue" d="M901.75,-176.97C822.72,-175.82 672.82,-168.7 637,-132 613.24,-107.66 633.34,-89.59 628,-56 626.61,-47.24 624.72,-37.58 623.04,-29.47"/>
<polygon fill="midnightblue" stroke="midnightblue" points="626.44,-28.64 620.93,-19.59 619.59,-30.1 626.44,-28.64"/>
</g>
<!-- Node18 -->
<g id="node18" class="node">
<title>Node18</title>
<g id="a_node18"><a xlink:href="io_8hpp.html" target="_top" xlink:title="Implements c++ wrappers for &lt;cstdio&gt; I/O functionality.">
<polygon fill="white" stroke="black" points="305,-112.5 305,-131.5 367,-131.5 367,-112.5 305,-112.5"/>
<text text-anchor="middle" x="336" y="-119.5" font-family="Helvetica,sans-Serif" font-size="10.00">sys/io.hpp</text>
</a>
</g>
</g>
<!-- Node1&#45;&gt;Node18 -->
<g id="edge18" class="edge">
<title>Node1&#45;&gt;Node18</title>
<path fill="none" stroke="midnightblue" d="M901.99,-175.09C803.09,-170.81 572.73,-158.65 381,-132 379.9,-131.85 378.78,-131.68 377.65,-131.51"/>
<polygon fill="midnightblue" stroke="midnightblue" points="377.83,-127.99 367.39,-129.77 376.66,-134.89 377.83,-127.99"/>
</g>
<!-- Node20 -->
<g id="node20" class="node">
<title>Node20</title>
<g id="a_node20"><a xlink:title=" ">
<polygon fill="white" stroke="#bfbfbf" points="645.5,-112.5 645.5,-131.5 728.5,-131.5 728.5,-112.5 645.5,-112.5"/>
<text text-anchor="middle" x="687" y="-119.5" font-family="Helvetica,sans-Serif" font-size="10.00">unordered_map</text>
</a>
</g>
</g>
<!-- Node1&#45;&gt;Node20 -->
<g id="edge21" class="edge">
<title>Node1&#45;&gt;Node20</title>
<path fill="none" stroke="midnightblue" d="M909.17,-168.44C862.92,-158.98 788.39,-143.74 738.56,-133.55"/>
<polygon fill="midnightblue" stroke="midnightblue" points="739.13,-130.09 728.64,-131.52 737.73,-136.95 739.13,-130.09"/>
</g>
<!-- Node21 -->
<g id="node21" class="node">
<title>Node21</title>
<g id="a_node21"><a xlink:title=" ">
<polygon fill="white" stroke="#bfbfbf" points="746.5,-112.5 746.5,-131.5 781.5,-131.5 781.5,-112.5 746.5,-112.5"/>
<text text-anchor="middle" x="764" y="-119.5" font-family="Helvetica,sans-Serif" font-size="10.00">map</text>
</a>
</g>
</g>
<!-- Node1&#45;&gt;Node21 -->
<g id="edge22" class="edge">
<title>Node1&#45;&gt;Node21</title>
<path fill="none" stroke="midnightblue" d="M918.99,-168.48C888.56,-160.27 841.3,-147.25 791.36,-132"/>
<polygon fill="midnightblue" stroke="midnightblue" points="792.27,-128.62 781.68,-129.03 790.21,-135.31 792.27,-128.62"/>
</g>
<!-- Node22 -->
<g id="node22" class="node">
<title>Node22</title>
<g id="a_node22"><a xlink:title=" ">
<polygon fill="white" stroke="#bfbfbf" points="799.5,-112.5 799.5,-131.5 840.5,-131.5 840.5,-112.5 799.5,-112.5"/>
<text text-anchor="middle" x="820" y="-119.5" font-family="Helvetica,sans-Serif" font-size="10.00">regex</text>
</a>
</g>
</g>
<!-- Node1&#45;&gt;Node22 -->
<g id="edge24" class="edge">
<title>Node1&#45;&gt;Node22</title>
<path fill="none" stroke="midnightblue" d="M930.24,-168.44C908.68,-159.56 874.74,-145.56 850.21,-135.45"/>
<polygon fill="midnightblue" stroke="midnightblue" points="851.24,-132.09 840.66,-131.52 848.57,-138.56 851.24,-132.09"/>
</g>
<!-- Node23 -->
<g id="node23" class="node">
<title>Node23</title>
<g id="a_node23"><a xlink:title=" ">
<polygon fill="white" stroke="#bfbfbf" points="859,-112.5 859,-131.5 911,-131.5 911,-112.5 859,-112.5"/>
<text text-anchor="middle" x="885" y="-119.5" font-family="Helvetica,sans-Serif" font-size="10.00">memory</text>
</a>
</g>
</g>
<!-- Node1&#45;&gt;Node23 -->
<g id="edge25" class="edge">
<title>Node1&#45;&gt;Node23</title>
<path fill="none" stroke="midnightblue" d="M940.4,-168.32C930.54,-160.26 915.65,-148.08 903.78,-138.37"/>
<polygon fill="midnightblue" stroke="midnightblue" points="905.75,-135.46 895.8,-131.83 901.32,-140.88 905.75,-135.46"/>
</g>
<!-- Node24 -->
<g id="node24" class="node">
<title>Node24</title>
<g id="a_node24"><a xlink:title=" ">
<polygon fill="white" stroke="#bfbfbf" points="929,-112.5 929,-131.5 973,-131.5 973,-112.5 929,-112.5"/>
<text text-anchor="middle" x="951" y="-119.5" font-family="Helvetica,sans-Serif" font-size="10.00">thread</text>
</a>
</g>
</g>
<!-- Node1&#45;&gt;Node24 -->
<g id="edge26" class="edge">
<title>Node1&#45;&gt;Node24</title>
<path fill="none" stroke="midnightblue" d="M951,-168.08C951,-161.01 951,-150.86 951,-141.99"/>
<polygon fill="midnightblue" stroke="midnightblue" points="954.5,-141.75 951,-131.75 947.5,-141.75 954.5,-141.75"/>
</g>
<!-- Node25 -->
<g id="node25" class="node">
<title>Node25</title>
<g id="a_node25"><a xlink:title=" ">
<polygon fill="white" stroke="#bfbfbf" points="991.5,-112.5 991.5,-131.5 1050.5,-131.5 1050.5,-112.5 991.5,-112.5"/>
<text text-anchor="middle" x="1021" y="-119.5" font-family="Helvetica,sans-Serif" font-size="10.00">exception</text>
</a>
</g>
</g>
<!-- Node1&#45;&gt;Node25 -->
<g id="edge27" class="edge">
<title>Node1&#45;&gt;Node25</title>
<path fill="none" stroke="midnightblue" d="M962.25,-168.32C972.8,-160.18 988.8,-147.84 1001.44,-138.09"/>
<polygon fill="midnightblue" stroke="midnightblue" points="1003.77,-140.71 1009.55,-131.83 999.49,-135.17 1003.77,-140.71"/>
</g>
<!-- Node26 -->
<g id="node26" class="node">
<title>Node26</title>
<g id="a_node26"><a xlink:title=" ">
<polygon fill="white" stroke="#bfbfbf" points="1069,-112.5 1069,-131.5 1113,-131.5 1113,-112.5 1069,-112.5"/>
<text text-anchor="middle" x="1091" y="-119.5" font-family="Helvetica,sans-Serif" font-size="10.00">mutex</text>
</a>
</g>
</g>
<!-- Node1&#45;&gt;Node26 -->
<g id="edge28" class="edge">
<title>Node1&#45;&gt;Node26</title>
<path fill="none" stroke="midnightblue" d="M973.18,-168.44C996.43,-159.48 1033.15,-145.31 1059.42,-135.18"/>
<polygon fill="midnightblue" stroke="midnightblue" points="1060.85,-138.38 1068.92,-131.52 1058.33,-131.85 1060.85,-138.38"/>
</g>
<!-- Node27 -->
<g id="node27" class="node">
<title>Node27</title>
<g id="a_node27"><a xlink:title=" ">
<polygon fill="white" stroke="#bfbfbf" points="1131,-112.5 1131,-131.5 1175,-131.5 1175,-112.5 1131,-112.5"/>
<text text-anchor="middle" x="1153" y="-119.5" font-family="Helvetica,sans-Serif" font-size="10.00">vector</text>
</a>
</g>
</g>
<!-- Node1&#45;&gt;Node27 -->
<g id="edge30" class="edge">
<title>Node1&#45;&gt;Node27</title>
<path fill="none" stroke="midnightblue" d="M984.49,-168.45C1016.99,-160.1 1067.95,-146.85 1120.78,-132.29"/>
<polygon fill="midnightblue" stroke="midnightblue" points="1121.96,-135.6 1130.67,-129.56 1120.1,-128.85 1121.96,-135.6"/>
</g>
<!-- Node28 -->
<g id="node28" class="node">
<title>Node28</title>
<g id="a_node28"><a xlink:title=" ">
<polygon fill="white" stroke="#bfbfbf" points="1193,-112.5 1193,-131.5 1249,-131.5 1249,-112.5 1193,-112.5"/>
<text text-anchor="middle" x="1221" y="-119.5" font-family="Helvetica,sans-Serif" font-size="10.00">algorithm</text>
</a>
</g>
</g>
<!-- Node1&#45;&gt;Node28 -->
<g id="edge31" class="edge">
<title>Node1&#45;&gt;Node28</title>
<path fill="none" stroke="midnightblue" d="M998.88,-168.44C1043.96,-160.23 1113.59,-147.15 1182.97,-132.15"/>
<polygon fill="midnightblue" stroke="midnightblue" points="1183.72,-135.57 1192.75,-130.02 1182.23,-128.73 1183.72,-135.57"/>
</g>
<!-- Node29 -->
<g id="node29" class="node">
<title>Node29</title>
<g id="a_node29"><a xlink:title=" ">
<polygon fill="white" stroke="#bfbfbf" points="1267.5,-112.5 1267.5,-131.5 1316.5,-131.5 1316.5,-112.5 1267.5,-112.5"/>
<text text-anchor="middle" x="1292" y="-119.5" font-family="Helvetica,sans-Serif" font-size="10.00">cassert</text>
</a>
</g>
</g>
<!-- Node1&#45;&gt;Node29 -->
<g id="edge33" class="edge">
<title>Node1&#45;&gt;Node29</title>
<path fill="none" stroke="midnightblue" d="M1000.22,-171.53C1059.08,-164.6 1160.73,-151.41 1257.27,-131.94"/>
<polygon fill="midnightblue" stroke="midnightblue" points="1258.1,-135.34 1267.19,-129.91 1256.7,-128.49 1258.1,-135.34"/>
</g>
<!-- Node30 -->
<g id="node30" class="node">
<title>Node30</title>
<g id="a_node30"><a xlink:title=" ">
<polygon fill="white" stroke="#bfbfbf" points="1334.5,-112.5 1334.5,-131.5 1381.5,-131.5 1381.5,-112.5 1334.5,-112.5"/>
<text text-anchor="middle" x="1358" y="-119.5" font-family="Helvetica,sans-Serif" font-size="10.00">csignal</text>
</a>
</g>
</g>
<!-- Node1&#45;&gt;Node30 -->
<g id="edge34" class="edge">
<title>Node1&#45;&gt;Node30</title>
<path fill="none" stroke="midnightblue" d="M1000.22,-173.54C1070.36,-168.06 1203.17,-155.72 1324.5,-132.05"/>
<polygon fill="midnightblue" stroke="midnightblue" points="1325.2,-135.47 1334.33,-130.1 1323.84,-128.61 1325.2,-135.47"/>
</g>
<!-- Node31 -->
<g id="node31" class="node">
<title>Node31</title>
<g id="a_node31"><a xlink:title=" ">
<polygon fill="white" stroke="#bfbfbf" points="1400,-112.5 1400,-131.5 1468,-131.5 1468,-112.5 1400,-112.5"/>
<text text-anchor="middle" x="1434" y="-119.5" font-family="Helvetica,sans-Serif" font-size="10.00">sys/types.h</text>
</a>
</g>
</g>
<!-- Node1&#45;&gt;Node31 -->
<g id="edge35" class="edge">
<title>Node1&#45;&gt;Node31</title>
<path fill="none" stroke="midnightblue" d="M1000.05,-173.66C1079.72,-167.88 1242.35,-154.54 1389.66,-132.06"/>
<polygon fill="midnightblue" stroke="midnightblue" points="1390.44,-135.48 1399.79,-130.5 1389.37,-128.56 1390.44,-135.48"/>
</g>
<!-- Node32 -->
<g id="node32" class="node">
<title>Node32</title>
<g id="a_node32"><a xlink:title=" ">
<polygon fill="white" stroke="#bfbfbf" points="1486,-112.5 1486,-131.5 1556,-131.5 1556,-112.5 1486,-112.5"/>
<text text-anchor="middle" x="1521" y="-119.5" font-family="Helvetica,sans-Serif" font-size="10.00">sys/sysctl.h</text>
</a>
</g>
</g>
<!-- Node1&#45;&gt;Node32 -->
<g id="edge36" class="edge">
<title>Node1&#45;&gt;Node32</title>
<path fill="none" stroke="midnightblue" d="M1000.17,-174.71C1091.81,-170.02 1295.09,-157.66 1475.58,-132.05"/>
<polygon fill="midnightblue" stroke="midnightblue" points="1476.12,-135.51 1485.52,-130.63 1475.12,-128.58 1476.12,-135.51"/>
</g>
<!-- Node33 -->
<g id="node33" class="node">
<title>Node33</title>
<g id="a_node33"><a xlink:title=" ">
<polygon fill="white" stroke="#bfbfbf" points="1574.5,-112.5 1574.5,-131.5 1655.5,-131.5 1655.5,-112.5 1574.5,-112.5"/>
<text text-anchor="middle" x="1615" y="-119.5" font-family="Helvetica,sans-Serif" font-size="10.00">sys/resource.h</text>
</a>
</g>
</g>
<!-- Node1&#45;&gt;Node33 -->
<g id="edge37" class="edge">
<title>Node1&#45;&gt;Node33</title>
<path fill="none" stroke="midnightblue" d="M1000.12,-175.15C1102.9,-170.91 1348.26,-158.79 1564.45,-131.93"/>
<polygon fill="midnightblue" stroke="midnightblue" points="1564.91,-135.4 1574.4,-130.68 1564.04,-128.45 1564.91,-135.4"/>
</g>
<!-- Node34 -->
<g id="node34" class="node">
<title>Node34</title>
<g id="a_node34"><a xlink:title=" ">
<polygon fill="white" stroke="#bfbfbf" points="1673.5,-112.5 1673.5,-131.5 1720.5,-131.5 1720.5,-112.5 1673.5,-112.5"/>
<text text-anchor="middle" x="1697" y="-119.5" font-family="Helvetica,sans-Serif" font-size="10.00">libutil.h</text>
</a>
</g>
</g>
<!-- Node1&#45;&gt;Node34 -->
<g id="edge38" class="edge">
<title>Node1&#45;&gt;Node34</title>
<path fill="none" stroke="midnightblue" d="M1000.32,-177.46C1115.31,-177.76 1410.06,-174.13 1663.24,-131.96"/>
<polygon fill="midnightblue" stroke="midnightblue" points="1664.08,-135.37 1673.36,-130.25 1662.92,-128.46 1664.08,-135.37"/>
</g>
<!-- Node35 -->
<g id="node35" class="node">
<title>Node35</title>
<g id="a_node35"><a xlink:title=" ">
<polygon fill="white" stroke="#bfbfbf" points="1739,-112.5 1739,-131.5 1785,-131.5 1785,-112.5 1739,-112.5"/>
<text text-anchor="middle" x="1762" y="-119.5" font-family="Helvetica,sans-Serif" font-size="10.00">dlfcn.h</text>
</a>
</g>
</g>
<!-- Node1&#45;&gt;Node35 -->
<g id="edge39" class="edge">
<title>Node1&#45;&gt;Node35</title>
<path fill="none" stroke="midnightblue" d="M1000.1,-175.55C1144.95,-171.08 1569.75,-156.34 1728.64,-131.81"/>
<polygon fill="midnightblue" stroke="midnightblue" points="1729.4,-135.23 1738.71,-130.18 1728.28,-128.32 1729.4,-135.23"/>
</g>
<!-- Node36 -->
<g id="node36" class="node">
<title>Node36</title>
<g id="a_node36"><a xlink:title=" ">
<polygon fill="white" stroke="#bfbfbf" points="1803.5,-112.5 1803.5,-131.5 1854.5,-131.5 1854.5,-112.5 1803.5,-112.5"/>
<text text-anchor="middle" x="1829" y="-119.5" font-family="Helvetica,sans-Serif" font-size="10.00">unistd.h</text>
</a>
</g>
</g>
<!-- Node1&#45;&gt;Node36 -->
<g id="edge40" class="edge">
<title>Node1&#45;&gt;Node36</title>
<path fill="none" stroke="midnightblue" d="M1000.2,-175.66C1153.27,-171.28 1620.62,-156.37 1793.17,-131.75"/>
<polygon fill="midnightblue" stroke="midnightblue" points="1793.75,-135.2 1803.13,-130.26 1792.72,-128.27 1793.75,-135.2"/>
</g>
<!-- Node3 -->
<g id="node3" class="node">
<title>Node3</title>
<g id="a_node3"><a xlink:title=" ">
<polygon fill="white" stroke="#bfbfbf" points="0,-0.5 0,-19.5 62,-19.5 62,-0.5 0,-0.5"/>
<text text-anchor="middle" x="31" y="-7.5" font-family="Helvetica,sans-Serif" font-size="10.00">type_traits</text>
</a>
</g>
</g>
<!-- Node2&#45;&gt;Node3 -->
<g id="edge2" class="edge">
<title>Node2&#45;&gt;Node3</title>
<path fill="none" stroke="midnightblue" d="M121.65,-56.32C104.33,-47.66 77.48,-34.24 57.5,-24.25"/>
<polygon fill="midnightblue" stroke="midnightblue" points="58.82,-21 48.31,-19.65 55.69,-27.26 58.82,-21"/>
</g>
<!-- Node4 -->
<g id="node4" class="node">
<title>Node4</title>
<g id="a_node4"><a xlink:title=" ">
<polygon fill="white" stroke="#bfbfbf" points="80,-0.5 80,-19.5 136,-19.5 136,-0.5 80,-0.5"/>
<text text-anchor="middle" x="108" y="-7.5" font-family="Helvetica,sans-Serif" font-size="10.00">charconv</text>
</a>
</g>
</g>
<!-- Node2&#45;&gt;Node4 -->
<g id="edge3" class="edge">
<title>Node2&#45;&gt;Node4</title>
<path fill="none" stroke="midnightblue" d="M133.88,-56.08C129.59,-48.61 123.34,-37.72 118.06,-28.52"/>
<polygon fill="midnightblue" stroke="midnightblue" points="121.04,-26.68 113.02,-19.75 114.97,-30.17 121.04,-26.68"/>
</g>
<!-- Node5 -->
<g id="node5" class="node">
<title>Node5</title>
<g id="a_node5"><a xlink:title=" ">
<polygon fill="white" stroke="#bfbfbf" points="154,-0.5 154,-19.5 200,-19.5 200,-0.5 154,-0.5"/>
<text text-anchor="middle" x="177" y="-7.5" font-family="Helvetica,sans-Serif" font-size="10.00">cctype</text>
</a>
</g>
</g>
<!-- Node2&#45;&gt;Node5 -->
<g id="edge4" class="edge">
<title>Node2&#45;&gt;Node5</title>
<path fill="none" stroke="midnightblue" d="M145.27,-56.08C150.64,-48.46 158.52,-37.26 165.08,-27.94"/>
<polygon fill="midnightblue" stroke="midnightblue" points="167.95,-29.94 170.84,-19.75 162.22,-25.91 167.95,-29.94"/>
</g>
<!-- Node2&#45;&gt;Node6 -->
<g id="edge5" class="edge">
<title>Node2&#45;&gt;Node6</title>
<path fill="none" stroke="midnightblue" d="M155.07,-56.32C170.96,-47.74 195.51,-34.49 213.96,-24.52"/>
<polygon fill="midnightblue" stroke="midnightblue" points="215.84,-27.49 222.97,-19.65 212.51,-21.33 215.84,-27.49"/>
</g>
<!-- Node7 -->
<g id="node7" class="node">
<title>Node7</title>
<g id="a_node7"><a xlink:title=" ">
<polygon fill="white" stroke="#bfbfbf" points="277.5,-0.5 277.5,-19.5 320.5,-19.5 320.5,-0.5 277.5,-0.5"/>
<text text-anchor="middle" x="299" y="-7.5" font-family="Helvetica,sans-Serif" font-size="10.00">cstdio</text>
</a>
</g>
</g>
<!-- Node2&#45;&gt;Node7 -->
<g id="edge6" class="edge">
<title>Node2&#45;&gt;Node7</title>
<path fill="none" stroke="midnightblue" d="M164.35,-56.44C192.38,-46.99 237.54,-31.74 267.74,-21.55"/>
<polygon fill="midnightblue" stroke="midnightblue" points="269,-24.82 277.36,-18.3 266.76,-18.19 269,-24.82"/>
</g>
<!-- Node9 -->
<g id="node9" class="node">
<title>Node9</title>
<g id="a_node9"><a xlink:href="types_8hpp.html" target="_top" xlink:title="A collection of type aliases.">
<polygon fill="white" stroke="black" points="423.5,-56.5 423.5,-75.5 482.5,-75.5 482.5,-56.5 423.5,-56.5"/>
<text text-anchor="middle" x="453" y="-63.5" font-family="Helvetica,sans-Serif" font-size="10.00">types.hpp</text>
</a>
</g>
</g>
<!-- Node8&#45;&gt;Node9 -->
<g id="edge8" class="edge">
<title>Node8&#45;&gt;Node9</title>
<path fill="none" stroke="midnightblue" d="M460.51,-112.08C459.32,-104.93 457.61,-94.64 456.12,-85.69"/>
<polygon fill="midnightblue" stroke="midnightblue" points="459.55,-85.04 454.46,-75.75 452.65,-86.19 459.55,-85.04"/>
</g>
<!-- Node9&#45;&gt;Node10 -->
<g id="edge9" class="edge">
<title>Node9&#45;&gt;Node10</title>
<path fill="none" stroke="midnightblue" d="M448.21,-56.08C444.24,-48.69 438.47,-37.95 433.57,-28.81"/>
<polygon fill="midnightblue" stroke="midnightblue" points="436.51,-26.91 428.7,-19.75 430.35,-30.22 436.51,-26.91"/>
</g>
<!-- Node11&#45;&gt;Node2 -->
<g id="edge11" class="edge">
<title>Node11&#45;&gt;Node2</title>
<path fill="none" stroke="midnightblue" d="M190.2,-112.32C181.18,-104.34 167.59,-92.31 156.68,-82.65"/>
<polygon fill="midnightblue" stroke="midnightblue" points="158.79,-79.84 148.98,-75.83 154.15,-85.08 158.79,-79.84"/>
</g>
<!-- Node12 -->
<g id="node12" class="node">
<title>Node12</title>
<g id="a_node12"><a xlink:title=" ">
<polygon fill="white" stroke="#bfbfbf" points="187,-56.5 187,-75.5 233,-75.5 233,-56.5 187,-56.5"/>
<text text-anchor="middle" x="210" y="-63.5" font-family="Helvetica,sans-Serif" font-size="10.00">cstdint</text>
</a>
</g>
</g>
<!-- Node11&#45;&gt;Node12 -->
<g id="edge12" class="edge">
<title>Node11&#45;&gt;Node12</title>
<path fill="none" stroke="midnightblue" d="M201.65,-112.08C202.98,-104.93 204.88,-94.64 206.54,-85.69"/>
<polygon fill="midnightblue" stroke="midnightblue" points="210,-86.22 208.38,-75.75 203.12,-84.95 210,-86.22"/>
</g>
<!-- Node14 -->
<g id="node14" class="node">
<title>Node14</title>
<g id="a_node14"><a xlink:href="error_8hpp.html" target="_top" xlink:title="Provides system call error handling.">
<polygon fill="white" stroke="black" points="500.5,-56.5 500.5,-75.5 555.5,-75.5 555.5,-56.5 500.5,-56.5"/>
<text text-anchor="middle" x="528" y="-63.5" font-family="Helvetica,sans-Serif" font-size="10.00">error.hpp</text>
</a>
</g>
</g>
<!-- Node13&#45;&gt;Node14 -->
<g id="edge14" class="edge">
<title>Node13&#45;&gt;Node14</title>
<path fill="none" stroke="midnightblue" d="M549.71,-112.08C546.15,-104.69 540.98,-93.95 536.58,-84.81"/>
<polygon fill="midnightblue" stroke="midnightblue" points="539.71,-83.24 532.21,-75.75 533.4,-86.28 539.71,-83.24"/>
</g>
<!-- Node17 -->
<g id="node17" class="node">
<title>Node17</title>
<g id="a_node17"><a xlink:title=" ">
<polygon fill="white" stroke="#bfbfbf" points="573.5,-56.5 573.5,-75.5 618.5,-75.5 618.5,-56.5 573.5,-56.5"/>
<text text-anchor="middle" x="596" y="-63.5" font-family="Helvetica,sans-Serif" font-size="10.00">cstdlib</text>
</a>
</g>
</g>
<!-- Node13&#45;&gt;Node17 -->
<g id="edge17" class="edge">
<title>Node13&#45;&gt;Node17</title>
<path fill="none" stroke="midnightblue" d="M560.94,-112.08C566.93,-104.38 575.75,-93.03 583.05,-83.65"/>
<polygon fill="midnightblue" stroke="midnightblue" points="585.82,-85.79 589.19,-75.75 580.29,-81.5 585.82,-85.79"/>
</g>
<!-- Node15 -->
<g id="node15" class="node">
<title>Node15</title>
<g id="a_node15"><a xlink:title=" ">
<polygon fill="white" stroke="#bfbfbf" points="506,-0.5 506,-19.5 550,-19.5 550,-0.5 506,-0.5"/>
<text text-anchor="middle" x="528" y="-7.5" font-family="Helvetica,sans-Serif" font-size="10.00">cerrno</text>
</a>
</g>
</g>
<!-- Node14&#45;&gt;Node15 -->
<g id="edge15" class="edge">
<title>Node14&#45;&gt;Node15</title>
<path fill="none" stroke="midnightblue" d="M528,-56.08C528,-49.01 528,-38.86 528,-29.99"/>
<polygon fill="midnightblue" stroke="midnightblue" points="531.5,-29.75 528,-19.75 524.5,-29.75 531.5,-29.75"/>
</g>
<!-- Node14&#45;&gt;Node16 -->
<g id="edge16" class="edge">
<title>Node14&#45;&gt;Node16</title>
<path fill="none" stroke="midnightblue" d="M542.62,-56.32C556.95,-47.82 579.01,-34.73 595.75,-24.8"/>
<polygon fill="midnightblue" stroke="midnightblue" points="597.6,-27.77 604.42,-19.65 594.03,-21.75 597.6,-27.77"/>
</g>
<!-- Node18&#45;&gt;Node7 -->
<g id="edge19" class="edge">
<title>Node18&#45;&gt;Node7</title>
<path fill="none" stroke="midnightblue" d="M332.3,-112.47C328.48,-103.48 322.45,-88.88 318,-76 312.66,-60.55 307.52,-42.7 303.93,-29.62"/>
<polygon fill="midnightblue" stroke="midnightblue" points="307.3,-28.66 301.31,-19.92 300.54,-30.48 307.3,-28.66"/>
</g>
<!-- Node19 -->
<g id="node19" class="node">
<title>Node19</title>
<g id="a_node19"><a xlink:title=" ">
<polygon fill="white" stroke="#bfbfbf" points="327,-56.5 327,-75.5 367,-75.5 367,-56.5 327,-56.5"/>
<text text-anchor="middle" x="347" y="-63.5" font-family="Helvetica,sans-Serif" font-size="10.00">utility</text>
</a>
</g>
</g>
<!-- Node18&#45;&gt;Node19 -->
<g id="edge20" class="edge">
<title>Node18&#45;&gt;Node19</title>
<path fill="none" stroke="midnightblue" d="M337.82,-112.08C339.27,-104.93 341.37,-94.64 343.19,-85.69"/>
<polygon fill="midnightblue" stroke="midnightblue" points="346.65,-86.25 345.22,-75.75 339.79,-84.85 346.65,-86.25"/>
</g>
</g>
</svg>
