<?xml version="1.0" encoding="UTF-8" standalone="no"?>
<!DOCTYPE svg PUBLIC "-//W3C//DTD SVG 1.1//EN"
 "http://www.w3.org/Graphics/SVG/1.1/DTD/svg11.dtd">
<!-- Generated by graphviz version 2.42.2 ()
 -->
<!-- Title: src/libloadplay.cpp Pages: 1 -->
<svg width="1776pt" height="196pt"
 viewBox="0.00 0.00 1775.66 196.00" xmlns="http://www.w3.org/2000/svg" xmlns:xlink="http://www.w3.org/1999/xlink">
<g id="graph0" class="graph" transform="scale(1 1) rotate(0) translate(4 192)">
<title>src/libloadplay.cpp</title>
<polygon fill="white" stroke="transparent" points="-4,4 -4,-192 1771.66,-192 1771.66,4 -4,4"/>
<!-- Node1 -->
<g id="node1" class="node">
<title>Node1</title>
<g id="a_node1"><a xlink:title=" ">
<polygon fill="#bfbfbf" stroke="black" points="782.66,-168.5 782.66,-187.5 879.66,-187.5 879.66,-168.5 782.66,-168.5"/>
<text text-anchor="middle" x="831.16" y="-175.5" font-family="Helvetica" font-size="10.00">src/libloadplay.cpp</text>
</a>
</g>
</g>
<!-- Node2 -->
<g id="node2" class="node">
<title>Node2</title>
<g id="a_node2"><a xlink:href="utility_8hpp.html" target="_top" xlink:title=" ">
<polygon fill="white" stroke="black" points="157.16,-56.5 157.16,-75.5 215.16,-75.5 215.16,-56.5 157.16,-56.5"/>
<text text-anchor="middle" x="186.16" y="-63.5" font-family="Helvetica" font-size="10.00">utility.hpp</text>
</a>
</g>
</g>
<!-- Node1&#45;&gt;Node2 -->
<g id="edge1" class="edge">
<title>Node1&#45;&gt;Node2</title>
<path fill="none" stroke="midnightblue" d="M782.41,-176.36C644.56,-174.13 258.91,-165 213.16,-132 198.47,-121.4 191.74,-101.29 188.68,-86.23"/>
<polygon fill="midnightblue" stroke="midnightblue" points="192.06,-85.24 186.98,-75.94 185.15,-86.38 192.06,-85.24"/>
</g>
<!-- Node4 -->
<g id="node4" class="node">
<title>Node4</title>
<g id="a_node4"><a xlink:title=" ">
<polygon fill="white" stroke="#bfbfbf" points="108.66,-0.5 108.66,-19.5 149.66,-19.5 149.66,-0.5 108.66,-0.5"/>
<text text-anchor="middle" x="129.16" y="-7.5" font-family="Helvetica" font-size="10.00">string</text>
</a>
</g>
</g>
<!-- Node1&#45;&gt;Node4 -->
<g id="edge20" class="edge">
<title>Node1&#45;&gt;Node4</title>
<path fill="none" stroke="midnightblue" d="M782.36,-175.76C642.33,-171.91 245.93,-158.75 194.16,-132 155.26,-111.9 138.72,-58.38 132.48,-29.73"/>
<polygon fill="midnightblue" stroke="midnightblue" points="135.88,-28.9 130.51,-19.77 129.02,-30.25 135.88,-28.9"/>
</g>
<!-- Node6 -->
<g id="node6" class="node">
<title>Node6</title>
<g id="a_node6"><a xlink:href="constants_8hpp.html" target="_top" xlink:title=" ">
<polygon fill="white" stroke="black" points="23.16,-112.5 23.16,-131.5 101.16,-131.5 101.16,-112.5 23.16,-112.5"/>
<text text-anchor="middle" x="62.16" y="-119.5" font-family="Helvetica" font-size="10.00">constants.hpp</text>
</a>
</g>
</g>
<!-- Node1&#45;&gt;Node6 -->
<g id="edge5" class="edge">
<title>Node1&#45;&gt;Node6</title>
<path fill="none" stroke="midnightblue" d="M782.38,-175.71C666.39,-172.25 365.08,-160.99 115.16,-132 113.88,-131.85 112.59,-131.69 111.28,-131.53"/>
<polygon fill="midnightblue" stroke="midnightblue" points="111.56,-128.03 101.17,-130.1 110.58,-134.96 111.56,-128.03"/>
</g>
<!-- Node8 -->
<g id="node8" class="node">
<title>Node8</title>
<g id="a_node8"><a xlink:title=" ">
<polygon fill="white" stroke="#bfbfbf" points="4.16,-0.5 4.16,-19.5 50.16,-19.5 50.16,-0.5 4.16,-0.5"/>
<text text-anchor="middle" x="27.16" y="-7.5" font-family="Helvetica" font-size="10.00">chrono</text>
</a>
</g>
</g>
<!-- Node1&#45;&gt;Node8 -->
<g id="edge27" class="edge">
<title>Node1&#45;&gt;Node8</title>
<path fill="none" stroke="midnightblue" d="M782.49,-176.14C610.57,-172.89 40.68,-160.02 14.16,-132 -12.12,-104.23 5.25,-55.25 17.69,-28.93"/>
<polygon fill="midnightblue" stroke="midnightblue" points="20.94,-30.26 22.27,-19.75 14.68,-27.13 20.94,-30.26"/>
</g>
<!-- Node9 -->
<g id="node9" class="node">
<title>Node9</title>
<g id="a_node9"><a xlink:href="version_8hpp.html" target="_top" xlink:title=" ">
<polygon fill="white" stroke="black" points="222.66,-112.5 222.66,-131.5 289.66,-131.5 289.66,-112.5 222.66,-112.5"/>
<text text-anchor="middle" x="256.16" y="-119.5" font-family="Helvetica" font-size="10.00">version.hpp</text>
</a>
</g>
</g>
<!-- Node1&#45;&gt;Node9 -->
<g id="edge8" class="edge">
<title>Node1&#45;&gt;Node9</title>
<path fill="none" stroke="midnightblue" d="M782.42,-173.75C690.88,-167.42 487.06,-152.26 316.16,-132 310.93,-131.38 305.46,-130.66 300.04,-129.9"/>
<polygon fill="midnightblue" stroke="midnightblue" points="300.15,-126.38 289.75,-128.41 299.14,-133.31 300.15,-126.38"/>
</g>
<!-- Node11 -->
<g id="node11" class="node">
<title>Node11</title>
<g id="a_node11"><a xlink:href="env_8hpp.html" target="_top" xlink:title=" ">
<polygon fill="white" stroke="black" points="362.66,-112.5 362.66,-131.5 431.66,-131.5 431.66,-112.5 362.66,-112.5"/>
<text text-anchor="middle" x="397.16" y="-119.5" font-family="Helvetica" font-size="10.00">sys/env.hpp</text>
</a>
</g>
</g>
<!-- Node1&#45;&gt;Node11 -->
<g id="edge11" class="edge">
<title>Node1&#45;&gt;Node11</title>
<path fill="none" stroke="midnightblue" d="M782.4,-172.33C709.2,-165.09 566.61,-150.08 446.16,-132 444.86,-131.8 443.54,-131.6 442.21,-131.39"/>
<polygon fill="midnightblue" stroke="midnightblue" points="442.35,-127.87 431.91,-129.67 441.2,-134.77 442.35,-127.87"/>
</g>
<!-- Node14 -->
<g id="node14" class="node">
<title>Node14</title>
<g id="a_node14"><a xlink:title=" ">
<polygon fill="white" stroke="#bfbfbf" points="500.16,-0.5 500.16,-19.5 546.16,-19.5 546.16,-0.5 500.16,-0.5"/>
<text text-anchor="middle" x="523.16" y="-7.5" font-family="Helvetica" font-size="10.00">cstring</text>
</a>
</g>
</g>
<!-- Node1&#45;&gt;Node14 -->
<g id="edge30" class="edge">
<title>Node1&#45;&gt;Node14</title>
<path fill="none" stroke="midnightblue" d="M782.48,-174.27C690.77,-168.64 499.82,-154.34 480.16,-132 462.82,-112.29 503.57,-77.26 504.16,-76 511.14,-61.01 516.19,-42.88 519.32,-29.58"/>
<polygon fill="midnightblue" stroke="midnightblue" points="522.76,-30.23 521.49,-19.71 515.92,-28.72 522.76,-30.23"/>
</g>
<!-- Node16 -->
<g id="node16" class="node">
<title>Node16</title>
<g id="a_node16"><a xlink:href="io_8hpp.html" target="_top" xlink:title=" ">
<polygon fill="white" stroke="black" points="297.16,-56.5 297.16,-75.5 359.16,-75.5 359.16,-56.5 297.16,-56.5"/>
<text text-anchor="middle" x="328.16" y="-63.5" font-family="Helvetica" font-size="10.00">sys/io.hpp</text>
</a>
</g>
</g>
<!-- Node1&#45;&gt;Node16 -->
<g id="edge16" class="edge">
<title>Node1&#45;&gt;Node16</title>
<path fill="none" stroke="midnightblue" d="M782.51,-175.3C667.68,-170.88 386.87,-157.56 353.16,-132 338.88,-121.17 332.75,-101.09 330.13,-86.11"/>
<polygon fill="midnightblue" stroke="midnightblue" points="333.55,-85.31 328.72,-75.87 326.62,-86.26 333.55,-85.31"/>
</g>
<!-- Node17 -->
<g id="node17" class="node">
<title>Node17</title>
<g id="a_node17"><a xlink:title=" ">
<polygon fill="white" stroke="#bfbfbf" points="488.66,-112.5 488.66,-131.5 571.66,-131.5 571.66,-112.5 488.66,-112.5"/>
<text text-anchor="middle" x="530.16" y="-119.5" font-family="Helvetica" font-size="10.00">unordered_map</text>
</a>
</g>
</g>
<!-- Node1&#45;&gt;Node17 -->
<g id="edge18" class="edge">
<title>Node1&#45;&gt;Node17</title>
<path fill="none" stroke="midnightblue" d="M783.46,-168.44C728.53,-158.59 638.6,-142.45 581.98,-132.3"/>
<polygon fill="midnightblue" stroke="midnightblue" points="582.27,-128.79 571.81,-130.47 581.04,-135.68 582.27,-128.79"/>
</g>
<!-- Node18 -->
<g id="node18" class="node">
<title>Node18</title>
<g id="a_node18"><a xlink:title=" ">
<polygon fill="white" stroke="#bfbfbf" points="589.66,-112.5 589.66,-131.5 624.66,-131.5 624.66,-112.5 589.66,-112.5"/>
<text text-anchor="middle" x="607.16" y="-119.5" font-family="Helvetica" font-size="10.00">map</text>
</a>
</g>
</g>
<!-- Node1&#45;&gt;Node18 -->
<g id="edge19" class="edge">
<title>Node1&#45;&gt;Node18</title>
<path fill="none" stroke="midnightblue" d="M788.2,-168.44C750.2,-160.6 693.11,-148.12 634.58,-131.9"/>
<polygon fill="midnightblue" stroke="midnightblue" points="635.37,-128.48 624.8,-129.15 633.48,-135.22 635.37,-128.48"/>
</g>
<!-- Node19 -->
<g id="node19" class="node">
<title>Node19</title>
<g id="a_node19"><a xlink:title=" ">
<polygon fill="white" stroke="#bfbfbf" points="642.66,-112.5 642.66,-131.5 683.66,-131.5 683.66,-112.5 642.66,-112.5"/>
<text text-anchor="middle" x="663.16" y="-119.5" font-family="Helvetica" font-size="10.00">regex</text>
</a>
</g>
</g>
<!-- Node1&#45;&gt;Node19 -->
<g id="edge21" class="edge">
<title>Node1&#45;&gt;Node19</title>
<path fill="none" stroke="midnightblue" d="M804.54,-168.44C774.32,-158.73 725.11,-142.91 693.45,-132.74"/>
<polygon fill="midnightblue" stroke="midnightblue" points="694.42,-129.37 683.83,-129.64 692.28,-136.04 694.42,-129.37"/>
</g>
<!-- Node20 -->
<g id="node20" class="node">
<title>Node20</title>
<g id="a_node20"><a xlink:title=" ">
<polygon fill="white" stroke="#bfbfbf" points="702.16,-112.5 702.16,-131.5 754.16,-131.5 754.16,-112.5 702.16,-112.5"/>
<text text-anchor="middle" x="728.16" y="-119.5" font-family="Helvetica" font-size="10.00">sstream</text>
</a>
</g>
</g>
<!-- Node1&#45;&gt;Node20 -->
<g id="edge22" class="edge">
<title>Node1&#45;&gt;Node20</title>
<path fill="none" stroke="midnightblue" d="M814.61,-168.32C798.17,-159.7 772.72,-146.36 753.69,-136.39"/>
<polygon fill="midnightblue" stroke="midnightblue" points="755.15,-133.2 744.67,-131.65 751.9,-139.4 755.15,-133.2"/>
</g>
<!-- Node21 -->
<g id="node21" class="node">
<title>Node21</title>
<g id="a_node21"><a xlink:title=" ">
<polygon fill="white" stroke="#bfbfbf" points="772.16,-112.5 772.16,-131.5 824.16,-131.5 824.16,-112.5 772.16,-112.5"/>
<text text-anchor="middle" x="798.16" y="-119.5" font-family="Helvetica" font-size="10.00">memory</text>
</a>
</g>
</g>
<!-- Node1&#45;&gt;Node21 -->
<g id="edge23" class="edge">
<title>Node1&#45;&gt;Node21</title>
<path fill="none" stroke="midnightblue" d="M825.71,-168.08C821.14,-160.61 814.49,-149.72 808.87,-140.52"/>
<polygon fill="midnightblue" stroke="midnightblue" points="811.71,-138.46 803.51,-131.75 805.73,-142.11 811.71,-138.46"/>
</g>
<!-- Node22 -->
<g id="node22" class="node">
<title>Node22</title>
<g id="a_node22"><a xlink:title=" ">
<polygon fill="white" stroke="#bfbfbf" points="842.16,-112.5 842.16,-131.5 886.16,-131.5 886.16,-112.5 842.16,-112.5"/>
<text text-anchor="middle" x="864.16" y="-119.5" font-family="Helvetica" font-size="10.00">thread</text>
</a>
</g>
</g>
<!-- Node1&#45;&gt;Node22 -->
<g id="edge24" class="edge">
<title>Node1&#45;&gt;Node22</title>
<path fill="none" stroke="midnightblue" d="M836.61,-168.08C841.17,-160.61 847.83,-149.72 853.45,-140.52"/>
<polygon fill="midnightblue" stroke="midnightblue" points="856.58,-142.11 858.81,-131.75 850.61,-138.46 856.58,-142.11"/>
</g>
<!-- Node23 -->
<g id="node23" class="node">
<title>Node23</title>
<g id="a_node23"><a xlink:title=" ">
<polygon fill="white" stroke="#bfbfbf" points="904.66,-112.5 904.66,-131.5 963.66,-131.5 963.66,-112.5 904.66,-112.5"/>
<text text-anchor="middle" x="934.16" y="-119.5" font-family="Helvetica" font-size="10.00">exception</text>
</a>
</g>
</g>
<!-- Node1&#45;&gt;Node23 -->
<g id="edge25" class="edge">
<title>Node1&#45;&gt;Node23</title>
<path fill="none" stroke="midnightblue" d="M847.71,-168.32C864.15,-159.7 889.59,-146.36 908.63,-136.39"/>
<polygon fill="midnightblue" stroke="midnightblue" points="910.42,-139.4 917.65,-131.65 907.17,-133.2 910.42,-139.4"/>
</g>
<!-- Node24 -->
<g id="node24" class="node">
<title>Node24</title>
<g id="a_node24"><a xlink:title=" ">
<polygon fill="white" stroke="#bfbfbf" points="982.16,-112.5 982.16,-131.5 1026.16,-131.5 1026.16,-112.5 982.16,-112.5"/>
<text text-anchor="middle" x="1004.16" y="-119.5" font-family="Helvetica" font-size="10.00">mutex</text>
</a>
</g>
</g>
<!-- Node1&#45;&gt;Node24 -->
<g id="edge26" class="edge">
<title>Node1&#45;&gt;Node24</title>
<path fill="none" stroke="midnightblue" d="M858.57,-168.44C889.43,-158.81 939.52,-143.18 972.15,-132.99"/>
<polygon fill="midnightblue" stroke="midnightblue" points="973.59,-136.21 982.09,-129.89 971.5,-129.53 973.59,-136.21"/>
</g>
<!-- Node25 -->
<g id="node25" class="node">
<title>Node25</title>
<g id="a_node25"><a xlink:title=" ">
<polygon fill="white" stroke="#bfbfbf" points="1044.16,-112.5 1044.16,-131.5 1088.16,-131.5 1088.16,-112.5 1044.16,-112.5"/>
<text text-anchor="middle" x="1066.16" y="-119.5" font-family="Helvetica" font-size="10.00">vector</text>
</a>
</g>
</g>
<!-- Node1&#45;&gt;Node25 -->
<g id="edge28" class="edge">
<title>Node1&#45;&gt;Node25</title>
<path fill="none" stroke="midnightblue" d="M873.55,-168.49C912.84,-160.42 973.12,-147.56 1034.07,-132.16"/>
<polygon fill="midnightblue" stroke="midnightblue" points="1035.03,-135.53 1043.86,-129.66 1033.3,-128.74 1035.03,-135.53"/>
</g>
<!-- Node26 -->
<g id="node26" class="node">
<title>Node26</title>
<g id="a_node26"><a xlink:title=" ">
<polygon fill="white" stroke="#bfbfbf" points="1106.16,-112.5 1106.16,-131.5 1162.16,-131.5 1162.16,-112.5 1106.16,-112.5"/>
<text text-anchor="middle" x="1134.16" y="-119.5" font-family="Helvetica" font-size="10.00">algorithm</text>
</a>
</g>
</g>
<!-- Node1&#45;&gt;Node26 -->
<g id="edge29" class="edge">
<title>Node1&#45;&gt;Node26</title>
<path fill="none" stroke="midnightblue" d="M879.89,-169.82C931.29,-162.01 1014.85,-148.64 1096.04,-132.12"/>
<polygon fill="midnightblue" stroke="midnightblue" points="1096.83,-135.53 1105.92,-130.09 1095.42,-128.67 1096.83,-135.53"/>
</g>
<!-- Node27 -->
<g id="node27" class="node">
<title>Node27</title>
<g id="a_node27"><a xlink:title=" ">
<polygon fill="white" stroke="#bfbfbf" points="1180.66,-112.5 1180.66,-131.5 1229.66,-131.5 1229.66,-112.5 1180.66,-112.5"/>
<text text-anchor="middle" x="1205.16" y="-119.5" font-family="Helvetica" font-size="10.00">cassert</text>
</a>
</g>
</g>
<!-- Node1&#45;&gt;Node27 -->
<g id="edge31" class="edge">
<title>Node1&#45;&gt;Node27</title>
<path fill="none" stroke="midnightblue" d="M879.9,-172.52C944.26,-166.16 1061.24,-153.12 1170.49,-131.9"/>
<polygon fill="midnightblue" stroke="midnightblue" points="1171.23,-135.32 1180.36,-129.95 1169.87,-128.45 1171.23,-135.32"/>
</g>
<!-- Node28 -->
<g id="node28" class="node">
<title>Node28</title>
<g id="a_node28"><a xlink:title=" ">
<polygon fill="white" stroke="#bfbfbf" points="1247.66,-112.5 1247.66,-131.5 1294.66,-131.5 1294.66,-112.5 1247.66,-112.5"/>
<text text-anchor="middle" x="1271.16" y="-119.5" font-family="Helvetica" font-size="10.00">csignal</text>
</a>
</g>
</g>
<!-- Node1&#45;&gt;Node28 -->
<g id="edge32" class="edge">
<title>Node1&#45;&gt;Node28</title>
<path fill="none" stroke="midnightblue" d="M879.91,-174.22C954.94,-169.38 1103.32,-157.55 1237.46,-132.06"/>
<polygon fill="midnightblue" stroke="midnightblue" points="1238.34,-135.46 1247.5,-130.12 1237.01,-128.58 1238.34,-135.46"/>
</g>
<!-- Node29 -->
<g id="node29" class="node">
<title>Node29</title>
<g id="a_node29"><a xlink:title=" ">
<polygon fill="white" stroke="#bfbfbf" points="1313.16,-112.5 1313.16,-131.5 1381.16,-131.5 1381.16,-112.5 1313.16,-112.5"/>
<text text-anchor="middle" x="1347.16" y="-119.5" font-family="Helvetica" font-size="10.00">sys/types.h</text>
</a>
</g>
</g>
<!-- Node1&#45;&gt;Node29 -->
<g id="edge33" class="edge">
<title>Node1&#45;&gt;Node29</title>
<path fill="none" stroke="midnightblue" d="M879.72,-174.17C963.9,-168.88 1142.5,-155.93 1302.9,-132.03"/>
<polygon fill="midnightblue" stroke="midnightblue" points="1303.59,-135.47 1312.95,-130.52 1302.54,-128.55 1303.59,-135.47"/>
</g>
<!-- Node30 -->
<g id="node30" class="node">
<title>Node30</title>
<g id="a_node30"><a xlink:title=" ">
<polygon fill="white" stroke="#bfbfbf" points="1399.16,-112.5 1399.16,-131.5 1469.16,-131.5 1469.16,-112.5 1399.16,-112.5"/>
<text text-anchor="middle" x="1434.16" y="-119.5" font-family="Helvetica" font-size="10.00">sys/sysctl.h</text>
</a>
</g>
</g>
<!-- Node1&#45;&gt;Node30 -->
<g id="edge34" class="edge">
<title>Node1&#45;&gt;Node30</title>
<path fill="none" stroke="midnightblue" d="M879.98,-175.07C975.73,-170.84 1195.01,-159.03 1388.61,-132.06"/>
<polygon fill="midnightblue" stroke="midnightblue" points="1389.27,-135.5 1398.68,-130.64 1388.29,-128.57 1389.27,-135.5"/>
</g>
<!-- Node31 -->
<g id="node31" class="node">
<title>Node31</title>
<g id="a_node31"><a xlink:title=" ">
<polygon fill="white" stroke="#bfbfbf" points="1487.66,-112.5 1487.66,-131.5 1568.66,-131.5 1568.66,-112.5 1487.66,-112.5"/>
<text text-anchor="middle" x="1528.16" y="-119.5" font-family="Helvetica" font-size="10.00">sys/resource.h</text>
</a>
</g>
</g>
<!-- Node1&#45;&gt;Node31 -->
<g id="edge35" class="edge">
<title>Node1&#45;&gt;Node31</title>
<path fill="none" stroke="midnightblue" d="M880.03,-175.41C986.6,-171.57 1248,-160.01 1477.35,-131.95"/>
<polygon fill="midnightblue" stroke="midnightblue" points="1478.06,-135.39 1487.56,-130.69 1477.2,-128.44 1478.06,-135.39"/>
</g>
<!-- Node32 -->
<g id="node32" class="node">
<title>Node32</title>
<g id="a_node32"><a xlink:title=" ">
<polygon fill="white" stroke="#bfbfbf" points="1586.66,-112.5 1586.66,-131.5 1633.66,-131.5 1633.66,-112.5 1586.66,-112.5"/>
<text text-anchor="middle" x="1610.16" y="-119.5" font-family="Helvetica" font-size="10.00">libutil.h</text>
</a>
</g>
</g>
<!-- Node1&#45;&gt;Node32 -->
<g id="edge36" class="edge">
<title>Node1&#45;&gt;Node32</title>
<path fill="none" stroke="midnightblue" d="M880.07,-177.65C998.52,-178.46 1310.04,-176 1576.66,-131.91"/>
<polygon fill="midnightblue" stroke="midnightblue" points="1577.24,-135.36 1586.52,-130.26 1576.08,-128.46 1577.24,-135.36"/>
</g>
<!-- Node33 -->
<g id="node33" class="node">
<title>Node33</title>
<g id="a_node33"><a xlink:title=" ">
<polygon fill="white" stroke="#bfbfbf" points="1652.16,-112.5 1652.16,-131.5 1698.16,-131.5 1698.16,-112.5 1652.16,-112.5"/>
<text text-anchor="middle" x="1675.16" y="-119.5" font-family="Helvetica" font-size="10.00">dlfcn.h</text>
</a>
</g>
</g>
<!-- Node1&#45;&gt;Node33 -->
<g id="edge37" class="edge">
<title>Node1&#45;&gt;Node33</title>
<path fill="none" stroke="midnightblue" d="M879.9,-175.7C1028.63,-171.51 1476.05,-157.25 1641.84,-131.8"/>
<polygon fill="midnightblue" stroke="midnightblue" points="1642.56,-135.23 1651.87,-130.18 1641.44,-128.32 1642.56,-135.23"/>
</g>
<!-- Node34 -->
<g id="node34" class="node">
<title>Node34</title>
<g id="a_node34"><a xlink:title=" ">
<polygon fill="white" stroke="#bfbfbf" points="1716.66,-112.5 1716.66,-131.5 1767.66,-131.5 1767.66,-112.5 1716.66,-112.5"/>
<text text-anchor="middle" x="1742.16" y="-119.5" font-family="Helvetica" font-size="10.00">unistd.h</text>
</a>
</g>
</g>
<!-- Node1&#45;&gt;Node34 -->
<g id="edge38" class="edge">
<title>Node1&#45;&gt;Node34</title>
<path fill="none" stroke="midnightblue" d="M879.75,-175.79C1036.18,-171.68 1526.45,-157.23 1706.17,-131.76"/>
<polygon fill="midnightblue" stroke="midnightblue" points="1706.9,-135.19 1716.28,-130.27 1705.88,-128.27 1706.9,-135.19"/>
</g>
<!-- Node3 -->
<g id="node3" class="node">
<title>Node3</title>
<g id="a_node3"><a xlink:title=" ">
<polygon fill="white" stroke="#bfbfbf" points="168.16,-0.5 168.16,-19.5 230.16,-19.5 230.16,-0.5 168.16,-0.5"/>
<text text-anchor="middle" x="199.16" y="-7.5" font-family="Helvetica" font-size="10.00">type_traits</text>
</a>
</g>
</g>
<!-- Node2&#45;&gt;Node3 -->
<g id="edge2" class="edge">
<title>Node2&#45;&gt;Node3</title>
<path fill="none" stroke="midnightblue" d="M188.31,-56.08C190.03,-48.93 192.51,-38.64 194.66,-29.69"/>
<polygon fill="midnightblue" stroke="midnightblue" points="198.11,-30.29 197.05,-19.75 191.31,-28.65 198.11,-30.29"/>
</g>
<!-- Node2&#45;&gt;Node4 -->
<g id="edge3" class="edge">
<title>Node2&#45;&gt;Node4</title>
<path fill="none" stroke="midnightblue" d="M177,-56.32C168.66,-48.42 156.13,-36.55 145.98,-26.94"/>
<polygon fill="midnightblue" stroke="midnightblue" points="148.15,-24.17 138.48,-19.83 143.34,-29.25 148.15,-24.17"/>
</g>
<!-- Node5 -->
<g id="node5" class="node">
<title>Node5</title>
<g id="a_node5"><a xlink:title=" ">
<polygon fill="white" stroke="#bfbfbf" points="277.66,-0.5 277.66,-19.5 320.66,-19.5 320.66,-0.5 277.66,-0.5"/>
<text text-anchor="middle" x="299.16" y="-7.5" font-family="Helvetica" font-size="10.00">cstdio</text>
</a>
</g>
</g>
<!-- Node2&#45;&gt;Node5 -->
<g id="edge4" class="edge">
<title>Node2&#45;&gt;Node5</title>
<path fill="none" stroke="midnightblue" d="M204.06,-56.44C222.41,-47.68 251.16,-33.94 272.25,-23.86"/>
<polygon fill="midnightblue" stroke="midnightblue" points="273.82,-26.99 281.34,-19.52 270.81,-20.67 273.82,-26.99"/>
</g>
<!-- Node7 -->
<g id="node7" class="node">
<title>Node7</title>
<g id="a_node7"><a xlink:href="types_8hpp.html" target="_top" xlink:title=" ">
<polygon fill="white" stroke="black" points="28.66,-56.5 28.66,-75.5 87.66,-75.5 87.66,-56.5 28.66,-56.5"/>
<text text-anchor="middle" x="58.16" y="-63.5" font-family="Helvetica" font-size="10.00">types.hpp</text>
</a>
</g>
</g>
<!-- Node6&#45;&gt;Node7 -->
<g id="edge6" class="edge">
<title>Node6&#45;&gt;Node7</title>
<path fill="none" stroke="midnightblue" d="M61.5,-112.08C60.97,-105.01 60.22,-94.86 59.56,-85.99"/>
<polygon fill="midnightblue" stroke="midnightblue" points="63.04,-85.47 58.81,-75.75 56.06,-85.98 63.04,-85.47"/>
</g>
<!-- Node7&#45;&gt;Node8 -->
<g id="edge7" class="edge">
<title>Node7&#45;&gt;Node8</title>
<path fill="none" stroke="midnightblue" d="M53.04,-56.08C48.75,-48.61 42.5,-37.72 37.22,-28.52"/>
<polygon fill="midnightblue" stroke="midnightblue" points="40.2,-26.68 32.18,-19.75 34.13,-30.17 40.2,-26.68"/>
</g>
<!-- Node9&#45;&gt;Node2 -->
<g id="edge9" class="edge">
<title>Node9&#45;&gt;Node2</title>
<path fill="none" stroke="midnightblue" d="M244.91,-112.32C234.36,-104.18 218.36,-91.84 205.72,-82.09"/>
<polygon fill="midnightblue" stroke="midnightblue" points="207.67,-79.17 197.61,-75.83 203.39,-84.71 207.67,-79.17"/>
</g>
<!-- Node10 -->
<g id="node10" class="node">
<title>Node10</title>
<g id="a_node10"><a xlink:title=" ">
<polygon fill="white" stroke="#bfbfbf" points="233.16,-56.5 233.16,-75.5 279.16,-75.5 279.16,-56.5 233.16,-56.5"/>
<text text-anchor="middle" x="256.16" y="-63.5" font-family="Helvetica" font-size="10.00">cstdint</text>
</a>
</g>
</g>
<!-- Node9&#45;&gt;Node10 -->
<g id="edge10" class="edge">
<title>Node9&#45;&gt;Node10</title>
<path fill="none" stroke="midnightblue" d="M256.16,-112.08C256.16,-105.01 256.16,-94.86 256.16,-85.99"/>
<polygon fill="midnightblue" stroke="midnightblue" points="259.66,-85.75 256.16,-75.75 252.66,-85.75 259.66,-85.75"/>
</g>
<!-- Node12 -->
<g id="node12" class="node">
<title>Node12</title>
<g id="a_node12"><a xlink:href="error_8hpp.html" target="_top" xlink:title=" ">
<polygon fill="white" stroke="black" points="441.16,-56.5 441.16,-75.5 495.16,-75.5 495.16,-56.5 441.16,-56.5"/>
<text text-anchor="middle" x="468.16" y="-63.5" font-family="Helvetica" font-size="10.00">error.hpp</text>
</a>
</g>
</g>
<!-- Node11&#45;&gt;Node12 -->
<g id="edge12" class="edge">
<title>Node11&#45;&gt;Node12</title>
<path fill="none" stroke="midnightblue" d="M408.57,-112.32C419.27,-104.18 435.5,-91.84 448.32,-82.09"/>
<polygon fill="midnightblue" stroke="midnightblue" points="450.7,-84.67 456.54,-75.83 446.47,-79.1 450.7,-84.67"/>
</g>
<!-- Node15 -->
<g id="node15" class="node">
<title>Node15</title>
<g id="a_node15"><a xlink:title=" ">
<polygon fill="white" stroke="#bfbfbf" points="377.66,-56.5 377.66,-75.5 422.66,-75.5 422.66,-56.5 377.66,-56.5"/>
<text text-anchor="middle" x="400.16" y="-63.5" font-family="Helvetica" font-size="10.00">cstdlib</text>
</a>
</g>
</g>
<!-- Node11&#45;&gt;Node15 -->
<g id="edge15" class="edge">
<title>Node11&#45;&gt;Node15</title>
<path fill="none" stroke="midnightblue" d="M397.65,-112.08C398.05,-105.01 398.61,-94.86 399.1,-85.99"/>
<polygon fill="midnightblue" stroke="midnightblue" points="402.61,-85.93 399.67,-75.75 395.62,-85.54 402.61,-85.93"/>
</g>
<!-- Node13 -->
<g id="node13" class="node">
<title>Node13</title>
<g id="a_node13"><a xlink:title=" ">
<polygon fill="white" stroke="#bfbfbf" points="438.16,-0.5 438.16,-19.5 482.16,-19.5 482.16,-0.5 438.16,-0.5"/>
<text text-anchor="middle" x="460.16" y="-7.5" font-family="Helvetica" font-size="10.00">cerrno</text>
</a>
</g>
</g>
<!-- Node12&#45;&gt;Node13 -->
<g id="edge13" class="edge">
<title>Node12&#45;&gt;Node13</title>
<path fill="none" stroke="midnightblue" d="M466.84,-56.08C465.78,-48.93 464.25,-38.64 462.93,-29.69"/>
<polygon fill="midnightblue" stroke="midnightblue" points="466.38,-29.13 461.46,-19.75 459.46,-30.16 466.38,-29.13"/>
</g>
<!-- Node12&#45;&gt;Node14 -->
<g id="edge14" class="edge">
<title>Node12&#45;&gt;Node14</title>
<path fill="none" stroke="midnightblue" d="M477.24,-56.08C485.33,-48.14 497.35,-36.34 507.07,-26.8"/>
<polygon fill="midnightblue" stroke="midnightblue" points="509.56,-29.25 514.25,-19.75 504.66,-24.26 509.56,-29.25"/>
</g>
<!-- Node16&#45;&gt;Node5 -->
<g id="edge17" class="edge">
<title>Node16&#45;&gt;Node5</title>
<path fill="none" stroke="midnightblue" d="M323.37,-56.08C319.4,-48.69 313.63,-37.95 308.72,-28.81"/>
<polygon fill="midnightblue" stroke="midnightblue" points="311.67,-26.91 303.86,-19.75 305.51,-30.22 311.67,-26.91"/>
</g>
</g>
</svg>
