<?xml version="1.0" encoding="UTF-8" standalone="no"?>
<!DOCTYPE svg PUBLIC "-//W3C//DTD SVG 1.1//EN"
 "http://www.w3.org/Graphics/SVG/1.1/DTD/svg11.dtd">
<!-- Generated by graphviz version 2.42.2 ()
 -->
<!-- Title: src/loadplay.cpp Pages: 1 -->
<svg width="450pt" height="196pt"
 viewBox="0.00 0.00 450.17 196.00" xmlns="http://www.w3.org/2000/svg" xmlns:xlink="http://www.w3.org/1999/xlink">
<g id="graph0" class="graph" transform="scale(1 1) rotate(0) translate(4 192)">
<title>src/loadplay.cpp</title>
<polygon fill="white" stroke="transparent" points="-4,4 -4,-192 446.17,-192 446.17,4 -4,4"/>
<!-- Node1 -->
<g id="node1" class="node">
<title>Node1</title>
<g id="a_node1"><a xlink:title="Implements loadplay, a bootstrapping tool for libloadplay.">
<polygon fill="#bfbfbf" stroke="black" points="171.17,-168.5 171.17,-187.5 258.17,-187.5 258.17,-168.5 171.17,-168.5"/>
<text text-anchor="middle" x="214.67" y="-175.5" font-family="Helvetica" font-size="10.00">src/loadplay.cpp</text>
</a>
</g>
</g>
<!-- Node2 -->
<g id="node2" class="node">
<title>Node2</title>
<g id="a_node2"><a xlink:href="Options_8hpp.html" target="_top" xlink:title="Provides the nih::Options functor template, a substitute for getopt(3).">
<polygon fill="white" stroke="black" points="20.17,-112.5 20.17,-131.5 89.17,-131.5 89.17,-112.5 20.17,-112.5"/>
<text text-anchor="middle" x="54.67" y="-119.5" font-family="Helvetica" font-size="10.00">Options.hpp</text>
</a>
</g>
</g>
<!-- Node1&#45;&gt;Node2 -->
<g id="edge1" class="edge">
<title>Node1&#45;&gt;Node2</title>
<path fill="none" stroke="midnightblue" d="M189.32,-168.44C162.4,-159.36 119.67,-144.94 89.58,-134.78"/>
<polygon fill="midnightblue" stroke="midnightblue" points="90.5,-131.4 79.9,-131.52 88.26,-138.03 90.5,-131.4"/>
</g>
<!-- Node3 -->
<g id="node3" class="node">
<title>Node3</title>
<g id="a_node3"><a xlink:href="utility_8hpp.html" target="_top" xlink:title="Implements generally useful functions.">
<polygon fill="white" stroke="black" points="146.67,-56.5 146.67,-75.5 204.67,-75.5 204.67,-56.5 146.67,-56.5"/>
<text text-anchor="middle" x="175.67" y="-63.5" font-family="Helvetica" font-size="10.00">utility.hpp</text>
</a>
</g>
</g>
<!-- Node1&#45;&gt;Node3 -->
<g id="edge11" class="edge">
<title>Node1&#45;&gt;Node3</title>
<path fill="none" stroke="midnightblue" d="M185.55,-168.44C168.03,-161.62 147.15,-150.14 136.67,-132 126.73,-114.79 142.09,-95.26 156.36,-82.14"/>
<polygon fill="midnightblue" stroke="midnightblue" points="158.71,-84.74 164.01,-75.57 154.14,-79.43 158.71,-84.74"/>
</g>
<!-- Node9 -->
<g id="node9" class="node">
<title>Node9</title>
<g id="a_node9"><a xlink:href="errors_8hpp.html" target="_top" xlink:title="Common error handling code.">
<polygon fill="white" stroke="black" points="145.67,-112.5 145.67,-131.5 205.67,-131.5 205.67,-112.5 145.67,-112.5"/>
<text text-anchor="middle" x="175.67" y="-119.5" font-family="Helvetica" font-size="10.00">errors.hpp</text>
</a>
</g>
</g>
<!-- Node1&#45;&gt;Node9 -->
<g id="edge9" class="edge">
<title>Node1&#45;&gt;Node9</title>
<path fill="none" stroke="midnightblue" d="M208.23,-168.08C202.72,-160.46 194.64,-149.26 187.9,-139.94"/>
<polygon fill="midnightblue" stroke="midnightblue" points="190.68,-137.81 181.99,-131.75 185.01,-141.91 190.68,-137.81"/>
</g>
<!-- Node10 -->
<g id="node10" class="node">
<title>Node10</title>
<g id="a_node10"><a xlink:href="env_8hpp.html" target="_top" xlink:title="Implements zero&#45;cost abstractions for the getenv(3) facilities.">
<polygon fill="white" stroke="black" points="304.17,-112.5 304.17,-131.5 373.17,-131.5 373.17,-112.5 304.17,-112.5"/>
<text text-anchor="middle" x="338.67" y="-119.5" font-family="Helvetica" font-size="10.00">sys/env.hpp</text>
</a>
</g>
</g>
<!-- Node1&#45;&gt;Node10 -->
<g id="edge12" class="edge">
<title>Node1&#45;&gt;Node10</title>
<path fill="none" stroke="midnightblue" d="M234.32,-168.44C254.63,-159.6 286.57,-145.69 309.77,-135.59"/>
<polygon fill="midnightblue" stroke="midnightblue" points="311.34,-138.72 319.11,-131.52 308.55,-132.3 311.34,-138.72"/>
</g>
<!-- Node15 -->
<g id="node15" class="node">
<title>Node15</title>
<g id="a_node15"><a xlink:href="io_8hpp.html" target="_top" xlink:title="Implements c++ wrappers for &lt;cstdio&gt; I/O functionality.">
<polygon fill="white" stroke="black" points="223.67,-112.5 223.67,-131.5 285.67,-131.5 285.67,-112.5 223.67,-112.5"/>
<text text-anchor="middle" x="254.67" y="-119.5" font-family="Helvetica" font-size="10.00">sys/io.hpp</text>
</a>
</g>
</g>
<!-- Node1&#45;&gt;Node15 -->
<g id="edge17" class="edge">
<title>Node1&#45;&gt;Node15</title>
<path fill="none" stroke="midnightblue" d="M221.27,-168.08C226.92,-160.46 235.21,-149.26 242.12,-139.94"/>
<polygon fill="midnightblue" stroke="midnightblue" points="245.05,-141.87 248.19,-131.75 239.42,-137.7 245.05,-141.87"/>
</g>
<!-- Node16 -->
<g id="node16" class="node">
<title>Node16</title>
<g id="a_node16"><a xlink:title=" ">
<polygon fill="white" stroke="#bfbfbf" points="391.17,-112.5 391.17,-131.5 442.17,-131.5 442.17,-112.5 391.17,-112.5"/>
<text text-anchor="middle" x="416.67" y="-119.5" font-family="Helvetica" font-size="10.00">unistd.h</text>
</a>
</g>
</g>
<!-- Node1&#45;&gt;Node16 -->
<g id="edge19" class="edge">
<title>Node1&#45;&gt;Node16</title>
<path fill="none" stroke="midnightblue" d="M246.68,-168.44C283.18,-158.68 342.72,-142.77 380.77,-132.6"/>
<polygon fill="midnightblue" stroke="midnightblue" points="382.14,-135.85 390.9,-129.89 380.34,-129.09 382.14,-135.85"/>
</g>
<!-- Node2&#45;&gt;Node3 -->
<g id="edge2" class="edge">
<title>Node2&#45;&gt;Node3</title>
<path fill="none" stroke="midnightblue" d="M73.84,-112.44C93.58,-103.64 124.55,-89.81 147.16,-79.72"/>
<polygon fill="midnightblue" stroke="midnightblue" points="148.88,-82.79 156.59,-75.52 146.03,-76.4 148.88,-82.79"/>
</g>
<!-- Node4 -->
<g id="node4" class="node">
<title>Node4</title>
<g id="a_node4"><a xlink:title=" ">
<polygon fill="white" stroke="#bfbfbf" points="13.67,-0.5 13.67,-19.5 75.67,-19.5 75.67,-0.5 13.67,-0.5"/>
<text text-anchor="middle" x="44.67" y="-7.5" font-family="Helvetica" font-size="10.00">type_traits</text>
</a>
</g>
</g>
<!-- Node2&#45;&gt;Node4 -->
<g id="edge7" class="edge">
<title>Node2&#45;&gt;Node4</title>
<path fill="none" stroke="midnightblue" d="M38.89,-112.47C26.47,-104.77 10.06,-92.18 2.67,-76 -5.67,-57.75 10.01,-38.67 24.53,-25.94"/>
<polygon fill="midnightblue" stroke="midnightblue" points="26.79,-28.61 32.31,-19.57 22.36,-23.2 26.79,-28.61"/>
</g>
<!-- Node7 -->
<g id="node7" class="node">
<title>Node7</title>
<g id="a_node7"><a xlink:title=" ">
<polygon fill="white" stroke="#bfbfbf" points="12.17,-56.5 12.17,-75.5 61.17,-75.5 61.17,-56.5 12.17,-56.5"/>
<text text-anchor="middle" x="36.67" y="-63.5" font-family="Helvetica" font-size="10.00">cstddef</text>
</a>
</g>
</g>
<!-- Node2&#45;&gt;Node7 -->
<g id="edge6" class="edge">
<title>Node2&#45;&gt;Node7</title>
<path fill="none" stroke="midnightblue" d="M51.7,-112.08C49.29,-104.85 45.81,-94.41 42.8,-85.4"/>
<polygon fill="midnightblue" stroke="midnightblue" points="46.07,-84.13 39.59,-75.75 39.43,-86.34 46.07,-84.13"/>
</g>
<!-- Node8 -->
<g id="node8" class="node">
<title>Node8</title>
<g id="a_node8"><a xlink:title=" ">
<polygon fill="white" stroke="#bfbfbf" points="79.17,-56.5 79.17,-75.5 128.17,-75.5 128.17,-56.5 79.17,-56.5"/>
<text text-anchor="middle" x="103.67" y="-63.5" font-family="Helvetica" font-size="10.00">cassert</text>
</a>
</g>
</g>
<!-- Node2&#45;&gt;Node8 -->
<g id="edge8" class="edge">
<title>Node2&#45;&gt;Node8</title>
<path fill="none" stroke="midnightblue" d="M62.76,-112.08C69.82,-104.3 80.26,-92.8 88.82,-83.37"/>
<polygon fill="midnightblue" stroke="midnightblue" points="91.6,-85.51 95.73,-75.75 86.42,-80.8 91.6,-85.51"/>
</g>
<!-- Node3&#45;&gt;Node4 -->
<g id="edge3" class="edge">
<title>Node3&#45;&gt;Node4</title>
<path fill="none" stroke="midnightblue" d="M154.91,-56.44C133.35,-47.56 99.41,-33.56 74.88,-23.45"/>
<polygon fill="midnightblue" stroke="midnightblue" points="75.91,-20.09 65.33,-19.52 73.24,-26.56 75.91,-20.09"/>
</g>
<!-- Node5 -->
<g id="node5" class="node">
<title>Node5</title>
<g id="a_node5"><a xlink:title=" ">
<polygon fill="white" stroke="#bfbfbf" points="155.17,-0.5 155.17,-19.5 196.17,-19.5 196.17,-0.5 155.17,-0.5"/>
<text text-anchor="middle" x="175.67" y="-7.5" font-family="Helvetica" font-size="10.00">string</text>
</a>
</g>
</g>
<!-- Node3&#45;&gt;Node5 -->
<g id="edge4" class="edge">
<title>Node3&#45;&gt;Node5</title>
<path fill="none" stroke="midnightblue" d="M175.67,-56.08C175.67,-49.01 175.67,-38.86 175.67,-29.99"/>
<polygon fill="midnightblue" stroke="midnightblue" points="179.17,-29.75 175.67,-19.75 172.17,-29.75 179.17,-29.75"/>
</g>
<!-- Node6 -->
<g id="node6" class="node">
<title>Node6</title>
<g id="a_node6"><a xlink:title=" ">
<polygon fill="white" stroke="#bfbfbf" points="223.17,-0.5 223.17,-19.5 266.17,-19.5 266.17,-0.5 223.17,-0.5"/>
<text text-anchor="middle" x="244.67" y="-7.5" font-family="Helvetica" font-size="10.00">cstdio</text>
</a>
</g>
</g>
<!-- Node3&#45;&gt;Node6 -->
<g id="edge5" class="edge">
<title>Node3&#45;&gt;Node6</title>
<path fill="none" stroke="midnightblue" d="M186.76,-56.32C197.15,-48.18 212.93,-35.84 225.39,-26.09"/>
<polygon fill="midnightblue" stroke="midnightblue" points="227.66,-28.75 233.38,-19.83 223.35,-23.24 227.66,-28.75"/>
</g>
<!-- Node9&#45;&gt;Node3 -->
<g id="edge10" class="edge">
<title>Node9&#45;&gt;Node3</title>
<path fill="none" stroke="midnightblue" d="M175.67,-112.08C175.67,-105.01 175.67,-94.86 175.67,-85.99"/>
<polygon fill="midnightblue" stroke="midnightblue" points="179.17,-85.75 175.67,-75.75 172.17,-85.75 179.17,-85.75"/>
</g>
<!-- Node11 -->
<g id="node11" class="node">
<title>Node11</title>
<g id="a_node11"><a xlink:href="error_8hpp.html" target="_top" xlink:title="Provides system call error handling.">
<polygon fill="white" stroke="black" points="345.67,-56.5 345.67,-75.5 399.67,-75.5 399.67,-56.5 345.67,-56.5"/>
<text text-anchor="middle" x="372.67" y="-63.5" font-family="Helvetica" font-size="10.00">error.hpp</text>
</a>
</g>
</g>
<!-- Node10&#45;&gt;Node11 -->
<g id="edge13" class="edge">
<title>Node10&#45;&gt;Node11</title>
<path fill="none" stroke="midnightblue" d="M344.28,-112.08C349.04,-104.53 355.99,-93.49 361.82,-84.23"/>
<polygon fill="midnightblue" stroke="midnightblue" points="364.79,-86.08 367.16,-75.75 358.87,-82.35 364.79,-86.08"/>
</g>
<!-- Node14 -->
<g id="node14" class="node">
<title>Node14</title>
<g id="a_node14"><a xlink:title=" ">
<polygon fill="white" stroke="#bfbfbf" points="282.17,-56.5 282.17,-75.5 327.17,-75.5 327.17,-56.5 282.17,-56.5"/>
<text text-anchor="middle" x="304.67" y="-63.5" font-family="Helvetica" font-size="10.00">cstdlib</text>
</a>
</g>
</g>
<!-- Node10&#45;&gt;Node14 -->
<g id="edge16" class="edge">
<title>Node10&#45;&gt;Node14</title>
<path fill="none" stroke="midnightblue" d="M333.05,-112.08C328.3,-104.53 321.35,-93.49 315.52,-84.23"/>
<polygon fill="midnightblue" stroke="midnightblue" points="318.47,-82.35 310.18,-75.75 312.55,-86.08 318.47,-82.35"/>
</g>
<!-- Node12 -->
<g id="node12" class="node">
<title>Node12</title>
<g id="a_node12"><a xlink:title=" ">
<polygon fill="white" stroke="#bfbfbf" points="355.67,-0.5 355.67,-19.5 399.67,-19.5 399.67,-0.5 355.67,-0.5"/>
<text text-anchor="middle" x="377.67" y="-7.5" font-family="Helvetica" font-size="10.00">cerrno</text>
</a>
</g>
</g>
<!-- Node11&#45;&gt;Node12 -->
<g id="edge14" class="edge">
<title>Node11&#45;&gt;Node12</title>
<path fill="none" stroke="midnightblue" d="M373.49,-56.08C374.15,-49.01 375.09,-38.86 375.91,-29.99"/>
<polygon fill="midnightblue" stroke="midnightblue" points="379.42,-30.03 376.86,-19.75 372.45,-29.39 379.42,-30.03"/>
</g>
<!-- Node13 -->
<g id="node13" class="node">
<title>Node13</title>
<g id="a_node13"><a xlink:title=" ">
<polygon fill="white" stroke="#bfbfbf" points="291.67,-0.5 291.67,-19.5 337.67,-19.5 337.67,-0.5 291.67,-0.5"/>
<text text-anchor="middle" x="314.67" y="-7.5" font-family="Helvetica" font-size="10.00">cstring</text>
</a>
</g>
</g>
<!-- Node11&#45;&gt;Node13 -->
<g id="edge15" class="edge">
<title>Node11&#45;&gt;Node13</title>
<path fill="none" stroke="midnightblue" d="M363.35,-56.32C354.78,-48.34 341.86,-36.31 331.48,-26.65"/>
<polygon fill="midnightblue" stroke="midnightblue" points="333.86,-24.09 324.16,-19.83 329.09,-29.21 333.86,-24.09"/>
</g>
<!-- Node15&#45;&gt;Node6 -->
<g id="edge18" class="edge">
<title>Node15&#45;&gt;Node6</title>
<path fill="none" stroke="midnightblue" d="M253.88,-112.37C252.27,-94.62 248.55,-53.67 246.36,-29.6"/>
<polygon fill="midnightblue" stroke="midnightblue" points="249.84,-29.23 245.45,-19.59 242.87,-29.87 249.84,-29.23"/>
</g>
</g>
</svg>
