<?xml version="1.0" encoding="UTF-8" standalone="no"?>
<!DOCTYPE svg PUBLIC "-//W3C//DTD SVG 1.1//EN"
 "http://www.w3.org/Graphics/SVG/1.1/DTD/svg11.dtd">
<!-- Generated by graphviz version 2.40.1 (20161225.0304)
 -->
<!-- Title: loadplay.cpp Pages: 1 -->
<svg width="1845pt" height="196pt"
 viewBox="0.00 0.00 1845.00 196.00" xmlns="http://www.w3.org/2000/svg" xmlns:xlink="http://www.w3.org/1999/xlink">
<g id="graph0" class="graph" transform="scale(1 1) rotate(0) translate(4 192)">
<title>loadplay.cpp</title>
<polygon fill="#ffffff" stroke="transparent" points="-4,4 -4,-192 1841,-192 1841,4 -4,4"/>
<!-- Node0 -->
<g id="node1" class="node">
<title>Node0</title>
<g id="a_node1"><a xlink:title="Implements a library intended to be injected into a clock frequency deamon via LD_PRELOAD.">
<polygon fill="#bfbfbf" stroke="#000000" points="834,-168.5 834,-187.5 905,-187.5 905,-168.5 834,-168.5"/>
<text text-anchor="middle" x="869.5" y="-175.5" font-family="Helvetica,sans-Serif" font-size="10.00" fill="#000000">loadplay.cpp</text>
</a>
</g>
</g>
<!-- Node1 -->
<g id="node2" class="node">
<title>Node1</title>
<g id="a_node2"><a xlink:href="utility_8hpp.html" target="_top" xlink:title="Implements generally useful functions.">
<polygon fill="#ffffff" stroke="#000000" points="50,-56.5 50,-75.5 109,-75.5 109,-56.5 50,-56.5"/>
<text text-anchor="middle" x="79.5" y="-63.5" font-family="Helvetica,sans-Serif" font-size="10.00" fill="#000000">utility.hpp</text>
</a>
</g>
</g>
<!-- Node0&#45;&gt;Node1 -->
<g id="edge1" class="edge">
<title>Node0&#45;&gt;Node1</title>
<path fill="none" stroke="#191970" d="M833.7582,-177.2726C682.8973,-174.0315 104.7558,-159.827 78.5,-132 66.9823,-119.793 68.97,-99.9524 72.7802,-85.2075"/>
<polygon fill="#191970" stroke="#191970" points="76.1551,-86.1389 75.7097,-75.5534 69.4567,-84.1062 76.1551,-86.1389"/>
</g>
<!-- Node3 -->
<g id="node4" class="node">
<title>Node3</title>
<g id="a_node4"><a xlink:title=" ">
<polygon fill="#ffffff" stroke="#bfbfbf" points="0,-.5 0,-19.5 41,-19.5 41,-.5 0,-.5"/>
<text text-anchor="middle" x="20.5" y="-7.5" font-family="Helvetica,sans-Serif" font-size="10.00" fill="#000000">string</text>
</a>
</g>
</g>
<!-- Node0&#45;&gt;Node3 -->
<g id="edge17" class="edge">
<title>Node0&#45;&gt;Node3</title>
<path fill="none" stroke="#191970" d="M833.7529,-176.9717C682.1537,-172.4809 98.6443,-153.8345 66.5,-132 32.927,-109.195 23.8172,-58.4896 21.3722,-30.152"/>
<polygon fill="#191970" stroke="#191970" points="24.8431,-29.5933 20.6946,-19.8444 17.8582,-30.0525 24.8431,-29.5933"/>
</g>
<!-- Node5 -->
<g id="node6" class="node">
<title>Node5</title>
<g id="a_node6"><a xlink:href="constants_8hpp.html" target="_top" xlink:title="Defines a collection of constants.">
<polygon fill="#ffffff" stroke="#000000" points="173.5,-112.5 173.5,-131.5 251.5,-131.5 251.5,-112.5 173.5,-112.5"/>
<text text-anchor="middle" x="212.5" y="-119.5" font-family="Helvetica,sans-Serif" font-size="10.00" fill="#000000">constants.hpp</text>
</a>
</g>
</g>
<!-- Node0&#45;&gt;Node5 -->
<g id="edge5" class="edge">
<title>Node0&#45;&gt;Node5</title>
<path fill="none" stroke="#191970" d="M833.9572,-176.6658C740.5002,-172.8611 480.2762,-160.3523 265.5,-132 264.2468,-131.8346 262.9783,-131.6588 261.6998,-131.4742"/>
<polygon fill="#191970" stroke="#191970" points="262.2069,-128.011 251.784,-129.9122 261.1176,-134.9257 262.2069,-128.011"/>
</g>
<!-- Node7 -->
<g id="node8" class="node">
<title>Node7</title>
<g id="a_node8"><a xlink:title=" ">
<polygon fill="#ffffff" stroke="#bfbfbf" points="228.5,-.5 228.5,-19.5 274.5,-19.5 274.5,-.5 228.5,-.5"/>
<text text-anchor="middle" x="251.5" y="-7.5" font-family="Helvetica,sans-Serif" font-size="10.00" fill="#000000">chrono</text>
</a>
</g>
</g>
<!-- Node0&#45;&gt;Node7 -->
<g id="edge24" class="edge">
<title>Node0&#45;&gt;Node7</title>
<path fill="none" stroke="#191970" d="M833.6014,-176.8072C719.5684,-172.764 370.5437,-158.3412 327.5,-132 289.1673,-108.5418 267.1557,-57.7111 257.4725,-29.63"/>
<polygon fill="#191970" stroke="#191970" points="260.6847,-28.1907 254.2587,-19.7671 254.0291,-30.3594 260.6847,-28.1907"/>
</g>
<!-- Node8 -->
<g id="node9" class="node">
<title>Node8</title>
<g id="a_node9"><a xlink:href="fixme_8hpp.html" target="_top" xlink:title="Implementations in the fixme namespace.">
<polygon fill="#ffffff" stroke="#000000" points="346,-112.5 346,-131.5 405,-131.5 405,-112.5 346,-112.5"/>
<text text-anchor="middle" x="375.5" y="-119.5" font-family="Helvetica,sans-Serif" font-size="10.00" fill="#000000">fixme.hpp</text>
</a>
</g>
</g>
<!-- Node0&#45;&gt;Node8 -->
<g id="edge8" class="edge">
<title>Node0&#45;&gt;Node8</title>
<path fill="none" stroke="#191970" d="M833.8513,-176.2221C758.3973,-172.0683 576.9239,-160.0148 415.3323,-131.8956"/>
<polygon fill="#191970" stroke="#191970" points="415.6661,-128.4004 405.2098,-130.1082 414.4488,-135.2938 415.6661,-128.4004"/>
</g>
<!-- Node9 -->
<g id="node10" class="node">
<title>Node9</title>
<g id="a_node10"><a xlink:title=" ">
<polygon fill="#ffffff" stroke="#bfbfbf" points="328.5,-56.5 328.5,-75.5 380.5,-75.5 380.5,-56.5 328.5,-56.5"/>
<text text-anchor="middle" x="354.5" y="-63.5" font-family="Helvetica,sans-Serif" font-size="10.00" fill="#000000">sstream</text>
</a>
</g>
</g>
<!-- Node0&#45;&gt;Node9 -->
<g id="edge19" class="edge">
<title>Node0&#45;&gt;Node9</title>
<path fill="none" stroke="#191970" d="M833.9471,-177.6432C720.2579,-176.1374 371.0262,-168.5502 337.5,-132 325.6901,-119.1249 333.1592,-99.1453 341.5966,-84.54"/>
<polygon fill="#191970" stroke="#191970" points="344.7064,-86.1706 347.0882,-75.847 338.7883,-82.4321 344.7064,-86.1706"/>
</g>
<!-- Node10 -->
<g id="node11" class="node">
<title>Node10</title>
<g id="a_node11"><a xlink:href="version_8hpp.html" target="_top" xlink:title="Defines types and constants used for version management.">
<polygon fill="#ffffff" stroke="#000000" points="88,-112.5 88,-131.5 155,-131.5 155,-112.5 88,-112.5"/>
<text text-anchor="middle" x="121.5" y="-119.5" font-family="Helvetica,sans-Serif" font-size="10.00" fill="#000000">version.hpp</text>
</a>
</g>
</g>
<!-- Node0&#45;&gt;Node10 -->
<g id="edge10" class="edge">
<title>Node0&#45;&gt;Node10</title>
<path fill="none" stroke="#191970" d="M833.7025,-177.7238C731.0535,-176.496 426.8593,-169.8114 165.2707,-131.8653"/>
<polygon fill="#191970" stroke="#191970" points="165.6039,-128.3768 155.2013,-130.3859 164.5864,-135.3024 165.6039,-128.3768"/>
</g>
<!-- Node12 -->
<g id="node13" class="node">
<title>Node12</title>
<g id="a_node13"><a xlink:title=" ">
<polygon fill="#ffffff" stroke="#bfbfbf" points="423.5,-112.5 423.5,-131.5 477.5,-131.5 477.5,-112.5 423.5,-112.5"/>
<text text-anchor="middle" x="450.5" y="-119.5" font-family="Helvetica,sans-Serif" font-size="10.00" fill="#000000">iostream</text>
</a>
</g>
</g>
<!-- Node0&#45;&gt;Node12 -->
<g id="edge13" class="edge">
<title>Node0&#45;&gt;Node12</title>
<path fill="none" stroke="#191970" d="M833.8396,-175.5298C767.4629,-170.5423 620.3817,-157.6602 487.4716,-131.9344"/>
<polygon fill="#191970" stroke="#191970" points="488.0088,-128.4731 477.5215,-129.9788 486.6588,-135.3417 488.0088,-128.4731"/>
</g>
<!-- Node13 -->
<g id="node14" class="node">
<title>Node13</title>
<g id="a_node14"><a xlink:title=" ">
<polygon fill="#ffffff" stroke="#bfbfbf" points="495.5,-112.5 495.5,-131.5 545.5,-131.5 545.5,-112.5 495.5,-112.5"/>
<text text-anchor="middle" x="520.5" y="-119.5" font-family="Helvetica,sans-Serif" font-size="10.00" fill="#000000">iomanip</text>
</a>
</g>
</g>
<!-- Node0&#45;&gt;Node13 -->
<g id="edge14" class="edge">
<title>Node0&#45;&gt;Node13</title>
<path fill="none" stroke="#191970" d="M833.908,-174.3457C775.4009,-167.9907 655.4171,-153.4931 555.5,-132 555.3996,-131.9784 555.2991,-131.9567 555.1984,-131.9348"/>
<polygon fill="#191970" stroke="#191970" points="556.1776,-128.5709 545.6342,-129.6133 554.5264,-135.3734 556.1776,-128.5709"/>
</g>
<!-- Node14 -->
<g id="node15" class="node">
<title>Node14</title>
<g id="a_node15"><a xlink:title=" ">
<polygon fill="#ffffff" stroke="#bfbfbf" points="564,-112.5 564,-131.5 647,-131.5 647,-112.5 564,-112.5"/>
<text text-anchor="middle" x="605.5" y="-119.5" font-family="Helvetica,sans-Serif" font-size="10.00" fill="#000000">unordered_map</text>
</a>
</g>
</g>
<!-- Node0&#45;&gt;Node14 -->
<g id="edge15" class="edge">
<title>Node0&#45;&gt;Node14</title>
<path fill="none" stroke="#191970" d="M833.8958,-170.4476C788.374,-160.7915 709.2216,-144.0015 657.0944,-132.9443"/>
<polygon fill="#191970" stroke="#191970" points="657.5559,-129.4643 647.0472,-130.813 656.1033,-136.312 657.5559,-129.4643"/>
</g>
<!-- Node15 -->
<g id="node16" class="node">
<title>Node15</title>
<g id="a_node16"><a xlink:title=" ">
<polygon fill="#ffffff" stroke="#bfbfbf" points="665,-112.5 665,-131.5 700,-131.5 700,-112.5 665,-112.5"/>
<text text-anchor="middle" x="682.5" y="-119.5" font-family="Helvetica,sans-Serif" font-size="10.00" fill="#000000">map</text>
</a>
</g>
</g>
<!-- Node0&#45;&gt;Node15 -->
<g id="edge16" class="edge">
<title>Node0&#45;&gt;Node15</title>
<path fill="none" stroke="#191970" d="M833.9967,-168.6117C803.4553,-160.3541 758.0462,-147.6477 709.8294,-131.9351"/>
<polygon fill="#191970" stroke="#191970" points="710.7451,-128.5519 700.1522,-128.753 708.5585,-135.2017 710.7451,-128.5519"/>
</g>
<!-- Node16 -->
<g id="node17" class="node">
<title>Node16</title>
<g id="a_node17"><a xlink:title=" ">
<polygon fill="#ffffff" stroke="#bfbfbf" points="718,-112.5 718,-131.5 759,-131.5 759,-112.5 718,-112.5"/>
<text text-anchor="middle" x="738.5" y="-119.5" font-family="Helvetica,sans-Serif" font-size="10.00" fill="#000000">regex</text>
</a>
</g>
</g>
<!-- Node0&#45;&gt;Node16 -->
<g id="edge18" class="edge">
<title>Node0&#45;&gt;Node16</title>
<path fill="none" stroke="#191970" d="M846.9803,-168.3733C825.2484,-159.0833 792.215,-144.9621 768.3107,-134.7435"/>
<polygon fill="#191970" stroke="#191970" points="769.5745,-131.4774 759.0036,-130.7649 766.8229,-137.914 769.5745,-131.4774"/>
</g>
<!-- Node17 -->
<g id="node18" class="node">
<title>Node17</title>
<g id="a_node18"><a xlink:title=" ">
<polygon fill="#ffffff" stroke="#bfbfbf" points="777.5,-112.5 777.5,-131.5 829.5,-131.5 829.5,-112.5 777.5,-112.5"/>
<text text-anchor="middle" x="803.5" y="-119.5" font-family="Helvetica,sans-Serif" font-size="10.00" fill="#000000">memory</text>
</a>
</g>
</g>
<!-- Node0&#45;&gt;Node17 -->
<g id="edge20" class="edge">
<title>Node0&#45;&gt;Node17</title>
<path fill="none" stroke="#191970" d="M858.0037,-168.2455C848.2558,-159.9746 834.0741,-147.9416 822.6202,-138.2232"/>
<polygon fill="#191970" stroke="#191970" points="824.7541,-135.4437 814.8646,-131.6427 820.2253,-140.7813 824.7541,-135.4437"/>
</g>
<!-- Node18 -->
<g id="node19" class="node">
<title>Node18</title>
<g id="a_node19"><a xlink:title=" ">
<polygon fill="#ffffff" stroke="#bfbfbf" points="847.5,-112.5 847.5,-131.5 891.5,-131.5 891.5,-112.5 847.5,-112.5"/>
<text text-anchor="middle" x="869.5" y="-119.5" font-family="Helvetica,sans-Serif" font-size="10.00" fill="#000000">thread</text>
</a>
</g>
</g>
<!-- Node0&#45;&gt;Node18 -->
<g id="edge21" class="edge">
<title>Node0&#45;&gt;Node18</title>
<path fill="none" stroke="#191970" d="M869.5,-168.2455C869.5,-160.9382 869.5,-150.6944 869.5,-141.7046"/>
<polygon fill="#191970" stroke="#191970" points="873.0001,-141.6426 869.5,-131.6427 866.0001,-141.6427 873.0001,-141.6426"/>
</g>
<!-- Node19 -->
<g id="node20" class="node">
<title>Node19</title>
<g id="a_node20"><a xlink:title=" ">
<polygon fill="#ffffff" stroke="#bfbfbf" points="910,-112.5 910,-131.5 969,-131.5 969,-112.5 910,-112.5"/>
<text text-anchor="middle" x="939.5" y="-119.5" font-family="Helvetica,sans-Serif" font-size="10.00" fill="#000000">exception</text>
</a>
</g>
</g>
<!-- Node0&#45;&gt;Node19 -->
<g id="edge22" class="edge">
<title>Node0&#45;&gt;Node19</title>
<path fill="none" stroke="#191970" d="M881.6931,-168.2455C892.1321,-159.8943 907.3655,-147.7076 919.574,-137.9408"/>
<polygon fill="#191970" stroke="#191970" points="921.8244,-140.6227 927.4467,-131.6427 917.4515,-135.1566 921.8244,-140.6227"/>
</g>
<!-- Node20 -->
<g id="node21" class="node">
<title>Node20</title>
<g id="a_node21"><a xlink:title=" ">
<polygon fill="#ffffff" stroke="#bfbfbf" points="987.5,-112.5 987.5,-131.5 1031.5,-131.5 1031.5,-112.5 987.5,-112.5"/>
<text text-anchor="middle" x="1009.5" y="-119.5" font-family="Helvetica,sans-Serif" font-size="10.00" fill="#000000">mutex</text>
</a>
</g>
</g>
<!-- Node0&#45;&gt;Node20 -->
<g id="edge23" class="edge">
<title>Node0&#45;&gt;Node20</title>
<path fill="none" stroke="#191970" d="M893.5669,-168.3733C916.7569,-159.0972 951.9888,-145.0045 977.5263,-134.7895"/>
<polygon fill="#191970" stroke="#191970" points="979.1478,-137.9106 987.1327,-130.9469 976.548,-131.4112 979.1478,-137.9106"/>
</g>
<!-- Node21 -->
<g id="node22" class="node">
<title>Node21</title>
<g id="a_node22"><a xlink:title=" ">
<polygon fill="#ffffff" stroke="#bfbfbf" points="1049.5,-112.5 1049.5,-131.5 1093.5,-131.5 1093.5,-112.5 1049.5,-112.5"/>
<text text-anchor="middle" x="1071.5" y="-119.5" font-family="Helvetica,sans-Serif" font-size="10.00" fill="#000000">vector</text>
</a>
</g>
</g>
<!-- Node0&#45;&gt;Node21 -->
<g id="edge25" class="edge">
<title>Node0&#45;&gt;Node21</title>
<path fill="none" stroke="#191970" d="M905.013,-168.9914C937.6664,-160.5876 987.6319,-147.4261 1039.4887,-132.2069"/>
<polygon fill="#191970" stroke="#191970" points="1040.5906,-135.5309 1049.1897,-129.3418 1038.6079,-128.8176 1040.5906,-135.5309"/>
</g>
<!-- Node22 -->
<g id="node23" class="node">
<title>Node22</title>
<g id="a_node23"><a xlink:title=" ">
<polygon fill="#ffffff" stroke="#bfbfbf" points="1111.5,-112.5 1111.5,-131.5 1167.5,-131.5 1167.5,-112.5 1111.5,-112.5"/>
<text text-anchor="middle" x="1139.5" y="-119.5" font-family="Helvetica,sans-Serif" font-size="10.00" fill="#000000">algorithm</text>
</a>
</g>
</g>
<!-- Node0&#45;&gt;Node22 -->
<g id="edge26" class="edge">
<title>Node0&#45;&gt;Node22</title>
<path fill="none" stroke="#191970" d="M905.1903,-171.7452C949.0809,-163.8801 1026.0587,-149.5253 1101.1669,-132.197"/>
<polygon fill="#191970" stroke="#191970" points="1102.323,-135.5216 1111.269,-129.8454 1100.7359,-128.7038 1102.323,-135.5216"/>
</g>
<!-- Node23 -->
<g id="node24" class="node">
<title>Node23</title>
<g id="a_node24"><a xlink:title=" ">
<polygon fill="#ffffff" stroke="#bfbfbf" points="1185.5,-112.5 1185.5,-131.5 1231.5,-131.5 1231.5,-112.5 1185.5,-112.5"/>
<text text-anchor="middle" x="1208.5" y="-119.5" font-family="Helvetica,sans-Serif" font-size="10.00" fill="#000000">cstring</text>
</a>
</g>
</g>
<!-- Node0&#45;&gt;Node23 -->
<g id="edge27" class="edge">
<title>Node0&#45;&gt;Node23</title>
<path fill="none" stroke="#191970" d="M905.2882,-174.4494C961.1066,-168.52 1072.3555,-155.134 1175.2644,-132.0074"/>
<polygon fill="#191970" stroke="#191970" points="1176.2257,-135.378 1185.1951,-129.7389 1174.6668,-128.5538 1176.2257,-135.378"/>
</g>
<!-- Node24 -->
<g id="node25" class="node">
<title>Node24</title>
<g id="a_node25"><a xlink:title=" ">
<polygon fill="#ffffff" stroke="#bfbfbf" points="1250,-112.5 1250,-131.5 1299,-131.5 1299,-112.5 1250,-112.5"/>
<text text-anchor="middle" x="1274.5" y="-119.5" font-family="Helvetica,sans-Serif" font-size="10.00" fill="#000000">cassert</text>
</a>
</g>
</g>
<!-- Node0&#45;&gt;Node24 -->
<g id="edge28" class="edge">
<title>Node0&#45;&gt;Node24</title>
<path fill="none" stroke="#191970" d="M905.1105,-175.5227C969.888,-170.6 1111.3815,-157.9307 1239.7326,-131.8552"/>
<polygon fill="#191970" stroke="#191970" points="1240.65,-135.2396 1249.7357,-129.7898 1239.2345,-128.3842 1240.65,-135.2396"/>
</g>
<!-- Node25 -->
<g id="node26" class="node">
<title>Node25</title>
<g id="a_node26"><a xlink:title=" ">
<polygon fill="#ffffff" stroke="#bfbfbf" points="1317,-112.5 1317,-131.5 1364,-131.5 1364,-112.5 1317,-112.5"/>
<text text-anchor="middle" x="1340.5" y="-119.5" font-family="Helvetica,sans-Serif" font-size="10.00" fill="#000000">csignal</text>
</a>
</g>
</g>
<!-- Node0&#45;&gt;Node25 -->
<g id="edge29" class="edge">
<title>Node0&#45;&gt;Node25</title>
<path fill="none" stroke="#191970" d="M905.1465,-176.6613C978.7692,-173.3851 1152.956,-162.9911 1306.7711,-132.0275"/>
<polygon fill="#191970" stroke="#191970" points="1307.7779,-135.3941 1316.8719,-129.9581 1306.3729,-128.5365 1307.7779,-135.3941"/>
</g>
<!-- Node26 -->
<g id="node27" class="node">
<title>Node26</title>
<g id="a_node27"><a xlink:title=" ">
<polygon fill="#ffffff" stroke="#bfbfbf" points="1382.5,-112.5 1382.5,-131.5 1450.5,-131.5 1450.5,-112.5 1382.5,-112.5"/>
<text text-anchor="middle" x="1416.5" y="-119.5" font-family="Helvetica,sans-Serif" font-size="10.00" fill="#000000">sys/types.h</text>
</a>
</g>
</g>
<!-- Node0&#45;&gt;Node26 -->
<g id="edge30" class="edge">
<title>Node0&#45;&gt;Node26</title>
<path fill="none" stroke="#191970" d="M905.1508,-176.4329C986.3853,-172.5017 1191.5513,-160.5372 1372.362,-131.9891"/>
<polygon fill="#191970" stroke="#191970" points="1372.995,-135.4324 1382.3165,-130.3965 1371.8891,-128.5203 1372.995,-135.4324"/>
</g>
<!-- Node27 -->
<g id="node28" class="node">
<title>Node27</title>
<g id="a_node28"><a xlink:title=" ">
<polygon fill="#ffffff" stroke="#bfbfbf" points="1468.5,-112.5 1468.5,-131.5 1538.5,-131.5 1538.5,-112.5 1468.5,-112.5"/>
<text text-anchor="middle" x="1503.5" y="-119.5" font-family="Helvetica,sans-Serif" font-size="10.00" fill="#000000">sys/sysctl.h</text>
</a>
</g>
</g>
<!-- Node0&#45;&gt;Node27 -->
<g id="edge31" class="edge">
<title>Node0&#45;&gt;Node27</title>
<path fill="none" stroke="#191970" d="M905.2869,-177.0245C996.1343,-174.1625 1243.131,-163.9724 1457.8438,-132.0607"/>
<polygon fill="#191970" stroke="#191970" points="1458.6759,-135.475 1468.0431,-130.5247 1457.6333,-128.553 1458.6759,-135.475"/>
</g>
<!-- Node28 -->
<g id="node29" class="node">
<title>Node28</title>
<g id="a_node29"><a xlink:title=" ">
<polygon fill="#ffffff" stroke="#bfbfbf" points="1557,-112.5 1557,-131.5 1638,-131.5 1638,-112.5 1557,-112.5"/>
<text text-anchor="middle" x="1597.5" y="-119.5" font-family="Helvetica,sans-Serif" font-size="10.00" fill="#000000">sys/resource.h</text>
</a>
</g>
</g>
<!-- Node0&#45;&gt;Node28 -->
<g id="edge32" class="edge">
<title>Node0&#45;&gt;Node28</title>
<path fill="none" stroke="#191970" d="M905.3159,-177.2043C1005.231,-174.6378 1295.5878,-164.8174 1546.8652,-131.9062"/>
<polygon fill="#191970" stroke="#191970" points="1547.461,-135.3579 1556.9147,-130.5747 1546.5416,-128.4185 1547.461,-135.3579"/>
</g>
<!-- Node29 -->
<g id="node30" class="node">
<title>Node29</title>
<g id="a_node30"><a xlink:title=" ">
<polygon fill="#ffffff" stroke="#bfbfbf" points="1656,-112.5 1656,-131.5 1703,-131.5 1703,-112.5 1656,-112.5"/>
<text text-anchor="middle" x="1679.5" y="-119.5" font-family="Helvetica,sans-Serif" font-size="10.00" fill="#000000">libutil.h</text>
</a>
</g>
</g>
<!-- Node0&#45;&gt;Node29 -->
<g id="edge33" class="edge">
<title>Node0&#45;&gt;Node29</title>
<path fill="none" stroke="#191970" d="M905.3311,-177.0407C1035.4124,-173.3817 1483.2027,-159.2039 1646.0476,-131.8188"/>
<polygon fill="#191970" stroke="#191970" points="1646.6561,-135.2656 1655.8959,-130.0813 1645.4398,-128.372 1646.6561,-135.2656"/>
</g>
<!-- Node30 -->
<g id="node31" class="node">
<title>Node30</title>
<g id="a_node31"><a xlink:title=" ">
<polygon fill="#ffffff" stroke="#bfbfbf" points="1721.5,-112.5 1721.5,-131.5 1767.5,-131.5 1767.5,-112.5 1721.5,-112.5"/>
<text text-anchor="middle" x="1744.5" y="-119.5" font-family="Helvetica,sans-Serif" font-size="10.00" fill="#000000">dlfcn.h</text>
</a>
</g>
</g>
<!-- Node0&#45;&gt;Node30 -->
<g id="edge34" class="edge">
<title>Node0&#45;&gt;Node30</title>
<path fill="none" stroke="#191970" d="M905.4106,-177.227C1042.6356,-174.0932 1534.6039,-161.164 1711.3184,-131.7325"/>
<polygon fill="#191970" stroke="#191970" points="1711.9991,-135.1667 1721.2486,-129.9997 1710.7958,-128.2709 1711.9991,-135.1667"/>
</g>
<!-- Node31 -->
<g id="node32" class="node">
<title>Node31</title>
<g id="a_node32"><a xlink:title=" ">
<polygon fill="#ffffff" stroke="#bfbfbf" points="1786,-112.5 1786,-131.5 1837,-131.5 1837,-112.5 1786,-112.5"/>
<text text-anchor="middle" x="1811.5" y="-119.5" font-family="Helvetica,sans-Serif" font-size="10.00" fill="#000000">unistd.h</text>
</a>
</g>
</g>
<!-- Node0&#45;&gt;Node31 -->
<g id="edge35" class="edge">
<title>Node0&#45;&gt;Node31</title>
<path fill="none" stroke="#191970" d="M905.0926,-177.2767C1048.4968,-174.1987 1584.9181,-161.066 1775.7491,-131.6861"/>
<polygon fill="#191970" stroke="#191970" points="1776.3387,-135.1364 1785.6564,-130.0934 1775.2276,-128.2251 1776.3387,-135.1364"/>
</g>
<!-- Node2 -->
<g id="node3" class="node">
<title>Node2</title>
<g id="a_node3"><a xlink:title=" ">
<polygon fill="#ffffff" stroke="#bfbfbf" points="120.5,-.5 120.5,-19.5 182.5,-19.5 182.5,-.5 120.5,-.5"/>
<text text-anchor="middle" x="151.5" y="-7.5" font-family="Helvetica,sans-Serif" font-size="10.00" fill="#000000">type_traits</text>
</a>
</g>
</g>
<!-- Node1&#45;&gt;Node2 -->
<g id="edge2" class="edge">
<title>Node1&#45;&gt;Node2</title>
<path fill="none" stroke="#191970" d="M92.0414,-56.2455C102.7787,-47.8943 118.4473,-35.7076 131.0047,-25.9408"/>
<polygon fill="#191970" stroke="#191970" points="133.3575,-28.5449 139.1023,-19.6427 129.0599,-23.0194 133.3575,-28.5449"/>
</g>
<!-- Node1&#45;&gt;Node3 -->
<g id="edge3" class="edge">
<title>Node1&#45;&gt;Node3</title>
<path fill="none" stroke="#191970" d="M69.223,-56.2455C60.6782,-48.1352 48.3222,-36.4075 38.1915,-26.7919"/>
<polygon fill="#191970" stroke="#191970" points="40.3218,-23.9884 30.6592,-19.6427 35.5028,-29.0655 40.3218,-23.9884"/>
</g>
<!-- Node4 -->
<g id="node5" class="node">
<title>Node4</title>
<g id="a_node5"><a xlink:title=" ">
<polygon fill="#ffffff" stroke="#bfbfbf" points="59,-.5 59,-19.5 102,-19.5 102,-.5 59,-.5"/>
<text text-anchor="middle" x="80.5" y="-7.5" font-family="Helvetica,sans-Serif" font-size="10.00" fill="#000000">cstdio</text>
</a>
</g>
</g>
<!-- Node1&#45;&gt;Node4 -->
<g id="edge4" class="edge">
<title>Node1&#45;&gt;Node4</title>
<path fill="none" stroke="#191970" d="M79.6742,-56.2455C79.8047,-48.9382 79.9876,-38.6944 80.1481,-29.7046"/>
<polygon fill="#191970" stroke="#191970" points="83.6486,-29.7036 80.3278,-19.6427 76.6497,-29.5786 83.6486,-29.7036"/>
</g>
<!-- Node6 -->
<g id="node7" class="node">
<title>Node6</title>
<g id="a_node7"><a xlink:href="types_8hpp.html" target="_top" xlink:title="A collection of type aliases.">
<polygon fill="#ffffff" stroke="#000000" points="192,-56.5 192,-75.5 251,-75.5 251,-56.5 192,-56.5"/>
<text text-anchor="middle" x="221.5" y="-63.5" font-family="Helvetica,sans-Serif" font-size="10.00" fill="#000000">types.hpp</text>
</a>
</g>
</g>
<!-- Node5&#45;&gt;Node6 -->
<g id="edge6" class="edge">
<title>Node5&#45;&gt;Node6</title>
<path fill="none" stroke="#191970" d="M214.0677,-112.2455C215.2421,-104.9382 216.8884,-94.6944 218.3332,-85.7046"/>
<polygon fill="#191970" stroke="#191970" points="221.8191,-86.0714 219.9503,-75.6427 214.9078,-84.9606 221.8191,-86.0714"/>
</g>
<!-- Node6&#45;&gt;Node7 -->
<g id="edge7" class="edge">
<title>Node6&#45;&gt;Node7</title>
<path fill="none" stroke="#191970" d="M226.7256,-56.2455C230.8123,-48.617 236.6135,-37.7881 241.575,-28.5267"/>
<polygon fill="#191970" stroke="#191970" points="244.6972,-30.1103 246.3343,-19.6427 238.5268,-26.8047 244.6972,-30.1103"/>
</g>
<!-- Node8&#45;&gt;Node9 -->
<g id="edge9" class="edge">
<title>Node8&#45;&gt;Node9</title>
<path fill="none" stroke="#191970" d="M371.8421,-112.2455C369.0416,-104.7776 365.091,-94.2427 361.6676,-85.1137"/>
<polygon fill="#191970" stroke="#191970" points="364.9045,-83.777 358.116,-75.6427 358.3501,-86.2349 364.9045,-83.777"/>
</g>
<!-- Node10&#45;&gt;Node1 -->
<g id="edge11" class="edge">
<title>Node10&#45;&gt;Node1</title>
<path fill="none" stroke="#191970" d="M114.1842,-112.2455C108.2821,-104.3761 99.8258,-93.101 92.7406,-83.6542"/>
<polygon fill="#191970" stroke="#191970" points="95.5321,-81.5427 86.732,-75.6427 89.932,-85.7427 95.5321,-81.5427"/>
</g>
<!-- Node11 -->
<g id="node12" class="node">
<title>Node11</title>
<g id="a_node12"><a xlink:title=" ">
<polygon fill="#ffffff" stroke="#bfbfbf" points="127.5,-56.5 127.5,-75.5 173.5,-75.5 173.5,-56.5 127.5,-56.5"/>
<text text-anchor="middle" x="150.5" y="-63.5" font-family="Helvetica,sans-Serif" font-size="10.00" fill="#000000">cstdint</text>
</a>
</g>
</g>
<!-- Node10&#45;&gt;Node11 -->
<g id="edge12" class="edge">
<title>Node10&#45;&gt;Node11</title>
<path fill="none" stroke="#191970" d="M126.5514,-112.2455C130.5019,-104.617 136.1097,-93.7881 140.9058,-84.5267"/>
<polygon fill="#191970" stroke="#191970" points="144.0159,-86.1321 145.5065,-75.6427 137.7999,-82.9131 144.0159,-86.1321"/>
</g>
</g>
</svg>
