<?xml version="1.0" encoding="UTF-8" standalone="no"?>
<!DOCTYPE svg PUBLIC "-//W3C//DTD SVG 1.1//EN"
 "http://www.w3.org/Graphics/SVG/1.1/DTD/svg11.dtd">
<!-- Generated by graphviz version 2.40.1 (20161225.0304)
 -->
<!-- Title: loadrec.cpp Pages: 1 -->
<svg width="1240pt" height="252pt"
 viewBox="0.00 0.00 1239.50 252.00" xmlns="http://www.w3.org/2000/svg" xmlns:xlink="http://www.w3.org/1999/xlink">
<g id="graph0" class="graph" transform="scale(1 1) rotate(0) translate(4 248)">
<title>loadrec.cpp</title>
<polygon fill="#ffffff" stroke="transparent" points="-4,4 -4,-248 1235.5,-248 1235.5,4 -4,4"/>
<!-- Node0 -->
<g id="node1" class="node">
<title>Node0</title>
<polygon fill="#bfbfbf" stroke="#000000" points="691,-224.5 691,-243.5 758,-243.5 758,-224.5 691,-224.5"/>
<text text-anchor="middle" x="724.5" y="-231.5" font-family="Helvetica,sans-Serif" font-size="10.00" fill="#000000">loadrec.cpp</text>
</g>
<!-- Node1 -->
<g id="node2" class="node">
<title>Node1</title>
<g id="a_node2"><a xlink:href="Options_8hpp.html" target="_top" xlink:title="This file provides nih::Options&lt;&gt;, a substitute for getopt(3). ">
<polygon fill="#ffffff" stroke="#000000" points="142,-168.5 142,-187.5 211,-187.5 211,-168.5 142,-168.5"/>
<text text-anchor="middle" x="176.5" y="-175.5" font-family="Helvetica,sans-Serif" font-size="10.00" fill="#000000">Options.hpp</text>
</a>
</g>
</g>
<!-- Node0&#45;&gt;Node1 -->
<g id="edge1" class="edge">
<title>Node0&#45;&gt;Node1</title>
<path fill="none" stroke="#191970" d="M690.904,-231.545C611.967,-225.6171 408.5764,-209.4153 239.5,-188 233.5878,-187.2512 227.3774,-186.3753 221.2555,-185.4588"/>
<polygon fill="#191970" stroke="#191970" points="221.521,-181.9585 211.1044,-183.8936 220.4541,-188.8767 221.521,-181.9585"/>
</g>
<!-- Node7 -->
<g id="node8" class="node">
<title>Node7</title>
<g id="a_node8"><a xlink:href="types_8hpp.html" target="_top" xlink:title="A collection of type aliases. ">
<polygon fill="#ffffff" stroke="#000000" points="600,-112.5 600,-131.5 659,-131.5 659,-112.5 600,-112.5"/>
<text text-anchor="middle" x="629.5" y="-119.5" font-family="Helvetica,sans-Serif" font-size="10.00" fill="#000000">types.hpp</text>
</a>
</g>
</g>
<!-- Node0&#45;&gt;Node7 -->
<g id="edge7" class="edge">
<title>Node0&#45;&gt;Node7</title>
<path fill="none" stroke="#191970" d="M690.7758,-227.4458C668.9249,-221.2626 642.0901,-209.5816 628.5,-188 619.9234,-174.38 621.0588,-155.8383 623.831,-141.8753"/>
<polygon fill="#191970" stroke="#191970" points="627.309,-142.3821 626.2509,-131.8403 620.5041,-140.7411 627.309,-142.3821"/>
</g>
<!-- Node8 -->
<g id="node9" class="node">
<title>Node8</title>
<polygon fill="#ffffff" stroke="#bfbfbf" points="583.5,-56.5 583.5,-75.5 629.5,-75.5 629.5,-56.5 583.5,-56.5"/>
<text text-anchor="middle" x="606.5" y="-63.5" font-family="Helvetica,sans-Serif" font-size="10.00" fill="#000000">chrono</text>
</g>
<!-- Node0&#45;&gt;Node8 -->
<g id="edge33" class="edge">
<title>Node0&#45;&gt;Node8</title>
<path fill="none" stroke="#191970" d="M690.5092,-225.8244C667.8311,-218.9176 638.5989,-207.0379 618.5,-188 592.3656,-163.2453 584.5033,-147.4943 590.5,-112 592.045,-102.8551 595.2034,-93.1019 598.309,-84.9405"/>
<polygon fill="#191970" stroke="#191970" points="601.5742,-86.2021 602.089,-75.6198 595.0873,-83.5713 601.5742,-86.2021"/>
</g>
<!-- Node9 -->
<g id="node10" class="node">
<title>Node9</title>
<g id="a_node10"><a xlink:href="constants_8hpp.html" target="_top" xlink:title="Defines a collection of constants. ">
<polygon fill="#ffffff" stroke="#000000" points="637.5,-168.5 637.5,-187.5 715.5,-187.5 715.5,-168.5 637.5,-168.5"/>
<text text-anchor="middle" x="676.5" y="-175.5" font-family="Helvetica,sans-Serif" font-size="10.00" fill="#000000">constants.hpp</text>
</a>
</g>
</g>
<!-- Node0&#45;&gt;Node9 -->
<g id="edge9" class="edge">
<title>Node0&#45;&gt;Node9</title>
<path fill="none" stroke="#191970" d="M716.139,-224.2455C709.325,-216.2958 699.5319,-204.8706 691.3848,-195.3656"/>
<polygon fill="#191970" stroke="#191970" points="693.9305,-192.9575 684.7651,-187.6427 688.6157,-197.513 693.9305,-192.9575"/>
</g>
<!-- Node10 -->
<g id="node11" class="node">
<title>Node10</title>
<g id="a_node11"><a xlink:href="errors_8hpp.html" target="_top" xlink:title="Common error handling code. ">
<polygon fill="#ffffff" stroke="#000000" points="281.5,-112.5 281.5,-131.5 341.5,-131.5 341.5,-112.5 281.5,-112.5"/>
<text text-anchor="middle" x="311.5" y="-119.5" font-family="Helvetica,sans-Serif" font-size="10.00" fill="#000000">errors.hpp</text>
</a>
</g>
</g>
<!-- Node0&#45;&gt;Node10 -->
<g id="edge11" class="edge">
<title>Node0&#45;&gt;Node10</title>
<path fill="none" stroke="#191970" d="M690.6768,-230.5551C640.505,-224.8792 543.758,-211.7538 464.5,-188 418.9915,-174.361 368.9065,-151.0598 338.845,-136.1061"/>
<polygon fill="#191970" stroke="#191970" points="340.326,-132.9333 329.8196,-131.5672 337.1809,-139.187 340.326,-132.9333"/>
</g>
<!-- Node11 -->
<g id="node12" class="node">
<title>Node11</title>
<g id="a_node12"><a xlink:href="utility_8hpp.html" target="_top" xlink:title="Implements generally useful functions. ">
<polygon fill="#ffffff" stroke="#000000" points="282,-56.5 282,-75.5 341,-75.5 341,-56.5 282,-56.5"/>
<text text-anchor="middle" x="311.5" y="-63.5" font-family="Helvetica,sans-Serif" font-size="10.00" fill="#000000">utility.hpp</text>
</a>
</g>
</g>
<!-- Node0&#45;&gt;Node11 -->
<g id="edge16" class="edge">
<title>Node0&#45;&gt;Node11</title>
<path fill="none" stroke="#191970" d="M690.8696,-232.1181C594.2327,-225.8938 319.6475,-202.2062 272.5,-132 261.4812,-115.5922 276.3691,-96.0117 290.8156,-82.4603"/>
<polygon fill="#191970" stroke="#191970" points="293.4165,-84.8346 298.6286,-75.6105 288.8019,-79.571 293.4165,-84.8346"/>
</g>
<!-- Node14 -->
<g id="node15" class="node">
<title>Node14</title>
<g id="a_node15"><a xlink:href="clas_8hpp.html" target="_top" xlink:title="Implements functions to process command line arguments. ">
<polygon fill="#ffffff" stroke="#000000" points="474,-168.5 474,-187.5 527,-187.5 527,-168.5 474,-168.5"/>
<text text-anchor="middle" x="500.5" y="-175.5" font-family="Helvetica,sans-Serif" font-size="10.00" fill="#000000">clas.hpp</text>
</a>
</g>
</g>
<!-- Node0&#45;&gt;Node14 -->
<g id="edge17" class="edge">
<title>Node0&#45;&gt;Node14</title>
<path fill="none" stroke="#191970" d="M690.9649,-225.6162C649.698,-215.2995 579.8705,-197.8426 537.2021,-187.1755"/>
<polygon fill="#191970" stroke="#191970" points="537.7833,-183.7132 527.233,-184.6832 536.0855,-190.5042 537.7833,-183.7132"/>
</g>
<!-- Node16 -->
<g id="node17" class="node">
<title>Node16</title>
<g id="a_node17"><a xlink:href="sysctl_8hpp.html" target="_top" xlink:title="Implements safer c++ wrappers for the sysctl() interface. ">
<polygon fill="#ffffff" stroke="#000000" points="733.5,-168.5 733.5,-187.5 813.5,-187.5 813.5,-168.5 733.5,-168.5"/>
<text text-anchor="middle" x="773.5" y="-175.5" font-family="Helvetica,sans-Serif" font-size="10.00" fill="#000000">sys/sysctl.hpp</text>
</a>
</g>
</g>
<!-- Node0&#45;&gt;Node16 -->
<g id="edge23" class="edge">
<title>Node0&#45;&gt;Node16</title>
<path fill="none" stroke="#191970" d="M733.0351,-224.2455C739.9912,-216.2958 749.9883,-204.8706 758.3051,-195.3656"/>
<polygon fill="#191970" stroke="#191970" points="761.1116,-197.4732 765.0627,-187.6427 755.8436,-192.8637 761.1116,-197.4732"/>
</g>
<!-- Node20 -->
<g id="node21" class="node">
<title>Node20</title>
<polygon fill="#ffffff" stroke="#bfbfbf" points="924.5,-112.5 924.5,-131.5 976.5,-131.5 976.5,-112.5 924.5,-112.5"/>
<text text-anchor="middle" x="950.5" y="-119.5" font-family="Helvetica,sans-Serif" font-size="10.00" fill="#000000">memory</text>
</g>
<!-- Node0&#45;&gt;Node20 -->
<g id="edge35" class="edge">
<title>Node0&#45;&gt;Node20</title>
<path fill="none" stroke="#191970" d="M745.6617,-224.4051C765.6006,-215.285 796.2494,-201.0604 822.5,-188 839.5872,-179.4986 843.5582,-176.7876 860.5,-168 881.1345,-157.2971 904.5126,-145.3538 922.2698,-136.3196"/>
<polygon fill="#191970" stroke="#191970" points="924.1748,-139.2775 931.5035,-131.6262 921.003,-133.0373 924.1748,-139.2775"/>
</g>
<!-- Node23 -->
<g id="node24" class="node">
<title>Node23</title>
<polygon fill="#ffffff" stroke="#bfbfbf" points="869.5,-168.5 869.5,-187.5 923.5,-187.5 923.5,-168.5 869.5,-168.5"/>
<text text-anchor="middle" x="896.5" y="-175.5" font-family="Helvetica,sans-Serif" font-size="10.00" fill="#000000">iostream</text>
</g>
<!-- Node0&#45;&gt;Node23 -->
<g id="edge31" class="edge">
<title>Node0&#45;&gt;Node23</title>
<path fill="none" stroke="#191970" d="M754.0679,-224.3733C783.2755,-214.8638 828.0314,-200.2921 859.5636,-190.0258"/>
<polygon fill="#191970" stroke="#191970" points="860.8751,-193.2797 869.3002,-186.8557 858.7079,-186.6236 860.8751,-193.2797"/>
</g>
<!-- Node24 -->
<g id="node25" class="node">
<title>Node24</title>
<polygon fill="#ffffff" stroke="#bfbfbf" points="941.5,-168.5 941.5,-187.5 991.5,-187.5 991.5,-168.5 941.5,-168.5"/>
<text text-anchor="middle" x="966.5" y="-175.5" font-family="Helvetica,sans-Serif" font-size="10.00" fill="#000000">fstream</text>
</g>
<!-- Node0&#45;&gt;Node24 -->
<g id="edge32" class="edge">
<title>Node0&#45;&gt;Node24</title>
<path fill="none" stroke="#191970" d="M758.171,-227.2925C797.5099,-219.2941 864.7508,-205.1225 931.4661,-188.1445"/>
<polygon fill="#191970" stroke="#191970" points="932.4865,-191.4961 941.3022,-185.6196 930.7459,-184.716 932.4865,-191.4961"/>
</g>
<!-- Node25 -->
<g id="node26" class="node">
<title>Node25</title>
<polygon fill="#ffffff" stroke="#bfbfbf" points="1009.5,-168.5 1009.5,-187.5 1053.5,-187.5 1053.5,-168.5 1009.5,-168.5"/>
<text text-anchor="middle" x="1031.5" y="-175.5" font-family="Helvetica,sans-Serif" font-size="10.00" fill="#000000">thread</text>
</g>
<!-- Node0&#45;&gt;Node25 -->
<g id="edge34" class="edge">
<title>Node0&#45;&gt;Node25</title>
<path fill="none" stroke="#191970" d="M758.3867,-229.9832C808.9781,-223.6337 907.3359,-209.9314 999.5014,-187.9687"/>
<polygon fill="#191970" stroke="#191970" points="1000.3652,-191.3608 1009.2608,-185.6059 998.718,-184.5573 1000.3652,-191.3608"/>
</g>
<!-- Node26 -->
<g id="node27" class="node">
<title>Node26</title>
<polygon fill="#ffffff" stroke="#bfbfbf" points="1072,-168.5 1072,-187.5 1153,-187.5 1153,-168.5 1072,-168.5"/>
<text text-anchor="middle" x="1112.5" y="-175.5" font-family="Helvetica,sans-Serif" font-size="10.00" fill="#000000">sys/resource.h</text>
</g>
<!-- Node0&#45;&gt;Node26 -->
<g id="edge36" class="edge">
<title>Node0&#45;&gt;Node26</title>
<path fill="none" stroke="#191970" d="M758.1866,-230.1188C817.4319,-223.1407 944.343,-207.5148 1061.9822,-187.9985"/>
<polygon fill="#191970" stroke="#191970" points="1062.5941,-191.4449 1071.8799,-186.3435 1061.4395,-184.5407 1062.5941,-191.4449"/>
</g>
<!-- Node27 -->
<g id="node28" class="node">
<title>Node27</title>
<polygon fill="#ffffff" stroke="#bfbfbf" points="1171.5,-168.5 1171.5,-187.5 1231.5,-187.5 1231.5,-168.5 1171.5,-168.5"/>
<text text-anchor="middle" x="1201.5" y="-175.5" font-family="Helvetica,sans-Serif" font-size="10.00" fill="#000000">sys/stat.h</text>
</g>
<!-- Node0&#45;&gt;Node27 -->
<g id="edge37" class="edge">
<title>Node0&#45;&gt;Node27</title>
<path fill="none" stroke="#191970" d="M758.2558,-232.1436C830.4713,-227.8116 1005.3898,-215.3955 1161.1327,-188.0173"/>
<polygon fill="#191970" stroke="#191970" points="1162.1324,-191.3943 1171.3622,-186.1922 1160.9028,-184.5031 1162.1324,-191.3943"/>
</g>
<!-- Node2 -->
<g id="node3" class="node">
<title>Node2</title>
<polygon fill="#ffffff" stroke="#bfbfbf" points="0,-112.5 0,-131.5 49,-131.5 49,-112.5 0,-112.5"/>
<text text-anchor="middle" x="24.5" y="-119.5" font-family="Helvetica,sans-Serif" font-size="10.00" fill="#000000">cstddef</text>
</g>
<!-- Node1&#45;&gt;Node2 -->
<g id="edge2" class="edge">
<title>Node1&#45;&gt;Node2</title>
<path fill="none" stroke="#191970" d="M150.3703,-168.3733C125.0452,-159.043 86.4929,-144.8395 58.7291,-134.6107"/>
<polygon fill="#191970" stroke="#191970" points="59.6263,-131.2114 49.0329,-131.0384 57.2063,-137.7798 59.6263,-131.2114"/>
</g>
<!-- Node3 -->
<g id="node4" class="node">
<title>Node3</title>
<polygon fill="#ffffff" stroke="#bfbfbf" points="67.5,-112.5 67.5,-131.5 117.5,-131.5 117.5,-112.5 67.5,-112.5"/>
<text text-anchor="middle" x="92.5" y="-119.5" font-family="Helvetica,sans-Serif" font-size="10.00" fill="#000000">iomanip</text>
</g>
<!-- Node1&#45;&gt;Node3 -->
<g id="edge3" class="edge">
<title>Node1&#45;&gt;Node3</title>
<path fill="none" stroke="#191970" d="M161.8683,-168.2455C149.1006,-159.7337 130.3562,-147.2375 115.5701,-137.3801"/>
<polygon fill="#191970" stroke="#191970" points="117.226,-134.2775 106.964,-131.6427 113.3431,-140.1019 117.226,-134.2775"/>
</g>
<!-- Node4 -->
<g id="node5" class="node">
<title>Node4</title>
<polygon fill="#ffffff" stroke="#bfbfbf" points="135.5,-112.5 135.5,-131.5 187.5,-131.5 187.5,-112.5 135.5,-112.5"/>
<text text-anchor="middle" x="161.5" y="-119.5" font-family="Helvetica,sans-Serif" font-size="10.00" fill="#000000">sstream</text>
</g>
<!-- Node1&#45;&gt;Node4 -->
<g id="edge4" class="edge">
<title>Node1&#45;&gt;Node4</title>
<path fill="none" stroke="#191970" d="M173.8872,-168.2455C171.9084,-160.8579 169.1256,-150.4689 166.6988,-141.4087"/>
<polygon fill="#191970" stroke="#191970" points="170.0511,-140.3966 164.0829,-131.6427 163.2895,-142.2078 170.0511,-140.3966"/>
</g>
<!-- Node5 -->
<g id="node6" class="node">
<title>Node5</title>
<polygon fill="#ffffff" stroke="#bfbfbf" points="197.5,-.5 197.5,-19.5 259.5,-19.5 259.5,-.5 197.5,-.5"/>
<text text-anchor="middle" x="228.5" y="-7.5" font-family="Helvetica,sans-Serif" font-size="10.00" fill="#000000">type_traits</text>
</g>
<!-- Node1&#45;&gt;Node5 -->
<g id="edge5" class="edge">
<title>Node1&#45;&gt;Node5</title>
<path fill="none" stroke="#191970" d="M181.2364,-168.3029C185.6008,-159.1106 192.0552,-144.8372 196.5,-132 208.8014,-96.4715 218.9968,-53.7192 224.3774,-29.4162"/>
<polygon fill="#191970" stroke="#191970" points="227.7984,-30.1555 226.501,-19.6404 220.9579,-28.6694 227.7984,-30.1555"/>
</g>
<!-- Node6 -->
<g id="node7" class="node">
<title>Node6</title>
<polygon fill="#ffffff" stroke="#bfbfbf" points="398,-112.5 398,-131.5 447,-131.5 447,-112.5 398,-112.5"/>
<text text-anchor="middle" x="422.5" y="-119.5" font-family="Helvetica,sans-Serif" font-size="10.00" fill="#000000">cassert</text>
</g>
<!-- Node1&#45;&gt;Node6 -->
<g id="edge6" class="edge">
<title>Node1&#45;&gt;Node6</title>
<path fill="none" stroke="#191970" d="M211.224,-170.0953C258.1363,-159.4161 341.2583,-140.494 388.0362,-129.8454"/>
<polygon fill="#191970" stroke="#191970" points="389.021,-133.2109 397.9946,-127.5785 387.4672,-126.3855 389.021,-133.2109"/>
</g>
<!-- Node7&#45;&gt;Node8 -->
<g id="edge8" class="edge">
<title>Node7&#45;&gt;Node8</title>
<path fill="none" stroke="#191970" d="M625.4937,-112.2455C622.4265,-104.7776 618.0997,-94.2427 614.3503,-85.1137"/>
<polygon fill="#191970" stroke="#191970" points="617.4972,-83.5631 610.4604,-75.6427 611.0221,-86.2226 617.4972,-83.5631"/>
</g>
<!-- Node9&#45;&gt;Node7 -->
<g id="edge10" class="edge">
<title>Node9&#45;&gt;Node7</title>
<path fill="none" stroke="#191970" d="M668.3132,-168.2455C661.6411,-160.2958 652.0521,-148.8706 644.0747,-139.3656"/>
<polygon fill="#191970" stroke="#191970" points="646.7026,-137.0524 637.593,-131.6427 641.3408,-141.5525 646.7026,-137.0524"/>
</g>
<!-- Node10&#45;&gt;Node11 -->
<g id="edge12" class="edge">
<title>Node10&#45;&gt;Node11</title>
<path fill="none" stroke="#191970" d="M311.5,-112.2455C311.5,-104.9382 311.5,-94.6944 311.5,-85.7046"/>
<polygon fill="#191970" stroke="#191970" points="315.0001,-85.6426 311.5,-75.6427 308.0001,-85.6427 315.0001,-85.6426"/>
</g>
<!-- Node11&#45;&gt;Node5 -->
<g id="edge13" class="edge">
<title>Node11&#45;&gt;Node5</title>
<path fill="none" stroke="#191970" d="M297.0425,-56.2455C284.4268,-47.7337 265.9056,-35.2375 251.2955,-25.3801"/>
<polygon fill="#191970" stroke="#191970" points="253.0391,-22.3343 242.7918,-19.6427 249.1239,-28.1371 253.0391,-22.3343"/>
</g>
<!-- Node12 -->
<g id="node13" class="node">
<title>Node12</title>
<polygon fill="#ffffff" stroke="#bfbfbf" points="432,-.5 432,-19.5 473,-19.5 473,-.5 432,-.5"/>
<text text-anchor="middle" x="452.5" y="-7.5" font-family="Helvetica,sans-Serif" font-size="10.00" fill="#000000">string</text>
</g>
<!-- Node11&#45;&gt;Node12 -->
<g id="edge14" class="edge">
<title>Node11&#45;&gt;Node12</title>
<path fill="none" stroke="#191970" d="M335.7388,-56.3733C359.7564,-46.8343 396.599,-32.2018 422.4605,-21.9306"/>
<polygon fill="#191970" stroke="#191970" points="423.783,-25.1713 431.7849,-18.2273 421.1992,-18.6657 423.783,-25.1713"/>
</g>
<!-- Node13 -->
<g id="node14" class="node">
<title>Node13</title>
<polygon fill="#ffffff" stroke="#bfbfbf" points="290,-.5 290,-19.5 333,-19.5 333,-.5 290,-.5"/>
<text text-anchor="middle" x="311.5" y="-7.5" font-family="Helvetica,sans-Serif" font-size="10.00" fill="#000000">cstdio</text>
</g>
<!-- Node11&#45;&gt;Node13 -->
<g id="edge15" class="edge">
<title>Node11&#45;&gt;Node13</title>
<path fill="none" stroke="#191970" d="M311.5,-56.2455C311.5,-48.9382 311.5,-38.6944 311.5,-29.7046"/>
<polygon fill="#191970" stroke="#191970" points="315.0001,-29.6426 311.5,-19.6427 308.0001,-29.6427 315.0001,-29.6426"/>
</g>
<!-- Node14&#45;&gt;Node7 -->
<g id="edge18" class="edge">
<title>Node14&#45;&gt;Node7</title>
<path fill="none" stroke="#191970" d="M522.6759,-168.3733C543.4766,-159.3435 574.7917,-145.7494 598.1458,-135.6111"/>
<polygon fill="#191970" stroke="#191970" points="599.8343,-138.6938 607.6135,-131.5011 597.0468,-132.2727 599.8343,-138.6938"/>
</g>
<!-- Node14&#45;&gt;Node10 -->
<g id="edge19" class="edge">
<title>Node14&#45;&gt;Node10</title>
<path fill="none" stroke="#191970" d="M473.8218,-170.0953C442.0126,-160.6704 388.5346,-144.8251 351.7065,-133.913"/>
<polygon fill="#191970" stroke="#191970" points="352.3747,-130.4607 341.7924,-130.9755 350.3861,-137.1723 352.3747,-130.4607"/>
</g>
<!-- Node14&#45;&gt;Node11 -->
<g id="edge20" class="edge">
<title>Node14&#45;&gt;Node11</title>
<path fill="none" stroke="#191970" d="M473.5589,-169.6504C450.1275,-161.7675 415.7531,-148.6778 388.5,-132 365.6916,-118.0422 342.845,-97.4163 328.0332,-82.9468"/>
<polygon fill="#191970" stroke="#191970" points="330.2368,-80.2016 320.6823,-75.623 325.2961,-85.1604 330.2368,-80.2016"/>
</g>
<!-- Node14&#45;&gt;Node12 -->
<g id="edge21" class="edge">
<title>Node14&#45;&gt;Node12</title>
<path fill="none" stroke="#191970" d="M505.5809,-168.0641C511.5537,-155.0632 519.9968,-131.6259 514.5,-112 505.3396,-79.2938 482.4954,-46.6574 467.2437,-27.4075"/>
<polygon fill="#191970" stroke="#191970" points="469.8755,-25.0966 460.8468,-19.5528 464.4477,-29.5169 469.8755,-25.0966"/>
</g>
<!-- Node15 -->
<g id="node16" class="node">
<title>Node15</title>
<polygon fill="#ffffff" stroke="#bfbfbf" points="465.5,-112.5 465.5,-131.5 505.5,-131.5 505.5,-112.5 465.5,-112.5"/>
<text text-anchor="middle" x="485.5" y="-119.5" font-family="Helvetica,sans-Serif" font-size="10.00" fill="#000000">utility</text>
</g>
<!-- Node14&#45;&gt;Node15 -->
<g id="edge22" class="edge">
<title>Node14&#45;&gt;Node15</title>
<path fill="none" stroke="#191970" d="M497.8872,-168.2455C495.9084,-160.8579 493.1256,-150.4689 490.6988,-141.4087"/>
<polygon fill="#191970" stroke="#191970" points="494.0511,-140.3966 488.0829,-131.6427 487.2895,-142.2078 494.0511,-140.3966"/>
</g>
<!-- Node16&#45;&gt;Node6 -->
<g id="edge28" class="edge">
<title>Node16&#45;&gt;Node6</title>
<path fill="none" stroke="#191970" d="M733.43,-169.5921C730.4126,-169.0296 727.4107,-168.4919 724.5,-168 609.124,-148.5009 575.7911,-156.5709 457.1043,-131.8424"/>
<polygon fill="#191970" stroke="#191970" points="457.7787,-128.4077 447.2706,-129.7601 456.3285,-135.2559 457.7787,-128.4077"/>
</g>
<!-- Node17 -->
<g id="node18" class="node">
<title>Node17</title>
<g id="a_node18"><a xlink:href="error_8hpp.html" target="_top" xlink:title="Provides system call error handling. ">
<polygon fill="#ffffff" stroke="#000000" points="677,-112.5 677,-131.5 732,-131.5 732,-112.5 677,-112.5"/>
<text text-anchor="middle" x="704.5" y="-119.5" font-family="Helvetica,sans-Serif" font-size="10.00" fill="#000000">error.hpp</text>
</a>
</g>
</g>
<!-- Node16&#45;&gt;Node17 -->
<g id="edge24" class="edge">
<title>Node16&#45;&gt;Node17</title>
<path fill="none" stroke="#191970" d="M761.4811,-168.2455C751.2902,-159.9746 736.4638,-147.9416 724.4893,-138.2232"/>
<polygon fill="#191970" stroke="#191970" points="726.3514,-135.2268 716.3812,-131.6427 721.9402,-140.662 726.3514,-135.2268"/>
</g>
<!-- Node16&#45;&gt;Node20 -->
<g id="edge27" class="edge">
<title>Node16&#45;&gt;Node20</title>
<path fill="none" stroke="#191970" d="M803.9274,-168.3733C834.7413,-158.6242 882.3716,-143.5547 914.9157,-133.2583"/>
<polygon fill="#191970" stroke="#191970" points="916.0176,-136.5808 924.496,-130.2273 913.906,-129.9068 916.0176,-136.5808"/>
</g>
<!-- Node21 -->
<g id="node22" class="node">
<title>Node21</title>
<polygon fill="#ffffff" stroke="#bfbfbf" points="750.5,-112.5 750.5,-131.5 818.5,-131.5 818.5,-112.5 750.5,-112.5"/>
<text text-anchor="middle" x="784.5" y="-119.5" font-family="Helvetica,sans-Serif" font-size="10.00" fill="#000000">sys/types.h</text>
</g>
<!-- Node16&#45;&gt;Node21 -->
<g id="edge29" class="edge">
<title>Node16&#45;&gt;Node21</title>
<path fill="none" stroke="#191970" d="M775.4161,-168.2455C776.8514,-160.9382 778.8636,-150.6944 780.6295,-141.7046"/>
<polygon fill="#191970" stroke="#191970" points="784.1127,-142.1298 782.6059,-131.6427 777.244,-140.7805 784.1127,-142.1298"/>
</g>
<!-- Node22 -->
<g id="node23" class="node">
<title>Node22</title>
<polygon fill="#ffffff" stroke="#bfbfbf" points="836.5,-112.5 836.5,-131.5 906.5,-131.5 906.5,-112.5 836.5,-112.5"/>
<text text-anchor="middle" x="871.5" y="-119.5" font-family="Helvetica,sans-Serif" font-size="10.00" fill="#000000">sys/sysctl.h</text>
</g>
<!-- Node16&#45;&gt;Node22 -->
<g id="edge30" class="edge">
<title>Node16&#45;&gt;Node22</title>
<path fill="none" stroke="#191970" d="M790.5703,-168.2455C805.747,-159.5731 828.1621,-146.7645 845.5563,-136.825"/>
<polygon fill="#191970" stroke="#191970" points="847.6794,-139.643 854.6253,-131.6427 844.2064,-133.5653 847.6794,-139.643"/>
</g>
<!-- Node18 -->
<g id="node19" class="node">
<title>Node18</title>
<polygon fill="#ffffff" stroke="#bfbfbf" points="664.5,-56.5 664.5,-75.5 708.5,-75.5 708.5,-56.5 664.5,-56.5"/>
<text text-anchor="middle" x="686.5" y="-63.5" font-family="Helvetica,sans-Serif" font-size="10.00" fill="#000000">cerrno</text>
</g>
<!-- Node17&#45;&gt;Node18 -->
<g id="edge25" class="edge">
<title>Node17&#45;&gt;Node18</title>
<path fill="none" stroke="#191970" d="M701.3646,-112.2455C698.99,-104.8579 695.6507,-94.4689 692.7385,-85.4087"/>
<polygon fill="#191970" stroke="#191970" points="695.9917,-84.0919 689.5994,-75.6427 689.3275,-86.234 695.9917,-84.0919"/>
</g>
<!-- Node19 -->
<g id="node20" class="node">
<title>Node19</title>
<polygon fill="#ffffff" stroke="#bfbfbf" points="726.5,-56.5 726.5,-75.5 772.5,-75.5 772.5,-56.5 726.5,-56.5"/>
<text text-anchor="middle" x="749.5" y="-63.5" font-family="Helvetica,sans-Serif" font-size="10.00" fill="#000000">cstring</text>
</g>
<!-- Node17&#45;&gt;Node19 -->
<g id="edge26" class="edge">
<title>Node17&#45;&gt;Node19</title>
<path fill="none" stroke="#191970" d="M712.3384,-112.2455C718.662,-104.3761 727.7224,-93.101 735.3136,-83.6542"/>
<polygon fill="#191970" stroke="#191970" points="738.2158,-85.6302 741.7514,-75.6427 732.7592,-81.2454 738.2158,-85.6302"/>
</g>
</g>
</svg>
