<?xml version="1.0" encoding="UTF-8" standalone="no"?>
<!DOCTYPE svg PUBLIC "-//W3C//DTD SVG 1.1//EN"
 "http://www.w3.org/Graphics/SVG/1.1/DTD/svg11.dtd">
<!-- Generated by graphviz version 2.42.2 ()
 -->
<!-- Title: src/loadplay.cpp Pages: 1 -->
<svg width="600pt" height="196pt"
 viewBox="0.00 0.00 600.00 196.00" xmlns="http://www.w3.org/2000/svg" xmlns:xlink="http://www.w3.org/1999/xlink">
<g id="graph0" class="graph" transform="scale(1 1) rotate(0) translate(4 192)">
<title>src/loadplay.cpp</title>
<polygon fill="white" stroke="transparent" points="-4,4 -4,-192 596,-192 596,4 -4,4"/>
<!-- Node1 -->
<g id="node1" class="node">
<title>Node1</title>
<g id="a_node1"><a xlink:title="Implements loadplay, a bootstrapping tool for libloadplay.">
<polygon fill="#bfbfbf" stroke="black" points="298.5,-168.5 298.5,-187.5 386.5,-187.5 386.5,-168.5 298.5,-168.5"/>
<text text-anchor="middle" x="342.5" y="-175.5" font-family="Helvetica,sans-Serif" font-size="10.00">src/loadplay.cpp</text>
</a>
</g>
</g>
<!-- Node2 -->
<g id="node2" class="node">
<title>Node2</title>
<g id="a_node2"><a xlink:href="Options_8hpp.html" target="_top" xlink:title="Provides the nih::Options functor template, a substitute for getopt(3).">
<polygon fill="white" stroke="black" points="263,-112.5 263,-131.5 332,-131.5 332,-112.5 263,-112.5"/>
<text text-anchor="middle" x="297.5" y="-119.5" font-family="Helvetica,sans-Serif" font-size="10.00">Options.hpp</text>
</a>
</g>
</g>
<!-- Node1&#45;&gt;Node2 -->
<g id="edge1" class="edge">
<title>Node1&#45;&gt;Node2</title>
<path fill="none" stroke="midnightblue" d="M335.07,-168.08C328.65,-160.38 319.19,-149.03 311.38,-139.65"/>
<polygon fill="midnightblue" stroke="midnightblue" points="313.88,-137.19 304.79,-131.75 308.51,-141.67 313.88,-137.19"/>
</g>
<!-- Node3 -->
<g id="node3" class="node">
<title>Node3</title>
<g id="a_node3"><a xlink:href="utility_8hpp.html" target="_top" xlink:title="Implements generally useful functions.">
<polygon fill="white" stroke="black" points="127,-56.5 127,-75.5 186,-75.5 186,-56.5 127,-56.5"/>
<text text-anchor="middle" x="156.5" y="-63.5" font-family="Helvetica,sans-Serif" font-size="10.00">utility.hpp</text>
</a>
</g>
</g>
<!-- Node1&#45;&gt;Node3 -->
<g id="edge13" class="edge">
<title>Node1&#45;&gt;Node3</title>
<path fill="none" stroke="midnightblue" d="M298.36,-176.56C260.87,-173.81 208.11,-163.93 175.5,-132 163.3,-120.06 158.83,-100.75 157.24,-86.28"/>
<polygon fill="midnightblue" stroke="midnightblue" points="160.71,-85.66 156.5,-75.94 153.72,-86.17 160.71,-85.66"/>
</g>
<!-- Node11 -->
<g id="node11" class="node">
<title>Node11</title>
<g id="a_node11"><a xlink:href="errors_8hpp.html" target="_top" xlink:title="Common error handling code.">
<polygon fill="white" stroke="black" points="184.5,-112.5 184.5,-131.5 244.5,-131.5 244.5,-112.5 184.5,-112.5"/>
<text text-anchor="middle" x="214.5" y="-119.5" font-family="Helvetica,sans-Serif" font-size="10.00">errors.hpp</text>
</a>
</g>
</g>
<!-- Node1&#45;&gt;Node11 -->
<g id="edge11" class="edge">
<title>Node1&#45;&gt;Node11</title>
<path fill="none" stroke="midnightblue" d="M322.22,-168.44C301.15,-159.56 267.98,-145.56 244.01,-135.45"/>
<polygon fill="midnightblue" stroke="midnightblue" points="245.26,-132.18 234.69,-131.52 242.54,-138.63 245.26,-132.18"/>
</g>
<!-- Node12 -->
<g id="node12" class="node">
<title>Node12</title>
<g id="a_node12"><a xlink:href="env_8hpp.html" target="_top" xlink:title="Implements zero&#45;cost abstractions for the getenv(3) facilities.">
<polygon fill="white" stroke="black" points="451.5,-112.5 451.5,-131.5 521.5,-131.5 521.5,-112.5 451.5,-112.5"/>
<text text-anchor="middle" x="486.5" y="-119.5" font-family="Helvetica,sans-Serif" font-size="10.00">sys/env.hpp</text>
</a>
</g>
</g>
<!-- Node1&#45;&gt;Node12 -->
<g id="edge14" class="edge">
<title>Node1&#45;&gt;Node12</title>
<path fill="none" stroke="midnightblue" d="M365.32,-168.44C389.33,-159.44 427.33,-145.19 454.37,-135.05"/>
<polygon fill="midnightblue" stroke="midnightblue" points="455.66,-138.3 463.79,-131.52 453.2,-131.75 455.66,-138.3"/>
</g>
<!-- Node17 -->
<g id="node17" class="node">
<title>Node17</title>
<g id="a_node17"><a xlink:href="io_8hpp.html" target="_top" xlink:title="Implements c++ wrappers for &lt;cstdio&gt; I/O functionality.">
<polygon fill="white" stroke="black" points="356.5,-112.5 356.5,-131.5 418.5,-131.5 418.5,-112.5 356.5,-112.5"/>
<text text-anchor="middle" x="387.5" y="-119.5" font-family="Helvetica,sans-Serif" font-size="10.00">sys/io.hpp</text>
</a>
</g>
</g>
<!-- Node1&#45;&gt;Node17 -->
<g id="edge19" class="edge">
<title>Node1&#45;&gt;Node17</title>
<path fill="none" stroke="midnightblue" d="M349.93,-168.08C356.35,-160.38 365.81,-149.03 373.62,-139.65"/>
<polygon fill="midnightblue" stroke="midnightblue" points="376.49,-141.67 380.21,-131.75 371.12,-137.19 376.49,-141.67"/>
</g>
<!-- Node19 -->
<g id="node19" class="node">
<title>Node19</title>
<g id="a_node19"><a xlink:title=" ">
<polygon fill="white" stroke="#bfbfbf" points="540,-112.5 540,-131.5 591,-131.5 591,-112.5 540,-112.5"/>
<text text-anchor="middle" x="565.5" y="-119.5" font-family="Helvetica,sans-Serif" font-size="10.00">unistd.h</text>
</a>
</g>
</g>
<!-- Node1&#45;&gt;Node19 -->
<g id="edge22" class="edge">
<title>Node1&#45;&gt;Node19</title>
<path fill="none" stroke="midnightblue" d="M378.94,-168.47C414.84,-160.02 471.52,-146.57 530.1,-132.07"/>
<polygon fill="midnightblue" stroke="midnightblue" points="531.04,-135.44 539.9,-129.64 529.35,-128.65 531.04,-135.44"/>
</g>
<!-- Node2&#45;&gt;Node3 -->
<g id="edge2" class="edge">
<title>Node2&#45;&gt;Node3</title>
<path fill="none" stroke="midnightblue" d="M275.16,-112.44C251.75,-103.48 214.76,-89.31 188.31,-79.18"/>
<polygon fill="midnightblue" stroke="midnightblue" points="189.33,-75.82 178.74,-75.52 186.82,-82.36 189.33,-75.82"/>
</g>
<!-- Node4 -->
<g id="node4" class="node">
<title>Node4</title>
<g id="a_node4"><a xlink:title=" ">
<polygon fill="white" stroke="#bfbfbf" points="197.5,-0.5 197.5,-19.5 259.5,-19.5 259.5,-0.5 197.5,-0.5"/>
<text text-anchor="middle" x="228.5" y="-7.5" font-family="Helvetica,sans-Serif" font-size="10.00">type_traits</text>
</a>
</g>
</g>
<!-- Node2&#45;&gt;Node4 -->
<g id="edge9" class="edge">
<title>Node2&#45;&gt;Node4</title>
<path fill="none" stroke="midnightblue" d="M277.02,-112.46C262.21,-105.11 243.17,-93 233.5,-76 225.54,-62.01 224.88,-43.51 225.87,-29.83"/>
<polygon fill="midnightblue" stroke="midnightblue" points="229.37,-29.98 226.96,-19.67 222.41,-29.23 229.37,-29.98"/>
</g>
<!-- Node9 -->
<g id="node9" class="node">
<title>Node9</title>
<g id="a_node9"><a xlink:title=" ">
<polygon fill="white" stroke="#bfbfbf" points="243,-56.5 243,-75.5 292,-75.5 292,-56.5 243,-56.5"/>
<text text-anchor="middle" x="267.5" y="-63.5" font-family="Helvetica,sans-Serif" font-size="10.00">cstddef</text>
</a>
</g>
</g>
<!-- Node2&#45;&gt;Node9 -->
<g id="edge8" class="edge">
<title>Node2&#45;&gt;Node9</title>
<path fill="none" stroke="midnightblue" d="M292.55,-112.08C288.4,-104.61 282.35,-93.72 277.23,-84.52"/>
<polygon fill="midnightblue" stroke="midnightblue" points="280.28,-82.79 272.36,-75.75 274.16,-86.19 280.28,-82.79"/>
</g>
<!-- Node10 -->
<g id="node10" class="node">
<title>Node10</title>
<g id="a_node10"><a xlink:title=" ">
<polygon fill="white" stroke="#bfbfbf" points="310,-56.5 310,-75.5 359,-75.5 359,-56.5 310,-56.5"/>
<text text-anchor="middle" x="334.5" y="-63.5" font-family="Helvetica,sans-Serif" font-size="10.00">cassert</text>
</a>
</g>
</g>
<!-- Node2&#45;&gt;Node10 -->
<g id="edge10" class="edge">
<title>Node2&#45;&gt;Node10</title>
<path fill="none" stroke="midnightblue" d="M303.61,-112.08C308.78,-104.53 316.35,-93.49 322.69,-84.23"/>
<polygon fill="midnightblue" stroke="midnightblue" points="325.74,-85.98 328.5,-75.75 319.96,-82.02 325.74,-85.98"/>
</g>
<!-- Node3&#45;&gt;Node4 -->
<g id="edge3" class="edge">
<title>Node3&#45;&gt;Node4</title>
<path fill="none" stroke="midnightblue" d="M168.07,-56.32C178.92,-48.18 195.38,-35.84 208.38,-26.09"/>
<polygon fill="midnightblue" stroke="midnightblue" points="210.82,-28.63 216.72,-19.83 206.62,-23.03 210.82,-28.63"/>
</g>
<!-- Node5 -->
<g id="node5" class="node">
<title>Node5</title>
<g id="a_node5"><a xlink:title=" ">
<polygon fill="white" stroke="#bfbfbf" points="59.5,-0.5 59.5,-19.5 115.5,-19.5 115.5,-0.5 59.5,-0.5"/>
<text text-anchor="middle" x="87.5" y="-7.5" font-family="Helvetica,sans-Serif" font-size="10.00">charconv</text>
</a>
</g>
</g>
<!-- Node3&#45;&gt;Node5 -->
<g id="edge4" class="edge">
<title>Node3&#45;&gt;Node5</title>
<path fill="none" stroke="midnightblue" d="M145.41,-56.32C135.01,-48.18 119.24,-35.84 106.78,-26.09"/>
<polygon fill="midnightblue" stroke="midnightblue" points="108.82,-23.24 98.79,-19.83 104.51,-28.75 108.82,-23.24"/>
</g>
<!-- Node6 -->
<g id="node6" class="node">
<title>Node6</title>
<g id="a_node6"><a xlink:title=" ">
<polygon fill="white" stroke="#bfbfbf" points="133.5,-0.5 133.5,-19.5 179.5,-19.5 179.5,-0.5 133.5,-0.5"/>
<text text-anchor="middle" x="156.5" y="-7.5" font-family="Helvetica,sans-Serif" font-size="10.00">cctype</text>
</a>
</g>
</g>
<!-- Node3&#45;&gt;Node6 -->
<g id="edge5" class="edge">
<title>Node3&#45;&gt;Node6</title>
<path fill="none" stroke="midnightblue" d="M156.5,-56.08C156.5,-49.01 156.5,-38.86 156.5,-29.99"/>
<polygon fill="midnightblue" stroke="midnightblue" points="160,-29.75 156.5,-19.75 153,-29.75 160,-29.75"/>
</g>
<!-- Node7 -->
<g id="node7" class="node">
<title>Node7</title>
<g id="a_node7"><a xlink:title=" ">
<polygon fill="white" stroke="#bfbfbf" points="0,-0.5 0,-19.5 41,-19.5 41,-0.5 0,-0.5"/>
<text text-anchor="middle" x="20.5" y="-7.5" font-family="Helvetica,sans-Serif" font-size="10.00">string</text>
</a>
</g>
</g>
<!-- Node3&#45;&gt;Node7 -->
<g id="edge6" class="edge">
<title>Node3&#45;&gt;Node7</title>
<path fill="none" stroke="midnightblue" d="M134.95,-56.44C112.2,-47.41 76.18,-33.11 50.62,-22.96"/>
<polygon fill="midnightblue" stroke="midnightblue" points="51.64,-19.6 41.06,-19.16 49.06,-26.11 51.64,-19.6"/>
</g>
<!-- Node8 -->
<g id="node8" class="node">
<title>Node8</title>
<g id="a_node8"><a xlink:title=" ">
<polygon fill="white" stroke="#bfbfbf" points="348,-0.5 348,-19.5 391,-19.5 391,-0.5 348,-0.5"/>
<text text-anchor="middle" x="369.5" y="-7.5" font-family="Helvetica,sans-Serif" font-size="10.00">cstdio</text>
</a>
</g>
</g>
<!-- Node3&#45;&gt;Node8 -->
<g id="edge7" class="edge">
<title>Node3&#45;&gt;Node8</title>
<path fill="none" stroke="midnightblue" d="M186.12,-57.49C226.16,-47.34 297.26,-29.32 338.17,-18.94"/>
<polygon fill="midnightblue" stroke="midnightblue" points="339.05,-22.33 347.88,-16.48 337.33,-15.55 339.05,-22.33"/>
</g>
<!-- Node11&#45;&gt;Node3 -->
<g id="edge12" class="edge">
<title>Node11&#45;&gt;Node3</title>
<path fill="none" stroke="midnightblue" d="M205.18,-112.32C196.61,-104.34 183.69,-92.31 173.31,-82.65"/>
<polygon fill="midnightblue" stroke="midnightblue" points="175.69,-80.09 165.99,-75.83 170.92,-85.21 175.69,-80.09"/>
</g>
<!-- Node13 -->
<g id="node13" class="node">
<title>Node13</title>
<g id="a_node13"><a xlink:href="error_8hpp.html" target="_top" xlink:title="Provides system call error handling.">
<polygon fill="white" stroke="black" points="474,-56.5 474,-75.5 529,-75.5 529,-56.5 474,-56.5"/>
<text text-anchor="middle" x="501.5" y="-63.5" font-family="Helvetica,sans-Serif" font-size="10.00">error.hpp</text>
</a>
</g>
</g>
<!-- Node12&#45;&gt;Node13 -->
<g id="edge15" class="edge">
<title>Node12&#45;&gt;Node13</title>
<path fill="none" stroke="midnightblue" d="M488.98,-112.08C490.99,-104.85 493.89,-94.41 496.39,-85.4"/>
<polygon fill="midnightblue" stroke="midnightblue" points="499.76,-86.32 499.07,-75.75 493.02,-84.45 499.76,-86.32"/>
</g>
<!-- Node16 -->
<g id="node16" class="node">
<title>Node16</title>
<g id="a_node16"><a xlink:title=" ">
<polygon fill="white" stroke="#bfbfbf" points="547,-56.5 547,-75.5 592,-75.5 592,-56.5 547,-56.5"/>
<text text-anchor="middle" x="569.5" y="-63.5" font-family="Helvetica,sans-Serif" font-size="10.00">cstdlib</text>
</a>
</g>
</g>
<!-- Node12&#45;&gt;Node16 -->
<g id="edge18" class="edge">
<title>Node12&#45;&gt;Node16</title>
<path fill="none" stroke="midnightblue" d="M499.84,-112.32C512.66,-103.98 532.28,-91.21 547.44,-81.35"/>
<polygon fill="midnightblue" stroke="midnightblue" points="549.72,-84.04 556.2,-75.65 545.91,-78.17 549.72,-84.04"/>
</g>
<!-- Node14 -->
<g id="node14" class="node">
<title>Node14</title>
<g id="a_node14"><a xlink:title=" ">
<polygon fill="white" stroke="#bfbfbf" points="498.5,-0.5 498.5,-19.5 542.5,-19.5 542.5,-0.5 498.5,-0.5"/>
<text text-anchor="middle" x="520.5" y="-7.5" font-family="Helvetica,sans-Serif" font-size="10.00">cerrno</text>
</a>
</g>
</g>
<!-- Node13&#45;&gt;Node14 -->
<g id="edge16" class="edge">
<title>Node13&#45;&gt;Node14</title>
<path fill="none" stroke="midnightblue" d="M504.64,-56.08C507.18,-48.85 510.86,-38.41 514.03,-29.4"/>
<polygon fill="midnightblue" stroke="midnightblue" points="517.4,-30.35 517.42,-19.75 510.8,-28.02 517.4,-30.35"/>
</g>
<!-- Node15 -->
<g id="node15" class="node">
<title>Node15</title>
<g id="a_node15"><a xlink:title=" ">
<polygon fill="white" stroke="#bfbfbf" points="434.5,-0.5 434.5,-19.5 480.5,-19.5 480.5,-0.5 434.5,-0.5"/>
<text text-anchor="middle" x="457.5" y="-7.5" font-family="Helvetica,sans-Serif" font-size="10.00">cstring</text>
</a>
</g>
</g>
<!-- Node13&#45;&gt;Node15 -->
<g id="edge17" class="edge">
<title>Node13&#45;&gt;Node15</title>
<path fill="none" stroke="midnightblue" d="M494.23,-56.08C487.96,-48.38 478.71,-37.03 471.07,-27.65"/>
<polygon fill="midnightblue" stroke="midnightblue" points="473.66,-25.29 464.63,-19.75 468.23,-29.71 473.66,-25.29"/>
</g>
<!-- Node17&#45;&gt;Node8 -->
<g id="edge20" class="edge">
<title>Node17&#45;&gt;Node8</title>
<path fill="none" stroke="midnightblue" d="M386.09,-112.37C383.18,-94.62 376.48,-53.67 372.54,-29.6"/>
<polygon fill="midnightblue" stroke="midnightblue" points="375.97,-28.89 370.91,-19.59 369.07,-30.03 375.97,-28.89"/>
</g>
<!-- Node18 -->
<g id="node18" class="node">
<title>Node18</title>
<g id="a_node18"><a xlink:title=" ">
<polygon fill="white" stroke="#bfbfbf" points="415.5,-56.5 415.5,-75.5 455.5,-75.5 455.5,-56.5 415.5,-56.5"/>
<text text-anchor="middle" x="435.5" y="-63.5" font-family="Helvetica,sans-Serif" font-size="10.00">utility</text>
</a>
</g>
</g>
<!-- Node17&#45;&gt;Node18 -->
<g id="edge21" class="edge">
<title>Node17&#45;&gt;Node18</title>
<path fill="none" stroke="midnightblue" d="M395.43,-112.08C402.35,-104.3 412.57,-92.8 420.95,-83.37"/>
<polygon fill="midnightblue" stroke="midnightblue" points="423.69,-85.55 427.72,-75.75 418.46,-80.9 423.69,-85.55"/>
</g>
</g>
</svg>
