<?xml version="1.0" encoding="UTF-8" standalone="no"?>
<!DOCTYPE svg PUBLIC "-//W3C//DTD SVG 1.1//EN"
 "http://www.w3.org/Graphics/SVG/1.1/DTD/svg11.dtd">
<!-- Generated by graphviz version 2.40.1 (20161225.0304)
 -->
<!-- Title: src/loadrec.cpp Pages: 1 -->
<svg width="1264pt" height="252pt"
 viewBox="0.00 0.00 1263.50 252.00" xmlns="http://www.w3.org/2000/svg" xmlns:xlink="http://www.w3.org/1999/xlink">
<g id="graph0" class="graph" transform="scale(1 1) rotate(0) translate(4 248)">
<title>src/loadrec.cpp</title>
<polygon fill="#ffffff" stroke="transparent" points="-4,4 -4,-248 1259.5,-248 1259.5,4 -4,4"/>
<!-- Node0 -->
<g id="node1" class="node">
<title>Node0</title>
<g id="a_node1"><a xlink:title="Implements a load recorder, useful for simulating loads to test CPU clock daemons and settings.">
<polygon fill="#bfbfbf" stroke="#000000" points="703.5,-224.5 703.5,-243.5 786.5,-243.5 786.5,-224.5 703.5,-224.5"/>
<text text-anchor="middle" x="745" y="-231.5" font-family="Helvetica,sans-Serif" font-size="10.00" fill="#000000">src/loadrec.cpp</text>
</a>
</g>
</g>
<!-- Node1 -->
<g id="node2" class="node">
<title>Node1</title>
<g id="a_node2"><a xlink:href="Options_8hpp.html" target="_top" xlink:title="This file provides nih::Options&lt;&gt;, a substitute for getopt(3).">
<polygon fill="#ffffff" stroke="#000000" points="127.5,-168.5 127.5,-187.5 196.5,-187.5 196.5,-168.5 127.5,-168.5"/>
<text text-anchor="middle" x="162" y="-175.5" font-family="Helvetica,sans-Serif" font-size="10.00" fill="#000000">Options.hpp</text>
</a>
</g>
</g>
<!-- Node0&#45;&gt;Node1 -->
<g id="edge1" class="edge">
<title>Node0&#45;&gt;Node1</title>
<path fill="none" stroke="#191970" d="M703.3792,-230.7286C616.9466,-223.8205 411.7432,-206.8247 240,-188 229.2013,-186.8164 217.58,-185.4024 206.6907,-184.0157"/>
<polygon fill="#191970" stroke="#191970" points="206.8914,-180.5126 196.5254,-182.7029 205.9947,-187.455 206.8914,-180.5126"/>
</g>
<!-- Node7 -->
<g id="node8" class="node">
<title>Node7</title>
<g id="a_node8"><a xlink:href="types_8hpp.html" target="_top" xlink:title="A collection of type aliases.">
<polygon fill="#ffffff" stroke="#000000" points="702.5,-112.5 702.5,-131.5 761.5,-131.5 761.5,-112.5 702.5,-112.5"/>
<text text-anchor="middle" x="732" y="-119.5" font-family="Helvetica,sans-Serif" font-size="10.00" fill="#000000">types.hpp</text>
</a>
</g>
</g>
<!-- Node0&#45;&gt;Node7 -->
<g id="edge7" class="edge">
<title>Node0&#45;&gt;Node7</title>
<path fill="none" stroke="#191970" d="M741.1376,-224.3228C737.6962,-215.1446 732.9167,-200.8807 731,-188 728.7301,-172.7458 729.1231,-155.2902 730.0066,-142.1634"/>
<polygon fill="#191970" stroke="#191970" points="733.5187,-142.1605 730.8546,-131.9061 726.5425,-141.5837 733.5187,-142.1605"/>
</g>
<!-- Node8 -->
<g id="node9" class="node">
<title>Node8</title>
<g id="a_node9"><a xlink:title=" ">
<polygon fill="#ffffff" stroke="#bfbfbf" points="686,-56.5 686,-75.5 732,-75.5 732,-56.5 686,-56.5"/>
<text text-anchor="middle" x="709" y="-63.5" font-family="Helvetica,sans-Serif" font-size="10.00" fill="#000000">chrono</text>
</a>
</g>
</g>
<!-- Node0&#45;&gt;Node8 -->
<g id="edge36" class="edge">
<title>Node0&#45;&gt;Node8</title>
<path fill="none" stroke="#191970" d="M738.172,-224.4791C726.1918,-207.1204 701.8203,-168.7214 693,-132 689.2193,-116.2601 694.0961,-98.4194 699.4315,-85.2587"/>
<polygon fill="#191970" stroke="#191970" points="702.758,-86.3939 703.6521,-75.8369 696.3697,-83.5322 702.758,-86.3939"/>
</g>
<!-- Node9 -->
<g id="node10" class="node">
<title>Node9</title>
<g id="a_node10"><a xlink:href="constants_8hpp.html" target="_top" xlink:title="Defines a collection of constants.">
<polygon fill="#ffffff" stroke="#000000" points="740,-168.5 740,-187.5 818,-187.5 818,-168.5 740,-168.5"/>
<text text-anchor="middle" x="779" y="-175.5" font-family="Helvetica,sans-Serif" font-size="10.00" fill="#000000">constants.hpp</text>
</a>
</g>
</g>
<!-- Node0&#45;&gt;Node9 -->
<g id="edge9" class="edge">
<title>Node0&#45;&gt;Node9</title>
<path fill="none" stroke="#191970" d="M750.9223,-224.2455C755.6027,-216.5367 762.2673,-205.5598 767.9289,-196.2348"/>
<polygon fill="#191970" stroke="#191970" points="770.9475,-198.007 773.1455,-187.6427 764.9639,-194.3741 770.9475,-198.007"/>
</g>
<!-- Node10 -->
<g id="node11" class="node">
<title>Node10</title>
<g id="a_node11"><a xlink:href="errors_8hpp.html" target="_top" xlink:title="Common error handling code.">
<polygon fill="#ffffff" stroke="#000000" points="452,-112.5 452,-131.5 512,-131.5 512,-112.5 452,-112.5"/>
<text text-anchor="middle" x="482" y="-119.5" font-family="Helvetica,sans-Serif" font-size="10.00" fill="#000000">errors.hpp</text>
</a>
</g>
</g>
<!-- Node0&#45;&gt;Node10 -->
<g id="edge11" class="edge">
<title>Node0&#45;&gt;Node10</title>
<path fill="none" stroke="#191970" d="M703.3935,-228.1703C666.2116,-221.8351 610.9759,-209.5998 567,-188 541.0099,-175.2343 515.3349,-153.7353 499.1194,-138.7563"/>
<polygon fill="#191970" stroke="#191970" points="501.2209,-135.9264 491.5504,-131.5983 496.4111,-141.0123 501.2209,-135.9264"/>
</g>
<!-- Node11 -->
<g id="node12" class="node">
<title>Node11</title>
<g id="a_node12"><a xlink:href="utility_8hpp.html" target="_top" xlink:title="Implements generally useful functions.">
<polygon fill="#ffffff" stroke="#000000" points="423.5,-56.5 423.5,-75.5 482.5,-75.5 482.5,-56.5 423.5,-56.5"/>
<text text-anchor="middle" x="453" y="-63.5" font-family="Helvetica,sans-Serif" font-size="10.00" fill="#000000">utility.hpp</text>
</a>
</g>
</g>
<!-- Node0&#45;&gt;Node11 -->
<g id="edge16" class="edge">
<title>Node0&#45;&gt;Node11</title>
<path fill="none" stroke="#191970" d="M703.1506,-232.2911C596.1523,-226.8701 317.8562,-205.7864 273,-132 268.3826,-124.4045 267.548,-119.0205 273,-112 290.0486,-90.0467 365.7303,-76.8032 413.3672,-70.4925"/>
<polygon fill="#191970" stroke="#191970" points="413.8905,-73.9542 423.3661,-69.2146 413.0031,-67.0106 413.8905,-73.9542"/>
</g>
<!-- Node14 -->
<g id="node15" class="node">
<title>Node14</title>
<g id="a_node15"><a xlink:href="clas_8hpp.html" target="_top" xlink:title="Implements functions to process command line arguments.">
<polygon fill="#ffffff" stroke="#000000" points="576.5,-168.5 576.5,-187.5 629.5,-187.5 629.5,-168.5 576.5,-168.5"/>
<text text-anchor="middle" x="603" y="-175.5" font-family="Helvetica,sans-Serif" font-size="10.00" fill="#000000">clas.hpp</text>
</a>
</g>
</g>
<!-- Node0&#45;&gt;Node14 -->
<g id="edge17" class="edge">
<title>Node0&#45;&gt;Node14</title>
<path fill="none" stroke="#191970" d="M720.5893,-224.3733C697.3858,-215.2226 662.2962,-201.3844 636.4858,-191.2057"/>
<polygon fill="#191970" stroke="#191970" points="637.6789,-187.9139 627.0921,-187.5011 635.1108,-194.4258 637.6789,-187.9139"/>
</g>
<!-- Node16 -->
<g id="node17" class="node">
<title>Node16</title>
<g id="a_node17"><a xlink:href="version_8hpp.html" target="_top" xlink:title="Defines types and constants used for version management.">
<polygon fill="#ffffff" stroke="#000000" points="390.5,-168.5 390.5,-187.5 457.5,-187.5 457.5,-168.5 390.5,-168.5"/>
<text text-anchor="middle" x="424" y="-175.5" font-family="Helvetica,sans-Serif" font-size="10.00" fill="#000000">version.hpp</text>
</a>
</g>
</g>
<!-- Node0&#45;&gt;Node16 -->
<g id="edge23" class="edge">
<title>Node0&#45;&gt;Node16</title>
<path fill="none" stroke="#191970" d="M703.3639,-226.7364C642.4615,-216.1117 529.611,-196.4243 467.6087,-185.6077"/>
<polygon fill="#191970" stroke="#191970" points="468.1969,-182.1576 457.7441,-183.8868 466.9938,-189.0534 468.1969,-182.1576"/>
</g>
<!-- Node18 -->
<g id="node19" class="node">
<title>Node18</title>
<g id="a_node19"><a xlink:href="sysctl_8hpp.html" target="_top" xlink:title="Implements safer c++ wrappers for the sysctl() interface.">
<polygon fill="#ffffff" stroke="#000000" points="836,-168.5 836,-187.5 916,-187.5 916,-168.5 836,-168.5"/>
<text text-anchor="middle" x="876" y="-175.5" font-family="Helvetica,sans-Serif" font-size="10.00" fill="#000000">sys/sysctl.hpp</text>
</a>
</g>
</g>
<!-- Node0&#45;&gt;Node18 -->
<g id="edge26" class="edge">
<title>Node0&#45;&gt;Node18</title>
<path fill="none" stroke="#191970" d="M767.5197,-224.3733C788.7372,-215.3032 820.7276,-201.6279 844.4769,-191.4755"/>
<polygon fill="#191970" stroke="#191970" points="845.9548,-194.6502 853.7742,-187.5011 843.2033,-188.2136 845.9548,-194.6502"/>
</g>
<!-- Node22 -->
<g id="node23" class="node">
<title>Node22</title>
<g id="a_node23"><a xlink:title=" ">
<polygon fill="#ffffff" stroke="#bfbfbf" points="1027,-112.5 1027,-131.5 1079,-131.5 1079,-112.5 1027,-112.5"/>
<text text-anchor="middle" x="1053" y="-119.5" font-family="Helvetica,sans-Serif" font-size="10.00" fill="#000000">memory</text>
</a>
</g>
</g>
<!-- Node0&#45;&gt;Node22 -->
<g id="edge38" class="edge">
<title>Node0&#45;&gt;Node22</title>
<path fill="none" stroke="#191970" d="M786.601,-226.2596C823.6439,-218.6923 878.9432,-205.7229 925,-188 942.812,-181.1458 946.0582,-176.7876 963,-168 983.6345,-157.2971 1007.0126,-145.3538 1024.7698,-136.3196"/>
<polygon fill="#191970" stroke="#191970" points="1026.6748,-139.2775 1034.0035,-131.6262 1023.503,-133.0373 1026.6748,-139.2775"/>
</g>
<!-- Node25 -->
<g id="node26" class="node">
<title>Node25</title>
<g id="a_node26"><a xlink:title=" ">
<polygon fill="#ffffff" stroke="#bfbfbf" points="972,-168.5 972,-187.5 1026,-187.5 1026,-168.5 972,-168.5"/>
<text text-anchor="middle" x="999" y="-175.5" font-family="Helvetica,sans-Serif" font-size="10.00" fill="#000000">iostream</text>
</a>
</g>
</g>
<!-- Node0&#45;&gt;Node25 -->
<g id="edge34" class="edge">
<title>Node0&#45;&gt;Node25</title>
<path fill="none" stroke="#191970" d="M786.7032,-225.3352C829.6969,-216.3223 898.6394,-201.6464 958,-188 959.2451,-187.7138 960.5108,-187.4201 961.7886,-187.1214"/>
<polygon fill="#191970" stroke="#191970" points="962.7573,-190.4887 971.6769,-184.7711 961.1385,-183.6785 962.7573,-190.4887"/>
</g>
<!-- Node26 -->
<g id="node27" class="node">
<title>Node26</title>
<g id="a_node27"><a xlink:title=" ">
<polygon fill="#ffffff" stroke="#bfbfbf" points="1044,-168.5 1044,-187.5 1094,-187.5 1094,-168.5 1044,-168.5"/>
<text text-anchor="middle" x="1069" y="-175.5" font-family="Helvetica,sans-Serif" font-size="10.00" fill="#000000">fstream</text>
</a>
</g>
</g>
<!-- Node0&#45;&gt;Node26 -->
<g id="edge35" class="edge">
<title>Node0&#45;&gt;Node26</title>
<path fill="none" stroke="#191970" d="M786.6191,-229.1103C841.2927,-222.3118 940.4058,-208.6985 1033.9368,-188.0138"/>
<polygon fill="#191970" stroke="#191970" points="1034.8523,-191.3954 1043.8436,-185.7911 1033.3199,-184.5652 1034.8523,-191.3954"/>
</g>
<!-- Node27 -->
<g id="node28" class="node">
<title>Node27</title>
<g id="a_node28"><a xlink:title=" ">
<polygon fill="#ffffff" stroke="#bfbfbf" points="1112,-168.5 1112,-187.5 1156,-187.5 1156,-168.5 1112,-168.5"/>
<text text-anchor="middle" x="1134" y="-175.5" font-family="Helvetica,sans-Serif" font-size="10.00" fill="#000000">thread</text>
</a>
</g>
</g>
<!-- Node0&#45;&gt;Node27 -->
<g id="edge37" class="edge">
<title>Node0&#45;&gt;Node27</title>
<path fill="none" stroke="#191970" d="M786.5022,-231.1627C851.8187,-226.1567 982.6114,-213.9475 1101.7648,-187.9345"/>
<polygon fill="#191970" stroke="#191970" points="1102.7821,-191.2939 1111.7846,-185.7078 1101.2634,-184.4606 1102.7821,-191.2939"/>
</g>
<!-- Node28 -->
<g id="node29" class="node">
<title>Node28</title>
<g id="a_node29"><a xlink:title=" ">
<polygon fill="#ffffff" stroke="#bfbfbf" points="1174.5,-168.5 1174.5,-187.5 1255.5,-187.5 1255.5,-168.5 1174.5,-168.5"/>
<text text-anchor="middle" x="1215" y="-175.5" font-family="Helvetica,sans-Serif" font-size="10.00" fill="#000000">sys/resource.h</text>
</a>
</g>
</g>
<!-- Node0&#45;&gt;Node28 -->
<g id="edge39" class="edge">
<title>Node0&#45;&gt;Node28</title>
<path fill="none" stroke="#191970" d="M786.591,-230.6711C860.4943,-224.4897 1019.7198,-209.9734 1164.4426,-187.9621"/>
<polygon fill="#191970" stroke="#191970" points="1165.0419,-191.4112 1174.3943,-186.433 1163.9787,-184.4924 1165.0419,-191.4112"/>
</g>
<!-- Node2 -->
<g id="node3" class="node">
<title>Node2</title>
<g id="a_node3"><a xlink:title=" ">
<polygon fill="#ffffff" stroke="#bfbfbf" points="108.5,-112.5 108.5,-131.5 157.5,-131.5 157.5,-112.5 108.5,-112.5"/>
<text text-anchor="middle" x="133" y="-119.5" font-family="Helvetica,sans-Serif" font-size="10.00" fill="#000000">cstddef</text>
</a>
</g>
</g>
<!-- Node1&#45;&gt;Node2 -->
<g id="edge2" class="edge">
<title>Node1&#45;&gt;Node2</title>
<path fill="none" stroke="#191970" d="M156.9486,-168.2455C152.9981,-160.617 147.3903,-149.7881 142.5942,-140.5267"/>
<polygon fill="#191970" stroke="#191970" points="145.7001,-138.9131 137.9935,-131.6427 139.4841,-142.1321 145.7001,-138.9131"/>
</g>
<!-- Node3 -->
<g id="node4" class="node">
<title>Node3</title>
<g id="a_node4"><a xlink:title=" ">
<polygon fill="#ffffff" stroke="#bfbfbf" points="176,-112.5 176,-131.5 226,-131.5 226,-112.5 176,-112.5"/>
<text text-anchor="middle" x="201" y="-119.5" font-family="Helvetica,sans-Serif" font-size="10.00" fill="#000000">iomanip</text>
</a>
</g>
</g>
<!-- Node1&#45;&gt;Node3 -->
<g id="edge3" class="edge">
<title>Node1&#45;&gt;Node3</title>
<path fill="none" stroke="#191970" d="M168.7933,-168.2455C174.2178,-160.4564 181.9661,-149.3308 188.5033,-139.9439"/>
<polygon fill="#191970" stroke="#191970" points="191.4417,-141.849 194.2846,-131.6427 185.6975,-137.8485 191.4417,-141.849"/>
</g>
<!-- Node4 -->
<g id="node5" class="node">
<title>Node4</title>
<g id="a_node5"><a xlink:title=" ">
<polygon fill="#ffffff" stroke="#bfbfbf" points="0,-112.5 0,-131.5 52,-131.5 52,-112.5 0,-112.5"/>
<text text-anchor="middle" x="26" y="-119.5" font-family="Helvetica,sans-Serif" font-size="10.00" fill="#000000">sstream</text>
</a>
</g>
</g>
<!-- Node1&#45;&gt;Node4 -->
<g id="edge4" class="edge">
<title>Node1&#45;&gt;Node4</title>
<path fill="none" stroke="#191970" d="M138.6208,-168.3733C116.4955,-159.2629 83.0866,-145.5062 58.3981,-135.3404"/>
<polygon fill="#191970" stroke="#191970" points="59.6536,-132.0723 49.0742,-131.5011 56.9883,-138.5451 59.6536,-132.0723"/>
</g>
<!-- Node5 -->
<g id="node6" class="node">
<title>Node5</title>
<g id="a_node6"><a xlink:title=" ">
<polygon fill="#ffffff" stroke="#bfbfbf" points="215,-.5 215,-19.5 277,-19.5 277,-.5 215,-.5"/>
<text text-anchor="middle" x="246" y="-7.5" font-family="Helvetica,sans-Serif" font-size="10.00" fill="#000000">type_traits</text>
</a>
</g>
</g>
<!-- Node1&#45;&gt;Node5 -->
<g id="edge5" class="edge">
<title>Node1&#45;&gt;Node5</title>
<path fill="none" stroke="#191970" d="M140.4111,-168.3238C117.6492,-156.6344 86.6617,-135.579 99,-112 122.1032,-67.8491 173.9742,-38.9788 209.4875,-23.5751"/>
<polygon fill="#191970" stroke="#191970" points="211.1556,-26.6714 219.0327,-19.5861 208.4565,-20.2127 211.1556,-26.6714"/>
</g>
<!-- Node6 -->
<g id="node7" class="node">
<title>Node6</title>
<g id="a_node7"><a xlink:title=" ">
<polygon fill="#ffffff" stroke="#bfbfbf" points="346.5,-112.5 346.5,-131.5 395.5,-131.5 395.5,-112.5 346.5,-112.5"/>
<text text-anchor="middle" x="371" y="-119.5" font-family="Helvetica,sans-Serif" font-size="10.00" fill="#000000">cassert</text>
</a>
</g>
</g>
<!-- Node1&#45;&gt;Node6 -->
<g id="edge6" class="edge">
<title>Node1&#45;&gt;Node6</title>
<path fill="none" stroke="#191970" d="M196.6125,-169.2175C229.9706,-160.6835 282.1004,-147.1649 336.3504,-132.1262"/>
<polygon fill="#191970" stroke="#191970" points="337.4458,-135.4545 346.1415,-129.4017 335.5692,-128.7107 337.4458,-135.4545"/>
</g>
<!-- Node7&#45;&gt;Node8 -->
<g id="edge8" class="edge">
<title>Node7&#45;&gt;Node8</title>
<path fill="none" stroke="#191970" d="M727.9937,-112.2455C724.9265,-104.7776 720.5997,-94.2427 716.8503,-85.1137"/>
<polygon fill="#191970" stroke="#191970" points="719.9972,-83.5631 712.9604,-75.6427 713.5221,-86.2226 719.9972,-83.5631"/>
</g>
<!-- Node9&#45;&gt;Node7 -->
<g id="edge10" class="edge">
<title>Node9&#45;&gt;Node7</title>
<path fill="none" stroke="#191970" d="M770.8132,-168.2455C764.1411,-160.2958 754.5521,-148.8706 746.5747,-139.3656"/>
<polygon fill="#191970" stroke="#191970" points="749.2026,-137.0524 740.093,-131.6427 743.8408,-141.5525 749.2026,-137.0524"/>
</g>
<!-- Node10&#45;&gt;Node11 -->
<g id="edge12" class="edge">
<title>Node10&#45;&gt;Node11</title>
<path fill="none" stroke="#191970" d="M476.9486,-112.2455C472.9981,-104.617 467.3903,-93.7881 462.5942,-84.5267"/>
<polygon fill="#191970" stroke="#191970" points="465.7001,-82.9131 457.9935,-75.6427 459.4841,-86.1321 465.7001,-82.9131"/>
</g>
<!-- Node11&#45;&gt;Node5 -->
<g id="edge13" class="edge">
<title>Node11&#45;&gt;Node5</title>
<path fill="none" stroke="#191970" d="M423.3419,-57.9766C387.5808,-48.3021 327.279,-31.9885 287.0615,-21.1084"/>
<polygon fill="#191970" stroke="#191970" points="287.8636,-17.6997 277.2966,-18.4667 286.0355,-24.4568 287.8636,-17.6997"/>
</g>
<!-- Node12 -->
<g id="node13" class="node">
<title>Node12</title>
<g id="a_node13"><a xlink:title=" ">
<polygon fill="#ffffff" stroke="#bfbfbf" points="539.5,-.5 539.5,-19.5 580.5,-19.5 580.5,-.5 539.5,-.5"/>
<text text-anchor="middle" x="560" y="-7.5" font-family="Helvetica,sans-Serif" font-size="10.00" fill="#000000">string</text>
</a>
</g>
</g>
<!-- Node11&#45;&gt;Node12 -->
<g id="edge14" class="edge">
<title>Node11&#45;&gt;Node12</title>
<path fill="none" stroke="#191970" d="M471.638,-56.2455C488.4386,-47.4527 513.3634,-34.4079 532.4618,-24.4125"/>
<polygon fill="#191970" stroke="#191970" points="534.3386,-27.3807 541.5756,-19.6427 531.0927,-21.1787 534.3386,-27.3807"/>
</g>
<!-- Node13 -->
<g id="node14" class="node">
<title>Node13</title>
<g id="a_node14"><a xlink:title=" ">
<polygon fill="#ffffff" stroke="#bfbfbf" points="431.5,-.5 431.5,-19.5 474.5,-19.5 474.5,-.5 431.5,-.5"/>
<text text-anchor="middle" x="453" y="-7.5" font-family="Helvetica,sans-Serif" font-size="10.00" fill="#000000">cstdio</text>
</a>
</g>
</g>
<!-- Node11&#45;&gt;Node13 -->
<g id="edge15" class="edge">
<title>Node11&#45;&gt;Node13</title>
<path fill="none" stroke="#191970" d="M453,-56.2455C453,-48.9382 453,-38.6944 453,-29.7046"/>
<polygon fill="#191970" stroke="#191970" points="456.5001,-29.6426 453,-19.6427 449.5001,-29.6427 456.5001,-29.6426"/>
</g>
<!-- Node14&#45;&gt;Node7 -->
<g id="edge18" class="edge">
<title>Node14&#45;&gt;Node7</title>
<path fill="none" stroke="#191970" d="M625.1759,-168.3733C645.9766,-159.3435 677.2917,-145.7494 700.6458,-135.6111"/>
<polygon fill="#191970" stroke="#191970" points="702.3343,-138.6938 710.1135,-131.5011 699.5468,-132.2727 702.3343,-138.6938"/>
</g>
<!-- Node14&#45;&gt;Node10 -->
<g id="edge19" class="edge">
<title>Node14&#45;&gt;Node10</title>
<path fill="none" stroke="#191970" d="M582.1994,-168.3733C562.7757,-159.3838 533.5776,-145.8706 511.7036,-135.7471"/>
<polygon fill="#191970" stroke="#191970" points="513.0745,-132.5249 502.5292,-131.5011 510.1344,-138.8776 513.0745,-132.5249"/>
</g>
<!-- Node14&#45;&gt;Node11 -->
<g id="edge20" class="edge">
<title>Node14&#45;&gt;Node11</title>
<path fill="none" stroke="#191970" d="M591.5606,-168.2911C575.9267,-155.1393 546.8702,-131.1105 521,-112 506.469,-101.2659 489.6575,-89.8846 476.3859,-81.1283"/>
<polygon fill="#191970" stroke="#191970" points="478.1176,-78.0786 467.8349,-75.5259 474.2814,-83.9338 478.1176,-78.0786"/>
</g>
<!-- Node14&#45;&gt;Node12 -->
<g id="edge21" class="edge">
<title>Node14&#45;&gt;Node12</title>
<path fill="none" stroke="#191970" d="M607.9702,-168.094C613.8233,-155.1255 622.137,-131.7231 617,-112 608.6576,-79.9703 587.7953,-47.3353 573.7609,-27.8773"/>
<polygon fill="#191970" stroke="#191970" points="576.4503,-25.628 567.6835,-19.6788 570.8269,-29.7966 576.4503,-25.628"/>
</g>
<!-- Node15 -->
<g id="node16" class="node">
<title>Node15</title>
<g id="a_node16"><a xlink:title=" ">
<polygon fill="#ffffff" stroke="#bfbfbf" points="568,-112.5 568,-131.5 608,-131.5 608,-112.5 568,-112.5"/>
<text text-anchor="middle" x="588" y="-119.5" font-family="Helvetica,sans-Serif" font-size="10.00" fill="#000000">utility</text>
</a>
</g>
</g>
<!-- Node14&#45;&gt;Node15 -->
<g id="edge22" class="edge">
<title>Node14&#45;&gt;Node15</title>
<path fill="none" stroke="#191970" d="M600.3872,-168.2455C598.4084,-160.8579 595.6256,-150.4689 593.1988,-141.4087"/>
<polygon fill="#191970" stroke="#191970" points="596.5511,-140.3966 590.5829,-131.6427 589.7895,-142.2078 596.5511,-140.3966"/>
</g>
<!-- Node16&#45;&gt;Node11 -->
<g id="edge24" class="edge">
<title>Node16&#45;&gt;Node11</title>
<path fill="none" stroke="#191970" d="M426.4725,-168.4509C431.2238,-150.1013 441.7131,-109.5908 447.9847,-85.3693"/>
<polygon fill="#191970" stroke="#191970" points="451.4153,-86.083 450.5337,-75.5249 444.6388,-84.3283 451.4153,-86.083"/>
</g>
<!-- Node17 -->
<g id="node18" class="node">
<title>Node17</title>
<g id="a_node18"><a xlink:title=" ">
<polygon fill="#ffffff" stroke="#bfbfbf" points="282,-112.5 282,-131.5 328,-131.5 328,-112.5 282,-112.5"/>
<text text-anchor="middle" x="305" y="-119.5" font-family="Helvetica,sans-Serif" font-size="10.00" fill="#000000">cstdint</text>
</a>
</g>
</g>
<!-- Node16&#45;&gt;Node17 -->
<g id="edge25" class="edge">
<title>Node16&#45;&gt;Node17</title>
<path fill="none" stroke="#191970" d="M403.5432,-168.3733C384.5262,-159.4241 355.9825,-145.9917 334.5024,-135.8835"/>
<polygon fill="#191970" stroke="#191970" points="335.7284,-132.5923 325.1899,-131.5011 332.7478,-138.926 335.7284,-132.5923"/>
</g>
<!-- Node18&#45;&gt;Node6 -->
<g id="edge31" class="edge">
<title>Node18&#45;&gt;Node6</title>
<path fill="none" stroke="#191970" d="M835.9509,-169.4604C832.9286,-168.9283 829.92,-168.4335 827,-168 657.4437,-142.8253 613.2682,-151.7955 443,-132 430.7837,-130.5797 417.4345,-128.7916 405.5852,-127.1216"/>
<polygon fill="#191970" stroke="#191970" points="406.0194,-123.6481 395.6245,-125.6966 405.028,-130.5776 406.0194,-123.6481"/>
</g>
<!-- Node19 -->
<g id="node20" class="node">
<title>Node19</title>
<g id="a_node20"><a xlink:href="error_8hpp.html" target="_top" xlink:title="Provides system call error handling.">
<polygon fill="#ffffff" stroke="#000000" points="779.5,-112.5 779.5,-131.5 834.5,-131.5 834.5,-112.5 779.5,-112.5"/>
<text text-anchor="middle" x="807" y="-119.5" font-family="Helvetica,sans-Serif" font-size="10.00" fill="#000000">error.hpp</text>
</a>
</g>
</g>
<!-- Node18&#45;&gt;Node19 -->
<g id="edge27" class="edge">
<title>Node18&#45;&gt;Node19</title>
<path fill="none" stroke="#191970" d="M863.9811,-168.2455C853.7902,-159.9746 838.9638,-147.9416 826.9893,-138.2232"/>
<polygon fill="#191970" stroke="#191970" points="828.8514,-135.2268 818.8812,-131.6427 824.4402,-140.662 828.8514,-135.2268"/>
</g>
<!-- Node18&#45;&gt;Node22 -->
<g id="edge30" class="edge">
<title>Node18&#45;&gt;Node22</title>
<path fill="none" stroke="#191970" d="M906.4274,-168.3733C937.2413,-158.6242 984.8716,-143.5547 1017.4157,-133.2583"/>
<polygon fill="#191970" stroke="#191970" points="1018.5176,-136.5808 1026.996,-130.2273 1016.406,-129.9068 1018.5176,-136.5808"/>
</g>
<!-- Node23 -->
<g id="node24" class="node">
<title>Node23</title>
<g id="a_node24"><a xlink:title=" ">
<polygon fill="#ffffff" stroke="#bfbfbf" points="853,-112.5 853,-131.5 921,-131.5 921,-112.5 853,-112.5"/>
<text text-anchor="middle" x="887" y="-119.5" font-family="Helvetica,sans-Serif" font-size="10.00" fill="#000000">sys/types.h</text>
</a>
</g>
</g>
<!-- Node18&#45;&gt;Node23 -->
<g id="edge32" class="edge">
<title>Node18&#45;&gt;Node23</title>
<path fill="none" stroke="#191970" d="M877.9161,-168.2455C879.3514,-160.9382 881.3636,-150.6944 883.1295,-141.7046"/>
<polygon fill="#191970" stroke="#191970" points="886.6127,-142.1298 885.1059,-131.6427 879.744,-140.7805 886.6127,-142.1298"/>
</g>
<!-- Node24 -->
<g id="node25" class="node">
<title>Node24</title>
<g id="a_node25"><a xlink:title=" ">
<polygon fill="#ffffff" stroke="#bfbfbf" points="939,-112.5 939,-131.5 1009,-131.5 1009,-112.5 939,-112.5"/>
<text text-anchor="middle" x="974" y="-119.5" font-family="Helvetica,sans-Serif" font-size="10.00" fill="#000000">sys/sysctl.h</text>
</a>
</g>
</g>
<!-- Node18&#45;&gt;Node24 -->
<g id="edge33" class="edge">
<title>Node18&#45;&gt;Node24</title>
<path fill="none" stroke="#191970" d="M893.0703,-168.2455C908.247,-159.5731 930.6621,-146.7645 948.0563,-136.825"/>
<polygon fill="#191970" stroke="#191970" points="950.1794,-139.643 957.1253,-131.6427 946.7064,-133.5653 950.1794,-139.643"/>
</g>
<!-- Node20 -->
<g id="node21" class="node">
<title>Node20</title>
<g id="a_node21"><a xlink:title=" ">
<polygon fill="#ffffff" stroke="#bfbfbf" points="767,-56.5 767,-75.5 811,-75.5 811,-56.5 767,-56.5"/>
<text text-anchor="middle" x="789" y="-63.5" font-family="Helvetica,sans-Serif" font-size="10.00" fill="#000000">cerrno</text>
</a>
</g>
</g>
<!-- Node19&#45;&gt;Node20 -->
<g id="edge28" class="edge">
<title>Node19&#45;&gt;Node20</title>
<path fill="none" stroke="#191970" d="M803.8646,-112.2455C801.49,-104.8579 798.1507,-94.4689 795.2385,-85.4087"/>
<polygon fill="#191970" stroke="#191970" points="798.4917,-84.0919 792.0994,-75.6427 791.8275,-86.234 798.4917,-84.0919"/>
</g>
<!-- Node21 -->
<g id="node22" class="node">
<title>Node21</title>
<g id="a_node22"><a xlink:title=" ">
<polygon fill="#ffffff" stroke="#bfbfbf" points="829,-56.5 829,-75.5 875,-75.5 875,-56.5 829,-56.5"/>
<text text-anchor="middle" x="852" y="-63.5" font-family="Helvetica,sans-Serif" font-size="10.00" fill="#000000">cstring</text>
</a>
</g>
</g>
<!-- Node19&#45;&gt;Node21 -->
<g id="edge29" class="edge">
<title>Node19&#45;&gt;Node21</title>
<path fill="none" stroke="#191970" d="M814.8384,-112.2455C821.162,-104.3761 830.2224,-93.101 837.8136,-83.6542"/>
<polygon fill="#191970" stroke="#191970" points="840.7158,-85.6302 844.2514,-75.6427 835.2592,-81.2454 840.7158,-85.6302"/>
</g>
</g>
</svg>
