<?xml version="1.0" encoding="UTF-8" standalone="no"?>
<!DOCTYPE svg PUBLIC "-//W3C//DTD SVG 1.1//EN"
 "http://www.w3.org/Graphics/SVG/1.1/DTD/svg11.dtd">
<!-- Generated by graphviz version 2.40.1 (20161225.0304)
 -->
<!-- Title: loadrec.cpp Pages: 1 -->
<svg width="1228pt" height="252pt"
 viewBox="0.00 0.00 1227.70 252.00" xmlns="http://www.w3.org/2000/svg" xmlns:xlink="http://www.w3.org/1999/xlink">
<g id="graph0" class="graph" transform="scale(1 1) rotate(0) translate(4 248)">
<title>loadrec.cpp</title>
<polygon fill="#ffffff" stroke="transparent" points="-4,4 -4,-248 1223.7011,-248 1223.7011,4 -4,4"/>
<!-- Node0 -->
<g id="node1" class="node">
<title>Node0</title>
<polygon fill="#bfbfbf" stroke="#000000" points="694.2011,-224.5 694.2011,-243.5 761.2011,-243.5 761.2011,-224.5 694.2011,-224.5"/>
<text text-anchor="middle" x="727.7011" y="-231.5" font-family="Helvetica,sans-Serif" font-size="10.00" fill="#000000">loadrec.cpp</text>
</g>
<!-- Node1 -->
<g id="node2" class="node">
<title>Node1</title>
<g id="a_node2"><a xlink:href="Options_8hpp.html" target="_top" xlink:title="This file provides nih::Options&lt;&gt;, a substitute for getopt(3). ">
<polygon fill="#ffffff" stroke="#000000" points="105.2011,-168.5 105.2011,-187.5 174.2011,-187.5 174.2011,-168.5 105.2011,-168.5"/>
<text text-anchor="middle" x="139.7011" y="-175.5" font-family="Helvetica,sans-Serif" font-size="10.00" fill="#000000">Options.hpp</text>
</a>
</g>
</g>
<!-- Node0&#45;&gt;Node1 -->
<g id="edge1" class="edge">
<title>Node0&#45;&gt;Node1</title>
<path fill="none" stroke="#191970" d="M694.0087,-231.3746C612.3756,-224.9221 397.5489,-207.3947 218.7011,-188 207.5468,-186.7904 195.5253,-185.3427 184.3073,-183.9295"/>
<polygon fill="#191970" stroke="#191970" points="184.6417,-180.4439 174.279,-182.6491 183.7552,-187.3875 184.6417,-180.4439"/>
</g>
<!-- Node7 -->
<g id="node8" class="node">
<title>Node7</title>
<g id="a_node8"><a xlink:href="types_8hpp.html" target="_top" xlink:title="A collection of type aliases. ">
<polygon fill="#ffffff" stroke="#000000" points="606.2011,-112.5 606.2011,-131.5 665.2011,-131.5 665.2011,-112.5 606.2011,-112.5"/>
<text text-anchor="middle" x="635.7011" y="-119.5" font-family="Helvetica,sans-Serif" font-size="10.00" fill="#000000">types.hpp</text>
</a>
</g>
</g>
<!-- Node0&#45;&gt;Node7 -->
<g id="edge7" class="edge">
<title>Node0&#45;&gt;Node7</title>
<path fill="none" stroke="#191970" d="M693.8751,-228.3141C654.3084,-220.8931 592.4441,-206.6259 578.7011,-188 565.094,-169.5584 587.5087,-149.8495 608.1028,-136.8201"/>
<polygon fill="#191970" stroke="#191970" points="609.9255,-139.8082 616.7071,-131.6682 606.3295,-133.8025 609.9255,-139.8082"/>
</g>
<!-- Node8 -->
<g id="node9" class="node">
<title>Node8</title>
<polygon fill="#ffffff" stroke="#bfbfbf" points="625.7011,-56.5 625.7011,-75.5 671.7011,-75.5 671.7011,-56.5 625.7011,-56.5"/>
<text text-anchor="middle" x="648.7011" y="-63.5" font-family="Helvetica,sans-Serif" font-size="10.00" fill="#000000">chrono</text>
</g>
<!-- Node0&#45;&gt;Node8 -->
<g id="edge34" class="edge">
<title>Node0&#45;&gt;Node8</title>
<path fill="none" stroke="#191970" d="M723.9116,-224.3531C715.6437,-203.5264 695.0877,-152.9275 674.7011,-112 670.115,-102.7932 664.5585,-92.827 659.7615,-84.5328"/>
<polygon fill="#191970" stroke="#191970" points="662.6632,-82.5621 654.5827,-75.7098 656.6264,-86.1057 662.6632,-82.5621"/>
</g>
<!-- Node9 -->
<g id="node10" class="node">
<title>Node9</title>
<g id="a_node10"><a xlink:href="constants_8hpp.html" target="_top" xlink:title="Defines a collection of constants. ">
<polygon fill="#ffffff" stroke="#000000" points="587.7011,-168.5 587.7011,-187.5 665.7011,-187.5 665.7011,-168.5 587.7011,-168.5"/>
<text text-anchor="middle" x="626.7011" y="-175.5" font-family="Helvetica,sans-Serif" font-size="10.00" fill="#000000">constants.hpp</text>
</a>
</g>
</g>
<!-- Node0&#45;&gt;Node9 -->
<g id="edge9" class="edge">
<title>Node0&#45;&gt;Node9</title>
<path fill="none" stroke="#191970" d="M710.1082,-224.2455C694.322,-215.4928 670.9372,-202.527 652.9423,-192.5496"/>
<polygon fill="#191970" stroke="#191970" points="654.5352,-189.4308 644.0923,-187.6427 651.1408,-195.5528 654.5352,-189.4308"/>
</g>
<!-- Node10 -->
<g id="node11" class="node">
<title>Node10</title>
<g id="a_node11"><a xlink:href="errors_8hpp.html" target="_top" xlink:title="Common error handling code. ">
<polygon fill="#ffffff" stroke="#000000" points="260.7011,-112.5 260.7011,-131.5 320.7011,-131.5 320.7011,-112.5 260.7011,-112.5"/>
<text text-anchor="middle" x="290.7011" y="-119.5" font-family="Helvetica,sans-Serif" font-size="10.00" fill="#000000">errors.hpp</text>
</a>
</g>
</g>
<!-- Node0&#45;&gt;Node10 -->
<g id="edge11" class="edge">
<title>Node0&#45;&gt;Node10</title>
<path fill="none" stroke="#191970" d="M694.1626,-229.9992C644.3787,-223.6227 548.2469,-209.6234 468.7011,-188 415.9366,-173.6567 356.8049,-150.1855 321.7185,-135.441"/>
<polygon fill="#191970" stroke="#191970" points="323.0583,-132.2075 312.4853,-131.5285 320.3272,-138.6527 323.0583,-132.2075"/>
</g>
<!-- Node11 -->
<g id="node12" class="node">
<title>Node11</title>
<g id="a_node12"><a xlink:href="utility_8hpp.html" target="_top" xlink:title="Implements generally useful functions. ">
<polygon fill="#ffffff" stroke="#000000" points="261.2011,-56.5 261.2011,-75.5 320.2011,-75.5 320.2011,-56.5 261.2011,-56.5"/>
<text text-anchor="middle" x="290.7011" y="-63.5" font-family="Helvetica,sans-Serif" font-size="10.00" fill="#000000">utility.hpp</text>
</a>
</g>
</g>
<!-- Node0&#45;&gt;Node11 -->
<g id="edge16" class="edge">
<title>Node0&#45;&gt;Node11</title>
<path fill="none" stroke="#191970" d="M694.2005,-232.4612C594.4253,-227.0709 302.975,-205.2038 251.7011,-132 240.3623,-115.8117 255.3014,-96.196 269.8473,-82.5764"/>
<polygon fill="#191970" stroke="#191970" points="272.4991,-84.9067 277.7186,-75.6867 267.8887,-79.6394 272.4991,-84.9067"/>
</g>
<!-- Node14 -->
<g id="node15" class="node">
<title>Node14</title>
<g id="a_node15"><a xlink:href="clas_8hpp.html" target="_top" xlink:title="Implements functions to process command line arguments. ">
<polygon fill="#ffffff" stroke="#000000" points="478.2011,-168.5 478.2011,-187.5 531.2011,-187.5 531.2011,-168.5 478.2011,-168.5"/>
<text text-anchor="middle" x="504.7011" y="-175.5" font-family="Helvetica,sans-Serif" font-size="10.00" fill="#000000">clas.hpp</text>
</a>
</g>
</g>
<!-- Node0&#45;&gt;Node14 -->
<g id="edge17" class="edge">
<title>Node0&#45;&gt;Node14</title>
<path fill="none" stroke="#191970" d="M693.8322,-225.4948C652.7471,-215.1775 583.7448,-197.8496 541.4175,-187.2203"/>
<polygon fill="#191970" stroke="#191970" points="542.0735,-183.7764 531.5221,-184.7353 540.3685,-190.5656 542.0735,-183.7764"/>
</g>
<!-- Node17 -->
<g id="node18" class="node">
<title>Node17</title>
<g id="a_node18"><a xlink:href="sysctl_8hpp.html" target="_top" xlink:title="Implements safer c++ wrappers for the sysctl() interface. ">
<polygon fill="#ffffff" stroke="#000000" points="721.7011,-168.5 721.7011,-187.5 801.7011,-187.5 801.7011,-168.5 721.7011,-168.5"/>
<text text-anchor="middle" x="761.7011" y="-175.5" font-family="Helvetica,sans-Serif" font-size="10.00" fill="#000000">sys/sysctl.hpp</text>
</a>
</g>
</g>
<!-- Node0&#45;&gt;Node17 -->
<g id="edge24" class="edge">
<title>Node0&#45;&gt;Node17</title>
<path fill="none" stroke="#191970" d="M733.6234,-224.2455C738.3038,-216.5367 744.9683,-205.5598 750.6299,-196.2348"/>
<polygon fill="#191970" stroke="#191970" points="753.6485,-198.007 755.8466,-187.6427 747.665,-194.3741 753.6485,-198.007"/>
</g>
<!-- Node21 -->
<g id="node22" class="node">
<title>Node21</title>
<polygon fill="#ffffff" stroke="#bfbfbf" points="969.7011,-112.5 969.7011,-131.5 1021.7011,-131.5 1021.7011,-112.5 969.7011,-112.5"/>
<text text-anchor="middle" x="995.7011" y="-119.5" font-family="Helvetica,sans-Serif" font-size="10.00" fill="#000000">memory</text>
</g>
<!-- Node0&#45;&gt;Node21 -->
<g id="edge36" class="edge">
<title>Node0&#45;&gt;Node21</title>
<path fill="none" stroke="#191970" d="M745.1128,-224.3857C777.3122,-206.6226 843.3869,-170.255 848.7011,-168 868.7833,-159.4783 922.9795,-143.1336 959.6474,-132.3993"/>
<polygon fill="#191970" stroke="#191970" points="960.8615,-135.6911 969.4819,-129.5316 958.9019,-128.971 960.8615,-135.6911"/>
</g>
<!-- Node24 -->
<g id="node25" class="node">
<title>Node24</title>
<polygon fill="#ffffff" stroke="#bfbfbf" points="857.7011,-168.5 857.7011,-187.5 911.7011,-187.5 911.7011,-168.5 857.7011,-168.5"/>
<text text-anchor="middle" x="884.7011" y="-175.5" font-family="Helvetica,sans-Serif" font-size="10.00" fill="#000000">iostream</text>
</g>
<!-- Node0&#45;&gt;Node24 -->
<g id="edge32" class="edge">
<title>Node0&#45;&gt;Node24</title>
<path fill="none" stroke="#191970" d="M754.6903,-224.3733C780.571,-215.1419 819.8259,-201.1402 848.4299,-190.9375"/>
<polygon fill="#191970" stroke="#191970" points="849.8211,-194.1573 858.064,-187.5011 847.4693,-187.5642 849.8211,-194.1573"/>
</g>
<!-- Node25 -->
<g id="node26" class="node">
<title>Node25</title>
<polygon fill="#ffffff" stroke="#bfbfbf" points="929.7011,-168.5 929.7011,-187.5 979.7011,-187.5 979.7011,-168.5 929.7011,-168.5"/>
<text text-anchor="middle" x="954.7011" y="-175.5" font-family="Helvetica,sans-Serif" font-size="10.00" fill="#000000">fstream</text>
</g>
<!-- Node0&#45;&gt;Node25 -->
<g id="edge33" class="edge">
<title>Node0&#45;&gt;Node25</title>
<path fill="none" stroke="#191970" d="M761.3055,-226.5489C797.956,-218.2998 858.5579,-204.3031 919.6805,-188.1789"/>
<polygon fill="#191970" stroke="#191970" points="920.7246,-191.5231 929.4911,-185.5734 918.9278,-184.7576 920.7246,-191.5231"/>
</g>
<!-- Node26 -->
<g id="node27" class="node">
<title>Node26</title>
<polygon fill="#ffffff" stroke="#bfbfbf" points="997.7011,-168.5 997.7011,-187.5 1041.7011,-187.5 1041.7011,-168.5 997.7011,-168.5"/>
<text text-anchor="middle" x="1019.7011" y="-175.5" font-family="Helvetica,sans-Serif" font-size="10.00" fill="#000000">thread</text>
</g>
<!-- Node0&#45;&gt;Node26 -->
<g id="edge35" class="edge">
<title>Node0&#45;&gt;Node26</title>
<path fill="none" stroke="#191970" d="M761.3825,-229.5764C809.5971,-222.9165 901.1698,-209.0526 987.7431,-187.9807"/>
<polygon fill="#191970" stroke="#191970" points="988.5874,-191.3775 997.4556,-185.5806 986.908,-184.5819 988.5874,-191.3775"/>
</g>
<!-- Node27 -->
<g id="node28" class="node">
<title>Node27</title>
<polygon fill="#ffffff" stroke="#bfbfbf" points="1060.2011,-168.5 1060.2011,-187.5 1141.2011,-187.5 1141.2011,-168.5 1060.2011,-168.5"/>
<text text-anchor="middle" x="1100.7011" y="-175.5" font-family="Helvetica,sans-Serif" font-size="10.00" fill="#000000">sys/resource.h</text>
</g>
<!-- Node0&#45;&gt;Node27 -->
<g id="edge37" class="edge">
<title>Node0&#45;&gt;Node27</title>
<path fill="none" stroke="#191970" d="M761.2766,-229.8473C818.3559,-222.6515 938.17,-206.9587 1049.9777,-188.0436"/>
<polygon fill="#191970" stroke="#191970" points="1050.8075,-191.4527 1060.0773,-186.3223 1049.6314,-184.5522 1050.8075,-191.4527"/>
</g>
<!-- Node28 -->
<g id="node29" class="node">
<title>Node28</title>
<polygon fill="#ffffff" stroke="#bfbfbf" points="1159.7011,-168.5 1159.7011,-187.5 1219.7011,-187.5 1219.7011,-168.5 1159.7011,-168.5"/>
<text text-anchor="middle" x="1189.7011" y="-175.5" font-family="Helvetica,sans-Serif" font-size="10.00" fill="#000000">sys/stat.h</text>
</g>
<!-- Node0&#45;&gt;Node28 -->
<g id="edge38" class="edge">
<title>Node0&#45;&gt;Node28</title>
<path fill="none" stroke="#191970" d="M761.3846,-231.9758C831.7858,-227.3944 999.7332,-214.6351 1149.7097,-187.9584"/>
<polygon fill="#191970" stroke="#191970" points="1150.3415,-191.401 1159.5612,-186.181 1149.0986,-184.5122 1150.3415,-191.401"/>
</g>
<!-- Node2 -->
<g id="node3" class="node">
<title>Node2</title>
<polygon fill="#ffffff" stroke="#bfbfbf" points="17.2011,-112.5 17.2011,-131.5 66.2011,-131.5 66.2011,-112.5 17.2011,-112.5"/>
<text text-anchor="middle" x="41.7011" y="-119.5" font-family="Helvetica,sans-Serif" font-size="10.00" fill="#000000">cstddef</text>
</g>
<!-- Node1&#45;&gt;Node2 -->
<g id="edge2" class="edge">
<title>Node1&#45;&gt;Node2</title>
<path fill="none" stroke="#191970" d="M122.6308,-168.2455C107.454,-159.5731 85.0389,-146.7645 67.6448,-136.825"/>
<polygon fill="#191970" stroke="#191970" points="68.9947,-133.5653 58.5757,-131.6427 65.5217,-139.643 68.9947,-133.5653"/>
</g>
<!-- Node3 -->
<g id="node4" class="node">
<title>Node3</title>
<polygon fill="#ffffff" stroke="#bfbfbf" points="84.7011,-112.5 84.7011,-131.5 134.7011,-131.5 134.7011,-112.5 84.7011,-112.5"/>
<text text-anchor="middle" x="109.7011" y="-119.5" font-family="Helvetica,sans-Serif" font-size="10.00" fill="#000000">iomanip</text>
</g>
<!-- Node1&#45;&gt;Node3 -->
<g id="edge3" class="edge">
<title>Node1&#45;&gt;Node3</title>
<path fill="none" stroke="#191970" d="M134.4755,-168.2455C130.3887,-160.617 124.5876,-149.7881 119.6261,-140.5267"/>
<polygon fill="#191970" stroke="#191970" points="122.6742,-138.8047 114.8668,-131.6427 116.5039,-142.1103 122.6742,-138.8047"/>
</g>
<!-- Node4 -->
<g id="node5" class="node">
<title>Node4</title>
<polygon fill="#ffffff" stroke="#bfbfbf" points="152.7011,-112.5 152.7011,-131.5 204.7011,-131.5 204.7011,-112.5 152.7011,-112.5"/>
<text text-anchor="middle" x="178.7011" y="-119.5" font-family="Helvetica,sans-Serif" font-size="10.00" fill="#000000">sstream</text>
</g>
<!-- Node1&#45;&gt;Node4 -->
<g id="edge4" class="edge">
<title>Node1&#45;&gt;Node4</title>
<path fill="none" stroke="#191970" d="M146.4943,-168.2455C151.9189,-160.4564 159.6671,-149.3308 166.2044,-139.9439"/>
<polygon fill="#191970" stroke="#191970" points="169.1428,-141.849 171.9856,-131.6427 163.3985,-137.8485 169.1428,-141.849"/>
</g>
<!-- Node5 -->
<g id="node6" class="node">
<title>Node5</title>
<polygon fill="#ffffff" stroke="#bfbfbf" points="73.7011,-.5 73.7011,-19.5 135.7011,-19.5 135.7011,-.5 73.7011,-.5"/>
<text text-anchor="middle" x="104.7011" y="-7.5" font-family="Helvetica,sans-Serif" font-size="10.00" fill="#000000">type_traits</text>
</g>
<!-- Node1&#45;&gt;Node5 -->
<g id="edge5" class="edge">
<title>Node1&#45;&gt;Node5</title>
<path fill="none" stroke="#191970" d="M104.9547,-170.6575C69.848,-162.4509 19.1918,-148.1729 7.7011,-132 -20.7618,-91.9395 39.9758,-47.3195 77.6785,-24.7701"/>
<polygon fill="#191970" stroke="#191970" points="79.8111,-27.579 86.6994,-19.5289 76.2945,-21.5264 79.8111,-27.579"/>
</g>
<!-- Node6 -->
<g id="node7" class="node">
<title>Node6</title>
<polygon fill="#ffffff" stroke="#bfbfbf" points="440.2011,-112.5 440.2011,-131.5 489.2011,-131.5 489.2011,-112.5 440.2011,-112.5"/>
<text text-anchor="middle" x="464.7011" y="-119.5" font-family="Helvetica,sans-Serif" font-size="10.00" fill="#000000">cassert</text>
</g>
<!-- Node1&#45;&gt;Node6 -->
<g id="edge6" class="edge">
<title>Node1&#45;&gt;Node6</title>
<path fill="none" stroke="#191970" d="M174.4678,-173.981C227.5548,-167.5244 332.1148,-153.5509 430.1462,-131.8825"/>
<polygon fill="#191970" stroke="#191970" points="430.9235,-135.2951 439.9156,-129.6922 429.3921,-128.4647 430.9235,-135.2951"/>
</g>
<!-- Node7&#45;&gt;Node8 -->
<g id="edge8" class="edge">
<title>Node7&#45;&gt;Node8</title>
<path fill="none" stroke="#191970" d="M637.9655,-112.2455C639.6805,-104.8579 642.0922,-94.4689 644.1955,-85.4087"/>
<polygon fill="#191970" stroke="#191970" points="647.6105,-86.1751 646.4626,-75.6427 640.7919,-84.5922 647.6105,-86.1751"/>
</g>
<!-- Node9&#45;&gt;Node7 -->
<g id="edge10" class="edge">
<title>Node9&#45;&gt;Node7</title>
<path fill="none" stroke="#191970" d="M628.2687,-168.2455C629.4431,-160.9382 631.0895,-150.6944 632.5342,-141.7046"/>
<polygon fill="#191970" stroke="#191970" points="636.0201,-142.0714 634.1513,-131.6427 629.1088,-140.9606 636.0201,-142.0714"/>
</g>
<!-- Node10&#45;&gt;Node11 -->
<g id="edge12" class="edge">
<title>Node10&#45;&gt;Node11</title>
<path fill="none" stroke="#191970" d="M290.7011,-112.2455C290.7011,-104.9382 290.7011,-94.6944 290.7011,-85.7046"/>
<polygon fill="#191970" stroke="#191970" points="294.2012,-85.6426 290.7011,-75.6427 287.2012,-85.6427 294.2012,-85.6426"/>
</g>
<!-- Node11&#45;&gt;Node5 -->
<g id="edge13" class="edge">
<title>Node11&#45;&gt;Node5</title>
<path fill="none" stroke="#191970" d="M260.8169,-57.0026C229.5996,-47.6039 180.4178,-32.7964 145.6085,-22.3162"/>
<polygon fill="#191970" stroke="#191970" points="146.3359,-18.8801 135.7515,-19.3485 144.3178,-25.5829 146.3359,-18.8801"/>
</g>
<!-- Node12 -->
<g id="node13" class="node">
<title>Node12</title>
<polygon fill="#ffffff" stroke="#bfbfbf" points="444.2011,-.5 444.2011,-19.5 485.2011,-19.5 485.2011,-.5 444.2011,-.5"/>
<text text-anchor="middle" x="464.7011" y="-7.5" font-family="Helvetica,sans-Serif" font-size="10.00" fill="#000000">string</text>
</g>
<!-- Node11&#45;&gt;Node12 -->
<g id="edge14" class="edge">
<title>Node11&#45;&gt;Node12</title>
<path fill="none" stroke="#191970" d="M320.2178,-56.5004C351.9768,-46.2791 402.234,-30.1044 434.3228,-19.7769"/>
<polygon fill="#191970" stroke="#191970" points="435.6095,-23.0397 444.0563,-16.6443 433.4649,-16.3763 435.6095,-23.0397"/>
</g>
<!-- Node13 -->
<g id="node14" class="node">
<title>Node13</title>
<polygon fill="#ffffff" stroke="#bfbfbf" points="269.2011,-.5 269.2011,-19.5 312.2011,-19.5 312.2011,-.5 269.2011,-.5"/>
<text text-anchor="middle" x="290.7011" y="-7.5" font-family="Helvetica,sans-Serif" font-size="10.00" fill="#000000">cstdio</text>
</g>
<!-- Node11&#45;&gt;Node13 -->
<g id="edge15" class="edge">
<title>Node11&#45;&gt;Node13</title>
<path fill="none" stroke="#191970" d="M290.7011,-56.2455C290.7011,-48.9382 290.7011,-38.6944 290.7011,-29.7046"/>
<polygon fill="#191970" stroke="#191970" points="294.2012,-29.6426 290.7011,-19.6427 287.2012,-29.6427 294.2012,-29.6426"/>
</g>
<!-- Node14&#45;&gt;Node7 -->
<g id="edge18" class="edge">
<title>Node14&#45;&gt;Node7</title>
<path fill="none" stroke="#191970" d="M527.2208,-168.3733C548.4383,-159.3032 580.4287,-145.6279 604.1779,-135.4755"/>
<polygon fill="#191970" stroke="#191970" points="605.6559,-138.6502 613.4752,-131.5011 602.9044,-132.2136 605.6559,-138.6502"/>
</g>
<!-- Node14&#45;&gt;Node10 -->
<g id="edge19" class="edge">
<title>Node14&#45;&gt;Node10</title>
<path fill="none" stroke="#191970" d="M478.0305,-171.0208C440.9996,-161.3304 373.7184,-143.7242 330.6714,-132.4595"/>
<polygon fill="#191970" stroke="#191970" points="331.3739,-129.0256 320.8136,-129.8799 329.6018,-135.7976 331.3739,-129.0256"/>
</g>
<!-- Node14&#45;&gt;Node11 -->
<g id="edge20" class="edge">
<title>Node14&#45;&gt;Node11</title>
<path fill="none" stroke="#191970" d="M477.9404,-172.2546C449.3643,-165.3975 403.3759,-152.2503 367.7011,-132 344.4461,-118.7996 321.6828,-98.0325 307.0126,-83.3227"/>
<polygon fill="#191970" stroke="#191970" points="309.2283,-80.5813 299.7434,-75.8603 304.2141,-85.4658 309.2283,-80.5813"/>
</g>
<!-- Node14&#45;&gt;Node12 -->
<g id="edge22" class="edge">
<title>Node14&#45;&gt;Node12</title>
<path fill="none" stroke="#191970" d="M522.661,-168.3701C535.3335,-160.4681 551.3177,-147.9885 558.7011,-132 562.4277,-123.93 561.9345,-120.2799 558.7011,-112 544.3312,-75.2026 509.7797,-43.6815 486.8115,-25.7842"/>
<polygon fill="#191970" stroke="#191970" points="488.7301,-22.847 478.6421,-19.6093 484.5092,-28.4313 488.7301,-22.847"/>
</g>
<!-- Node15 -->
<g id="node16" class="node">
<title>Node15</title>
<polygon fill="#ffffff" stroke="#bfbfbf" points="377.2011,-112.5 377.2011,-131.5 422.2011,-131.5 422.2011,-112.5 377.2011,-112.5"/>
<text text-anchor="middle" x="399.7011" y="-119.5" font-family="Helvetica,sans-Serif" font-size="10.00" fill="#000000">cstdlib</text>
</g>
<!-- Node14&#45;&gt;Node15 -->
<g id="edge21" class="edge">
<title>Node14&#45;&gt;Node15</title>
<path fill="none" stroke="#191970" d="M486.4115,-168.2455C469.9248,-159.4527 445.4659,-146.4079 426.7245,-136.4125"/>
<polygon fill="#191970" stroke="#191970" points="428.2517,-133.2604 417.7811,-131.6427 424.9575,-139.4368 428.2517,-133.2604"/>
</g>
<!-- Node16 -->
<g id="node17" class="node">
<title>Node16</title>
<polygon fill="#ffffff" stroke="#bfbfbf" points="507.7011,-112.5 507.7011,-131.5 549.7011,-131.5 549.7011,-112.5 507.7011,-112.5"/>
<text text-anchor="middle" x="528.7011" y="-119.5" font-family="Helvetica,sans-Serif" font-size="10.00" fill="#000000">locale</text>
</g>
<!-- Node14&#45;&gt;Node16 -->
<g id="edge23" class="edge">
<title>Node14&#45;&gt;Node16</title>
<path fill="none" stroke="#191970" d="M508.8815,-168.2455C512.0821,-160.7776 516.5971,-150.2427 520.5095,-141.1137"/>
<polygon fill="#191970" stroke="#191970" points="523.8462,-142.2129 524.5685,-131.6427 517.4122,-139.4554 523.8462,-142.2129"/>
</g>
<!-- Node17&#45;&gt;Node6 -->
<g id="edge29" class="edge">
<title>Node17&#45;&gt;Node6</title>
<path fill="none" stroke="#191970" d="M721.3145,-172.3846C671.4175,-165.1289 583.7856,-151.3518 499.4918,-131.9727"/>
<polygon fill="#191970" stroke="#191970" points="500.0308,-128.5046 489.4974,-129.6445 498.4426,-135.3221 500.0308,-128.5046"/>
</g>
<!-- Node18 -->
<g id="node19" class="node">
<title>Node18</title>
<g id="a_node19"><a xlink:href="error_8hpp.html" target="_top" xlink:title="Provides system call error handling. ">
<polygon fill="#ffffff" stroke="#000000" points="722.2011,-112.5 722.2011,-131.5 777.2011,-131.5 777.2011,-112.5 722.2011,-112.5"/>
<text text-anchor="middle" x="749.7011" y="-119.5" font-family="Helvetica,sans-Serif" font-size="10.00" fill="#000000">error.hpp</text>
</a>
</g>
</g>
<!-- Node17&#45;&gt;Node18 -->
<g id="edge25" class="edge">
<title>Node17&#45;&gt;Node18</title>
<path fill="none" stroke="#191970" d="M759.6108,-168.2455C758.045,-160.9382 755.8498,-150.6944 753.9235,-141.7046"/>
<polygon fill="#191970" stroke="#191970" points="757.285,-140.6873 751.7673,-131.6427 750.4404,-142.1541 757.285,-140.6873"/>
</g>
<!-- Node17&#45;&gt;Node21 -->
<g id="edge28" class="edge">
<title>Node17&#45;&gt;Node21</title>
<path fill="none" stroke="#191970" d="M801.8693,-169.3475C840.0417,-160.9842 899.2789,-147.6432 959.3333,-132.2665"/>
<polygon fill="#191970" stroke="#191970" points="960.5574,-135.5654 969.3672,-129.68 958.81,-128.787 960.5574,-135.5654"/>
</g>
<!-- Node22 -->
<g id="node23" class="node">
<title>Node22</title>
<polygon fill="#ffffff" stroke="#bfbfbf" points="795.7011,-112.5 795.7011,-131.5 863.7011,-131.5 863.7011,-112.5 795.7011,-112.5"/>
<text text-anchor="middle" x="829.7011" y="-119.5" font-family="Helvetica,sans-Serif" font-size="10.00" fill="#000000">sys/types.h</text>
</g>
<!-- Node17&#45;&gt;Node22 -->
<g id="edge30" class="edge">
<title>Node17&#45;&gt;Node22</title>
<path fill="none" stroke="#191970" d="M773.5458,-168.2455C783.589,-159.9746 798.2005,-147.9416 810.0014,-138.2232"/>
<polygon fill="#191970" stroke="#191970" points="812.4978,-140.7015 817.9921,-131.6427 808.0478,-135.298 812.4978,-140.7015"/>
</g>
<!-- Node23 -->
<g id="node24" class="node">
<title>Node23</title>
<polygon fill="#ffffff" stroke="#bfbfbf" points="881.7011,-112.5 881.7011,-131.5 951.7011,-131.5 951.7011,-112.5 881.7011,-112.5"/>
<text text-anchor="middle" x="916.7011" y="-119.5" font-family="Helvetica,sans-Serif" font-size="10.00" fill="#000000">sys/sysctl.h</text>
</g>
<!-- Node17&#45;&gt;Node23 -->
<g id="edge31" class="edge">
<title>Node17&#45;&gt;Node23</title>
<path fill="none" stroke="#191970" d="M788.3465,-168.3733C813.8975,-159.1419 852.6523,-145.1402 880.892,-134.9375"/>
<polygon fill="#191970" stroke="#191970" points="882.1876,-138.1909 890.4033,-131.5011 879.809,-131.6074 882.1876,-138.1909"/>
</g>
<!-- Node19 -->
<g id="node20" class="node">
<title>Node19</title>
<polygon fill="#ffffff" stroke="#bfbfbf" points="714.7011,-56.5 714.7011,-75.5 758.7011,-75.5 758.7011,-56.5 714.7011,-56.5"/>
<text text-anchor="middle" x="736.7011" y="-63.5" font-family="Helvetica,sans-Serif" font-size="10.00" fill="#000000">cerrno</text>
</g>
<!-- Node18&#45;&gt;Node19 -->
<g id="edge26" class="edge">
<title>Node18&#45;&gt;Node19</title>
<path fill="none" stroke="#191970" d="M747.4366,-112.2455C745.7216,-104.8579 743.3099,-94.4689 741.2066,-85.4087"/>
<polygon fill="#191970" stroke="#191970" points="744.6102,-84.5922 738.9395,-75.6427 737.7916,-86.1751 744.6102,-84.5922"/>
</g>
<!-- Node20 -->
<g id="node21" class="node">
<title>Node20</title>
<polygon fill="#ffffff" stroke="#bfbfbf" points="776.7011,-56.5 776.7011,-75.5 822.7011,-75.5 822.7011,-56.5 776.7011,-56.5"/>
<text text-anchor="middle" x="799.7011" y="-63.5" font-family="Helvetica,sans-Serif" font-size="10.00" fill="#000000">cstring</text>
</g>
<!-- Node18&#45;&gt;Node20 -->
<g id="edge27" class="edge">
<title>Node18&#45;&gt;Node20</title>
<path fill="none" stroke="#191970" d="M758.4104,-112.2455C765.5084,-104.2958 775.7095,-92.8706 784.1961,-83.3656"/>
<polygon fill="#191970" stroke="#191970" points="787.0421,-85.4331 791.0915,-75.6427 781.8205,-80.771 787.0421,-85.4331"/>
</g>
</g>
</svg>
