<?xml version="1.0" encoding="UTF-8" standalone="no"?>
<!DOCTYPE svg PUBLIC "-//W3C//DTD SVG 1.1//EN"
 "http://www.w3.org/Graphics/SVG/1.1/DTD/svg11.dtd">
<!-- Generated by graphviz version 2.40.1 (20161225.0304)
 -->
<!-- Title: src/loadplay.cpp Pages: 1 -->
<svg width="600pt" height="196pt"
 viewBox="0.00 0.00 600.00 196.00" xmlns="http://www.w3.org/2000/svg" xmlns:xlink="http://www.w3.org/1999/xlink">
<g id="graph0" class="graph" transform="scale(1 1) rotate(0) translate(4 192)">
<title>src/loadplay.cpp</title>
<polygon fill="#ffffff" stroke="transparent" points="-4,4 -4,-192 596,-192 596,4 -4,4"/>
<!-- Node0 -->
<g id="node1" class="node">
<title>Node0</title>
<g id="a_node1"><a xlink:title="Implements the loadplay a bootstrapping tool for libloadplay.">
<polygon fill="#bfbfbf" stroke="#000000" points="339.5,-168.5 339.5,-187.5 427.5,-187.5 427.5,-168.5 339.5,-168.5"/>
<text text-anchor="middle" x="383.5" y="-175.5" font-family="Helvetica,sans-Serif" font-size="10.00" fill="#000000">src/loadplay.cpp</text>
</a>
</g>
</g>
<!-- Node1 -->
<g id="node2" class="node">
<title>Node1</title>
<g id="a_node2"><a xlink:href="Options_8hpp.html" target="_top" xlink:title="This file provides nih::Options&lt;&gt;, a substitute for getopt(3).">
<polygon fill="#ffffff" stroke="#000000" points="152,-112.5 152,-131.5 221,-131.5 221,-112.5 152,-112.5"/>
<text text-anchor="middle" x="186.5" y="-119.5" font-family="Helvetica,sans-Serif" font-size="10.00" fill="#000000">Options.hpp</text>
</a>
</g>
</g>
<!-- Node0&#45;&gt;Node1 -->
<g id="edge1" class="edge">
<title>Node0&#45;&gt;Node1</title>
<path fill="none" stroke="#191970" d="M349.6345,-168.3733C316.451,-158.9404 265.745,-144.5265 229.6806,-134.2747"/>
<polygon fill="#191970" stroke="#191970" points="230.4995,-130.8689 219.9236,-131.5011 228.5855,-137.6021 230.4995,-130.8689"/>
</g>
<!-- Node7 -->
<g id="node8" class="node">
<title>Node7</title>
<g id="a_node8"><a xlink:href="errors_8hpp.html" target="_top" xlink:title="Common error handling code.">
<polygon fill="#ffffff" stroke="#000000" points="264.5,-112.5 264.5,-131.5 324.5,-131.5 324.5,-112.5 264.5,-112.5"/>
<text text-anchor="middle" x="294.5" y="-119.5" font-family="Helvetica,sans-Serif" font-size="10.00" fill="#000000">errors.hpp</text>
</a>
</g>
</g>
<!-- Node0&#45;&gt;Node7 -->
<g id="edge7" class="edge">
<title>Node0&#45;&gt;Node7</title>
<path fill="none" stroke="#191970" d="M367.9974,-168.2455C354.342,-159.6534 334.2343,-147.0014 318.5011,-137.1018"/>
<polygon fill="#191970" stroke="#191970" points="320.1529,-134.006 309.825,-131.6427 316.4249,-139.9307 320.1529,-134.006"/>
</g>
<!-- Node8 -->
<g id="node9" class="node">
<title>Node8</title>
<g id="a_node9"><a xlink:href="utility_8hpp.html" target="_top" xlink:title="Implements generally useful functions.">
<polygon fill="#ffffff" stroke="#000000" points="311,-56.5 311,-75.5 370,-75.5 370,-56.5 311,-56.5"/>
<text text-anchor="middle" x="340.5" y="-63.5" font-family="Helvetica,sans-Serif" font-size="10.00" fill="#000000">utility.hpp</text>
</a>
</g>
</g>
<!-- Node0&#45;&gt;Node8 -->
<g id="edge12" class="edge">
<title>Node0&#45;&gt;Node8</title>
<path fill="none" stroke="#191970" d="M379.8338,-168.4509C372.7572,-150.0186 357.0955,-109.2254 347.8112,-85.043"/>
<polygon fill="#191970" stroke="#191970" points="351.0086,-83.606 344.1569,-75.5249 344.4737,-86.115 351.0086,-83.606"/>
</g>
<!-- Node11 -->
<g id="node12" class="node">
<title>Node11</title>
<g id="a_node12"><a xlink:href="env_8hpp.html" target="_top" xlink:title="Implements zero&#45;cost abstractions for the getenv(3) facilities.">
<polygon fill="#ffffff" stroke="#000000" points="380.5,-112.5 380.5,-131.5 450.5,-131.5 450.5,-112.5 380.5,-112.5"/>
<text text-anchor="middle" x="415.5" y="-119.5" font-family="Helvetica,sans-Serif" font-size="10.00" fill="#000000">sys/env.hpp</text>
</a>
</g>
</g>
<!-- Node0&#45;&gt;Node11 -->
<g id="edge13" class="edge">
<title>Node0&#45;&gt;Node11</title>
<path fill="none" stroke="#191970" d="M389.074,-168.2455C393.4331,-160.617 399.6211,-149.7881 404.9133,-140.5267"/>
<polygon fill="#191970" stroke="#191970" points="408.0673,-142.0616 409.9899,-131.6427 401.9896,-138.5886 408.0673,-142.0616"/>
</g>
<!-- Node16 -->
<g id="node17" class="node">
<title>Node16</title>
<g id="a_node17"><a xlink:title=" ">
<polygon fill="#ffffff" stroke="#bfbfbf" points="468.5,-112.5 468.5,-131.5 522.5,-131.5 522.5,-112.5 468.5,-112.5"/>
<text text-anchor="middle" x="495.5" y="-119.5" font-family="Helvetica,sans-Serif" font-size="10.00" fill="#000000">iostream</text>
</a>
</g>
</g>
<!-- Node0&#45;&gt;Node16 -->
<g id="edge18" class="edge">
<title>Node0&#45;&gt;Node16</title>
<path fill="none" stroke="#191970" d="M402.7535,-168.3733C420.5712,-159.4644 447.2747,-146.1127 467.4594,-136.0203"/>
<polygon fill="#191970" stroke="#191970" points="469.1187,-139.1038 476.4978,-131.5011 465.9882,-132.8428 469.1187,-139.1038"/>
</g>
<!-- Node17 -->
<g id="node18" class="node">
<title>Node17</title>
<g id="a_node18"><a xlink:title=" ">
<polygon fill="#ffffff" stroke="#bfbfbf" points="541,-112.5 541,-131.5 592,-131.5 592,-112.5 541,-112.5"/>
<text text-anchor="middle" x="566.5" y="-119.5" font-family="Helvetica,sans-Serif" font-size="10.00" fill="#000000">unistd.h</text>
</a>
</g>
</g>
<!-- Node0&#45;&gt;Node17 -->
<g id="edge19" class="edge">
<title>Node0&#45;&gt;Node17</title>
<path fill="none" stroke="#191970" d="M414.9588,-168.3733C447.1877,-158.5109 497.2097,-143.2036 530.8768,-132.9011"/>
<polygon fill="#191970" stroke="#191970" points="532.2243,-136.149 540.7624,-129.876 530.1759,-129.4554 532.2243,-136.149"/>
</g>
<!-- Node2 -->
<g id="node3" class="node">
<title>Node2</title>
<g id="a_node3"><a xlink:title=" ">
<polygon fill="#ffffff" stroke="#bfbfbf" points="0,-56.5 0,-75.5 49,-75.5 49,-56.5 0,-56.5"/>
<text text-anchor="middle" x="24.5" y="-63.5" font-family="Helvetica,sans-Serif" font-size="10.00" fill="#000000">cstddef</text>
</a>
</g>
</g>
<!-- Node1&#45;&gt;Node2 -->
<g id="edge2" class="edge">
<title>Node1&#45;&gt;Node2</title>
<path fill="none" stroke="#191970" d="M158.6512,-112.3733C130.9356,-102.7926 88.3556,-88.0736 58.6238,-77.7959"/>
<polygon fill="#191970" stroke="#191970" points="59.6681,-74.4537 49.0734,-74.4945 57.3811,-81.0696 59.6681,-74.4537"/>
</g>
<!-- Node3 -->
<g id="node4" class="node">
<title>Node3</title>
<g id="a_node4"><a xlink:title=" ">
<polygon fill="#ffffff" stroke="#bfbfbf" points="67.5,-56.5 67.5,-75.5 117.5,-75.5 117.5,-56.5 67.5,-56.5"/>
<text text-anchor="middle" x="92.5" y="-63.5" font-family="Helvetica,sans-Serif" font-size="10.00" fill="#000000">iomanip</text>
</a>
</g>
</g>
<!-- Node1&#45;&gt;Node3 -->
<g id="edge3" class="edge">
<title>Node1&#45;&gt;Node3</title>
<path fill="none" stroke="#191970" d="M170.1264,-112.2455C155.5692,-103.5731 134.069,-90.7645 117.3848,-80.825"/>
<polygon fill="#191970" stroke="#191970" points="119.0683,-77.7539 108.6859,-75.6427 115.4856,-83.7676 119.0683,-77.7539"/>
</g>
<!-- Node4 -->
<g id="node5" class="node">
<title>Node4</title>
<g id="a_node5"><a xlink:title=" ">
<polygon fill="#ffffff" stroke="#bfbfbf" points="135.5,-56.5 135.5,-75.5 187.5,-75.5 187.5,-56.5 135.5,-56.5"/>
<text text-anchor="middle" x="161.5" y="-63.5" font-family="Helvetica,sans-Serif" font-size="10.00" fill="#000000">sstream</text>
</a>
</g>
</g>
<!-- Node1&#45;&gt;Node4 -->
<g id="edge4" class="edge">
<title>Node1&#45;&gt;Node4</title>
<path fill="none" stroke="#191970" d="M182.1453,-112.2455C178.7756,-104.6973 174.007,-94.0158 169.9017,-84.8197"/>
<polygon fill="#191970" stroke="#191970" points="173.0773,-83.3473 165.8048,-75.6427 166.6853,-86.2009 173.0773,-83.3473"/>
</g>
<!-- Node5 -->
<g id="node6" class="node">
<title>Node5</title>
<g id="a_node6"><a xlink:title=" ">
<polygon fill="#ffffff" stroke="#bfbfbf" points="188.5,-.5 188.5,-19.5 250.5,-19.5 250.5,-.5 188.5,-.5"/>
<text text-anchor="middle" x="219.5" y="-7.5" font-family="Helvetica,sans-Serif" font-size="10.00" fill="#000000">type_traits</text>
</a>
</g>
</g>
<!-- Node1&#45;&gt;Node5 -->
<g id="edge5" class="edge">
<title>Node1&#45;&gt;Node5</title>
<path fill="none" stroke="#191970" d="M189.3136,-112.4509C194.7202,-94.1013 206.6563,-53.5908 213.793,-29.3693"/>
<polygon fill="#191970" stroke="#191970" points="217.2245,-30.1064 216.6936,-19.5249 210.5099,-28.128 217.2245,-30.1064"/>
</g>
<!-- Node6 -->
<g id="node7" class="node">
<title>Node6</title>
<g id="a_node7"><a xlink:title=" ">
<polygon fill="#ffffff" stroke="#bfbfbf" points="244,-56.5 244,-75.5 293,-75.5 293,-56.5 244,-56.5"/>
<text text-anchor="middle" x="268.5" y="-63.5" font-family="Helvetica,sans-Serif" font-size="10.00" fill="#000000">cassert</text>
</a>
</g>
</g>
<!-- Node1&#45;&gt;Node6 -->
<g id="edge6" class="edge">
<title>Node1&#45;&gt;Node6</title>
<path fill="none" stroke="#191970" d="M200.7833,-112.2455C213.247,-103.7337 231.5451,-91.2375 245.9792,-81.3801"/>
<polygon fill="#191970" stroke="#191970" points="248.0962,-84.1726 254.3804,-75.6427 244.1485,-78.392 248.0962,-84.1726"/>
</g>
<!-- Node7&#45;&gt;Node8 -->
<g id="edge8" class="edge">
<title>Node7&#45;&gt;Node8</title>
<path fill="none" stroke="#191970" d="M302.5126,-112.2455C308.9768,-104.3761 318.2385,-93.101 325.9983,-83.6542"/>
<polygon fill="#191970" stroke="#191970" points="328.9364,-85.5916 332.5792,-75.6427 323.5273,-81.1484 328.9364,-85.5916"/>
</g>
<!-- Node8&#45;&gt;Node5 -->
<g id="edge9" class="edge">
<title>Node8&#45;&gt;Node5</title>
<path fill="none" stroke="#191970" d="M319.6994,-56.3733C300.2757,-47.3838 271.0776,-33.8706 249.2036,-23.7471"/>
<polygon fill="#191970" stroke="#191970" points="250.5745,-20.5249 240.0292,-19.5011 247.6344,-26.8776 250.5745,-20.5249"/>
</g>
<!-- Node9 -->
<g id="node10" class="node">
<title>Node9</title>
<g id="a_node10"><a xlink:title=" ">
<polygon fill="#ffffff" stroke="#bfbfbf" points="271,-.5 271,-19.5 312,-19.5 312,-.5 271,-.5"/>
<text text-anchor="middle" x="291.5" y="-7.5" font-family="Helvetica,sans-Serif" font-size="10.00" fill="#000000">string</text>
</a>
</g>
</g>
<!-- Node8&#45;&gt;Node9 -->
<g id="edge10" class="edge">
<title>Node8&#45;&gt;Node9</title>
<path fill="none" stroke="#191970" d="M331.9649,-56.2455C325.0088,-48.2958 315.0117,-36.8706 306.6949,-27.3656"/>
<polygon fill="#191970" stroke="#191970" points="309.1564,-24.8637 299.9373,-19.6427 303.8884,-29.4732 309.1564,-24.8637"/>
</g>
<!-- Node10 -->
<g id="node11" class="node">
<title>Node10</title>
<g id="a_node11"><a xlink:title=" ">
<polygon fill="#ffffff" stroke="#bfbfbf" points="330,-.5 330,-19.5 373,-19.5 373,-.5 330,-.5"/>
<text text-anchor="middle" x="351.5" y="-7.5" font-family="Helvetica,sans-Serif" font-size="10.00" fill="#000000">cstdio</text>
</a>
</g>
</g>
<!-- Node8&#45;&gt;Node10 -->
<g id="edge11" class="edge">
<title>Node8&#45;&gt;Node10</title>
<path fill="none" stroke="#191970" d="M342.4161,-56.2455C343.8514,-48.9382 345.8636,-38.6944 347.6295,-29.7046"/>
<polygon fill="#191970" stroke="#191970" points="351.1127,-30.1298 349.6059,-19.6427 344.244,-28.7805 351.1127,-30.1298"/>
</g>
<!-- Node12 -->
<g id="node13" class="node">
<title>Node12</title>
<g id="a_node13"><a xlink:href="error_8hpp.html" target="_top" xlink:title="Provides system call error handling.">
<polygon fill="#ffffff" stroke="#000000" points="388,-56.5 388,-75.5 443,-75.5 443,-56.5 388,-56.5"/>
<text text-anchor="middle" x="415.5" y="-63.5" font-family="Helvetica,sans-Serif" font-size="10.00" fill="#000000">error.hpp</text>
</a>
</g>
</g>
<!-- Node11&#45;&gt;Node12 -->
<g id="edge14" class="edge">
<title>Node11&#45;&gt;Node12</title>
<path fill="none" stroke="#191970" d="M415.5,-112.2455C415.5,-104.9382 415.5,-94.6944 415.5,-85.7046"/>
<polygon fill="#191970" stroke="#191970" points="419.0001,-85.6426 415.5,-75.6427 412.0001,-85.6427 419.0001,-85.6426"/>
</g>
<!-- Node15 -->
<g id="node16" class="node">
<title>Node15</title>
<g id="a_node16"><a xlink:title=" ">
<polygon fill="#ffffff" stroke="#bfbfbf" points="461,-56.5 461,-75.5 506,-75.5 506,-56.5 461,-56.5"/>
<text text-anchor="middle" x="483.5" y="-63.5" font-family="Helvetica,sans-Serif" font-size="10.00" fill="#000000">cstdlib</text>
</a>
</g>
</g>
<!-- Node11&#45;&gt;Node15 -->
<g id="edge17" class="edge">
<title>Node11&#45;&gt;Node15</title>
<path fill="none" stroke="#191970" d="M427.3447,-112.2455C437.388,-103.9746 451.9995,-91.9416 463.8004,-82.2232"/>
<polygon fill="#191970" stroke="#191970" points="466.2967,-84.7015 471.791,-75.6427 461.8467,-79.298 466.2967,-84.7015"/>
</g>
<!-- Node13 -->
<g id="node14" class="node">
<title>Node13</title>
<g id="a_node14"><a xlink:title=" ">
<polygon fill="#ffffff" stroke="#bfbfbf" points="392.5,-.5 392.5,-19.5 436.5,-19.5 436.5,-.5 392.5,-.5"/>
<text text-anchor="middle" x="414.5" y="-7.5" font-family="Helvetica,sans-Serif" font-size="10.00" fill="#000000">cerrno</text>
</a>
</g>
</g>
<!-- Node12&#45;&gt;Node13 -->
<g id="edge15" class="edge">
<title>Node12&#45;&gt;Node13</title>
<path fill="none" stroke="#191970" d="M415.3258,-56.2455C415.1953,-48.9382 415.0124,-38.6944 414.8519,-29.7046"/>
<polygon fill="#191970" stroke="#191970" points="418.3503,-29.5786 414.6722,-19.6427 411.3514,-29.7036 418.3503,-29.5786"/>
</g>
<!-- Node14 -->
<g id="node15" class="node">
<title>Node14</title>
<g id="a_node15"><a xlink:title=" ">
<polygon fill="#ffffff" stroke="#bfbfbf" points="454.5,-.5 454.5,-19.5 500.5,-19.5 500.5,-.5 454.5,-.5"/>
<text text-anchor="middle" x="477.5" y="-7.5" font-family="Helvetica,sans-Serif" font-size="10.00" fill="#000000">cstring</text>
</a>
</g>
</g>
<!-- Node12&#45;&gt;Node14 -->
<g id="edge16" class="edge">
<title>Node12&#45;&gt;Node14</title>
<path fill="none" stroke="#191970" d="M426.2996,-56.2455C435.3678,-48.0549 448.5206,-36.1749 459.2245,-26.5069"/>
<polygon fill="#191970" stroke="#191970" points="461.7491,-28.9429 466.8242,-19.6427 457.0571,-23.7482 461.7491,-28.9429"/>
</g>
</g>
</svg>
