<?xml version="1.0" encoding="UTF-8" standalone="no"?>
<!DOCTYPE svg PUBLIC "-//W3C//DTD SVG 1.1//EN"
 "http://www.w3.org/Graphics/SVG/1.1/DTD/svg11.dtd">
<!-- Generated by graphviz version 2.40.1 (20161225.0304)
 -->
<!-- Title: loadplay.cpp Pages: 1 -->
<svg width="1787pt" height="196pt"
 viewBox="0.00 0.00 1786.50 196.00" xmlns="http://www.w3.org/2000/svg" xmlns:xlink="http://www.w3.org/1999/xlink">
<g id="graph0" class="graph" transform="scale(1 1) rotate(0) translate(4 192)">
<title>loadplay.cpp</title>
<polygon fill="#ffffff" stroke="transparent" points="-4,4 -4,-192 1782.5,-192 1782.5,4 -4,4"/>
<!-- Node0 -->
<g id="node1" class="node">
<title>Node0</title>
<polygon fill="#bfbfbf" stroke="#000000" points="849.5,-168.5 849.5,-187.5 920.5,-187.5 920.5,-168.5 849.5,-168.5"/>
<text text-anchor="middle" x="885" y="-175.5" font-family="Helvetica,sans-Serif" font-size="10.00" fill="#000000">loadplay.cpp</text>
</g>
<!-- Node1 -->
<g id="node2" class="node">
<title>Node1</title>
<g id="a_node2"><a xlink:href="utility_8hpp.html" target="_top" xlink:title="Implements generally useful functions. ">
<polygon fill="#ffffff" stroke="#000000" points="73.5,-112.5 73.5,-131.5 132.5,-131.5 132.5,-112.5 73.5,-112.5"/>
<text text-anchor="middle" x="103" y="-119.5" font-family="Helvetica,sans-Serif" font-size="10.00" fill="#000000">utility.hpp</text>
</a>
</g>
</g>
<!-- Node0&#45;&gt;Node1 -->
<g id="edge1" class="edge">
<title>Node0&#45;&gt;Node1</title>
<path fill="none" stroke="#191970" d="M849.3218,-176.5404C721.2782,-171.183 285.1841,-151.8769 147,-132 145.5461,-131.7909 144.0692,-131.5587 142.5804,-131.3081"/>
<polygon fill="#191970" stroke="#191970" points="143.178,-127.8591 132.7007,-129.4327 141.8725,-134.7363 143.178,-127.8591"/>
</g>
<!-- Node3 -->
<g id="node4" class="node">
<title>Node3</title>
<polygon fill="#ffffff" stroke="#bfbfbf" points="141.5,-56.5 141.5,-75.5 182.5,-75.5 182.5,-56.5 141.5,-56.5"/>
<text text-anchor="middle" x="162" y="-63.5" font-family="Helvetica,sans-Serif" font-size="10.00" fill="#000000">string</text>
</g>
<!-- Node0&#45;&gt;Node3 -->
<g id="edge14" class="edge">
<title>Node0&#45;&gt;Node3</title>
<path fill="none" stroke="#191970" d="M849.1241,-176.809C709.1492,-172.0154 206.1544,-153.3607 180,-132 166.6589,-121.1041 162.6569,-101.3709 161.6941,-86.3106"/>
<polygon fill="#191970" stroke="#191970" points="165.184,-85.8421 161.4459,-75.9286 158.1859,-86.0094 165.184,-85.8421"/>
</g>
<!-- Node5 -->
<g id="node6" class="node">
<title>Node5</title>
<g id="a_node6"><a xlink:href="constants_8hpp.html" target="_top" xlink:title="Defines a collection of constants. ">
<polygon fill="#ffffff" stroke="#000000" points="189,-112.5 189,-131.5 267,-131.5 267,-112.5 189,-112.5"/>
<text text-anchor="middle" x="228" y="-119.5" font-family="Helvetica,sans-Serif" font-size="10.00" fill="#000000">constants.hpp</text>
</a>
</g>
</g>
<!-- Node0&#45;&gt;Node5 -->
<g id="edge5" class="edge">
<title>Node0&#45;&gt;Node5</title>
<path fill="none" stroke="#191970" d="M849.4572,-176.6658C756.0002,-172.8611 495.7762,-160.3523 281,-132 279.7468,-131.8346 278.4783,-131.6588 277.1998,-131.4742"/>
<polygon fill="#191970" stroke="#191970" points="277.7069,-128.011 267.284,-129.9122 276.6176,-134.9257 277.7069,-128.011"/>
</g>
<!-- Node7 -->
<g id="node8" class="node">
<title>Node7</title>
<polygon fill="#ffffff" stroke="#bfbfbf" points="240,-.5 240,-19.5 286,-19.5 286,-.5 240,-.5"/>
<text text-anchor="middle" x="263" y="-7.5" font-family="Helvetica,sans-Serif" font-size="10.00" fill="#000000">chrono</text>
</g>
<!-- Node0&#45;&gt;Node7 -->
<g id="edge21" class="edge">
<title>Node0&#45;&gt;Node7</title>
<path fill="none" stroke="#191970" d="M849.4947,-177.2633C731.476,-174.526 357.3193,-163.4267 314,-132 296.713,-119.4589 277.614,-60.7015 268.4687,-29.5332"/>
<polygon fill="#191970" stroke="#191970" points="271.7923,-28.4258 265.6683,-19.7801 265.0641,-30.3577 271.7923,-28.4258"/>
</g>
<!-- Node8 -->
<g id="node9" class="node">
<title>Node8</title>
<g id="a_node9"><a xlink:href="fixme_8hpp.html" target="_top" xlink:title="Implementations in the fixme namespace. ">
<polygon fill="#ffffff" stroke="#000000" points="323.5,-112.5 323.5,-131.5 382.5,-131.5 382.5,-112.5 323.5,-112.5"/>
<text text-anchor="middle" x="353" y="-119.5" font-family="Helvetica,sans-Serif" font-size="10.00" fill="#000000">fixme.hpp</text>
</a>
</g>
</g>
<!-- Node0&#45;&gt;Node8 -->
<g id="edge8" class="edge">
<title>Node0&#45;&gt;Node8</title>
<path fill="none" stroke="#191970" d="M849.2868,-176.2214C768.3761,-171.8458 565.056,-158.9019 397,-132 395.5496,-131.7678 394.0757,-131.516 392.5894,-131.2487"/>
<polygon fill="#191970" stroke="#191970" points="393.2085,-127.8035 382.7204,-129.3031 391.8545,-134.6713 393.2085,-127.8035"/>
</g>
<!-- Node9 -->
<g id="node10" class="node">
<title>Node9</title>
<polygon fill="#ffffff" stroke="#bfbfbf" points="356,-56.5 356,-75.5 408,-75.5 408,-56.5 356,-56.5"/>
<text text-anchor="middle" x="382" y="-63.5" font-family="Helvetica,sans-Serif" font-size="10.00" fill="#000000">sstream</text>
</g>
<!-- Node0&#45;&gt;Node9 -->
<g id="edge16" class="edge">
<title>Node0&#45;&gt;Node9</title>
<path fill="none" stroke="#191970" d="M849.3482,-176.0687C748.4912,-170.373 466.1015,-152.7365 430,-132 411.4562,-121.3486 398.0931,-100.3139 390.248,-84.8426"/>
<polygon fill="#191970" stroke="#191970" points="393.3347,-83.183 385.8904,-75.6442 387.0087,-86.1798 393.3347,-83.183"/>
</g>
<!-- Node10 -->
<g id="node11" class="node">
<title>Node10</title>
<polygon fill="#ffffff" stroke="#bfbfbf" points="439,-112.5 439,-131.5 493,-131.5 493,-112.5 439,-112.5"/>
<text text-anchor="middle" x="466" y="-119.5" font-family="Helvetica,sans-Serif" font-size="10.00" fill="#000000">iostream</text>
</g>
<!-- Node0&#45;&gt;Node10 -->
<g id="edge10" class="edge">
<title>Node0&#45;&gt;Node10</title>
<path fill="none" stroke="#191970" d="M849.3396,-175.5298C782.9629,-170.5423 635.8817,-157.6602 502.9716,-131.9344"/>
<polygon fill="#191970" stroke="#191970" points="503.5088,-128.4731 493.0215,-129.9788 502.1588,-135.3417 503.5088,-128.4731"/>
</g>
<!-- Node11 -->
<g id="node12" class="node">
<title>Node11</title>
<polygon fill="#ffffff" stroke="#bfbfbf" points="511,-112.5 511,-131.5 561,-131.5 561,-112.5 511,-112.5"/>
<text text-anchor="middle" x="536" y="-119.5" font-family="Helvetica,sans-Serif" font-size="10.00" fill="#000000">iomanip</text>
</g>
<!-- Node0&#45;&gt;Node11 -->
<g id="edge11" class="edge">
<title>Node0&#45;&gt;Node11</title>
<path fill="none" stroke="#191970" d="M849.408,-174.3457C790.9009,-167.9907 670.9171,-153.4931 571,-132 570.8996,-131.9784 570.7991,-131.9567 570.6984,-131.9348"/>
<polygon fill="#191970" stroke="#191970" points="571.6776,-128.5709 561.1342,-129.6133 570.0264,-135.3734 571.6776,-128.5709"/>
</g>
<!-- Node12 -->
<g id="node13" class="node">
<title>Node12</title>
<polygon fill="#ffffff" stroke="#bfbfbf" points="579.5,-112.5 579.5,-131.5 662.5,-131.5 662.5,-112.5 579.5,-112.5"/>
<text text-anchor="middle" x="621" y="-119.5" font-family="Helvetica,sans-Serif" font-size="10.00" fill="#000000">unordered_map</text>
</g>
<!-- Node0&#45;&gt;Node12 -->
<g id="edge12" class="edge">
<title>Node0&#45;&gt;Node12</title>
<path fill="none" stroke="#191970" d="M849.3958,-170.4476C803.874,-160.7915 724.7216,-144.0015 672.5944,-132.9443"/>
<polygon fill="#191970" stroke="#191970" points="673.0559,-129.4643 662.5472,-130.813 671.6033,-136.312 673.0559,-129.4643"/>
</g>
<!-- Node13 -->
<g id="node14" class="node">
<title>Node13</title>
<polygon fill="#ffffff" stroke="#bfbfbf" points="680.5,-112.5 680.5,-131.5 715.5,-131.5 715.5,-112.5 680.5,-112.5"/>
<text text-anchor="middle" x="698" y="-119.5" font-family="Helvetica,sans-Serif" font-size="10.00" fill="#000000">map</text>
</g>
<!-- Node0&#45;&gt;Node13 -->
<g id="edge13" class="edge">
<title>Node0&#45;&gt;Node13</title>
<path fill="none" stroke="#191970" d="M849.4967,-168.6117C818.9553,-160.3541 773.5462,-147.6477 725.3294,-131.9351"/>
<polygon fill="#191970" stroke="#191970" points="726.2451,-128.5519 715.6522,-128.753 724.0585,-135.2017 726.2451,-128.5519"/>
</g>
<!-- Node14 -->
<g id="node15" class="node">
<title>Node14</title>
<polygon fill="#ffffff" stroke="#bfbfbf" points="733.5,-112.5 733.5,-131.5 774.5,-131.5 774.5,-112.5 733.5,-112.5"/>
<text text-anchor="middle" x="754" y="-119.5" font-family="Helvetica,sans-Serif" font-size="10.00" fill="#000000">regex</text>
</g>
<!-- Node0&#45;&gt;Node14 -->
<g id="edge15" class="edge">
<title>Node0&#45;&gt;Node14</title>
<path fill="none" stroke="#191970" d="M862.4803,-168.3733C840.7484,-159.0833 807.715,-144.9621 783.8107,-134.7435"/>
<polygon fill="#191970" stroke="#191970" points="785.0745,-131.4774 774.5036,-130.7649 782.3229,-137.914 785.0745,-131.4774"/>
</g>
<!-- Node15 -->
<g id="node16" class="node">
<title>Node15</title>
<polygon fill="#ffffff" stroke="#bfbfbf" points="793,-112.5 793,-131.5 845,-131.5 845,-112.5 793,-112.5"/>
<text text-anchor="middle" x="819" y="-119.5" font-family="Helvetica,sans-Serif" font-size="10.00" fill="#000000">memory</text>
</g>
<!-- Node0&#45;&gt;Node15 -->
<g id="edge17" class="edge">
<title>Node0&#45;&gt;Node15</title>
<path fill="none" stroke="#191970" d="M873.5037,-168.2455C863.7558,-159.9746 849.5741,-147.9416 838.1202,-138.2232"/>
<polygon fill="#191970" stroke="#191970" points="840.2541,-135.4437 830.3646,-131.6427 835.7253,-140.7813 840.2541,-135.4437"/>
</g>
<!-- Node16 -->
<g id="node17" class="node">
<title>Node16</title>
<polygon fill="#ffffff" stroke="#bfbfbf" points="863,-112.5 863,-131.5 907,-131.5 907,-112.5 863,-112.5"/>
<text text-anchor="middle" x="885" y="-119.5" font-family="Helvetica,sans-Serif" font-size="10.00" fill="#000000">thread</text>
</g>
<!-- Node0&#45;&gt;Node16 -->
<g id="edge18" class="edge">
<title>Node0&#45;&gt;Node16</title>
<path fill="none" stroke="#191970" d="M885,-168.2455C885,-160.9382 885,-150.6944 885,-141.7046"/>
<polygon fill="#191970" stroke="#191970" points="888.5001,-141.6426 885,-131.6427 881.5001,-141.6427 888.5001,-141.6426"/>
</g>
<!-- Node17 -->
<g id="node18" class="node">
<title>Node17</title>
<polygon fill="#ffffff" stroke="#bfbfbf" points="925.5,-112.5 925.5,-131.5 984.5,-131.5 984.5,-112.5 925.5,-112.5"/>
<text text-anchor="middle" x="955" y="-119.5" font-family="Helvetica,sans-Serif" font-size="10.00" fill="#000000">exception</text>
</g>
<!-- Node0&#45;&gt;Node17 -->
<g id="edge19" class="edge">
<title>Node0&#45;&gt;Node17</title>
<path fill="none" stroke="#191970" d="M897.1931,-168.2455C907.6321,-159.8943 922.8655,-147.7076 935.074,-137.9408"/>
<polygon fill="#191970" stroke="#191970" points="937.3244,-140.6227 942.9467,-131.6427 932.9515,-135.1566 937.3244,-140.6227"/>
</g>
<!-- Node18 -->
<g id="node19" class="node">
<title>Node18</title>
<polygon fill="#ffffff" stroke="#bfbfbf" points="1003,-112.5 1003,-131.5 1047,-131.5 1047,-112.5 1003,-112.5"/>
<text text-anchor="middle" x="1025" y="-119.5" font-family="Helvetica,sans-Serif" font-size="10.00" fill="#000000">mutex</text>
</g>
<!-- Node0&#45;&gt;Node18 -->
<g id="edge20" class="edge">
<title>Node0&#45;&gt;Node18</title>
<path fill="none" stroke="#191970" d="M909.0669,-168.3733C932.2569,-159.0972 967.4888,-145.0045 993.0263,-134.7895"/>
<polygon fill="#191970" stroke="#191970" points="994.6478,-137.9106 1002.6327,-130.9469 992.048,-131.4112 994.6478,-137.9106"/>
</g>
<!-- Node19 -->
<g id="node20" class="node">
<title>Node19</title>
<polygon fill="#ffffff" stroke="#bfbfbf" points="1065,-112.5 1065,-131.5 1109,-131.5 1109,-112.5 1065,-112.5"/>
<text text-anchor="middle" x="1087" y="-119.5" font-family="Helvetica,sans-Serif" font-size="10.00" fill="#000000">vector</text>
</g>
<!-- Node0&#45;&gt;Node19 -->
<g id="edge22" class="edge">
<title>Node0&#45;&gt;Node19</title>
<path fill="none" stroke="#191970" d="M920.513,-168.9914C953.1664,-160.5876 1003.1319,-147.4261 1054.9887,-132.2069"/>
<polygon fill="#191970" stroke="#191970" points="1056.0906,-135.5309 1064.6897,-129.3418 1054.1079,-128.8176 1056.0906,-135.5309"/>
</g>
<!-- Node20 -->
<g id="node21" class="node">
<title>Node20</title>
<polygon fill="#ffffff" stroke="#bfbfbf" points="1127,-112.5 1127,-131.5 1173,-131.5 1173,-112.5 1127,-112.5"/>
<text text-anchor="middle" x="1150" y="-119.5" font-family="Helvetica,sans-Serif" font-size="10.00" fill="#000000">cstring</text>
</g>
<!-- Node0&#45;&gt;Node20 -->
<g id="edge23" class="edge">
<title>Node0&#45;&gt;Node20</title>
<path fill="none" stroke="#191970" d="M920.794,-172.1705C964.7894,-164.7353 1041.8776,-150.8332 1116.6151,-132.1563"/>
<polygon fill="#191970" stroke="#191970" points="1117.8294,-135.4594 1126.6644,-129.612 1116.1112,-128.6735 1117.8294,-135.4594"/>
</g>
<!-- Node21 -->
<g id="node22" class="node">
<title>Node21</title>
<polygon fill="#ffffff" stroke="#bfbfbf" points="1191.5,-112.5 1191.5,-131.5 1240.5,-131.5 1240.5,-112.5 1191.5,-112.5"/>
<text text-anchor="middle" x="1216" y="-119.5" font-family="Helvetica,sans-Serif" font-size="10.00" fill="#000000">cassert</text>
</g>
<!-- Node0&#45;&gt;Node21 -->
<g id="edge24" class="edge">
<title>Node0&#45;&gt;Node21</title>
<path fill="none" stroke="#191970" d="M920.9456,-173.9918C975.2781,-167.5953 1081.6706,-153.7542 1181.2895,-131.9101"/>
<polygon fill="#191970" stroke="#191970" points="1182.2155,-135.2898 1191.2166,-129.7013 1180.6951,-128.4569 1182.2155,-135.2898"/>
</g>
<!-- Node22 -->
<g id="node23" class="node">
<title>Node22</title>
<polygon fill="#ffffff" stroke="#bfbfbf" points="1258.5,-112.5 1258.5,-131.5 1305.5,-131.5 1305.5,-112.5 1258.5,-112.5"/>
<text text-anchor="middle" x="1282" y="-119.5" font-family="Helvetica,sans-Serif" font-size="10.00" fill="#000000">csignal</text>
</g>
<!-- Node0&#45;&gt;Node22 -->
<g id="edge25" class="edge">
<title>Node0&#45;&gt;Node22</title>
<path fill="none" stroke="#191970" d="M920.5888,-175.6228C984.5548,-170.8977 1123.2298,-158.5941 1248.2358,-132.0864"/>
<polygon fill="#191970" stroke="#191970" points="1249.3233,-135.4323 1258.3599,-129.9014 1247.8465,-128.5899 1249.3233,-135.4323"/>
</g>
<!-- Node23 -->
<g id="node24" class="node">
<title>Node23</title>
<polygon fill="#ffffff" stroke="#bfbfbf" points="1324,-112.5 1324,-131.5 1392,-131.5 1392,-112.5 1324,-112.5"/>
<text text-anchor="middle" x="1358" y="-119.5" font-family="Helvetica,sans-Serif" font-size="10.00" fill="#000000">sys/types.h</text>
</g>
<!-- Node0&#45;&gt;Node23 -->
<g id="edge26" class="edge">
<title>Node0&#45;&gt;Node23</title>
<path fill="none" stroke="#191970" d="M920.596,-175.6674C992.8953,-170.6131 1162.238,-157.1641 1313.849,-132.0209"/>
<polygon fill="#191970" stroke="#191970" points="1314.5265,-135.4562 1323.8085,-130.3478 1313.3668,-128.553 1314.5265,-135.4562"/>
</g>
<!-- Node24 -->
<g id="node25" class="node">
<title>Node24</title>
<polygon fill="#ffffff" stroke="#bfbfbf" points="1410,-112.5 1410,-131.5 1480,-131.5 1480,-112.5 1410,-112.5"/>
<text text-anchor="middle" x="1445" y="-119.5" font-family="Helvetica,sans-Serif" font-size="10.00" fill="#000000">sys/sysctl.h</text>
</g>
<!-- Node0&#45;&gt;Node24 -->
<g id="edge27" class="edge">
<title>Node0&#45;&gt;Node24</title>
<path fill="none" stroke="#191970" d="M920.5478,-176.481C1003.0784,-172.6023 1214.1629,-160.6566 1399.6089,-132.0424"/>
<polygon fill="#191970" stroke="#191970" points="1400.1983,-135.4929 1409.5378,-130.4904 1399.1172,-128.5768 1400.1983,-135.4929"/>
</g>
<!-- Node25 -->
<g id="node26" class="node">
<title>Node25</title>
<polygon fill="#ffffff" stroke="#bfbfbf" points="1498.5,-112.5 1498.5,-131.5 1579.5,-131.5 1579.5,-112.5 1498.5,-112.5"/>
<text text-anchor="middle" x="1539" y="-119.5" font-family="Helvetica,sans-Serif" font-size="10.00" fill="#000000">sys/resource.h</text>
</g>
<!-- Node0&#45;&gt;Node25 -->
<g id="edge28" class="edge">
<title>Node0&#45;&gt;Node25</title>
<path fill="none" stroke="#191970" d="M920.5609,-176.7998C1012.6462,-173.3712 1266.5391,-161.8785 1488.2134,-131.9398"/>
<polygon fill="#191970" stroke="#191970" points="1488.9768,-135.3681 1498.4108,-130.5463 1488.029,-128.4326 1488.9768,-135.3681"/>
</g>
<!-- Node26 -->
<g id="node27" class="node">
<title>Node26</title>
<polygon fill="#ffffff" stroke="#bfbfbf" points="1597.5,-112.5 1597.5,-131.5 1644.5,-131.5 1644.5,-112.5 1597.5,-112.5"/>
<text text-anchor="middle" x="1621" y="-119.5" font-family="Helvetica,sans-Serif" font-size="10.00" fill="#000000">libutil.h</text>
</g>
<!-- Node0&#45;&gt;Node26 -->
<g id="edge29" class="edge">
<title>Node0&#45;&gt;Node26</title>
<path fill="none" stroke="#191970" d="M920.7995,-176.7858C1042.3478,-172.4917 1439.4332,-157.0166 1587.1922,-131.8902"/>
<polygon fill="#191970" stroke="#191970" points="1588.1659,-135.2716 1597.3928,-130.0644 1586.9325,-128.3811 1588.1659,-135.2716"/>
</g>
<!-- Node27 -->
<g id="node28" class="node">
<title>Node27</title>
<polygon fill="#ffffff" stroke="#bfbfbf" points="1663,-112.5 1663,-131.5 1709,-131.5 1709,-112.5 1663,-112.5"/>
<text text-anchor="middle" x="1686" y="-119.5" font-family="Helvetica,sans-Serif" font-size="10.00" fill="#000000">dlfcn.h</text>
</g>
<!-- Node0&#45;&gt;Node27 -->
<g id="edge30" class="edge">
<title>Node0&#45;&gt;Node27</title>
<path fill="none" stroke="#191970" d="M920.8686,-177.0111C1049.902,-173.2777 1490.9259,-158.9524 1652.5129,-131.7927"/>
<polygon fill="#191970" stroke="#191970" points="1653.5072,-135.1713 1662.746,-129.9852 1652.2896,-128.2781 1653.5072,-135.1713"/>
</g>
<!-- Node28 -->
<g id="node29" class="node">
<title>Node28</title>
<polygon fill="#ffffff" stroke="#bfbfbf" points="1727.5,-112.5 1727.5,-131.5 1778.5,-131.5 1778.5,-112.5 1727.5,-112.5"/>
<text text-anchor="middle" x="1753" y="-119.5" font-family="Helvetica,sans-Serif" font-size="10.00" fill="#000000">unistd.h</text>
</g>
<!-- Node0&#45;&gt;Node28 -->
<g id="edge31" class="edge">
<title>Node0&#45;&gt;Node28</title>
<path fill="none" stroke="#191970" d="M920.9372,-177.0829C1057.05,-173.4472 1541.6218,-158.9915 1717.044,-131.7249"/>
<polygon fill="#191970" stroke="#191970" points="1717.846,-135.1405 1727.1542,-130.0801 1716.7219,-128.2313 1717.846,-135.1405"/>
</g>
<!-- Node2 -->
<g id="node3" class="node">
<title>Node2</title>
<polygon fill="#ffffff" stroke="#bfbfbf" points="0,-56.5 0,-75.5 62,-75.5 62,-56.5 0,-56.5"/>
<text text-anchor="middle" x="31" y="-63.5" font-family="Helvetica,sans-Serif" font-size="10.00" fill="#000000">type_traits</text>
</g>
<!-- Node1&#45;&gt;Node2 -->
<g id="edge2" class="edge">
<title>Node1&#45;&gt;Node2</title>
<path fill="none" stroke="#191970" d="M90.4586,-112.2455C79.7213,-103.8943 64.0527,-91.7076 51.4953,-81.9408"/>
<polygon fill="#191970" stroke="#191970" points="53.4401,-79.0194 43.3977,-75.6427 49.1425,-84.5449 53.4401,-79.0194"/>
</g>
<!-- Node1&#45;&gt;Node3 -->
<g id="edge3" class="edge">
<title>Node1&#45;&gt;Node3</title>
<path fill="none" stroke="#191970" d="M113.277,-112.2455C121.8218,-104.1352 134.1778,-92.4075 144.3085,-82.7919"/>
<polygon fill="#191970" stroke="#191970" points="146.9972,-85.0655 151.8408,-75.6427 142.1782,-79.9884 146.9972,-85.0655"/>
</g>
<!-- Node4 -->
<g id="node5" class="node">
<title>Node4</title>
<polygon fill="#ffffff" stroke="#bfbfbf" points="80.5,-56.5 80.5,-75.5 123.5,-75.5 123.5,-56.5 80.5,-56.5"/>
<text text-anchor="middle" x="102" y="-63.5" font-family="Helvetica,sans-Serif" font-size="10.00" fill="#000000">cstdio</text>
</g>
<!-- Node1&#45;&gt;Node4 -->
<g id="edge4" class="edge">
<title>Node1&#45;&gt;Node4</title>
<path fill="none" stroke="#191970" d="M102.8258,-112.2455C102.6953,-104.9382 102.5124,-94.6944 102.3519,-85.7046"/>
<polygon fill="#191970" stroke="#191970" points="105.8503,-85.5786 102.1722,-75.6427 98.8514,-85.7036 105.8503,-85.5786"/>
</g>
<!-- Node6 -->
<g id="node7" class="node">
<title>Node6</title>
<g id="a_node7"><a xlink:href="types_8hpp.html" target="_top" xlink:title="A collection of type aliases. ">
<polygon fill="#ffffff" stroke="#000000" points="204.5,-56.5 204.5,-75.5 263.5,-75.5 263.5,-56.5 204.5,-56.5"/>
<text text-anchor="middle" x="234" y="-63.5" font-family="Helvetica,sans-Serif" font-size="10.00" fill="#000000">types.hpp</text>
</a>
</g>
</g>
<!-- Node5&#45;&gt;Node6 -->
<g id="edge6" class="edge">
<title>Node5&#45;&gt;Node6</title>
<path fill="none" stroke="#191970" d="M229.0451,-112.2455C229.828,-104.9382 230.9256,-94.6944 231.8888,-85.7046"/>
<polygon fill="#191970" stroke="#191970" points="235.3815,-85.9587 232.9669,-75.6427 228.4214,-85.2129 235.3815,-85.9587"/>
</g>
<!-- Node6&#45;&gt;Node7 -->
<g id="edge7" class="edge">
<title>Node6&#45;&gt;Node7</title>
<path fill="none" stroke="#191970" d="M239.0514,-56.2455C243.0019,-48.617 248.6097,-37.7881 253.4058,-28.5267"/>
<polygon fill="#191970" stroke="#191970" points="256.5159,-30.1321 258.0065,-19.6427 250.2999,-26.9131 256.5159,-30.1321"/>
</g>
<!-- Node8&#45;&gt;Node9 -->
<g id="edge9" class="edge">
<title>Node8&#45;&gt;Node9</title>
<path fill="none" stroke="#191970" d="M358.0514,-112.2455C362.0019,-104.617 367.6097,-93.7881 372.4058,-84.5267"/>
<polygon fill="#191970" stroke="#191970" points="375.5159,-86.1321 377.0065,-75.6427 369.2999,-82.9131 375.5159,-86.1321"/>
</g>
</g>
</svg>
