<?xml version="1.0" encoding="UTF-8" standalone="no"?>
<!DOCTYPE svg PUBLIC "-//W3C//DTD SVG 1.1//EN"
 "http://www.w3.org/Graphics/SVG/1.1/DTD/svg11.dtd">
<!-- Generated by graphviz version 2.40.1 (20161225.0304)
 -->
<!-- Title: src/loadrec.cpp Pages: 1 -->
<svg width="1082pt" height="252pt"
 viewBox="0.00 0.00 1082.00 252.00" xmlns="http://www.w3.org/2000/svg" xmlns:xlink="http://www.w3.org/1999/xlink">
<g id="graph0" class="graph" transform="scale(1 1) rotate(0) translate(4 248)">
<title>src/loadrec.cpp</title>
<polygon fill="#ffffff" stroke="transparent" points="-4,4 -4,-248 1078,-248 1078,4 -4,4"/>
<!-- Node1 -->
<g id="node1" class="node">
<title>Node1</title>
<g id="a_node1"><a xlink:title=" ">
<polygon fill="#bfbfbf" stroke="#000000" points="564.5,-224.5 564.5,-243.5 647.5,-243.5 647.5,-224.5 564.5,-224.5"/>
<text text-anchor="middle" x="606" y="-231.5" font-family="Helvetica,sans-Serif" font-size="10.00" fill="#000000">src/loadrec.cpp</text>
</a>
</g>
</g>
<!-- Node2 -->
<g id="node2" class="node">
<title>Node2</title>
<g id="a_node2"><a xlink:href="Options_8hpp.html" target="_top" xlink:title=" ">
<polygon fill="#ffffff" stroke="#000000" points="253.5,-168.5 253.5,-187.5 322.5,-187.5 322.5,-168.5 253.5,-168.5"/>
<text text-anchor="middle" x="288" y="-175.5" font-family="Helvetica,sans-Serif" font-size="10.00" fill="#000000">Options.hpp</text>
</a>
</g>
</g>
<!-- Node1&#45;&gt;Node2 -->
<g id="edge1" class="edge">
<title>Node1&#45;&gt;Node2</title>
<path fill="none" stroke="#191970" d="M564.4271,-226.679C504.5874,-216.1412 394.6115,-196.7744 332.9486,-185.9155"/>
<polygon fill="#191970" stroke="#191970" points="333.2064,-182.4071 322.7509,-184.1197 331.9923,-189.301 333.2064,-182.4071"/>
</g>
<!-- Node3 -->
<g id="node3" class="node">
<title>Node3</title>
<g id="a_node3"><a xlink:href="utility_8hpp.html" target="_top" xlink:title=" ">
<polygon fill="#ffffff" stroke="#000000" points="436.5,-56.5 436.5,-75.5 495.5,-75.5 495.5,-56.5 436.5,-56.5"/>
<text text-anchor="middle" x="466" y="-63.5" font-family="Helvetica,sans-Serif" font-size="10.00" fill="#000000">utility.hpp</text>
</a>
</g>
</g>
<!-- Node1&#45;&gt;Node3 -->
<g id="edge15" class="edge">
<title>Node1&#45;&gt;Node3</title>
<path fill="none" stroke="#191970" d="M607.361,-224.4919C610.0048,-202.1403 613.3835,-145.6135 586,-112 566.2569,-87.7652 532.1827,-76.2791 505.3767,-70.8463"/>
<polygon fill="#191970" stroke="#191970" points="505.9694,-67.3967 495.5039,-69.0465 504.714,-74.2832 505.9694,-67.3967"/>
</g>
<!-- Node9 -->
<g id="node9" class="node">
<title>Node9</title>
<g id="a_node9"><a xlink:href="types_8hpp.html" target="_top" xlink:title=" ">
<polygon fill="#ffffff" stroke="#000000" points="56.5,-112.5 56.5,-131.5 115.5,-131.5 115.5,-112.5 56.5,-112.5"/>
<text text-anchor="middle" x="86" y="-119.5" font-family="Helvetica,sans-Serif" font-size="10.00" fill="#000000">types.hpp</text>
</a>
</g>
</g>
<!-- Node1&#45;&gt;Node9 -->
<g id="edge9" class="edge">
<title>Node1&#45;&gt;Node9</title>
<path fill="none" stroke="#191970" d="M564.4105,-232.0154C455.331,-226.526 166.8609,-210.0738 130,-188 112.337,-177.4226 100.2981,-156.6908 93.3384,-141.2719"/>
<polygon fill="#191970" stroke="#191970" points="96.4009,-139.5216 89.3248,-131.6362 89.939,-142.2132 96.4009,-139.5216"/>
</g>
<!-- Node10 -->
<g id="node10" class="node">
<title>Node10</title>
<g id="a_node10"><a xlink:title=" ">
<polygon fill="#ffffff" stroke="#bfbfbf" points="86,-56.5 86,-75.5 132,-75.5 132,-56.5 86,-56.5"/>
<text text-anchor="middle" x="109" y="-63.5" font-family="Helvetica,sans-Serif" font-size="10.00" fill="#000000">chrono</text>
</a>
</g>
</g>
<!-- Node1&#45;&gt;Node10 -->
<g id="edge35" class="edge">
<title>Node1&#45;&gt;Node10</title>
<path fill="none" stroke="#191970" d="M564.3308,-231.8383C481.7145,-227.0455 300.2735,-213.8509 244,-188 191.1585,-163.7257 144.5084,-111.2816 122.4671,-83.7298"/>
<polygon fill="#191970" stroke="#191970" points="125.1203,-81.4411 116.1988,-75.7263 119.6093,-85.7572 125.1203,-81.4411"/>
</g>
<!-- Node11 -->
<g id="node11" class="node">
<title>Node11</title>
<g id="a_node11"><a xlink:href="constants_8hpp.html" target="_top" xlink:title=" ">
<polygon fill="#ffffff" stroke="#000000" points="0,-168.5 0,-187.5 78,-187.5 78,-168.5 0,-168.5"/>
<text text-anchor="middle" x="39" y="-175.5" font-family="Helvetica,sans-Serif" font-size="10.00" fill="#000000">constants.hpp</text>
</a>
</g>
</g>
<!-- Node1&#45;&gt;Node11 -->
<g id="edge11" class="edge">
<title>Node1&#45;&gt;Node11</title>
<path fill="none" stroke="#191970" d="M564.2033,-231.6415C476.4288,-226.3852 266.601,-212.2262 92,-188 90.7218,-187.8226 89.4276,-187.6354 88.1229,-187.4399"/>
<polygon fill="#191970" stroke="#191970" points="88.4342,-183.9448 78.0038,-185.8043 87.3172,-190.8552 88.4342,-183.9448"/>
</g>
<!-- Node12 -->
<g id="node12" class="node">
<title>Node12</title>
<g id="a_node12"><a xlink:href="errors_8hpp.html" target="_top" xlink:title=" ">
<polygon fill="#ffffff" stroke="#000000" points="450,-112.5 450,-131.5 510,-131.5 510,-112.5 450,-112.5"/>
<text text-anchor="middle" x="480" y="-119.5" font-family="Helvetica,sans-Serif" font-size="10.00" fill="#000000">errors.hpp</text>
</a>
</g>
</g>
<!-- Node1&#45;&gt;Node12 -->
<g id="edge13" class="edge">
<title>Node1&#45;&gt;Node12</title>
<path fill="none" stroke="#191970" d="M595.2573,-224.4509C573.6841,-205.2747 524.8833,-161.8962 498.2237,-138.1988"/>
<polygon fill="#191970" stroke="#191970" points="500.5149,-135.5526 490.7155,-131.5249 495.8643,-140.7845 500.5149,-135.5526"/>
</g>
<!-- Node13 -->
<g id="node13" class="node">
<title>Node13</title>
<g id="a_node13"><a xlink:href="clas_8hpp.html" target="_top" xlink:title=" ">
<polygon fill="#ffffff" stroke="#000000" points="376.5,-168.5 376.5,-187.5 429.5,-187.5 429.5,-168.5 376.5,-168.5"/>
<text text-anchor="middle" x="403" y="-175.5" font-family="Helvetica,sans-Serif" font-size="10.00" fill="#000000">clas.hpp</text>
</a>
</g>
</g>
<!-- Node1&#45;&gt;Node13 -->
<g id="edge16" class="edge">
<title>Node1&#45;&gt;Node13</title>
<path fill="none" stroke="#191970" d="M571.1031,-224.3733C534.422,-214.2543 476.963,-198.4036 439.6397,-188.1075"/>
<polygon fill="#191970" stroke="#191970" points="440.2512,-184.6455 429.6805,-185.3601 438.3897,-191.3935 440.2512,-184.6455"/>
</g>
<!-- Node15 -->
<g id="node15" class="node">
<title>Node15</title>
<g id="a_node15"><a xlink:href="version_8hpp.html" target="_top" xlink:title=" ">
<polygon fill="#ffffff" stroke="#000000" points="634.5,-168.5 634.5,-187.5 701.5,-187.5 701.5,-168.5 634.5,-168.5"/>
<text text-anchor="middle" x="668" y="-175.5" font-family="Helvetica,sans-Serif" font-size="10.00" fill="#000000">version.hpp</text>
</a>
</g>
</g>
<!-- Node1&#45;&gt;Node15 -->
<g id="edge22" class="edge">
<title>Node1&#45;&gt;Node15</title>
<path fill="none" stroke="#191970" d="M616.7996,-224.2455C625.8678,-216.0549 639.0206,-204.1749 649.7245,-194.5069"/>
<polygon fill="#191970" stroke="#191970" points="652.2491,-196.9429 657.3242,-187.6427 647.5571,-191.7482 652.2491,-196.9429"/>
</g>
<!-- Node17 -->
<g id="node17" class="node">
<title>Node17</title>
<g id="a_node17"><a xlink:href="io_8hpp.html" target="_top" xlink:title=" ">
<polygon fill="#ffffff" stroke="#000000" points="596,-56.5 596,-75.5 658,-75.5 658,-56.5 596,-56.5"/>
<text text-anchor="middle" x="627" y="-63.5" font-family="Helvetica,sans-Serif" font-size="10.00" fill="#000000">sys/io.hpp</text>
</a>
</g>
</g>
<!-- Node1&#45;&gt;Node17 -->
<g id="edge25" class="edge">
<title>Node1&#45;&gt;Node17</title>
<path fill="none" stroke="#191970" d="M647.7481,-224.827C669.4177,-218.049 694.6975,-206.6591 711,-188 728.0309,-168.5071 723.4097,-157.6346 727,-132 728.2329,-123.197 731.7954,-119.4844 727,-112 714.006,-91.7199 689.567,-80.2588 668.1025,-73.8488"/>
<polygon fill="#191970" stroke="#191970" points="668.7523,-70.3989 658.1855,-71.1684 666.9258,-77.1564 668.7523,-70.3989"/>
</g>
<!-- Node18 -->
<g id="node18" class="node">
<title>Node18</title>
<g id="a_node18"><a xlink:href="sysctl_8hpp.html" target="_top" xlink:title=" ">
<polygon fill="#ffffff" stroke="#000000" points="774,-168.5 774,-187.5 854,-187.5 854,-168.5 774,-168.5"/>
<text text-anchor="middle" x="814" y="-175.5" font-family="Helvetica,sans-Serif" font-size="10.00" fill="#000000">sys/sysctl.hpp</text>
</a>
</g>
</g>
<!-- Node1&#45;&gt;Node18 -->
<g id="edge27" class="edge">
<title>Node1&#45;&gt;Node18</title>
<path fill="none" stroke="#191970" d="M641.7565,-224.3733C676.9426,-214.9001 730.7881,-200.4032 768.8956,-190.1435"/>
<polygon fill="#191970" stroke="#191970" points="769.9639,-193.4806 778.7101,-187.5011 768.144,-186.7213 769.9639,-193.4806"/>
</g>
<!-- Node22 -->
<g id="node22" class="node">
<title>Node22</title>
<g id="a_node22"><a xlink:title=" ">
<polygon fill="#ffffff" stroke="#bfbfbf" points="1022,-112.5 1022,-131.5 1074,-131.5 1074,-112.5 1022,-112.5"/>
<text text-anchor="middle" x="1048" y="-119.5" font-family="Helvetica,sans-Serif" font-size="10.00" fill="#000000">memory</text>
</a>
</g>
</g>
<!-- Node1&#45;&gt;Node22 -->
<g id="edge37" class="edge">
<title>Node1&#45;&gt;Node22</title>
<path fill="none" stroke="#191970" d="M647.9387,-230.48C699.6506,-225.242 789.6928,-213.1747 863,-188 881.0505,-181.8012 883.3761,-175.3243 901,-168 921.145,-159.6279 975.324,-143.242 1011.9711,-132.4583"/>
<polygon fill="#191970" stroke="#191970" points="1013.1884,-135.7488 1021.7997,-129.5766 1011.2189,-129.0316 1013.1884,-135.7488"/>
</g>
<!-- Node25 -->
<g id="node25" class="node">
<title>Node25</title>
<g id="a_node25"><a xlink:title=" ">
<polygon fill="#ffffff" stroke="#bfbfbf" points="910,-168.5 910,-187.5 954,-187.5 954,-168.5 910,-168.5"/>
<text text-anchor="middle" x="932" y="-175.5" font-family="Helvetica,sans-Serif" font-size="10.00" fill="#000000">thread</text>
</a>
</g>
</g>
<!-- Node1&#45;&gt;Node25 -->
<g id="edge36" class="edge">
<title>Node1&#45;&gt;Node25</title>
<path fill="none" stroke="#191970" d="M647.5762,-228.9165C704.136,-221.6578 808.3301,-207.0649 896,-188 897.2479,-187.7286 898.5168,-187.4399 899.796,-187.138"/>
<polygon fill="#191970" stroke="#191970" points="900.8004,-190.494 909.6297,-184.6378 899.0755,-183.7098 900.8004,-190.494"/>
</g>
<!-- Node26 -->
<g id="node26" class="node">
<title>Node26</title>
<g id="a_node26"><a xlink:title=" ">
<polygon fill="#ffffff" stroke="#bfbfbf" points="972.5,-168.5 972.5,-187.5 1053.5,-187.5 1053.5,-168.5 972.5,-168.5"/>
<text text-anchor="middle" x="1013" y="-175.5" font-family="Helvetica,sans-Serif" font-size="10.00" fill="#000000">sys/resource.h</text>
</a>
</g>
</g>
<!-- Node1&#45;&gt;Node26 -->
<g id="edge38" class="edge">
<title>Node1&#45;&gt;Node26</title>
<path fill="none" stroke="#191970" d="M647.6354,-229.5823C712.558,-222.4869 842.0495,-207.5073 962.2686,-188.0217"/>
<polygon fill="#191970" stroke="#191970" points="963.0798,-191.4357 972.3839,-186.3678 961.9501,-184.5274 963.0798,-191.4357"/>
</g>
<!-- Node2&#45;&gt;Node3 -->
<g id="edge2" class="edge">
<title>Node2&#45;&gt;Node3</title>
<path fill="none" stroke="#191970" d="M288.0009,-168.493C288.5313,-154.2357 291.6651,-127.3551 307,-112 323.7541,-95.2237 384.9735,-80.9622 426.3728,-72.944"/>
<polygon fill="#191970" stroke="#191970" points="427.2562,-76.3391 436.4319,-71.0422 425.9558,-69.4609 427.2562,-76.3391"/>
</g>
<!-- Node4 -->
<g id="node4" class="node">
<title>Node4</title>
<g id="a_node4"><a xlink:title=" ">
<polygon fill="#ffffff" stroke="#bfbfbf" points="231,-.5 231,-19.5 293,-19.5 293,-.5 231,-.5"/>
<text text-anchor="middle" x="262" y="-7.5" font-family="Helvetica,sans-Serif" font-size="10.00" fill="#000000">type_traits</text>
</a>
</g>
</g>
<!-- Node2&#45;&gt;Node4 -->
<g id="edge7" class="edge">
<title>Node2&#45;&gt;Node4</title>
<path fill="none" stroke="#191970" d="M253.4071,-169.2084C234.3758,-162.4119 212.3735,-150.879 201,-132 179.1673,-95.7597 217.5205,-50.6811 242.6854,-26.7525"/>
<polygon fill="#191970" stroke="#191970" points="245.2984,-29.105 250.2994,-19.7647 240.5653,-23.9477 245.2984,-29.105"/>
</g>
<!-- Node7 -->
<g id="node7" class="node">
<title>Node7</title>
<g id="a_node7"><a xlink:title=" ">
<polygon fill="#ffffff" stroke="#bfbfbf" points="210.5,-112.5 210.5,-131.5 259.5,-131.5 259.5,-112.5 210.5,-112.5"/>
<text text-anchor="middle" x="235" y="-119.5" font-family="Helvetica,sans-Serif" font-size="10.00" fill="#000000">cstddef</text>
</a>
</g>
</g>
<!-- Node2&#45;&gt;Node7 -->
<g id="edge6" class="edge">
<title>Node2&#45;&gt;Node7</title>
<path fill="none" stroke="#191970" d="M278.7681,-168.2455C271.1683,-160.2155 260.2123,-148.6394 251.1632,-139.0781"/>
<polygon fill="#191970" stroke="#191970" points="253.542,-136.4998 244.1261,-131.6427 248.4579,-141.3115 253.542,-136.4998"/>
</g>
<!-- Node8 -->
<g id="node8" class="node">
<title>Node8</title>
<g id="a_node8"><a xlink:title=" ">
<polygon fill="#ffffff" stroke="#bfbfbf" points="528.5,-112.5 528.5,-131.5 577.5,-131.5 577.5,-112.5 528.5,-112.5"/>
<text text-anchor="middle" x="553" y="-119.5" font-family="Helvetica,sans-Serif" font-size="10.00" fill="#000000">cassert</text>
</a>
</g>
</g>
<!-- Node2&#45;&gt;Node8 -->
<g id="edge8" class="edge">
<title>Node2&#45;&gt;Node8</title>
<path fill="none" stroke="#191970" d="M322.6528,-172.0983C366.0736,-164.4853 442.9404,-150.291 518.0801,-132.0567"/>
<polygon fill="#191970" stroke="#191970" points="519.3096,-135.3589 528.1873,-129.5765 517.6413,-128.5606 519.3096,-135.3589"/>
</g>
<!-- Node3&#45;&gt;Node4 -->
<g id="edge3" class="edge">
<title>Node3&#45;&gt;Node4</title>
<path fill="none" stroke="#191970" d="M436.3366,-57.8571C401.1635,-48.2017 342.3466,-32.0559 302.8763,-21.2209"/>
<polygon fill="#191970" stroke="#191970" points="303.6067,-17.792 293.0369,-18.5199 301.7537,-24.5423 303.6067,-17.792"/>
</g>
<!-- Node5 -->
<g id="node5" class="node">
<title>Node5</title>
<g id="a_node5"><a xlink:title=" ">
<polygon fill="#ffffff" stroke="#bfbfbf" points="377.5,-.5 377.5,-19.5 418.5,-19.5 418.5,-.5 377.5,-.5"/>
<text text-anchor="middle" x="398" y="-7.5" font-family="Helvetica,sans-Serif" font-size="10.00" fill="#000000">string</text>
</a>
</g>
</g>
<!-- Node3&#45;&gt;Node5 -->
<g id="edge4" class="edge">
<title>Node3&#45;&gt;Node5</title>
<path fill="none" stroke="#191970" d="M454.1553,-56.2455C444.112,-47.9746 429.5005,-35.9416 417.6996,-26.2232"/>
<polygon fill="#191970" stroke="#191970" points="419.6533,-23.298 409.709,-19.6427 415.2033,-28.7015 419.6533,-23.298"/>
</g>
<!-- Node6 -->
<g id="node6" class="node">
<title>Node6</title>
<g id="a_node6"><a xlink:title=" ">
<polygon fill="#ffffff" stroke="#bfbfbf" points="454.5,-.5 454.5,-19.5 497.5,-19.5 497.5,-.5 454.5,-.5"/>
<text text-anchor="middle" x="476" y="-7.5" font-family="Helvetica,sans-Serif" font-size="10.00" fill="#000000">cstdio</text>
</a>
</g>
</g>
<!-- Node3&#45;&gt;Node6 -->
<g id="edge5" class="edge">
<title>Node3&#45;&gt;Node6</title>
<path fill="none" stroke="#191970" d="M467.7419,-56.2455C469.0467,-48.9382 470.876,-38.6944 472.4813,-29.7046"/>
<polygon fill="#191970" stroke="#191970" points="475.9656,-30.1022 474.2781,-19.6427 469.0746,-28.8717 475.9656,-30.1022"/>
</g>
<!-- Node9&#45;&gt;Node10 -->
<g id="edge10" class="edge">
<title>Node9&#45;&gt;Node10</title>
<path fill="none" stroke="#191970" d="M90.0063,-112.2455C93.0735,-104.7776 97.4003,-94.2427 101.1497,-85.1137"/>
<polygon fill="#191970" stroke="#191970" points="104.4779,-86.2226 105.0396,-75.6427 98.0028,-83.5631 104.4779,-86.2226"/>
</g>
<!-- Node11&#45;&gt;Node9 -->
<g id="edge12" class="edge">
<title>Node11&#45;&gt;Node9</title>
<path fill="none" stroke="#191970" d="M47.1868,-168.2455C53.8589,-160.2958 63.4479,-148.8706 71.4253,-139.3656"/>
<polygon fill="#191970" stroke="#191970" points="74.1592,-141.5525 77.907,-131.6427 68.7974,-137.0524 74.1592,-141.5525"/>
</g>
<!-- Node12&#45;&gt;Node3 -->
<g id="edge14" class="edge">
<title>Node12&#45;&gt;Node3</title>
<path fill="none" stroke="#191970" d="M477.5614,-112.2455C475.7145,-104.8579 473.1172,-94.4689 470.8522,-85.4087"/>
<polygon fill="#191970" stroke="#191970" points="474.2316,-84.4952 468.4107,-75.6427 467.4406,-86.193 474.2316,-84.4952"/>
</g>
<!-- Node13&#45;&gt;Node3 -->
<g id="edge19" class="edge">
<title>Node13&#45;&gt;Node3</title>
<path fill="none" stroke="#191970" d="M408.3713,-168.4509C418.8325,-149.8533 442.0983,-108.4919 455.652,-84.3964"/>
<polygon fill="#191970" stroke="#191970" points="458.7901,-85.9566 460.6423,-75.5249 452.6891,-82.5247 458.7901,-85.9566"/>
</g>
<!-- Node13&#45;&gt;Node5 -->
<g id="edge20" class="edge">
<title>Node13&#45;&gt;Node5</title>
<path fill="none" stroke="#191970" d="M402.7169,-168.4862C401.9265,-141.9293 399.6835,-66.5651 398.6002,-30.1655"/>
<polygon fill="#191970" stroke="#191970" points="402.0885,-29.7193 398.2925,-19.8279 395.0916,-29.9276 402.0885,-29.7193"/>
</g>
<!-- Node13&#45;&gt;Node9 -->
<g id="edge17" class="edge">
<title>Node13&#45;&gt;Node9</title>
<path fill="none" stroke="#191970" d="M376.246,-173.2737C320.4214,-163.412 191.287,-140.5996 125.7275,-129.0181"/>
<polygon fill="#191970" stroke="#191970" points="126.2289,-125.5526 115.7725,-127.2595 125.0111,-132.4458 126.2289,-125.5526"/>
</g>
<!-- Node13&#45;&gt;Node12 -->
<g id="edge18" class="edge">
<title>Node13&#45;&gt;Node12</title>
<path fill="none" stroke="#191970" d="M416.4124,-168.2455C428.0057,-159.814 444.9748,-147.4729 458.4678,-137.6598"/>
<polygon fill="#191970" stroke="#191970" points="460.7126,-140.355 466.7413,-131.6427 456.5953,-134.6938 460.7126,-140.355"/>
</g>
<!-- Node14 -->
<g id="node14" class="node">
<title>Node14</title>
<g id="a_node14"><a xlink:title=" ">
<polygon fill="#ffffff" stroke="#bfbfbf" points="316,-112.5 316,-131.5 356,-131.5 356,-112.5 316,-112.5"/>
<text text-anchor="middle" x="336" y="-119.5" font-family="Helvetica,sans-Serif" font-size="10.00" fill="#000000">utility</text>
</a>
</g>
</g>
<!-- Node13&#45;&gt;Node14 -->
<g id="edge21" class="edge">
<title>Node13&#45;&gt;Node14</title>
<path fill="none" stroke="#191970" d="M391.3295,-168.2455C381.4339,-159.9746 367.0373,-147.9416 355.4099,-138.2232"/>
<polygon fill="#191970" stroke="#191970" points="357.4542,-135.3703 347.5368,-131.6427 352.965,-140.7413 357.4542,-135.3703"/>
</g>
<!-- Node15&#45;&gt;Node3 -->
<g id="edge23" class="edge">
<title>Node15&#45;&gt;Node3</title>
<path fill="none" stroke="#191970" d="M663.5618,-168.3793C656.4271,-153.9734 641.0446,-126.9014 620,-112 585.8893,-87.8467 538.9728,-76.2098 505.9142,-70.7113"/>
<polygon fill="#191970" stroke="#191970" points="506.1188,-67.2015 495.7016,-69.1337 505.05,-74.1194 506.1188,-67.2015"/>
</g>
<!-- Node16 -->
<g id="node16" class="node">
<title>Node16</title>
<g id="a_node16"><a xlink:title=" ">
<polygon fill="#ffffff" stroke="#bfbfbf" points="672,-112.5 672,-131.5 718,-131.5 718,-112.5 672,-112.5"/>
<text text-anchor="middle" x="695" y="-119.5" font-family="Helvetica,sans-Serif" font-size="10.00" fill="#000000">cstdint</text>
</a>
</g>
</g>
<!-- Node15&#45;&gt;Node16 -->
<g id="edge24" class="edge">
<title>Node15&#45;&gt;Node16</title>
<path fill="none" stroke="#191970" d="M672.703,-168.2455C676.3424,-160.6973 681.4924,-150.0158 685.9262,-140.8197"/>
<polygon fill="#191970" stroke="#191970" points="689.1605,-142.1704 690.3509,-131.6427 682.8551,-139.1303 689.1605,-142.1704"/>
</g>
<!-- Node17&#45;&gt;Node6 -->
<g id="edge26" class="edge">
<title>Node17&#45;&gt;Node6</title>
<path fill="none" stroke="#191970" d="M601.0422,-56.3733C575.0577,-46.7366 535.0558,-31.9015 507.3225,-21.6163"/>
<polygon fill="#191970" stroke="#191970" points="508.3017,-18.2466 497.7087,-18.0509 505.8676,-24.8098 508.3017,-18.2466"/>
</g>
<!-- Node18&#45;&gt;Node8 -->
<g id="edge32" class="edge">
<title>Node18&#45;&gt;Node8</title>
<path fill="none" stroke="#191970" d="M773.7907,-169.3727C722.7681,-158.4253 635.6272,-139.7284 587.4914,-129.4005"/>
<polygon fill="#191970" stroke="#191970" points="588.0669,-125.9444 577.5552,-127.2685 586.5984,-132.7886 588.0669,-125.9444"/>
</g>
<!-- Node19 -->
<g id="node19" class="node">
<title>Node19</title>
<g id="a_node19"><a xlink:href="error_8hpp.html" target="_top" xlink:title=" ">
<polygon fill="#ffffff" stroke="#000000" points="774.5,-112.5 774.5,-131.5 829.5,-131.5 829.5,-112.5 774.5,-112.5"/>
<text text-anchor="middle" x="802" y="-119.5" font-family="Helvetica,sans-Serif" font-size="10.00" fill="#000000">error.hpp</text>
</a>
</g>
</g>
<!-- Node18&#45;&gt;Node19 -->
<g id="edge28" class="edge">
<title>Node18&#45;&gt;Node19</title>
<path fill="none" stroke="#191970" d="M811.9098,-168.2455C810.3439,-160.9382 808.1488,-150.6944 806.2224,-141.7046"/>
<polygon fill="#191970" stroke="#191970" points="809.584,-140.6873 804.0663,-131.6427 802.7393,-142.1541 809.584,-140.6873"/>
</g>
<!-- Node18&#45;&gt;Node22 -->
<g id="edge31" class="edge">
<title>Node18&#45;&gt;Node22</title>
<path fill="none" stroke="#191970" d="M854.1682,-169.3475C892.3407,-160.9842 951.5778,-147.6432 1011.6323,-132.2665"/>
<polygon fill="#191970" stroke="#191970" points="1012.8563,-135.5654 1021.6661,-129.68 1011.109,-128.787 1012.8563,-135.5654"/>
</g>
<!-- Node23 -->
<g id="node23" class="node">
<title>Node23</title>
<g id="a_node23"><a xlink:title=" ">
<polygon fill="#ffffff" stroke="#bfbfbf" points="848,-112.5 848,-131.5 916,-131.5 916,-112.5 848,-112.5"/>
<text text-anchor="middle" x="882" y="-119.5" font-family="Helvetica,sans-Serif" font-size="10.00" fill="#000000">sys/types.h</text>
</a>
</g>
</g>
<!-- Node18&#45;&gt;Node23 -->
<g id="edge33" class="edge">
<title>Node18&#45;&gt;Node23</title>
<path fill="none" stroke="#191970" d="M825.8447,-168.2455C835.888,-159.9746 850.4995,-147.9416 862.3004,-138.2232"/>
<polygon fill="#191970" stroke="#191970" points="864.7967,-140.7015 870.291,-131.6427 860.3467,-135.298 864.7967,-140.7015"/>
</g>
<!-- Node24 -->
<g id="node24" class="node">
<title>Node24</title>
<g id="a_node24"><a xlink:title=" ">
<polygon fill="#ffffff" stroke="#bfbfbf" points="934,-112.5 934,-131.5 1004,-131.5 1004,-112.5 934,-112.5"/>
<text text-anchor="middle" x="969" y="-119.5" font-family="Helvetica,sans-Serif" font-size="10.00" fill="#000000">sys/sysctl.h</text>
</a>
</g>
</g>
<!-- Node18&#45;&gt;Node24 -->
<g id="edge34" class="edge">
<title>Node18&#45;&gt;Node24</title>
<path fill="none" stroke="#191970" d="M840.6454,-168.3733C866.1964,-159.1419 904.9512,-145.1402 933.1909,-134.9375"/>
<polygon fill="#191970" stroke="#191970" points="934.4865,-138.1909 942.7022,-131.5011 932.1079,-131.6074 934.4865,-138.1909"/>
</g>
<!-- Node20 -->
<g id="node20" class="node">
<title>Node20</title>
<g id="a_node20"><a xlink:title=" ">
<polygon fill="#ffffff" stroke="#bfbfbf" points="748,-56.5 748,-75.5 792,-75.5 792,-56.5 748,-56.5"/>
<text text-anchor="middle" x="770" y="-63.5" font-family="Helvetica,sans-Serif" font-size="10.00" fill="#000000">cerrno</text>
</a>
</g>
</g>
<!-- Node19&#45;&gt;Node20 -->
<g id="edge29" class="edge">
<title>Node19&#45;&gt;Node20</title>
<path fill="none" stroke="#191970" d="M796.426,-112.2455C792.0669,-104.617 785.8789,-93.7881 780.5867,-84.5267"/>
<polygon fill="#191970" stroke="#191970" points="783.5104,-82.5886 775.5101,-75.6427 777.4327,-86.0616 783.5104,-82.5886"/>
</g>
<!-- Node21 -->
<g id="node21" class="node">
<title>Node21</title>
<g id="a_node21"><a xlink:title=" ">
<polygon fill="#ffffff" stroke="#bfbfbf" points="810,-56.5 810,-75.5 856,-75.5 856,-56.5 810,-56.5"/>
<text text-anchor="middle" x="833" y="-63.5" font-family="Helvetica,sans-Serif" font-size="10.00" fill="#000000">cstring</text>
</a>
</g>
</g>
<!-- Node19&#45;&gt;Node21 -->
<g id="edge30" class="edge">
<title>Node19&#45;&gt;Node21</title>
<path fill="none" stroke="#191970" d="M807.3998,-112.2455C811.6227,-104.617 817.6173,-93.7881 822.7441,-84.5267"/>
<polygon fill="#191970" stroke="#191970" points="825.881,-86.0867 827.6621,-75.6427 819.7568,-82.6965 825.881,-86.0867"/>
</g>
</g>
</svg>
