<?xml version="1.0" encoding="UTF-8" standalone="no"?>
<!DOCTYPE svg PUBLIC "-//W3C//DTD SVG 1.1//EN"
 "http://www.w3.org/Graphics/SVG/1.1/DTD/svg11.dtd">
<!-- Generated by graphviz version 2.42.2 ()
 -->
<!-- Title: src/loadrec.cpp Pages: 1 -->
<svg width="1080pt" height="252pt"
 viewBox="0.00 0.00 1080.00 252.00" xmlns="http://www.w3.org/2000/svg" xmlns:xlink="http://www.w3.org/1999/xlink">
<g id="graph0" class="graph" transform="scale(1 1) rotate(0) translate(4 248)">
<title>src/loadrec.cpp</title>
<polygon fill="white" stroke="transparent" points="-4,4 -4,-248 1076,-248 1076,4 -4,4"/>
<!-- Node1 -->
<g id="node1" class="node">
<title>Node1</title>
<g id="a_node1"><a xlink:title=" ">
<polygon fill="#bfbfbf" stroke="black" points="564.5,-224.5 564.5,-243.5 647.5,-243.5 647.5,-224.5 564.5,-224.5"/>
<text text-anchor="middle" x="606" y="-231.5" font-family="Helvetica" font-size="10.00">src/loadrec.cpp</text>
</a>
</g>
</g>
<!-- Node2 -->
<g id="node2" class="node">
<title>Node2</title>
<g id="a_node2"><a xlink:href="Options_8hpp.html" target="_top" xlink:title=" ">
<polygon fill="white" stroke="black" points="253.5,-168.5 253.5,-187.5 322.5,-187.5 322.5,-168.5 253.5,-168.5"/>
<text text-anchor="middle" x="288" y="-175.5" font-family="Helvetica" font-size="10.00">Options.hpp</text>
</a>
</g>
</g>
<!-- Node1&#45;&gt;Node2 -->
<g id="edge1" class="edge">
<title>Node1&#45;&gt;Node2</title>
<path fill="none" stroke="midnightblue" d="M564.43,-225.94C504.59,-215.78 394.61,-197.1 332.95,-186.63"/>
<polygon fill="midnightblue" stroke="midnightblue" points="333.2,-183.12 322.75,-184.9 332.02,-190.03 333.2,-183.12"/>
</g>
<!-- Node3 -->
<g id="node3" class="node">
<title>Node3</title>
<g id="a_node3"><a xlink:href="utility_8hpp.html" target="_top" xlink:title=" ">
<polygon fill="white" stroke="black" points="437,-56.5 437,-75.5 495,-75.5 495,-56.5 437,-56.5"/>
<text text-anchor="middle" x="466" y="-63.5" font-family="Helvetica" font-size="10.00">utility.hpp</text>
</a>
</g>
</g>
<!-- Node1&#45;&gt;Node3 -->
<g id="edge15" class="edge">
<title>Node1&#45;&gt;Node3</title>
<path fill="none" stroke="midnightblue" d="M607.27,-224.2C609.9,-202.47 613.58,-145.56 586,-112 566.14,-87.84 531.92,-76.65 505.09,-71.46"/>
<polygon fill="midnightblue" stroke="midnightblue" points="505.67,-68.01 495.22,-69.75 504.47,-74.91 505.67,-68.01"/>
</g>
<!-- Node9 -->
<g id="node9" class="node">
<title>Node9</title>
<g id="a_node9"><a xlink:href="types_8hpp.html" target="_top" xlink:title=" ">
<polygon fill="white" stroke="black" points="56.5,-112.5 56.5,-131.5 115.5,-131.5 115.5,-112.5 56.5,-112.5"/>
<text text-anchor="middle" x="86" y="-119.5" font-family="Helvetica" font-size="10.00">types.hpp</text>
</a>
</g>
</g>
<!-- Node1&#45;&gt;Node9 -->
<g id="edge9" class="edge">
<title>Node1&#45;&gt;Node9</title>
<path fill="none" stroke="midnightblue" d="M564.45,-233.53C462.49,-234.12 202.93,-231.22 130,-188 112.09,-177.39 99.89,-156.3 92.96,-141.01"/>
<polygon fill="midnightblue" stroke="midnightblue" points="96.09,-139.43 89,-131.56 89.63,-142.13 96.09,-139.43"/>
</g>
<!-- Node10 -->
<g id="node10" class="node">
<title>Node10</title>
<g id="a_node10"><a xlink:title=" ">
<polygon fill="white" stroke="#bfbfbf" points="86,-56.5 86,-75.5 132,-75.5 132,-56.5 86,-56.5"/>
<text text-anchor="middle" x="109" y="-63.5" font-family="Helvetica" font-size="10.00">chrono</text>
</a>
</g>
</g>
<!-- Node1&#45;&gt;Node10 -->
<g id="edge35" class="edge">
<title>Node1&#45;&gt;Node10</title>
<path fill="none" stroke="midnightblue" d="M564.34,-230.95C481.75,-226.37 300.34,-213.65 244,-188 190.73,-163.75 143.61,-110.87 121.82,-83.76"/>
<polygon fill="midnightblue" stroke="midnightblue" points="124.36,-81.33 115.43,-75.64 118.86,-85.66 124.36,-81.33"/>
</g>
<!-- Node11 -->
<g id="node11" class="node">
<title>Node11</title>
<g id="a_node11"><a xlink:href="constants_8hpp.html" target="_top" xlink:title=" ">
<polygon fill="white" stroke="black" points="0,-168.5 0,-187.5 78,-187.5 78,-168.5 0,-168.5"/>
<text text-anchor="middle" x="39" y="-175.5" font-family="Helvetica" font-size="10.00">constants.hpp</text>
</a>
</g>
</g>
<!-- Node1&#45;&gt;Node11 -->
<g id="edge11" class="edge">
<title>Node1&#45;&gt;Node11</title>
<path fill="none" stroke="midnightblue" d="M564.24,-230.49C476.52,-224.98 266.81,-210.46 92,-188 90.72,-187.84 89.43,-187.66 88.13,-187.48"/>
<polygon fill="midnightblue" stroke="midnightblue" points="88.42,-183.99 78.02,-185.99 87.4,-190.92 88.42,-183.99"/>
</g>
<!-- Node12 -->
<g id="node12" class="node">
<title>Node12</title>
<g id="a_node12"><a xlink:href="errors_8hpp.html" target="_top" xlink:title=" ">
<polygon fill="white" stroke="black" points="450,-112.5 450,-131.5 510,-131.5 510,-112.5 450,-112.5"/>
<text text-anchor="middle" x="480" y="-119.5" font-family="Helvetica" font-size="10.00">errors.hpp</text>
</a>
</g>
</g>
<!-- Node1&#45;&gt;Node12 -->
<g id="edge13" class="edge">
<title>Node1&#45;&gt;Node12</title>
<path fill="none" stroke="midnightblue" d="M596.11,-224.37C574.86,-205.81 524.57,-161.91 497.68,-138.44"/>
<polygon fill="midnightblue" stroke="midnightblue" points="499.68,-135.53 489.84,-131.59 495.07,-140.8 499.68,-135.53"/>
</g>
<!-- Node13 -->
<g id="node13" class="node">
<title>Node13</title>
<g id="a_node13"><a xlink:href="clas_8hpp.html" target="_top" xlink:title=" ">
<polygon fill="white" stroke="black" points="376.5,-168.5 376.5,-187.5 429.5,-187.5 429.5,-168.5 376.5,-168.5"/>
<text text-anchor="middle" x="403" y="-175.5" font-family="Helvetica" font-size="10.00">clas.hpp</text>
</a>
</g>
</g>
<!-- Node1&#45;&gt;Node13 -->
<g id="edge16" class="edge">
<title>Node1&#45;&gt;Node13</title>
<path fill="none" stroke="midnightblue" d="M573.83,-224.44C537.2,-214.7 477.47,-198.81 439.22,-188.64"/>
<polygon fill="midnightblue" stroke="midnightblue" points="440.08,-185.24 429.52,-186.05 438.28,-192.01 440.08,-185.24"/>
</g>
<!-- Node15 -->
<g id="node15" class="node">
<title>Node15</title>
<g id="a_node15"><a xlink:href="version_8hpp.html" target="_top" xlink:title=" ">
<polygon fill="white" stroke="black" points="634.5,-168.5 634.5,-187.5 701.5,-187.5 701.5,-168.5 634.5,-168.5"/>
<text text-anchor="middle" x="668" y="-175.5" font-family="Helvetica" font-size="10.00">version.hpp</text>
</a>
</g>
</g>
<!-- Node1&#45;&gt;Node15 -->
<g id="edge22" class="edge">
<title>Node1&#45;&gt;Node15</title>
<path fill="none" stroke="midnightblue" d="M615.96,-224.32C625.13,-216.34 638.94,-204.31 650.03,-194.65"/>
<polygon fill="midnightblue" stroke="midnightblue" points="652.62,-197.04 657.86,-187.83 648.02,-191.76 652.62,-197.04"/>
</g>
<!-- Node17 -->
<g id="node17" class="node">
<title>Node17</title>
<g id="a_node17"><a xlink:href="io_8hpp.html" target="_top" xlink:title=" ">
<polygon fill="white" stroke="black" points="595,-56.5 595,-75.5 657,-75.5 657,-56.5 595,-56.5"/>
<text text-anchor="middle" x="626" y="-63.5" font-family="Helvetica" font-size="10.00">sys/io.hpp</text>
</a>
</g>
</g>
<!-- Node1&#45;&gt;Node17 -->
<g id="edge25" class="edge">
<title>Node1&#45;&gt;Node17</title>
<path fill="none" stroke="midnightblue" d="M646.95,-224.48C668.79,-217.95 694.48,-206.75 711,-188 728.11,-168.58 723.41,-157.63 727,-132 728.23,-123.2 731.84,-119.46 727,-112 713.77,-91.61 688.92,-80.39 667.18,-74.24"/>
<polygon fill="midnightblue" stroke="midnightblue" points="668.02,-70.85 657.46,-71.76 666.29,-77.63 668.02,-70.85"/>
</g>
<!-- Node18 -->
<g id="node18" class="node">
<title>Node18</title>
<g id="a_node18"><a xlink:href="sysctl_8hpp.html" target="_top" xlink:title=" ">
<polygon fill="white" stroke="black" points="774,-168.5 774,-187.5 854,-187.5 854,-168.5 774,-168.5"/>
<text text-anchor="middle" x="814" y="-175.5" font-family="Helvetica" font-size="10.00">sys/sysctl.hpp</text>
</a>
</g>
</g>
<!-- Node1&#45;&gt;Node18 -->
<g id="edge27" class="edge">
<title>Node1&#45;&gt;Node18</title>
<path fill="none" stroke="midnightblue" d="M638.96,-224.44C674.79,-215.14 732.16,-200.25 771.39,-190.06"/>
<polygon fill="midnightblue" stroke="midnightblue" points="772.4,-193.42 781.2,-187.52 770.64,-186.64 772.4,-193.42"/>
</g>
<!-- Node22 -->
<g id="node22" class="node">
<title>Node22</title>
<g id="a_node22"><a xlink:title=" ">
<polygon fill="white" stroke="#bfbfbf" points="1020,-112.5 1020,-131.5 1072,-131.5 1072,-112.5 1020,-112.5"/>
<text text-anchor="middle" x="1046" y="-119.5" font-family="Helvetica" font-size="10.00">memory</text>
</a>
</g>
</g>
<!-- Node1&#45;&gt;Node22 -->
<g id="edge37" class="edge">
<title>Node1&#45;&gt;Node22</title>
<path fill="none" stroke="midnightblue" d="M647.94,-229.69C699.65,-224.69 789.69,-213.02 863,-188 881.06,-181.84 883.37,-175.3 901,-168 920.81,-159.79 974.01,-143.84 1010.16,-133.3"/>
<polygon fill="midnightblue" stroke="midnightblue" points="1011.23,-136.64 1019.86,-130.49 1009.28,-129.92 1011.23,-136.64"/>
</g>
<!-- Node25 -->
<g id="node25" class="node">
<title>Node25</title>
<g id="a_node25"><a xlink:title=" ">
<polygon fill="white" stroke="#bfbfbf" points="910,-168.5 910,-187.5 954,-187.5 954,-168.5 910,-168.5"/>
<text text-anchor="middle" x="932" y="-175.5" font-family="Helvetica" font-size="10.00">thread</text>
</a>
</g>
</g>
<!-- Node1&#45;&gt;Node25 -->
<g id="edge36" class="edge">
<title>Node1&#45;&gt;Node25</title>
<path fill="none" stroke="midnightblue" d="M647.51,-227.77C704,-220.37 808.11,-205.77 896,-188 897.28,-187.74 898.58,-187.47 899.89,-187.18"/>
<polygon fill="midnightblue" stroke="midnightblue" points="901.04,-190.51 909.99,-184.84 899.46,-183.69 901.04,-190.51"/>
</g>
<!-- Node26 -->
<g id="node26" class="node">
<title>Node26</title>
<g id="a_node26"><a xlink:title=" ">
<polygon fill="white" stroke="#bfbfbf" points="972.5,-168.5 972.5,-187.5 1053.5,-187.5 1053.5,-168.5 972.5,-168.5"/>
<text text-anchor="middle" x="1013" y="-175.5" font-family="Helvetica" font-size="10.00">sys/resource.h</text>
</a>
</g>
</g>
<!-- Node1&#45;&gt;Node26 -->
<g id="edge38" class="edge">
<title>Node1&#45;&gt;Node26</title>
<path fill="none" stroke="midnightblue" d="M647.6,-228.48C712.47,-221.27 841.89,-206.25 962.24,-188.04"/>
<polygon fill="midnightblue" stroke="midnightblue" points="963.01,-191.46 972.37,-186.5 961.96,-184.54 963.01,-191.46"/>
</g>
<!-- Node2&#45;&gt;Node3 -->
<g id="edge2" class="edge">
<title>Node2&#45;&gt;Node3</title>
<path fill="none" stroke="midnightblue" d="M288.02,-168.08C288.54,-154.15 291.64,-127.23 307,-112 338.8,-80.47 390.93,-70.66 426.78,-67.81"/>
<polygon fill="midnightblue" stroke="midnightblue" points="427.13,-71.29 436.89,-67.15 426.68,-64.31 427.13,-71.29"/>
</g>
<!-- Node4 -->
<g id="node4" class="node">
<title>Node4</title>
<g id="a_node4"><a xlink:title=" ">
<polygon fill="white" stroke="#bfbfbf" points="231,-0.5 231,-19.5 293,-19.5 293,-0.5 231,-0.5"/>
<text text-anchor="middle" x="262" y="-7.5" font-family="Helvetica" font-size="10.00">type_traits</text>
</a>
</g>
</g>
<!-- Node2&#45;&gt;Node4 -->
<g id="edge7" class="edge">
<title>Node2&#45;&gt;Node4</title>
<path fill="none" stroke="midnightblue" d="M253.43,-168.6C234.41,-162.02 212.4,-150.74 201,-132 178.82,-95.55 218.69,-50.01 243.81,-26.56"/>
<polygon fill="midnightblue" stroke="midnightblue" points="246.27,-29.06 251.36,-19.76 241.59,-23.86 246.27,-29.06"/>
</g>
<!-- Node7 -->
<g id="node7" class="node">
<title>Node7</title>
<g id="a_node7"><a xlink:title=" ">
<polygon fill="white" stroke="#bfbfbf" points="210.5,-112.5 210.5,-131.5 259.5,-131.5 259.5,-112.5 210.5,-112.5"/>
<text text-anchor="middle" x="235" y="-119.5" font-family="Helvetica" font-size="10.00">cstddef</text>
</a>
</g>
</g>
<!-- Node2&#45;&gt;Node7 -->
<g id="edge6" class="edge">
<title>Node2&#45;&gt;Node7</title>
<path fill="none" stroke="midnightblue" d="M279.25,-168.08C271.53,-160.22 260.1,-148.57 250.78,-139.08"/>
<polygon fill="midnightblue" stroke="midnightblue" points="253.09,-136.44 243.59,-131.75 248.1,-141.34 253.09,-136.44"/>
</g>
<!-- Node8 -->
<g id="node8" class="node">
<title>Node8</title>
<g id="a_node8"><a xlink:title=" ">
<polygon fill="white" stroke="#bfbfbf" points="528.5,-112.5 528.5,-131.5 577.5,-131.5 577.5,-112.5 528.5,-112.5"/>
<text text-anchor="middle" x="553" y="-119.5" font-family="Helvetica" font-size="10.00">cassert</text>
</a>
</g>
</g>
<!-- Node2&#45;&gt;Node8 -->
<g id="edge8" class="edge">
<title>Node2&#45;&gt;Node8</title>
<path fill="none" stroke="midnightblue" d="M322.59,-171C365.95,-163.32 442.74,-149.18 518.04,-132.1"/>
<polygon fill="midnightblue" stroke="midnightblue" points="519.2,-135.42 528.16,-129.78 517.64,-128.6 519.2,-135.42"/>
</g>
<!-- Node3&#45;&gt;Node4 -->
<g id="edge3" class="edge">
<title>Node3&#45;&gt;Node4</title>
<path fill="none" stroke="midnightblue" d="M436.77,-57.26C401.7,-47.98 342.69,-32.36 303.06,-21.87"/>
<polygon fill="midnightblue" stroke="midnightblue" points="303.74,-18.43 293.18,-19.25 301.95,-25.2 303.74,-18.43"/>
</g>
<!-- Node5 -->
<g id="node5" class="node">
<title>Node5</title>
<g id="a_node5"><a xlink:title=" ">
<polygon fill="white" stroke="#bfbfbf" points="377.5,-0.5 377.5,-19.5 418.5,-19.5 418.5,-0.5 377.5,-0.5"/>
<text text-anchor="middle" x="398" y="-7.5" font-family="Helvetica" font-size="10.00">string</text>
</a>
</g>
</g>
<!-- Node3&#45;&gt;Node5 -->
<g id="edge4" class="edge">
<title>Node3&#45;&gt;Node5</title>
<path fill="none" stroke="midnightblue" d="M455.07,-56.32C444.83,-48.18 429.28,-35.84 417,-26.09"/>
<polygon fill="midnightblue" stroke="midnightblue" points="419.13,-23.31 409.12,-19.83 414.78,-28.79 419.13,-23.31"/>
</g>
<!-- Node6 -->
<g id="node6" class="node">
<title>Node6</title>
<g id="a_node6"><a xlink:title=" ">
<polygon fill="white" stroke="#bfbfbf" points="454.5,-0.5 454.5,-19.5 497.5,-19.5 497.5,-0.5 454.5,-0.5"/>
<text text-anchor="middle" x="476" y="-7.5" font-family="Helvetica" font-size="10.00">cstdio</text>
</a>
</g>
</g>
<!-- Node3&#45;&gt;Node6 -->
<g id="edge5" class="edge">
<title>Node3&#45;&gt;Node6</title>
<path fill="none" stroke="midnightblue" d="M467.65,-56.08C468.98,-48.93 470.88,-38.64 472.54,-29.69"/>
<polygon fill="midnightblue" stroke="midnightblue" points="476,-30.22 474.38,-19.75 469.12,-28.95 476,-30.22"/>
</g>
<!-- Node9&#45;&gt;Node10 -->
<g id="edge10" class="edge">
<title>Node9&#45;&gt;Node10</title>
<path fill="none" stroke="midnightblue" d="M89.8,-112.08C92.91,-104.77 97.42,-94.18 101.29,-85.1"/>
<polygon fill="midnightblue" stroke="midnightblue" points="104.57,-86.32 105.27,-75.75 98.13,-83.58 104.57,-86.32"/>
</g>
<!-- Node11&#45;&gt;Node9 -->
<g id="edge12" class="edge">
<title>Node11&#45;&gt;Node9</title>
<path fill="none" stroke="midnightblue" d="M46.76,-168.08C53.54,-160.3 63.54,-148.8 71.76,-139.37"/>
<polygon fill="midnightblue" stroke="midnightblue" points="74.46,-141.59 78.38,-131.75 69.18,-137 74.46,-141.59"/>
</g>
<!-- Node12&#45;&gt;Node3 -->
<g id="edge14" class="edge">
<title>Node12&#45;&gt;Node3</title>
<path fill="none" stroke="midnightblue" d="M477.69,-112.08C475.83,-104.93 473.16,-94.64 470.85,-85.69"/>
<polygon fill="midnightblue" stroke="midnightblue" points="474.17,-84.55 468.27,-75.75 467.39,-86.31 474.17,-84.55"/>
</g>
<!-- Node13&#45;&gt;Node3 -->
<g id="edge19" class="edge">
<title>Node13&#45;&gt;Node3</title>
<path fill="none" stroke="midnightblue" d="M407.94,-168.37C418.29,-150.3 442.42,-108.18 456.09,-84.31"/>
<polygon fill="midnightblue" stroke="midnightblue" points="459.15,-86.01 461.08,-75.59 453.07,-82.53 459.15,-86.01"/>
</g>
<!-- Node13&#45;&gt;Node5 -->
<g id="edge20" class="edge">
<title>Node13&#45;&gt;Node5</title>
<path fill="none" stroke="midnightblue" d="M402.73,-168.08C401.94,-141.95 399.63,-65.21 398.56,-29.58"/>
<polygon fill="midnightblue" stroke="midnightblue" points="402.06,-29.46 398.26,-19.57 395.06,-29.67 402.06,-29.46"/>
</g>
<!-- Node13&#45;&gt;Node9 -->
<g id="edge17" class="edge">
<title>Node13&#45;&gt;Node9</title>
<path fill="none" stroke="midnightblue" d="M376.25,-172.44C320.42,-162.93 191.29,-140.94 125.73,-129.77"/>
<polygon fill="midnightblue" stroke="midnightblue" points="126.22,-126.3 115.77,-128.07 125.04,-133.2 126.22,-126.3"/>
</g>
<!-- Node13&#45;&gt;Node12 -->
<g id="edge18" class="edge">
<title>Node13&#45;&gt;Node12</title>
<path fill="none" stroke="midnightblue" d="M415.37,-168.32C427.16,-160.06 445.13,-147.45 459.14,-137.63"/>
<polygon fill="midnightblue" stroke="midnightblue" points="461.48,-140.26 467.66,-131.65 457.46,-134.53 461.48,-140.26"/>
</g>
<!-- Node14 -->
<g id="node14" class="node">
<title>Node14</title>
<g id="a_node14"><a xlink:title=" ">
<polygon fill="white" stroke="#bfbfbf" points="316,-112.5 316,-131.5 356,-131.5 356,-112.5 316,-112.5"/>
<text text-anchor="middle" x="336" y="-119.5" font-family="Helvetica" font-size="10.00">utility</text>
</a>
</g>
</g>
<!-- Node13&#45;&gt;Node14 -->
<g id="edge21" class="edge">
<title>Node13&#45;&gt;Node14</title>
<path fill="none" stroke="midnightblue" d="M392.24,-168.32C382.23,-160.26 367.11,-148.08 355.07,-138.37"/>
<polygon fill="midnightblue" stroke="midnightblue" points="356.94,-135.38 346.96,-131.83 352.55,-140.83 356.94,-135.38"/>
</g>
<!-- Node15&#45;&gt;Node3 -->
<g id="edge23" class="edge">
<title>Node15&#45;&gt;Node3</title>
<path fill="none" stroke="midnightblue" d="M663.99,-168.43C657.04,-154.48 641.39,-126.94 620,-112 585.58,-87.97 538.33,-76.64 505.27,-71.38"/>
<polygon fill="midnightblue" stroke="midnightblue" points="505.47,-67.87 495.07,-69.88 504.45,-74.8 505.47,-67.87"/>
</g>
<!-- Node16 -->
<g id="node16" class="node">
<title>Node16</title>
<g id="a_node16"><a xlink:title=" ">
<polygon fill="white" stroke="#bfbfbf" points="672,-112.5 672,-131.5 718,-131.5 718,-112.5 672,-112.5"/>
<text text-anchor="middle" x="695" y="-119.5" font-family="Helvetica" font-size="10.00">cstdint</text>
</a>
</g>
</g>
<!-- Node15&#45;&gt;Node16 -->
<g id="edge24" class="edge">
<title>Node15&#45;&gt;Node16</title>
<path fill="none" stroke="midnightblue" d="M672.46,-168.08C676.15,-160.69 681.52,-149.95 686.09,-140.81"/>
<polygon fill="midnightblue" stroke="midnightblue" points="689.28,-142.26 690.62,-131.75 683.02,-139.13 689.28,-142.26"/>
</g>
<!-- Node17&#45;&gt;Node6 -->
<g id="edge26" class="edge">
<title>Node17&#45;&gt;Node6</title>
<path fill="none" stroke="midnightblue" d="M602.23,-56.44C576.52,-47.19 535.41,-32.39 507.13,-22.21"/>
<polygon fill="midnightblue" stroke="midnightblue" points="508.3,-18.91 497.71,-18.82 505.93,-25.5 508.3,-18.91"/>
</g>
<!-- Node18&#45;&gt;Node8 -->
<g id="edge32" class="edge">
<title>Node18&#45;&gt;Node8</title>
<path fill="none" stroke="midnightblue" d="M773.79,-168.68C722.77,-158.12 635.63,-140.1 587.49,-130.14"/>
<polygon fill="midnightblue" stroke="midnightblue" points="588.06,-126.68 577.56,-128.08 586.64,-133.53 588.06,-126.68"/>
</g>
<!-- Node19 -->
<g id="node19" class="node">
<title>Node19</title>
<g id="a_node19"><a xlink:href="error_8hpp.html" target="_top" xlink:title=" ">
<polygon fill="white" stroke="black" points="774,-112.5 774,-131.5 828,-131.5 828,-112.5 774,-112.5"/>
<text text-anchor="middle" x="801" y="-119.5" font-family="Helvetica" font-size="10.00">error.hpp</text>
</a>
</g>
</g>
<!-- Node18&#45;&gt;Node19 -->
<g id="edge28" class="edge">
<title>Node18&#45;&gt;Node19</title>
<path fill="none" stroke="midnightblue" d="M811.85,-168.08C810.13,-160.93 807.65,-150.64 805.5,-141.69"/>
<polygon fill="midnightblue" stroke="midnightblue" points="808.85,-140.65 803.11,-131.75 802.04,-142.29 808.85,-140.65"/>
</g>
<!-- Node18&#45;&gt;Node22 -->
<g id="edge31" class="edge">
<title>Node18&#45;&gt;Node22</title>
<path fill="none" stroke="midnightblue" d="M852.95,-168.43C890.64,-160.06 949.65,-146.78 1009.62,-132.29"/>
<polygon fill="midnightblue" stroke="midnightblue" points="1010.75,-135.62 1019.65,-129.86 1009.1,-128.81 1010.75,-135.62"/>
</g>
<!-- Node23 -->
<g id="node23" class="node">
<title>Node23</title>
<g id="a_node23"><a xlink:title=" ">
<polygon fill="white" stroke="#bfbfbf" points="846,-112.5 846,-131.5 914,-131.5 914,-112.5 846,-112.5"/>
<text text-anchor="middle" x="880" y="-119.5" font-family="Helvetica" font-size="10.00">sys/types.h</text>
</a>
</g>
</g>
<!-- Node18&#45;&gt;Node23 -->
<g id="edge33" class="edge">
<title>Node18&#45;&gt;Node23</title>
<path fill="none" stroke="midnightblue" d="M824.6,-168.32C834.46,-160.26 849.35,-148.08 861.22,-138.37"/>
<polygon fill="midnightblue" stroke="midnightblue" points="863.68,-140.88 869.2,-131.83 859.25,-135.46 863.68,-140.88"/>
</g>
<!-- Node24 -->
<g id="node24" class="node">
<title>Node24</title>
<g id="a_node24"><a xlink:title=" ">
<polygon fill="white" stroke="#bfbfbf" points="932,-112.5 932,-131.5 1002,-131.5 1002,-112.5 932,-112.5"/>
<text text-anchor="middle" x="967" y="-119.5" font-family="Helvetica" font-size="10.00">sys/sysctl.h</text>
</a>
</g>
</g>
<!-- Node18&#45;&gt;Node24 -->
<g id="edge34" class="edge">
<title>Node18&#45;&gt;Node24</title>
<path fill="none" stroke="midnightblue" d="M838.24,-168.44C863.87,-159.4 904.49,-145.06 933.24,-134.92"/>
<polygon fill="midnightblue" stroke="midnightblue" points="934.61,-138.15 942.87,-131.52 932.28,-131.54 934.61,-138.15"/>
</g>
<!-- Node20 -->
<g id="node20" class="node">
<title>Node20</title>
<g id="a_node20"><a xlink:title=" ">
<polygon fill="white" stroke="#bfbfbf" points="747,-56.5 747,-75.5 791,-75.5 791,-56.5 747,-56.5"/>
<text text-anchor="middle" x="769" y="-63.5" font-family="Helvetica" font-size="10.00">cerrno</text>
</a>
</g>
</g>
<!-- Node19&#45;&gt;Node20 -->
<g id="edge29" class="edge">
<title>Node19&#45;&gt;Node20</title>
<path fill="none" stroke="midnightblue" d="M795.72,-112.08C791.29,-104.61 784.84,-93.72 779.38,-84.52"/>
<polygon fill="midnightblue" stroke="midnightblue" points="782.29,-82.57 774.19,-75.75 776.27,-86.14 782.29,-82.57"/>
</g>
<!-- Node21 -->
<g id="node21" class="node">
<title>Node21</title>
<g id="a_node21"><a xlink:title=" ">
<polygon fill="white" stroke="#bfbfbf" points="809,-56.5 809,-75.5 855,-75.5 855,-56.5 809,-56.5"/>
<text text-anchor="middle" x="832" y="-63.5" font-family="Helvetica" font-size="10.00">cstring</text>
</a>
</g>
</g>
<!-- Node19&#45;&gt;Node21 -->
<g id="edge30" class="edge">
<title>Node19&#45;&gt;Node21</title>
<path fill="none" stroke="midnightblue" d="M806.12,-112.08C810.41,-104.61 816.66,-93.72 821.94,-84.52"/>
<polygon fill="midnightblue" stroke="midnightblue" points="825.03,-86.17 826.98,-75.75 818.96,-82.68 825.03,-86.17"/>
</g>
</g>
</svg>
