<?xml version="1.0" encoding="UTF-8" standalone="no"?>
<!DOCTYPE svg PUBLIC "-//W3C//DTD SVG 1.1//EN"
 "http://www.w3.org/Graphics/SVG/1.1/DTD/svg11.dtd">
<!-- Generated by graphviz version 2.42.2 ()
 -->
<!-- Title: src/loadrec.cpp Pages: 1 -->
<svg width="1010pt" height="252pt"
 viewBox="0.00 0.00 1010.06 252.00" xmlns="http://www.w3.org/2000/svg" xmlns:xlink="http://www.w3.org/1999/xlink">
<g id="graph0" class="graph" transform="scale(1 1) rotate(0) translate(4 248)">
<title>src/loadrec.cpp</title>
<polygon fill="white" stroke="transparent" points="-4,4 -4,-248 1006.06,-248 1006.06,4 -4,4"/>
<!-- Node1 -->
<g id="node1" class="node">
<title>Node1</title>
<g id="a_node1"><a xlink:title="Implements a load recorder, useful for simulating loads to test CPU clock daemons and settings.">
<polygon fill="#bfbfbf" stroke="black" points="506.06,-224.5 506.06,-243.5 589.06,-243.5 589.06,-224.5 506.06,-224.5"/>
<text text-anchor="middle" x="547.56" y="-231.5" font-family="Helvetica,sans-Serif" font-size="10.00">src/loadrec.cpp</text>
</a>
</g>
</g>
<!-- Node2 -->
<g id="node2" class="node">
<title>Node2</title>
<g id="a_node2"><a xlink:href="Options_8hpp.html" target="_top" xlink:title="Provides the nih::Options functor template, a substitute for getopt(3).">
<polygon fill="white" stroke="black" points="55.06,-168.5 55.06,-187.5 124.06,-187.5 124.06,-168.5 55.06,-168.5"/>
<text text-anchor="middle" x="89.56" y="-175.5" font-family="Helvetica,sans-Serif" font-size="10.00">Options.hpp</text>
</a>
</g>
</g>
<!-- Node1&#45;&gt;Node2 -->
<g id="edge1" class="edge">
<title>Node1&#45;&gt;Node2</title>
<path fill="none" stroke="midnightblue" d="M505.85,-228.84C433.17,-221.46 278.65,-205.25 148.56,-188 143.86,-187.38 138.96,-186.69 134.08,-185.98"/>
<polygon fill="midnightblue" stroke="midnightblue" points="134.56,-182.51 124.16,-184.51 133.53,-189.44 134.56,-182.51"/>
</g>
<!-- Node3 -->
<g id="node3" class="node">
<title>Node3</title>
<g id="a_node3"><a xlink:href="utility_8hpp.html" target="_top" xlink:title="Implements generally useful functions.">
<polygon fill="white" stroke="black" points="281.06,-56.5 281.06,-75.5 340.06,-75.5 340.06,-56.5 281.06,-56.5"/>
<text text-anchor="middle" x="310.56" y="-63.5" font-family="Helvetica,sans-Serif" font-size="10.00">utility.hpp</text>
</a>
</g>
</g>
<!-- Node1&#45;&gt;Node3 -->
<g id="edge17" class="edge">
<title>Node1&#45;&gt;Node3</title>
<path fill="none" stroke="midnightblue" d="M505.84,-229.13C468.08,-224.14 412.04,-212.91 369.56,-188 340,-170.67 330.69,-163.22 316.56,-132 309.99,-117.48 308.83,-99.3 309.11,-85.86"/>
<polygon fill="midnightblue" stroke="midnightblue" points="312.61,-86.03 309.61,-75.87 305.62,-85.69 312.61,-86.03"/>
</g>
<!-- Node11 -->
<g id="node11" class="node">
<title>Node11</title>
<g id="a_node11"><a xlink:href="types_8hpp.html" target="_top" xlink:title="A collection of type aliases.">
<polygon fill="white" stroke="black" points="518.06,-112.5 518.06,-131.5 577.06,-131.5 577.06,-112.5 518.06,-112.5"/>
<text text-anchor="middle" x="547.56" y="-119.5" font-family="Helvetica,sans-Serif" font-size="10.00">types.hpp</text>
</a>
</g>
</g>
<!-- Node1&#45;&gt;Node11 -->
<g id="edge11" class="edge">
<title>Node1&#45;&gt;Node11</title>
<path fill="none" stroke="midnightblue" d="M561.93,-224.33C573.44,-216.47 588.75,-203.72 595.56,-188 603.87,-168.82 586.24,-149.94 570.05,-137.52"/>
<polygon fill="midnightblue" stroke="midnightblue" points="572.03,-134.63 561.87,-131.64 567.95,-140.31 572.03,-134.63"/>
</g>
<!-- Node12 -->
<g id="node12" class="node">
<title>Node12</title>
<g id="a_node12"><a xlink:title=" ">
<polygon fill="white" stroke="#bfbfbf" points="502.56,-56.5 502.56,-75.5 548.56,-75.5 548.56,-56.5 502.56,-56.5"/>
<text text-anchor="middle" x="525.56" y="-63.5" font-family="Helvetica,sans-Serif" font-size="10.00">chrono</text>
</a>
</g>
</g>
<!-- Node1&#45;&gt;Node12 -->
<g id="edge38" class="edge">
<title>Node1&#45;&gt;Node12</title>
<path fill="none" stroke="midnightblue" d="M533.19,-224.33C521.68,-216.47 506.37,-203.72 499.56,-188 484.46,-153.15 502.61,-108.74 515.29,-84.59"/>
<polygon fill="midnightblue" stroke="midnightblue" points="518.5,-86.01 520.27,-75.56 512.37,-82.62 518.5,-86.01"/>
</g>
<!-- Node13 -->
<g id="node13" class="node">
<title>Node13</title>
<g id="a_node13"><a xlink:href="constants_8hpp.html" target="_top" xlink:title="Defines a collection of constants.">
<polygon fill="white" stroke="black" points="508.56,-168.5 508.56,-187.5 586.56,-187.5 586.56,-168.5 508.56,-168.5"/>
<text text-anchor="middle" x="547.56" y="-175.5" font-family="Helvetica,sans-Serif" font-size="10.00">constants.hpp</text>
</a>
</g>
</g>
<!-- Node1&#45;&gt;Node13 -->
<g id="edge13" class="edge">
<title>Node1&#45;&gt;Node13</title>
<path fill="none" stroke="midnightblue" d="M547.56,-224.08C547.56,-217.01 547.56,-206.86 547.56,-197.99"/>
<polygon fill="midnightblue" stroke="midnightblue" points="551.06,-197.75 547.56,-187.75 544.06,-197.75 551.06,-197.75"/>
</g>
<!-- Node14 -->
<g id="node14" class="node">
<title>Node14</title>
<g id="a_node14"><a xlink:href="errors_8hpp.html" target="_top" xlink:title="Common error handling code.">
<polygon fill="white" stroke="black" points="325.56,-112.5 325.56,-131.5 385.56,-131.5 385.56,-112.5 325.56,-112.5"/>
<text text-anchor="middle" x="355.56" y="-119.5" font-family="Helvetica,sans-Serif" font-size="10.00">errors.hpp</text>
</a>
</g>
</g>
<!-- Node1&#45;&gt;Node14 -->
<g id="edge15" class="edge">
<title>Node1&#45;&gt;Node14</title>
<path fill="none" stroke="midnightblue" d="M505.79,-230.13C471.28,-225.81 422.74,-215.01 389.56,-188 374.92,-176.08 365.83,-156.18 360.78,-141.53"/>
<polygon fill="midnightblue" stroke="midnightblue" points="363.99,-140.07 357.67,-131.57 357.31,-142.16 363.99,-140.07"/>
</g>
<!-- Node15 -->
<g id="node15" class="node">
<title>Node15</title>
<g id="a_node15"><a xlink:href="clas_8hpp.html" target="_top" xlink:title="Provides functions to process command line arguments.">
<polygon fill="white" stroke="black" points="399.06,-168.5 399.06,-187.5 452.06,-187.5 452.06,-168.5 399.06,-168.5"/>
<text text-anchor="middle" x="425.56" y="-175.5" font-family="Helvetica,sans-Serif" font-size="10.00">clas.hpp</text>
</a>
</g>
</g>
<!-- Node1&#45;&gt;Node15 -->
<g id="edge18" class="edge">
<title>Node1&#45;&gt;Node15</title>
<path fill="none" stroke="midnightblue" d="M528.23,-224.44C508.24,-215.6 476.82,-201.69 454,-191.59"/>
<polygon fill="midnightblue" stroke="midnightblue" points="455.36,-188.36 444.8,-187.52 452.53,-194.76 455.36,-188.36"/>
</g>
<!-- Node17 -->
<g id="node17" class="node">
<title>Node17</title>
<g id="a_node17"><a xlink:href="version_8hpp.html" target="_top" xlink:title="Defines types and constants used for version management.">
<polygon fill="white" stroke="black" points="158.06,-168.5 158.06,-187.5 225.06,-187.5 225.06,-168.5 158.06,-168.5"/>
<text text-anchor="middle" x="191.56" y="-175.5" font-family="Helvetica,sans-Serif" font-size="10.00">version.hpp</text>
</a>
</g>
</g>
<!-- Node1&#45;&gt;Node17 -->
<g id="edge24" class="edge">
<title>Node1&#45;&gt;Node17</title>
<path fill="none" stroke="midnightblue" d="M506.02,-226.7C438.25,-216.42 304.5,-196.13 235.31,-185.64"/>
<polygon fill="midnightblue" stroke="midnightblue" points="235.6,-182.14 225.18,-184.1 234.55,-189.06 235.6,-182.14"/>
</g>
<!-- Node19 -->
<g id="node19" class="node">
<title>Node19</title>
<g id="a_node19"><a xlink:href="io_8hpp.html" target="_top" xlink:title="Implements c++ wrappers for &lt;cstdio&gt; I/O functionality.">
<polygon fill="white" stroke="black" points="642.56,-168.5 642.56,-187.5 704.56,-187.5 704.56,-168.5 642.56,-168.5"/>
<text text-anchor="middle" x="673.56" y="-175.5" font-family="Helvetica,sans-Serif" font-size="10.00">sys/io.hpp</text>
</a>
</g>
</g>
<!-- Node1&#45;&gt;Node19 -->
<g id="edge27" class="edge">
<title>Node1&#45;&gt;Node19</title>
<path fill="none" stroke="midnightblue" d="M567.52,-224.44C588.17,-215.6 620.62,-201.69 644.19,-191.59"/>
<polygon fill="midnightblue" stroke="midnightblue" points="645.87,-194.67 653.69,-187.52 643.12,-188.24 645.87,-194.67"/>
</g>
<!-- Node20 -->
<g id="node20" class="node">
<title>Node20</title>
<g id="a_node20"><a xlink:href="sysctl_8hpp.html" target="_top" xlink:title="Implements safer c++ wrappers for the sysctl() interface.">
<polygon fill="white" stroke="black" points="722.56,-168.5 722.56,-187.5 802.56,-187.5 802.56,-168.5 722.56,-168.5"/>
<text text-anchor="middle" x="762.56" y="-175.5" font-family="Helvetica,sans-Serif" font-size="10.00">sys/sysctl.hpp</text>
</a>
</g>
</g>
<!-- Node1&#45;&gt;Node20 -->
<g id="edge30" class="edge">
<title>Node1&#45;&gt;Node20</title>
<path fill="none" stroke="midnightblue" d="M581.63,-224.44C618.74,-215.12 678.22,-200.18 718.77,-190"/>
<polygon fill="midnightblue" stroke="midnightblue" points="719.8,-193.35 728.65,-187.52 718.1,-186.56 719.8,-193.35"/>
</g>
<!-- Node24 -->
<g id="node24" class="node">
<title>Node24</title>
<g id="a_node24"><a xlink:title=" ">
<polygon fill="white" stroke="#bfbfbf" points="939.56,-112.5 939.56,-131.5 991.56,-131.5 991.56,-112.5 939.56,-112.5"/>
<text text-anchor="middle" x="965.56" y="-119.5" font-family="Helvetica,sans-Serif" font-size="10.00">memory</text>
</a>
</g>
</g>
<!-- Node1&#45;&gt;Node24 -->
<g id="edge40" class="edge">
<title>Node1&#45;&gt;Node24</title>
<path fill="none" stroke="midnightblue" d="M589.25,-229.97C642.14,-225.22 735.6,-213.74 811.56,-188 829.63,-181.88 832.19,-175.91 849.56,-168 876.74,-155.62 908.39,-143.49 931.76,-134.95"/>
<polygon fill="midnightblue" stroke="midnightblue" points="933.02,-138.21 941.23,-131.52 930.64,-131.63 933.02,-138.21"/>
</g>
<!-- Node27 -->
<g id="node27" class="node">
<title>Node27</title>
<g id="a_node27"><a xlink:title=" ">
<polygon fill="white" stroke="#bfbfbf" points="858.56,-168.5 858.56,-187.5 902.56,-187.5 902.56,-168.5 858.56,-168.5"/>
<text text-anchor="middle" x="880.56" y="-175.5" font-family="Helvetica,sans-Serif" font-size="10.00">thread</text>
</a>
</g>
</g>
<!-- Node1&#45;&gt;Node27 -->
<g id="edge39" class="edge">
<title>Node1&#45;&gt;Node27</title>
<path fill="none" stroke="midnightblue" d="M589.1,-227.97C646.72,-220.7 754.05,-206.13 844.56,-188 845.84,-187.74 847.14,-187.47 848.45,-187.19"/>
<polygon fill="midnightblue" stroke="midnightblue" points="849.59,-190.52 858.55,-184.85 848.02,-183.7 849.59,-190.52"/>
</g>
<!-- Node28 -->
<g id="node28" class="node">
<title>Node28</title>
<g id="a_node28"><a xlink:title=" ">
<polygon fill="white" stroke="#bfbfbf" points="921.06,-168.5 921.06,-187.5 1002.06,-187.5 1002.06,-168.5 921.06,-168.5"/>
<text text-anchor="middle" x="961.56" y="-175.5" font-family="Helvetica,sans-Serif" font-size="10.00">sys/resource.h</text>
</a>
</g>
</g>
<!-- Node1&#45;&gt;Node28 -->
<g id="edge41" class="edge">
<title>Node1&#45;&gt;Node28</title>
<path fill="none" stroke="midnightblue" d="M589.15,-228.61C655.08,-221.49 787.85,-206.49 910.95,-188.01"/>
<polygon fill="midnightblue" stroke="midnightblue" points="911.57,-191.46 920.93,-186.51 910.52,-184.54 911.57,-191.46"/>
</g>
<!-- Node2&#45;&gt;Node3 -->
<g id="edge2" class="edge">
<title>Node2&#45;&gt;Node3</title>
<path fill="none" stroke="midnightblue" d="M89.46,-168.43C89.8,-154.49 92.6,-126.95 108.56,-112 131.68,-90.34 218.8,-77.17 270.78,-71.07"/>
<polygon fill="midnightblue" stroke="midnightblue" points="271.45,-74.51 280.99,-69.91 270.66,-67.56 271.45,-74.51"/>
</g>
<!-- Node4 -->
<g id="node4" class="node">
<title>Node4</title>
<g id="a_node4"><a xlink:title=" ">
<polygon fill="white" stroke="#bfbfbf" points="86.56,-0.5 86.56,-19.5 148.56,-19.5 148.56,-0.5 86.56,-0.5"/>
<text text-anchor="middle" x="117.56" y="-7.5" font-family="Helvetica,sans-Serif" font-size="10.00">type_traits</text>
</a>
</g>
</g>
<!-- Node2&#45;&gt;Node4 -->
<g id="edge9" class="edge">
<title>Node2&#45;&gt;Node4</title>
<path fill="none" stroke="midnightblue" d="M58.16,-168.49C28.38,-158.58 -10.08,-139.91 2.56,-112 20.77,-71.76 63.81,-41.2 91.76,-24.71"/>
<polygon fill="midnightblue" stroke="midnightblue" points="93.66,-27.66 100.61,-19.66 90.19,-21.58 93.66,-27.66"/>
</g>
<!-- Node9 -->
<g id="node9" class="node">
<title>Node9</title>
<g id="a_node9"><a xlink:title=" ">
<polygon fill="white" stroke="#bfbfbf" points="12.06,-112.5 12.06,-131.5 61.06,-131.5 61.06,-112.5 12.06,-112.5"/>
<text text-anchor="middle" x="36.56" y="-119.5" font-family="Helvetica,sans-Serif" font-size="10.00">cstddef</text>
</a>
</g>
</g>
<!-- Node2&#45;&gt;Node9 -->
<g id="edge8" class="edge">
<title>Node2&#45;&gt;Node9</title>
<path fill="none" stroke="midnightblue" d="M80.81,-168.08C73.09,-160.22 61.65,-148.57 52.34,-139.08"/>
<polygon fill="midnightblue" stroke="midnightblue" points="54.65,-136.44 45.15,-131.75 49.65,-141.34 54.65,-136.44"/>
</g>
<!-- Node10 -->
<g id="node10" class="node">
<title>Node10</title>
<g id="a_node10"><a xlink:title=" ">
<polygon fill="white" stroke="#bfbfbf" points="220.06,-112.5 220.06,-131.5 269.06,-131.5 269.06,-112.5 220.06,-112.5"/>
<text text-anchor="middle" x="244.56" y="-119.5" font-family="Helvetica,sans-Serif" font-size="10.00">cassert</text>
</a>
</g>
</g>
<!-- Node2&#45;&gt;Node10 -->
<g id="edge10" class="edge">
<title>Node2&#45;&gt;Node10</title>
<path fill="none" stroke="midnightblue" d="M114.12,-168.44C140.08,-159.4 181.23,-145.06 210.36,-134.92"/>
<polygon fill="midnightblue" stroke="midnightblue" points="211.82,-138.11 220.11,-131.52 209.52,-131.5 211.82,-138.11"/>
</g>
<!-- Node3&#45;&gt;Node4 -->
<g id="edge3" class="edge">
<title>Node3&#45;&gt;Node4</title>
<path fill="none" stroke="midnightblue" d="M280.83,-56.68C247.87,-47.46 194.53,-32.54 157.84,-22.27"/>
<polygon fill="midnightblue" stroke="midnightblue" points="158.54,-18.83 147.96,-19.51 156.65,-25.57 158.54,-18.83"/>
</g>
<!-- Node5 -->
<g id="node5" class="node">
<title>Node5</title>
<g id="a_node5"><a xlink:title=" ">
<polygon fill="white" stroke="#bfbfbf" points="316.56,-0.5 316.56,-19.5 372.56,-19.5 372.56,-0.5 316.56,-0.5"/>
<text text-anchor="middle" x="344.56" y="-7.5" font-family="Helvetica,sans-Serif" font-size="10.00">charconv</text>
</a>
</g>
</g>
<!-- Node3&#45;&gt;Node5 -->
<g id="edge4" class="edge">
<title>Node3&#45;&gt;Node5</title>
<path fill="none" stroke="midnightblue" d="M316.17,-56.08C320.93,-48.53 327.88,-37.49 333.71,-28.23"/>
<polygon fill="midnightblue" stroke="midnightblue" points="336.68,-30.08 339.05,-19.75 330.76,-26.35 336.68,-30.08"/>
</g>
<!-- Node6 -->
<g id="node6" class="node">
<title>Node6</title>
<g id="a_node6"><a xlink:title=" ">
<polygon fill="white" stroke="#bfbfbf" points="252.56,-0.5 252.56,-19.5 298.56,-19.5 298.56,-0.5 252.56,-0.5"/>
<text text-anchor="middle" x="275.56" y="-7.5" font-family="Helvetica,sans-Serif" font-size="10.00">cctype</text>
</a>
</g>
</g>
<!-- Node3&#45;&gt;Node6 -->
<g id="edge5" class="edge">
<title>Node3&#45;&gt;Node6</title>
<path fill="none" stroke="midnightblue" d="M304.78,-56.08C299.89,-48.53 292.73,-37.49 286.73,-28.23"/>
<polygon fill="midnightblue" stroke="midnightblue" points="289.61,-26.24 281.23,-19.75 283.73,-30.05 289.61,-26.24"/>
</g>
<!-- Node7 -->
<g id="node7" class="node">
<title>Node7</title>
<g id="a_node7"><a xlink:title=" ">
<polygon fill="white" stroke="#bfbfbf" points="405.06,-0.5 405.06,-19.5 446.06,-19.5 446.06,-0.5 405.06,-0.5"/>
<text text-anchor="middle" x="425.56" y="-7.5" font-family="Helvetica,sans-Serif" font-size="10.00">string</text>
</a>
</g>
</g>
<!-- Node3&#45;&gt;Node7 -->
<g id="edge6" class="edge">
<title>Node3&#45;&gt;Node7</title>
<path fill="none" stroke="midnightblue" d="M328.78,-56.44C347.45,-47.68 376.71,-33.94 398.18,-23.86"/>
<polygon fill="midnightblue" stroke="midnightblue" points="399.86,-26.93 407.42,-19.52 396.88,-20.6 399.86,-26.93"/>
</g>
<!-- Node8 -->
<g id="node8" class="node">
<title>Node8</title>
<g id="a_node8"><a xlink:title=" ">
<polygon fill="white" stroke="#bfbfbf" points="553.06,-0.5 553.06,-19.5 596.06,-19.5 596.06,-0.5 553.06,-0.5"/>
<text text-anchor="middle" x="574.56" y="-7.5" font-family="Helvetica,sans-Serif" font-size="10.00">cstdio</text>
</a>
</g>
</g>
<!-- Node3&#45;&gt;Node8 -->
<g id="edge7" class="edge">
<title>Node3&#45;&gt;Node8</title>
<path fill="none" stroke="midnightblue" d="M340.07,-58.96C390.17,-48.72 491.42,-28.01 542.92,-17.47"/>
<polygon fill="midnightblue" stroke="midnightblue" points="543.73,-20.88 552.83,-15.45 542.33,-14.02 543.73,-20.88"/>
</g>
<!-- Node11&#45;&gt;Node12 -->
<g id="edge12" class="edge">
<title>Node11&#45;&gt;Node12</title>
<path fill="none" stroke="midnightblue" d="M543.93,-112.08C540.95,-104.77 536.63,-94.18 532.93,-85.1"/>
<polygon fill="midnightblue" stroke="midnightblue" points="536.14,-83.69 529.12,-75.75 529.66,-86.33 536.14,-83.69"/>
</g>
<!-- Node13&#45;&gt;Node11 -->
<g id="edge14" class="edge">
<title>Node13&#45;&gt;Node11</title>
<path fill="none" stroke="midnightblue" d="M547.56,-168.08C547.56,-161.01 547.56,-150.86 547.56,-141.99"/>
<polygon fill="midnightblue" stroke="midnightblue" points="551.06,-141.75 547.56,-131.75 544.06,-141.75 551.06,-141.75"/>
</g>
<!-- Node14&#45;&gt;Node3 -->
<g id="edge16" class="edge">
<title>Node14&#45;&gt;Node3</title>
<path fill="none" stroke="midnightblue" d="M348.13,-112.08C341.71,-104.38 332.25,-93.03 324.44,-83.65"/>
<polygon fill="midnightblue" stroke="midnightblue" points="326.94,-81.19 317.85,-75.75 321.56,-85.67 326.94,-81.19"/>
</g>
<!-- Node15&#45;&gt;Node3 -->
<g id="edge21" class="edge">
<title>Node15&#45;&gt;Node3</title>
<path fill="none" stroke="midnightblue" d="M423.35,-168.42C419.51,-154.94 410.44,-128.64 394.56,-112 380.91,-97.69 361.69,-86.93 345.08,-79.53"/>
<polygon fill="midnightblue" stroke="midnightblue" points="346.24,-76.22 335.66,-75.56 343.52,-82.67 346.24,-76.22"/>
</g>
<!-- Node15&#45;&gt;Node7 -->
<g id="edge22" class="edge">
<title>Node15&#45;&gt;Node7</title>
<path fill="none" stroke="midnightblue" d="M425.56,-168.08C425.56,-141.95 425.56,-65.21 425.56,-29.58"/>
<polygon fill="midnightblue" stroke="midnightblue" points="429.06,-29.57 425.56,-19.57 422.06,-29.57 429.06,-29.57"/>
</g>
<!-- Node15&#45;&gt;Node11 -->
<g id="edge19" class="edge">
<title>Node15&#45;&gt;Node11</title>
<path fill="none" stroke="midnightblue" d="M444.89,-168.44C464.88,-159.6 496.3,-145.69 519.12,-135.59"/>
<polygon fill="midnightblue" stroke="midnightblue" points="520.59,-138.76 528.32,-131.52 517.76,-132.36 520.59,-138.76"/>
</g>
<!-- Node15&#45;&gt;Node14 -->
<g id="edge20" class="edge">
<title>Node15&#45;&gt;Node14</title>
<path fill="none" stroke="midnightblue" d="M414.31,-168.32C403.76,-160.18 387.76,-147.84 375.12,-138.09"/>
<polygon fill="midnightblue" stroke="midnightblue" points="377.07,-135.17 367.01,-131.83 372.79,-140.71 377.07,-135.17"/>
</g>
<!-- Node16 -->
<g id="node16" class="node">
<title>Node16</title>
<g id="a_node16"><a xlink:title=" ">
<polygon fill="white" stroke="#bfbfbf" points="595.56,-112.5 595.56,-131.5 635.56,-131.5 635.56,-112.5 595.56,-112.5"/>
<text text-anchor="middle" x="615.56" y="-119.5" font-family="Helvetica,sans-Serif" font-size="10.00">utility</text>
</a>
</g>
</g>
<!-- Node15&#45;&gt;Node16 -->
<g id="edge23" class="edge">
<title>Node15&#45;&gt;Node16</title>
<path fill="none" stroke="midnightblue" d="M452.12,-169.82C482.22,-161.64 532.98,-147.67 585.48,-132.26"/>
<polygon fill="midnightblue" stroke="midnightblue" points="586.7,-135.55 595.3,-129.37 584.72,-128.84 586.7,-135.55"/>
</g>
<!-- Node17&#45;&gt;Node3 -->
<g id="edge25" class="edge">
<title>Node17&#45;&gt;Node3</title>
<path fill="none" stroke="midnightblue" d="M191.85,-168.34C192.75,-154.76 196.36,-128.32 210.56,-112 226.13,-94.1 250.24,-82.97 270.88,-76.25"/>
<polygon fill="midnightblue" stroke="midnightblue" points="272.12,-79.53 280.68,-73.3 270.1,-72.83 272.12,-79.53"/>
</g>
<!-- Node18 -->
<g id="node18" class="node">
<title>Node18</title>
<g id="a_node18"><a xlink:title=" ">
<polygon fill="white" stroke="#bfbfbf" points="117.56,-112.5 117.56,-131.5 163.56,-131.5 163.56,-112.5 117.56,-112.5"/>
<text text-anchor="middle" x="140.56" y="-119.5" font-family="Helvetica,sans-Serif" font-size="10.00">cstdint</text>
</a>
</g>
</g>
<!-- Node17&#45;&gt;Node18 -->
<g id="edge26" class="edge">
<title>Node17&#45;&gt;Node18</title>
<path fill="none" stroke="midnightblue" d="M183.14,-168.08C175.71,-160.22 164.71,-148.57 155.75,-139.08"/>
<polygon fill="midnightblue" stroke="midnightblue" points="158.23,-136.62 148.82,-131.75 153.15,-141.42 158.23,-136.62"/>
</g>
<!-- Node19&#45;&gt;Node8 -->
<g id="edge28" class="edge">
<title>Node19&#45;&gt;Node8</title>
<path fill="none" stroke="midnightblue" d="M670.29,-168.34C665.38,-155.64 655.47,-131.38 644.56,-112 627.03,-80.87 602.48,-47.24 587.59,-27.71"/>
<polygon fill="midnightblue" stroke="midnightblue" points="590.19,-25.35 581.31,-19.56 584.64,-29.62 590.19,-25.35"/>
</g>
<!-- Node19&#45;&gt;Node16 -->
<g id="edge29" class="edge">
<title>Node19&#45;&gt;Node16</title>
<path fill="none" stroke="midnightblue" d="M664.24,-168.32C655.67,-160.34 642.75,-148.31 632.37,-138.65"/>
<polygon fill="midnightblue" stroke="midnightblue" points="634.75,-136.09 625.05,-131.83 629.98,-141.21 634.75,-136.09"/>
</g>
<!-- Node20&#45;&gt;Node10 -->
<g id="edge35" class="edge">
<title>Node20&#45;&gt;Node10</title>
<path fill="none" stroke="midnightblue" d="M722.5,-169.33C719.48,-168.85 716.47,-168.4 713.56,-168 538.03,-143.97 492.71,-150.99 316.56,-132 304.35,-130.68 291.01,-129.07 279.16,-127.57"/>
<polygon fill="midnightblue" stroke="midnightblue" points="279.56,-124.09 269.19,-126.29 278.67,-131.03 279.56,-124.09"/>
</g>
<!-- Node21 -->
<g id="node21" class="node">
<title>Node21</title>
<g id="a_node21"><a xlink:href="error_8hpp.html" target="_top" xlink:title="Provides system call error handling.">
<polygon fill="white" stroke="black" points="692.06,-112.5 692.06,-131.5 747.06,-131.5 747.06,-112.5 692.06,-112.5"/>
<text text-anchor="middle" x="719.56" y="-119.5" font-family="Helvetica,sans-Serif" font-size="10.00">error.hpp</text>
</a>
</g>
</g>
<!-- Node20&#45;&gt;Node21 -->
<g id="edge31" class="edge">
<title>Node20&#45;&gt;Node21</title>
<path fill="none" stroke="midnightblue" d="M755.46,-168.08C749.32,-160.38 740.29,-149.03 732.82,-139.65"/>
<polygon fill="midnightblue" stroke="midnightblue" points="735.49,-137.39 726.53,-131.75 730.02,-141.75 735.49,-137.39"/>
</g>
<!-- Node20&#45;&gt;Node24 -->
<g id="edge34" class="edge">
<title>Node20&#45;&gt;Node24</title>
<path fill="none" stroke="midnightblue" d="M794.72,-168.44C831.47,-158.67 891.42,-142.72 929.66,-132.55"/>
<polygon fill="midnightblue" stroke="midnightblue" points="930.59,-135.92 939.35,-129.97 928.79,-129.16 930.59,-135.92"/>
</g>
<!-- Node25 -->
<g id="node25" class="node">
<title>Node25</title>
<g id="a_node25"><a xlink:title=" ">
<polygon fill="white" stroke="#bfbfbf" points="765.56,-112.5 765.56,-131.5 833.56,-131.5 833.56,-112.5 765.56,-112.5"/>
<text text-anchor="middle" x="799.56" y="-119.5" font-family="Helvetica,sans-Serif" font-size="10.00">sys/types.h</text>
</a>
</g>
</g>
<!-- Node20&#45;&gt;Node25 -->
<g id="edge36" class="edge">
<title>Node20&#45;&gt;Node25</title>
<path fill="none" stroke="midnightblue" d="M768.67,-168.08C773.84,-160.53 781.41,-149.49 787.75,-140.23"/>
<polygon fill="midnightblue" stroke="midnightblue" points="790.8,-141.98 793.56,-131.75 785.02,-138.02 790.8,-141.98"/>
</g>
<!-- Node26 -->
<g id="node26" class="node">
<title>Node26</title>
<g id="a_node26"><a xlink:title=" ">
<polygon fill="white" stroke="#bfbfbf" points="851.56,-112.5 851.56,-131.5 921.56,-131.5 921.56,-112.5 851.56,-112.5"/>
<text text-anchor="middle" x="886.56" y="-119.5" font-family="Helvetica,sans-Serif" font-size="10.00">sys/sysctl.h</text>
</a>
</g>
</g>
<!-- Node20&#45;&gt;Node26 -->
<g id="edge37" class="edge">
<title>Node20&#45;&gt;Node26</title>
<path fill="none" stroke="midnightblue" d="M782.21,-168.44C802.52,-159.6 834.46,-145.69 857.66,-135.59"/>
<polygon fill="midnightblue" stroke="midnightblue" points="859.23,-138.72 867,-131.52 856.44,-132.3 859.23,-138.72"/>
</g>
<!-- Node22 -->
<g id="node22" class="node">
<title>Node22</title>
<g id="a_node22"><a xlink:title=" ">
<polygon fill="white" stroke="#bfbfbf" points="757.56,-56.5 757.56,-75.5 801.56,-75.5 801.56,-56.5 757.56,-56.5"/>
<text text-anchor="middle" x="779.56" y="-63.5" font-family="Helvetica,sans-Serif" font-size="10.00">cerrno</text>
</a>
</g>
</g>
<!-- Node21&#45;&gt;Node22 -->
<g id="edge32" class="edge">
<title>Node21&#45;&gt;Node22</title>
<path fill="none" stroke="midnightblue" d="M729.2,-112.32C738.07,-104.34 751.43,-92.31 762.17,-82.65"/>
<polygon fill="midnightblue" stroke="midnightblue" points="764.65,-85.13 769.74,-75.83 759.97,-79.92 764.65,-85.13"/>
</g>
<!-- Node23 -->
<g id="node23" class="node">
<title>Node23</title>
<g id="a_node23"><a xlink:title=" ">
<polygon fill="white" stroke="#bfbfbf" points="693.56,-56.5 693.56,-75.5 739.56,-75.5 739.56,-56.5 693.56,-56.5"/>
<text text-anchor="middle" x="716.56" y="-63.5" font-family="Helvetica,sans-Serif" font-size="10.00">cstring</text>
</a>
</g>
</g>
<!-- Node21&#45;&gt;Node23 -->
<g id="edge33" class="edge">
<title>Node21&#45;&gt;Node23</title>
<path fill="none" stroke="midnightblue" d="M719.06,-112.08C718.67,-105.01 718.11,-94.86 717.61,-85.99"/>
<polygon fill="midnightblue" stroke="midnightblue" points="721.09,-85.54 717.05,-75.75 714.11,-85.93 721.09,-85.54"/>
</g>
</g>
</svg>
