<?xml version="1.0" encoding="UTF-8" standalone="no"?>
<!DOCTYPE svg PUBLIC "-//W3C//DTD SVG 1.1//EN"
 "http://www.w3.org/Graphics/SVG/1.1/DTD/svg11.dtd">
<!-- Generated by graphviz version 2.42.2 ()
 -->
<!-- Title: src/Options.hpp Pages: 1 -->
<svg width="329pt" height="140pt"
 viewBox="0.00 0.00 328.50 140.00" xmlns="http://www.w3.org/2000/svg" xmlns:xlink="http://www.w3.org/1999/xlink">
<g id="graph0" class="graph" transform="scale(1 1) rotate(0) translate(4 136)">
<title>src/Options.hpp</title>
<polygon fill="white" stroke="transparent" points="-4,4 -4,-136 324.5,-136 324.5,4 -4,4"/>
<!-- Node1 -->
<g id="node1" class="node">
<title>Node1</title>
<g id="a_node1"><a xlink:title="Provides the nih::Options functor template, a substitute for getopt(3).">
<polygon fill="#bfbfbf" stroke="black" points="135,-112.5 135,-131.5 221,-131.5 221,-112.5 135,-112.5"/>
<text text-anchor="middle" x="178" y="-119.5" font-family="Helvetica,sans-Serif" font-size="10.00">src/Options.hpp</text>
</a>
</g>
</g>
<!-- Node2 -->
<g id="node2" class="node">
<title>Node2</title>
<g id="a_node2"><a xlink:href="utility_8hpp.html" target="_top" xlink:title="Implements generally useful functions.">
<polygon fill="white" stroke="black" points="112.5,-56.5 112.5,-75.5 171.5,-75.5 171.5,-56.5 112.5,-56.5"/>
<text text-anchor="middle" x="142" y="-63.5" font-family="Helvetica,sans-Serif" font-size="10.00">utility.hpp</text>
</a>
</g>
</g>
<!-- Node1&#45;&gt;Node2 -->
<g id="edge1" class="edge">
<title>Node1&#45;&gt;Node2</title>
<path fill="none" stroke="midnightblue" d="M172.06,-112.08C167.02,-104.53 159.66,-93.49 153.49,-84.23"/>
<polygon fill="midnightblue" stroke="midnightblue" points="156.29,-82.13 147.83,-75.75 150.47,-86.01 156.29,-82.13"/>
</g>
<!-- Node3 -->
<g id="node3" class="node">
<title>Node3</title>
<g id="a_node3"><a xlink:title=" ">
<polygon fill="white" stroke="#bfbfbf" points="0,-0.5 0,-19.5 62,-19.5 62,-0.5 0,-0.5"/>
<text text-anchor="middle" x="31" y="-7.5" font-family="Helvetica,sans-Serif" font-size="10.00">type_traits</text>
</a>
</g>
</g>
<!-- Node1&#45;&gt;Node3 -->
<g id="edge8" class="edge">
<title>Node1&#45;&gt;Node3</title>
<path fill="none" stroke="midnightblue" d="M162.17,-112.48C146.81,-103.96 123.1,-90.13 104,-76 83.24,-60.65 61.38,-40.58 47.05,-26.83"/>
<polygon fill="midnightblue" stroke="midnightblue" points="49.16,-24.01 39.55,-19.55 44.28,-29.03 49.16,-24.01"/>
</g>
<!-- Node8 -->
<g id="node8" class="node">
<title>Node8</title>
<g id="a_node8"><a xlink:title=" ">
<polygon fill="white" stroke="#bfbfbf" points="189.5,-56.5 189.5,-75.5 238.5,-75.5 238.5,-56.5 189.5,-56.5"/>
<text text-anchor="middle" x="214" y="-63.5" font-family="Helvetica,sans-Serif" font-size="10.00">cstddef</text>
</a>
</g>
</g>
<!-- Node1&#45;&gt;Node8 -->
<g id="edge7" class="edge">
<title>Node1&#45;&gt;Node8</title>
<path fill="none" stroke="midnightblue" d="M183.94,-112.08C188.98,-104.53 196.34,-93.49 202.51,-84.23"/>
<polygon fill="midnightblue" stroke="midnightblue" points="205.53,-86.01 208.17,-75.75 199.71,-82.13 205.53,-86.01"/>
</g>
<!-- Node9 -->
<g id="node9" class="node">
<title>Node9</title>
<g id="a_node9"><a xlink:title=" ">
<polygon fill="white" stroke="#bfbfbf" points="256.5,-56.5 256.5,-75.5 305.5,-75.5 305.5,-56.5 256.5,-56.5"/>
<text text-anchor="middle" x="281" y="-63.5" font-family="Helvetica,sans-Serif" font-size="10.00">cassert</text>
</a>
</g>
</g>
<!-- Node1&#45;&gt;Node9 -->
<g id="edge9" class="edge">
<title>Node1&#45;&gt;Node9</title>
<path fill="none" stroke="midnightblue" d="M194.55,-112.32C210.99,-103.7 236.43,-90.36 255.47,-80.39"/>
<polygon fill="midnightblue" stroke="midnightblue" points="257.26,-83.4 264.49,-75.65 254.01,-77.2 257.26,-83.4"/>
</g>
<!-- Node2&#45;&gt;Node3 -->
<g id="edge2" class="edge">
<title>Node2&#45;&gt;Node3</title>
<path fill="none" stroke="midnightblue" d="M124.17,-56.32C106.28,-47.62 78.52,-34.12 57.95,-24.11"/>
<polygon fill="midnightblue" stroke="midnightblue" points="59.31,-20.88 48.79,-19.65 56.25,-27.18 59.31,-20.88"/>
</g>
<!-- Node4 -->
<g id="node4" class="node">
<title>Node4</title>
<g id="a_node4"><a xlink:title=" ">
<polygon fill="white" stroke="#bfbfbf" points="80,-0.5 80,-19.5 136,-19.5 136,-0.5 80,-0.5"/>
<text text-anchor="middle" x="108" y="-7.5" font-family="Helvetica,sans-Serif" font-size="10.00">charconv</text>
</a>
</g>
</g>
<!-- Node2&#45;&gt;Node4 -->
<g id="edge3" class="edge">
<title>Node2&#45;&gt;Node4</title>
<path fill="none" stroke="midnightblue" d="M136.39,-56.08C131.63,-48.53 124.68,-37.49 118.85,-28.23"/>
<polygon fill="midnightblue" stroke="midnightblue" points="121.8,-26.35 113.51,-19.75 115.88,-30.08 121.8,-26.35"/>
</g>
<!-- Node5 -->
<g id="node5" class="node">
<title>Node5</title>
<g id="a_node5"><a xlink:title=" ">
<polygon fill="white" stroke="#bfbfbf" points="154,-0.5 154,-19.5 200,-19.5 200,-0.5 154,-0.5"/>
<text text-anchor="middle" x="177" y="-7.5" font-family="Helvetica,sans-Serif" font-size="10.00">cctype</text>
</a>
</g>
</g>
<!-- Node2&#45;&gt;Node5 -->
<g id="edge4" class="edge">
<title>Node2&#45;&gt;Node5</title>
<path fill="none" stroke="midnightblue" d="M147.78,-56.08C152.67,-48.53 159.83,-37.49 165.83,-28.23"/>
<polygon fill="midnightblue" stroke="midnightblue" points="168.83,-30.05 171.33,-19.75 162.95,-26.24 168.83,-30.05"/>
</g>
<!-- Node6 -->
<g id="node6" class="node">
<title>Node6</title>
<g id="a_node6"><a xlink:title=" ">
<polygon fill="white" stroke="#bfbfbf" points="218.5,-0.5 218.5,-19.5 259.5,-19.5 259.5,-0.5 218.5,-0.5"/>
<text text-anchor="middle" x="239" y="-7.5" font-family="Helvetica,sans-Serif" font-size="10.00">string</text>
</a>
</g>
</g>
<!-- Node2&#45;&gt;Node6 -->
<g id="edge5" class="edge">
<title>Node2&#45;&gt;Node6</title>
<path fill="none" stroke="midnightblue" d="M157.58,-56.32C173,-47.74 196.81,-34.49 214.71,-24.52"/>
<polygon fill="midnightblue" stroke="midnightblue" points="216.42,-27.58 223.45,-19.65 213.01,-21.46 216.42,-27.58"/>
</g>
<!-- Node7 -->
<g id="node7" class="node">
<title>Node7</title>
<g id="a_node7"><a xlink:title=" ">
<polygon fill="white" stroke="#bfbfbf" points="277.5,-0.5 277.5,-19.5 320.5,-19.5 320.5,-0.5 277.5,-0.5"/>
<text text-anchor="middle" x="299" y="-7.5" font-family="Helvetica,sans-Serif" font-size="10.00">cstdio</text>
</a>
</g>
</g>
<!-- Node2&#45;&gt;Node7 -->
<g id="edge6" class="edge">
<title>Node2&#45;&gt;Node7</title>
<path fill="none" stroke="midnightblue" d="M166.88,-56.44C194.1,-47.08 237.81,-32.05 267.43,-21.86"/>
<polygon fill="midnightblue" stroke="midnightblue" points="268.95,-25.04 277.27,-18.47 266.68,-18.42 268.95,-25.04"/>
</g>
</g>
</svg>
