<?xml version="1.0" encoding="UTF-8" standalone="no"?>
<!DOCTYPE svg PUBLIC "-//W3C//DTD SVG 1.1//EN"
 "http://www.w3.org/Graphics/SVG/1.1/DTD/svg11.dtd">
<!-- Generated by graphviz version 2.40.1 (20161225.0304)
 -->
<!-- Title: src/Options.hpp Pages: 1 -->
<svg width="270pt" height="140pt"
 viewBox="0.00 0.00 269.50 140.00" xmlns="http://www.w3.org/2000/svg" xmlns:xlink="http://www.w3.org/1999/xlink">
<g id="graph0" class="graph" transform="scale(1 1) rotate(0) translate(4 136)">
<title>src/Options.hpp</title>
<polygon fill="#ffffff" stroke="transparent" points="-4,4 -4,-136 265.5,-136 265.5,4 -4,4"/>
<!-- Node1 -->
<g id="node1" class="node">
<title>Node1</title>
<g id="a_node1"><a xlink:title=" ">
<polygon fill="#bfbfbf" stroke="#000000" points="91,-112.5 91,-131.5 177,-131.5 177,-112.5 91,-112.5"/>
<text text-anchor="middle" x="134" y="-119.5" font-family="Helvetica,sans-Serif" font-size="10.00" fill="#000000">src/Options.hpp</text>
</a>
</g>
</g>
<!-- Node2 -->
<g id="node2" class="node">
<title>Node2</title>
<g id="a_node2"><a xlink:href="utility_8hpp.html" target="_top" xlink:title=" ">
<polygon fill="#ffffff" stroke="#000000" points="68.5,-56.5 68.5,-75.5 127.5,-75.5 127.5,-56.5 68.5,-56.5"/>
<text text-anchor="middle" x="98" y="-63.5" font-family="Helvetica,sans-Serif" font-size="10.00" fill="#000000">utility.hpp</text>
</a>
</g>
</g>
<!-- Node1&#45;&gt;Node2 -->
<g id="edge1" class="edge">
<title>Node1&#45;&gt;Node2</title>
<path fill="none" stroke="#191970" d="M127.7293,-112.2455C122.7736,-104.5367 115.717,-93.5598 109.7224,-84.2348"/>
<polygon fill="#191970" stroke="#191970" points="112.5506,-82.1618 104.1989,-75.6427 106.6624,-85.9471 112.5506,-82.1618"/>
</g>
<!-- Node3 -->
<g id="node3" class="node">
<title>Node3</title>
<g id="a_node3"><a xlink:title=" ">
<polygon fill="#ffffff" stroke="#bfbfbf" points="0,-.5 0,-19.5 62,-19.5 62,-.5 0,-.5"/>
<text text-anchor="middle" x="31" y="-7.5" font-family="Helvetica,sans-Serif" font-size="10.00" fill="#000000">type_traits</text>
</a>
</g>
</g>
<!-- Node1&#45;&gt;Node3 -->
<g id="edge6" class="edge">
<title>Node1&#45;&gt;Node3</title>
<path fill="none" stroke="#191970" d="M110.7015,-112.372C94.3787,-104.6172 73.054,-92.3202 59,-76 47.3499,-62.4715 39.9647,-43.3831 35.7225,-29.2124"/>
<polygon fill="#191970" stroke="#191970" points="39.0833,-28.2329 33.0726,-19.5081 32.3305,-30.0769 39.0833,-28.2329"/>
</g>
<!-- Node6 -->
<g id="node6" class="node">
<title>Node6</title>
<g id="a_node6"><a xlink:title=" ">
<polygon fill="#ffffff" stroke="#bfbfbf" points="145.5,-56.5 145.5,-75.5 194.5,-75.5 194.5,-56.5 145.5,-56.5"/>
<text text-anchor="middle" x="170" y="-63.5" font-family="Helvetica,sans-Serif" font-size="10.00" fill="#000000">cstddef</text>
</a>
</g>
</g>
<!-- Node1&#45;&gt;Node6 -->
<g id="edge5" class="edge">
<title>Node1&#45;&gt;Node6</title>
<path fill="none" stroke="#191970" d="M140.2707,-112.2455C145.2264,-104.5367 152.283,-93.5598 158.2776,-84.2348"/>
<polygon fill="#191970" stroke="#191970" points="161.3376,-85.9471 163.8011,-75.6427 155.4494,-82.1618 161.3376,-85.9471"/>
</g>
<!-- Node7 -->
<g id="node7" class="node">
<title>Node7</title>
<g id="a_node7"><a xlink:title=" ">
<polygon fill="#ffffff" stroke="#bfbfbf" points="212.5,-56.5 212.5,-75.5 261.5,-75.5 261.5,-56.5 212.5,-56.5"/>
<text text-anchor="middle" x="237" y="-63.5" font-family="Helvetica,sans-Serif" font-size="10.00" fill="#000000">cassert</text>
</a>
</g>
</g>
<!-- Node1&#45;&gt;Node7 -->
<g id="edge7" class="edge">
<title>Node1&#45;&gt;Node7</title>
<path fill="none" stroke="#191970" d="M151.9412,-112.2455C168.04,-103.4928 191.8879,-90.527 210.2391,-80.5496"/>
<polygon fill="#191970" stroke="#191970" points="212.1507,-83.4942 219.2644,-75.6427 208.8071,-77.3444 212.1507,-83.4942"/>
</g>
<!-- Node2&#45;&gt;Node3 -->
<g id="edge2" class="edge">
<title>Node2&#45;&gt;Node3</title>
<path fill="none" stroke="#191970" d="M86.3295,-56.2455C76.4339,-47.9746 62.0373,-35.9416 50.4099,-26.2232"/>
<polygon fill="#191970" stroke="#191970" points="52.4542,-23.3703 42.5368,-19.6427 47.965,-28.7413 52.4542,-23.3703"/>
</g>
<!-- Node4 -->
<g id="node4" class="node">
<title>Node4</title>
<g id="a_node4"><a xlink:title=" ">
<polygon fill="#ffffff" stroke="#bfbfbf" points="80.5,-.5 80.5,-19.5 121.5,-19.5 121.5,-.5 80.5,-.5"/>
<text text-anchor="middle" x="101" y="-7.5" font-family="Helvetica,sans-Serif" font-size="10.00" fill="#000000">string</text>
</a>
</g>
</g>
<!-- Node2&#45;&gt;Node4 -->
<g id="edge3" class="edge">
<title>Node2&#45;&gt;Node4</title>
<path fill="none" stroke="#191970" d="M98.5226,-56.2455C98.914,-48.9382 99.4628,-38.6944 99.9444,-29.7046"/>
<polygon fill="#191970" stroke="#191970" points="103.4434,-29.8156 100.4834,-19.6427 96.4534,-29.4411 103.4434,-29.8156"/>
</g>
<!-- Node5 -->
<g id="node5" class="node">
<title>Node5</title>
<g id="a_node5"><a xlink:title=" ">
<polygon fill="#ffffff" stroke="#bfbfbf" points="139.5,-.5 139.5,-19.5 182.5,-19.5 182.5,-.5 139.5,-.5"/>
<text text-anchor="middle" x="161" y="-7.5" font-family="Helvetica,sans-Serif" font-size="10.00" fill="#000000">cstdio</text>
</a>
</g>
</g>
<!-- Node2&#45;&gt;Node5 -->
<g id="edge4" class="edge">
<title>Node2&#45;&gt;Node5</title>
<path fill="none" stroke="#191970" d="M108.9738,-56.2455C118.1882,-48.0549 131.5532,-36.1749 142.4297,-26.5069"/>
<polygon fill="#191970" stroke="#191970" points="145.0032,-28.9023 150.152,-19.6427 140.3526,-23.6704 145.0032,-28.9023"/>
</g>
</g>
</svg>
