<?xml version="1.0" encoding="UTF-8" standalone="no"?>
<!DOCTYPE svg PUBLIC "-//W3C//DTD SVG 1.1//EN"
 "http://www.w3.org/Graphics/SVG/1.1/DTD/svg11.dtd">
<!-- Generated by graphviz version 2.40.1 (20161225.0304)
 -->
<!-- Title: Options.hpp Pages: 1 -->
<svg width="343pt" height="84pt"
 viewBox="0.00 0.00 343.00 84.00" xmlns="http://www.w3.org/2000/svg" xmlns:xlink="http://www.w3.org/1999/xlink">
<g id="graph0" class="graph" transform="scale(1 1) rotate(0) translate(4 80)">
<title>Options.hpp</title>
<polygon fill="#ffffff" stroke="transparent" points="-4,4 -4,-80 339,-80 339,4 -4,4"/>
<!-- Node0 -->
<g id="node1" class="node">
<title>Node0</title>
<g id="a_node1"><a xlink:title="This file provides nih::Options&lt;&gt;, a substitute for getopt(3).">
<polygon fill="#bfbfbf" stroke="#000000" points="127,-56.5 127,-75.5 196,-75.5 196,-56.5 127,-56.5"/>
<text text-anchor="middle" x="161.5" y="-63.5" font-family="Helvetica,sans-Serif" font-size="10.00" fill="#000000">Options.hpp</text>
</a>
</g>
</g>
<!-- Node1 -->
<g id="node2" class="node">
<title>Node1</title>
<g id="a_node2"><a xlink:title=" ">
<polygon fill="#ffffff" stroke="#bfbfbf" points="0,-.5 0,-19.5 49,-19.5 49,-.5 0,-.5"/>
<text text-anchor="middle" x="24.5" y="-7.5" font-family="Helvetica,sans-Serif" font-size="10.00" fill="#000000">cstddef</text>
</a>
</g>
</g>
<!-- Node0&#45;&gt;Node1 -->
<g id="edge1" class="edge">
<title>Node0&#45;&gt;Node1</title>
<path fill="none" stroke="#191970" d="M137.9489,-56.3733C115.6609,-47.2629 82.0063,-33.5062 57.1363,-23.3404"/>
<polygon fill="#191970" stroke="#191970" points="58.3247,-20.0451 47.7438,-19.5011 55.6761,-26.5247 58.3247,-20.0451"/>
</g>
<!-- Node2 -->
<g id="node3" class="node">
<title>Node2</title>
<g id="a_node3"><a xlink:title=" ">
<polygon fill="#ffffff" stroke="#bfbfbf" points="67.5,-.5 67.5,-19.5 117.5,-19.5 117.5,-.5 67.5,-.5"/>
<text text-anchor="middle" x="92.5" y="-7.5" font-family="Helvetica,sans-Serif" font-size="10.00" fill="#000000">iomanip</text>
</a>
</g>
</g>
<!-- Node0&#45;&gt;Node2 -->
<g id="edge2" class="edge">
<title>Node0&#45;&gt;Node2</title>
<path fill="none" stroke="#191970" d="M149.4811,-56.2455C139.2902,-47.9746 124.4638,-35.9416 112.4893,-26.2232"/>
<polygon fill="#191970" stroke="#191970" points="114.3514,-23.2268 104.3812,-19.6427 109.9402,-28.662 114.3514,-23.2268"/>
</g>
<!-- Node3 -->
<g id="node4" class="node">
<title>Node3</title>
<g id="a_node4"><a xlink:title=" ">
<polygon fill="#ffffff" stroke="#bfbfbf" points="135.5,-.5 135.5,-19.5 187.5,-19.5 187.5,-.5 135.5,-.5"/>
<text text-anchor="middle" x="161.5" y="-7.5" font-family="Helvetica,sans-Serif" font-size="10.00" fill="#000000">sstream</text>
</a>
</g>
</g>
<!-- Node0&#45;&gt;Node3 -->
<g id="edge3" class="edge">
<title>Node0&#45;&gt;Node3</title>
<path fill="none" stroke="#191970" d="M161.5,-56.2455C161.5,-48.9382 161.5,-38.6944 161.5,-29.7046"/>
<polygon fill="#191970" stroke="#191970" points="165.0001,-29.6426 161.5,-19.6427 158.0001,-29.6427 165.0001,-29.6426"/>
</g>
<!-- Node4 -->
<g id="node5" class="node">
<title>Node4</title>
<g id="a_node5"><a xlink:title=" ">
<polygon fill="#ffffff" stroke="#bfbfbf" points="205.5,-.5 205.5,-19.5 267.5,-19.5 267.5,-.5 205.5,-.5"/>
<text text-anchor="middle" x="236.5" y="-7.5" font-family="Helvetica,sans-Serif" font-size="10.00" fill="#000000">type_traits</text>
</a>
</g>
</g>
<!-- Node0&#45;&gt;Node4 -->
<g id="edge4" class="edge">
<title>Node0&#45;&gt;Node4</title>
<path fill="none" stroke="#191970" d="M174.564,-56.2455C185.8562,-47.814 202.3845,-35.4729 215.5271,-25.6598"/>
<polygon fill="#191970" stroke="#191970" points="217.6669,-28.4301 223.5857,-19.6427 213.4789,-22.8211 217.6669,-28.4301"/>
</g>
<!-- Node5 -->
<g id="node6" class="node">
<title>Node5</title>
<g id="a_node6"><a xlink:title=" ">
<polygon fill="#ffffff" stroke="#bfbfbf" points="286,-.5 286,-19.5 335,-19.5 335,-.5 286,-.5"/>
<text text-anchor="middle" x="310.5" y="-7.5" font-family="Helvetica,sans-Serif" font-size="10.00" fill="#000000">cassert</text>
</a>
</g>
</g>
<!-- Node0&#45;&gt;Node5 -->
<g id="edge5" class="edge">
<title>Node0&#45;&gt;Node5</title>
<path fill="none" stroke="#191970" d="M187.114,-56.3733C211.7169,-47.1265 249.0548,-33.0935 276.2128,-22.8865"/>
<polygon fill="#191970" stroke="#191970" points="277.586,-26.1095 285.7153,-19.315 275.1233,-19.557 277.586,-26.1095"/>
</g>
</g>
</svg>
