<?xml version="1.0" encoding="UTF-8" standalone="no"?>
<!DOCTYPE svg PUBLIC "-//W3C//DTD SVG 1.1//EN"
 "http://www.w3.org/Graphics/SVG/1.1/DTD/svg11.dtd">
<!-- Generated by graphviz version 2.40.1 (20161225.0304)
 -->
<!-- Title: src/Options.hpp Pages: 1 -->
<svg width="311pt" height="84pt"
 viewBox="0.00 0.00 310.50 84.00" xmlns="http://www.w3.org/2000/svg" xmlns:xlink="http://www.w3.org/1999/xlink">
<g id="graph0" class="graph" transform="scale(1 1) rotate(0) translate(4 80)">
<title>src/Options.hpp</title>
<polygon fill="#ffffff" stroke="transparent" points="-4,4 -4,-80 306.5,-80 306.5,4 -4,4"/>
<!-- Node6 -->
<g id="node1" class="node">
<title>Node6</title>
<g id="a_node1"><a xlink:title="This file provides nih::Options&lt;&gt;, a substitute for getopt(3).">
<polygon fill="#bfbfbf" stroke="#000000" points="105,-56.5 105,-75.5 191,-75.5 191,-56.5 105,-56.5"/>
<text text-anchor="middle" x="148" y="-63.5" font-family="Helvetica,sans-Serif" font-size="10.00" fill="#000000">src/Options.hpp</text>
</a>
</g>
</g>
<!-- Node7 -->
<g id="node2" class="node">
<title>Node7</title>
<g id="a_node2"><a xlink:href="loadplay_8cpp.html" target="_top" xlink:title="Implements the loadplay a bootstrapping tool for libloadplay.">
<polygon fill="#ffffff" stroke="#000000" points="0,-.5 0,-19.5 88,-19.5 88,-.5 0,-.5"/>
<text text-anchor="middle" x="44" y="-7.5" font-family="Helvetica,sans-Serif" font-size="10.00" fill="#000000">src/loadplay.cpp</text>
</a>
</g>
</g>
<!-- Node6&#45;&gt;Node7 -->
<g id="edge1" class="edge">
<title>Node6&#45;&gt;Node7</title>
<path fill="none" stroke="#191970" d="M120.9971,-51.46C102.3864,-41.4388 78.1701,-28.3993 61.9078,-19.6427"/>
<polygon fill="#191970" stroke="#191970" points="119.4205,-54.5861 129.8846,-56.2455 122.7392,-48.4228 119.4205,-54.5861"/>
</g>
<!-- Node8 -->
<g id="node3" class="node">
<title>Node8</title>
<g id="a_node3"><a xlink:href="loadrec_8cpp.html" target="_top" xlink:title="Implements a load recorder, useful for simulating loads to test CPU clock daemons and settings.">
<polygon fill="#ffffff" stroke="#000000" points="106.5,-.5 106.5,-19.5 189.5,-19.5 189.5,-.5 106.5,-.5"/>
<text text-anchor="middle" x="148" y="-7.5" font-family="Helvetica,sans-Serif" font-size="10.00" fill="#000000">src/loadrec.cpp</text>
</a>
</g>
</g>
<!-- Node6&#45;&gt;Node8 -->
<g id="edge2" class="edge">
<title>Node6&#45;&gt;Node8</title>
<path fill="none" stroke="#191970" d="M148,-46.1575C148,-37.155 148,-26.9199 148,-19.6427"/>
<polygon fill="#191970" stroke="#191970" points="144.5001,-46.2455 148,-56.2455 151.5001,-46.2456 144.5001,-46.2455"/>
</g>
<!-- Node9 -->
<g id="node4" class="node">
<title>Node9</title>
<g id="a_node4"><a xlink:href="powerd_09_09_8cpp.html" target="_top" xlink:title="Implements powerd++ a drop in replacement for FreeBSD&#39;s powerd.">
<polygon fill="#ffffff" stroke="#000000" points="207.5,-.5 207.5,-19.5 302.5,-19.5 302.5,-.5 207.5,-.5"/>
<text text-anchor="middle" x="255" y="-7.5" font-family="Helvetica,sans-Serif" font-size="10.00" fill="#000000">src/powerd++.cpp</text>
</a>
</g>
</g>
<!-- Node6&#45;&gt;Node9 -->
<g id="edge3" class="edge">
<title>Node6&#45;&gt;Node9</title>
<path fill="none" stroke="#191970" d="M175.5199,-51.5971C194.7017,-41.558 219.7678,-28.4393 236.5756,-19.6427"/>
<polygon fill="#191970" stroke="#191970" points="173.875,-48.5075 166.638,-56.2455 177.1209,-54.7095 173.875,-48.5075"/>
</g>
</g>
</svg>
