<?xml version="1.0" encoding="UTF-8" standalone="no"?>
<!DOCTYPE svg PUBLIC "-//W3C//DTD SVG 1.1//EN"
 "http://www.w3.org/Graphics/SVG/1.1/DTD/svg11.dtd">
<!-- Generated by graphviz version 2.42.2 ()
 -->
<!-- Title: src/Options.hpp Pages: 1 -->
<svg width="311pt" height="84pt"
 viewBox="0.00 0.00 310.50 84.00" xmlns="http://www.w3.org/2000/svg" xmlns:xlink="http://www.w3.org/1999/xlink">
<g id="graph0" class="graph" transform="scale(1 1) rotate(0) translate(4 80)">
<title>src/Options.hpp</title>
<polygon fill="white" stroke="transparent" points="-4,4 -4,-80 306.5,-80 306.5,4 -4,4"/>
<!-- Node1 -->
<g id="node1" class="node">
<title>Node1</title>
<g id="a_node1"><a xlink:title="Provides the nih::Options functor template, a substitute for getopt(3).">
<polygon fill="#bfbfbf" stroke="black" points="105,-56.5 105,-75.5 191,-75.5 191,-56.5 105,-56.5"/>
<text text-anchor="middle" x="148" y="-63.5" font-family="Helvetica,sans-Serif" font-size="10.00">src/Options.hpp</text>
</a>
</g>
</g>
<!-- Node2 -->
<g id="node2" class="node">
<title>Node2</title>
<g id="a_node2"><a xlink:href="loadplay_8cpp.html" target="_top" xlink:title="Implements loadplay, a bootstrapping tool for libloadplay.">
<polygon fill="white" stroke="black" points="0,-0.5 0,-19.5 88,-19.5 88,-0.5 0,-0.5"/>
<text text-anchor="middle" x="44" y="-7.5" font-family="Helvetica,sans-Serif" font-size="10.00">src/loadplay.cpp</text>
</a>
</g>
</g>
<!-- Node1&#45;&gt;Node2 -->
<g id="edge1" class="edge">
<title>Node1&#45;&gt;Node2</title>
<path fill="none" stroke="midnightblue" d="M122.17,-51.59C102.94,-41.61 77.26,-28.27 60.67,-19.65"/>
<polygon fill="midnightblue" stroke="midnightblue" points="120.8,-54.82 131.29,-56.32 124.03,-48.61 120.8,-54.82"/>
</g>
<!-- Node3 -->
<g id="node3" class="node">
<title>Node3</title>
<g id="a_node3"><a xlink:href="loadrec_8cpp.html" target="_top" xlink:title="Implements a load recorder, useful for simulating loads to test CPU clock daemons and settings.">
<polygon fill="white" stroke="black" points="106.5,-0.5 106.5,-19.5 189.5,-19.5 189.5,-0.5 106.5,-0.5"/>
<text text-anchor="middle" x="148" y="-7.5" font-family="Helvetica,sans-Serif" font-size="10.00">src/loadrec.cpp</text>
</a>
</g>
</g>
<!-- Node1&#45;&gt;Node3 -->
<g id="edge2" class="edge">
<title>Node1&#45;&gt;Node3</title>
<path fill="none" stroke="midnightblue" d="M148,-45.8C148,-36.91 148,-26.78 148,-19.75"/>
<polygon fill="midnightblue" stroke="midnightblue" points="144.5,-46.08 148,-56.08 151.5,-46.08 144.5,-46.08"/>
</g>
<!-- Node4 -->
<g id="node4" class="node">
<title>Node4</title>
<g id="a_node4"><a xlink:href="powerd_09_09_8cpp.html" target="_top" xlink:title="Implements powerd++ a drop in replacement for FreeBSD&#39;s powerd.">
<polygon fill="white" stroke="black" points="207.5,-0.5 207.5,-19.5 302.5,-19.5 302.5,-0.5 207.5,-0.5"/>
<text text-anchor="middle" x="255" y="-7.5" font-family="Helvetica,sans-Serif" font-size="10.00">src/powerd++.cpp</text>
</a>
</g>
</g>
<!-- Node1&#45;&gt;Node4 -->
<g id="edge3" class="edge">
<title>Node1&#45;&gt;Node4</title>
<path fill="none" stroke="midnightblue" d="M174.3,-51.73C194.11,-41.73 220.71,-28.31 237.85,-19.65"/>
<polygon fill="midnightblue" stroke="midnightblue" points="172.54,-48.69 165.19,-56.32 175.7,-54.94 172.54,-48.69"/>
</g>
</g>
</svg>
