<?xml version="1.0" encoding="UTF-8" standalone="no"?>
<!DOCTYPE svg PUBLIC "-//W3C//DTD SVG 1.1//EN"
 "http://www.w3.org/Graphics/SVG/1.1/DTD/svg11.dtd">
<!-- Generated by graphviz version 2.42.2 ()
 -->
<!-- Title: src/Options.hpp Pages: 1 -->
<svg width="269pt" height="140pt"
 viewBox="0.00 0.00 268.50 140.00" xmlns="http://www.w3.org/2000/svg" xmlns:xlink="http://www.w3.org/1999/xlink">
<g id="graph0" class="graph" transform="scale(1 1) rotate(0) translate(4 136)">
<title>src/Options.hpp</title>
<polygon fill="white" stroke="transparent" points="-4,4 -4,-136 264.5,-136 264.5,4 -4,4"/>
<!-- Node1 -->
<g id="node1" class="node">
<title>Node1</title>
<g id="a_node1"><a xlink:title="Provides the nih::Options functor template, a substitute for getopt(3).">
<polygon fill="#bfbfbf" stroke="black" points="90,-112.5 90,-131.5 176,-131.5 176,-112.5 90,-112.5"/>
<text text-anchor="middle" x="133" y="-119.5" font-family="Helvetica" font-size="10.00">src/Options.hpp</text>
</a>
</g>
</g>
<!-- Node2 -->
<g id="node2" class="node">
<title>Node2</title>
<g id="a_node2"><a xlink:href="utility_8hpp.html" target="_top" xlink:title="Implements generally useful functions.">
<polygon fill="white" stroke="black" points="68,-56.5 68,-75.5 126,-75.5 126,-56.5 68,-56.5"/>
<text text-anchor="middle" x="97" y="-63.5" font-family="Helvetica" font-size="10.00">utility.hpp</text>
</a>
</g>
</g>
<!-- Node1&#45;&gt;Node2 -->
<g id="edge1" class="edge">
<title>Node1&#45;&gt;Node2</title>
<path fill="none" stroke="midnightblue" d="M127.06,-112.08C122.02,-104.53 114.66,-93.49 108.49,-84.23"/>
<polygon fill="midnightblue" stroke="midnightblue" points="111.29,-82.13 102.83,-75.75 105.47,-86.01 111.29,-82.13"/>
</g>
<!-- Node3 -->
<g id="node3" class="node">
<title>Node3</title>
<g id="a_node3"><a xlink:title=" ">
<polygon fill="white" stroke="#bfbfbf" points="0,-0.5 0,-19.5 62,-19.5 62,-0.5 0,-0.5"/>
<text text-anchor="middle" x="31" y="-7.5" font-family="Helvetica" font-size="10.00">type_traits</text>
</a>
</g>
</g>
<!-- Node1&#45;&gt;Node3 -->
<g id="edge6" class="edge">
<title>Node1&#45;&gt;Node3</title>
<path fill="none" stroke="midnightblue" d="M111.73,-112.39C95.45,-104.87 73.4,-92.57 59,-76 47.42,-62.68 40.02,-43.85 35.76,-29.88"/>
<polygon fill="midnightblue" stroke="midnightblue" points="39.04,-28.62 32.99,-19.92 32.3,-30.5 39.04,-28.62"/>
</g>
<!-- Node6 -->
<g id="node6" class="node">
<title>Node6</title>
<g id="a_node6"><a xlink:title=" ">
<polygon fill="white" stroke="#bfbfbf" points="144.5,-56.5 144.5,-75.5 193.5,-75.5 193.5,-56.5 144.5,-56.5"/>
<text text-anchor="middle" x="169" y="-63.5" font-family="Helvetica" font-size="10.00">cstddef</text>
</a>
</g>
</g>
<!-- Node1&#45;&gt;Node6 -->
<g id="edge5" class="edge">
<title>Node1&#45;&gt;Node6</title>
<path fill="none" stroke="midnightblue" d="M138.94,-112.08C143.98,-104.53 151.34,-93.49 157.51,-84.23"/>
<polygon fill="midnightblue" stroke="midnightblue" points="160.53,-86.01 163.17,-75.75 154.71,-82.13 160.53,-86.01"/>
</g>
<!-- Node7 -->
<g id="node7" class="node">
<title>Node7</title>
<g id="a_node7"><a xlink:title=" ">
<polygon fill="white" stroke="#bfbfbf" points="211.5,-56.5 211.5,-75.5 260.5,-75.5 260.5,-56.5 211.5,-56.5"/>
<text text-anchor="middle" x="236" y="-63.5" font-family="Helvetica" font-size="10.00">cassert</text>
</a>
</g>
</g>
<!-- Node1&#45;&gt;Node7 -->
<g id="edge7" class="edge">
<title>Node1&#45;&gt;Node7</title>
<path fill="none" stroke="midnightblue" d="M149.55,-112.32C165.99,-103.7 191.43,-90.36 210.47,-80.39"/>
<polygon fill="midnightblue" stroke="midnightblue" points="212.26,-83.4 219.49,-75.65 209.01,-77.2 212.26,-83.4"/>
</g>
<!-- Node2&#45;&gt;Node3 -->
<g id="edge2" class="edge">
<title>Node2&#45;&gt;Node3</title>
<path fill="none" stroke="midnightblue" d="M86.4,-56.32C76.54,-48.26 61.65,-36.08 49.78,-26.37"/>
<polygon fill="midnightblue" stroke="midnightblue" points="51.75,-23.46 41.8,-19.83 47.32,-28.88 51.75,-23.46"/>
</g>
<!-- Node4 -->
<g id="node4" class="node">
<title>Node4</title>
<g id="a_node4"><a xlink:title=" ">
<polygon fill="white" stroke="#bfbfbf" points="80.5,-0.5 80.5,-19.5 121.5,-19.5 121.5,-0.5 80.5,-0.5"/>
<text text-anchor="middle" x="101" y="-7.5" font-family="Helvetica" font-size="10.00">string</text>
</a>
</g>
</g>
<!-- Node2&#45;&gt;Node4 -->
<g id="edge3" class="edge">
<title>Node2&#45;&gt;Node4</title>
<path fill="none" stroke="midnightblue" d="M97.66,-56.08C98.18,-49.01 98.94,-38.86 99.59,-29.99"/>
<polygon fill="midnightblue" stroke="midnightblue" points="103.1,-29.98 100.35,-19.75 96.12,-29.47 103.1,-29.98"/>
</g>
<!-- Node5 -->
<g id="node5" class="node">
<title>Node5</title>
<g id="a_node5"><a xlink:title=" ">
<polygon fill="white" stroke="#bfbfbf" points="139.5,-0.5 139.5,-19.5 182.5,-19.5 182.5,-0.5 139.5,-0.5"/>
<text text-anchor="middle" x="161" y="-7.5" font-family="Helvetica" font-size="10.00">cstdio</text>
</a>
</g>
</g>
<!-- Node2&#45;&gt;Node5 -->
<g id="edge4" class="edge">
<title>Node2&#45;&gt;Node5</title>
<path fill="none" stroke="midnightblue" d="M107.28,-56.32C116.84,-48.26 131.28,-36.08 142.78,-26.37"/>
<polygon fill="midnightblue" stroke="midnightblue" points="145.14,-28.96 150.53,-19.83 140.63,-23.61 145.14,-28.96"/>
</g>
</g>
</svg>
