<?xml version="1.0" encoding="UTF-8" standalone="no"?>
<!DOCTYPE svg PUBLIC "-//W3C//DTD SVG 1.1//EN"
 "http://www.w3.org/Graphics/SVG/1.1/DTD/svg11.dtd">
<!-- Generated by graphviz version 2.42.2 ()
 -->
<!-- Title: src/Options.hpp Pages: 1 -->
<svg width="309pt" height="84pt"
 viewBox="0.00 0.00 309.00 84.00" xmlns="http://www.w3.org/2000/svg" xmlns:xlink="http://www.w3.org/1999/xlink">
<g id="graph0" class="graph" transform="scale(1 1) rotate(0) translate(4 80)">
<title>src/Options.hpp</title>
<polygon fill="white" stroke="transparent" points="-4,4 -4,-80 305,-80 305,4 -4,4"/>
<!-- Node1 -->
<g id="node1" class="node">
<title>Node1</title>
<g id="a_node1"><a xlink:title="Provides the nih::Options functor template, a substitute for getopt(3).">
<polygon fill="#bfbfbf" stroke="black" points="103.5,-56.5 103.5,-75.5 189.5,-75.5 189.5,-56.5 103.5,-56.5"/>
<text text-anchor="middle" x="146.5" y="-63.5" font-family="Helvetica" font-size="10.00">src/Options.hpp</text>
</a>
</g>
</g>
<!-- Node2 -->
<g id="node2" class="node">
<title>Node2</title>
<g id="a_node2"><a xlink:href="loadplay_8cpp.html" target="_top" xlink:title="Implements loadplay, a bootstrapping tool for libloadplay.">
<polygon fill="white" stroke="black" points="0,-0.5 0,-19.5 87,-19.5 87,-0.5 0,-0.5"/>
<text text-anchor="middle" x="43.5" y="-7.5" font-family="Helvetica" font-size="10.00">src/loadplay.cpp</text>
</a>
</g>
</g>
<!-- Node1&#45;&gt;Node2 -->
<g id="edge1" class="edge">
<title>Node1&#45;&gt;Node2</title>
<path fill="none" stroke="midnightblue" d="M120.92,-51.59C101.88,-41.61 76.44,-28.27 60.01,-19.65"/>
<polygon fill="midnightblue" stroke="midnightblue" points="119.47,-54.78 129.95,-56.32 122.72,-48.58 119.47,-54.78"/>
</g>
<!-- Node3 -->
<g id="node3" class="node">
<title>Node3</title>
<g id="a_node3"><a xlink:href="loadrec_8cpp.html" target="_top" xlink:title="Implements a load recorder, useful for simulating loads to test CPU clock daemons and settings.">
<polygon fill="white" stroke="black" points="105,-0.5 105,-19.5 188,-19.5 188,-0.5 105,-0.5"/>
<text text-anchor="middle" x="146.5" y="-7.5" font-family="Helvetica" font-size="10.00">src/loadrec.cpp</text>
</a>
</g>
</g>
<!-- Node1&#45;&gt;Node3 -->
<g id="edge2" class="edge">
<title>Node1&#45;&gt;Node3</title>
<path fill="none" stroke="midnightblue" d="M146.5,-45.8C146.5,-36.91 146.5,-26.78 146.5,-19.75"/>
<polygon fill="midnightblue" stroke="midnightblue" points="143,-46.08 146.5,-56.08 150,-46.08 143,-46.08"/>
</g>
<!-- Node4 -->
<g id="node4" class="node">
<title>Node4</title>
<g id="a_node4"><a xlink:href="powerd_09_09_8cpp.html" target="_top" xlink:title="Implements powerd++ a drop in replacement for FreeBSD&#39;s powerd.">
<polygon fill="white" stroke="black" points="206,-0.5 206,-19.5 301,-19.5 301,-0.5 206,-0.5"/>
<text text-anchor="middle" x="253.5" y="-7.5" font-family="Helvetica" font-size="10.00">src/powerd++.cpp</text>
</a>
</g>
</g>
<!-- Node1&#45;&gt;Node4 -->
<g id="edge3" class="edge">
<title>Node1&#45;&gt;Node4</title>
<path fill="none" stroke="midnightblue" d="M172.8,-51.73C192.61,-41.73 219.21,-28.31 236.35,-19.65"/>
<polygon fill="midnightblue" stroke="midnightblue" points="171.04,-48.69 163.69,-56.32 174.2,-54.94 171.04,-48.69"/>
</g>
</g>
</svg>
