<?xml version="1.0" encoding="UTF-8" standalone="no"?>
<!DOCTYPE svg PUBLIC "-//W3C//DTD SVG 1.1//EN"
 "http://www.w3.org/Graphics/SVG/1.1/DTD/svg11.dtd">
<!-- Generated by graphviz version 2.40.1 (20161225.0304)
 -->
<!-- Title: src/powerd++.cpp Pages: 1 -->
<svg width="1416pt" height="252pt"
 viewBox="0.00 0.00 1416.03 252.00" xmlns="http://www.w3.org/2000/svg" xmlns:xlink="http://www.w3.org/1999/xlink">
<g id="graph0" class="graph" transform="scale(1 1) rotate(0) translate(4 248)">
<title>src/powerd++.cpp</title>
<polygon fill="#ffffff" stroke="transparent" points="-4,4 -4,-248 1412.0262,-248 1412.0262,4 -4,4"/>
<!-- Node1 -->
<g id="node1" class="node">
<title>Node1</title>
<g id="a_node1"><a xlink:title=" ">
<polygon fill="#bfbfbf" stroke="#000000" points="716.0262,-224.5 716.0262,-243.5 811.0262,-243.5 811.0262,-224.5 716.0262,-224.5"/>
<text text-anchor="middle" x="763.5262" y="-231.5" font-family="Helvetica,sans-Serif" font-size="10.00" fill="#000000">src/powerd++.cpp</text>
</a>
</g>
</g>
<!-- Node2 -->
<g id="node2" class="node">
<title>Node2</title>
<g id="a_node2"><a xlink:href="Options_8hpp.html" target="_top" xlink:title=" ">
<polygon fill="#ffffff" stroke="#000000" points="490.0262,-168.5 490.0262,-187.5 559.0262,-187.5 559.0262,-168.5 490.0262,-168.5"/>
<text text-anchor="middle" x="524.5262" y="-175.5" font-family="Helvetica,sans-Serif" font-size="10.00" fill="#000000">Options.hpp</text>
</a>
</g>
</g>
<!-- Node1&#45;&gt;Node2 -->
<g id="edge1" class="edge">
<title>Node1&#45;&gt;Node2</title>
<path fill="none" stroke="#191970" d="M722.7122,-224.4369C680.0398,-214.4383 613.2698,-198.7935 569.2067,-188.4691"/>
<polygon fill="#191970" stroke="#191970" points="569.8801,-185.0321 559.3453,-186.1584 568.2831,-191.8475 569.8801,-185.0321"/>
</g>
<!-- Node3 -->
<g id="node3" class="node">
<title>Node3</title>
<g id="a_node3"><a xlink:href="utility_8hpp.html" target="_top" xlink:title=" ">
<polygon fill="#ffffff" stroke="#000000" points="351.0262,-56.5 351.0262,-75.5 410.0262,-75.5 410.0262,-56.5 351.0262,-56.5"/>
<text text-anchor="middle" x="380.5262" y="-63.5" font-family="Helvetica,sans-Serif" font-size="10.00" fill="#000000">utility.hpp</text>
</a>
</g>
</g>
<!-- Node1&#45;&gt;Node3 -->
<g id="edge24" class="edge">
<title>Node1&#45;&gt;Node3</title>
<path fill="none" stroke="#191970" d="M715.9337,-228.8366C646.8218,-220.9039 522.3677,-204.8587 480.5262,-188 439.9315,-171.6437 425.0659,-167.5412 399.5262,-132 389.7533,-118.4 384.9849,-99.8564 382.6714,-85.8875"/>
<polygon fill="#191970" stroke="#191970" points="386.1207,-85.2786 381.2935,-75.8474 379.1857,-86.2304 386.1207,-85.2786"/>
</g>
<!-- Node9 -->
<g id="node9" class="node">
<title>Node9</title>
<g id="a_node9"><a xlink:href="Cycle_8hpp.html" target="_top" xlink:title=" ">
<polygon fill="#ffffff" stroke="#000000" points="7.0262,-168.5 7.0262,-187.5 68.0262,-187.5 68.0262,-168.5 7.0262,-168.5"/>
<text text-anchor="middle" x="37.5262" y="-175.5" font-family="Helvetica,sans-Serif" font-size="10.00" fill="#000000">Cycle.hpp</text>
</a>
</g>
</g>
<!-- Node1&#45;&gt;Node9 -->
<g id="edge9" class="edge">
<title>Node1&#45;&gt;Node9</title>
<path fill="none" stroke="#191970" d="M715.6198,-233.0132C604.4394,-230.2301 320.4558,-220.2851 85.5262,-188 83.1425,-187.6724 80.7001,-187.2953 78.2409,-186.8835"/>
<polygon fill="#191970" stroke="#191970" points="78.6117,-183.3933 68.1447,-185.034 77.3503,-190.2787 78.6117,-183.3933"/>
</g>
<!-- Node12 -->
<g id="node12" class="node">
<title>Node12</title>
<g id="a_node12"><a xlink:href="types_8hpp.html" target="_top" xlink:title=" ">
<polygon fill="#ffffff" stroke="#000000" points="81.0262,-112.5 81.0262,-131.5 140.0262,-131.5 140.0262,-112.5 81.0262,-112.5"/>
<text text-anchor="middle" x="110.5262" y="-119.5" font-family="Helvetica,sans-Serif" font-size="10.00" fill="#000000">types.hpp</text>
</a>
</g>
</g>
<!-- Node1&#45;&gt;Node12 -->
<g id="edge12" class="edge">
<title>Node1&#45;&gt;Node12</title>
<path fill="none" stroke="#191970" d="M715.9931,-232.5682C602.1241,-228.7166 316.4488,-216.4404 225.5262,-188 206.7745,-182.1345 161.8974,-154.7455 134.0739,-137.1451"/>
<polygon fill="#191970" stroke="#191970" points="135.6701,-134.0123 125.3543,-131.5968 131.9122,-139.9181 135.6701,-134.0123"/>
</g>
<!-- Node13 -->
<g id="node13" class="node">
<title>Node13</title>
<g id="a_node13"><a xlink:href="constants_8hpp.html" target="_top" xlink:title=" ">
<polygon fill="#ffffff" stroke="#000000" points="94.5262,-168.5 94.5262,-187.5 172.5262,-187.5 172.5262,-168.5 94.5262,-168.5"/>
<text text-anchor="middle" x="133.5262" y="-175.5" font-family="Helvetica,sans-Serif" font-size="10.00" fill="#000000">constants.hpp</text>
</a>
</g>
</g>
<!-- Node1&#45;&gt;Node13 -->
<g id="edge14" class="edge">
<title>Node1&#45;&gt;Node13</title>
<path fill="none" stroke="#191970" d="M715.8288,-231.6832C617.3616,-226.5677 384.56,-212.7538 190.5262,-188 187.9973,-187.6774 185.4097,-187.3205 182.7998,-186.9392"/>
<polygon fill="#191970" stroke="#191970" points="183.1198,-183.447 172.7008,-185.3693 182.0445,-190.3639 183.1198,-183.447"/>
</g>
<!-- Node14 -->
<g id="node14" class="node">
<title>Node14</title>
<g id="a_node14"><a xlink:href="errors_8hpp.html" target="_top" xlink:title=" ">
<polygon fill="#ffffff" stroke="#000000" points="292.5262,-112.5 292.5262,-131.5 352.5262,-131.5 352.5262,-112.5 292.5262,-112.5"/>
<text text-anchor="middle" x="322.5262" y="-119.5" font-family="Helvetica,sans-Serif" font-size="10.00" fill="#000000">errors.hpp</text>
</a>
</g>
</g>
<!-- Node1&#45;&gt;Node14 -->
<g id="edge16" class="edge">
<title>Node1&#45;&gt;Node14</title>
<path fill="none" stroke="#191970" d="M715.7618,-230.7196C616.73,-223.5949 395.7861,-205.9022 366.5262,-188 348.9645,-177.2552 336.9087,-156.5515 329.9172,-141.185"/>
<polygon fill="#191970" stroke="#191970" points="332.9838,-139.4483 325.8806,-131.5873 326.5313,-142.1621 332.9838,-139.4483"/>
</g>
<!-- Node15 -->
<g id="node15" class="node">
<title>Node15</title>
<g id="a_node15"><a xlink:href="clas_8hpp.html" target="_top" xlink:title=" ">
<polygon fill="#ffffff" stroke="#000000" points="235.0262,-168.5 235.0262,-187.5 288.0262,-187.5 288.0262,-168.5 235.0262,-168.5"/>
<text text-anchor="middle" x="261.5262" y="-175.5" font-family="Helvetica,sans-Serif" font-size="10.00" fill="#000000">clas.hpp</text>
</a>
</g>
</g>
<!-- Node1&#45;&gt;Node15 -->
<g id="edge18" class="edge">
<title>Node1&#45;&gt;Node15</title>
<path fill="none" stroke="#191970" d="M715.9748,-230.1955C634.4323,-223.4232 462.7636,-208.0818 318.5262,-188 311.9959,-187.0908 305.0679,-185.9906 298.3753,-184.8571"/>
<polygon fill="#191970" stroke="#191970" points="298.596,-181.3427 288.1431,-183.071 297.3923,-188.2385 298.596,-181.3427"/>
</g>
<!-- Node17 -->
<g id="node17" class="node">
<title>Node17</title>
<g id="a_node17"><a xlink:href="sysctl_8hpp.html" target="_top" xlink:title=" ">
<polygon fill="#ffffff" stroke="#000000" points="674.5262,-168.5 674.5262,-187.5 754.5262,-187.5 754.5262,-168.5 674.5262,-168.5"/>
<text text-anchor="middle" x="714.5262" y="-175.5" font-family="Helvetica,sans-Serif" font-size="10.00" fill="#000000">sys/sysctl.hpp</text>
</a>
</g>
</g>
<!-- Node1&#45;&gt;Node17 -->
<g id="edge25" class="edge">
<title>Node1&#45;&gt;Node17</title>
<path fill="none" stroke="#191970" d="M754.991,-224.2455C748.035,-216.2958 738.0379,-204.8706 729.7211,-195.3656"/>
<polygon fill="#191970" stroke="#191970" points="732.1826,-192.8637 722.9635,-187.6427 726.9146,-197.4732 732.1826,-192.8637"/>
</g>
<!-- Node21 -->
<g id="node21" class="node">
<title>Node21</title>
<g id="a_node21"><a xlink:title=" ">
<polygon fill="#ffffff" stroke="#bfbfbf" points="620.5262,-112.5 620.5262,-131.5 672.5262,-131.5 672.5262,-112.5 620.5262,-112.5"/>
<text text-anchor="middle" x="646.5262" y="-119.5" font-family="Helvetica,sans-Serif" font-size="10.00" fill="#000000">memory</text>
</a>
</g>
</g>
<!-- Node1&#45;&gt;Node21 -->
<g id="edge42" class="edge">
<title>Node1&#45;&gt;Node21</title>
<path fill="none" stroke="#191970" d="M725.2658,-224.4009C704.8733,-217.444 680.8929,-206.019 665.5262,-188 654.5371,-175.1141 649.8932,-156.211 647.9364,-141.9339"/>
<polygon fill="#191970" stroke="#191970" points="651.3859,-141.2648 646.8733,-131.679 644.4232,-141.9867 651.3859,-141.2648"/>
</g>
<!-- Node24 -->
<g id="node24" class="node">
<title>Node24</title>
<g id="a_node24"><a xlink:href="pidfile_8hpp.html" target="_top" xlink:title=" ">
<polygon fill="#ffffff" stroke="#000000" points="772.5262,-168.5 772.5262,-187.5 852.5262,-187.5 852.5262,-168.5 772.5262,-168.5"/>
<text text-anchor="middle" x="812.5262" y="-175.5" font-family="Helvetica,sans-Serif" font-size="10.00" fill="#000000">sys/pidfile.hpp</text>
</a>
</g>
</g>
<!-- Node1&#45;&gt;Node24 -->
<g id="edge33" class="edge">
<title>Node1&#45;&gt;Node24</title>
<path fill="none" stroke="#191970" d="M772.0613,-224.2455C779.0173,-216.2958 789.0145,-204.8706 797.3313,-195.3656"/>
<polygon fill="#191970" stroke="#191970" points="800.1378,-197.4732 804.0888,-187.6427 794.8697,-192.8637 800.1378,-197.4732"/>
</g>
<!-- Node26 -->
<g id="node26" class="node">
<title>Node26</title>
<g id="a_node26"><a xlink:href="signal_8hpp.html" target="_top" xlink:title=" ">
<polygon fill="#ffffff" stroke="#000000" points="870.5262,-168.5 870.5262,-187.5 950.5262,-187.5 950.5262,-168.5 870.5262,-168.5"/>
<text text-anchor="middle" x="910.5262" y="-175.5" font-family="Helvetica,sans-Serif" font-size="10.00" fill="#000000">sys/signal.hpp</text>
</a>
</g>
</g>
<!-- Node1&#45;&gt;Node26 -->
<g id="edge36" class="edge">
<title>Node1&#45;&gt;Node26</title>
<path fill="none" stroke="#191970" d="M788.7964,-224.3733C812.9228,-215.1822 849.4624,-201.2624 876.2139,-191.0713"/>
<polygon fill="#191970" stroke="#191970" points="877.4869,-194.3318 885.5857,-187.5011 874.9949,-187.7904 877.4869,-194.3318"/>
</g>
<!-- Node28 -->
<g id="node28" class="node">
<title>Node28</title>
<g id="a_node28"><a xlink:href="io_8hpp.html" target="_top" xlink:title=" ">
<polygon fill="#ffffff" stroke="#000000" points="1018.5262,-56.5 1018.5262,-75.5 1080.5262,-75.5 1080.5262,-56.5 1018.5262,-56.5"/>
<text text-anchor="middle" x="1049.5262" y="-63.5" font-family="Helvetica,sans-Serif" font-size="10.00" fill="#000000">sys/io.hpp</text>
</a>
</g>
</g>
<!-- Node1&#45;&gt;Node28 -->
<g id="edge39" class="edge">
<title>Node1&#45;&gt;Node28</title>
<path fill="none" stroke="#191970" d="M811.3729,-226.6354C851.7636,-219.5137 910.6552,-206.9837 959.5262,-188 962.4938,-186.8472 1057.9163,-134.7467 1059.5262,-132 1067.8385,-117.8181 1063.8695,-99.0898 1058.6769,-85.2071"/>
<polygon fill="#191970" stroke="#191970" points="1061.7706,-83.5368 1054.6506,-75.691 1055.3239,-86.2645 1061.7706,-83.5368"/>
</g>
<!-- Node29 -->
<g id="node29" class="node">
<title>Node29</title>
<g id="a_node29"><a xlink:title=" ">
<polygon fill="#ffffff" stroke="#bfbfbf" points="1006.5262,-168.5 1006.5262,-187.5 1048.5262,-187.5 1048.5262,-168.5 1006.5262,-168.5"/>
<text text-anchor="middle" x="1027.5262" y="-175.5" font-family="Helvetica,sans-Serif" font-size="10.00" fill="#000000">locale</text>
</a>
</g>
</g>
<!-- Node1&#45;&gt;Node29 -->
<g id="edge41" class="edge">
<title>Node1&#45;&gt;Node29</title>
<path fill="none" stroke="#191970" d="M811.1373,-225.586C857.6271,-217.1001 930.2655,-203.1219 992.5262,-188 993.8043,-187.6896 995.1059,-187.3635 996.4188,-187.0265"/>
<polygon fill="#191970" stroke="#191970" points="997.7586,-190.29 1006.4995,-184.3028 995.9327,-183.5323 997.7586,-190.29"/>
</g>
<!-- Node30 -->
<g id="node30" class="node">
<title>Node30</title>
<g id="a_node30"><a xlink:title=" ">
<polygon fill="#ffffff" stroke="#bfbfbf" points="1066.5262,-168.5 1066.5262,-187.5 1122.5262,-187.5 1122.5262,-168.5 1066.5262,-168.5"/>
<text text-anchor="middle" x="1094.5262" y="-175.5" font-family="Helvetica,sans-Serif" font-size="10.00" fill="#000000">algorithm</text>
</a>
</g>
</g>
<!-- Node1&#45;&gt;Node30 -->
<g id="edge43" class="edge">
<title>Node1&#45;&gt;Node30</title>
<path fill="none" stroke="#191970" d="M811.1723,-228.1668C867.5114,-220.9103 964.2644,-207.3248 1056.2835,-188.0874"/>
<polygon fill="#191970" stroke="#191970" points="1057.2632,-191.4577 1066.3213,-185.9621 1055.8131,-184.6095 1057.2632,-191.4577"/>
</g>
<!-- Node31 -->
<g id="node31" class="node">
<title>Node31</title>
<g id="a_node31"><a xlink:title=" ">
<polygon fill="#ffffff" stroke="#bfbfbf" points="1140.5262,-168.5 1140.5262,-187.5 1180.5262,-187.5 1180.5262,-168.5 1140.5262,-168.5"/>
<text text-anchor="middle" x="1160.5262" y="-175.5" font-family="Helvetica,sans-Serif" font-size="10.00" fill="#000000">limits</text>
</a>
</g>
</g>
<!-- Node1&#45;&gt;Node31 -->
<g id="edge44" class="edge">
<title>Node1&#45;&gt;Node31</title>
<path fill="none" stroke="#191970" d="M811.132,-231.2174C879.8754,-226.5087 1010.906,-214.9474 1130.3564,-187.8599"/>
<polygon fill="#191970" stroke="#191970" points="1131.4464,-191.2003 1140.4014,-185.5384 1129.8701,-184.3801 1131.4464,-191.2003"/>
</g>
<!-- Node32 -->
<g id="node32" class="node">
<title>Node32</title>
<g id="a_node32"><a xlink:title=" ">
<polygon fill="#ffffff" stroke="#bfbfbf" points="1199.0262,-168.5 1199.0262,-187.5 1244.0262,-187.5 1244.0262,-168.5 1199.0262,-168.5"/>
<text text-anchor="middle" x="1221.5262" y="-175.5" font-family="Helvetica,sans-Serif" font-size="10.00" fill="#000000">cstdlib</text>
</a>
</g>
</g>
<!-- Node1&#45;&gt;Node32 -->
<g id="edge45" class="edge">
<title>Node1&#45;&gt;Node32</title>
<path fill="none" stroke="#191970" d="M811.2772,-231.8875C888.7065,-227.8011 1046.4496,-216.7318 1188.7286,-187.7726"/>
<polygon fill="#191970" stroke="#191970" points="1189.8624,-191.1121 1198.9446,-185.6565 1188.4425,-184.2576 1189.8624,-191.1121"/>
</g>
<!-- Node33 -->
<g id="node33" class="node">
<title>Node33</title>
<g id="a_node33"><a xlink:title=" ">
<polygon fill="#ffffff" stroke="#bfbfbf" points="1262.5262,-168.5 1262.5262,-187.5 1308.5262,-187.5 1308.5262,-168.5 1262.5262,-168.5"/>
<text text-anchor="middle" x="1285.5262" y="-175.5" font-family="Helvetica,sans-Serif" font-size="10.00" fill="#000000">cstdint</text>
</a>
</g>
</g>
<!-- Node1&#45;&gt;Node33 -->
<g id="edge46" class="edge">
<title>Node1&#45;&gt;Node33</title>
<path fill="none" stroke="#191970" d="M811.3082,-232.8256C897.7917,-229.9845 1085.9873,-220.521 1252.3397,-187.8702"/>
<polygon fill="#191970" stroke="#191970" points="1253.1327,-191.281 1262.2541,-185.8912 1251.7624,-184.4164 1253.1327,-191.281"/>
</g>
<!-- Node34 -->
<g id="node34" class="node">
<title>Node34</title>
<g id="a_node34"><a xlink:title=" ">
<polygon fill="#ffffff" stroke="#bfbfbf" points="1327.0262,-168.5 1327.0262,-187.5 1408.0262,-187.5 1408.0262,-168.5 1327.0262,-168.5"/>
<text text-anchor="middle" x="1367.5262" y="-175.5" font-family="Helvetica,sans-Serif" font-size="10.00" fill="#000000">sys/resource.h</text>
</a>
</g>
</g>
<!-- Node1&#45;&gt;Node34 -->
<g id="edge47" class="edge">
<title>Node1&#45;&gt;Node34</title>
<path fill="none" stroke="#191970" d="M811.1586,-231.8864C905.6353,-227.2956 1123.5578,-214.7234 1316.8733,-187.9332"/>
<polygon fill="#191970" stroke="#191970" points="1317.5165,-191.3774 1326.9338,-186.5229 1316.5447,-184.4452 1317.5165,-191.3774"/>
</g>
<!-- Node2&#45;&gt;Node3 -->
<g id="edge2" class="edge">
<title>Node2&#45;&gt;Node3</title>
<path fill="none" stroke="#191970" d="M517.579,-168.0513C507.5308,-154.1895 487.8004,-128.8717 466.5262,-112 450.2238,-99.0712 429.7567,-87.9555 412.8794,-79.8911"/>
<polygon fill="#191970" stroke="#191970" points="413.9605,-76.5346 403.4158,-75.5049 411.0169,-82.8856 413.9605,-76.5346"/>
</g>
<!-- Node4 -->
<g id="node4" class="node">
<title>Node4</title>
<g id="a_node4"><a xlink:title=" ">
<polygon fill="#ffffff" stroke="#bfbfbf" points="405.5262,-.5 405.5262,-19.5 467.5262,-19.5 467.5262,-.5 405.5262,-.5"/>
<text text-anchor="middle" x="436.5262" y="-7.5" font-family="Helvetica,sans-Serif" font-size="10.00" fill="#000000">type_traits</text>
</a>
</g>
</g>
<!-- Node2&#45;&gt;Node4 -->
<g id="edge7" class="edge">
<title>Node2&#45;&gt;Node4</title>
<path fill="none" stroke="#191970" d="M519.7006,-168.1119C513.354,-155.1627 501.8016,-131.7812 491.5262,-112 476.224,-82.5415 457.7991,-48.684 446.6338,-28.3357"/>
<polygon fill="#191970" stroke="#191970" points="449.6663,-26.5867 441.7813,-19.5102 443.5324,-29.9593 449.6663,-26.5867"/>
</g>
<!-- Node7 -->
<g id="node7" class="node">
<title>Node7</title>
<g id="a_node7"><a xlink:title=" ">
<polygon fill="#ffffff" stroke="#bfbfbf" points="409.0262,-112.5 409.0262,-131.5 458.0262,-131.5 458.0262,-112.5 409.0262,-112.5"/>
<text text-anchor="middle" x="433.5262" y="-119.5" font-family="Helvetica,sans-Serif" font-size="10.00" fill="#000000">cstddef</text>
</a>
</g>
</g>
<!-- Node2&#45;&gt;Node7 -->
<g id="edge6" class="edge">
<title>Node2&#45;&gt;Node7</title>
<path fill="none" stroke="#191970" d="M508.6752,-168.2455C494.713,-159.6534 474.1534,-147.0014 458.0666,-137.1018"/>
<polygon fill="#191970" stroke="#191970" points="459.5465,-133.9029 449.1955,-131.6427 455.8778,-139.8645 459.5465,-133.9029"/>
</g>
<!-- Node8 -->
<g id="node8" class="node">
<title>Node8</title>
<g id="a_node8"><a xlink:title=" ">
<polygon fill="#ffffff" stroke="#bfbfbf" points="553.0262,-112.5 553.0262,-131.5 602.0262,-131.5 602.0262,-112.5 553.0262,-112.5"/>
<text text-anchor="middle" x="577.5262" y="-119.5" font-family="Helvetica,sans-Serif" font-size="10.00" fill="#000000">cassert</text>
</a>
</g>
</g>
<!-- Node2&#45;&gt;Node8 -->
<g id="edge8" class="edge">
<title>Node2&#45;&gt;Node8</title>
<path fill="none" stroke="#191970" d="M533.7581,-168.2455C541.3579,-160.2155 552.3139,-148.6394 561.3629,-139.0781"/>
<polygon fill="#191970" stroke="#191970" points="564.0682,-141.3115 568.4001,-131.6427 558.9842,-136.4998 564.0682,-141.3115"/>
</g>
<!-- Node3&#45;&gt;Node4 -->
<g id="edge3" class="edge">
<title>Node3&#45;&gt;Node4</title>
<path fill="none" stroke="#191970" d="M390.2806,-56.2455C398.391,-48.1352 410.1187,-36.4075 419.7343,-26.7919"/>
<polygon fill="#191970" stroke="#191970" points="422.2873,-29.1887 426.8835,-19.6427 417.3375,-24.2389 422.2873,-29.1887"/>
</g>
<!-- Node5 -->
<g id="node5" class="node">
<title>Node5</title>
<g id="a_node5"><a xlink:title=" ">
<polygon fill="#ffffff" stroke="#bfbfbf" points="304.0262,-.5 304.0262,-19.5 345.0262,-19.5 345.0262,-.5 304.0262,-.5"/>
<text text-anchor="middle" x="324.5262" y="-7.5" font-family="Helvetica,sans-Serif" font-size="10.00" fill="#000000">string</text>
</a>
</g>
</g>
<!-- Node3&#45;&gt;Node5 -->
<g id="edge4" class="edge">
<title>Node3&#45;&gt;Node5</title>
<path fill="none" stroke="#191970" d="M370.7717,-56.2455C362.6614,-48.1352 350.9337,-36.4075 341.3181,-26.7919"/>
<polygon fill="#191970" stroke="#191970" points="343.7148,-24.2389 334.1689,-19.6427 338.7651,-29.1887 343.7148,-24.2389"/>
</g>
<!-- Node6 -->
<g id="node6" class="node">
<title>Node6</title>
<g id="a_node6"><a xlink:title=" ">
<polygon fill="#ffffff" stroke="#bfbfbf" points="771.0262,-.5 771.0262,-19.5 814.0262,-19.5 814.0262,-.5 771.0262,-.5"/>
<text text-anchor="middle" x="792.5262" y="-7.5" font-family="Helvetica,sans-Serif" font-size="10.00" fill="#000000">cstdio</text>
</a>
</g>
</g>
<!-- Node3&#45;&gt;Node6 -->
<g id="edge5" class="edge">
<title>Node3&#45;&gt;Node6</title>
<path fill="none" stroke="#191970" d="M410.1562,-61.9726C485.4018,-51.7451 683.3706,-24.8367 760.8205,-14.3095"/>
<polygon fill="#191970" stroke="#191970" points="761.4864,-17.7513 770.9238,-12.9362 760.5435,-10.8151 761.4864,-17.7513"/>
</g>
<!-- Node10 -->
<g id="node10" class="node">
<title>Node10</title>
<g id="a_node10"><a xlink:title=" ">
<polygon fill="#ffffff" stroke="#bfbfbf" points="24.5262,-56.5 24.5262,-75.5 70.5262,-75.5 70.5262,-56.5 24.5262,-56.5"/>
<text text-anchor="middle" x="47.5262" y="-63.5" font-family="Helvetica,sans-Serif" font-size="10.00" fill="#000000">chrono</text>
</a>
</g>
</g>
<!-- Node9&#45;&gt;Node10 -->
<g id="edge10" class="edge">
<title>Node9&#45;&gt;Node10</title>
<path fill="none" stroke="#191970" d="M26.4307,-168.4553C13.2362,-155.8773 -5.9953,-132.8968 2.5262,-112 7.2417,-100.4363 16.4189,-90.2008 25.2624,-82.3383"/>
<polygon fill="#191970" stroke="#191970" points="27.6758,-84.8842 33.1525,-75.8147 23.2153,-79.4894 27.6758,-84.8842"/>
</g>
<!-- Node11 -->
<g id="node11" class="node">
<title>Node11</title>
<g id="a_node11"><a xlink:title=" ">
<polygon fill="#ffffff" stroke="#bfbfbf" points="12.0262,-112.5 12.0262,-131.5 63.0262,-131.5 63.0262,-112.5 12.0262,-112.5"/>
<text text-anchor="middle" x="37.5262" y="-119.5" font-family="Helvetica,sans-Serif" font-size="10.00" fill="#000000">unistd.h</text>
</a>
</g>
</g>
<!-- Node9&#45;&gt;Node11 -->
<g id="edge11" class="edge">
<title>Node9&#45;&gt;Node11</title>
<path fill="none" stroke="#191970" d="M37.5262,-168.2455C37.5262,-160.9382 37.5262,-150.6944 37.5262,-141.7046"/>
<polygon fill="#191970" stroke="#191970" points="41.0263,-141.6426 37.5262,-131.6427 34.0263,-141.6427 41.0263,-141.6426"/>
</g>
<!-- Node12&#45;&gt;Node10 -->
<g id="edge13" class="edge">
<title>Node12&#45;&gt;Node10</title>
<path fill="none" stroke="#191970" d="M99.5524,-112.2455C90.338,-104.0549 76.973,-92.1749 66.0965,-82.5069"/>
<polygon fill="#191970" stroke="#191970" points="68.1736,-79.6704 58.3742,-75.6427 63.523,-84.9023 68.1736,-79.6704"/>
</g>
<!-- Node13&#45;&gt;Node12 -->
<g id="edge15" class="edge">
<title>Node13&#45;&gt;Node12</title>
<path fill="none" stroke="#191970" d="M129.5199,-168.2455C126.4527,-160.7776 122.1259,-150.2427 118.3765,-141.1137"/>
<polygon fill="#191970" stroke="#191970" points="121.5234,-139.5631 114.4866,-131.6427 115.0483,-142.2226 121.5234,-139.5631"/>
</g>
<!-- Node14&#45;&gt;Node3 -->
<g id="edge17" class="edge">
<title>Node14&#45;&gt;Node3</title>
<path fill="none" stroke="#191970" d="M332.629,-112.2455C341.029,-104.1352 353.1756,-92.4075 363.1346,-82.7919"/>
<polygon fill="#191970" stroke="#191970" points="365.7762,-85.1066 370.5391,-75.6427 360.914,-80.0707 365.7762,-85.1066"/>
</g>
<!-- Node15&#45;&gt;Node3 -->
<g id="edge21" class="edge">
<title>Node15&#45;&gt;Node3</title>
<path fill="none" stroke="#191970" d="M262.3805,-168.3062C264.0909,-154.2926 269.1114,-128.2748 283.5262,-112 298.6435,-94.932 321.4628,-83.6722 341.1712,-76.5669"/>
<polygon fill="#191970" stroke="#191970" points="342.4799,-79.8195 350.8418,-73.3135 340.2477,-73.1849 342.4799,-79.8195"/>
</g>
<!-- Node15&#45;&gt;Node5 -->
<g id="edge22" class="edge">
<title>Node15&#45;&gt;Node5</title>
<path fill="none" stroke="#191970" d="M261.3719,-168.3615C261.425,-155.2895 262.458,-131.3506 268.5262,-112 278.4411,-80.3827 298.6397,-47.4081 311.8739,-27.7949"/>
<polygon fill="#191970" stroke="#191970" points="314.771,-29.7589 317.5691,-19.5402 309.0093,-25.7836 314.771,-29.7589"/>
</g>
<!-- Node15&#45;&gt;Node12 -->
<g id="edge19" class="edge">
<title>Node15&#45;&gt;Node12</title>
<path fill="none" stroke="#191970" d="M235.5684,-168.3733C210.7854,-159.1822 173.2516,-145.2624 145.7721,-135.0713"/>
<polygon fill="#191970" stroke="#191970" points="146.7383,-131.6968 136.1453,-131.5011 144.3042,-138.26 146.7383,-131.6968"/>
</g>
<!-- Node15&#45;&gt;Node14 -->
<g id="edge20" class="edge">
<title>Node15&#45;&gt;Node14</title>
<path fill="none" stroke="#191970" d="M272.1516,-168.2455C281.0735,-160.0549 294.0142,-148.1749 304.5454,-138.5069"/>
<polygon fill="#191970" stroke="#191970" points="307.023,-140.9837 312.0226,-131.6427 302.289,-135.8271 307.023,-140.9837"/>
</g>
<!-- Node16 -->
<g id="node16" class="node">
<title>Node16</title>
<g id="a_node16"><a xlink:title=" ">
<polygon fill="#ffffff" stroke="#bfbfbf" points="158.5262,-112.5 158.5262,-131.5 198.5262,-131.5 198.5262,-112.5 158.5262,-112.5"/>
<text text-anchor="middle" x="178.5262" y="-119.5" font-family="Helvetica,sans-Serif" font-size="10.00" fill="#000000">utility</text>
</a>
</g>
</g>
<!-- Node15&#45;&gt;Node16 -->
<g id="edge23" class="edge">
<title>Node15&#45;&gt;Node16</title>
<path fill="none" stroke="#191970" d="M247.0687,-168.2455C234.453,-159.7337 215.9317,-147.2375 201.3217,-137.3801"/>
<polygon fill="#191970" stroke="#191970" points="203.0652,-134.3343 192.818,-131.6427 199.1501,-140.1371 203.0652,-134.3343"/>
</g>
<!-- Node17&#45;&gt;Node8 -->
<g id="edge30" class="edge">
<title>Node17&#45;&gt;Node8</title>
<path fill="none" stroke="#191970" d="M690.975,-168.3733C668.6871,-159.2629 635.0325,-145.5062 610.1625,-135.3404"/>
<polygon fill="#191970" stroke="#191970" points="611.3509,-132.0451 600.77,-131.5011 608.7022,-138.5247 611.3509,-132.0451"/>
</g>
<!-- Node18 -->
<g id="node18" class="node">
<title>Node18</title>
<g id="a_node18"><a xlink:href="error_8hpp.html" target="_top" xlink:title=" ">
<polygon fill="#ffffff" stroke="#000000" points="865.0262,-112.5 865.0262,-131.5 920.0262,-131.5 920.0262,-112.5 865.0262,-112.5"/>
<text text-anchor="middle" x="892.5262" y="-119.5" font-family="Helvetica,sans-Serif" font-size="10.00" fill="#000000">error.hpp</text>
</a>
</g>
</g>
<!-- Node17&#45;&gt;Node18 -->
<g id="edge26" class="edge">
<title>Node17&#45;&gt;Node18</title>
<path fill="none" stroke="#191970" d="M745.1255,-168.3733C775.663,-158.7659 822.624,-143.9917 855.3043,-133.7103"/>
<polygon fill="#191970" stroke="#191970" points="856.4653,-137.0142 864.9539,-130.6744 854.3645,-130.3369 856.4653,-137.0142"/>
</g>
<!-- Node17&#45;&gt;Node21 -->
<g id="edge29" class="edge">
<title>Node17&#45;&gt;Node21</title>
<path fill="none" stroke="#191970" d="M702.6815,-168.2455C692.6382,-159.9746 678.0267,-147.9416 666.2258,-138.2232"/>
<polygon fill="#191970" stroke="#191970" points="668.1795,-135.298 658.2352,-131.6427 663.7295,-140.7015 668.1795,-135.298"/>
</g>
<!-- Node22 -->
<g id="node22" class="node">
<title>Node22</title>
<g id="a_node22"><a xlink:title=" ">
<polygon fill="#ffffff" stroke="#bfbfbf" points="690.5262,-112.5 690.5262,-131.5 758.5262,-131.5 758.5262,-112.5 690.5262,-112.5"/>
<text text-anchor="middle" x="724.5262" y="-119.5" font-family="Helvetica,sans-Serif" font-size="10.00" fill="#000000">sys/types.h</text>
</a>
</g>
</g>
<!-- Node17&#45;&gt;Node22 -->
<g id="edge31" class="edge">
<title>Node17&#45;&gt;Node22</title>
<path fill="none" stroke="#191970" d="M716.2681,-168.2455C717.5729,-160.9382 719.4022,-150.6944 721.0075,-141.7046"/>
<polygon fill="#191970" stroke="#191970" points="724.4918,-142.1022 722.8043,-131.6427 717.6008,-140.8717 724.4918,-142.1022"/>
</g>
<!-- Node23 -->
<g id="node23" class="node">
<title>Node23</title>
<g id="a_node23"><a xlink:title=" ">
<polygon fill="#ffffff" stroke="#bfbfbf" points="776.5262,-112.5 776.5262,-131.5 846.5262,-131.5 846.5262,-112.5 776.5262,-112.5"/>
<text text-anchor="middle" x="811.5262" y="-119.5" font-family="Helvetica,sans-Serif" font-size="10.00" fill="#000000">sys/sysctl.h</text>
</a>
</g>
</g>
<!-- Node17&#45;&gt;Node23 -->
<g id="edge32" class="edge">
<title>Node17&#45;&gt;Node23</title>
<path fill="none" stroke="#191970" d="M731.4223,-168.2455C746.4442,-159.5731 768.6305,-146.7645 785.8472,-136.825"/>
<polygon fill="#191970" stroke="#191970" points="787.9133,-139.6737 794.8237,-131.6427 784.4134,-133.6114 787.9133,-139.6737"/>
</g>
<!-- Node19 -->
<g id="node19" class="node">
<title>Node19</title>
<g id="a_node19"><a xlink:title=" ">
<polygon fill="#ffffff" stroke="#bfbfbf" points="835.5262,-56.5 835.5262,-75.5 879.5262,-75.5 879.5262,-56.5 835.5262,-56.5"/>
<text text-anchor="middle" x="857.5262" y="-63.5" font-family="Helvetica,sans-Serif" font-size="10.00" fill="#000000">cerrno</text>
</a>
</g>
</g>
<!-- Node18&#45;&gt;Node19 -->
<g id="edge27" class="edge">
<title>Node18&#45;&gt;Node19</title>
<path fill="none" stroke="#191970" d="M886.4297,-112.2455C881.6116,-104.5367 874.7511,-93.5598 868.9229,-84.2348"/>
<polygon fill="#191970" stroke="#191970" points="871.8209,-82.2677 863.5529,-75.6427 865.8849,-85.9777 871.8209,-82.2677"/>
</g>
<!-- Node20 -->
<g id="node20" class="node">
<title>Node20</title>
<g id="a_node20"><a xlink:title=" ">
<polygon fill="#ffffff" stroke="#bfbfbf" points="897.5262,-56.5 897.5262,-75.5 943.5262,-75.5 943.5262,-56.5 897.5262,-56.5"/>
<text text-anchor="middle" x="920.5262" y="-63.5" font-family="Helvetica,sans-Serif" font-size="10.00" fill="#000000">cstring</text>
</a>
</g>
</g>
<!-- Node18&#45;&gt;Node20 -->
<g id="edge28" class="edge">
<title>Node18&#45;&gt;Node20</title>
<path fill="none" stroke="#191970" d="M897.4034,-112.2455C901.1775,-104.6973 906.5183,-94.0158 911.1163,-84.8197"/>
<polygon fill="#191970" stroke="#191970" points="914.3632,-86.1522 915.7049,-75.6427 908.1022,-83.0217 914.3632,-86.1522"/>
</g>
<!-- Node24&#45;&gt;Node18 -->
<g id="edge34" class="edge">
<title>Node24&#45;&gt;Node18</title>
<path fill="none" stroke="#191970" d="M826.4611,-168.2455C838.6209,-159.7337 856.4726,-147.2375 870.5546,-137.3801"/>
<polygon fill="#191970" stroke="#191970" points="872.5657,-140.2447 878.7509,-131.6427 868.5515,-134.51 872.5657,-140.2447"/>
</g>
<!-- Node25 -->
<g id="node25" class="node">
<title>Node25</title>
<g id="a_node25"><a xlink:title=" ">
<polygon fill="#ffffff" stroke="#bfbfbf" points="938.0262,-112.5 938.0262,-131.5 985.0262,-131.5 985.0262,-112.5 938.0262,-112.5"/>
<text text-anchor="middle" x="961.5262" y="-119.5" font-family="Helvetica,sans-Serif" font-size="10.00" fill="#000000">libutil.h</text>
</a>
</g>
</g>
<!-- Node24&#45;&gt;Node25 -->
<g id="edge35" class="edge">
<title>Node24&#45;&gt;Node25</title>
<path fill="none" stroke="#191970" d="M838.1402,-168.3733C863.0395,-159.0151 900.9826,-144.7547 928.2161,-134.5192"/>
<polygon fill="#191970" stroke="#191970" points="929.5917,-137.7413 937.721,-130.9469 927.1289,-131.1888 929.5917,-137.7413"/>
</g>
<!-- Node26&#45;&gt;Node18 -->
<g id="edge37" class="edge">
<title>Node26&#45;&gt;Node18</title>
<path fill="none" stroke="#191970" d="M907.3908,-168.2455C905.0162,-160.8579 901.6769,-150.4689 898.7647,-141.4087"/>
<polygon fill="#191970" stroke="#191970" points="902.0179,-140.0919 895.6256,-131.6427 895.3537,-142.234 902.0179,-140.0919"/>
</g>
<!-- Node27 -->
<g id="node27" class="node">
<title>Node27</title>
<g id="a_node27"><a xlink:title=" ">
<polygon fill="#ffffff" stroke="#bfbfbf" points="1003.0262,-112.5 1003.0262,-131.5 1050.0262,-131.5 1050.0262,-112.5 1003.0262,-112.5"/>
<text text-anchor="middle" x="1026.5262" y="-119.5" font-family="Helvetica,sans-Serif" font-size="10.00" fill="#000000">csignal</text>
</a>
</g>
</g>
<!-- Node26&#45;&gt;Node27 -->
<g id="edge38" class="edge">
<title>Node26&#45;&gt;Node27</title>
<path fill="none" stroke="#191970" d="M930.4673,-168.3733C949.0048,-159.4241 976.829,-145.9917 997.7675,-135.8835"/>
<polygon fill="#191970" stroke="#191970" points="999.3614,-139.0006 1006.8453,-131.5011 996.3181,-132.6967 999.3614,-139.0006"/>
</g>
<!-- Node28&#45;&gt;Node6 -->
<g id="edge40" class="edge">
<title>Node28&#45;&gt;Node6</title>
<path fill="none" stroke="#191970" d="M1018.526,-59.2451C969.2937,-48.5174 873.7402,-27.6964 824.1314,-16.8867"/>
<polygon fill="#191970" stroke="#191970" points="824.7919,-13.4486 814.276,-14.7393 823.3015,-20.2881 824.7919,-13.4486"/>
</g>
</g>
</svg>
