<?xml version="1.0" encoding="UTF-8" standalone="no"?>
<!DOCTYPE svg PUBLIC "-//W3C//DTD SVG 1.1//EN"
 "http://www.w3.org/Graphics/SVG/1.1/DTD/svg11.dtd">
<!-- Generated by graphviz version 2.40.1 (20161225.0304)
 -->
<!-- Title: powerd++.cpp Pages: 1 -->
<svg width="1514pt" height="252pt"
 viewBox="0.00 0.00 1513.50 252.00" xmlns="http://www.w3.org/2000/svg" xmlns:xlink="http://www.w3.org/1999/xlink">
<g id="graph0" class="graph" transform="scale(1 1) rotate(0) translate(4 248)">
<title>powerd++.cpp</title>
<polygon fill="#ffffff" stroke="transparent" points="-4,4 -4,-248 1509.5,-248 1509.5,4 -4,4"/>
<!-- Node0 -->
<g id="node1" class="node">
<title>Node0</title>
<polygon fill="#bfbfbf" stroke="#000000" points="847.5,-224.5 847.5,-243.5 926.5,-243.5 926.5,-224.5 847.5,-224.5"/>
<text text-anchor="middle" x="887" y="-231.5" font-family="Helvetica,sans-Serif" font-size="10.00" fill="#000000">powerd++.cpp</text>
</g>
<!-- Node1 -->
<g id="node2" class="node">
<title>Node1</title>
<g id="a_node2"><a xlink:href="Options_8hpp.html" target="_top" xlink:title="This file provides nih::Options&lt;&gt;, a substitute for getopt(3). ">
<polygon fill="#ffffff" stroke="#000000" points="127.5,-168.5 127.5,-187.5 196.5,-187.5 196.5,-168.5 127.5,-168.5"/>
<text text-anchor="middle" x="162" y="-175.5" font-family="Helvetica,sans-Serif" font-size="10.00" fill="#000000">Options.hpp</text>
</a>
</g>
</g>
<!-- Node0&#45;&gt;Node1 -->
<g id="edge1" class="edge">
<title>Node0&#45;&gt;Node1</title>
<path fill="none" stroke="#191970" d="M847.1766,-231.9541C745.7412,-226.5725 469.4343,-210.845 240,-188 229.1901,-186.9237 217.5645,-185.5503 206.6747,-184.1686"/>
<polygon fill="#191970" stroke="#191970" points="206.877,-180.6656 196.51,-182.8507 205.9769,-187.6075 206.877,-180.6656"/>
</g>
<!-- Node7 -->
<g id="node8" class="node">
<title>Node7</title>
<g id="a_node8"><a xlink:href="Cycle_8hpp.html" target="_top" xlink:title="Implements timing::Cycle, a cyclic sleep functor. ">
<polygon fill="#ffffff" stroke="#000000" points="620.5,-168.5 620.5,-187.5 681.5,-187.5 681.5,-168.5 620.5,-168.5"/>
<text text-anchor="middle" x="651" y="-175.5" font-family="Helvetica,sans-Serif" font-size="10.00" fill="#000000">Cycle.hpp</text>
</a>
</g>
</g>
<!-- Node0&#45;&gt;Node7 -->
<g id="edge7" class="edge">
<title>Node0&#45;&gt;Node7</title>
<path fill="none" stroke="#191970" d="M847.1686,-224.8295C809.6285,-216.147 751.542,-202.6108 691.5903,-188.1179"/>
<polygon fill="#191970" stroke="#191970" points="692.1066,-184.6418 681.5637,-185.6892 690.4586,-191.4451 692.1066,-184.6418"/>
</g>
<!-- Node10 -->
<g id="node11" class="node">
<title>Node10</title>
<g id="a_node11"><a xlink:href="types_8hpp.html" target="_top" xlink:title="A collection of type aliases. ">
<polygon fill="#ffffff" stroke="#000000" points="494.5,-112.5 494.5,-131.5 553.5,-131.5 553.5,-112.5 494.5,-112.5"/>
<text text-anchor="middle" x="524" y="-119.5" font-family="Helvetica,sans-Serif" font-size="10.00" fill="#000000">types.hpp</text>
</a>
</g>
</g>
<!-- Node0&#45;&gt;Node10 -->
<g id="edge10" class="edge">
<title>Node0&#45;&gt;Node10</title>
<path fill="none" stroke="#191970" d="M847.2748,-229.7549C781.4382,-222.3257 652.82,-206.0309 611,-188 583.8699,-176.3027 557.5314,-154.3897 541.0739,-139.0328"/>
<polygon fill="#191970" stroke="#191970" points="543.0564,-136.0846 533.4166,-131.6886 538.211,-141.1366 543.0564,-136.0846"/>
</g>
<!-- Node11 -->
<g id="node12" class="node">
<title>Node11</title>
<g id="a_node12"><a xlink:href="constants_8hpp.html" target="_top" xlink:title="Defines a collection of constants. ">
<polygon fill="#ffffff" stroke="#000000" points="485,-168.5 485,-187.5 563,-187.5 563,-168.5 485,-168.5"/>
<text text-anchor="middle" x="524" y="-175.5" font-family="Helvetica,sans-Serif" font-size="10.00" fill="#000000">constants.hpp</text>
</a>
</g>
</g>
<!-- Node0&#45;&gt;Node11 -->
<g id="edge12" class="edge">
<title>Node0&#45;&gt;Node11</title>
<path fill="none" stroke="#191970" d="M847.4198,-228.564C788.5707,-220.3783 674.561,-204.1231 578,-188 576.5012,-187.7497 574.9797,-187.4919 573.4442,-187.2283"/>
<polygon fill="#191970" stroke="#191970" points="573.6529,-183.7114 563.1979,-185.4269 572.4407,-190.6057 573.6529,-183.7114"/>
</g>
<!-- Node12 -->
<g id="node13" class="node">
<title>Node12</title>
<g id="a_node13"><a xlink:href="errors_8hpp.html" target="_top" xlink:title="Common error handling code. ">
<polygon fill="#ffffff" stroke="#000000" points="282,-112.5 282,-131.5 342,-131.5 342,-112.5 282,-112.5"/>
<text text-anchor="middle" x="312" y="-119.5" font-family="Helvetica,sans-Serif" font-size="10.00" fill="#000000">errors.hpp</text>
</a>
</g>
</g>
<!-- Node0&#45;&gt;Node12 -->
<g id="edge14" class="edge">
<title>Node0&#45;&gt;Node12</title>
<path fill="none" stroke="#191970" d="M847.3119,-233.0849C745.9251,-230.3012 479.6524,-220.0634 398,-188 370.5509,-177.2212 344.4857,-154.9122 328.3932,-139.2252"/>
<polygon fill="#191970" stroke="#191970" points="330.4653,-136.3452 320.9324,-131.7218 325.5014,-141.2808 330.4653,-136.3452"/>
</g>
<!-- Node13 -->
<g id="node14" class="node">
<title>Node13</title>
<g id="a_node14"><a xlink:href="utility_8hpp.html" target="_top" xlink:title="Implements generally useful functions. ">
<polygon fill="#ffffff" stroke="#000000" points="282.5,-56.5 282.5,-75.5 341.5,-75.5 341.5,-56.5 282.5,-56.5"/>
<text text-anchor="middle" x="312" y="-63.5" font-family="Helvetica,sans-Serif" font-size="10.00" fill="#000000">utility.hpp</text>
</a>
</g>
</g>
<!-- Node0&#45;&gt;Node13 -->
<g id="edge25" class="edge">
<title>Node0&#45;&gt;Node13</title>
<path fill="none" stroke="#191970" d="M847.2133,-232.9616C740.7015,-229.7956 451.0665,-218.5464 361,-188 317.0975,-173.1103 295.3083,-172.6384 273,-132 263.5433,-114.7729 277.9699,-95.4617 291.875,-82.2015"/>
<polygon fill="#191970" stroke="#191970" points="294.2503,-84.7729 299.3914,-75.509 289.5953,-79.5449 294.2503,-84.7729"/>
</g>
<!-- Node16 -->
<g id="node17" class="node">
<title>Node16</title>
<g id="a_node17"><a xlink:href="clas_8hpp.html" target="_top" xlink:title="Implements functions to process command line arguments. ">
<polygon fill="#ffffff" stroke="#000000" points="407.5,-168.5 407.5,-187.5 460.5,-187.5 460.5,-168.5 407.5,-168.5"/>
<text text-anchor="middle" x="434" y="-175.5" font-family="Helvetica,sans-Serif" font-size="10.00" fill="#000000">clas.hpp</text>
</a>
</g>
</g>
<!-- Node0&#45;&gt;Node16 -->
<g id="edge19" class="edge">
<title>Node0&#45;&gt;Node16</title>
<path fill="none" stroke="#191970" d="M847.3837,-231.1864C773.8158,-225.6032 611.2766,-211.5835 476,-188 474.274,-187.6991 472.513,-187.3698 470.7378,-187.0197"/>
<polygon fill="#191970" stroke="#191970" points="471.0713,-183.5119 460.5603,-184.8418 469.6065,-190.3569 471.0713,-183.5119"/>
</g>
<!-- Node18 -->
<g id="node19" class="node">
<title>Node18</title>
<g id="a_node19"><a xlink:href="sysctl_8hpp.html" target="_top" xlink:title="Implements safer c++ wrappers for the sysctl() interface. ">
<polygon fill="#ffffff" stroke="#000000" points="896,-168.5 896,-187.5 976,-187.5 976,-168.5 896,-168.5"/>
<text text-anchor="middle" x="936" y="-175.5" font-family="Helvetica,sans-Serif" font-size="10.00" fill="#000000">sys/sysctl.hpp</text>
</a>
</g>
</g>
<!-- Node0&#45;&gt;Node18 -->
<g id="edge26" class="edge">
<title>Node0&#45;&gt;Node18</title>
<path fill="none" stroke="#191970" d="M895.5351,-224.2455C902.4912,-216.2958 912.4883,-204.8706 920.8051,-195.3656"/>
<polygon fill="#191970" stroke="#191970" points="923.6116,-197.4732 927.5627,-187.6427 918.3436,-192.8637 923.6116,-197.4732"/>
</g>
<!-- Node22 -->
<g id="node23" class="node">
<title>Node22</title>
<polygon fill="#ffffff" stroke="#bfbfbf" points="1124,-112.5 1124,-131.5 1176,-131.5 1176,-112.5 1124,-112.5"/>
<text text-anchor="middle" x="1150" y="-119.5" font-family="Helvetica,sans-Serif" font-size="10.00" fill="#000000">memory</text>
</g>
<!-- Node0&#45;&gt;Node22 -->
<g id="edge42" class="edge">
<title>Node0&#45;&gt;Node22</title>
<path fill="none" stroke="#191970" d="M908.1617,-224.4051C928.1006,-215.285 958.7494,-201.0604 985,-188 1002.0872,-179.4986 1005.5424,-175.7123 1023,-168 1053.1093,-154.6985 1088.3819,-142.1541 1114.1034,-133.5355"/>
<polygon fill="#191970" stroke="#191970" points="1115.4167,-136.7875 1123.8072,-130.3183 1113.2138,-130.1432 1115.4167,-136.7875"/>
</g>
<!-- Node25 -->
<g id="node26" class="node">
<title>Node25</title>
<g id="a_node26"><a xlink:href="pidfile_8hpp.html" target="_top" xlink:title="Implements safer c++ wrappers for the pidfile_*() interface. ">
<polygon fill="#ffffff" stroke="#000000" points="700,-168.5 700,-187.5 780,-187.5 780,-168.5 700,-168.5"/>
<text text-anchor="middle" x="740" y="-175.5" font-family="Helvetica,sans-Serif" font-size="10.00" fill="#000000">sys/pidfile.hpp</text>
</a>
</g>
</g>
<!-- Node0&#45;&gt;Node25 -->
<g id="edge34" class="edge">
<title>Node0&#45;&gt;Node25</title>
<path fill="none" stroke="#191970" d="M861.7298,-224.3733C837.6034,-215.1822 801.0638,-201.2624 774.3123,-191.0713"/>
<polygon fill="#191970" stroke="#191970" points="775.5313,-187.7904 764.9404,-187.5011 773.0393,-194.3318 775.5313,-187.7904"/>
</g>
<!-- Node27 -->
<g id="node28" class="node">
<title>Node27</title>
<g id="a_node28"><a xlink:href="signal_8hpp.html" target="_top" xlink:title="Implements a c++ wrapper for the signal(3) call. ">
<polygon fill="#ffffff" stroke="#000000" points="798,-168.5 798,-187.5 878,-187.5 878,-168.5 798,-168.5"/>
<text text-anchor="middle" x="838" y="-175.5" font-family="Helvetica,sans-Serif" font-size="10.00" fill="#000000">sys/signal.hpp</text>
</a>
</g>
</g>
<!-- Node0&#45;&gt;Node27 -->
<g id="edge37" class="edge">
<title>Node0&#45;&gt;Node27</title>
<path fill="none" stroke="#191970" d="M878.4649,-224.2455C871.5088,-216.2958 861.5117,-204.8706 853.1949,-195.3656"/>
<polygon fill="#191970" stroke="#191970" points="855.6564,-192.8637 846.4373,-187.6427 850.3884,-197.4732 855.6564,-192.8637"/>
</g>
<!-- Node29 -->
<g id="node30" class="node">
<title>Node29</title>
<polygon fill="#ffffff" stroke="#bfbfbf" points="1032,-168.5 1032,-187.5 1086,-187.5 1086,-168.5 1032,-168.5"/>
<text text-anchor="middle" x="1059" y="-175.5" font-family="Helvetica,sans-Serif" font-size="10.00" fill="#000000">iostream</text>
</g>
<!-- Node0&#45;&gt;Node29 -->
<g id="edge40" class="edge">
<title>Node0&#45;&gt;Node29</title>
<path fill="none" stroke="#191970" d="M916.5679,-224.3733C945.7755,-214.8638 990.5314,-200.2921 1022.0636,-190.0258"/>
<polygon fill="#191970" stroke="#191970" points="1023.3751,-193.2797 1031.8002,-186.8557 1021.2079,-186.6236 1023.3751,-193.2797"/>
</g>
<!-- Node30 -->
<g id="node31" class="node">
<title>Node30</title>
<polygon fill="#ffffff" stroke="#bfbfbf" points="1104,-168.5 1104,-187.5 1146,-187.5 1146,-168.5 1104,-168.5"/>
<text text-anchor="middle" x="1125" y="-175.5" font-family="Helvetica,sans-Serif" font-size="10.00" fill="#000000">locale</text>
</g>
<!-- Node0&#45;&gt;Node30 -->
<g id="edge41" class="edge">
<title>Node0&#45;&gt;Node30</title>
<path fill="none" stroke="#191970" d="M926.79,-226.4818C966.823,-218.6344 1030.4766,-205.3871 1094.0001,-188.0755"/>
<polygon fill="#191970" stroke="#191970" points="1095.0698,-191.4112 1103.7787,-185.3774 1093.208,-184.6633 1095.0698,-191.4112"/>
</g>
<!-- Node31 -->
<g id="node32" class="node">
<title>Node31</title>
<polygon fill="#ffffff" stroke="#bfbfbf" points="1164,-168.5 1164,-187.5 1220,-187.5 1220,-168.5 1164,-168.5"/>
<text text-anchor="middle" x="1192" y="-175.5" font-family="Helvetica,sans-Serif" font-size="10.00" fill="#000000">algorithm</text>
</g>
<!-- Node0&#45;&gt;Node31 -->
<g id="edge43" class="edge">
<title>Node0&#45;&gt;Node31</title>
<path fill="none" stroke="#191970" d="M926.7322,-228.374C977.307,-220.9509 1067.5393,-206.8323 1153.829,-188.1043"/>
<polygon fill="#191970" stroke="#191970" points="1154.7687,-191.4814 1163.7857,-185.9186 1153.2678,-184.6442 1154.7687,-191.4814"/>
</g>
<!-- Node32 -->
<g id="node33" class="node">
<title>Node32</title>
<polygon fill="#ffffff" stroke="#bfbfbf" points="1238,-168.5 1238,-187.5 1278,-187.5 1278,-168.5 1238,-168.5"/>
<text text-anchor="middle" x="1258" y="-175.5" font-family="Helvetica,sans-Serif" font-size="10.00" fill="#000000">limits</text>
</g>
<!-- Node0&#45;&gt;Node32 -->
<g id="edge44" class="edge">
<title>Node0&#45;&gt;Node32</title>
<path fill="none" stroke="#191970" d="M926.7027,-231.2296C989.1125,-226.3195 1113.9733,-214.253 1227.9346,-187.8581"/>
<polygon fill="#191970" stroke="#191970" points="1228.9407,-191.2169 1237.8694,-185.5135 1227.3328,-184.4041 1228.9407,-191.2169"/>
</g>
<!-- Node33 -->
<g id="node34" class="node">
<title>Node33</title>
<polygon fill="#ffffff" stroke="#bfbfbf" points="1296.5,-168.5 1296.5,-187.5 1341.5,-187.5 1341.5,-168.5 1296.5,-168.5"/>
<text text-anchor="middle" x="1319" y="-175.5" font-family="Helvetica,sans-Serif" font-size="10.00" fill="#000000">cstdlib</text>
</g>
<!-- Node0&#45;&gt;Node33 -->
<g id="edge45" class="edge">
<title>Node0&#45;&gt;Node33</title>
<path fill="none" stroke="#191970" d="M926.5723,-231.9251C997.1444,-227.6916 1149.3717,-216.1471 1286.5637,-187.7131"/>
<polygon fill="#191970" stroke="#191970" points="1287.3513,-191.1241 1296.4142,-185.6366 1285.9073,-184.2747 1287.3513,-191.1241"/>
</g>
<!-- Node34 -->
<g id="node35" class="node">
<title>Node34</title>
<polygon fill="#ffffff" stroke="#bfbfbf" points="1360,-168.5 1360,-187.5 1406,-187.5 1406,-168.5 1360,-168.5"/>
<text text-anchor="middle" x="1383" y="-175.5" font-family="Helvetica,sans-Serif" font-size="10.00" fill="#000000">cstdint</text>
</g>
<!-- Node0&#45;&gt;Node34 -->
<g id="edge46" class="edge">
<title>Node0&#45;&gt;Node34</title>
<path fill="none" stroke="#191970" d="M926.5122,-232.797C1005.447,-229.8126 1188.2241,-219.9873 1349.6169,-187.9203"/>
<polygon fill="#191970" stroke="#191970" points="1350.6169,-191.289 1359.725,-185.8767 1349.2297,-184.4279 1350.6169,-191.289"/>
</g>
<!-- Node35 -->
<g id="node36" class="node">
<title>Node35</title>
<polygon fill="#ffffff" stroke="#bfbfbf" points="1424.5,-168.5 1424.5,-187.5 1505.5,-187.5 1505.5,-168.5 1424.5,-168.5"/>
<text text-anchor="middle" x="1465" y="-175.5" font-family="Helvetica,sans-Serif" font-size="10.00" fill="#000000">sys/resource.h</text>
</g>
<!-- Node0&#45;&gt;Node35 -->
<g id="edge47" class="edge">
<title>Node0&#45;&gt;Node35</title>
<path fill="none" stroke="#191970" d="M926.5809,-232.0498C1013.1335,-227.4637 1225.8587,-214.4422 1414.3139,-187.9443"/>
<polygon fill="#191970" stroke="#191970" points="1414.9981,-191.3823 1424.4056,-186.509 1414.0124,-184.452 1414.9981,-191.3823"/>
</g>
<!-- Node2 -->
<g id="node3" class="node">
<title>Node2</title>
<polygon fill="#ffffff" stroke="#bfbfbf" points="108.5,-112.5 108.5,-131.5 157.5,-131.5 157.5,-112.5 108.5,-112.5"/>
<text text-anchor="middle" x="133" y="-119.5" font-family="Helvetica,sans-Serif" font-size="10.00" fill="#000000">cstddef</text>
</g>
<!-- Node1&#45;&gt;Node2 -->
<g id="edge2" class="edge">
<title>Node1&#45;&gt;Node2</title>
<path fill="none" stroke="#191970" d="M156.9486,-168.2455C152.9981,-160.617 147.3903,-149.7881 142.5942,-140.5267"/>
<polygon fill="#191970" stroke="#191970" points="145.7001,-138.9131 137.9935,-131.6427 139.4841,-142.1321 145.7001,-138.9131"/>
</g>
<!-- Node3 -->
<g id="node4" class="node">
<title>Node3</title>
<polygon fill="#ffffff" stroke="#bfbfbf" points="176,-112.5 176,-131.5 226,-131.5 226,-112.5 176,-112.5"/>
<text text-anchor="middle" x="201" y="-119.5" font-family="Helvetica,sans-Serif" font-size="10.00" fill="#000000">iomanip</text>
</g>
<!-- Node1&#45;&gt;Node3 -->
<g id="edge3" class="edge">
<title>Node1&#45;&gt;Node3</title>
<path fill="none" stroke="#191970" d="M168.7933,-168.2455C174.2178,-160.4564 181.9661,-149.3308 188.5033,-139.9439"/>
<polygon fill="#191970" stroke="#191970" points="191.4417,-141.849 194.2846,-131.6427 185.6975,-137.8485 191.4417,-141.849"/>
</g>
<!-- Node4 -->
<g id="node5" class="node">
<title>Node4</title>
<polygon fill="#ffffff" stroke="#bfbfbf" points="0,-112.5 0,-131.5 52,-131.5 52,-112.5 0,-112.5"/>
<text text-anchor="middle" x="26" y="-119.5" font-family="Helvetica,sans-Serif" font-size="10.00" fill="#000000">sstream</text>
</g>
<!-- Node1&#45;&gt;Node4 -->
<g id="edge4" class="edge">
<title>Node1&#45;&gt;Node4</title>
<path fill="none" stroke="#191970" d="M138.6208,-168.3733C116.4955,-159.2629 83.0866,-145.5062 58.3981,-135.3404"/>
<polygon fill="#191970" stroke="#191970" points="59.6536,-132.0723 49.0742,-131.5011 56.9883,-138.5451 59.6536,-132.0723"/>
</g>
<!-- Node5 -->
<g id="node6" class="node">
<title>Node5</title>
<polygon fill="#ffffff" stroke="#bfbfbf" points="130,-.5 130,-19.5 192,-19.5 192,-.5 130,-.5"/>
<text text-anchor="middle" x="161" y="-7.5" font-family="Helvetica,sans-Serif" font-size="10.00" fill="#000000">type_traits</text>
</g>
<!-- Node1&#45;&gt;Node5 -->
<g id="edge5" class="edge">
<title>Node1&#45;&gt;Node5</title>
<path fill="none" stroke="#191970" d="M139.8934,-168.4742C125.3669,-160.902 107.5263,-148.7828 99,-132 94.9739,-124.0752 96.6027,-120.5595 99,-112 108.1604,-79.2938 131.0046,-46.6574 146.2563,-27.4075"/>
<polygon fill="#191970" stroke="#191970" points="149.0523,-29.5169 152.6532,-19.5528 143.6245,-25.0966 149.0523,-29.5169"/>
</g>
<!-- Node6 -->
<g id="node7" class="node">
<title>Node6</title>
<polygon fill="#ffffff" stroke="#bfbfbf" points="571.5,-112.5 571.5,-131.5 620.5,-131.5 620.5,-112.5 571.5,-112.5"/>
<text text-anchor="middle" x="596" y="-119.5" font-family="Helvetica,sans-Serif" font-size="10.00" fill="#000000">cassert</text>
</g>
<!-- Node1&#45;&gt;Node6 -->
<g id="edge6" class="edge">
<title>Node1&#45;&gt;Node6</title>
<path fill="none" stroke="#191970" d="M196.5563,-176.0283C264.6189,-171.7164 420.8648,-159.6984 561.1682,-131.8484"/>
<polygon fill="#191970" stroke="#191970" points="562.131,-135.2247 571.241,-129.8157 560.7462,-128.3631 562.131,-135.2247"/>
</g>
<!-- Node8 -->
<g id="node9" class="node">
<title>Node8</title>
<polygon fill="#ffffff" stroke="#bfbfbf" points="563,-56.5 563,-75.5 609,-75.5 609,-56.5 563,-56.5"/>
<text text-anchor="middle" x="586" y="-63.5" font-family="Helvetica,sans-Serif" font-size="10.00" fill="#000000">chrono</text>
</g>
<!-- Node7&#45;&gt;Node8 -->
<g id="edge8" class="edge">
<title>Node7&#45;&gt;Node8</title>
<path fill="none" stroke="#191970" d="M649.1791,-168.4981C646.335,-155.1672 639.993,-130.476 629,-112 622.5612,-101.1784 613.2111,-90.7822 604.8732,-82.6195"/>
<polygon fill="#191970" stroke="#191970" points="607.0067,-79.8221 597.3172,-75.5367 602.2195,-84.9292 607.0067,-79.8221"/>
</g>
<!-- Node9 -->
<g id="node10" class="node">
<title>Node9</title>
<polygon fill="#ffffff" stroke="#bfbfbf" points="677.5,-112.5 677.5,-131.5 728.5,-131.5 728.5,-112.5 677.5,-112.5"/>
<text text-anchor="middle" x="703" y="-119.5" font-family="Helvetica,sans-Serif" font-size="10.00" fill="#000000">unistd.h</text>
</g>
<!-- Node7&#45;&gt;Node9 -->
<g id="edge9" class="edge">
<title>Node7&#45;&gt;Node9</title>
<path fill="none" stroke="#191970" d="M660.0577,-168.2455C667.5142,-160.2155 678.2634,-148.6394 687.1417,-139.0781"/>
<polygon fill="#191970" stroke="#191970" points="689.8063,-141.3522 694.0461,-131.6427 684.6768,-136.589 689.8063,-141.3522"/>
</g>
<!-- Node10&#45;&gt;Node8 -->
<g id="edge11" class="edge">
<title>Node10&#45;&gt;Node8</title>
<path fill="none" stroke="#191970" d="M534.7996,-112.2455C543.8678,-104.0549 557.0206,-92.1749 567.7245,-82.5069"/>
<polygon fill="#191970" stroke="#191970" points="570.2491,-84.9429 575.3242,-75.6427 565.5571,-79.7482 570.2491,-84.9429"/>
</g>
<!-- Node11&#45;&gt;Node10 -->
<g id="edge13" class="edge">
<title>Node11&#45;&gt;Node10</title>
<path fill="none" stroke="#191970" d="M524,-168.2455C524,-160.9382 524,-150.6944 524,-141.7046"/>
<polygon fill="#191970" stroke="#191970" points="527.5001,-141.6426 524,-131.6427 520.5001,-141.6427 527.5001,-141.6426"/>
</g>
<!-- Node12&#45;&gt;Node13 -->
<g id="edge15" class="edge">
<title>Node12&#45;&gt;Node13</title>
<path fill="none" stroke="#191970" d="M312,-112.2455C312,-104.9382 312,-94.6944 312,-85.7046"/>
<polygon fill="#191970" stroke="#191970" points="315.5001,-85.6426 312,-75.6427 308.5001,-85.6427 315.5001,-85.6426"/>
</g>
<!-- Node13&#45;&gt;Node5 -->
<g id="edge16" class="edge">
<title>Node13&#45;&gt;Node5</title>
<path fill="none" stroke="#191970" d="M286.0422,-56.3733C261.2593,-47.1822 223.7254,-33.2624 196.246,-23.0713"/>
<polygon fill="#191970" stroke="#191970" points="197.2121,-19.6968 186.6191,-19.5011 194.7781,-26.26 197.2121,-19.6968"/>
</g>
<!-- Node14 -->
<g id="node15" class="node">
<title>Node14</title>
<polygon fill="#ffffff" stroke="#bfbfbf" points="398.5,-.5 398.5,-19.5 439.5,-19.5 439.5,-.5 398.5,-.5"/>
<text text-anchor="middle" x="419" y="-7.5" font-family="Helvetica,sans-Serif" font-size="10.00" fill="#000000">string</text>
</g>
<!-- Node13&#45;&gt;Node14 -->
<g id="edge17" class="edge">
<title>Node13&#45;&gt;Node14</title>
<path fill="none" stroke="#191970" d="M330.638,-56.2455C347.4386,-47.4527 372.3634,-34.4079 391.4618,-24.4125"/>
<polygon fill="#191970" stroke="#191970" points="393.3386,-27.3807 400.5756,-19.6427 390.0927,-21.1787 393.3386,-27.3807"/>
</g>
<!-- Node15 -->
<g id="node16" class="node">
<title>Node15</title>
<polygon fill="#ffffff" stroke="#bfbfbf" points="290.5,-.5 290.5,-19.5 333.5,-19.5 333.5,-.5 290.5,-.5"/>
<text text-anchor="middle" x="312" y="-7.5" font-family="Helvetica,sans-Serif" font-size="10.00" fill="#000000">cstdio</text>
</g>
<!-- Node13&#45;&gt;Node15 -->
<g id="edge18" class="edge">
<title>Node13&#45;&gt;Node15</title>
<path fill="none" stroke="#191970" d="M312,-56.2455C312,-48.9382 312,-38.6944 312,-29.7046"/>
<polygon fill="#191970" stroke="#191970" points="315.5001,-29.6426 312,-19.6427 308.5001,-29.6427 315.5001,-29.6426"/>
</g>
<!-- Node16&#45;&gt;Node10 -->
<g id="edge20" class="edge">
<title>Node16&#45;&gt;Node10</title>
<path fill="none" stroke="#191970" d="M449.6768,-168.2455C463.4856,-159.6534 483.8193,-147.0014 499.7292,-137.1018"/>
<polygon fill="#191970" stroke="#191970" points="501.8613,-139.8974 508.5028,-131.6427 498.1632,-133.954 501.8613,-139.8974"/>
</g>
<!-- Node16&#45;&gt;Node12 -->
<g id="edge21" class="edge">
<title>Node16&#45;&gt;Node12</title>
<path fill="none" stroke="#191970" d="M413.0275,-168.3733C393.4433,-159.3838 364.0039,-145.8706 341.949,-135.7471"/>
<polygon fill="#191970" stroke="#191970" points="343.2473,-132.4919 332.6989,-131.5011 340.3271,-138.8538 343.2473,-132.4919"/>
</g>
<!-- Node16&#45;&gt;Node13 -->
<g id="edge22" class="edge">
<title>Node16&#45;&gt;Node13</title>
<path fill="none" stroke="#191970" d="M432.6518,-168.2896C430.2381,-154.2552 423.9532,-128.2119 409,-112 393.6497,-95.3576 371.0261,-84.1517 351.4883,-76.9703"/>
<polygon fill="#191970" stroke="#191970" points="352.4945,-73.6151 341.8998,-73.6681 350.2151,-80.2336 352.4945,-73.6151"/>
</g>
<!-- Node16&#45;&gt;Node14 -->
<g id="edge23" class="edge">
<title>Node16&#45;&gt;Node14</title>
<path fill="none" stroke="#191970" d="M433.5474,-168.1496C432.9212,-155.2412 431.6755,-131.9037 430,-112 427.5797,-83.2479 423.8176,-50.0391 421.3812,-29.5279"/>
<polygon fill="#191970" stroke="#191970" points="424.85,-29.0586 420.1809,-19.5481 417.9001,-29.8945 424.85,-29.0586"/>
</g>
<!-- Node17 -->
<g id="node18" class="node">
<title>Node17</title>
<polygon fill="#ffffff" stroke="#bfbfbf" points="360,-112.5 360,-131.5 400,-131.5 400,-112.5 360,-112.5"/>
<text text-anchor="middle" x="380" y="-119.5" font-family="Helvetica,sans-Serif" font-size="10.00" fill="#000000">utility</text>
</g>
<!-- Node16&#45;&gt;Node17 -->
<g id="edge24" class="edge">
<title>Node16&#45;&gt;Node17</title>
<path fill="none" stroke="#191970" d="M424.5939,-168.2455C416.8507,-160.2155 405.688,-148.6394 396.4682,-139.0781"/>
<polygon fill="#191970" stroke="#191970" points="398.7591,-136.4117 389.2983,-131.6427 393.7202,-141.2706 398.7591,-136.4117"/>
</g>
<!-- Node18&#45;&gt;Node6 -->
<g id="edge31" class="edge">
<title>Node18&#45;&gt;Node6</title>
<path fill="none" stroke="#191970" d="M895.9167,-169.6684C892.9023,-169.0882 889.9048,-168.5257 887,-168 794.7537,-151.3047 685.4346,-134.9368 630.772,-126.985"/>
<polygon fill="#191970" stroke="#191970" points="630.9881,-123.4799 620.5894,-125.5093 629.984,-130.4075 630.9881,-123.4799"/>
</g>
<!-- Node19 -->
<g id="node20" class="node">
<title>Node19</title>
<g id="a_node20"><a xlink:href="error_8hpp.html" target="_top" xlink:title="Provides system call error handling. ">
<polygon fill="#ffffff" stroke="#000000" points="811.5,-112.5 811.5,-131.5 866.5,-131.5 866.5,-112.5 811.5,-112.5"/>
<text text-anchor="middle" x="839" y="-119.5" font-family="Helvetica,sans-Serif" font-size="10.00" fill="#000000">error.hpp</text>
</a>
</g>
</g>
<!-- Node18&#45;&gt;Node19 -->
<g id="edge27" class="edge">
<title>Node18&#45;&gt;Node19</title>
<path fill="none" stroke="#191970" d="M919.1039,-168.2455C904.082,-159.5731 881.8957,-146.7645 864.679,-136.825"/>
<polygon fill="#191970" stroke="#191970" points="866.1128,-133.6114 855.7025,-131.6427 862.6129,-139.6737 866.1128,-133.6114"/>
</g>
<!-- Node18&#45;&gt;Node22 -->
<g id="edge30" class="edge">
<title>Node18&#45;&gt;Node22</title>
<path fill="none" stroke="#191970" d="M974.4875,-168.4259C1008.7336,-159.8362 1060.4221,-146.6997 1113.9833,-132.2308"/>
<polygon fill="#191970" stroke="#191970" points="1114.9119,-135.6054 1123.6478,-129.6109 1113.0804,-128.8493 1114.9119,-135.6054"/>
</g>
<!-- Node23 -->
<g id="node24" class="node">
<title>Node23</title>
<polygon fill="#ffffff" stroke="#bfbfbf" points="950,-112.5 950,-131.5 1018,-131.5 1018,-112.5 950,-112.5"/>
<text text-anchor="middle" x="984" y="-119.5" font-family="Helvetica,sans-Serif" font-size="10.00" fill="#000000">sys/types.h</text>
</g>
<!-- Node18&#45;&gt;Node23 -->
<g id="edge32" class="edge">
<title>Node18&#45;&gt;Node23</title>
<path fill="none" stroke="#191970" d="M944.361,-168.2455C951.175,-160.2958 960.9681,-148.8706 969.1152,-139.3656"/>
<polygon fill="#191970" stroke="#191970" points="971.8843,-141.513 975.7349,-131.6427 966.5695,-136.9575 971.8843,-141.513"/>
</g>
<!-- Node24 -->
<g id="node25" class="node">
<title>Node24</title>
<polygon fill="#ffffff" stroke="#bfbfbf" points="1036,-112.5 1036,-131.5 1106,-131.5 1106,-112.5 1036,-112.5"/>
<text text-anchor="middle" x="1071" y="-119.5" font-family="Helvetica,sans-Serif" font-size="10.00" fill="#000000">sys/sysctl.h</text>
</g>
<!-- Node18&#45;&gt;Node24 -->
<g id="edge33" class="edge">
<title>Node18&#45;&gt;Node24</title>
<path fill="none" stroke="#191970" d="M959.2073,-168.3733C981.1699,-159.2629 1014.3332,-145.5062 1038.8401,-135.3404"/>
<polygon fill="#191970" stroke="#191970" points="1040.1997,-138.5657 1048.0955,-131.5011 1037.5176,-132.0999 1040.1997,-138.5657"/>
</g>
<!-- Node20 -->
<g id="node21" class="node">
<title>Node20</title>
<polygon fill="#ffffff" stroke="#bfbfbf" points="785,-56.5 785,-75.5 829,-75.5 829,-56.5 785,-56.5"/>
<text text-anchor="middle" x="807" y="-63.5" font-family="Helvetica,sans-Serif" font-size="10.00" fill="#000000">cerrno</text>
</g>
<!-- Node19&#45;&gt;Node20 -->
<g id="edge28" class="edge">
<title>Node19&#45;&gt;Node20</title>
<path fill="none" stroke="#191970" d="M833.426,-112.2455C829.0669,-104.617 822.8789,-93.7881 817.5867,-84.5267"/>
<polygon fill="#191970" stroke="#191970" points="820.5104,-82.5886 812.5101,-75.6427 814.4327,-86.0616 820.5104,-82.5886"/>
</g>
<!-- Node21 -->
<g id="node22" class="node">
<title>Node21</title>
<polygon fill="#ffffff" stroke="#bfbfbf" points="847,-56.5 847,-75.5 893,-75.5 893,-56.5 847,-56.5"/>
<text text-anchor="middle" x="870" y="-63.5" font-family="Helvetica,sans-Serif" font-size="10.00" fill="#000000">cstring</text>
</g>
<!-- Node19&#45;&gt;Node21 -->
<g id="edge29" class="edge">
<title>Node19&#45;&gt;Node21</title>
<path fill="none" stroke="#191970" d="M844.3998,-112.2455C848.6227,-104.617 854.6173,-93.7881 859.7441,-84.5267"/>
<polygon fill="#191970" stroke="#191970" points="862.881,-86.0867 864.6621,-75.6427 856.7568,-82.6965 862.881,-86.0867"/>
</g>
<!-- Node25&#45;&gt;Node19 -->
<g id="edge35" class="edge">
<title>Node25&#45;&gt;Node19</title>
<path fill="none" stroke="#191970" d="M757.2445,-168.2455C772.5761,-159.5731 795.2199,-146.7645 812.7916,-136.825"/>
<polygon fill="#191970" stroke="#191970" points="814.9724,-139.6126 821.9531,-131.6427 811.5259,-133.5198 814.9724,-139.6126"/>
</g>
<!-- Node26 -->
<g id="node27" class="node">
<title>Node26</title>
<polygon fill="#ffffff" stroke="#bfbfbf" points="746.5,-112.5 746.5,-131.5 793.5,-131.5 793.5,-112.5 746.5,-112.5"/>
<text text-anchor="middle" x="770" y="-119.5" font-family="Helvetica,sans-Serif" font-size="10.00" fill="#000000">libutil.h</text>
</g>
<!-- Node25&#45;&gt;Node26 -->
<g id="edge36" class="edge">
<title>Node25&#45;&gt;Node26</title>
<path fill="none" stroke="#191970" d="M745.2256,-168.2455C749.3123,-160.617 755.1135,-149.7881 760.075,-140.5267"/>
<polygon fill="#191970" stroke="#191970" points="763.1972,-142.1103 764.8343,-131.6427 757.0268,-138.8047 763.1972,-142.1103"/>
</g>
<!-- Node27&#45;&gt;Node19 -->
<g id="edge38" class="edge">
<title>Node27&#45;&gt;Node19</title>
<path fill="none" stroke="#191970" d="M838.1742,-168.2455C838.3047,-160.9382 838.4876,-150.6944 838.6481,-141.7046"/>
<polygon fill="#191970" stroke="#191970" points="842.1486,-141.7036 838.8278,-131.6427 835.1497,-141.5786 842.1486,-141.7036"/>
</g>
<!-- Node28 -->
<g id="node29" class="node">
<title>Node28</title>
<polygon fill="#ffffff" stroke="#bfbfbf" points="884.5,-112.5 884.5,-131.5 931.5,-131.5 931.5,-112.5 884.5,-112.5"/>
<text text-anchor="middle" x="908" y="-119.5" font-family="Helvetica,sans-Serif" font-size="10.00" fill="#000000">csignal</text>
</g>
<!-- Node27&#45;&gt;Node28 -->
<g id="edge39" class="edge">
<title>Node27&#45;&gt;Node28</title>
<path fill="none" stroke="#191970" d="M850.1931,-168.2455C860.6321,-159.8943 875.8655,-147.7076 888.074,-137.9408"/>
<polygon fill="#191970" stroke="#191970" points="890.3244,-140.6227 895.9467,-131.6427 885.9515,-135.1566 890.3244,-140.6227"/>
</g>
</g>
</svg>
