<?xml version="1.0" encoding="UTF-8" standalone="no"?>
<!DOCTYPE svg PUBLIC "-//W3C//DTD SVG 1.1//EN"
 "http://www.w3.org/Graphics/SVG/1.1/DTD/svg11.dtd">
<!-- Generated by graphviz version 2.42.2 ()
 -->
<!-- Title: src/powerd++.cpp Pages: 1 -->
<svg width="1416pt" height="252pt"
 viewBox="0.00 0.00 1416.05 252.00" xmlns="http://www.w3.org/2000/svg" xmlns:xlink="http://www.w3.org/1999/xlink">
<g id="graph0" class="graph" transform="scale(1 1) rotate(0) translate(4 248)">
<title>src/powerd++.cpp</title>
<polygon fill="white" stroke="transparent" points="-4,4 -4,-248 1412.05,-248 1412.05,4 -4,4"/>
<!-- Node1 -->
<g id="node1" class="node">
<title>Node1</title>
<g id="a_node1"><a xlink:title="Implements powerd++ a drop in replacement for FreeBSD&#39;s powerd.">
<polygon fill="#bfbfbf" stroke="black" points="716.05,-224.5 716.05,-243.5 811.05,-243.5 811.05,-224.5 716.05,-224.5"/>
<text text-anchor="middle" x="763.55" y="-231.5" font-family="Helvetica" font-size="10.00">src/powerd++.cpp</text>
</a>
</g>
</g>
<!-- Node2 -->
<g id="node2" class="node">
<title>Node2</title>
<g id="a_node2"><a xlink:href="Options_8hpp.html" target="_top" xlink:title="Provides the nih::Options functor template, a substitute for getopt(3).">
<polygon fill="white" stroke="black" points="490.05,-168.5 490.05,-187.5 559.05,-187.5 559.05,-168.5 490.05,-168.5"/>
<text text-anchor="middle" x="524.55" y="-175.5" font-family="Helvetica" font-size="10.00">Options.hpp</text>
</a>
</g>
</g>
<!-- Node1&#45;&gt;Node2 -->
<g id="edge1" class="edge">
<title>Node1&#45;&gt;Node2</title>
<path fill="none" stroke="midnightblue" d="M725.68,-224.44C683.09,-214.82 614.02,-199.21 568.93,-189.03"/>
<polygon fill="midnightblue" stroke="midnightblue" points="569.66,-185.61 559.14,-186.82 568.12,-192.43 569.66,-185.61"/>
</g>
<!-- Node3 -->
<g id="node3" class="node">
<title>Node3</title>
<g id="a_node3"><a xlink:href="utility_8hpp.html" target="_top" xlink:title="Implements generally useful functions.">
<polygon fill="white" stroke="black" points="351.55,-56.5 351.55,-75.5 409.55,-75.5 409.55,-56.5 351.55,-56.5"/>
<text text-anchor="middle" x="380.55" y="-63.5" font-family="Helvetica" font-size="10.00">utility.hpp</text>
</a>
</g>
</g>
<!-- Node1&#45;&gt;Node3 -->
<g id="edge24" class="edge">
<title>Node1&#45;&gt;Node3</title>
<path fill="none" stroke="midnightblue" d="M716.03,-231.84C658.38,-229.02 559.16,-219.52 480.55,-188 439.93,-171.71 425.16,-167.49 399.55,-132 389.77,-118.44 384.99,-99.9 382.68,-86.08"/>
<polygon fill="midnightblue" stroke="midnightblue" points="386.09,-85.23 381.25,-75.8 379.16,-86.19 386.09,-85.23"/>
</g>
<!-- Node9 -->
<g id="node9" class="node">
<title>Node9</title>
<g id="a_node9"><a xlink:href="Cycle_8hpp.html" target="_top" xlink:title="Implements timing::Cycle, a cyclic sleep functor.">
<polygon fill="white" stroke="black" points="7.55,-168.5 7.55,-187.5 67.55,-187.5 67.55,-168.5 7.55,-168.5"/>
<text text-anchor="middle" x="37.55" y="-175.5" font-family="Helvetica" font-size="10.00">Cycle.hpp</text>
</a>
</g>
</g>
<!-- Node1&#45;&gt;Node9 -->
<g id="edge9" class="edge">
<title>Node1&#45;&gt;Node9</title>
<path fill="none" stroke="midnightblue" d="M715.69,-231.78C604.6,-228.53 320.79,-217.75 85.55,-188 83.01,-187.68 80.4,-187.31 77.78,-186.9"/>
<polygon fill="midnightblue" stroke="midnightblue" points="78.12,-183.41 67.68,-185.22 76.96,-190.32 78.12,-183.41"/>
</g>
<!-- Node12 -->
<g id="node12" class="node">
<title>Node12</title>
<g id="a_node12"><a xlink:href="types_8hpp.html" target="_top" xlink:title="A collection of type aliases.">
<polygon fill="white" stroke="black" points="81.05,-112.5 81.05,-131.5 140.05,-131.5 140.05,-112.5 81.05,-112.5"/>
<text text-anchor="middle" x="110.55" y="-119.5" font-family="Helvetica" font-size="10.00">types.hpp</text>
</a>
</g>
</g>
<!-- Node1&#45;&gt;Node12 -->
<g id="edge12" class="edge">
<title>Node1&#45;&gt;Node12</title>
<path fill="none" stroke="midnightblue" d="M716.03,-231.63C602.19,-227.93 316.58,-216.05 225.55,-188 206.55,-182.14 160.53,-154.4 132.81,-137.11"/>
<polygon fill="midnightblue" stroke="midnightblue" points="134.5,-134.04 124.17,-131.69 130.78,-139.97 134.5,-134.04"/>
</g>
<!-- Node13 -->
<g id="node13" class="node">
<title>Node13</title>
<g id="a_node13"><a xlink:href="constants_8hpp.html" target="_top" xlink:title="Defines a collection of constants.">
<polygon fill="white" stroke="black" points="94.55,-168.5 94.55,-187.5 172.55,-187.5 172.55,-168.5 94.55,-168.5"/>
<text text-anchor="middle" x="133.55" y="-175.5" font-family="Helvetica" font-size="10.00">constants.hpp</text>
</a>
</g>
</g>
<!-- Node1&#45;&gt;Node13 -->
<g id="edge14" class="edge">
<title>Node1&#45;&gt;Node13</title>
<path fill="none" stroke="midnightblue" d="M715.88,-230.52C617.48,-225.12 384.78,-210.93 190.55,-188 188.02,-187.7 185.44,-187.37 182.83,-187.03"/>
<polygon fill="midnightblue" stroke="midnightblue" points="183.13,-183.53 172.74,-185.6 182.15,-190.47 183.13,-183.53"/>
</g>
<!-- Node14 -->
<g id="node14" class="node">
<title>Node14</title>
<g id="a_node14"><a xlink:href="errors_8hpp.html" target="_top" xlink:title="Common error handling code.">
<polygon fill="white" stroke="black" points="292.55,-112.5 292.55,-131.5 352.55,-131.5 352.55,-112.5 292.55,-112.5"/>
<text text-anchor="middle" x="322.55" y="-119.5" font-family="Helvetica" font-size="10.00">errors.hpp</text>
</a>
</g>
</g>
<!-- Node1&#45;&gt;Node14 -->
<g id="edge16" class="edge">
<title>Node1&#45;&gt;Node14</title>
<path fill="none" stroke="midnightblue" d="M715.81,-232.5C623.44,-230.76 424.26,-222.93 366.55,-188 348.74,-177.22 336.52,-156.16 329.56,-140.93"/>
<polygon fill="midnightblue" stroke="midnightblue" points="332.69,-139.36 325.57,-131.51 326.25,-142.09 332.69,-139.36"/>
</g>
<!-- Node15 -->
<g id="node15" class="node">
<title>Node15</title>
<g id="a_node15"><a xlink:href="clas_8hpp.html" target="_top" xlink:title="Provides functions to process command line arguments.">
<polygon fill="white" stroke="black" points="235.05,-168.5 235.05,-187.5 288.05,-187.5 288.05,-168.5 235.05,-168.5"/>
<text text-anchor="middle" x="261.55" y="-175.5" font-family="Helvetica" font-size="10.00">clas.hpp</text>
</a>
</g>
</g>
<!-- Node1&#45;&gt;Node15 -->
<g id="edge18" class="edge">
<title>Node1&#45;&gt;Node15</title>
<path fill="none" stroke="midnightblue" d="M716.03,-229.07C634.54,-222.14 462.94,-206.69 318.55,-188 312.03,-187.16 305.11,-186.15 298.41,-185.13"/>
<polygon fill="midnightblue" stroke="midnightblue" points="298.61,-181.62 288.18,-183.52 297.52,-188.53 298.61,-181.62"/>
</g>
<!-- Node17 -->
<g id="node17" class="node">
<title>Node17</title>
<g id="a_node17"><a xlink:href="sysctl_8hpp.html" target="_top" xlink:title="Implements safer c++ wrappers for the sysctl() interface.">
<polygon fill="white" stroke="black" points="674.55,-168.5 674.55,-187.5 754.55,-187.5 754.55,-168.5 674.55,-168.5"/>
<text text-anchor="middle" x="714.55" y="-175.5" font-family="Helvetica" font-size="10.00">sys/sysctl.hpp</text>
</a>
</g>
</g>
<!-- Node1&#45;&gt;Node17 -->
<g id="edge25" class="edge">
<title>Node1&#45;&gt;Node17</title>
<path fill="none" stroke="midnightblue" d="M755.46,-224.08C748.39,-216.3 737.96,-204.8 729.4,-195.37"/>
<polygon fill="midnightblue" stroke="midnightblue" points="731.8,-192.8 722.49,-187.75 726.62,-197.51 731.8,-192.8"/>
</g>
<!-- Node21 -->
<g id="node21" class="node">
<title>Node21</title>
<g id="a_node21"><a xlink:title=" ">
<polygon fill="white" stroke="#bfbfbf" points="620.55,-112.5 620.55,-131.5 672.55,-131.5 672.55,-112.5 620.55,-112.5"/>
<text text-anchor="middle" x="646.55" y="-119.5" font-family="Helvetica" font-size="10.00">memory</text>
</a>
</g>
</g>
<!-- Node1&#45;&gt;Node21 -->
<g id="edge42" class="edge">
<title>Node1&#45;&gt;Node21</title>
<path fill="none" stroke="midnightblue" d="M727.26,-224.41C706.48,-217.74 681.46,-206.42 665.55,-188 654.39,-175.08 649.78,-155.91 647.88,-141.73"/>
<polygon fill="midnightblue" stroke="midnightblue" points="651.34,-141.25 646.86,-131.65 644.38,-141.95 651.34,-141.25"/>
</g>
<!-- Node24 -->
<g id="node24" class="node">
<title>Node24</title>
<g id="a_node24"><a xlink:href="pidfile_8hpp.html" target="_top" xlink:title="Implements safer c++ wrappers for the pidfile_*() interface.">
<polygon fill="white" stroke="black" points="772.55,-168.5 772.55,-187.5 852.55,-187.5 852.55,-168.5 772.55,-168.5"/>
<text text-anchor="middle" x="812.55" y="-175.5" font-family="Helvetica" font-size="10.00">sys/pidfile.hpp</text>
</a>
</g>
</g>
<!-- Node1&#45;&gt;Node24 -->
<g id="edge33" class="edge">
<title>Node1&#45;&gt;Node24</title>
<path fill="none" stroke="midnightblue" d="M771.64,-224.08C778.7,-216.3 789.14,-204.8 797.7,-195.37"/>
<polygon fill="midnightblue" stroke="midnightblue" points="800.48,-197.51 804.61,-187.75 795.3,-192.8 800.48,-197.51"/>
</g>
<!-- Node26 -->
<g id="node26" class="node">
<title>Node26</title>
<g id="a_node26"><a xlink:href="signal_8hpp.html" target="_top" xlink:title="Implements a c++ wrapper for the signal(3) call.">
<polygon fill="white" stroke="black" points="870.55,-168.5 870.55,-187.5 950.55,-187.5 950.55,-168.5 870.55,-168.5"/>
<text text-anchor="middle" x="910.55" y="-175.5" font-family="Helvetica" font-size="10.00">sys/signal.hpp</text>
</a>
</g>
</g>
<!-- Node1&#45;&gt;Node26 -->
<g id="edge36" class="edge">
<title>Node1&#45;&gt;Node26</title>
<path fill="none" stroke="midnightblue" d="M786.84,-224.44C811.36,-215.44 850.15,-201.19 877.75,-191.05"/>
<polygon fill="midnightblue" stroke="midnightblue" points="879.19,-194.25 887.37,-187.52 876.77,-187.68 879.19,-194.25"/>
</g>
<!-- Node28 -->
<g id="node28" class="node">
<title>Node28</title>
<g id="a_node28"><a xlink:href="io_8hpp.html" target="_top" xlink:title="Implements c++ wrappers for &lt;cstdio&gt; I/O functionality.">
<polygon fill="white" stroke="black" points="1017.55,-56.5 1017.55,-75.5 1079.55,-75.5 1079.55,-56.5 1017.55,-56.5"/>
<text text-anchor="middle" x="1048.55" y="-63.5" font-family="Helvetica" font-size="10.00">sys/io.hpp</text>
</a>
</g>
</g>
<!-- Node1&#45;&gt;Node28 -->
<g id="edge39" class="edge">
<title>Node1&#45;&gt;Node28</title>
<path fill="none" stroke="midnightblue" d="M811.42,-225.99C851.83,-219.14 910.73,-206.95 959.55,-188 962.49,-186.86 1056.96,-134.73 1058.55,-132 1066.89,-117.7 1062.57,-98.74 1057.26,-84.99"/>
<polygon fill="midnightblue" stroke="midnightblue" points="1060.4,-83.43 1053.2,-75.65 1053.98,-86.22 1060.4,-83.43"/>
</g>
<!-- Node29 -->
<g id="node29" class="node">
<title>Node29</title>
<g id="a_node29"><a xlink:title=" ">
<polygon fill="white" stroke="#bfbfbf" points="1006.55,-168.5 1006.55,-187.5 1048.55,-187.5 1048.55,-168.5 1006.55,-168.5"/>
<text text-anchor="middle" x="1027.55" y="-175.5" font-family="Helvetica" font-size="10.00">locale</text>
</a>
</g>
</g>
<!-- Node1&#45;&gt;Node29 -->
<g id="edge41" class="edge">
<title>Node1&#45;&gt;Node29</title>
<path fill="none" stroke="midnightblue" d="M811.08,-224.49C857.52,-215.97 930.11,-202.15 992.55,-188 993.82,-187.71 995.12,-187.41 996.43,-187.1"/>
<polygon fill="midnightblue" stroke="midnightblue" points="997.62,-190.41 1006.5,-184.62 995.95,-183.61 997.62,-190.41"/>
</g>
<!-- Node30 -->
<g id="node30" class="node">
<title>Node30</title>
<g id="a_node30"><a xlink:title=" ">
<polygon fill="white" stroke="#bfbfbf" points="1066.55,-168.5 1066.55,-187.5 1122.55,-187.5 1122.55,-168.5 1066.55,-168.5"/>
<text text-anchor="middle" x="1094.55" y="-175.5" font-family="Helvetica" font-size="10.00">algorithm</text>
</a>
</g>
</g>
<!-- Node1&#45;&gt;Node30 -->
<g id="edge43" class="edge">
<title>Node1&#45;&gt;Node30</title>
<path fill="none" stroke="midnightblue" d="M811.12,-227.01C867.4,-219.64 964.08,-206.08 1056.27,-188.11"/>
<polygon fill="midnightblue" stroke="midnightblue" points="1057.19,-191.5 1066.32,-186.13 1055.84,-184.63 1057.19,-191.5"/>
</g>
<!-- Node31 -->
<g id="node31" class="node">
<title>Node31</title>
<g id="a_node31"><a xlink:title=" ">
<polygon fill="white" stroke="#bfbfbf" points="1140.55,-168.5 1140.55,-187.5 1180.55,-187.5 1180.55,-168.5 1140.55,-168.5"/>
<text text-anchor="middle" x="1160.55" y="-175.5" font-family="Helvetica" font-size="10.00">limits</text>
</a>
</g>
</g>
<!-- Node1&#45;&gt;Node31 -->
<g id="edge44" class="edge">
<title>Node1&#45;&gt;Node31</title>
<path fill="none" stroke="midnightblue" d="M811.05,-229.92C879.67,-224.88 1010.55,-213.04 1130.32,-187.91"/>
<polygon fill="midnightblue" stroke="midnightblue" points="1131.34,-191.27 1140.39,-185.76 1129.88,-184.43 1131.34,-191.27"/>
</g>
<!-- Node32 -->
<g id="node32" class="node">
<title>Node32</title>
<g id="a_node32"><a xlink:title=" ">
<polygon fill="white" stroke="#bfbfbf" points="1199.05,-168.5 1199.05,-187.5 1244.05,-187.5 1244.05,-168.5 1199.05,-168.5"/>
<text text-anchor="middle" x="1221.55" y="-175.5" font-family="Helvetica" font-size="10.00">cstdlib</text>
</a>
</g>
</g>
<!-- Node1&#45;&gt;Node32 -->
<g id="edge45" class="edge">
<title>Node1&#45;&gt;Node32</title>
<path fill="none" stroke="midnightblue" d="M811.21,-230.6C888.52,-226.13 1046.09,-214.64 1188.7,-187.83"/>
<polygon fill="midnightblue" stroke="midnightblue" points="1189.77,-191.19 1198.94,-185.87 1188.46,-184.31 1189.77,-191.19"/>
</g>
<!-- Node33 -->
<g id="node33" class="node">
<title>Node33</title>
<g id="a_node33"><a xlink:title=" ">
<polygon fill="white" stroke="#bfbfbf" points="1262.55,-168.5 1262.55,-187.5 1308.55,-187.5 1308.55,-168.5 1262.55,-168.5"/>
<text text-anchor="middle" x="1285.55" y="-175.5" font-family="Helvetica" font-size="10.00">cstdint</text>
</a>
</g>
</g>
<!-- Node1&#45;&gt;Node33 -->
<g id="edge46" class="edge">
<title>Node1&#45;&gt;Node33</title>
<path fill="none" stroke="midnightblue" d="M811.24,-231.51C897.59,-228.18 1085.57,-218.08 1252.31,-187.91"/>
<polygon fill="midnightblue" stroke="midnightblue" points="1253.04,-191.34 1262.25,-186.08 1251.78,-184.45 1253.04,-191.34"/>
</g>
<!-- Node34 -->
<g id="node34" class="node">
<title>Node34</title>
<g id="a_node34"><a xlink:title=" ">
<polygon fill="white" stroke="#bfbfbf" points="1327.05,-168.5 1327.05,-187.5 1408.05,-187.5 1408.05,-168.5 1327.05,-168.5"/>
<text text-anchor="middle" x="1367.55" y="-175.5" font-family="Helvetica" font-size="10.00">sys/resource.h</text>
</a>
</g>
</g>
<!-- Node1&#45;&gt;Node34 -->
<g id="edge47" class="edge">
<title>Node1&#45;&gt;Node34</title>
<path fill="none" stroke="midnightblue" d="M811.14,-230.69C905.55,-225.78 1123.35,-212.77 1316.87,-187.95"/>
<polygon fill="midnightblue" stroke="midnightblue" points="1317.47,-191.41 1326.94,-186.65 1316.57,-184.46 1317.47,-191.41"/>
</g>
<!-- Node2&#45;&gt;Node3 -->
<g id="edge2" class="edge">
<title>Node2&#45;&gt;Node3</title>
<path fill="none" stroke="midnightblue" d="M518.25,-168.09C508.41,-154.64 488.26,-128.92 466.55,-112 449.77,-98.92 428.63,-87.8 411.51,-79.89"/>
<polygon fill="midnightblue" stroke="midnightblue" points="412.51,-76.5 401.96,-75.61 409.65,-82.89 412.51,-76.5"/>
</g>
<!-- Node4 -->
<g id="node4" class="node">
<title>Node4</title>
<g id="a_node4"><a xlink:title=" ">
<polygon fill="white" stroke="#bfbfbf" points="405.55,-0.5 405.55,-19.5 467.55,-19.5 467.55,-0.5 405.55,-0.5"/>
<text text-anchor="middle" x="436.55" y="-7.5" font-family="Helvetica" font-size="10.00">type_traits</text>
</a>
</g>
</g>
<!-- Node2&#45;&gt;Node4 -->
<g id="edge7" class="edge">
<title>Node2&#45;&gt;Node4</title>
<path fill="none" stroke="midnightblue" d="M520.15,-168.13C513.89,-155.57 502.04,-131.94 491.55,-112 476.04,-82.52 457.39,-48.58 446.28,-28.5"/>
<polygon fill="midnightblue" stroke="midnightblue" points="449.25,-26.65 441.34,-19.6 443.13,-30.04 449.25,-26.65"/>
</g>
<!-- Node7 -->
<g id="node7" class="node">
<title>Node7</title>
<g id="a_node7"><a xlink:title=" ">
<polygon fill="white" stroke="#bfbfbf" points="409.05,-112.5 409.05,-131.5 458.05,-131.5 458.05,-112.5 409.05,-112.5"/>
<text text-anchor="middle" x="433.55" y="-119.5" font-family="Helvetica" font-size="10.00">cstddef</text>
</a>
</g>
</g>
<!-- Node2&#45;&gt;Node7 -->
<g id="edge6" class="edge">
<title>Node2&#45;&gt;Node7</title>
<path fill="none" stroke="midnightblue" d="M509.93,-168.32C495.6,-159.82 473.54,-146.73 456.8,-136.8"/>
<polygon fill="midnightblue" stroke="midnightblue" points="458.52,-133.75 448.13,-131.65 454.95,-139.77 458.52,-133.75"/>
</g>
<!-- Node8 -->
<g id="node8" class="node">
<title>Node8</title>
<g id="a_node8"><a xlink:title=" ">
<polygon fill="white" stroke="#bfbfbf" points="553.05,-112.5 553.05,-131.5 602.05,-131.5 602.05,-112.5 553.05,-112.5"/>
<text text-anchor="middle" x="577.55" y="-119.5" font-family="Helvetica" font-size="10.00">cassert</text>
</a>
</g>
</g>
<!-- Node2&#45;&gt;Node8 -->
<g id="edge8" class="edge">
<title>Node2&#45;&gt;Node8</title>
<path fill="none" stroke="midnightblue" d="M533.3,-168.08C541.02,-160.22 552.45,-148.57 561.77,-139.08"/>
<polygon fill="midnightblue" stroke="midnightblue" points="564.45,-141.34 568.96,-131.75 559.46,-136.44 564.45,-141.34"/>
</g>
<!-- Node3&#45;&gt;Node4 -->
<g id="edge3" class="edge">
<title>Node3&#45;&gt;Node4</title>
<path fill="none" stroke="midnightblue" d="M389.55,-56.32C397.74,-48.42 410.05,-36.55 420.02,-26.94"/>
<polygon fill="midnightblue" stroke="midnightblue" points="422.62,-29.29 427.39,-19.83 417.76,-24.26 422.62,-29.29"/>
</g>
<!-- Node5 -->
<g id="node5" class="node">
<title>Node5</title>
<g id="a_node5"><a xlink:title=" ">
<polygon fill="white" stroke="#bfbfbf" points="304.05,-0.5 304.05,-19.5 345.05,-19.5 345.05,-0.5 304.05,-0.5"/>
<text text-anchor="middle" x="324.55" y="-7.5" font-family="Helvetica" font-size="10.00">string</text>
</a>
</g>
</g>
<!-- Node3&#45;&gt;Node5 -->
<g id="edge4" class="edge">
<title>Node3&#45;&gt;Node5</title>
<path fill="none" stroke="midnightblue" d="M371.55,-56.32C363.35,-48.42 351.04,-36.55 341.08,-26.94"/>
<polygon fill="midnightblue" stroke="midnightblue" points="343.34,-24.26 333.71,-19.83 338.48,-29.29 343.34,-24.26"/>
</g>
<!-- Node6 -->
<g id="node6" class="node">
<title>Node6</title>
<g id="a_node6"><a xlink:title=" ">
<polygon fill="white" stroke="#bfbfbf" points="770.05,-0.5 770.05,-19.5 813.05,-19.5 813.05,-0.5 770.05,-0.5"/>
<text text-anchor="middle" x="791.55" y="-7.5" font-family="Helvetica" font-size="10.00">cstdio</text>
</a>
</g>
</g>
<!-- Node3&#45;&gt;Node6 -->
<g id="edge5" class="edge">
<title>Node3&#45;&gt;Node6</title>
<path fill="none" stroke="midnightblue" d="M409.78,-61.16C484.57,-51.33 682.43,-25.34 759.85,-15.16"/>
<polygon fill="midnightblue" stroke="midnightblue" points="760.49,-18.61 769.95,-13.84 759.58,-11.67 760.49,-18.61"/>
</g>
<!-- Node10 -->
<g id="node10" class="node">
<title>Node10</title>
<g id="a_node10"><a xlink:title=" ">
<polygon fill="white" stroke="#bfbfbf" points="24.55,-56.5 24.55,-75.5 70.55,-75.5 70.55,-56.5 24.55,-56.5"/>
<text text-anchor="middle" x="47.55" y="-63.5" font-family="Helvetica" font-size="10.00">chrono</text>
</a>
</g>
</g>
<!-- Node9&#45;&gt;Node10 -->
<g id="edge10" class="edge">
<title>Node9&#45;&gt;Node10</title>
<path fill="none" stroke="midnightblue" d="M27.35,-168.44C14.15,-156.27 -6.18,-133.08 2.55,-112 7.47,-100.12 17.22,-89.74 26.38,-81.96"/>
<polygon fill="midnightblue" stroke="midnightblue" points="28.8,-84.51 34.48,-75.56 24.47,-79.01 28.8,-84.51"/>
</g>
<!-- Node11 -->
<g id="node11" class="node">
<title>Node11</title>
<g id="a_node11"><a xlink:title=" ">
<polygon fill="white" stroke="#bfbfbf" points="12.05,-112.5 12.05,-131.5 63.05,-131.5 63.05,-112.5 12.05,-112.5"/>
<text text-anchor="middle" x="37.55" y="-119.5" font-family="Helvetica" font-size="10.00">unistd.h</text>
</a>
</g>
</g>
<!-- Node9&#45;&gt;Node11 -->
<g id="edge11" class="edge">
<title>Node9&#45;&gt;Node11</title>
<path fill="none" stroke="midnightblue" d="M37.55,-168.08C37.55,-161.01 37.55,-150.86 37.55,-141.99"/>
<polygon fill="midnightblue" stroke="midnightblue" points="41.05,-141.75 37.55,-131.75 34.05,-141.75 41.05,-141.75"/>
</g>
<!-- Node12&#45;&gt;Node10 -->
<g id="edge13" class="edge">
<title>Node12&#45;&gt;Node10</title>
<path fill="none" stroke="midnightblue" d="M100.43,-112.32C91.02,-104.26 76.8,-92.08 65.48,-82.37"/>
<polygon fill="midnightblue" stroke="midnightblue" points="67.73,-79.68 57.86,-75.83 63.17,-85 67.73,-79.68"/>
</g>
<!-- Node13&#45;&gt;Node12 -->
<g id="edge15" class="edge">
<title>Node13&#45;&gt;Node12</title>
<path fill="none" stroke="midnightblue" d="M129.75,-168.08C126.64,-160.77 122.13,-150.18 118.26,-141.1"/>
<polygon fill="midnightblue" stroke="midnightblue" points="121.41,-139.58 114.28,-131.75 114.97,-142.32 121.41,-139.58"/>
</g>
<!-- Node14&#45;&gt;Node3 -->
<g id="edge17" class="edge">
<title>Node14&#45;&gt;Node3</title>
<path fill="none" stroke="midnightblue" d="M331.87,-112.32C340.44,-104.34 353.36,-92.31 363.74,-82.65"/>
<polygon fill="midnightblue" stroke="midnightblue" points="366.13,-85.21 371.06,-75.83 361.36,-80.09 366.13,-85.21"/>
</g>
<!-- Node15&#45;&gt;Node3 -->
<g id="edge21" class="edge">
<title>Node15&#45;&gt;Node3</title>
<path fill="none" stroke="midnightblue" d="M262.32,-168.34C263.95,-154.76 268.91,-128.31 283.55,-112 298.82,-94.98 321.86,-83.92 341.65,-77.03"/>
<polygon fill="midnightblue" stroke="midnightblue" points="342.92,-80.29 351.35,-73.88 340.76,-73.64 342.92,-80.29"/>
</g>
<!-- Node15&#45;&gt;Node5 -->
<g id="edge22" class="edge">
<title>Node15&#45;&gt;Node5</title>
<path fill="none" stroke="midnightblue" d="M261.4,-168.36C261.43,-155.7 262.38,-131.48 268.55,-112 278.59,-80.3 299.13,-47.28 312.34,-27.96"/>
<polygon fill="midnightblue" stroke="midnightblue" points="315.3,-29.84 318.17,-19.64 309.57,-25.82 315.3,-29.84"/>
</g>
<!-- Node15&#45;&gt;Node12 -->
<g id="edge19" class="edge">
<title>Node15&#45;&gt;Node12</title>
<path fill="none" stroke="midnightblue" d="M237.62,-168.44C212.33,-159.4 172.25,-145.06 143.87,-134.92"/>
<polygon fill="midnightblue" stroke="midnightblue" points="144.96,-131.59 134.36,-131.52 142.6,-138.18 144.96,-131.59"/>
</g>
<!-- Node15&#45;&gt;Node14 -->
<g id="edge20" class="edge">
<title>Node15&#45;&gt;Node14</title>
<path fill="none" stroke="midnightblue" d="M271.35,-168.32C280.37,-160.34 293.95,-148.31 304.87,-138.65"/>
<polygon fill="midnightblue" stroke="midnightblue" points="307.4,-141.08 312.57,-131.83 302.76,-135.84 307.4,-141.08"/>
</g>
<!-- Node16 -->
<g id="node16" class="node">
<title>Node16</title>
<g id="a_node16"><a xlink:title=" ">
<polygon fill="white" stroke="#bfbfbf" points="158.55,-112.5 158.55,-131.5 198.55,-131.5 198.55,-112.5 158.55,-112.5"/>
<text text-anchor="middle" x="178.55" y="-119.5" font-family="Helvetica" font-size="10.00">utility</text>
</a>
</g>
</g>
<!-- Node15&#45;&gt;Node16 -->
<g id="edge23" class="edge">
<title>Node15&#45;&gt;Node16</title>
<path fill="none" stroke="midnightblue" d="M248.21,-168.32C235.39,-159.98 215.76,-147.21 200.61,-137.35"/>
<polygon fill="midnightblue" stroke="midnightblue" points="202.14,-134.17 191.85,-131.65 198.32,-140.04 202.14,-134.17"/>
</g>
<!-- Node17&#45;&gt;Node8 -->
<g id="edge30" class="edge">
<title>Node17&#45;&gt;Node8</title>
<path fill="none" stroke="midnightblue" d="M692.84,-168.44C670.19,-159.52 634.48,-145.44 608.8,-135.32"/>
<polygon fill="midnightblue" stroke="midnightblue" points="609.74,-131.93 599.16,-131.52 607.18,-138.44 609.74,-131.93"/>
</g>
<!-- Node18 -->
<g id="node18" class="node">
<title>Node18</title>
<g id="a_node18"><a xlink:href="error_8hpp.html" target="_top" xlink:title="Provides system call error handling.">
<polygon fill="white" stroke="black" points="864.55,-112.5 864.55,-131.5 918.55,-131.5 918.55,-112.5 864.55,-112.5"/>
<text text-anchor="middle" x="891.55" y="-119.5" font-family="Helvetica" font-size="10.00">error.hpp</text>
</a>
</g>
</g>
<!-- Node17&#45;&gt;Node18 -->
<g id="edge26" class="edge">
<title>Node17&#45;&gt;Node18</title>
<path fill="none" stroke="midnightblue" d="M742.6,-168.44C772.9,-159.2 821.31,-144.43 854.67,-134.25"/>
<polygon fill="midnightblue" stroke="midnightblue" points="855.96,-137.52 864.5,-131.25 853.92,-130.82 855.96,-137.52"/>
</g>
<!-- Node17&#45;&gt;Node21 -->
<g id="edge29" class="edge">
<title>Node17&#45;&gt;Node21</title>
<path fill="none" stroke="midnightblue" d="M703.62,-168.32C693.37,-160.18 677.83,-147.84 665.55,-138.09"/>
<polygon fill="midnightblue" stroke="midnightblue" points="667.68,-135.31 657.67,-131.83 663.33,-140.79 667.68,-135.31"/>
</g>
<!-- Node22 -->
<g id="node22" class="node">
<title>Node22</title>
<g id="a_node22"><a xlink:title=" ">
<polygon fill="white" stroke="#bfbfbf" points="690.55,-112.5 690.55,-131.5 758.55,-131.5 758.55,-112.5 690.55,-112.5"/>
<text text-anchor="middle" x="724.55" y="-119.5" font-family="Helvetica" font-size="10.00">sys/types.h</text>
</a>
</g>
</g>
<!-- Node17&#45;&gt;Node22 -->
<g id="edge31" class="edge">
<title>Node17&#45;&gt;Node22</title>
<path fill="none" stroke="midnightblue" d="M716.2,-168.08C717.53,-160.93 719.43,-150.64 721.09,-141.69"/>
<polygon fill="midnightblue" stroke="midnightblue" points="724.55,-142.22 722.93,-131.75 717.67,-140.95 724.55,-142.22"/>
</g>
<!-- Node23 -->
<g id="node23" class="node">
<title>Node23</title>
<g id="a_node23"><a xlink:title=" ">
<polygon fill="white" stroke="#bfbfbf" points="776.55,-112.5 776.55,-131.5 846.55,-131.5 846.55,-112.5 776.55,-112.5"/>
<text text-anchor="middle" x="811.55" y="-119.5" font-family="Helvetica" font-size="10.00">sys/sysctl.h</text>
</a>
</g>
</g>
<!-- Node17&#45;&gt;Node23 -->
<g id="edge32" class="edge">
<title>Node17&#45;&gt;Node23</title>
<path fill="none" stroke="midnightblue" d="M730.13,-168.32C745.55,-159.74 769.36,-146.49 787.26,-136.52"/>
<polygon fill="midnightblue" stroke="midnightblue" points="788.97,-139.58 796,-131.65 785.56,-133.46 788.97,-139.58"/>
</g>
<!-- Node19 -->
<g id="node19" class="node">
<title>Node19</title>
<g id="a_node19"><a xlink:title=" ">
<polygon fill="white" stroke="#bfbfbf" points="834.55,-56.5 834.55,-75.5 878.55,-75.5 878.55,-56.5 834.55,-56.5"/>
<text text-anchor="middle" x="856.55" y="-63.5" font-family="Helvetica" font-size="10.00">cerrno</text>
</a>
</g>
</g>
<!-- Node18&#45;&gt;Node19 -->
<g id="edge27" class="edge">
<title>Node18&#45;&gt;Node19</title>
<path fill="none" stroke="midnightblue" d="M885.77,-112.08C880.88,-104.53 873.72,-93.49 867.72,-84.23"/>
<polygon fill="midnightblue" stroke="midnightblue" points="870.6,-82.24 862.22,-75.75 864.72,-86.05 870.6,-82.24"/>
</g>
<!-- Node20 -->
<g id="node20" class="node">
<title>Node20</title>
<g id="a_node20"><a xlink:title=" ">
<polygon fill="white" stroke="#bfbfbf" points="896.55,-56.5 896.55,-75.5 942.55,-75.5 942.55,-56.5 896.55,-56.5"/>
<text text-anchor="middle" x="919.55" y="-63.5" font-family="Helvetica" font-size="10.00">cstring</text>
</a>
</g>
</g>
<!-- Node18&#45;&gt;Node20 -->
<g id="edge28" class="edge">
<title>Node18&#45;&gt;Node20</title>
<path fill="none" stroke="midnightblue" d="M896.17,-112.08C900.01,-104.69 905.57,-93.95 910.31,-84.81"/>
<polygon fill="midnightblue" stroke="midnightblue" points="913.52,-86.24 915.01,-75.75 907.3,-83.02 913.52,-86.24"/>
</g>
<!-- Node24&#45;&gt;Node18 -->
<g id="edge34" class="edge">
<title>Node24&#45;&gt;Node18</title>
<path fill="none" stroke="midnightblue" d="M825.24,-168.32C837.45,-159.98 856.13,-147.21 870.55,-137.35"/>
<polygon fill="midnightblue" stroke="midnightblue" points="872.61,-140.19 878.89,-131.65 868.66,-134.41 872.61,-140.19"/>
</g>
<!-- Node25 -->
<g id="node25" class="node">
<title>Node25</title>
<g id="a_node25"><a xlink:title=" ">
<polygon fill="white" stroke="#bfbfbf" points="937.05,-112.5 937.05,-131.5 984.05,-131.5 984.05,-112.5 937.05,-112.5"/>
<text text-anchor="middle" x="960.55" y="-119.5" font-family="Helvetica" font-size="10.00">libutil.h</text>
</a>
</g>
</g>
<!-- Node24&#45;&gt;Node25 -->
<g id="edge35" class="edge">
<title>Node24&#45;&gt;Node25</title>
<path fill="none" stroke="midnightblue" d="M836,-168.44C860.68,-159.44 899.73,-145.19 927.53,-135.05"/>
<polygon fill="midnightblue" stroke="midnightblue" points="929.01,-138.23 937.21,-131.52 926.61,-131.66 929.01,-138.23"/>
</g>
<!-- Node26&#45;&gt;Node18 -->
<g id="edge37" class="edge">
<title>Node26&#45;&gt;Node18</title>
<path fill="none" stroke="midnightblue" d="M907.41,-168.08C904.87,-160.85 901.19,-150.41 898.02,-141.4"/>
<polygon fill="midnightblue" stroke="midnightblue" points="901.25,-140.02 894.63,-131.75 894.65,-142.35 901.25,-140.02"/>
</g>
<!-- Node27 -->
<g id="node27" class="node">
<title>Node27</title>
<g id="a_node27"><a xlink:title=" ">
<polygon fill="white" stroke="#bfbfbf" points="1002.05,-112.5 1002.05,-131.5 1049.05,-131.5 1049.05,-112.5 1002.05,-112.5"/>
<text text-anchor="middle" x="1025.55" y="-119.5" font-family="Helvetica" font-size="10.00">csignal</text>
</a>
</g>
</g>
<!-- Node26&#45;&gt;Node27 -->
<g id="edge38" class="edge">
<title>Node26&#45;&gt;Node27</title>
<path fill="none" stroke="midnightblue" d="M928.77,-168.44C947.44,-159.68 976.7,-145.94 998.17,-135.86"/>
<polygon fill="midnightblue" stroke="midnightblue" points="999.85,-138.93 1007.41,-131.52 996.87,-132.6 999.85,-138.93"/>
</g>
<!-- Node28&#45;&gt;Node6 -->
<g id="edge40" class="edge">
<title>Node28&#45;&gt;Node6</title>
<path fill="none" stroke="midnightblue" d="M1017.55,-58.49C968.32,-48.14 872.76,-28.06 823.15,-17.64"/>
<polygon fill="midnightblue" stroke="midnightblue" points="823.8,-14.2 813.3,-15.57 822.37,-21.05 823.8,-14.2"/>
</g>
</g>
</svg>
