<?xml version="1.0" encoding="UTF-8" standalone="no"?>
<!DOCTYPE svg PUBLIC "-//W3C//DTD SVG 1.1//EN"
 "http://www.w3.org/Graphics/SVG/1.1/DTD/svg11.dtd">
<!-- Generated by graphviz version 2.40.1 (20161225.0304)
 -->
<!-- Title: powerd++.cpp Pages: 1 -->
<svg width="1411pt" height="252pt"
 viewBox="0.00 0.00 1411.00 252.00" xmlns="http://www.w3.org/2000/svg" xmlns:xlink="http://www.w3.org/1999/xlink">
<g id="graph0" class="graph" transform="scale(1 1) rotate(0) translate(4 248)">
<title>powerd++.cpp</title>
<polygon fill="#ffffff" stroke="transparent" points="-4,4 -4,-248 1407,-248 1407,4 -4,4"/>
<!-- Node0 -->
<g id="node1" class="node">
<title>Node0</title>
<polygon fill="#bfbfbf" stroke="#000000" points="712,-224.5 712,-243.5 791,-243.5 791,-224.5 712,-224.5"/>
<text text-anchor="middle" x="751.5" y="-231.5" font-family="Helvetica,sans-Serif" font-size="10.00" fill="#000000">powerd++.cpp</text>
</g>
<!-- Node1 -->
<g id="node2" class="node">
<title>Node1</title>
<g id="a_node2"><a xlink:href="Options_8hpp.html" target="_top" xlink:title="This file provides nih::Options&lt;&gt;, a substitute for getopt(3). ">
<polygon fill="#ffffff" stroke="#000000" points="154,-168.5 154,-187.5 223,-187.5 223,-168.5 154,-168.5"/>
<text text-anchor="middle" x="188.5" y="-175.5" font-family="Helvetica,sans-Serif" font-size="10.00" fill="#000000">Options.hpp</text>
</a>
</g>
</g>
<!-- Node0&#45;&gt;Node1 -->
<g id="edge1" class="edge">
<title>Node0&#45;&gt;Node1</title>
<path fill="none" stroke="#191970" d="M711.9262,-230.3362C630.6685,-222.7725 439.1352,-204.7344 278.5,-188 263.7784,-186.4664 247.7124,-184.7082 233.2818,-183.0982"/>
<polygon fill="#191970" stroke="#191970" points="233.4335,-179.5933 223.1058,-181.9573 232.6536,-186.5498 233.4335,-179.5933"/>
</g>
<!-- Node7 -->
<g id="node8" class="node">
<title>Node7</title>
<g id="a_node8"><a xlink:href="Cycle_8hpp.html" target="_top" xlink:title="Implements timing::Cycle, a cyclic sleep functor. ">
<polygon fill="#ffffff" stroke="#000000" points="288,-168.5 288,-187.5 349,-187.5 349,-168.5 288,-168.5"/>
<text text-anchor="middle" x="318.5" y="-175.5" font-family="Helvetica,sans-Serif" font-size="10.00" fill="#000000">Cycle.hpp</text>
</a>
</g>
</g>
<!-- Node0&#45;&gt;Node7 -->
<g id="edge7" class="edge">
<title>Node0&#45;&gt;Node7</title>
<path fill="none" stroke="#191970" d="M711.9253,-231.0603C642.5153,-225.5383 494.1979,-212.1093 359.5082,-187.9795"/>
<polygon fill="#191970" stroke="#191970" points="359.8879,-184.4913 349.4234,-186.1478 358.6369,-191.3786 359.8879,-184.4913"/>
</g>
<!-- Node10 -->
<g id="node11" class="node">
<title>Node10</title>
<g id="a_node11"><a xlink:href="types_8hpp.html" target="_top" xlink:title="A collection of type aliases. ">
<polygon fill="#ffffff" stroke="#000000" points="419,-112.5 419,-131.5 478,-131.5 478,-112.5 419,-112.5"/>
<text text-anchor="middle" x="448.5" y="-119.5" font-family="Helvetica,sans-Serif" font-size="10.00" fill="#000000">types.hpp</text>
</a>
</g>
</g>
<!-- Node0&#45;&gt;Node10 -->
<g id="edge10" class="edge">
<title>Node0&#45;&gt;Node10</title>
<path fill="none" stroke="#191970" d="M711.8511,-230.3937C649.6813,-224.152 532.7169,-209.8669 497.5,-188 479.3993,-176.7609 465.7455,-156.1835 457.508,-140.9824"/>
<polygon fill="#191970" stroke="#191970" points="460.5474,-139.2383 452.8847,-131.9216 454.3122,-142.4199 460.5474,-139.2383"/>
</g>
<!-- Node11 -->
<g id="node12" class="node">
<title>Node11</title>
<g id="a_node12"><a xlink:href="constants_8hpp.html" target="_top" xlink:title="Defines a collection of constants. ">
<polygon fill="#ffffff" stroke="#000000" points="367.5,-168.5 367.5,-187.5 445.5,-187.5 445.5,-168.5 367.5,-168.5"/>
<text text-anchor="middle" x="406.5" y="-175.5" font-family="Helvetica,sans-Serif" font-size="10.00" fill="#000000">constants.hpp</text>
</a>
</g>
</g>
<!-- Node0&#45;&gt;Node11 -->
<g id="edge12" class="edge">
<title>Node0&#45;&gt;Node11</title>
<path fill="none" stroke="#191970" d="M711.7641,-228.1296C655.5206,-219.7319 549.5109,-203.5778 459.5,-188 458.2285,-187.7799 456.9402,-187.5546 455.6408,-187.3252"/>
<polygon fill="#191970" stroke="#191970" points="456.0126,-183.8359 445.5503,-185.5064 454.7708,-190.7248 456.0126,-183.8359"/>
</g>
<!-- Node12 -->
<g id="node13" class="node">
<title>Node12</title>
<g id="a_node13"><a xlink:href="errors_8hpp.html" target="_top" xlink:title="Common error handling code. ">
<polygon fill="#ffffff" stroke="#000000" points="534.5,-112.5 534.5,-131.5 594.5,-131.5 594.5,-112.5 534.5,-112.5"/>
<text text-anchor="middle" x="564.5" y="-119.5" font-family="Helvetica,sans-Serif" font-size="10.00" fill="#000000">errors.hpp</text>
</a>
</g>
</g>
<!-- Node0&#45;&gt;Node12 -->
<g id="edge14" class="edge">
<title>Node0&#45;&gt;Node12</title>
<path fill="none" stroke="#191970" d="M711.8495,-225.4329C685.0165,-218.3514 649.6519,-206.4237 622.5,-188 603.6845,-175.2329 587.116,-154.9568 576.5571,-140.2449"/>
<polygon fill="#191970" stroke="#191970" points="579.3633,-138.1495 570.7929,-131.9206 573.6084,-142.1345 579.3633,-138.1495"/>
</g>
<!-- Node13 -->
<g id="node14" class="node">
<title>Node13</title>
<g id="a_node14"><a xlink:href="utility_8hpp.html" target="_top" xlink:title="Implements generally useful functions. ">
<polygon fill="#ffffff" stroke="#000000" points="535,-56.5 535,-75.5 594,-75.5 594,-56.5 535,-56.5"/>
<text text-anchor="middle" x="564.5" y="-63.5" font-family="Helvetica,sans-Serif" font-size="10.00" fill="#000000">utility.hpp</text>
</a>
</g>
</g>
<!-- Node0&#45;&gt;Node13 -->
<g id="edge26" class="edge">
<title>Node0&#45;&gt;Node13</title>
<path fill="none" stroke="#191970" d="M711.6496,-230.6542C656.3582,-223.5081 559.354,-201.2191 525.5,-132 516.9947,-114.6097 530.7446,-95.6745 544.2056,-82.564"/>
<polygon fill="#191970" stroke="#191970" points="546.863,-84.8795 551.9274,-75.5735 542.165,-79.6901 546.863,-84.8795"/>
</g>
<!-- Node16 -->
<g id="node17" class="node">
<title>Node16</title>
<g id="a_node17"><a xlink:href="clas_8hpp.html" target="_top" xlink:title="Implements functions to process command line arguments. ">
<polygon fill="#ffffff" stroke="#000000" points="632,-168.5 632,-187.5 685,-187.5 685,-168.5 632,-168.5"/>
<text text-anchor="middle" x="658.5" y="-175.5" font-family="Helvetica,sans-Serif" font-size="10.00" fill="#000000">clas.hpp</text>
</a>
</g>
</g>
<!-- Node0&#45;&gt;Node16 -->
<g id="edge19" class="edge">
<title>Node0&#45;&gt;Node16</title>
<path fill="none" stroke="#191970" d="M735.3006,-224.2455C720.8982,-215.5731 699.6268,-202.7645 683.1201,-192.825"/>
<polygon fill="#191970" stroke="#191970" points="684.886,-189.8028 674.5137,-187.6427 681.275,-195.7996 684.886,-189.8028"/>
</g>
<!-- Node17 -->
<g id="node18" class="node">
<title>Node17</title>
<polygon fill="#ffffff" stroke="#bfbfbf" points="689,-112.5 689,-131.5 734,-131.5 734,-112.5 689,-112.5"/>
<text text-anchor="middle" x="711.5" y="-119.5" font-family="Helvetica,sans-Serif" font-size="10.00" fill="#000000">cstdlib</text>
</g>
<!-- Node0&#45;&gt;Node17 -->
<g id="edge45" class="edge">
<title>Node0&#45;&gt;Node17</title>
<path fill="none" stroke="#191970" d="M748.0896,-224.4509C741.5067,-206.0186 726.9376,-165.2254 718.3011,-141.043"/>
<polygon fill="#191970" stroke="#191970" points="721.5613,-139.7651 714.9017,-131.5249 714.9691,-142.1195 721.5613,-139.7651"/>
</g>
<!-- Node18 -->
<g id="node19" class="node">
<title>Node18</title>
<polygon fill="#ffffff" stroke="#bfbfbf" points="752.5,-112.5 752.5,-131.5 794.5,-131.5 794.5,-112.5 752.5,-112.5"/>
<text text-anchor="middle" x="773.5" y="-119.5" font-family="Helvetica,sans-Serif" font-size="10.00" fill="#000000">locale</text>
</g>
<!-- Node0&#45;&gt;Node18 -->
<g id="edge42" class="edge">
<title>Node0&#45;&gt;Node18</title>
<path fill="none" stroke="#191970" d="M753.3757,-224.4509C756.9801,-206.1013 764.9375,-165.5908 769.6953,-141.3693"/>
<polygon fill="#191970" stroke="#191970" points="773.1359,-142.012 771.629,-131.5249 766.2671,-140.6627 773.1359,-142.012"/>
</g>
<!-- Node19 -->
<g id="node20" class="node">
<title>Node19</title>
<g id="a_node20"><a xlink:href="sysctl_8hpp.html" target="_top" xlink:title="Implements safer c++ wrappers for the sysctl() interface. ">
<polygon fill="#ffffff" stroke="#000000" points="817.5,-168.5 817.5,-187.5 897.5,-187.5 897.5,-168.5 817.5,-168.5"/>
<text text-anchor="middle" x="857.5" y="-175.5" font-family="Helvetica,sans-Serif" font-size="10.00" fill="#000000">sys/sysctl.hpp</text>
</a>
</g>
</g>
<!-- Node0&#45;&gt;Node19 -->
<g id="edge27" class="edge">
<title>Node0&#45;&gt;Node19</title>
<path fill="none" stroke="#191970" d="M769.9638,-224.2455C786.6074,-215.4527 811.2993,-202.4079 830.2192,-192.4125"/>
<polygon fill="#191970" stroke="#191970" points="832.0408,-195.4086 839.2478,-187.6427 828.7709,-189.2193 832.0408,-195.4086"/>
</g>
<!-- Node23 -->
<g id="node24" class="node">
<title>Node23</title>
<polygon fill="#ffffff" stroke="#bfbfbf" points="812.5,-112.5 812.5,-131.5 864.5,-131.5 864.5,-112.5 812.5,-112.5"/>
<text text-anchor="middle" x="838.5" y="-119.5" font-family="Helvetica,sans-Serif" font-size="10.00" fill="#000000">memory</text>
</g>
<!-- Node0&#45;&gt;Node23 -->
<g id="edge43" class="edge">
<title>Node0&#45;&gt;Node23</title>
<path fill="none" stroke="#191970" d="M758.9176,-224.4509C773.5565,-205.6054 806.3528,-163.3849 824.9514,-139.4419"/>
<polygon fill="#191970" stroke="#191970" points="827.7307,-141.5693 831.1012,-131.5249 822.2026,-137.2751 827.7307,-141.5693"/>
</g>
<!-- Node26 -->
<g id="node27" class="node">
<title>Node26</title>
<g id="a_node27"><a xlink:href="pidfile_8hpp.html" target="_top" xlink:title="Implements safer c++ wrappers for the pidfile_*() interface. ">
<polygon fill="#ffffff" stroke="#000000" points="915.5,-168.5 915.5,-187.5 995.5,-187.5 995.5,-168.5 915.5,-168.5"/>
<text text-anchor="middle" x="955.5" y="-175.5" font-family="Helvetica,sans-Serif" font-size="10.00" fill="#000000">sys/pidfile.hpp</text>
</a>
</g>
</g>
<!-- Node0&#45;&gt;Node26 -->
<g id="edge35" class="edge">
<title>Node0&#45;&gt;Node26</title>
<path fill="none" stroke="#191970" d="M786.5689,-224.3733C820.9315,-214.9404 873.4392,-200.5265 910.7851,-190.2747"/>
<polygon fill="#191970" stroke="#191970" points="912.172,-193.5235 920.8888,-187.5011 910.319,-186.7732 912.172,-193.5235"/>
</g>
<!-- Node28 -->
<g id="node29" class="node">
<title>Node28</title>
<g id="a_node29"><a xlink:href="signal_8hpp.html" target="_top" xlink:title="Implements a c++ wrapper for the signal(3) call. ">
<polygon fill="#ffffff" stroke="#000000" points="1013.5,-168.5 1013.5,-187.5 1093.5,-187.5 1093.5,-168.5 1013.5,-168.5"/>
<text text-anchor="middle" x="1053.5" y="-175.5" font-family="Helvetica,sans-Serif" font-size="10.00" fill="#000000">sys/signal.hpp</text>
</a>
</g>
</g>
<!-- Node0&#45;&gt;Node28 -->
<g id="edge38" class="edge">
<title>Node0&#45;&gt;Node28</title>
<path fill="none" stroke="#191970" d="M791.425,-227.0139C839.3765,-218.5629 922.5057,-203.721 1003.534,-188.1573"/>
<polygon fill="#191970" stroke="#191970" points="1004.2453,-191.5847 1013.4026,-186.2561 1002.921,-184.7111 1004.2453,-191.5847"/>
</g>
<!-- Node30 -->
<g id="node31" class="node">
<title>Node30</title>
<polygon fill="#ffffff" stroke="#bfbfbf" points="1111.5,-168.5 1111.5,-187.5 1165.5,-187.5 1165.5,-168.5 1111.5,-168.5"/>
<text text-anchor="middle" x="1138.5" y="-175.5" font-family="Helvetica,sans-Serif" font-size="10.00" fill="#000000">iostream</text>
</g>
<!-- Node0&#45;&gt;Node30 -->
<g id="edge41" class="edge">
<title>Node0&#45;&gt;Node30</title>
<path fill="none" stroke="#191970" d="M791.0155,-230.6488C854.5248,-224.8664 983.3365,-211.5074 1101.5308,-187.9574"/>
<polygon fill="#191970" stroke="#191970" points="1102.3643,-191.3597 1111.4721,-185.947 1100.9768,-184.4986 1102.3643,-191.3597"/>
</g>
<!-- Node31 -->
<g id="node32" class="node">
<title>Node31</title>
<polygon fill="#ffffff" stroke="#bfbfbf" points="1183.5,-168.5 1183.5,-187.5 1239.5,-187.5 1239.5,-168.5 1183.5,-168.5"/>
<text text-anchor="middle" x="1211.5" y="-175.5" font-family="Helvetica,sans-Serif" font-size="10.00" fill="#000000">algorithm</text>
</g>
<!-- Node0&#45;&gt;Node31 -->
<g id="edge44" class="edge">
<title>Node0&#45;&gt;Node31</title>
<path fill="none" stroke="#191970" d="M791.1657,-231.7526C864.7431,-227.1385 1027.4148,-214.8515 1173.295,-187.9763"/>
<polygon fill="#191970" stroke="#191970" points="1174.1369,-191.3796 1183.3228,-186.1005 1172.8498,-184.4989 1174.1369,-191.3796"/>
</g>
<!-- Node32 -->
<g id="node33" class="node">
<title>Node32</title>
<polygon fill="#ffffff" stroke="#bfbfbf" points="1257.5,-168.5 1257.5,-187.5 1303.5,-187.5 1303.5,-168.5 1257.5,-168.5"/>
<text text-anchor="middle" x="1280.5" y="-175.5" font-family="Helvetica,sans-Serif" font-size="10.00" fill="#000000">cstdint</text>
</g>
<!-- Node0&#45;&gt;Node32 -->
<g id="edge46" class="edge">
<title>Node0&#45;&gt;Node32</title>
<path fill="none" stroke="#191970" d="M791.2088,-233.1546C874.4235,-230.7779 1073.1345,-221.9326 1247.3736,-187.8548"/>
<polygon fill="#191970" stroke="#191970" points="1248.1034,-191.2783 1257.2286,-185.8948 1246.738,-184.4127 1248.1034,-191.2783"/>
</g>
<!-- Node33 -->
<g id="node34" class="node">
<title>Node33</title>
<polygon fill="#ffffff" stroke="#bfbfbf" points="1322,-168.5 1322,-187.5 1403,-187.5 1403,-168.5 1322,-168.5"/>
<text text-anchor="middle" x="1362.5" y="-175.5" font-family="Helvetica,sans-Serif" font-size="10.00" fill="#000000">sys/resource.h</text>
</g>
<!-- Node0&#45;&gt;Node33 -->
<g id="edge47" class="edge">
<title>Node0&#45;&gt;Node33</title>
<path fill="none" stroke="#191970" d="M791.1224,-232.3274C881.5543,-228.1722 1110.2281,-215.7541 1311.7271,-187.9479"/>
<polygon fill="#191970" stroke="#191970" points="1312.4881,-191.3757 1321.9081,-186.5264 1311.5201,-184.4429 1312.4881,-191.3757"/>
</g>
<!-- Node2 -->
<g id="node3" class="node">
<title>Node2</title>
<polygon fill="#ffffff" stroke="#bfbfbf" points="0,-112.5 0,-131.5 49,-131.5 49,-112.5 0,-112.5"/>
<text text-anchor="middle" x="24.5" y="-119.5" font-family="Helvetica,sans-Serif" font-size="10.00" fill="#000000">cstddef</text>
</g>
<!-- Node1&#45;&gt;Node2 -->
<g id="edge2" class="edge">
<title>Node1&#45;&gt;Node2</title>
<path fill="none" stroke="#191970" d="M160.3074,-168.3733C132.1674,-158.7645 88.891,-143.9872 58.7806,-133.7056"/>
<polygon fill="#191970" stroke="#191970" points="59.7094,-130.3243 49.1148,-130.4051 57.4473,-136.9488 59.7094,-130.3243"/>
</g>
<!-- Node3 -->
<g id="node4" class="node">
<title>Node3</title>
<polygon fill="#ffffff" stroke="#bfbfbf" points="67.5,-112.5 67.5,-131.5 117.5,-131.5 117.5,-112.5 67.5,-112.5"/>
<text text-anchor="middle" x="92.5" y="-119.5" font-family="Helvetica,sans-Serif" font-size="10.00" fill="#000000">iomanip</text>
</g>
<!-- Node1&#45;&gt;Node3 -->
<g id="edge3" class="edge">
<title>Node1&#45;&gt;Node3</title>
<path fill="none" stroke="#191970" d="M171.7781,-168.2455C156.9111,-159.5731 134.9534,-146.7645 117.9142,-136.825"/>
<polygon fill="#191970" stroke="#191970" points="119.4317,-133.6582 109.0303,-131.6427 115.9045,-139.7047 119.4317,-133.6582"/>
</g>
<!-- Node4 -->
<g id="node5" class="node">
<title>Node4</title>
<polygon fill="#ffffff" stroke="#bfbfbf" points="135.5,-112.5 135.5,-131.5 187.5,-131.5 187.5,-112.5 135.5,-112.5"/>
<text text-anchor="middle" x="161.5" y="-119.5" font-family="Helvetica,sans-Serif" font-size="10.00" fill="#000000">sstream</text>
</g>
<!-- Node1&#45;&gt;Node4 -->
<g id="edge4" class="edge">
<title>Node1&#45;&gt;Node4</title>
<path fill="none" stroke="#191970" d="M183.797,-168.2455C180.1576,-160.6973 175.0076,-150.0158 170.5738,-140.8197"/>
<polygon fill="#191970" stroke="#191970" points="173.6449,-139.1303 166.1491,-131.6427 167.3395,-142.1704 173.6449,-139.1303"/>
</g>
<!-- Node5 -->
<g id="node6" class="node">
<title>Node5</title>
<polygon fill="#ffffff" stroke="#bfbfbf" points="323.5,-.5 323.5,-19.5 385.5,-19.5 385.5,-.5 323.5,-.5"/>
<text text-anchor="middle" x="354.5" y="-7.5" font-family="Helvetica,sans-Serif" font-size="10.00" fill="#000000">type_traits</text>
</g>
<!-- Node1&#45;&gt;Node5 -->
<g id="edge5" class="edge">
<title>Node1&#45;&gt;Node5</title>
<path fill="none" stroke="#191970" d="M194.053,-168.4772C202.0737,-155.1214 217.7826,-130.4009 234.5,-112 265.4203,-77.9659 307.5016,-44.6296 332.7367,-25.7616"/>
<polygon fill="#191970" stroke="#191970" points="334.9553,-28.474 340.9142,-19.7137 330.7929,-22.8459 334.9553,-28.474"/>
</g>
<!-- Node6 -->
<g id="node7" class="node">
<title>Node6</title>
<polygon fill="#ffffff" stroke="#bfbfbf" points="352,-112.5 352,-131.5 401,-131.5 401,-112.5 352,-112.5"/>
<text text-anchor="middle" x="376.5" y="-119.5" font-family="Helvetica,sans-Serif" font-size="10.00" fill="#000000">cassert</text>
</g>
<!-- Node1&#45;&gt;Node6 -->
<g id="edge6" class="edge">
<title>Node1&#45;&gt;Node6</title>
<path fill="none" stroke="#191970" d="M220.8184,-168.3733C254.6438,-158.2976 307.5478,-142.539 342.1235,-132.2398"/>
<polygon fill="#191970" stroke="#191970" points="343.2063,-135.5693 351.7909,-129.3601 341.2079,-128.8606 343.2063,-135.5693"/>
</g>
<!-- Node8 -->
<g id="node9" class="node">
<title>Node8</title>
<polygon fill="#ffffff" stroke="#bfbfbf" points="362.5,-56.5 362.5,-75.5 408.5,-75.5 408.5,-56.5 362.5,-56.5"/>
<text text-anchor="middle" x="385.5" y="-63.5" font-family="Helvetica,sans-Serif" font-size="10.00" fill="#000000">chrono</text>
</g>
<!-- Node7&#45;&gt;Node8 -->
<g id="edge8" class="edge">
<title>Node7&#45;&gt;Node8</title>
<path fill="none" stroke="#191970" d="M320.7792,-168.0512C324.1434,-154.6274 331.2795,-130.2913 342.5,-112 349.0844,-101.2663 358.4491,-90.8789 366.759,-82.6993"/>
<polygon fill="#191970" stroke="#191970" points="369.4135,-85.0064 374.2779,-75.5942 364.6057,-79.9186 369.4135,-85.0064"/>
</g>
<!-- Node9 -->
<g id="node10" class="node">
<title>Node9</title>
<polygon fill="#ffffff" stroke="#bfbfbf" points="244,-112.5 244,-131.5 295,-131.5 295,-112.5 244,-112.5"/>
<text text-anchor="middle" x="269.5" y="-119.5" font-family="Helvetica,sans-Serif" font-size="10.00" fill="#000000">unistd.h</text>
</g>
<!-- Node7&#45;&gt;Node9 -->
<g id="edge9" class="edge">
<title>Node7&#45;&gt;Node9</title>
<path fill="none" stroke="#191970" d="M309.9649,-168.2455C303.0088,-160.2958 293.0117,-148.8706 284.6949,-139.3656"/>
<polygon fill="#191970" stroke="#191970" points="287.1564,-136.8637 277.9373,-131.6427 281.8884,-141.4732 287.1564,-136.8637"/>
</g>
<!-- Node10&#45;&gt;Node8 -->
<g id="edge11" class="edge">
<title>Node10&#45;&gt;Node8</title>
<path fill="none" stroke="#191970" d="M437.5262,-112.2455C428.3118,-104.0549 414.9468,-92.1749 404.0703,-82.5069"/>
<polygon fill="#191970" stroke="#191970" points="406.1474,-79.6704 396.348,-75.6427 401.4968,-84.9023 406.1474,-79.6704"/>
</g>
<!-- Node11&#45;&gt;Node10 -->
<g id="edge13" class="edge">
<title>Node11&#45;&gt;Node10</title>
<path fill="none" stroke="#191970" d="M413.8158,-168.2455C419.7179,-160.3761 428.1742,-149.101 435.2594,-139.6542"/>
<polygon fill="#191970" stroke="#191970" points="438.068,-141.7427 441.268,-131.6427 432.4679,-137.5427 438.068,-141.7427"/>
</g>
<!-- Node12&#45;&gt;Node13 -->
<g id="edge15" class="edge">
<title>Node12&#45;&gt;Node13</title>
<path fill="none" stroke="#191970" d="M564.5,-112.2455C564.5,-104.9382 564.5,-94.6944 564.5,-85.7046"/>
<polygon fill="#191970" stroke="#191970" points="568.0001,-85.6426 564.5,-75.6427 561.0001,-85.6427 568.0001,-85.6426"/>
</g>
<!-- Node13&#45;&gt;Node5 -->
<g id="edge16" class="edge">
<title>Node13&#45;&gt;Node5</title>
<path fill="none" stroke="#191970" d="M534.8575,-58.0953C498.4052,-48.3747 436.3423,-31.8246 395.3788,-20.901"/>
<polygon fill="#191970" stroke="#191970" points="396.2668,-17.5156 385.7026,-18.3207 394.4631,-24.2792 396.2668,-17.5156"/>
</g>
<!-- Node14 -->
<g id="node15" class="node">
<title>Node14</title>
<polygon fill="#ffffff" stroke="#bfbfbf" points="622,-.5 622,-19.5 663,-19.5 663,-.5 622,-.5"/>
<text text-anchor="middle" x="642.5" y="-7.5" font-family="Helvetica,sans-Serif" font-size="10.00" fill="#000000">string</text>
</g>
<!-- Node13&#45;&gt;Node14 -->
<g id="edge17" class="edge">
<title>Node13&#45;&gt;Node14</title>
<path fill="none" stroke="#191970" d="M578.0866,-56.2455C589.8305,-47.814 607.0199,-35.4729 620.6882,-25.6598"/>
<polygon fill="#191970" stroke="#191970" points="622.9871,-28.3179 629.0691,-19.6427 618.9046,-22.6316 622.9871,-28.3179"/>
</g>
<!-- Node15 -->
<g id="node16" class="node">
<title>Node15</title>
<polygon fill="#ffffff" stroke="#bfbfbf" points="543,-.5 543,-19.5 586,-19.5 586,-.5 543,-.5"/>
<text text-anchor="middle" x="564.5" y="-7.5" font-family="Helvetica,sans-Serif" font-size="10.00" fill="#000000">cstdio</text>
</g>
<!-- Node13&#45;&gt;Node15 -->
<g id="edge18" class="edge">
<title>Node13&#45;&gt;Node15</title>
<path fill="none" stroke="#191970" d="M564.5,-56.2455C564.5,-48.9382 564.5,-38.6944 564.5,-29.7046"/>
<polygon fill="#191970" stroke="#191970" points="568.0001,-29.6426 564.5,-19.6427 561.0001,-29.6427 568.0001,-29.6426"/>
</g>
<!-- Node16&#45;&gt;Node10 -->
<g id="edge20" class="edge">
<title>Node16&#45;&gt;Node10</title>
<path fill="none" stroke="#191970" d="M631.9034,-170.9076C595.6054,-161.2281 530.2649,-143.804 488.1697,-132.5786"/>
<polygon fill="#191970" stroke="#191970" points="488.8247,-129.131 478.2605,-129.9361 487.021,-135.8947 488.8247,-129.131"/>
</g>
<!-- Node16&#45;&gt;Node12 -->
<g id="edge21" class="edge">
<title>Node16&#45;&gt;Node12</title>
<path fill="none" stroke="#191970" d="M642.1264,-168.2455C627.5692,-159.5731 606.069,-146.7645 589.3848,-136.825"/>
<polygon fill="#191970" stroke="#191970" points="591.0683,-133.7539 580.6859,-131.6427 587.4856,-139.7676 591.0683,-133.7539"/>
</g>
<!-- Node16&#45;&gt;Node13 -->
<g id="edge22" class="edge">
<title>Node16&#45;&gt;Node13</title>
<path fill="none" stroke="#191970" d="M650.326,-168.1382C639.6065,-155.2175 620.1991,-131.8668 603.5,-112 595.6179,-102.6227 586.7943,-92.2085 579.5362,-83.6638"/>
<polygon fill="#191970" stroke="#191970" points="582.0367,-81.2015 572.8928,-75.85 576.7037,-85.7358 582.0367,-81.2015"/>
</g>
<!-- Node16&#45;&gt;Node14 -->
<g id="edge24" class="edge">
<title>Node16&#45;&gt;Node14</title>
<path fill="none" stroke="#191970" d="M657.5939,-168.4862C655.0647,-141.9293 647.8872,-66.5651 644.4205,-30.1655"/>
<polygon fill="#191970" stroke="#191970" points="647.8684,-29.451 643.436,-19.8279 640.8999,-30.1147 647.8684,-29.451"/>
</g>
<!-- Node16&#45;&gt;Node17 -->
<g id="edge23" class="edge">
<title>Node16&#45;&gt;Node17</title>
<path fill="none" stroke="#191970" d="M667.7319,-168.2455C675.3317,-160.2155 686.2877,-148.6394 695.3368,-139.0781"/>
<polygon fill="#191970" stroke="#191970" points="698.0421,-141.3115 702.3739,-131.6427 692.958,-136.4998 698.0421,-141.3115"/>
</g>
<!-- Node16&#45;&gt;Node18 -->
<g id="edge25" class="edge">
<title>Node16&#45;&gt;Node18</title>
<path fill="none" stroke="#191970" d="M678.2692,-168.3733C696.6469,-159.4241 724.2312,-145.9917 744.9893,-135.8835"/>
<polygon fill="#191970" stroke="#191970" points="746.5304,-139.026 753.9888,-131.5011 743.4657,-132.7325 746.5304,-139.026"/>
</g>
<!-- Node19&#45;&gt;Node6 -->
<g id="edge32" class="edge">
<title>Node19&#45;&gt;Node6</title>
<path fill="none" stroke="#191970" d="M817.4995,-174.8837C726.2572,-167.6211 504.0526,-149.0233 411.128,-131.9638"/>
<polygon fill="#191970" stroke="#191970" points="411.7187,-128.5132 401.2362,-130.0524 410.3906,-135.3861 411.7187,-128.5132"/>
</g>
<!-- Node20 -->
<g id="node21" class="node">
<title>Node20</title>
<g id="a_node21"><a xlink:href="error_8hpp.html" target="_top" xlink:title="Provides system call error handling. ">
<polygon fill="#ffffff" stroke="#000000" points="1057,-112.5 1057,-131.5 1112,-131.5 1112,-112.5 1057,-112.5"/>
<text text-anchor="middle" x="1084.5" y="-119.5" font-family="Helvetica,sans-Serif" font-size="10.00" fill="#000000">error.hpp</text>
</a>
</g>
</g>
<!-- Node19&#45;&gt;Node20 -->
<g id="edge28" class="edge">
<title>Node19&#45;&gt;Node20</title>
<path fill="none" stroke="#191970" d="M897.6086,-168.6145C934.0092,-160.0242 989.4086,-146.7705 1046.6845,-132.1624"/>
<polygon fill="#191970" stroke="#191970" points="1047.8206,-135.4845 1056.6405,-129.6142 1046.0849,-128.7031 1047.8206,-135.4845"/>
</g>
<!-- Node19&#45;&gt;Node23 -->
<g id="edge31" class="edge">
<title>Node19&#45;&gt;Node23</title>
<path fill="none" stroke="#191970" d="M854.1905,-168.2455C851.6567,-160.7776 848.0823,-150.2427 844.985,-141.1137"/>
<polygon fill="#191970" stroke="#191970" points="848.2991,-139.9879 841.7716,-131.6427 841.6702,-142.237 848.2991,-139.9879"/>
</g>
<!-- Node24 -->
<g id="node25" class="node">
<title>Node24</title>
<polygon fill="#ffffff" stroke="#bfbfbf" points="882.5,-112.5 882.5,-131.5 950.5,-131.5 950.5,-112.5 882.5,-112.5"/>
<text text-anchor="middle" x="916.5" y="-119.5" font-family="Helvetica,sans-Serif" font-size="10.00" fill="#000000">sys/types.h</text>
</g>
<!-- Node19&#45;&gt;Node24 -->
<g id="edge33" class="edge">
<title>Node19&#45;&gt;Node24</title>
<path fill="none" stroke="#191970" d="M867.777,-168.2455C876.3218,-160.1352 888.6778,-148.4075 898.8085,-138.7919"/>
<polygon fill="#191970" stroke="#191970" points="901.4972,-141.0655 906.3408,-131.6427 896.6782,-135.9884 901.4972,-141.0655"/>
</g>
<!-- Node25 -->
<g id="node26" class="node">
<title>Node25</title>
<polygon fill="#ffffff" stroke="#bfbfbf" points="968.5,-112.5 968.5,-131.5 1038.5,-131.5 1038.5,-112.5 968.5,-112.5"/>
<text text-anchor="middle" x="1003.5" y="-119.5" font-family="Helvetica,sans-Serif" font-size="10.00" fill="#000000">sys/sysctl.h</text>
</g>
<!-- Node19&#45;&gt;Node25 -->
<g id="edge34" class="edge">
<title>Node19&#45;&gt;Node25</title>
<path fill="none" stroke="#191970" d="M882.5983,-168.3733C906.4555,-159.2226 942.5335,-145.3844 969.071,-135.2057"/>
<polygon fill="#191970" stroke="#191970" points="970.6459,-138.3503 978.7292,-131.5011 968.139,-131.8145 970.6459,-138.3503"/>
</g>
<!-- Node21 -->
<g id="node22" class="node">
<title>Node21</title>
<polygon fill="#ffffff" stroke="#bfbfbf" points="1030.5,-56.5 1030.5,-75.5 1074.5,-75.5 1074.5,-56.5 1030.5,-56.5"/>
<text text-anchor="middle" x="1052.5" y="-63.5" font-family="Helvetica,sans-Serif" font-size="10.00" fill="#000000">cerrno</text>
</g>
<!-- Node20&#45;&gt;Node21 -->
<g id="edge29" class="edge">
<title>Node20&#45;&gt;Node21</title>
<path fill="none" stroke="#191970" d="M1078.926,-112.2455C1074.5669,-104.617 1068.3789,-93.7881 1063.0867,-84.5267"/>
<polygon fill="#191970" stroke="#191970" points="1066.0104,-82.5886 1058.0101,-75.6427 1059.9327,-86.0616 1066.0104,-82.5886"/>
</g>
<!-- Node22 -->
<g id="node23" class="node">
<title>Node22</title>
<polygon fill="#ffffff" stroke="#bfbfbf" points="1092.5,-56.5 1092.5,-75.5 1138.5,-75.5 1138.5,-56.5 1092.5,-56.5"/>
<text text-anchor="middle" x="1115.5" y="-63.5" font-family="Helvetica,sans-Serif" font-size="10.00" fill="#000000">cstring</text>
</g>
<!-- Node20&#45;&gt;Node22 -->
<g id="edge30" class="edge">
<title>Node20&#45;&gt;Node22</title>
<path fill="none" stroke="#191970" d="M1089.8998,-112.2455C1094.1227,-104.617 1100.1173,-93.7881 1105.2441,-84.5267"/>
<polygon fill="#191970" stroke="#191970" points="1108.381,-86.0867 1110.1621,-75.6427 1102.2568,-82.6965 1108.381,-86.0867"/>
</g>
<!-- Node26&#45;&gt;Node20 -->
<g id="edge36" class="edge">
<title>Node26&#45;&gt;Node20</title>
<path fill="none" stroke="#191970" d="M977.6759,-168.3733C998.4766,-159.3435 1029.7917,-145.7494 1053.1458,-135.6111"/>
<polygon fill="#191970" stroke="#191970" points="1054.8343,-138.6938 1062.6135,-131.5011 1052.0468,-132.2727 1054.8343,-138.6938"/>
</g>
<!-- Node27 -->
<g id="node28" class="node">
<title>Node27</title>
<polygon fill="#ffffff" stroke="#bfbfbf" points="1130,-112.5 1130,-131.5 1177,-131.5 1177,-112.5 1130,-112.5"/>
<text text-anchor="middle" x="1153.5" y="-119.5" font-family="Helvetica,sans-Serif" font-size="10.00" fill="#000000">libutil.h</text>
</g>
<!-- Node26&#45;&gt;Node27 -->
<g id="edge37" class="edge">
<title>Node26&#45;&gt;Node27</title>
<path fill="none" stroke="#191970" d="M991.2153,-168.4637C1022.858,-159.9348 1070.538,-146.8889 1120.1483,-132.3432"/>
<polygon fill="#191970" stroke="#191970" points="1121.1563,-135.695 1129.7605,-129.513 1119.1791,-128.9801 1121.1563,-135.695"/>
</g>
<!-- Node28&#45;&gt;Node20 -->
<g id="edge39" class="edge">
<title>Node28&#45;&gt;Node20</title>
<path fill="none" stroke="#191970" d="M1058.8998,-168.2455C1063.1227,-160.617 1069.1173,-149.7881 1074.2441,-140.5267"/>
<polygon fill="#191970" stroke="#191970" points="1077.381,-142.0867 1079.1621,-131.6427 1071.2568,-138.6965 1077.381,-142.0867"/>
</g>
<!-- Node29 -->
<g id="node30" class="node">
<title>Node29</title>
<polygon fill="#ffffff" stroke="#bfbfbf" points="1195,-112.5 1195,-131.5 1242,-131.5 1242,-112.5 1195,-112.5"/>
<text text-anchor="middle" x="1218.5" y="-119.5" font-family="Helvetica,sans-Serif" font-size="10.00" fill="#000000">csignal</text>
</g>
<!-- Node28&#45;&gt;Node29 -->
<g id="edge40" class="edge">
<title>Node28&#45;&gt;Node29</title>
<path fill="none" stroke="#191970" d="M1081.8645,-168.3733C1110.5072,-158.6521 1154.7369,-143.6408 1185.0679,-133.3467"/>
<polygon fill="#191970" stroke="#191970" points="1186.434,-136.5792 1194.7786,-130.0509 1184.1842,-129.9505 1186.434,-136.5792"/>
</g>
</g>
</svg>
