<?xml version="1.0" encoding="UTF-8" standalone="no"?>
<!DOCTYPE svg PUBLIC "-//W3C//DTD SVG 1.1//EN"
 "http://www.w3.org/Graphics/SVG/1.1/DTD/svg11.dtd">
<!-- Generated by graphviz version 2.42.2 ()
 -->
<!-- Title: src/powerd++.cpp Pages: 1 -->
<svg width="1373pt" height="252pt"
 viewBox="0.00 0.00 1373.10 252.00" xmlns="http://www.w3.org/2000/svg" xmlns:xlink="http://www.w3.org/1999/xlink">
<g id="graph0" class="graph" transform="scale(1 1) rotate(0) translate(4 248)">
<title>src/powerd++.cpp</title>
<polygon fill="white" stroke="transparent" points="-4,4 -4,-248 1369.1,-248 1369.1,4 -4,4"/>
<!-- Node1 -->
<g id="node1" class="node">
<title>Node1</title>
<g id="a_node1"><a xlink:title="Implements powerd++ a drop in replacement for FreeBSD&#39;s powerd.">
<polygon fill="#bfbfbf" stroke="black" points="628.1,-224.5 628.1,-243.5 723.1,-243.5 723.1,-224.5 628.1,-224.5"/>
<text text-anchor="middle" x="675.6" y="-231.5" font-family="Helvetica,sans-Serif" font-size="10.00">src/powerd++.cpp</text>
</a>
</g>
</g>
<!-- Node2 -->
<g id="node2" class="node">
<title>Node2</title>
<g id="a_node2"><a xlink:href="Options_8hpp.html" target="_top" xlink:title="Provides the nih::Options functor template, a substitute for getopt(3).">
<polygon fill="white" stroke="black" points="215.1,-168.5 215.1,-187.5 284.1,-187.5 284.1,-168.5 215.1,-168.5"/>
<text text-anchor="middle" x="249.6" y="-175.5" font-family="Helvetica,sans-Serif" font-size="10.00">Options.hpp</text>
</a>
</g>
</g>
<!-- Node1&#45;&gt;Node2 -->
<g id="edge1" class="edge">
<title>Node1&#45;&gt;Node2</title>
<path fill="none" stroke="midnightblue" d="M627.86,-228.27C556.18,-220.96 416.57,-205.86 298.6,-188 297.3,-187.8 295.98,-187.6 294.66,-187.39"/>
<polygon fill="midnightblue" stroke="midnightblue" points="294.79,-183.86 284.35,-185.66 293.64,-190.77 294.79,-183.86"/>
</g>
<!-- Node3 -->
<g id="node3" class="node">
<title>Node3</title>
<g id="a_node3"><a xlink:href="utility_8hpp.html" target="_top" xlink:title="Implements generally useful functions.">
<polygon fill="white" stroke="black" points="341.1,-56.5 341.1,-75.5 400.1,-75.5 400.1,-56.5 341.1,-56.5"/>
<text text-anchor="middle" x="370.6" y="-63.5" font-family="Helvetica,sans-Serif" font-size="10.00">utility.hpp</text>
</a>
</g>
</g>
<!-- Node1&#45;&gt;Node3 -->
<g id="edge26" class="edge">
<title>Node1&#45;&gt;Node3</title>
<path fill="none" stroke="midnightblue" d="M628.09,-229.09C557.71,-222.71 429.66,-208.65 388.6,-188 356.87,-172.04 345.34,-164.75 331.6,-132 324.11,-114.14 338.11,-95.34 351.38,-82.58"/>
<polygon fill="midnightblue" stroke="midnightblue" points="353.81,-85.1 358.93,-75.82 349.15,-79.88 353.81,-85.1"/>
</g>
<!-- Node11 -->
<g id="node11" class="node">
<title>Node11</title>
<g id="a_node11"><a xlink:href="Cycle_8hpp.html" target="_top" xlink:title="Implements timing::Cycle, a cyclic sleep functor.">
<polygon fill="white" stroke="black" points="1.1,-168.5 1.1,-187.5 62.1,-187.5 62.1,-168.5 1.1,-168.5"/>
<text text-anchor="middle" x="31.6" y="-175.5" font-family="Helvetica,sans-Serif" font-size="10.00">Cycle.hpp</text>
</a>
</g>
</g>
<!-- Node1&#45;&gt;Node11 -->
<g id="edge11" class="edge">
<title>Node1&#45;&gt;Node11</title>
<path fill="none" stroke="midnightblue" d="M627.96,-231.83C527.2,-228.84 284.99,-218.95 72.62,-187.92"/>
<polygon fill="midnightblue" stroke="midnightblue" points="72.93,-184.43 62.53,-186.43 71.9,-191.36 72.93,-184.43"/>
</g>
<!-- Node14 -->
<g id="node14" class="node">
<title>Node14</title>
<g id="a_node14"><a xlink:href="types_8hpp.html" target="_top" xlink:title="A collection of type aliases.">
<polygon fill="white" stroke="black" points="81.1,-112.5 81.1,-131.5 140.1,-131.5 140.1,-112.5 81.1,-112.5"/>
<text text-anchor="middle" x="110.6" y="-119.5" font-family="Helvetica,sans-Serif" font-size="10.00">types.hpp</text>
</a>
</g>
</g>
<!-- Node1&#45;&gt;Node14 -->
<g id="edge14" class="edge">
<title>Node1&#45;&gt;Node14</title>
<path fill="none" stroke="midnightblue" d="M627.87,-231.45C524.36,-227.6 282.38,-215.83 205.6,-188 189.52,-182.17 152.49,-155.09 129.7,-137.77"/>
<polygon fill="midnightblue" stroke="midnightblue" points="131.8,-134.98 121.74,-131.68 127.55,-140.53 131.8,-134.98"/>
</g>
<!-- Node15 -->
<g id="node15" class="node">
<title>Node15</title>
<g id="a_node15"><a xlink:href="constants_8hpp.html" target="_top" xlink:title="Defines a collection of constants.">
<polygon fill="white" stroke="black" points="80.6,-168.5 80.6,-187.5 158.6,-187.5 158.6,-168.5 80.6,-168.5"/>
<text text-anchor="middle" x="119.6" y="-175.5" font-family="Helvetica,sans-Serif" font-size="10.00">constants.hpp</text>
</a>
</g>
</g>
<!-- Node1&#45;&gt;Node15 -->
<g id="edge16" class="edge">
<title>Node1&#45;&gt;Node15</title>
<path fill="none" stroke="midnightblue" d="M627.96,-230C538.49,-224.08 339.33,-209.58 172.6,-188 171.33,-187.83 170.03,-187.66 168.73,-187.48"/>
<polygon fill="midnightblue" stroke="midnightblue" points="169.03,-183.99 158.62,-185.99 168,-190.91 169.03,-183.99"/>
</g>
<!-- Node16 -->
<g id="node16" class="node">
<title>Node16</title>
<g id="a_node16"><a xlink:href="errors_8hpp.html" target="_top" xlink:title="Common error handling code.">
<polygon fill="white" stroke="black" points="340.6,-112.5 340.6,-131.5 400.6,-131.5 400.6,-112.5 340.6,-112.5"/>
<text text-anchor="middle" x="370.6" y="-119.5" font-family="Helvetica,sans-Serif" font-size="10.00">errors.hpp</text>
</a>
</g>
</g>
<!-- Node1&#45;&gt;Node16 -->
<g id="edge18" class="edge">
<title>Node1&#45;&gt;Node16</title>
<path fill="none" stroke="midnightblue" d="M627.99,-229.53C561.82,-223.93 446.26,-211.13 411.6,-188 394.83,-176.81 383.57,-156.18 377.16,-141.15"/>
<polygon fill="midnightblue" stroke="midnightblue" points="380.41,-139.85 373.49,-131.83 373.9,-142.42 380.41,-139.85"/>
</g>
<!-- Node17 -->
<g id="node17" class="node">
<title>Node17</title>
<g id="a_node17"><a xlink:href="clas_8hpp.html" target="_top" xlink:title="Provides functions to process command line arguments.">
<polygon fill="white" stroke="black" points="421.1,-168.5 421.1,-187.5 474.1,-187.5 474.1,-168.5 421.1,-168.5"/>
<text text-anchor="middle" x="447.6" y="-175.5" font-family="Helvetica,sans-Serif" font-size="10.00">clas.hpp</text>
</a>
</g>
</g>
<!-- Node1&#45;&gt;Node17 -->
<g id="edge20" class="edge">
<title>Node1&#45;&gt;Node17</title>
<path fill="none" stroke="midnightblue" d="M639.47,-224.44C597.02,-214.39 526.96,-197.79 484.27,-187.68"/>
<polygon fill="midnightblue" stroke="midnightblue" points="484.84,-184.22 474.3,-185.32 483.22,-191.03 484.84,-184.22"/>
</g>
<!-- Node19 -->
<g id="node19" class="node">
<title>Node19</title>
<g id="a_node19"><a xlink:href="sysctl_8hpp.html" target="_top" xlink:title="Implements safer c++ wrappers for the sysctl() interface.">
<polygon fill="white" stroke="black" points="669.6,-168.5 669.6,-187.5 749.6,-187.5 749.6,-168.5 669.6,-168.5"/>
<text text-anchor="middle" x="709.6" y="-175.5" font-family="Helvetica,sans-Serif" font-size="10.00">sys/sysctl.hpp</text>
</a>
</g>
</g>
<!-- Node1&#45;&gt;Node19 -->
<g id="edge27" class="edge">
<title>Node1&#45;&gt;Node19</title>
<path fill="none" stroke="midnightblue" d="M681.22,-224.08C685.97,-216.53 692.92,-205.49 698.75,-196.23"/>
<polygon fill="midnightblue" stroke="midnightblue" points="701.72,-198.08 704.09,-187.75 695.8,-194.35 701.72,-198.08"/>
</g>
<!-- Node23 -->
<g id="node23" class="node">
<title>Node23</title>
<g id="a_node23"><a xlink:title=" ">
<polygon fill="white" stroke="#bfbfbf" points="658.6,-112.5 658.6,-131.5 710.6,-131.5 710.6,-112.5 658.6,-112.5"/>
<text text-anchor="middle" x="684.6" y="-119.5" font-family="Helvetica,sans-Serif" font-size="10.00">memory</text>
</a>
</g>
</g>
<!-- Node1&#45;&gt;Node23 -->
<g id="edge45" class="edge">
<title>Node1&#45;&gt;Node23</title>
<path fill="none" stroke="midnightblue" d="M670.88,-224.14C664.81,-211.61 655.6,-188 660.6,-168 663.04,-158.25 668.04,-148.29 672.84,-140.23"/>
<polygon fill="midnightblue" stroke="midnightblue" points="675.81,-142.08 678.23,-131.77 669.91,-138.32 675.81,-142.08"/>
</g>
<!-- Node26 -->
<g id="node26" class="node">
<title>Node26</title>
<g id="a_node26"><a xlink:href="pidfile_8hpp.html" target="_top" xlink:title="Implements safer c++ wrappers for the pidfile_*() interface.">
<polygon fill="white" stroke="black" points="767.6,-168.5 767.6,-187.5 847.6,-187.5 847.6,-168.5 767.6,-168.5"/>
<text text-anchor="middle" x="807.6" y="-175.5" font-family="Helvetica,sans-Serif" font-size="10.00">sys/pidfile.hpp</text>
</a>
</g>
</g>
<!-- Node1&#45;&gt;Node26 -->
<g id="edge35" class="edge">
<title>Node1&#45;&gt;Node26</title>
<path fill="none" stroke="midnightblue" d="M696.52,-224.44C718.34,-215.52 752.75,-201.44 777.49,-191.32"/>
<polygon fill="midnightblue" stroke="midnightblue" points="778.85,-194.54 786.78,-187.52 776.2,-188.06 778.85,-194.54"/>
</g>
<!-- Node28 -->
<g id="node28" class="node">
<title>Node28</title>
<g id="a_node28"><a xlink:href="signal_8hpp.html" target="_top" xlink:title="Implements a c++ wrapper for the signal(3) call.">
<polygon fill="white" stroke="black" points="865.6,-168.5 865.6,-187.5 945.6,-187.5 945.6,-168.5 865.6,-168.5"/>
<text text-anchor="middle" x="905.6" y="-175.5" font-family="Helvetica,sans-Serif" font-size="10.00">sys/signal.hpp</text>
</a>
</g>
</g>
<!-- Node1&#45;&gt;Node28 -->
<g id="edge38" class="edge">
<title>Node1&#45;&gt;Node28</title>
<path fill="none" stroke="midnightblue" d="M712.04,-224.44C752,-215.06 816.19,-199.99 859.59,-189.8"/>
<polygon fill="midnightblue" stroke="midnightblue" points="860.39,-193.21 869.33,-187.52 858.79,-186.39 860.39,-193.21"/>
</g>
<!-- Node30 -->
<g id="node30" class="node">
<title>Node30</title>
<g id="a_node30"><a xlink:href="io_8hpp.html" target="_top" xlink:title="Implements c++ wrappers for &lt;cstdio&gt; I/O functionality.">
<polygon fill="white" stroke="black" points="551.6,-168.5 551.6,-187.5 613.6,-187.5 613.6,-168.5 551.6,-168.5"/>
<text text-anchor="middle" x="582.6" y="-175.5" font-family="Helvetica,sans-Serif" font-size="10.00">sys/io.hpp</text>
</a>
</g>
</g>
<!-- Node1&#45;&gt;Node30 -->
<g id="edge41" class="edge">
<title>Node1&#45;&gt;Node30</title>
<path fill="none" stroke="midnightblue" d="M660.66,-224.32C646.02,-215.82 623.47,-202.73 606.36,-192.8"/>
<polygon fill="midnightblue" stroke="midnightblue" points="607.91,-189.65 597.51,-187.65 604.4,-195.7 607.91,-189.65"/>
</g>
<!-- Node31 -->
<g id="node31" class="node">
<title>Node31</title>
<g id="a_node31"><a xlink:title=" ">
<polygon fill="white" stroke="#bfbfbf" points="963.6,-168.5 963.6,-187.5 1005.6,-187.5 1005.6,-168.5 963.6,-168.5"/>
<text text-anchor="middle" x="984.6" y="-175.5" font-family="Helvetica,sans-Serif" font-size="10.00">locale</text>
</a>
</g>
</g>
<!-- Node1&#45;&gt;Node31 -->
<g id="edge44" class="edge">
<title>Node1&#45;&gt;Node31</title>
<path fill="none" stroke="midnightblue" d="M723.36,-227.24C777.14,-220.33 867.26,-207.45 953.44,-188.02"/>
<polygon fill="midnightblue" stroke="midnightblue" points="954.42,-191.38 963.39,-185.74 952.86,-184.56 954.42,-191.38"/>
</g>
<!-- Node32 -->
<g id="node32" class="node">
<title>Node32</title>
<g id="a_node32"><a xlink:title=" ">
<polygon fill="white" stroke="#bfbfbf" points="1023.6,-168.5 1023.6,-187.5 1079.6,-187.5 1079.6,-168.5 1023.6,-168.5"/>
<text text-anchor="middle" x="1051.6" y="-175.5" font-family="Helvetica,sans-Serif" font-size="10.00">algorithm</text>
</a>
</g>
</g>
<!-- Node1&#45;&gt;Node32 -->
<g id="edge46" class="edge">
<title>Node1&#45;&gt;Node32</title>
<path fill="none" stroke="midnightblue" d="M723.3,-228.29C787.21,-221.62 904.34,-208.15 1013.52,-188.03"/>
<polygon fill="midnightblue" stroke="midnightblue" points="1014.2,-191.47 1023.39,-186.19 1012.91,-184.58 1014.2,-191.47"/>
</g>
<!-- Node33 -->
<g id="node33" class="node">
<title>Node33</title>
<g id="a_node33"><a xlink:title=" ">
<polygon fill="white" stroke="#bfbfbf" points="1097.6,-168.5 1097.6,-187.5 1137.6,-187.5 1137.6,-168.5 1097.6,-168.5"/>
<text text-anchor="middle" x="1117.6" y="-175.5" font-family="Helvetica,sans-Serif" font-size="10.00">limits</text>
</a>
</g>
</g>
<!-- Node1&#45;&gt;Node33 -->
<g id="edge47" class="edge">
<title>Node1&#45;&gt;Node33</title>
<path fill="none" stroke="midnightblue" d="M723.14,-230.8C798.64,-226.65 950.62,-215.66 1087.61,-187.83"/>
<polygon fill="midnightblue" stroke="midnightblue" points="1088.36,-191.25 1097.45,-185.8 1086.95,-184.39 1088.36,-191.25"/>
</g>
<!-- Node34 -->
<g id="node34" class="node">
<title>Node34</title>
<g id="a_node34"><a xlink:title=" ">
<polygon fill="white" stroke="#bfbfbf" points="1156.1,-168.5 1156.1,-187.5 1201.1,-187.5 1201.1,-168.5 1156.1,-168.5"/>
<text text-anchor="middle" x="1178.6" y="-175.5" font-family="Helvetica,sans-Serif" font-size="10.00">cstdlib</text>
</a>
</g>
</g>
<!-- Node1&#45;&gt;Node34 -->
<g id="edge48" class="edge">
<title>Node1&#45;&gt;Node34</title>
<path fill="none" stroke="midnightblue" d="M723.12,-231.27C806.78,-227.62 985.85,-217.07 1145.96,-187.76"/>
<polygon fill="midnightblue" stroke="midnightblue" points="1146.8,-191.17 1155.99,-185.9 1145.52,-184.29 1146.8,-191.17"/>
</g>
<!-- Node35 -->
<g id="node35" class="node">
<title>Node35</title>
<g id="a_node35"><a xlink:title=" ">
<polygon fill="white" stroke="#bfbfbf" points="1219.6,-168.5 1219.6,-187.5 1265.6,-187.5 1265.6,-168.5 1219.6,-168.5"/>
<text text-anchor="middle" x="1242.6" y="-175.5" font-family="Helvetica,sans-Serif" font-size="10.00">cstdint</text>
</a>
</g>
</g>
<!-- Node1&#45;&gt;Node35 -->
<g id="edge49" class="edge">
<title>Node1&#45;&gt;Node35</title>
<path fill="none" stroke="midnightblue" d="M723.23,-232.03C815.52,-229.49 1025.13,-220.53 1209.43,-187.88"/>
<polygon fill="midnightblue" stroke="midnightblue" points="1210.08,-191.32 1219.3,-186.11 1208.84,-184.43 1210.08,-191.32"/>
</g>
<!-- Node36 -->
<g id="node36" class="node">
<title>Node36</title>
<g id="a_node36"><a xlink:title=" ">
<polygon fill="white" stroke="#bfbfbf" points="1284.1,-168.5 1284.1,-187.5 1365.1,-187.5 1365.1,-168.5 1284.1,-168.5"/>
<text text-anchor="middle" x="1324.6" y="-175.5" font-family="Helvetica,sans-Serif" font-size="10.00">sys/resource.h</text>
</a>
</g>
</g>
<!-- Node1&#45;&gt;Node36 -->
<g id="edge50" class="edge">
<title>Node1&#45;&gt;Node36</title>
<path fill="none" stroke="midnightblue" d="M723.14,-231.1C823.12,-226.73 1062.64,-214.39 1273.96,-187.94"/>
<polygon fill="midnightblue" stroke="midnightblue" points="1274.51,-191.4 1284,-186.67 1273.64,-184.45 1274.51,-191.4"/>
</g>
<!-- Node2&#45;&gt;Node3 -->
<g id="edge2" class="edge">
<title>Node2&#45;&gt;Node3</title>
<path fill="none" stroke="midnightblue" d="M241.49,-168.26C230.22,-155.04 212.62,-129.63 225.6,-112 249.54,-79.5 296.74,-69.78 330.79,-67.22"/>
<polygon fill="midnightblue" stroke="midnightblue" points="331.12,-70.7 340.9,-66.63 330.71,-63.72 331.12,-70.7"/>
</g>
<!-- Node4 -->
<g id="node4" class="node">
<title>Node4</title>
<g id="a_node4"><a xlink:title=" ">
<polygon fill="white" stroke="#bfbfbf" points="173.6,-0.5 173.6,-19.5 235.6,-19.5 235.6,-0.5 173.6,-0.5"/>
<text text-anchor="middle" x="204.6" y="-7.5" font-family="Helvetica,sans-Serif" font-size="10.00">type_traits</text>
</a>
</g>
</g>
<!-- Node2&#45;&gt;Node4 -->
<g id="edge9" class="edge">
<title>Node2&#45;&gt;Node4</title>
<path fill="none" stroke="midnightblue" d="M241.48,-168.49C233.9,-159.98 222.97,-146.16 217.6,-132 204.53,-97.55 203.24,-53.89 203.74,-29.55"/>
<polygon fill="midnightblue" stroke="midnightblue" points="207.24,-29.67 204.07,-19.55 200.24,-29.43 207.24,-29.67"/>
</g>
<!-- Node9 -->
<g id="node9" class="node">
<title>Node9</title>
<g id="a_node9"><a xlink:title=" ">
<polygon fill="white" stroke="#bfbfbf" points="235.1,-112.5 235.1,-131.5 284.1,-131.5 284.1,-112.5 235.1,-112.5"/>
<text text-anchor="middle" x="259.6" y="-119.5" font-family="Helvetica,sans-Serif" font-size="10.00">cstddef</text>
</a>
</g>
</g>
<!-- Node2&#45;&gt;Node9 -->
<g id="edge8" class="edge">
<title>Node2&#45;&gt;Node9</title>
<path fill="none" stroke="midnightblue" d="M251.25,-168.08C252.58,-160.93 254.48,-150.64 256.14,-141.69"/>
<polygon fill="midnightblue" stroke="midnightblue" points="259.6,-142.22 257.98,-131.75 252.72,-140.95 259.6,-142.22"/>
</g>
<!-- Node10 -->
<g id="node10" class="node">
<title>Node10</title>
<g id="a_node10"><a xlink:title=" ">
<polygon fill="white" stroke="#bfbfbf" points="495.1,-112.5 495.1,-131.5 544.1,-131.5 544.1,-112.5 495.1,-112.5"/>
<text text-anchor="middle" x="519.6" y="-119.5" font-family="Helvetica,sans-Serif" font-size="10.00">cassert</text>
</a>
</g>
</g>
<!-- Node2&#45;&gt;Node10 -->
<g id="edge10" class="edge">
<title>Node2&#45;&gt;Node10</title>
<path fill="none" stroke="midnightblue" d="M284.35,-170.05C336.18,-159.68 433.18,-140.28 484.96,-129.93"/>
<polygon fill="midnightblue" stroke="midnightblue" points="485.87,-133.32 494.99,-127.92 484.49,-126.45 485.87,-133.32"/>
</g>
<!-- Node3&#45;&gt;Node4 -->
<g id="edge3" class="edge">
<title>Node3&#45;&gt;Node4</title>
<path fill="none" stroke="midnightblue" d="M344.3,-56.44C316.25,-47.32 271.66,-32.81 240.42,-22.65"/>
<polygon fill="midnightblue" stroke="midnightblue" points="241.37,-19.28 230.78,-19.52 239.21,-25.94 241.37,-19.28"/>
</g>
<!-- Node5 -->
<g id="node5" class="node">
<title>Node5</title>
<g id="a_node5"><a xlink:title=" ">
<polygon fill="white" stroke="#bfbfbf" points="281.6,-0.5 281.6,-19.5 337.6,-19.5 337.6,-0.5 281.6,-0.5"/>
<text text-anchor="middle" x="309.6" y="-7.5" font-family="Helvetica,sans-Serif" font-size="10.00">charconv</text>
</a>
</g>
</g>
<!-- Node3&#45;&gt;Node5 -->
<g id="edge4" class="edge">
<title>Node3&#45;&gt;Node5</title>
<path fill="none" stroke="midnightblue" d="M360.8,-56.32C351.78,-48.34 338.19,-36.31 327.28,-26.65"/>
<polygon fill="midnightblue" stroke="midnightblue" points="329.39,-23.84 319.58,-19.83 324.75,-29.08 329.39,-23.84"/>
</g>
<!-- Node6 -->
<g id="node6" class="node">
<title>Node6</title>
<g id="a_node6"><a xlink:title=" ">
<polygon fill="white" stroke="#bfbfbf" points="355.6,-0.5 355.6,-19.5 401.6,-19.5 401.6,-0.5 355.6,-0.5"/>
<text text-anchor="middle" x="378.6" y="-7.5" font-family="Helvetica,sans-Serif" font-size="10.00">cctype</text>
</a>
</g>
</g>
<!-- Node3&#45;&gt;Node6 -->
<g id="edge5" class="edge">
<title>Node3&#45;&gt;Node6</title>
<path fill="none" stroke="midnightblue" d="M371.92,-56.08C372.98,-48.93 374.51,-38.64 375.83,-29.69"/>
<polygon fill="midnightblue" stroke="midnightblue" points="379.3,-30.16 377.3,-19.75 372.38,-29.13 379.3,-30.16"/>
</g>
<!-- Node7 -->
<g id="node7" class="node">
<title>Node7</title>
<g id="a_node7"><a xlink:title=" ">
<polygon fill="white" stroke="#bfbfbf" points="429.1,-0.5 429.1,-19.5 470.1,-19.5 470.1,-0.5 429.1,-0.5"/>
<text text-anchor="middle" x="449.6" y="-7.5" font-family="Helvetica,sans-Serif" font-size="10.00">string</text>
</a>
</g>
</g>
<!-- Node3&#45;&gt;Node7 -->
<g id="edge6" class="edge">
<title>Node3&#45;&gt;Node7</title>
<path fill="none" stroke="midnightblue" d="M383.29,-56.32C395.5,-47.98 414.18,-35.21 428.6,-25.35"/>
<polygon fill="midnightblue" stroke="midnightblue" points="430.66,-28.19 436.94,-19.65 426.71,-22.41 430.66,-28.19"/>
</g>
<!-- Node8 -->
<g id="node8" class="node">
<title>Node8</title>
<g id="a_node8"><a xlink:title=" ">
<polygon fill="white" stroke="#bfbfbf" points="549.1,-0.5 549.1,-19.5 592.1,-19.5 592.1,-0.5 549.1,-0.5"/>
<text text-anchor="middle" x="570.6" y="-7.5" font-family="Helvetica,sans-Serif" font-size="10.00">cstdio</text>
</a>
</g>
</g>
<!-- Node3&#45;&gt;Node8 -->
<g id="edge7" class="edge">
<title>Node3&#45;&gt;Node8</title>
<path fill="none" stroke="midnightblue" d="M400.11,-57.03C437.26,-47 500.81,-29.84 538.94,-19.55"/>
<polygon fill="midnightblue" stroke="midnightblue" points="540.24,-22.82 548.98,-16.84 538.41,-16.07 540.24,-22.82"/>
</g>
<!-- Node12 -->
<g id="node12" class="node">
<title>Node12</title>
<g id="a_node12"><a xlink:title=" ">
<polygon fill="white" stroke="#bfbfbf" points="24.6,-56.5 24.6,-75.5 70.6,-75.5 70.6,-56.5 24.6,-56.5"/>
<text text-anchor="middle" x="47.6" y="-63.5" font-family="Helvetica,sans-Serif" font-size="10.00">chrono</text>
</a>
</g>
</g>
<!-- Node11&#45;&gt;Node12 -->
<g id="edge12" class="edge">
<title>Node11&#45;&gt;Node12</title>
<path fill="none" stroke="midnightblue" d="M22.82,-168.23C11.49,-155.81 -5.82,-132.32 2.6,-112 7.52,-100.12 17.27,-89.74 26.44,-81.96"/>
<polygon fill="midnightblue" stroke="midnightblue" points="28.85,-84.51 34.54,-75.56 24.52,-79.01 28.85,-84.51"/>
</g>
<!-- Node13 -->
<g id="node13" class="node">
<title>Node13</title>
<g id="a_node13"><a xlink:title=" ">
<polygon fill="white" stroke="#bfbfbf" points="12.1,-112.5 12.1,-131.5 63.1,-131.5 63.1,-112.5 12.1,-112.5"/>
<text text-anchor="middle" x="37.6" y="-119.5" font-family="Helvetica,sans-Serif" font-size="10.00">unistd.h</text>
</a>
</g>
</g>
<!-- Node11&#45;&gt;Node13 -->
<g id="edge13" class="edge">
<title>Node11&#45;&gt;Node13</title>
<path fill="none" stroke="midnightblue" d="M32.59,-168.08C33.39,-160.93 34.53,-150.64 35.52,-141.69"/>
<polygon fill="midnightblue" stroke="midnightblue" points="39,-142.08 36.63,-131.75 32.05,-141.3 39,-142.08"/>
</g>
<!-- Node14&#45;&gt;Node12 -->
<g id="edge15" class="edge">
<title>Node14&#45;&gt;Node12</title>
<path fill="none" stroke="midnightblue" d="M100.48,-112.32C91.07,-104.26 76.86,-92.08 65.53,-82.37"/>
<polygon fill="midnightblue" stroke="midnightblue" points="67.78,-79.68 57.91,-75.83 63.22,-85 67.78,-79.68"/>
</g>
<!-- Node15&#45;&gt;Node14 -->
<g id="edge17" class="edge">
<title>Node15&#45;&gt;Node14</title>
<path fill="none" stroke="midnightblue" d="M118.11,-168.08C116.92,-160.93 115.21,-150.64 113.72,-141.69"/>
<polygon fill="midnightblue" stroke="midnightblue" points="117.16,-141.04 112.06,-131.75 110.25,-142.19 117.16,-141.04"/>
</g>
<!-- Node16&#45;&gt;Node3 -->
<g id="edge19" class="edge">
<title>Node16&#45;&gt;Node3</title>
<path fill="none" stroke="midnightblue" d="M370.6,-112.08C370.6,-105.01 370.6,-94.86 370.6,-85.99"/>
<polygon fill="midnightblue" stroke="midnightblue" points="374.1,-85.75 370.6,-75.75 367.1,-85.75 374.1,-85.75"/>
</g>
<!-- Node17&#45;&gt;Node3 -->
<g id="edge23" class="edge">
<title>Node17&#45;&gt;Node3</title>
<path fill="none" stroke="midnightblue" d="M443.16,-168.27C436.52,-155.49 423.3,-131.13 409.6,-112 402.38,-101.91 393.36,-91.4 385.81,-83.07"/>
<polygon fill="midnightblue" stroke="midnightblue" points="388.23,-80.53 378.88,-75.57 383.09,-85.28 388.23,-80.53"/>
</g>
<!-- Node17&#45;&gt;Node7 -->
<g id="edge24" class="edge">
<title>Node17&#45;&gt;Node7</title>
<path fill="none" stroke="midnightblue" d="M447.71,-168.08C448.02,-141.95 448.95,-65.21 449.38,-29.58"/>
<polygon fill="midnightblue" stroke="midnightblue" points="452.88,-29.61 449.5,-19.57 445.88,-29.53 452.88,-29.61"/>
</g>
<!-- Node17&#45;&gt;Node14 -->
<g id="edge21" class="edge">
<title>Node17&#45;&gt;Node14</title>
<path fill="none" stroke="midnightblue" d="M420.88,-172.72C361.79,-163.25 219.82,-140.5 150.3,-129.36"/>
<polygon fill="midnightblue" stroke="midnightblue" points="150.62,-125.87 140.19,-127.74 149.51,-132.78 150.62,-125.87"/>
</g>
<!-- Node17&#45;&gt;Node16 -->
<g id="edge22" class="edge">
<title>Node17&#45;&gt;Node16</title>
<path fill="none" stroke="midnightblue" d="M435.23,-168.32C423.44,-160.06 405.47,-147.45 391.47,-137.63"/>
<polygon fill="midnightblue" stroke="midnightblue" points="393.14,-134.53 382.94,-131.65 389.12,-140.26 393.14,-134.53"/>
</g>
<!-- Node18 -->
<g id="node18" class="node">
<title>Node18</title>
<g id="a_node18"><a xlink:title=" ">
<polygon fill="white" stroke="#bfbfbf" points="562.6,-112.5 562.6,-131.5 602.6,-131.5 602.6,-112.5 562.6,-112.5"/>
<text text-anchor="middle" x="582.6" y="-119.5" font-family="Helvetica,sans-Serif" font-size="10.00">utility</text>
</a>
</g>
</g>
<!-- Node17&#45;&gt;Node18 -->
<g id="edge25" class="edge">
<title>Node17&#45;&gt;Node18</title>
<path fill="none" stroke="midnightblue" d="M468.99,-168.44C491.57,-159.41 527.33,-145.11 552.7,-134.96"/>
<polygon fill="midnightblue" stroke="midnightblue" points="554.21,-138.13 562.19,-131.16 551.61,-131.63 554.21,-138.13"/>
</g>
<!-- Node19&#45;&gt;Node10 -->
<g id="edge32" class="edge">
<title>Node19&#45;&gt;Node10</title>
<path fill="none" stroke="midnightblue" d="M679.49,-168.44C645.4,-158.75 589.94,-142.99 554.12,-132.81"/>
<polygon fill="midnightblue" stroke="midnightblue" points="554.7,-129.34 544.13,-129.97 552.79,-136.07 554.7,-129.34"/>
</g>
<!-- Node20 -->
<g id="node20" class="node">
<title>Node20</title>
<g id="a_node20"><a xlink:href="error_8hpp.html" target="_top" xlink:title="Provides system call error handling.">
<polygon fill="white" stroke="black" points="903.1,-112.5 903.1,-131.5 958.1,-131.5 958.1,-112.5 903.1,-112.5"/>
<text text-anchor="middle" x="930.6" y="-119.5" font-family="Helvetica,sans-Serif" font-size="10.00">error.hpp</text>
</a>
</g>
</g>
<!-- Node19&#45;&gt;Node20 -->
<g id="edge28" class="edge">
<title>Node19&#45;&gt;Node20</title>
<path fill="none" stroke="midnightblue" d="M744.62,-168.44C785.21,-158.53 851.83,-142.25 893.35,-132.1"/>
<polygon fill="midnightblue" stroke="midnightblue" points="894.19,-135.5 903.08,-129.73 892.53,-128.7 894.19,-135.5"/>
</g>
<!-- Node19&#45;&gt;Node23 -->
<g id="edge31" class="edge">
<title>Node19&#45;&gt;Node23</title>
<path fill="none" stroke="midnightblue" d="M705.47,-168.08C702.09,-160.77 697.18,-150.18 692.98,-141.1"/>
<polygon fill="midnightblue" stroke="midnightblue" points="696.03,-139.36 688.65,-131.75 689.68,-142.3 696.03,-139.36"/>
</g>
<!-- Node24 -->
<g id="node24" class="node">
<title>Node24</title>
<g id="a_node24"><a xlink:title=" ">
<polygon fill="white" stroke="#bfbfbf" points="816.6,-112.5 816.6,-131.5 884.6,-131.5 884.6,-112.5 816.6,-112.5"/>
<text text-anchor="middle" x="850.6" y="-119.5" font-family="Helvetica,sans-Serif" font-size="10.00">sys/types.h</text>
</a>
</g>
</g>
<!-- Node19&#45;&gt;Node24 -->
<g id="edge33" class="edge">
<title>Node19&#45;&gt;Node24</title>
<path fill="none" stroke="midnightblue" d="M731.94,-168.44C755.35,-159.48 792.34,-145.31 818.79,-135.18"/>
<polygon fill="midnightblue" stroke="midnightblue" points="820.28,-138.36 828.36,-131.52 817.77,-131.82 820.28,-138.36"/>
</g>
<!-- Node25 -->
<g id="node25" class="node">
<title>Node25</title>
<g id="a_node25"><a xlink:title=" ">
<polygon fill="white" stroke="#bfbfbf" points="728.6,-112.5 728.6,-131.5 798.6,-131.5 798.6,-112.5 728.6,-112.5"/>
<text text-anchor="middle" x="763.6" y="-119.5" font-family="Helvetica,sans-Serif" font-size="10.00">sys/sysctl.h</text>
</a>
</g>
</g>
<!-- Node19&#45;&gt;Node25 -->
<g id="edge34" class="edge">
<title>Node19&#45;&gt;Node25</title>
<path fill="none" stroke="midnightblue" d="M718.52,-168.08C726.38,-160.22 738.03,-148.57 747.52,-139.08"/>
<polygon fill="midnightblue" stroke="midnightblue" points="750.25,-141.3 754.85,-131.75 745.3,-136.35 750.25,-141.3"/>
</g>
<!-- Node21 -->
<g id="node21" class="node">
<title>Node21</title>
<g id="a_node21"><a xlink:title=" ">
<polygon fill="white" stroke="#bfbfbf" points="876.6,-56.5 876.6,-75.5 920.6,-75.5 920.6,-56.5 876.6,-56.5"/>
<text text-anchor="middle" x="898.6" y="-63.5" font-family="Helvetica,sans-Serif" font-size="10.00">cerrno</text>
</a>
</g>
</g>
<!-- Node20&#45;&gt;Node21 -->
<g id="edge29" class="edge">
<title>Node20&#45;&gt;Node21</title>
<path fill="none" stroke="midnightblue" d="M925.32,-112.08C920.89,-104.61 914.44,-93.72 908.98,-84.52"/>
<polygon fill="midnightblue" stroke="midnightblue" points="911.9,-82.57 903.79,-75.75 905.87,-86.14 911.9,-82.57"/>
</g>
<!-- Node22 -->
<g id="node22" class="node">
<title>Node22</title>
<g id="a_node22"><a xlink:title=" ">
<polygon fill="white" stroke="#bfbfbf" points="938.6,-56.5 938.6,-75.5 984.6,-75.5 984.6,-56.5 938.6,-56.5"/>
<text text-anchor="middle" x="961.6" y="-63.5" font-family="Helvetica,sans-Serif" font-size="10.00">cstring</text>
</a>
</g>
</g>
<!-- Node20&#45;&gt;Node22 -->
<g id="edge30" class="edge">
<title>Node20&#45;&gt;Node22</title>
<path fill="none" stroke="midnightblue" d="M935.72,-112.08C940.01,-104.61 946.26,-93.72 951.54,-84.52"/>
<polygon fill="midnightblue" stroke="midnightblue" points="954.63,-86.17 956.58,-75.75 948.56,-82.68 954.63,-86.17"/>
</g>
<!-- Node26&#45;&gt;Node20 -->
<g id="edge36" class="edge">
<title>Node26&#45;&gt;Node20</title>
<path fill="none" stroke="midnightblue" d="M827.09,-168.44C847.24,-159.6 878.92,-145.69 901.93,-135.59"/>
<polygon fill="midnightblue" stroke="midnightblue" points="903.45,-138.74 911.2,-131.52 900.64,-132.33 903.45,-138.74"/>
</g>
<!-- Node27 -->
<g id="node27" class="node">
<title>Node27</title>
<g id="a_node27"><a xlink:title=" ">
<polygon fill="white" stroke="#bfbfbf" points="976.1,-112.5 976.1,-131.5 1023.1,-131.5 1023.1,-112.5 976.1,-112.5"/>
<text text-anchor="middle" x="999.6" y="-119.5" font-family="Helvetica,sans-Serif" font-size="10.00">libutil.h</text>
</a>
</g>
</g>
<!-- Node26&#45;&gt;Node27 -->
<g id="edge37" class="edge">
<title>Node26&#45;&gt;Node27</title>
<path fill="none" stroke="midnightblue" d="M838.02,-168.44C872.86,-158.65 929.77,-142.64 965.92,-132.47"/>
<polygon fill="midnightblue" stroke="midnightblue" points="967.3,-135.72 975.98,-129.64 965.4,-128.98 967.3,-135.72"/>
</g>
<!-- Node28&#45;&gt;Node20 -->
<g id="edge39" class="edge">
<title>Node28&#45;&gt;Node20</title>
<path fill="none" stroke="midnightblue" d="M909.73,-168.08C913.11,-160.77 918.02,-150.18 922.22,-141.1"/>
<polygon fill="midnightblue" stroke="midnightblue" points="925.52,-142.3 926.55,-131.75 919.17,-139.36 925.52,-142.3"/>
</g>
<!-- Node29 -->
<g id="node29" class="node">
<title>Node29</title>
<g id="a_node29"><a xlink:title=" ">
<polygon fill="white" stroke="#bfbfbf" points="1041.1,-112.5 1041.1,-131.5 1088.1,-131.5 1088.1,-112.5 1041.1,-112.5"/>
<text text-anchor="middle" x="1064.6" y="-119.5" font-family="Helvetica,sans-Serif" font-size="10.00">csignal</text>
</a>
</g>
</g>
<!-- Node28&#45;&gt;Node29 -->
<g id="edge40" class="edge">
<title>Node28&#45;&gt;Node29</title>
<path fill="none" stroke="midnightblue" d="M930.79,-168.44C958.02,-159.2 1001.51,-144.43 1031.48,-134.25"/>
<polygon fill="midnightblue" stroke="midnightblue" points="1032.74,-137.52 1041.08,-130.99 1030.49,-130.89 1032.74,-137.52"/>
</g>
<!-- Node30&#45;&gt;Node8 -->
<g id="edge42" class="edge">
<title>Node30&#45;&gt;Node8</title>
<path fill="none" stroke="midnightblue" d="M590.27,-168.46C597.38,-159.93 607.45,-146.09 611.6,-132 614.11,-123.47 613.3,-120.72 611.6,-112 605.61,-81.32 590.28,-48.17 580.15,-28.52"/>
<polygon fill="midnightblue" stroke="midnightblue" points="583.18,-26.76 575.41,-19.56 577,-30.04 583.18,-26.76"/>
</g>
<!-- Node30&#45;&gt;Node18 -->
<g id="edge43" class="edge">
<title>Node30&#45;&gt;Node18</title>
<path fill="none" stroke="midnightblue" d="M582.6,-168.08C582.6,-161.01 582.6,-150.86 582.6,-141.99"/>
<polygon fill="midnightblue" stroke="midnightblue" points="586.1,-141.75 582.6,-131.75 579.1,-141.75 586.1,-141.75"/>
</g>
</g>
</svg>
