<?xml version="1.0" encoding="UTF-8" standalone="no"?>
<!DOCTYPE svg PUBLIC "-//W3C//DTD SVG 1.1//EN"
 "http://www.w3.org/Graphics/SVG/1.1/DTD/svg11.dtd">
<!-- Generated by graphviz version 2.42.2 ()
 -->
<!-- Title: src/sys/signal.hpp Pages: 1 -->
<svg width="153pt" height="140pt"
 viewBox="0.00 0.00 153.50 140.00" xmlns="http://www.w3.org/2000/svg" xmlns:xlink="http://www.w3.org/1999/xlink">
<g id="graph0" class="graph" transform="scale(1 1) rotate(0) translate(4 136)">
<title>src/sys/signal.hpp</title>
<polygon fill="white" stroke="transparent" points="-4,4 -4,-136 149.5,-136 149.5,4 -4,4"/>
<!-- Node1 -->
<g id="node1" class="node">
<title>Node1</title>
<g id="a_node1"><a xlink:title="Implements a c++ wrapper for the signal(3) call.">
<polygon fill="#bfbfbf" stroke="black" points="39,-112.5 39,-131.5 135,-131.5 135,-112.5 39,-112.5"/>
<text text-anchor="middle" x="87" y="-119.5" font-family="Helvetica" font-size="10.00">src/sys/signal.hpp</text>
</a>
</g>
</g>
<!-- Node2 -->
<g id="node2" class="node">
<title>Node2</title>
<g id="a_node2"><a xlink:href="error_8hpp.html" target="_top" xlink:title="Provides system call error handling.">
<polygon fill="white" stroke="black" points="26,-56.5 26,-75.5 80,-75.5 80,-56.5 26,-56.5"/>
<text text-anchor="middle" x="53" y="-63.5" font-family="Helvetica" font-size="10.00">error.hpp</text>
</a>
</g>
</g>
<!-- Node1&#45;&gt;Node2 -->
<g id="edge1" class="edge">
<title>Node1&#45;&gt;Node2</title>
<path fill="none" stroke="midnightblue" d="M81.39,-112.08C76.63,-104.53 69.68,-93.49 63.85,-84.23"/>
<polygon fill="midnightblue" stroke="midnightblue" points="66.8,-82.35 58.51,-75.75 60.88,-86.08 66.8,-82.35"/>
</g>
<!-- Node5 -->
<g id="node5" class="node">
<title>Node5</title>
<g id="a_node5"><a xlink:title=" ">
<polygon fill="white" stroke="#bfbfbf" points="98.5,-56.5 98.5,-75.5 145.5,-75.5 145.5,-56.5 98.5,-56.5"/>
<text text-anchor="middle" x="122" y="-63.5" font-family="Helvetica" font-size="10.00">csignal</text>
</a>
</g>
</g>
<!-- Node1&#45;&gt;Node5 -->
<g id="edge4" class="edge">
<title>Node1&#45;&gt;Node5</title>
<path fill="none" stroke="midnightblue" d="M92.78,-112.08C97.67,-104.53 104.83,-93.49 110.83,-84.23"/>
<polygon fill="midnightblue" stroke="midnightblue" points="113.83,-86.05 116.33,-75.75 107.95,-82.24 113.83,-86.05"/>
</g>
<!-- Node3 -->
<g id="node3" class="node">
<title>Node3</title>
<g id="a_node3"><a xlink:title=" ">
<polygon fill="white" stroke="#bfbfbf" points="0,-0.5 0,-19.5 44,-19.5 44,-0.5 0,-0.5"/>
<text text-anchor="middle" x="22" y="-7.5" font-family="Helvetica" font-size="10.00">cerrno</text>
</a>
</g>
</g>
<!-- Node2&#45;&gt;Node3 -->
<g id="edge2" class="edge">
<title>Node2&#45;&gt;Node3</title>
<path fill="none" stroke="midnightblue" d="M47.88,-56.08C43.59,-48.61 37.34,-37.72 32.06,-28.52"/>
<polygon fill="midnightblue" stroke="midnightblue" points="35.04,-26.68 27.02,-19.75 28.97,-30.17 35.04,-26.68"/>
</g>
<!-- Node4 -->
<g id="node4" class="node">
<title>Node4</title>
<g id="a_node4"><a xlink:title=" ">
<polygon fill="white" stroke="#bfbfbf" points="62,-0.5 62,-19.5 108,-19.5 108,-0.5 62,-0.5"/>
<text text-anchor="middle" x="85" y="-7.5" font-family="Helvetica" font-size="10.00">cstring</text>
</a>
</g>
</g>
<!-- Node2&#45;&gt;Node4 -->
<g id="edge3" class="edge">
<title>Node2&#45;&gt;Node4</title>
<path fill="none" stroke="midnightblue" d="M58.28,-56.08C62.71,-48.61 69.16,-37.72 74.62,-28.52"/>
<polygon fill="midnightblue" stroke="midnightblue" points="77.73,-30.14 79.81,-19.75 71.71,-26.57 77.73,-30.14"/>
</g>
</g>
</svg>
