<?xml version="1.0" encoding="UTF-8" standalone="no"?>
<!DOCTYPE svg PUBLIC "-//W3C//DTD SVG 1.1//EN"
 "http://www.w3.org/Graphics/SVG/1.1/DTD/svg11.dtd">
<!-- Generated by graphviz version 2.40.1 (20161225.0304)
 -->
<!-- Title: sys/signal.hpp Pages: 1 -->
<svg width="154pt" height="140pt"
 viewBox="0.00 0.00 153.50 140.00" xmlns="http://www.w3.org/2000/svg" xmlns:xlink="http://www.w3.org/1999/xlink">
<g id="graph0" class="graph" transform="scale(1 1) rotate(0) translate(4 136)">
<title>sys/signal.hpp</title>
<polygon fill="#ffffff" stroke="transparent" points="-4,4 -4,-136 149.5,-136 149.5,4 -4,4"/>
<!-- Node0 -->
<g id="node1" class="node">
<title>Node0</title>
<polygon fill="#bfbfbf" stroke="#000000" points="47,-112.5 47,-131.5 127,-131.5 127,-112.5 47,-112.5"/>
<text text-anchor="middle" x="87" y="-119.5" font-family="Helvetica,sans-Serif" font-size="10.00" fill="#000000">sys/signal.hpp</text>
</g>
<!-- Node1 -->
<g id="node2" class="node">
<title>Node1</title>
<g id="a_node2"><a xlink:href="error_8hpp.html" target="_top" xlink:title="Provides system call error handling. ">
<polygon fill="#ffffff" stroke="#000000" points="25.5,-56.5 25.5,-75.5 80.5,-75.5 80.5,-56.5 25.5,-56.5"/>
<text text-anchor="middle" x="53" y="-63.5" font-family="Helvetica,sans-Serif" font-size="10.00" fill="#000000">error.hpp</text>
</a>
</g>
</g>
<!-- Node0&#45;&gt;Node1 -->
<g id="edge1" class="edge">
<title>Node0&#45;&gt;Node1</title>
<path fill="none" stroke="#191970" d="M81.0777,-112.2455C76.3973,-104.5367 69.7327,-93.5598 64.0711,-84.2348"/>
<polygon fill="#191970" stroke="#191970" points="67.0361,-82.3741 58.8545,-75.6427 61.0525,-86.007 67.0361,-82.3741"/>
</g>
<!-- Node4 -->
<g id="node5" class="node">
<title>Node4</title>
<polygon fill="#ffffff" stroke="#bfbfbf" points="98.5,-56.5 98.5,-75.5 145.5,-75.5 145.5,-56.5 98.5,-56.5"/>
<text text-anchor="middle" x="122" y="-63.5" font-family="Helvetica,sans-Serif" font-size="10.00" fill="#000000">csignal</text>
</g>
<!-- Node0&#45;&gt;Node4 -->
<g id="edge4" class="edge">
<title>Node0&#45;&gt;Node4</title>
<path fill="none" stroke="#191970" d="M93.0965,-112.2455C97.9145,-104.5367 104.7751,-93.5598 110.6032,-84.2348"/>
<polygon fill="#191970" stroke="#191970" points="113.6413,-85.9777 115.9733,-75.6427 107.7053,-82.2677 113.6413,-85.9777"/>
</g>
<!-- Node2 -->
<g id="node3" class="node">
<title>Node2</title>
<polygon fill="#ffffff" stroke="#bfbfbf" points="0,-.5 0,-19.5 44,-19.5 44,-.5 0,-.5"/>
<text text-anchor="middle" x="22" y="-7.5" font-family="Helvetica,sans-Serif" font-size="10.00" fill="#000000">cerrno</text>
</g>
<!-- Node1&#45;&gt;Node2 -->
<g id="edge2" class="edge">
<title>Node1&#45;&gt;Node2</title>
<path fill="none" stroke="#191970" d="M47.6002,-56.2455C43.3773,-48.617 37.3827,-37.7881 32.2559,-28.5267"/>
<polygon fill="#191970" stroke="#191970" points="35.2432,-26.6965 27.3379,-19.6427 29.119,-30.0867 35.2432,-26.6965"/>
</g>
<!-- Node3 -->
<g id="node4" class="node">
<title>Node3</title>
<polygon fill="#ffffff" stroke="#bfbfbf" points="62,-.5 62,-19.5 108,-19.5 108,-.5 62,-.5"/>
<text text-anchor="middle" x="85" y="-7.5" font-family="Helvetica,sans-Serif" font-size="10.00" fill="#000000">cstring</text>
</g>
<!-- Node1&#45;&gt;Node3 -->
<g id="edge3" class="edge">
<title>Node1&#45;&gt;Node3</title>
<path fill="none" stroke="#191970" d="M58.574,-56.2455C62.9331,-48.617 69.1211,-37.7881 74.4133,-28.5267"/>
<polygon fill="#191970" stroke="#191970" points="77.5673,-30.0616 79.4899,-19.6427 71.4896,-26.5886 77.5673,-30.0616"/>
</g>
</g>
</svg>
