<?xml version="1.0" encoding="UTF-8" standalone="no"?>
<!DOCTYPE svg PUBLIC "-//W3C//DTD SVG 1.1//EN"
 "http://www.w3.org/Graphics/SVG/1.1/DTD/svg11.dtd">
<!-- Generated by graphviz version 2.40.1 (20161225.0304)
 -->
<!-- Title: anonymous_namespace{loadplay.cpp}::CoreFrameReport Pages: 1 -->
<svg width="169pt" height="195pt"
 viewBox="0.00 0.00 169.00 195.00" xmlns="http://www.w3.org/2000/svg" xmlns:xlink="http://www.w3.org/1999/xlink">
<g id="graph0" class="graph" transform="scale(1 1) rotate(0) translate(4 191)">
<title>anonymous_namespace{loadplay.cpp}::CoreFrameReport</title>
<polygon fill="#ffffff" stroke="transparent" points="-4,4 -4,-191 165,-191 165,4 -4,4"/>
<!-- Node1 -->
<g id="node1" class="node">
<title>Node1</title>
<g id="a_node1"><a xlink:title="The report frame information for a single CPU pipeline.">
<polygon fill="#bfbfbf" stroke="#000000" points="0,-.5 0,-30.5 161,-30.5 161,-.5 0,-.5"/>
<text text-anchor="start" x="8" y="-18.5" font-family="Helvetica,sans-Serif" font-size="10.00" fill="#000000">anonymous_namespace</text>
<text text-anchor="middle" x="80.5" y="-7.5" font-family="Helvetica,sans-Serif" font-size="10.00" fill="#000000">{loadplay.cpp}::CoreFrameReport</text>
</a>
</g>
</g>
<!-- Node2 -->
<g id="node2" class="node">
<title>Node2</title>
<g id="a_node2"><a xlink:href="namespaceanonymous__namespace_02loadplay_8cpp_03.html#structanonymous__namespace_02loadplay_8cpp_03_1_1CoreReport" target="_top" xlink:title="The reported state of a single CPU pipeline.">
<polygon fill="#ffffff" stroke="#000000" points="13.5,-89.5 13.5,-119.5 147.5,-119.5 147.5,-89.5 13.5,-89.5"/>
<text text-anchor="start" x="21.5" y="-107.5" font-family="Helvetica,sans-Serif" font-size="10.00" fill="#000000">anonymous_namespace</text>
<text text-anchor="middle" x="80.5" y="-96.5" font-family="Helvetica,sans-Serif" font-size="10.00" fill="#000000">{loadplay.cpp}::CoreReport</text>
</a>
</g>
</g>
<!-- Node2&#45;&gt;Node1 -->
<g id="edge1" class="edge">
<title>Node2&#45;&gt;Node1</title>
<path fill="none" stroke="#9a32cd" stroke-dasharray="5,2" d="M80.5,-79.31C80.5,-63.6343 80.5,-43.9926 80.5,-30.6717"/>
<polygon fill="#9a32cd" stroke="#9a32cd" points="77.0001,-79.4023 80.5,-89.4024 84.0001,-79.4024 77.0001,-79.4023"/>
<text text-anchor="middle" x="89" y="-63" font-family="Helvetica,sans-Serif" font-size="10.00" fill="#000000"> run</text>
<text text-anchor="middle" x="89" y="-52" font-family="Helvetica,sans-Serif" font-size="10.00" fill="#000000">rec</text>
</g>
<!-- Node3 -->
<g id="node3" class="node">
<title>Node3</title>
<g id="a_node3"><a xlink:title=" ">
<polygon fill="#ffffff" stroke="#bfbfbf" points="58.5,-167.5 58.5,-186.5 102.5,-186.5 102.5,-167.5 58.5,-167.5"/>
<text text-anchor="middle" x="80.5" y="-174.5" font-family="Helvetica,sans-Serif" font-size="10.00" fill="#000000">mhz_t</text>
</a>
</g>
</g>
<!-- Node3&#45;&gt;Node2 -->
<g id="edge2" class="edge">
<title>Node3&#45;&gt;Node2</title>
<path fill="none" stroke="#9a32cd" stroke-dasharray="5,2" d="M80.5,-157.0177C80.5,-145.2164 80.5,-130.513 80.5,-119.668"/>
<polygon fill="#9a32cd" stroke="#9a32cd" points="77.0001,-157.2223 80.5,-167.2223 84.0001,-157.2224 77.0001,-157.2223"/>
<text text-anchor="middle" x="90.5" y="-141" font-family="Helvetica,sans-Serif" font-size="10.00" fill="#000000"> freq</text>
</g>
</g>
</svg>
