<?xml version="1.0" encoding="UTF-8" standalone="no"?>
<!DOCTYPE svg PUBLIC "-//W3C//DTD SVG 1.1//EN"
 "http://www.w3.org/Graphics/SVG/1.1/DTD/svg11.dtd">
<!-- Generated by graphviz version 2.42.2 ()
 -->
<!-- Title: anonymous_namespace{powerd++.cpp}::Global Pages: 1 -->
<svg width="1234pt" height="391pt"
 viewBox="0.00 0.00 1234.00 390.95" xmlns="http://www.w3.org/2000/svg" xmlns:xlink="http://www.w3.org/1999/xlink">
<g id="graph0" class="graph" transform="scale(1 1) rotate(0) translate(4 386.95)">
<title>anonymous_namespace{powerd++.cpp}::Global</title>
<polygon fill="white" stroke="transparent" points="-4,4 -4,-386.95 1230,-386.95 1230,4 -4,4"/>
<!-- Node1 -->
<g id="node1" class="node">
<title>Node1</title>
<g id="a_node1"><a xlink:title="A collection of all the gloabl, mutable states.">
<polygon fill="#bfbfbf" stroke="black" points="1104,-224.95 1104,-254.95 1226,-254.95 1226,-224.95 1104,-224.95"/>
<text text-anchor="start" x="1112" y="-242.95" font-family="Helvetica,sans-Serif" font-size="10.00">anonymous_namespace</text>
<text text-anchor="middle" x="1165" y="-231.95" font-family="Helvetica,sans-Serif" font-size="10.00">{powerd++.cpp}::Global</text>
</a>
</g>
</g>
<!-- Node2 -->
<g id="node2" class="node">
<title>Node2</title>
<g id="a_node2"><a xlink:title=" ">
<polygon fill="white" stroke="#bfbfbf" points="927,-363.45 927,-382.45 957,-382.45 957,-363.45 927,-363.45"/>
<text text-anchor="middle" x="942" y="-370.45" font-family="Helvetica,sans-Serif" font-size="10.00">ms</text>
</a>
</g>
</g>
<!-- Node2&#45;&gt;Node1 -->
<g id="edge1" class="edge">
<title>Node2&#45;&gt;Node1</title>
<path fill="none" stroke="#9a32cd" stroke-dasharray="5,2" d="M967.28,-374.3C997.41,-374.83 1049.29,-371.86 1086,-348.95 1122.52,-326.16 1146.99,-279.39 1157.76,-255.2"/>
<polygon fill="#9a32cd" stroke="#9a32cd" points="967.34,-370.8 957.23,-373.98 967.11,-377.8 967.34,-370.8"/>
<text text-anchor="middle" x="1058" y="-371.95" font-family="Helvetica,sans-Serif" font-size="10.00"> interval</text>
</g>
<!-- Node3 -->
<g id="node3" class="node">
<title>Node3</title>
<g id="a_node3"><a xlink:title=" ">
<polygon fill="white" stroke="#bfbfbf" points="172.5,-282.45 172.5,-301.45 223.5,-301.45 223.5,-282.45 172.5,-282.45"/>
<text text-anchor="middle" x="198" y="-289.45" font-family="Helvetica,sans-Serif" font-size="10.00">coreid_t</text>
</a>
</g>
</g>
<!-- Node3&#45;&gt;Node1 -->
<g id="edge2" class="edge">
<title>Node3&#45;&gt;Node1</title>
<path fill="none" stroke="#9a32cd" stroke-dasharray="5,2" d="M233.92,-292.23C331.84,-292.79 617.35,-293.01 854,-278.95 957.43,-272.81 983.56,-271.5 1086,-255.95 1091.74,-255.08 1097.7,-254.07 1103.64,-252.98"/>
<polygon fill="#9a32cd" stroke="#9a32cd" points="233.73,-288.73 223.71,-292.17 233.69,-295.73 233.73,-288.73"/>
<text text-anchor="middle" x="635" y="-291.95" font-family="Helvetica,sans-Serif" font-size="10.00"> ngroups</text>
</g>
<!-- Node8 -->
<g id="node8" class="node">
<title>Node8</title>
<g id="a_node8"><a xlink:href="namespaceanonymous__namespace_02powerd_09_09_8cpp_03.html#structanonymous__namespace_02powerd_09_09_8cpp_03_1_1CoreGroup" target="_top" xlink:title="Contains the management information for a group of cores with a common clock frequency.">
<polygon fill="white" stroke="black" points="348,-183.95 348,-213.95 486,-213.95 486,-183.95 348,-183.95"/>
<text text-anchor="start" x="356" y="-201.95" font-family="Helvetica,sans-Serif" font-size="10.00">anonymous_namespace</text>
<text text-anchor="middle" x="417" y="-190.95" font-family="Helvetica,sans-Serif" font-size="10.00">{powerd++.cpp}::CoreGroup</text>
</a>
</g>
</g>
<!-- Node3&#45;&gt;Node8 -->
<g id="edge9" class="edge">
<title>Node3&#45;&gt;Node8</title>
<path fill="none" stroke="#9a32cd" stroke-dasharray="5,2" d="M233.34,-282C260.14,-273.79 298.07,-261.21 330,-246.95 351.55,-237.33 374.85,-224.14 391.76,-214.01"/>
<polygon fill="#9a32cd" stroke="#9a32cd" points="232.21,-278.68 223.64,-284.93 234.23,-285.39 232.21,-278.68"/>
<text text-anchor="middle" x="306.5" y="-267.95" font-family="Helvetica,sans-Serif" font-size="10.00"> corei</text>
</g>
<!-- Node4 -->
<g id="node4" class="node">
<title>Node4</title>
<g id="a_node4"><a xlink:href="structanonymous__namespace_02powerd_09_09_8cpp_03_1_1Global.html#structanonymous__namespace_02powerd_09_09_8cpp_03_1_1Global_1_1ACSet" target="_top" xlink:title="Per AC line state settings.">
<polygon fill="white" stroke="black" points="574,-48.45 574,-89.45 696,-89.45 696,-48.45 574,-48.45"/>
<text text-anchor="start" x="582" y="-77.45" font-family="Helvetica,sans-Serif" font-size="10.00">anonymous_namespace</text>
<text text-anchor="start" x="582" y="-66.45" font-family="Helvetica,sans-Serif" font-size="10.00">{powerd++.cpp}::Global</text>
<text text-anchor="middle" x="635" y="-55.45" font-family="Helvetica,sans-Serif" font-size="10.00">::ACSet</text>
</a>
</g>
</g>
<!-- Node4&#45;&gt;Node1 -->
<g id="edge3" class="edge">
<title>Node4&#45;&gt;Node1</title>
<path fill="none" stroke="#9a32cd" stroke-dasharray="5,2" d="M706.2,-72.77C782.81,-78.41 908.37,-92.01 1012,-123.95 1046.95,-134.73 1056.35,-138.54 1086,-159.95 1112.42,-179.03 1137.76,-207.52 1152.05,-224.86"/>
<polygon fill="#9a32cd" stroke="#9a32cd" points="706.41,-69.28 696.18,-72.06 705.91,-76.26 706.41,-69.28"/>
<text text-anchor="middle" x="942" y="-126.95" font-family="Helvetica,sans-Serif" font-size="10.00"> acstates</text>
</g>
<!-- Node5 -->
<g id="node5" class="node">
<title>Node5</title>
<g id="a_node5"><a xlink:title=" ">
<polygon fill="white" stroke="#bfbfbf" points="12,-74.45 12,-93.45 56,-93.45 56,-74.45 12,-74.45"/>
<text text-anchor="middle" x="34" y="-81.45" font-family="Helvetica,sans-Serif" font-size="10.00">mhz_t</text>
</a>
</g>
</g>
<!-- Node5&#45;&gt;Node4 -->
<g id="edge4" class="edge">
<title>Node5&#45;&gt;Node4</title>
<path fill="none" stroke="#9a32cd" stroke-dasharray="5,2" d="M53.23,-67.44C71.47,-51.99 101.05,-29.72 131,-18.95 195.02,4.06 215.09,-4.96 283,-0.95 387.41,5.21 506.44,-26.2 575.61,-48.39"/>
<polygon fill="#9a32cd" stroke="#9a32cd" points="50.49,-65.19 45.24,-74.39 55.08,-70.47 50.49,-65.19"/>
<text text-anchor="middle" x="306.5" y="-25.95" font-family="Helvetica,sans-Serif" font-size="10.00"> freq_max</text>
<text text-anchor="middle" x="306.5" y="-14.95" font-family="Helvetica,sans-Serif" font-size="10.00">target_freq</text>
<text text-anchor="middle" x="306.5" y="-3.95" font-family="Helvetica,sans-Serif" font-size="10.00">freq_min</text>
</g>
<!-- Node5&#45;&gt;Node8 -->
<g id="edge8" class="edge">
<title>Node5&#45;&gt;Node8</title>
<path fill="none" stroke="#9a32cd" stroke-dasharray="5,2" d="M66.39,-79.77C111.61,-74.93 197.1,-70.28 265,-92.95 321.51,-111.83 375.61,-159.23 400.98,-183.74"/>
<polygon fill="#9a32cd" stroke="#9a32cd" points="65.86,-76.31 56.32,-80.92 66.65,-83.26 65.86,-76.31"/>
<text text-anchor="middle" x="198" y="-106.95" font-family="Helvetica,sans-Serif" font-size="10.00"> loadsum</text>
<text text-anchor="middle" x="198" y="-95.95" font-family="Helvetica,sans-Serif" font-size="10.00">sample_freq</text>
</g>
<!-- Node9 -->
<g id="node9" class="node">
<title>Node9</title>
<g id="a_node9"><a xlink:title=" ">
<polygon fill="white" stroke="#bfbfbf" points="133.5,-28.45 133.5,-47.45 262.5,-47.45 262.5,-28.45 133.5,-28.45"/>
<text text-anchor="middle" x="198" y="-35.45" font-family="Helvetica,sans-Serif" font-size="10.00">std::unique_ptr&lt; mhz_t[]&gt;</text>
</a>
</g>
</g>
<!-- Node5&#45;&gt;Node9 -->
<g id="edge11" class="edge">
<title>Node5&#45;&gt;Node9</title>
<path fill="none" stroke="#9a32cd" stroke-dasharray="5,2" d="M60.64,-69.72C68.58,-65.77 77.49,-61.79 86,-58.95 101.07,-53.94 117.72,-49.99 133.44,-46.94"/>
<polygon fill="#9a32cd" stroke="#9a32cd" points="58.79,-66.73 51.52,-74.44 62.01,-72.95 58.79,-66.73"/>
<text text-anchor="middle" x="99.5" y="-61.95" font-family="Helvetica,sans-Serif" font-size="10.00"> ptr</text>
</g>
<!-- Node10 -->
<g id="node10" class="node">
<title>Node10</title>
<g id="a_node10"><a xlink:href="classutility_1_1Min.html" target="_top" xlink:title=" ">
<polygon fill="white" stroke="black" points="144.5,-162.45 144.5,-181.45 251.5,-181.45 251.5,-162.45 144.5,-162.45"/>
<text text-anchor="middle" x="198" y="-169.45" font-family="Helvetica,sans-Serif" font-size="10.00">utility::Min&lt; mhz_t &gt;</text>
</a>
</g>
</g>
<!-- Node5&#45;&gt;Node10 -->
<g id="edge13" class="edge">
<title>Node5&#45;&gt;Node10</title>
<path fill="none" stroke="#9a32cd" stroke-dasharray="5,2" d="M52.96,-100.09C71.32,-115.77 101.29,-139.18 131,-152.95 139,-156.66 147.9,-159.82 156.49,-162.43"/>
<polygon fill="#9a32cd" stroke="#9a32cd" points="55.22,-97.42 45.38,-93.49 50.62,-102.69 55.22,-97.42"/>
<text text-anchor="middle" x="99.5" y="-145.95" font-family="Helvetica,sans-Serif" font-size="10.00"> value</text>
</g>
<!-- Node13 -->
<g id="node13" class="node">
<title>Node13</title>
<g id="a_node13"><a xlink:href="classutility_1_1Max.html" target="_top" xlink:title=" ">
<polygon fill="white" stroke="black" points="143,-124.45 143,-143.45 253,-143.45 253,-124.45 143,-124.45"/>
<text text-anchor="middle" x="198" y="-131.45" font-family="Helvetica,sans-Serif" font-size="10.00">utility::Max&lt; mhz_t &gt;</text>
</a>
</g>
</g>
<!-- Node5&#45;&gt;Node13 -->
<g id="edge17" class="edge">
<title>Node5&#45;&gt;Node13</title>
<path fill="none" stroke="#9a32cd" stroke-dasharray="5,2" d="M66.11,-93.55C94.88,-102.43 137.41,-115.56 166.11,-124.42"/>
<polygon fill="#9a32cd" stroke="#9a32cd" points="66.77,-90.09 56.18,-90.49 64.7,-96.78 66.77,-90.09"/>
<text text-anchor="middle" x="99.5" y="-110.95" font-family="Helvetica,sans-Serif" font-size="10.00"> value</text>
</g>
<!-- Node6 -->
<g id="node6" class="node">
<title>Node6</title>
<g id="a_node6"><a xlink:title=" ">
<polygon fill="white" stroke="#bfbfbf" points="390,-108.45 390,-127.45 444,-127.45 444,-108.45 390,-108.45"/>
<text text-anchor="middle" x="417" y="-115.45" font-family="Helvetica,sans-Serif" font-size="10.00">cptime_t</text>
</a>
</g>
</g>
<!-- Node6&#45;&gt;Node4 -->
<g id="edge5" class="edge">
<title>Node6&#45;&gt;Node4</title>
<path fill="none" stroke="#9a32cd" stroke-dasharray="5,2" d="M448.24,-104.27C464.46,-97.46 484.98,-89.7 504,-84.95 526.51,-79.34 551.71,-75.66 573.9,-73.26"/>
<polygon fill="#9a32cd" stroke="#9a32cd" points="446.55,-101.18 438.74,-108.35 449.31,-107.62 446.55,-101.18"/>
<text text-anchor="middle" x="530" y="-87.95" font-family="Helvetica,sans-Serif" font-size="10.00"> target_load</text>
</g>
<!-- Node15 -->
<g id="node15" class="node">
<title>Node15</title>
<g id="a_node15"><a xlink:title=" ">
<polygon fill="white" stroke="#bfbfbf" points="724.5,-124.95 724.5,-154.95 843.5,-154.95 843.5,-124.95 724.5,-124.95"/>
<text text-anchor="start" x="732.5" y="-142.95" font-family="Helvetica,sans-Serif" font-size="10.00">std::unique_ptr&lt; cptime</text>
<text text-anchor="middle" x="784" y="-131.95" font-family="Helvetica,sans-Serif" font-size="10.00">_t[][CPUSTATES]&gt;</text>
</a>
</g>
</g>
<!-- Node6&#45;&gt;Node15 -->
<g id="edge21" class="edge">
<title>Node6&#45;&gt;Node15</title>
<path fill="none" stroke="#9a32cd" stroke-dasharray="5,2" d="M454.53,-120.16C517.8,-123.97 648.28,-131.83 724.37,-136.42"/>
<polygon fill="#9a32cd" stroke="#9a32cd" points="454.44,-116.64 444.25,-119.54 454.02,-123.63 454.44,-116.64"/>
<text text-anchor="middle" x="530" y="-129.95" font-family="Helvetica,sans-Serif" font-size="10.00"> ptr</text>
</g>
<!-- Node17 -->
<g id="node17" class="node">
<title>Node17</title>
<g id="a_node17"><a xlink:href="namespaceanonymous__namespace_02powerd_09_09_8cpp_03.html#structanonymous__namespace_02powerd_09_09_8cpp_03_1_1Core" target="_top" xlink:title="Contains the management information for a single CPU core.">
<polygon fill="white" stroke="black" points="574,-182.95 574,-212.95 696,-212.95 696,-182.95 574,-182.95"/>
<text text-anchor="start" x="582" y="-200.95" font-family="Helvetica,sans-Serif" font-size="10.00">anonymous_namespace</text>
<text text-anchor="middle" x="635" y="-189.95" font-family="Helvetica,sans-Serif" font-size="10.00">{powerd++.cpp}::Core</text>
</a>
</g>
</g>
<!-- Node6&#45;&gt;Node17 -->
<g id="edge26" class="edge">
<title>Node6&#45;&gt;Node17</title>
<path fill="none" stroke="#9a32cd" stroke-dasharray="5,2" d="M453.86,-127.62C482,-135.57 521.96,-147.65 556,-160.95 572.47,-167.39 590.33,-175.75 604.8,-182.9"/>
<polygon fill="#9a32cd" stroke="#9a32cd" points="454.64,-124.21 444.06,-124.89 452.75,-130.95 454.64,-124.21"/>
<text text-anchor="middle" x="530" y="-185.95" font-family="Helvetica,sans-Serif" font-size="10.00"> idle</text>
<text text-anchor="middle" x="530" y="-174.95" font-family="Helvetica,sans-Serif" font-size="10.00">all</text>
<text text-anchor="middle" x="530" y="-163.95" font-family="Helvetica,sans-Serif" font-size="10.00">cp_time</text>
</g>
<!-- Node7 -->
<g id="node7" class="node">
<title>Node7</title>
<g id="a_node7"><a xlink:title=" ">
<polygon fill="white" stroke="#bfbfbf" points="714,-228.45 714,-269.45 854,-269.45 854,-228.45 714,-228.45"/>
<text text-anchor="start" x="722" y="-257.45" font-family="Helvetica,sans-Serif" font-size="10.00">std::unique_ptr&lt; anonymous</text>
<text text-anchor="start" x="722" y="-246.45" font-family="Helvetica,sans-Serif" font-size="10.00">_namespace{powerd++.cpp}</text>
<text text-anchor="middle" x="784" y="-235.45" font-family="Helvetica,sans-Serif" font-size="10.00">::CoreGroup[]&gt;</text>
</a>
</g>
</g>
<!-- Node7&#45;&gt;Node1 -->
<g id="edge6" class="edge">
<title>Node7&#45;&gt;Node1</title>
<path fill="none" stroke="#9a32cd" stroke-dasharray="5,2" d="M864.37,-247.07C935.75,-245.37 1039.06,-242.92 1103.83,-241.38"/>
<polygon fill="#9a32cd" stroke="#9a32cd" points="863.99,-243.58 854.07,-247.31 864.15,-250.57 863.99,-243.58"/>
<text text-anchor="middle" x="942" y="-248.95" font-family="Helvetica,sans-Serif" font-size="10.00"> groups</text>
</g>
<!-- Node8&#45;&gt;Node7 -->
<g id="edge7" class="edge">
<title>Node8&#45;&gt;Node7</title>
<path fill="none" stroke="#9a32cd" stroke-dasharray="5,2" d="M495.96,-211.71C498.67,-212.13 501.36,-212.55 504,-212.95 575.33,-223.85 657.26,-234.16 713.79,-240.93"/>
<polygon fill="#9a32cd" stroke="#9a32cd" points="496.47,-208.25 486.05,-210.16 495.39,-215.17 496.47,-208.25"/>
<text text-anchor="middle" x="530" y="-222.95" font-family="Helvetica,sans-Serif" font-size="10.00"> ptr</text>
</g>
<!-- Node8&#45;&gt;Node17 -->
<g id="edge25" class="edge">
<title>Node8&#45;&gt;Node17</title>
<path fill="none" stroke="#9a32cd" stroke-dasharray="5,2" d="M496.12,-198.59C521.77,-198.47 549.86,-198.34 573.96,-198.23"/>
<polygon fill="#9a32cd" stroke="#9a32cd" points="496.03,-195.09 486.05,-198.64 496.06,-202.09 496.03,-195.09"/>
<text text-anchor="middle" x="530" y="-200.95" font-family="Helvetica,sans-Serif" font-size="10.00"> group</text>
</g>
<!-- Node9&#45;&gt;Node8 -->
<g id="edge10" class="edge">
<title>Node9&#45;&gt;Node8</title>
<path fill="none" stroke="#9a32cd" stroke-dasharray="5,2" d="M272.67,-35C293.46,-37.78 314.6,-44.56 330,-58.95 356,-83.24 330.04,-106.24 348,-136.95 359.21,-156.12 378.29,-172.75 393.4,-183.95"/>
<polygon fill="#9a32cd" stroke="#9a32cd" points="272.82,-31.49 262.51,-33.94 272.09,-38.46 272.82,-31.49"/>
<text text-anchor="middle" x="306.5" y="-61.95" font-family="Helvetica,sans-Serif" font-size="10.00"> loads</text>
</g>
<!-- Node10&#45;&gt;Node8 -->
<g id="edge12" class="edge">
<title>Node10&#45;&gt;Node8</title>
<path fill="none" stroke="#9a32cd" stroke-dasharray="5,2" d="M261.79,-175.94C283.45,-177.66 307.84,-179.97 330,-182.95 335.72,-183.72 341.64,-184.62 347.56,-185.58"/>
<polygon fill="#9a32cd" stroke="#9a32cd" points="261.96,-172.44 251.72,-175.17 261.42,-179.42 261.96,-172.44"/>
<text text-anchor="middle" x="306.5" y="-185.95" font-family="Helvetica,sans-Serif" font-size="10.00"> max</text>
</g>
<!-- Node11 -->
<g id="node11" class="node">
<title>Node11</title>
<g id="a_node11"><a xlink:href="classutility_1_1Min.html" target="_top" xlink:title=" ">
<polygon fill="white" stroke="black" points="132.5,-200.45 132.5,-219.45 263.5,-219.45 263.5,-200.45 132.5,-200.45"/>
<text text-anchor="middle" x="198" y="-207.45" font-family="Helvetica,sans-Serif" font-size="10.00">utility::Min&lt; decikelvin_t &gt;</text>
</a>
</g>
</g>
<!-- Node11&#45;&gt;Node8 -->
<g id="edge14" class="edge">
<title>Node11&#45;&gt;Node8</title>
<path fill="none" stroke="#9a32cd" stroke-dasharray="5,2" d="M273.69,-200.63C276.84,-200.37 279.95,-200.15 283,-199.95 304.09,-198.62 327.09,-198.12 347.95,-198.01"/>
<polygon fill="#9a32cd" stroke="#9a32cd" points="273.25,-197.15 263.6,-201.53 273.87,-204.13 273.25,-197.15"/>
<text text-anchor="middle" x="306.5" y="-213.95" font-family="Helvetica,sans-Serif" font-size="10.00"> temp_crit</text>
<text text-anchor="middle" x="306.5" y="-202.95" font-family="Helvetica,sans-Serif" font-size="10.00">temp_high</text>
</g>
<!-- Node12 -->
<g id="node12" class="node">
<title>Node12</title>
<g id="a_node12"><a xlink:title=" ">
<polygon fill="white" stroke="#bfbfbf" points="0,-238.45 0,-257.45 68,-257.45 68,-238.45 0,-238.45"/>
<text text-anchor="middle" x="34" y="-245.45" font-family="Helvetica,sans-Serif" font-size="10.00">decikelvin_t</text>
</a>
</g>
</g>
<!-- Node12&#45;&gt;Node1 -->
<g id="edge22" class="edge">
<title>Node12&#45;&gt;Node1</title>
<path fill="none" stroke="#9a32cd" stroke-dasharray="5,2" d="M51.95,-264.41C79.79,-289.64 138.02,-334.95 197,-334.95 197,-334.95 197,-334.95 943,-334.95 1022.98,-334.95 1106.97,-281.79 1144.21,-255.01"/>
<polygon fill="#9a32cd" stroke="#9a32cd" points="54.33,-261.85 44.62,-257.6 49.56,-266.97 54.33,-261.85"/>
<text text-anchor="middle" x="530" y="-348.95" font-family="Helvetica,sans-Serif" font-size="10.00"> temp_crit</text>
<text text-anchor="middle" x="530" y="-337.95" font-family="Helvetica,sans-Serif" font-size="10.00">temp_high</text>
</g>
<!-- Node12&#45;&gt;Node11 -->
<g id="edge15" class="edge">
<title>Node12&#45;&gt;Node11</title>
<path fill="none" stroke="#9a32cd" stroke-dasharray="5,2" d="M75.66,-235.67C79.15,-234.72 82.63,-233.8 86,-232.95 105.66,-228.03 127.47,-223.35 146.52,-219.51"/>
<polygon fill="#9a32cd" stroke="#9a32cd" points="74.58,-232.34 65.9,-238.42 76.48,-239.08 74.58,-232.34"/>
<text text-anchor="middle" x="99.5" y="-235.95" font-family="Helvetica,sans-Serif" font-size="10.00"> value</text>
</g>
<!-- Node14 -->
<g id="node14" class="node">
<title>Node14</title>
<g id="a_node14"><a xlink:href="classutility_1_1Max.html" target="_top" xlink:title=" ">
<polygon fill="white" stroke="black" points="131,-238.45 131,-257.45 265,-257.45 265,-238.45 131,-238.45"/>
<text text-anchor="middle" x="198" y="-245.45" font-family="Helvetica,sans-Serif" font-size="10.00">utility::Max&lt; decikelvin_t &gt;</text>
</a>
</g>
</g>
<!-- Node12&#45;&gt;Node14 -->
<g id="edge19" class="edge">
<title>Node12&#45;&gt;Node14</title>
<path fill="none" stroke="#9a32cd" stroke-dasharray="5,2" d="M78.35,-247.95C94.44,-247.95 113.08,-247.95 130.76,-247.95"/>
<polygon fill="#9a32cd" stroke="#9a32cd" points="78.17,-244.45 68.17,-247.95 78.17,-251.45 78.17,-244.45"/>
<text text-anchor="middle" x="99.5" y="-250.95" font-family="Helvetica,sans-Serif" font-size="10.00"> value</text>
</g>
<!-- Node13&#45;&gt;Node8 -->
<g id="edge16" class="edge">
<title>Node13&#45;&gt;Node8</title>
<path fill="none" stroke="#9a32cd" stroke-dasharray="5,2" d="M263.27,-138.08C284.86,-140.7 308.82,-144.97 330,-151.95 352.95,-159.52 376.9,-173.15 393.68,-183.79"/>
<polygon fill="#9a32cd" stroke="#9a32cd" points="263.54,-134.59 253.22,-136.96 262.77,-141.55 263.54,-134.59"/>
<text text-anchor="middle" x="306.5" y="-165.95" font-family="Helvetica,sans-Serif" font-size="10.00"> load</text>
<text text-anchor="middle" x="306.5" y="-154.95" font-family="Helvetica,sans-Serif" font-size="10.00">min</text>
</g>
<!-- Node14&#45;&gt;Node8 -->
<g id="edge18" class="edge">
<title>Node14&#45;&gt;Node8</title>
<path fill="none" stroke="#9a32cd" stroke-dasharray="5,2" d="M260.96,-236.52C282.84,-232.25 307.58,-227.17 330,-221.95 340.39,-219.54 351.42,-216.75 362,-213.97"/>
<polygon fill="#9a32cd" stroke="#9a32cd" points="260.28,-233.09 251.12,-238.42 261.61,-239.96 260.28,-233.09"/>
<text text-anchor="middle" x="306.5" y="-234.95" font-family="Helvetica,sans-Serif" font-size="10.00"> temp</text>
</g>
<!-- Node15&#45;&gt;Node1 -->
<g id="edge20" class="edge">
<title>Node15&#45;&gt;Node1</title>
<path fill="none" stroke="#9a32cd" stroke-dasharray="5,2" d="M853.7,-137.62C899.43,-137.87 960.38,-141.7 1012,-156.95 1062.46,-171.86 1114.96,-205.17 1143.13,-224.76"/>
<polygon fill="#9a32cd" stroke="#9a32cd" points="853.59,-134.12 843.59,-137.62 853.59,-141.12 853.59,-134.12"/>
<text text-anchor="middle" x="942" y="-159.95" font-family="Helvetica,sans-Serif" font-size="10.00"> cp_times</text>
</g>
<!-- Node16 -->
<g id="node16" class="node">
<title>Node16</title>
<g id="a_node16"><a xlink:title=" ">
<polygon fill="white" stroke="#bfbfbf" points="872,-177.45 872,-218.45 1012,-218.45 1012,-177.45 872,-177.45"/>
<text text-anchor="start" x="880" y="-206.45" font-family="Helvetica,sans-Serif" font-size="10.00">std::unique_ptr&lt; anonymous</text>
<text text-anchor="start" x="880" y="-195.45" font-family="Helvetica,sans-Serif" font-size="10.00">_namespace{powerd++.cpp}</text>
<text text-anchor="middle" x="942" y="-184.45" font-family="Helvetica,sans-Serif" font-size="10.00">::Core[]&gt;</text>
</a>
</g>
</g>
<!-- Node16&#45;&gt;Node1 -->
<g id="edge23" class="edge">
<title>Node16&#45;&gt;Node1</title>
<path fill="none" stroke="#9a32cd" stroke-dasharray="5,2" d="M1022.16,-213C1049.02,-218.1 1078.57,-223.72 1103.72,-228.5"/>
<polygon fill="#9a32cd" stroke="#9a32cd" points="1022.49,-209.5 1012.02,-211.07 1021.19,-216.37 1022.49,-209.5"/>
<text text-anchor="middle" x="1058" y="-225.95" font-family="Helvetica,sans-Serif" font-size="10.00"> cores</text>
</g>
<!-- Node17&#45;&gt;Node16 -->
<g id="edge24" class="edge">
<title>Node17&#45;&gt;Node16</title>
<path fill="none" stroke="#9a32cd" stroke-dasharray="5,2" d="M706.29,-197.95C756,-197.95 822.34,-197.95 871.81,-197.95"/>
<polygon fill="#9a32cd" stroke="#9a32cd" points="706.26,-194.45 696.26,-197.95 706.26,-201.45 706.26,-194.45"/>
<text text-anchor="middle" x="784" y="-200.95" font-family="Helvetica,sans-Serif" font-size="10.00"> ptr</text>
</g>
<!-- Node18 -->
<g id="node18" class="node">
<title>Node18</title>
<g id="a_node18"><a xlink:href="classsys_1_1ctl_1_1Sysctl_3_010_01_4.html" target="_top" xlink:title="This is a specialisation of Sysctl for sysctls using symbolic names.">
<polygon fill="white" stroke="black" points="889,-45.45 889,-64.45 995,-64.45 995,-45.45 889,-45.45"/>
<text text-anchor="middle" x="942" y="-52.45" font-family="Helvetica,sans-Serif" font-size="10.00">sys::ctl::Sysctl&lt; 0 &gt;</text>
</a>
</g>
</g>
<!-- Node18&#45;&gt;Node1 -->
<g id="edge27" class="edge">
<title>Node18&#45;&gt;Node1</title>
<path fill="none" stroke="#9a32cd" stroke-dasharray="5,2" d="M1005.4,-45.73C1032.37,-44.99 1062.95,-48.82 1086,-64.95 1140.91,-103.39 1157.7,-189.74 1162.37,-224.76"/>
<polygon fill="#9a32cd" stroke="#9a32cd" points="1005.09,-42.25 995.27,-46.23 1005.43,-49.24 1005.09,-42.25"/>
<text text-anchor="middle" x="1058" y="-78.95" font-family="Helvetica,sans-Serif" font-size="10.00"> acline_ctl</text>
<text text-anchor="middle" x="1058" y="-67.95" font-family="Helvetica,sans-Serif" font-size="10.00">cp_times_ctl</text>
</g>
</g>
</svg>
