<?xml version="1.0" encoding="UTF-8" standalone="no"?>
<!DOCTYPE svg PUBLIC "-//W3C//DTD SVG 1.1//EN"
 "http://www.w3.org/Graphics/SVG/1.1/DTD/svg11.dtd">
<!-- Generated by graphviz version 2.42.2 ()
 -->
<!-- Title: anonymous_namespace{powerd++.cpp}::CoreGroup Pages: 1 -->
<svg width="495pt" height="296pt"
 viewBox="0.00 0.00 495.00 296.00" xmlns="http://www.w3.org/2000/svg" xmlns:xlink="http://www.w3.org/1999/xlink">
<g id="graph0" class="graph" transform="scale(1 1) rotate(0) translate(4 292)">
<title>anonymous_namespace{powerd++.cpp}::CoreGroup</title>
<polygon fill="white" stroke="transparent" points="-4,4 -4,-292 491,-292 491,4 -4,4"/>
<!-- Node1 -->
<g id="node1" class="node">
<title>Node1</title>
<g id="a_node1"><a xlink:title="Contains the management information for a group of cores with a common clock frequency.">
<polygon fill="#bfbfbf" stroke="black" points="350,-127 350,-157 487,-157 487,-127 350,-127"/>
<text text-anchor="start" x="358" y="-145" font-family="Helvetica" font-size="10.00">anonymous_namespace</text>
<text text-anchor="middle" x="418.5" y="-134" font-family="Helvetica" font-size="10.00">{powerd++.cpp}::CoreGroup</text>
</a>
</g>
</g>
<!-- Node2 -->
<g id="node2" class="node">
<title>Node2</title>
<g id="a_node2"><a xlink:title=" ">
<polygon fill="white" stroke="#bfbfbf" points="12,-209.5 12,-228.5 56,-228.5 56,-209.5 12,-209.5"/>
<text text-anchor="middle" x="34" y="-216.5" font-family="Helvetica" font-size="10.00">mhz_t</text>
</a>
</g>
</g>
<!-- Node2&#45;&gt;Node1 -->
<g id="edge1" class="edge">
<title>Node2&#45;&gt;Node1</title>
<path fill="none" stroke="#9a32cd" stroke-dasharray="5,2" d="M62.66,-232.86C70.14,-236.38 78.31,-240 86,-243 161.63,-272.45 187.95,-271.38 268,-258 297.67,-253.04 306.87,-252.53 332,-236 364.62,-214.54 393.01,-177.82 407.42,-157.2"/>
<polygon fill="#9a32cd" stroke="#9a32cd" points="64.15,-229.69 53.62,-228.52 61.12,-236 64.15,-229.69"/>
<text text-anchor="middle" x="201" y="-280" font-family="Helvetica" font-size="10.00"> loadsum</text>
<text text-anchor="middle" x="201" y="-269" font-family="Helvetica" font-size="10.00">sample_freq</text>
</g>
<!-- Node6 -->
<g id="node6" class="node">
<title>Node6</title>
<g id="a_node6"><a xlink:title=" ">
<polygon fill="white" stroke="#bfbfbf" points="136.5,-229.5 136.5,-248.5 265.5,-248.5 265.5,-229.5 136.5,-229.5"/>
<text text-anchor="middle" x="201" y="-236.5" font-family="Helvetica" font-size="10.00">std::unique_ptr&lt; mhz_t[]&gt;</text>
</a>
</g>
</g>
<!-- Node2&#45;&gt;Node6 -->
<g id="edge6" class="edge">
<title>Node2&#45;&gt;Node6</title>
<path fill="none" stroke="#9a32cd" stroke-dasharray="5,2" d="M66.19,-222.78C85.93,-225.17 112.15,-228.35 136.16,-231.26"/>
<polygon fill="#9a32cd" stroke="#9a32cd" points="66.58,-219.3 56.23,-221.57 65.74,-226.25 66.58,-219.3"/>
<text text-anchor="middle" x="101" y="-231" font-family="Helvetica" font-size="10.00"> ptr</text>
</g>
<!-- Node7 -->
<g id="node7" class="node">
<title>Node7</title>
<g id="a_node7"><a xlink:href="classutility_1_1Min.html" target="_top" xlink:title=" ">
<polygon fill="white" stroke="black" points="147.5,-191.5 147.5,-210.5 254.5,-210.5 254.5,-191.5 147.5,-191.5"/>
<text text-anchor="middle" x="201" y="-198.5" font-family="Helvetica" font-size="10.00">utility::Min&lt; mhz_t &gt;</text>
</a>
</g>
</g>
<!-- Node2&#45;&gt;Node7 -->
<g id="edge8" class="edge">
<title>Node2&#45;&gt;Node7</title>
<path fill="none" stroke="#9a32cd" stroke-dasharray="5,2" d="M65.94,-208.51C72.49,-206.68 79.42,-205.04 86,-204 105.85,-200.87 127.88,-199.76 147.24,-199.54"/>
<polygon fill="#9a32cd" stroke="#9a32cd" points="64.63,-205.25 56.06,-211.47 66.64,-211.95 64.63,-205.25"/>
<text text-anchor="middle" x="101" y="-207" font-family="Helvetica" font-size="10.00"> value</text>
</g>
<!-- Node10 -->
<g id="node10" class="node">
<title>Node10</title>
<g id="a_node10"><a xlink:href="classutility_1_1Max.html" target="_top" xlink:title=" ">
<polygon fill="white" stroke="black" points="146,-153.5 146,-172.5 256,-172.5 256,-153.5 146,-153.5"/>
<text text-anchor="middle" x="201" y="-160.5" font-family="Helvetica" font-size="10.00">utility::Max&lt; mhz_t &gt;</text>
</a>
</g>
</g>
<!-- Node2&#45;&gt;Node10 -->
<g id="edge12" class="edge">
<title>Node2&#45;&gt;Node10</title>
<path fill="none" stroke="#9a32cd" stroke-dasharray="5,2" d="M54.39,-203.41C63.5,-196.81 74.81,-189.59 86,-185 104.83,-177.27 126.55,-172.22 145.95,-168.93"/>
<polygon fill="#9a32cd" stroke="#9a32cd" points="52.26,-200.63 46.39,-209.46 56.48,-206.22 52.26,-200.63"/>
<text text-anchor="middle" x="101" y="-188" font-family="Helvetica" font-size="10.00"> value</text>
</g>
<!-- Node3 -->
<g id="node3" class="node">
<title>Node3</title>
<g id="a_node3"><a xlink:title=" ">
<polygon fill="white" stroke="#bfbfbf" points="175.5,-115.5 175.5,-134.5 226.5,-134.5 226.5,-115.5 175.5,-115.5"/>
<text text-anchor="middle" x="201" y="-122.5" font-family="Helvetica" font-size="10.00">coreid_t</text>
</a>
</g>
</g>
<!-- Node3&#45;&gt;Node1 -->
<g id="edge2" class="edge">
<title>Node3&#45;&gt;Node1</title>
<path fill="none" stroke="#9a32cd" stroke-dasharray="5,2" d="M236.7,-123.6C262.94,-122.95 299.82,-122.89 332,-126 337.86,-126.57 343.92,-127.33 349.98,-128.22"/>
<polygon fill="#9a32cd" stroke="#9a32cd" points="236.4,-120.11 226.51,-123.9 236.6,-127.11 236.4,-120.11"/>
<text text-anchor="middle" x="309" y="-129" font-family="Helvetica" font-size="10.00"> corei</text>
</g>
<!-- Node4 -->
<g id="node4" class="node">
<title>Node4</title>
<g id="a_node4"><a xlink:href="classsys_1_1ctl_1_1Sync.html" target="_top" xlink:title=" ">
<polygon fill="white" stroke="black" points="140,-77.5 140,-96.5 262,-96.5 262,-77.5 140,-77.5"/>
<text text-anchor="middle" x="201" y="-84.5" font-family="Helvetica" font-size="10.00">sys::ctl::Sync&lt; mhz_t &gt;</text>
</a>
</g>
</g>
<!-- Node4&#45;&gt;Node1 -->
<g id="edge3" class="edge">
<title>Node4&#45;&gt;Node1</title>
<path fill="none" stroke="#9a32cd" stroke-dasharray="5,2" d="M272.19,-95.47C291.74,-98.6 312.86,-102.72 332,-108 349.71,-112.89 368.76,-120.25 384.38,-126.87"/>
<polygon fill="#9a32cd" stroke="#9a32cd" points="272.54,-91.98 262.13,-93.92 271.48,-98.9 272.54,-91.98"/>
<text text-anchor="middle" x="309" y="-111" font-family="Helvetica" font-size="10.00"> freq</text>
</g>
<!-- Node5 -->
<g id="node5" class="node">
<title>Node5</title>
<g id="a_node5"><a xlink:title=" ">
<polygon fill="white" stroke="#bfbfbf" points="9,-77.5 9,-96.5 59,-96.5 59,-77.5 9,-77.5"/>
<text text-anchor="middle" x="34" y="-84.5" font-family="Helvetica" font-size="10.00">SysctlT</text>
</a>
</g>
</g>
<!-- Node5&#45;&gt;Node4 -->
<g id="edge4" class="edge">
<title>Node5&#45;&gt;Node4</title>
<path fill="none" stroke="#9a32cd" stroke-dasharray="5,2" d="M69.41,-87C89.78,-87 116.17,-87 139.89,-87"/>
<polygon fill="#9a32cd" stroke="#9a32cd" points="69.35,-83.5 59.35,-87 69.35,-90.5 69.35,-83.5"/>
<text text-anchor="middle" x="101" y="-90" font-family="Helvetica" font-size="10.00"> sysctl</text>
</g>
<!-- Node6&#45;&gt;Node1 -->
<g id="edge5" class="edge">
<title>Node6&#45;&gt;Node1</title>
<path fill="none" stroke="#9a32cd" stroke-dasharray="5,2" d="M267.01,-227.11C288.33,-221.88 311.74,-214.67 332,-205 358.29,-192.45 384.7,-171.39 401.06,-157.11"/>
<polygon fill="#9a32cd" stroke="#9a32cd" points="266,-223.75 257.06,-229.44 267.6,-230.56 266,-223.75"/>
<text text-anchor="middle" x="309" y="-224" font-family="Helvetica" font-size="10.00"> loads</text>
</g>
<!-- Node7&#45;&gt;Node1 -->
<g id="edge7" class="edge">
<title>Node7&#45;&gt;Node1</title>
<path fill="none" stroke="#9a32cd" stroke-dasharray="5,2" d="M264.62,-194.22C286.24,-191 310.43,-186.42 332,-180 351.46,-174.21 372.3,-165.01 388.54,-157.12"/>
<polygon fill="#9a32cd" stroke="#9a32cd" points="263.97,-190.77 254.56,-195.64 264.96,-197.71 263.97,-190.77"/>
<text text-anchor="middle" x="309" y="-193" font-family="Helvetica" font-size="10.00"> max</text>
</g>
<!-- Node8 -->
<g id="node8" class="node">
<title>Node8</title>
<g id="a_node8"><a xlink:href="classutility_1_1Min.html" target="_top" xlink:title=" ">
<polygon fill="white" stroke="black" points="135.5,-38.5 135.5,-57.5 266.5,-57.5 266.5,-38.5 135.5,-38.5"/>
<text text-anchor="middle" x="201" y="-45.5" font-family="Helvetica" font-size="10.00">utility::Min&lt; decikelvin_t &gt;</text>
</a>
</g>
</g>
<!-- Node8&#45;&gt;Node1 -->
<g id="edge9" class="edge">
<title>Node8&#45;&gt;Node1</title>
<path fill="none" stroke="#9a32cd" stroke-dasharray="5,2" d="M276.75,-54.45C295.38,-57.87 314.9,-63.07 332,-71 361.06,-84.47 388.38,-110.32 404,-126.84"/>
<polygon fill="#9a32cd" stroke="#9a32cd" points="277.25,-50.99 266.81,-52.78 276.09,-57.89 277.25,-50.99"/>
<text text-anchor="middle" x="309" y="-85" font-family="Helvetica" font-size="10.00"> temp_crit</text>
<text text-anchor="middle" x="309" y="-74" font-family="Helvetica" font-size="10.00">temp_high</text>
</g>
<!-- Node9 -->
<g id="node9" class="node">
<title>Node9</title>
<g id="a_node9"><a xlink:title=" ">
<polygon fill="white" stroke="#bfbfbf" points="0,-22.5 0,-41.5 68,-41.5 68,-22.5 0,-22.5"/>
<text text-anchor="middle" x="34" y="-29.5" font-family="Helvetica" font-size="10.00">decikelvin_t</text>
</a>
</g>
</g>
<!-- Node9&#45;&gt;Node8 -->
<g id="edge10" class="edge">
<title>Node9&#45;&gt;Node8</title>
<path fill="none" stroke="#9a32cd" stroke-dasharray="5,2" d="M78.75,-36.24C96.07,-37.92 116.33,-39.89 135.28,-41.72"/>
<polygon fill="#9a32cd" stroke="#9a32cd" points="78.68,-32.72 68.39,-35.24 78.01,-39.69 78.68,-32.72"/>
<text text-anchor="middle" x="101" y="-42" font-family="Helvetica" font-size="10.00"> value</text>
</g>
<!-- Node11 -->
<g id="node11" class="node">
<title>Node11</title>
<g id="a_node11"><a xlink:href="classutility_1_1Max.html" target="_top" xlink:title=" ">
<polygon fill="white" stroke="black" points="134,-0.5 134,-19.5 268,-19.5 268,-0.5 134,-0.5"/>
<text text-anchor="middle" x="201" y="-7.5" font-family="Helvetica" font-size="10.00">utility::Max&lt; decikelvin_t &gt;</text>
</a>
</g>
</g>
<!-- Node9&#45;&gt;Node11 -->
<g id="edge14" class="edge">
<title>Node9&#45;&gt;Node11</title>
<path fill="none" stroke="#9a32cd" stroke-dasharray="5,2" d="M78.24,-23.25C80.86,-22.8 83.46,-22.38 86,-22 101.45,-19.68 118.14,-17.65 133.86,-15.96"/>
<polygon fill="#9a32cd" stroke="#9a32cd" points="77.35,-19.85 68.12,-25.06 78.58,-26.74 77.35,-19.85"/>
<text text-anchor="middle" x="101" y="-25" font-family="Helvetica" font-size="10.00"> value</text>
</g>
<!-- Node10&#45;&gt;Node1 -->
<g id="edge11" class="edge">
<title>Node10&#45;&gt;Node1</title>
<path fill="none" stroke="#9a32cd" stroke-dasharray="5,2" d="M266.35,-156.73C292.69,-154.16 323.18,-151.19 349.85,-148.59"/>
<polygon fill="#9a32cd" stroke="#9a32cd" points="265.71,-153.27 256.1,-157.73 266.39,-160.24 265.71,-153.27"/>
<text text-anchor="middle" x="309" y="-168" font-family="Helvetica" font-size="10.00"> load</text>
<text text-anchor="middle" x="309" y="-157" font-family="Helvetica" font-size="10.00">min</text>
</g>
<!-- Node11&#45;&gt;Node1 -->
<g id="edge13" class="edge">
<title>Node11&#45;&gt;Node1</title>
<path fill="none" stroke="#9a32cd" stroke-dasharray="5,2" d="M278.2,-19.72C296.72,-24.31 315.83,-31.06 332,-41 367.42,-62.78 395.5,-104.25 408.91,-126.68"/>
<polygon fill="#9a32cd" stroke="#9a32cd" points="278.83,-16.27 268.3,-17.45 277.26,-23.1 278.83,-16.27"/>
<text text-anchor="middle" x="309" y="-44" font-family="Helvetica" font-size="10.00"> temp</text>
</g>
</g>
</svg>
