<?xml version="1.0" encoding="UTF-8" standalone="no"?>
<!DOCTYPE svg PUBLIC "-//W3C//DTD SVG 1.1//EN"
 "http://www.w3.org/Graphics/SVG/1.1/DTD/svg11.dtd">
<!-- Generated by graphviz version 2.42.2 ()
 -->
<!-- Title: utility::Underlined Pages: 1 -->
<svg width="103pt" height="174pt"
 viewBox="0.00 0.00 103.00 174.00" xmlns="http://www.w3.org/2000/svg" xmlns:xlink="http://www.w3.org/1999/xlink">
<g id="graph0" class="graph" transform="scale(1 1) rotate(0) translate(4 170)">
<title>utility::Underlined</title>
<polygon fill="white" stroke="transparent" points="-4,4 -4,-170 99,-170 99,4 -4,4"/>
<!-- Node1 -->
<g id="node1" class="node">
<title>Node1</title>
<g id="a_node1"><a xlink:title="A line of text and an underlining line.">
<polygon fill="#bfbfbf" stroke="black" points="1.5,-0.5 1.5,-19.5 93.5,-19.5 93.5,-0.5 1.5,-0.5"/>
<text text-anchor="middle" x="47.5" y="-7.5" font-family="Helvetica,sans-Serif" font-size="10.00">utility::Underlined</text>
</a>
</g>
</g>
<!-- Node2 -->
<g id="node2" class="node">
<title>Node2</title>
<g id="a_node2"><a xlink:title="STL class.">
<polygon fill="white" stroke="#bfbfbf" points="17.5,-78.5 17.5,-97.5 77.5,-97.5 77.5,-78.5 17.5,-78.5"/>
<text text-anchor="middle" x="47.5" y="-85.5" font-family="Helvetica,sans-Serif" font-size="10.00">std::string</text>
</a>
</g>
</g>
<!-- Node2&#45;&gt;Node1 -->
<g id="edge1" class="edge">
<title>Node2&#45;&gt;Node1</title>
<path fill="none" stroke="#9a32cd" stroke-dasharray="5,2" d="M47.5,-68.22C47.5,-52.7 47.5,-31.36 47.5,-19.62"/>
<polygon fill="#9a32cd" stroke="#9a32cd" points="44,-68.28 47.5,-78.28 51,-68.28 44,-68.28"/>
<text text-anchor="middle" x="57" y="-52" font-family="Helvetica,sans-Serif" font-size="10.00"> line</text>
<text text-anchor="middle" x="57" y="-41" font-family="Helvetica,sans-Serif" font-size="10.00">text</text>
</g>
<!-- Node3 -->
<g id="node3" class="node">
<title>Node3</title>
<g id="a_node3"><a xlink:title="STL class.">
<polygon fill="white" stroke="#bfbfbf" points="0,-135.5 0,-165.5 95,-165.5 95,-135.5 0,-135.5"/>
<text text-anchor="start" x="8" y="-153.5" font-family="Helvetica,sans-Serif" font-size="10.00">std::basic_string&lt;</text>
<text text-anchor="middle" x="47.5" y="-142.5" font-family="Helvetica,sans-Serif" font-size="10.00"> char &gt;</text>
</a>
</g>
</g>
<!-- Node3&#45;&gt;Node2 -->
<g id="edge2" class="edge">
<title>Node3&#45;&gt;Node2</title>
<path fill="none" stroke="midnightblue" d="M47.5,-125.35C47.5,-115.51 47.5,-104.78 47.5,-97.54"/>
<polygon fill="midnightblue" stroke="midnightblue" points="44,-125.47 47.5,-135.47 51,-125.47 44,-125.47"/>
</g>
</g>
</svg>
