<?xml version="1.0" encoding="UTF-8" standalone="no"?>
<!DOCTYPE svg PUBLIC "-//W3C//DTD SVG 1.1//EN"
 "http://www.w3.org/Graphics/SVG/1.1/DTD/svg11.dtd">
<!-- Generated by graphviz version 2.42.2 ()
 -->
<!-- Title: anonymous_namespace{libloadplay.cpp}::Emulator::Core Pages: 1 -->
<svg width="820pt" height="116pt"
 viewBox="0.00 0.00 820.00 116.00" xmlns="http://www.w3.org/2000/svg" xmlns:xlink="http://www.w3.org/1999/xlink">
<g id="graph0" class="graph" transform="scale(1 1) rotate(0) translate(4 112)">
<title>anonymous_namespace{libloadplay.cpp}::Emulator::Core</title>
<polygon fill="white" stroke="transparent" points="-4,4 -4,-112 816,-112 816,4 -4,4"/>
<!-- Node1 -->
<g id="node1" class="node">
<title>Node1</title>
<g id="a_node1"><a xlink:title="Per core information.">
<polygon fill="#bfbfbf" stroke="black" points="654,-40 654,-70 812,-70 812,-40 654,-40"/>
<text text-anchor="start" x="662" y="-58" font-family="Helvetica" font-size="10.00">anonymous_namespace</text>
<text text-anchor="middle" x="733" y="-47" font-family="Helvetica" font-size="10.00">{libloadplay.cpp}::Emulator::Core</text>
</a>
</g>
</g>
<!-- Node2 -->
<g id="node2" class="node">
<title>Node2</title>
<g id="a_node2"><a xlink:title=" ">
<polygon fill="white" stroke="#bfbfbf" points="448,-88.5 448,-107.5 492,-107.5 492,-88.5 448,-88.5"/>
<text text-anchor="middle" x="470" y="-95.5" font-family="Helvetica" font-size="10.00">mhz_t</text>
</a>
</g>
</g>
<!-- Node2&#45;&gt;Node1 -->
<g id="edge1" class="edge">
<title>Node2&#45;&gt;Node1</title>
<path fill="none" stroke="#9a32cd" stroke-dasharray="5,2" d="M502.59,-92.79C539.85,-86.66 603.12,-76.23 653.79,-67.89"/>
<polygon fill="#9a32cd" stroke="#9a32cd" points="501.66,-89.4 492.36,-94.48 502.79,-96.31 501.66,-89.4"/>
<text text-anchor="middle" x="598" y="-96" font-family="Helvetica" font-size="10.00"> runFreq</text>
<text text-anchor="middle" x="598" y="-85" font-family="Helvetica" font-size="10.00">recFreq</text>
</g>
<!-- Node3 -->
<g id="node3" class="node">
<title>Node3</title>
<g id="a_node3"><a xlink:href="classanonymous__namespace_02libloadplay_8cpp_03_1_1SysctlValue.html" target="_top" xlink:title="Instances of this class represents a specific sysctl value.">
<polygon fill="white" stroke="black" points="398,-39 398,-69 542,-69 542,-39 398,-39"/>
<text text-anchor="start" x="406" y="-57" font-family="Helvetica" font-size="10.00">anonymous_namespace</text>
<text text-anchor="middle" x="470" y="-46" font-family="Helvetica" font-size="10.00">{libloadplay.cpp}::SysctlValue</text>
</a>
</g>
</g>
<!-- Node3&#45;&gt;Node1 -->
<g id="edge2" class="edge">
<title>Node3&#45;&gt;Node1</title>
<path fill="none" stroke="#9a32cd" stroke-dasharray="5,2" d="M552.63,-54.31C584.95,-54.44 621.93,-54.58 653.89,-54.7"/>
<polygon fill="#9a32cd" stroke="#9a32cd" points="552.33,-50.81 542.32,-54.27 552.31,-57.81 552.33,-50.81"/>
<text text-anchor="middle" x="598" y="-57" font-family="Helvetica" font-size="10.00"> freqCtl</text>
</g>
<!-- Node4 -->
<g id="node4" class="node">
<title>Node4</title>
<g id="a_node4"><a xlink:href="classanonymous__namespace_02libloadplay_8cpp_03_1_1Callback.html" target="_top" xlink:title=" ">
<polygon fill="white" stroke="black" points="132,-50 132,-102 333,-102 333,-50 132,-50"/>
<text text-anchor="start" x="140" y="-90" font-family="Helvetica" font-size="10.00">anonymous_namespace</text>
<text text-anchor="start" x="140" y="-79" font-family="Helvetica" font-size="10.00">{libloadplay.cpp}::Callback</text>
<text text-anchor="start" x="140" y="-68" font-family="Helvetica" font-size="10.00">&lt; anonymous_namespace{libloadplay.cpp}</text>
<text text-anchor="middle" x="232.5" y="-57" font-family="Helvetica" font-size="10.00">::SysctlValue &amp; &gt;</text>
</a>
</g>
</g>
<!-- Node4&#45;&gt;Node3 -->
<g id="edge3" class="edge">
<title>Node4&#45;&gt;Node3</title>
<path fill="none" stroke="#9a32cd" stroke-dasharray="5,2" d="M343.01,-65.77C361.57,-64.04 380.42,-62.28 397.67,-60.66"/>
<polygon fill="#9a32cd" stroke="#9a32cd" points="342.66,-62.29 333.03,-66.7 343.31,-69.26 342.66,-62.29"/>
<text text-anchor="middle" x="365.5" y="-68" font-family="Helvetica" font-size="10.00"> onSet</text>
</g>
<!-- Node5 -->
<g id="node5" class="node">
<title>Node5</title>
<g id="a_node5"><a xlink:title="STL class.">
<polygon fill="white" stroke="#bfbfbf" points="202.5,-11.5 202.5,-30.5 262.5,-30.5 262.5,-11.5 202.5,-11.5"/>
<text text-anchor="middle" x="232.5" y="-18.5" font-family="Helvetica" font-size="10.00">std::string</text>
</a>
</g>
</g>
<!-- Node5&#45;&gt;Node3 -->
<g id="edge4" class="edge">
<title>Node5&#45;&gt;Node3</title>
<path fill="none" stroke="#9a32cd" stroke-dasharray="5,2" d="M272.85,-26.51C306.81,-31.27 356.71,-38.27 397.68,-44.01"/>
<polygon fill="#9a32cd" stroke="#9a32cd" points="273.24,-23.03 262.85,-25.11 272.27,-29.97 273.24,-23.03"/>
<text text-anchor="middle" x="365.5" y="-44" font-family="Helvetica" font-size="10.00"> value</text>
</g>
<!-- Node6 -->
<g id="node6" class="node">
<title>Node6</title>
<g id="a_node6"><a xlink:title="STL class.">
<polygon fill="white" stroke="#bfbfbf" points="0,-6 0,-36 95,-36 95,-6 0,-6"/>
<text text-anchor="start" x="8" y="-24" font-family="Helvetica" font-size="10.00">std::basic_string&lt;</text>
<text text-anchor="middle" x="47.5" y="-13" font-family="Helvetica" font-size="10.00"> char &gt;</text>
</a>
</g>
</g>
<!-- Node6&#45;&gt;Node5 -->
<g id="edge5" class="edge">
<title>Node6&#45;&gt;Node5</title>
<path fill="none" stroke="midnightblue" d="M105.33,-21C137.5,-21 176.36,-21 202.38,-21"/>
<polygon fill="midnightblue" stroke="midnightblue" points="105.15,-17.5 95.15,-21 105.15,-24.5 105.15,-17.5"/>
</g>
<!-- Node7 -->
<g id="node7" class="node">
<title>Node7</title>
<g id="a_node7"><a xlink:title=" ">
<polygon fill="white" stroke="#bfbfbf" points="443,-0.5 443,-19.5 497,-19.5 497,-0.5 443,-0.5"/>
<text text-anchor="middle" x="470" y="-7.5" font-family="Helvetica" font-size="10.00">cptime_t</text>
</a>
</g>
</g>
<!-- Node7&#45;&gt;Node1 -->
<g id="edge6" class="edge">
<title>Node7&#45;&gt;Node1</title>
<path fill="none" stroke="#9a32cd" stroke-dasharray="5,2" d="M507.47,-12.24C541.08,-14.71 592.22,-19.52 636,-28 651.98,-31.1 669.16,-35.56 684.52,-39.97"/>
<polygon fill="#9a32cd" stroke="#9a32cd" points="507.43,-8.73 497.21,-11.52 506.93,-15.71 507.43,-8.73"/>
<text text-anchor="middle" x="598" y="-42" font-family="Helvetica" font-size="10.00"> carryLoadCycles</text>
<text text-anchor="middle" x="598" y="-31" font-family="Helvetica" font-size="10.00">runLoadCycles</text>
</g>
</g>
</svg>
