<?xml version="1.0" encoding="UTF-8" standalone="no"?>
<!DOCTYPE svg PUBLIC "-//W3C//DTD SVG 1.1//EN"
 "http://www.w3.org/Graphics/SVG/1.1/DTD/svg11.dtd">
<!-- Generated by graphviz version 2.42.2 ()
 -->
<!-- Title: anonymous_namespace{powerd++.cpp}::Core Pages: 1 -->
<svg width="789pt" height="369pt"
 viewBox="0.00 0.00 789.00 369.00" xmlns="http://www.w3.org/2000/svg" xmlns:xlink="http://www.w3.org/1999/xlink">
<g id="graph0" class="graph" transform="scale(1 1) rotate(0) translate(4 365)">
<title>anonymous_namespace{powerd++.cpp}::Core</title>
<polygon fill="white" stroke="transparent" points="-4,4 -4,-365 785,-365 785,4 -4,4"/>
<!-- Node1 -->
<g id="node1" class="node">
<title>Node1</title>
<g id="a_node1"><a xlink:title="Contains the management information for a single CPU core.">
<polygon fill="#bfbfbf" stroke="black" points="659,-43 659,-73 781,-73 781,-43 659,-43"/>
<text text-anchor="start" x="667" y="-61" font-family="Helvetica" font-size="10.00">anonymous_namespace</text>
<text text-anchor="middle" x="720" y="-50" font-family="Helvetica" font-size="10.00">{powerd++.cpp}::Core</text>
</a>
</g>
</g>
<!-- Node2 -->
<g id="node2" class="node">
<title>Node2</title>
<g id="a_node2"><a xlink:href="namespaceanonymous__namespace_02powerd_09_09_8cpp_03.html#structanonymous__namespace_02powerd_09_09_8cpp_03_1_1CoreGroup" target="_top" xlink:title="Contains the management information for a group of cores with a common clock frequency.">
<polygon fill="white" stroke="black" points="451,-163 451,-193 588,-193 588,-163 451,-163"/>
<text text-anchor="start" x="459" y="-181" font-family="Helvetica" font-size="10.00">anonymous_namespace</text>
<text text-anchor="middle" x="519.5" y="-170" font-family="Helvetica" font-size="10.00">{powerd++.cpp}::CoreGroup</text>
</a>
</g>
</g>
<!-- Node2&#45;&gt;Node1 -->
<g id="edge1" class="edge">
<title>Node2&#45;&gt;Node1</title>
<path fill="none" stroke="#9a32cd" stroke-dasharray="5,2" d="M554.42,-157.49C594.08,-133.52 658.75,-94.42 694.06,-73.07"/>
<polygon fill="#9a32cd" stroke="#9a32cd" points="552.39,-154.63 545.64,-162.8 556.01,-160.62 552.39,-154.63"/>
<text text-anchor="middle" x="623.5" y="-128" font-family="Helvetica" font-size="10.00"> group</text>
</g>
<!-- Node3 -->
<g id="node3" class="node">
<title>Node3</title>
<g id="a_node3"><a xlink:title=" ">
<polygon fill="white" stroke="#bfbfbf" points="12,-263.5 12,-282.5 56,-282.5 56,-263.5 12,-263.5"/>
<text text-anchor="middle" x="34" y="-270.5" font-family="Helvetica" font-size="10.00">mhz_t</text>
</a>
</g>
</g>
<!-- Node3&#45;&gt;Node2 -->
<g id="edge2" class="edge">
<title>Node3&#45;&gt;Node2</title>
<path fill="none" stroke="#9a32cd" stroke-dasharray="5,2" d="M62.11,-286.95C81.54,-296.05 108.65,-306.96 134,-311 265.24,-331.91 316.58,-377.07 433,-313 480.15,-287.05 504.94,-222.9 514.18,-193.35"/>
<polygon fill="#9a32cd" stroke="#9a32cd" points="63.5,-283.73 52.97,-282.53 60.45,-290.03 63.5,-283.73"/>
<text text-anchor="middle" x="201" y="-353" font-family="Helvetica" font-size="10.00"> loadsum</text>
<text text-anchor="middle" x="201" y="-342" font-family="Helvetica" font-size="10.00">sample_freq</text>
</g>
<!-- Node7 -->
<g id="node7" class="node">
<title>Node7</title>
<g id="a_node7"><a xlink:title=" ">
<polygon fill="white" stroke="#bfbfbf" points="136.5,-282.5 136.5,-301.5 265.5,-301.5 265.5,-282.5 136.5,-282.5"/>
<text text-anchor="middle" x="201" y="-289.5" font-family="Helvetica" font-size="10.00">std::unique_ptr&lt; mhz_t[]&gt;</text>
</a>
</g>
</g>
<!-- Node3&#45;&gt;Node7 -->
<g id="edge7" class="edge">
<title>Node3&#45;&gt;Node7</title>
<path fill="none" stroke="#9a32cd" stroke-dasharray="5,2" d="M66.19,-276.59C85.93,-278.86 112.15,-281.88 136.16,-284.65"/>
<polygon fill="#9a32cd" stroke="#9a32cd" points="66.57,-273.11 56.23,-275.45 65.77,-280.07 66.57,-273.11"/>
<text text-anchor="middle" x="101" y="-284" font-family="Helvetica" font-size="10.00"> ptr</text>
</g>
<!-- Node8 -->
<g id="node8" class="node">
<title>Node8</title>
<g id="a_node8"><a xlink:href="classutility_1_1Min.html" target="_top" xlink:title=" ">
<polygon fill="white" stroke="black" points="147.5,-244.5 147.5,-263.5 254.5,-263.5 254.5,-244.5 147.5,-244.5"/>
<text text-anchor="middle" x="201" y="-251.5" font-family="Helvetica" font-size="10.00">utility::Min&lt; mhz_t &gt;</text>
</a>
</g>
</g>
<!-- Node3&#45;&gt;Node8 -->
<g id="edge9" class="edge">
<title>Node3&#45;&gt;Node8</title>
<path fill="none" stroke="#9a32cd" stroke-dasharray="5,2" d="M66.17,-267.06C72.7,-265.93 79.57,-264.85 86,-264 105.99,-261.36 128.05,-259.25 147.4,-257.65"/>
<polygon fill="#9a32cd" stroke="#9a32cd" points="65.51,-263.62 56.28,-268.82 66.73,-270.51 65.51,-263.62"/>
<text text-anchor="middle" x="101" y="-267" font-family="Helvetica" font-size="10.00"> value</text>
</g>
<!-- Node11 -->
<g id="node11" class="node">
<title>Node11</title>
<g id="a_node11"><a xlink:href="classutility_1_1Max.html" target="_top" xlink:title=" ">
<polygon fill="white" stroke="black" points="146,-206.5 146,-225.5 256,-225.5 256,-206.5 146,-206.5"/>
<text text-anchor="middle" x="201" y="-213.5" font-family="Helvetica" font-size="10.00">utility::Max&lt; mhz_t &gt;</text>
</a>
</g>
</g>
<!-- Node3&#45;&gt;Node11 -->
<g id="edge13" class="edge">
<title>Node3&#45;&gt;Node11</title>
<path fill="none" stroke="#9a32cd" stroke-dasharray="5,2" d="M58.94,-258.22C67.29,-253.52 76.85,-248.61 86,-245 106.8,-236.8 130.67,-230.31 151.17,-225.56"/>
<polygon fill="#9a32cd" stroke="#9a32cd" points="57,-255.3 50.13,-263.37 60.53,-261.35 57,-255.3"/>
<text text-anchor="middle" x="101" y="-248" font-family="Helvetica" font-size="10.00"> value</text>
</g>
<!-- Node4 -->
<g id="node4" class="node">
<title>Node4</title>
<g id="a_node4"><a xlink:title=" ">
<polygon fill="white" stroke="#bfbfbf" points="175.5,-130.5 175.5,-149.5 226.5,-149.5 226.5,-130.5 175.5,-130.5"/>
<text text-anchor="middle" x="201" y="-137.5" font-family="Helvetica" font-size="10.00">coreid_t</text>
</a>
</g>
</g>
<!-- Node4&#45;&gt;Node2 -->
<g id="edge3" class="edge">
<title>Node4&#45;&gt;Node2</title>
<path fill="none" stroke="#9a32cd" stroke-dasharray="5,2" d="M236.86,-142.66C282.17,-146.3 363.69,-153.48 433,-163 438.82,-163.8 444.86,-164.7 450.9,-165.66"/>
<polygon fill="#9a32cd" stroke="#9a32cd" points="236.93,-139.15 226.69,-141.85 236.38,-146.13 236.93,-139.15"/>
<text text-anchor="middle" x="359.5" y="-166" font-family="Helvetica" font-size="10.00"> corei</text>
</g>
<!-- Node5 -->
<g id="node5" class="node">
<title>Node5</title>
<g id="a_node5"><a xlink:href="classsys_1_1ctl_1_1Sync.html" target="_top" xlink:title=" ">
<polygon fill="white" stroke="black" points="140,-54.5 140,-73.5 262,-73.5 262,-54.5 140,-54.5"/>
<text text-anchor="middle" x="201" y="-61.5" font-family="Helvetica" font-size="10.00">sys::ctl::Sync&lt; mhz_t &gt;</text>
</a>
</g>
</g>
<!-- Node5&#45;&gt;Node2 -->
<g id="edge4" class="edge">
<title>Node5&#45;&gt;Node2</title>
<path fill="none" stroke="#9a32cd" stroke-dasharray="5,2" d="M272.38,-57.12C320.08,-55.48 383.25,-59.38 433,-84 468.59,-101.61 496.4,-140.93 509.78,-162.72"/>
<polygon fill="#9a32cd" stroke="#9a32cd" points="271.98,-53.64 262.14,-57.57 272.28,-60.63 271.98,-53.64"/>
<text text-anchor="middle" x="359.5" y="-87" font-family="Helvetica" font-size="10.00"> freq</text>
</g>
<!-- Node6 -->
<g id="node6" class="node">
<title>Node6</title>
<g id="a_node6"><a xlink:title=" ">
<polygon fill="white" stroke="#bfbfbf" points="9,-34.5 9,-53.5 59,-53.5 59,-34.5 9,-34.5"/>
<text text-anchor="middle" x="34" y="-41.5" font-family="Helvetica" font-size="10.00">SysctlT</text>
</a>
</g>
</g>
<!-- Node6&#45;&gt;Node5 -->
<g id="edge5" class="edge">
<title>Node6&#45;&gt;Node5</title>
<path fill="none" stroke="#9a32cd" stroke-dasharray="5,2" d="M69.41,-48.17C89.78,-50.64 116.17,-53.84 139.89,-56.71"/>
<polygon fill="#9a32cd" stroke="#9a32cd" points="69.69,-44.68 59.35,-46.95 68.85,-51.63 69.69,-44.68"/>
<text text-anchor="middle" x="101" y="-57" font-family="Helvetica" font-size="10.00"> sysctl</text>
</g>
<!-- Node14 -->
<g id="node14" class="node">
<title>Node14</title>
<g id="a_node14"><a xlink:href="classsys_1_1ctl_1_1Sync.html" target="_top" xlink:title=" ">
<polygon fill="white" stroke="black" points="286,-19.5 286,-38.5 433,-38.5 433,-19.5 286,-19.5"/>
<text text-anchor="middle" x="359.5" y="-26.5" font-family="Helvetica" font-size="10.00">sys::ctl::Sync&lt; decikelvin_t &gt;</text>
</a>
</g>
</g>
<!-- Node6&#45;&gt;Node14 -->
<g id="edge18" class="edge">
<title>Node6&#45;&gt;Node14</title>
<path fill="none" stroke="#9a32cd" stroke-dasharray="5,2" d="M68.98,-38.04C74.64,-37.23 80.48,-36.5 86,-36 153.51,-29.86 230.8,-28.4 285.77,-28.31"/>
<polygon fill="#9a32cd" stroke="#9a32cd" points="68.4,-34.59 59.05,-39.57 69.46,-41.51 68.4,-34.59"/>
<text text-anchor="middle" x="101" y="-39" font-family="Helvetica" font-size="10.00"> sysctl</text>
</g>
<!-- Node7&#45;&gt;Node2 -->
<g id="edge6" class="edge">
<title>Node7&#45;&gt;Node2</title>
<path fill="none" stroke="#9a32cd" stroke-dasharray="5,2" d="M275.75,-298.04C323,-298.84 384.37,-294 433,-270 468,-252.73 495.86,-214.63 509.45,-193.27"/>
<polygon fill="#9a32cd" stroke="#9a32cd" points="275.67,-294.54 265.58,-297.78 275.49,-301.54 275.67,-294.54"/>
<text text-anchor="middle" x="359.5" y="-301" font-family="Helvetica" font-size="10.00"> loads</text>
</g>
<!-- Node8&#45;&gt;Node2 -->
<g id="edge8" class="edge">
<title>Node8&#45;&gt;Node2</title>
<path fill="none" stroke="#9a32cd" stroke-dasharray="5,2" d="M264.96,-255.81C312.36,-255.33 378.3,-250.68 433,-232 458.25,-223.37 483.66,-205.95 500.14,-193.22"/>
<polygon fill="#9a32cd" stroke="#9a32cd" points="264.82,-252.31 254.83,-255.86 264.85,-259.31 264.82,-252.31"/>
<text text-anchor="middle" x="359.5" y="-258" font-family="Helvetica" font-size="10.00"> max</text>
</g>
<!-- Node9 -->
<g id="node9" class="node">
<title>Node9</title>
<g id="a_node9"><a xlink:href="classutility_1_1Min.html" target="_top" xlink:title=" ">
<polygon fill="white" stroke="black" points="135.5,-92.5 135.5,-111.5 266.5,-111.5 266.5,-92.5 135.5,-92.5"/>
<text text-anchor="middle" x="201" y="-99.5" font-family="Helvetica" font-size="10.00">utility::Min&lt; decikelvin_t &gt;</text>
</a>
</g>
</g>
<!-- Node9&#45;&gt;Node2 -->
<g id="edge10" class="edge">
<title>Node9&#45;&gt;Node2</title>
<path fill="none" stroke="#9a32cd" stroke-dasharray="5,2" d="M276.76,-98.76C322.97,-99.03 382.83,-103.53 433,-121 459.28,-130.15 485.28,-149.32 501.58,-162.89"/>
<polygon fill="#9a32cd" stroke="#9a32cd" points="276.52,-95.26 266.52,-98.77 276.53,-102.26 276.52,-95.26"/>
<text text-anchor="middle" x="359.5" y="-135" font-family="Helvetica" font-size="10.00"> temp_crit</text>
<text text-anchor="middle" x="359.5" y="-124" font-family="Helvetica" font-size="10.00">temp_high</text>
</g>
<!-- Node10 -->
<g id="node10" class="node">
<title>Node10</title>
<g id="a_node10"><a xlink:title=" ">
<polygon fill="white" stroke="#bfbfbf" points="0,-125.5 0,-144.5 68,-144.5 68,-125.5 0,-125.5"/>
<text text-anchor="middle" x="34" y="-132.5" font-family="Helvetica" font-size="10.00">decikelvin_t</text>
</a>
</g>
</g>
<!-- Node10&#45;&gt;Node9 -->
<g id="edge11" class="edge">
<title>Node10&#45;&gt;Node9</title>
<path fill="none" stroke="#9a32cd" stroke-dasharray="5,2" d="M77.99,-125.66C80.7,-125.09 83.39,-124.53 86,-124 106.74,-119.76 129.64,-115.3 149.45,-111.51"/>
<polygon fill="#9a32cd" stroke="#9a32cd" points="77.23,-122.24 68.17,-127.74 78.68,-129.09 77.23,-122.24"/>
<text text-anchor="middle" x="101" y="-127" font-family="Helvetica" font-size="10.00"> value</text>
</g>
<!-- Node12 -->
<g id="node12" class="node">
<title>Node12</title>
<g id="a_node12"><a xlink:href="classutility_1_1Max.html" target="_top" xlink:title=" ">
<polygon fill="white" stroke="black" points="134,-168.5 134,-187.5 268,-187.5 268,-168.5 134,-168.5"/>
<text text-anchor="middle" x="201" y="-175.5" font-family="Helvetica" font-size="10.00">utility::Max&lt; decikelvin_t &gt;</text>
</a>
</g>
</g>
<!-- Node10&#45;&gt;Node12 -->
<g id="edge15" class="edge">
<title>Node10&#45;&gt;Node12</title>
<path fill="none" stroke="#9a32cd" stroke-dasharray="5,2" d="M78.18,-146.25C104.71,-153.17 138.31,-161.92 163.51,-168.49"/>
<polygon fill="#9a32cd" stroke="#9a32cd" points="78.95,-142.84 68.39,-143.7 77.18,-149.61 78.95,-142.84"/>
<text text-anchor="middle" x="101" y="-158" font-family="Helvetica" font-size="10.00"> value</text>
</g>
<!-- Node11&#45;&gt;Node2 -->
<g id="edge12" class="edge">
<title>Node11&#45;&gt;Node2</title>
<path fill="none" stroke="#9a32cd" stroke-dasharray="5,2" d="M266.4,-209.23C312.77,-204.24 376.79,-197.11 433,-190 438.8,-189.27 444.82,-188.48 450.85,-187.67"/>
<polygon fill="#9a32cd" stroke="#9a32cd" points="265.76,-205.78 256.19,-210.32 266.51,-212.74 265.76,-205.78"/>
<text text-anchor="middle" x="359.5" y="-220" font-family="Helvetica" font-size="10.00"> load</text>
<text text-anchor="middle" x="359.5" y="-209" font-family="Helvetica" font-size="10.00">min</text>
</g>
<!-- Node12&#45;&gt;Node2 -->
<g id="edge14" class="edge">
<title>Node12&#45;&gt;Node2</title>
<path fill="none" stroke="#9a32cd" stroke-dasharray="5,2" d="M278.63,-178C331.21,-178 400.34,-178 450.88,-178"/>
<polygon fill="#9a32cd" stroke="#9a32cd" points="278.35,-174.5 268.35,-178 278.35,-181.5 278.35,-174.5"/>
<text text-anchor="middle" x="359.5" y="-181" font-family="Helvetica" font-size="10.00"> temp</text>
</g>
<!-- Node13 -->
<g id="node13" class="node">
<title>Node13</title>
<g id="a_node13"><a xlink:title=" ">
<polygon fill="white" stroke="#bfbfbf" points="492.5,-0.5 492.5,-19.5 546.5,-19.5 546.5,-0.5 492.5,-0.5"/>
<text text-anchor="middle" x="519.5" y="-7.5" font-family="Helvetica" font-size="10.00">cptime_t</text>
</a>
</g>
</g>
<!-- Node13&#45;&gt;Node1 -->
<g id="edge16" class="edge">
<title>Node13&#45;&gt;Node1</title>
<path fill="none" stroke="#9a32cd" stroke-dasharray="5,2" d="M557.12,-5.35C581.37,-3.47 613.64,-3.27 641,-11 663.21,-17.27 685.46,-31.68 700.48,-42.9"/>
<polygon fill="#9a32cd" stroke="#9a32cd" points="556.56,-1.89 546.92,-6.28 557.19,-8.86 556.56,-1.89"/>
<text text-anchor="middle" x="623.5" y="-36" font-family="Helvetica" font-size="10.00"> idle</text>
<text text-anchor="middle" x="623.5" y="-25" font-family="Helvetica" font-size="10.00">all</text>
<text text-anchor="middle" x="623.5" y="-14" font-family="Helvetica" font-size="10.00">cp_time</text>
</g>
<!-- Node14&#45;&gt;Node1 -->
<g id="edge17" class="edge">
<title>Node14&#45;&gt;Node1</title>
<path fill="none" stroke="#9a32cd" stroke-dasharray="5,2" d="M443.39,-35.71C509.21,-41.03 599.7,-48.35 658.75,-53.13"/>
<polygon fill="#9a32cd" stroke="#9a32cd" points="443.3,-32.19 433.05,-34.87 442.73,-39.16 443.3,-32.19"/>
<text text-anchor="middle" x="519.5" y="-51" font-family="Helvetica" font-size="10.00"> temp</text>
</g>
</g>
</svg>
