<?xml version="1.0" encoding="UTF-8" standalone="no"?>
<!DOCTYPE svg PUBLIC "-//W3C//DTD SVG 1.1//EN"
 "http://www.w3.org/Graphics/SVG/1.1/DTD/svg11.dtd">
<!-- Generated by graphviz version 2.42.2 ()
 -->
<!-- Title: anonymous_namespace{powerd++.cpp}::Global Pages: 1 -->
<svg width="1399pt" height="597pt"
 viewBox="0.00 0.00 1399.00 597.28" xmlns="http://www.w3.org/2000/svg" xmlns:xlink="http://www.w3.org/1999/xlink">
<g id="graph0" class="graph" transform="scale(1 1) rotate(0) translate(4 593.28)">
<title>anonymous_namespace{powerd++.cpp}::Global</title>
<polygon fill="white" stroke="transparent" points="-4,4 -4,-593.28 1395,-593.28 1395,4 -4,4"/>
<!-- Node1 -->
<g id="node1" class="node">
<title>Node1</title>
<g id="a_node1"><a xlink:title="A collection of all the gloabl, mutable states.">
<polygon fill="#bfbfbf" stroke="black" points="1269,-295.28 1269,-325.28 1391,-325.28 1391,-295.28 1269,-295.28"/>
<text text-anchor="start" x="1277" y="-313.28" font-family="Helvetica" font-size="10.00">anonymous_namespace</text>
<text text-anchor="middle" x="1330" y="-302.28" font-family="Helvetica" font-size="10.00">{powerd++.cpp}::Global</text>
</a>
</g>
</g>
<!-- Node2 -->
<g id="node2" class="node">
<title>Node2</title>
<g id="a_node2"><a xlink:title=" ">
<polygon fill="white" stroke="#bfbfbf" points="1091,-569.78 1091,-588.78 1121,-588.78 1121,-569.78 1091,-569.78"/>
<text text-anchor="middle" x="1106" y="-576.78" font-family="Helvetica" font-size="10.00">ms</text>
</a>
</g>
</g>
<!-- Node2&#45;&gt;Node1 -->
<g id="edge1" class="edge">
<title>Node2&#45;&gt;Node1</title>
<path fill="none" stroke="#9a32cd" stroke-dasharray="5,2" d="M1131.36,-582.34C1162.85,-584.87 1217.58,-584.23 1251,-555.28 1321.68,-494.05 1328.92,-368.96 1329.21,-325.54"/>
<polygon fill="#9a32cd" stroke="#9a32cd" points="1131.56,-578.85 1121.27,-581.36 1130.88,-585.81 1131.56,-578.85"/>
<text text-anchor="middle" x="1223" y="-581.28" font-family="Helvetica" font-size="10.00"> interval</text>
</g>
<!-- Node3 -->
<g id="node3" class="node">
<title>Node3</title>
<g id="a_node3"><a xlink:title=" ">
<polygon fill="white" stroke="#bfbfbf" points="175.5,-493.78 175.5,-512.78 226.5,-512.78 226.5,-493.78 175.5,-493.78"/>
<text text-anchor="middle" x="201" y="-500.78" font-family="Helvetica" font-size="10.00">coreid_t</text>
</a>
</g>
</g>
<!-- Node3&#45;&gt;Node1 -->
<g id="edge2" class="edge">
<title>Node3&#45;&gt;Node1</title>
<path fill="none" stroke="#9a32cd" stroke-dasharray="5,2" d="M236.59,-510.18C294.61,-521.14 415.34,-541.28 518.5,-541.28 518.5,-541.28 518.5,-541.28 1107,-541.28 1227.14,-541.28 1302.59,-376.83 1323.23,-325.44"/>
<polygon fill="#9a32cd" stroke="#9a32cd" points="236.98,-506.7 226.5,-508.25 235.67,-513.57 236.98,-506.7"/>
<text text-anchor="middle" x="798" y="-544.28" font-family="Helvetica" font-size="10.00"> ngroups</text>
</g>
<!-- Node7 -->
<g id="node7" class="node">
<title>Node7</title>
<g id="a_node7"><a xlink:href="classsys_1_1ctl_1_1Once.html" target="_top" xlink:title=" ">
<polygon fill="white" stroke="black" points="606,-484.28 606,-514.28 719,-514.28 719,-484.28 606,-484.28"/>
<text text-anchor="start" x="614" y="-502.28" font-family="Helvetica" font-size="10.00">sys::ctl::Once&lt; coreid</text>
<text text-anchor="middle" x="662.5" y="-491.28" font-family="Helvetica" font-size="10.00">_t, 2 &gt;</text>
</a>
</g>
</g>
<!-- Node3&#45;&gt;Node7 -->
<g id="edge7" class="edge">
<title>Node3&#45;&gt;Node7</title>
<path fill="none" stroke="#9a32cd" stroke-dasharray="5,2" d="M237.12,-502.98C316.43,-502.29 509.95,-500.6 605.81,-499.77"/>
<polygon fill="#9a32cd" stroke="#9a32cd" points="236.67,-499.48 226.7,-503.07 236.73,-506.48 236.67,-499.48"/>
<text text-anchor="middle" x="359.5" y="-505.28" font-family="Helvetica" font-size="10.00"> value</text>
</g>
<!-- Node9 -->
<g id="node9" class="node">
<title>Node9</title>
<g id="a_node9"><a xlink:href="namespaceanonymous__namespace_02powerd_09_09_8cpp_03.html#structanonymous__namespace_02powerd_09_09_8cpp_03_1_1CoreGroup" target="_top" xlink:title="Contains the management information for a group of cores with a common clock frequency.">
<polygon fill="white" stroke="black" points="451,-229.28 451,-259.28 588,-259.28 588,-229.28 451,-229.28"/>
<text text-anchor="start" x="459" y="-247.28" font-family="Helvetica" font-size="10.00">anonymous_namespace</text>
<text text-anchor="middle" x="519.5" y="-236.28" font-family="Helvetica" font-size="10.00">{powerd++.cpp}::CoreGroup</text>
</a>
</g>
</g>
<!-- Node3&#45;&gt;Node9 -->
<g id="edge11" class="edge">
<title>Node3&#45;&gt;Node9</title>
<path fill="none" stroke="#9a32cd" stroke-dasharray="5,2" d="M231.89,-489.69C247.7,-482.98 267.59,-475.28 286,-470.28 317.91,-461.63 409.85,-470.89 433,-447.28 474.45,-405.01 425.36,-368.65 451,-315.28 461.9,-292.59 482.76,-272.41 498.42,-259.42"/>
<polygon fill="#9a32cd" stroke="#9a32cd" points="230.41,-486.52 222.63,-493.71 233.19,-492.94 230.41,-486.52"/>
<text text-anchor="middle" x="359.5" y="-473.28" font-family="Helvetica" font-size="10.00"> corei</text>
</g>
<!-- Node4 -->
<g id="node4" class="node">
<title>Node4</title>
<g id="a_node4"><a xlink:href="namespaceanonymous__namespace_02powerd_09_09_8cpp_03.html#structanonymous__namespace_02powerd_09_09_8cpp_03_1_1Global_1_1ACSet" target="_top" xlink:title="Per AC line state settings.">
<polygon fill="white" stroke="black" points="737,-362.78 737,-403.78 859,-403.78 859,-362.78 737,-362.78"/>
<text text-anchor="start" x="745" y="-391.78" font-family="Helvetica" font-size="10.00">anonymous_namespace</text>
<text text-anchor="start" x="745" y="-380.78" font-family="Helvetica" font-size="10.00">{powerd++.cpp}::Global</text>
<text text-anchor="middle" x="798" y="-369.78" font-family="Helvetica" font-size="10.00">::ACSet</text>
</a>
</g>
</g>
<!-- Node4&#45;&gt;Node1 -->
<g id="edge3" class="edge">
<title>Node4&#45;&gt;Node1</title>
<path fill="none" stroke="#9a32cd" stroke-dasharray="5,2" d="M869.15,-376.13C958.22,-366.66 1116.5,-348.53 1251,-326.28 1256.73,-325.34 1262.68,-324.27 1268.62,-323.15"/>
<polygon fill="#9a32cd" stroke="#9a32cd" points="868.74,-372.65 859.17,-377.18 869.48,-379.61 868.74,-372.65"/>
<text text-anchor="middle" x="1106" y="-458.28" font-family="Helvetica" font-size="10.00"> online</text>
<text text-anchor="middle" x="1106" y="-447.28" font-family="Helvetica" font-size="10.00">HADP</text>
<text text-anchor="middle" x="1106" y="-436.28" font-family="Helvetica" font-size="10.00">battery</text>
<text text-anchor="start" x="1068" y="-425.28" font-family="Helvetica" font-size="10.00">FREQ_DEFAULT</text>
<text text-anchor="middle" x="1106" y="-414.28" font-family="Helvetica" font-size="10.00">_MIN</text>
<text text-anchor="middle" x="1106" y="-403.28" font-family="Helvetica" font-size="10.00">ADP</text>
<text text-anchor="start" x="1068" y="-392.28" font-family="Helvetica" font-size="10.00">FREQ_DEFAULT</text>
<text text-anchor="middle" x="1106" y="-381.28" font-family="Helvetica" font-size="10.00">_MAX</text>
<text text-anchor="middle" x="1106" y="-370.28" font-family="Helvetica" font-size="10.00">unknown</text>
<text text-anchor="middle" x="1106" y="-359.28" font-family="Helvetica" font-size="10.00">FREQ_UNSET</text>
</g>
<!-- Node5 -->
<g id="node5" class="node">
<title>Node5</title>
<g id="a_node5"><a xlink:title=" ">
<polygon fill="white" stroke="#bfbfbf" points="12,-330.78 12,-349.78 56,-349.78 56,-330.78 12,-330.78"/>
<text text-anchor="middle" x="34" y="-337.78" font-family="Helvetica" font-size="10.00">mhz_t</text>
</a>
</g>
</g>
<!-- Node5&#45;&gt;Node4 -->
<g id="edge4" class="edge">
<title>Node5&#45;&gt;Node4</title>
<path fill="none" stroke="#9a32cd" stroke-dasharray="5,2" d="M54.27,-356.25C73.19,-370.68 103.56,-390.64 134,-397.28 247.82,-422.12 596.01,-398.94 736.9,-388.14"/>
<polygon fill="#9a32cd" stroke="#9a32cd" points="56.22,-353.33 46.19,-349.89 51.88,-358.83 56.22,-353.33"/>
<text text-anchor="middle" x="359.5" y="-433.28" font-family="Helvetica" font-size="10.00"> freq_max</text>
<text text-anchor="middle" x="359.5" y="-422.28" font-family="Helvetica" font-size="10.00">target_freq</text>
<text text-anchor="middle" x="359.5" y="-411.28" font-family="Helvetica" font-size="10.00">freq_min</text>
</g>
<!-- Node5&#45;&gt;Node9 -->
<g id="edge10" class="edge">
<title>Node5&#45;&gt;Node9</title>
<path fill="none" stroke="#9a32cd" stroke-dasharray="5,2" d="M63.02,-326.38C82.48,-317.3 109.26,-305.94 134,-299.28 263.47,-264.45 300.5,-279.76 433,-259.28 438.81,-258.39 444.83,-257.41 450.87,-256.41"/>
<polygon fill="#9a32cd" stroke="#9a32cd" points="61.36,-323.29 53.83,-330.75 64.37,-329.62 61.36,-323.29"/>
<text text-anchor="middle" x="201" y="-313.28" font-family="Helvetica" font-size="10.00"> loadsum</text>
<text text-anchor="middle" x="201" y="-302.28" font-family="Helvetica" font-size="10.00">sample_freq</text>
</g>
<!-- Node12 -->
<g id="node12" class="node">
<title>Node12</title>
<g id="a_node12"><a xlink:title=" ">
<polygon fill="white" stroke="#bfbfbf" points="136.5,-234.78 136.5,-253.78 265.5,-253.78 265.5,-234.78 136.5,-234.78"/>
<text text-anchor="middle" x="201" y="-241.78" font-family="Helvetica" font-size="10.00">std::unique_ptr&lt; mhz_t[]&gt;</text>
</a>
</g>
</g>
<!-- Node5&#45;&gt;Node12 -->
<g id="edge15" class="edge">
<title>Node5&#45;&gt;Node12</title>
<path fill="none" stroke="#9a32cd" stroke-dasharray="5,2" d="M42.67,-321.42C50.77,-303.99 65.27,-278.8 86,-265.28 100.83,-255.61 118.94,-250.11 136.32,-247.05"/>
<polygon fill="#9a32cd" stroke="#9a32cd" points="39.43,-320.08 38.64,-330.64 45.85,-322.88 39.43,-320.08"/>
<text text-anchor="middle" x="101" y="-268.28" font-family="Helvetica" font-size="10.00"> ptr</text>
</g>
<!-- Node13 -->
<g id="node13" class="node">
<title>Node13</title>
<g id="a_node13"><a xlink:href="classutility_1_1Min.html" target="_top" xlink:title=" ">
<polygon fill="white" stroke="black" points="147.5,-368.78 147.5,-387.78 254.5,-387.78 254.5,-368.78 147.5,-368.78"/>
<text text-anchor="middle" x="201" y="-375.78" font-family="Helvetica" font-size="10.00">utility::Min&lt; mhz_t &gt;</text>
</a>
</g>
</g>
<!-- Node5&#45;&gt;Node13 -->
<g id="edge17" class="edge">
<title>Node5&#45;&gt;Node13</title>
<path fill="none" stroke="#9a32cd" stroke-dasharray="5,2" d="M66.16,-349.16C72.69,-350.93 79.56,-352.72 86,-354.28 107.43,-359.47 131.27,-364.6 151.6,-368.77"/>
<polygon fill="#9a32cd" stroke="#9a32cd" points="66.84,-345.71 56.27,-346.43 64.98,-352.46 66.84,-345.71"/>
<text text-anchor="middle" x="101" y="-363.28" font-family="Helvetica" font-size="10.00"> value</text>
</g>
<!-- Node16 -->
<g id="node16" class="node">
<title>Node16</title>
<g id="a_node16"><a xlink:href="classutility_1_1Max.html" target="_top" xlink:title=" ">
<polygon fill="white" stroke="black" points="146,-330.78 146,-349.78 256,-349.78 256,-330.78 146,-330.78"/>
<text text-anchor="middle" x="201" y="-337.78" font-family="Helvetica" font-size="10.00">utility::Max&lt; mhz_t &gt;</text>
</a>
</g>
</g>
<!-- Node5&#45;&gt;Node16 -->
<g id="edge21" class="edge">
<title>Node5&#45;&gt;Node16</title>
<path fill="none" stroke="#9a32cd" stroke-dasharray="5,2" d="M66.52,-340.28C88.93,-340.28 119.6,-340.28 145.89,-340.28"/>
<polygon fill="#9a32cd" stroke="#9a32cd" points="66.23,-336.78 56.23,-340.28 66.23,-343.78 66.23,-336.78"/>
<text text-anchor="middle" x="101" y="-343.28" font-family="Helvetica" font-size="10.00"> value</text>
</g>
<!-- Node6 -->
<g id="node6" class="node">
<title>Node6</title>
<g id="a_node6"><a xlink:title=" ">
<polygon fill="white" stroke="#bfbfbf" points="492.5,-324.78 492.5,-343.78 546.5,-343.78 546.5,-324.78 492.5,-324.78"/>
<text text-anchor="middle" x="519.5" y="-331.78" font-family="Helvetica" font-size="10.00">cptime_t</text>
</a>
</g>
</g>
<!-- Node6&#45;&gt;Node4 -->
<g id="edge5" class="edge">
<title>Node6&#45;&gt;Node4</title>
<path fill="none" stroke="#9a32cd" stroke-dasharray="5,2" d="M556.55,-340.67C602.26,-348.77 681.73,-362.86 736.72,-372.6"/>
<polygon fill="#9a32cd" stroke="#9a32cd" points="556.97,-337.19 546.51,-338.89 555.75,-344.08 556.97,-337.19"/>
<text text-anchor="middle" x="662.5" y="-371.28" font-family="Helvetica" font-size="10.00"> target_load</text>
</g>
<!-- Node18 -->
<g id="node18" class="node">
<title>Node18</title>
<g id="a_node18"><a xlink:title=" ">
<polygon fill="white" stroke="#bfbfbf" points="887.5,-303.28 887.5,-333.28 1006.5,-333.28 1006.5,-303.28 887.5,-303.28"/>
<text text-anchor="start" x="895.5" y="-321.28" font-family="Helvetica" font-size="10.00">std::unique_ptr&lt; cptime</text>
<text text-anchor="middle" x="947" y="-310.28" font-family="Helvetica" font-size="10.00">_t[][CPUSTATES]&gt;</text>
</a>
</g>
</g>
<!-- Node6&#45;&gt;Node18 -->
<g id="edge25" class="edge">
<title>Node6&#45;&gt;Node18</title>
<path fill="none" stroke="#9a32cd" stroke-dasharray="5,2" d="M556.97,-332.91C630.65,-330.14 797.82,-323.86 887.14,-320.5"/>
<polygon fill="#9a32cd" stroke="#9a32cd" points="556.66,-329.42 546.8,-333.3 556.92,-336.42 556.66,-329.42"/>
<text text-anchor="middle" x="662.5" y="-333.28" font-family="Helvetica" font-size="10.00"> ptr</text>
</g>
<!-- Node21 -->
<g id="node21" class="node">
<title>Node21</title>
<g id="a_node21"><a xlink:href="namespaceanonymous__namespace_02powerd_09_09_8cpp_03.html#structanonymous__namespace_02powerd_09_09_8cpp_03_1_1Core" target="_top" xlink:title="Contains the management information for a single CPU core.">
<polygon fill="white" stroke="black" points="737,-185.28 737,-215.28 859,-215.28 859,-185.28 737,-185.28"/>
<text text-anchor="start" x="745" y="-203.28" font-family="Helvetica" font-size="10.00">anonymous_namespace</text>
<text text-anchor="middle" x="798" y="-192.28" font-family="Helvetica" font-size="10.00">{powerd++.cpp}::Core</text>
</a>
</g>
</g>
<!-- Node6&#45;&gt;Node21 -->
<g id="edge31" class="edge">
<title>Node6&#45;&gt;Node21</title>
<path fill="none" stroke="#9a32cd" stroke-dasharray="5,2" d="M540.51,-318.34C557.12,-305.89 581.86,-289.1 606,-279.28 653.48,-259.98 672.03,-276.79 719,-256.28 742.22,-246.14 765.37,-228.3 780.34,-215.48"/>
<polygon fill="#9a32cd" stroke="#9a32cd" points="537.97,-315.88 532.17,-324.74 542.23,-321.43 537.97,-315.88"/>
<text text-anchor="middle" x="662.5" y="-304.28" font-family="Helvetica" font-size="10.00"> idle</text>
<text text-anchor="middle" x="662.5" y="-293.28" font-family="Helvetica" font-size="10.00">all</text>
<text text-anchor="middle" x="662.5" y="-282.28" font-family="Helvetica" font-size="10.00">cp_time</text>
</g>
<!-- Node7&#45;&gt;Node1 -->
<g id="edge6" class="edge">
<title>Node7&#45;&gt;Node1</title>
<path fill="none" stroke="#9a32cd" stroke-dasharray="5,2" d="M729.33,-501.51C849.51,-504.61 1099.26,-506.29 1177,-470.28 1246.36,-438.16 1299.93,-358.94 1320.19,-325.53"/>
<polygon fill="#9a32cd" stroke="#9a32cd" points="729.25,-498.01 719.15,-501.24 729.06,-505.01 729.25,-498.01"/>
<text text-anchor="middle" x="947" y="-505.28" font-family="Helvetica" font-size="10.00"> ncpu</text>
</g>
<!-- Node8 -->
<g id="node8" class="node">
<title>Node8</title>
<g id="a_node8"><a xlink:title=" ">
<polygon fill="white" stroke="#bfbfbf" points="877,-231.78 877,-272.78 1017,-272.78 1017,-231.78 877,-231.78"/>
<text text-anchor="start" x="885" y="-260.78" font-family="Helvetica" font-size="10.00">std::unique_ptr&lt; anonymous</text>
<text text-anchor="start" x="885" y="-249.78" font-family="Helvetica" font-size="10.00">_namespace{powerd++.cpp}</text>
<text text-anchor="middle" x="947" y="-238.78" font-family="Helvetica" font-size="10.00">::CoreGroup[]&gt;</text>
</a>
</g>
</g>
<!-- Node8&#45;&gt;Node1 -->
<g id="edge8" class="edge">
<title>Node8&#45;&gt;Node1</title>
<path fill="none" stroke="#9a32cd" stroke-dasharray="5,2" d="M1027.36,-264.36C1099.24,-275.31 1203.6,-291.19 1268.82,-301.12"/>
<polygon fill="#9a32cd" stroke="#9a32cd" points="1027.85,-260.9 1017.44,-262.85 1026.8,-267.82 1027.85,-260.9"/>
<text text-anchor="middle" x="1106" y="-288.28" font-family="Helvetica" font-size="10.00"> groups</text>
</g>
<!-- Node9&#45;&gt;Node8 -->
<g id="edge9" class="edge">
<title>Node9&#45;&gt;Node8</title>
<path fill="none" stroke="#9a32cd" stroke-dasharray="5,2" d="M598.29,-243.34C600.89,-243.32 603.47,-243.3 606,-243.28 656.22,-242.99 668.79,-242.29 719,-243.28 772.04,-244.33 832,-246.77 876.98,-248.84"/>
<polygon fill="#9a32cd" stroke="#9a32cd" points="598.14,-239.84 588.17,-243.42 598.2,-246.84 598.14,-239.84"/>
<text text-anchor="middle" x="662.5" y="-246.28" font-family="Helvetica" font-size="10.00"> ptr</text>
</g>
<!-- Node9&#45;&gt;Node21 -->
<g id="edge30" class="edge">
<title>Node9&#45;&gt;Node21</title>
<path fill="none" stroke="#9a32cd" stroke-dasharray="5,2" d="M562.26,-225.19C575.92,-219.75 591.36,-214.45 606,-211.28 649.18,-201.95 699.04,-199.34 737,-199"/>
<polygon fill="#9a32cd" stroke="#9a32cd" points="560.57,-222.1 552.65,-229.14 563.23,-228.57 560.57,-222.1"/>
<text text-anchor="middle" x="662.5" y="-214.28" font-family="Helvetica" font-size="10.00"> group</text>
</g>
<!-- Node10 -->
<g id="node10" class="node">
<title>Node10</title>
<g id="a_node10"><a xlink:href="classsys_1_1ctl_1_1Sync.html" target="_top" xlink:title=" ">
<polygon fill="white" stroke="black" points="140,-196.78 140,-215.78 262,-215.78 262,-196.78 140,-196.78"/>
<text text-anchor="middle" x="201" y="-203.78" font-family="Helvetica" font-size="10.00">sys::ctl::Sync&lt; mhz_t &gt;</text>
</a>
</g>
</g>
<!-- Node10&#45;&gt;Node9 -->
<g id="edge12" class="edge">
<title>Node10&#45;&gt;Node9</title>
<path fill="none" stroke="#9a32cd" stroke-dasharray="5,2" d="M272.58,-211.94C318.41,-215.95 379.36,-221.92 433,-229.28 438.82,-230.08 444.86,-230.99 450.9,-231.95"/>
<polygon fill="#9a32cd" stroke="#9a32cd" points="272.72,-208.44 262.46,-211.06 272.12,-215.41 272.72,-208.44"/>
<text text-anchor="middle" x="359.5" y="-232.28" font-family="Helvetica" font-size="10.00"> freq</text>
</g>
<!-- Node11 -->
<g id="node11" class="node">
<title>Node11</title>
<g id="a_node11"><a xlink:title=" ">
<polygon fill="white" stroke="#bfbfbf" points="9,-176.78 9,-195.78 59,-195.78 59,-176.78 9,-176.78"/>
<text text-anchor="middle" x="34" y="-183.78" font-family="Helvetica" font-size="10.00">SysctlT</text>
</a>
</g>
</g>
<!-- Node11&#45;&gt;Node10 -->
<g id="edge13" class="edge">
<title>Node11&#45;&gt;Node10</title>
<path fill="none" stroke="#9a32cd" stroke-dasharray="5,2" d="M69.41,-190.45C89.78,-192.92 116.17,-196.12 139.89,-199"/>
<polygon fill="#9a32cd" stroke="#9a32cd" points="69.69,-186.96 59.35,-189.23 68.85,-193.91 69.69,-186.96"/>
<text text-anchor="middle" x="101" y="-198.28" font-family="Helvetica" font-size="10.00"> sysctl</text>
</g>
<!-- Node22 -->
<g id="node22" class="node">
<title>Node22</title>
<g id="a_node22"><a xlink:href="classsys_1_1ctl_1_1Sync.html" target="_top" xlink:title=" ">
<polygon fill="white" stroke="black" points="286,-159.78 286,-178.78 433,-178.78 433,-159.78 286,-159.78"/>
<text text-anchor="middle" x="359.5" y="-166.78" font-family="Helvetica" font-size="10.00">sys::ctl::Sync&lt; decikelvin_t &gt;</text>
</a>
</g>
</g>
<!-- Node11&#45;&gt;Node22 -->
<g id="edge33" class="edge">
<title>Node11&#45;&gt;Node22</title>
<path fill="none" stroke="#9a32cd" stroke-dasharray="5,2" d="M68.96,-179.58C74.63,-178.67 80.47,-177.85 86,-177.28 153.45,-170.38 230.74,-168.7 285.73,-168.55"/>
<polygon fill="#9a32cd" stroke="#9a32cd" points="68.28,-176.15 59.03,-181.3 69.48,-183.05 68.28,-176.15"/>
<text text-anchor="middle" x="101" y="-180.28" font-family="Helvetica" font-size="10.00"> sysctl</text>
</g>
<!-- Node12&#45;&gt;Node9 -->
<g id="edge14" class="edge">
<title>Node12&#45;&gt;Node9</title>
<path fill="none" stroke="#9a32cd" stroke-dasharray="5,2" d="M276,-244.28C328.87,-244.28 399.45,-244.28 450.83,-244.28"/>
<polygon fill="#9a32cd" stroke="#9a32cd" points="275.67,-240.78 265.67,-244.28 275.67,-247.78 275.67,-240.78"/>
<text text-anchor="middle" x="359.5" y="-247.28" font-family="Helvetica" font-size="10.00"> loads</text>
</g>
<!-- Node13&#45;&gt;Node9 -->
<g id="edge16" class="edge">
<title>Node13&#45;&gt;Node9</title>
<path fill="none" stroke="#9a32cd" stroke-dasharray="5,2" d="M264.95,-378.94C323.98,-378.35 406.96,-374.02 433,-355.28 448.83,-343.9 440.13,-331.47 451,-315.28 465.42,-293.82 486.51,-272.82 501.27,-259.29"/>
<polygon fill="#9a32cd" stroke="#9a32cd" points="264.56,-375.44 254.59,-379.01 264.61,-382.44 264.56,-375.44"/>
<text text-anchor="middle" x="359.5" y="-381.28" font-family="Helvetica" font-size="10.00"> max</text>
</g>
<!-- Node14 -->
<g id="node14" class="node">
<title>Node14</title>
<g id="a_node14"><a xlink:href="classutility_1_1Min.html" target="_top" xlink:title=" ">
<polygon fill="white" stroke="black" points="135.5,-82.78 135.5,-101.78 266.5,-101.78 266.5,-82.78 135.5,-82.78"/>
<text text-anchor="middle" x="201" y="-89.78" font-family="Helvetica" font-size="10.00">utility::Min&lt; decikelvin_t &gt;</text>
</a>
</g>
</g>
<!-- Node14&#45;&gt;Node9 -->
<g id="edge18" class="edge">
<title>Node14&#45;&gt;Node9</title>
<path fill="none" stroke="#9a32cd" stroke-dasharray="5,2" d="M276.99,-84.52C335.31,-80.21 410.05,-79.05 433,-98.28 463.6,-123.93 430.77,-151.87 451,-186.28 461.41,-204 479.22,-218.96 493.94,-229.25"/>
<polygon fill="#9a32cd" stroke="#9a32cd" points="276.37,-81.05 266.68,-85.32 276.92,-88.03 276.37,-81.05"/>
<text text-anchor="middle" x="359.5" y="-112.28" font-family="Helvetica" font-size="10.00"> temp_crit</text>
<text text-anchor="middle" x="359.5" y="-101.28" font-family="Helvetica" font-size="10.00">temp_high</text>
</g>
<!-- Node15 -->
<g id="node15" class="node">
<title>Node15</title>
<g id="a_node15"><a xlink:title=" ">
<polygon fill="white" stroke="#bfbfbf" points="0,-82.78 0,-101.78 68,-101.78 68,-82.78 0,-82.78"/>
<text text-anchor="middle" x="34" y="-89.78" font-family="Helvetica" font-size="10.00">decikelvin_t</text>
</a>
</g>
</g>
<!-- Node15&#45;&gt;Node1 -->
<g id="edge26" class="edge">
<title>Node15&#45;&gt;Node1</title>
<path fill="none" stroke="#9a32cd" stroke-dasharray="5,2" d="M69.95,-79.39C102.99,-68.37 154.18,-54.28 200,-54.28 200,-54.28 200,-54.28 1107,-54.28 1235.25,-54.28 1306.06,-239.92 1324.25,-295.04"/>
<polygon fill="#9a32cd" stroke="#9a32cd" points="68.63,-76.14 60.31,-82.69 70.9,-82.77 68.63,-76.14"/>
<text text-anchor="middle" x="662.5" y="-68.28" font-family="Helvetica" font-size="10.00"> temp_crit</text>
<text text-anchor="middle" x="662.5" y="-57.28" font-family="Helvetica" font-size="10.00">temp_high</text>
</g>
<!-- Node15&#45;&gt;Node14 -->
<g id="edge19" class="edge">
<title>Node15&#45;&gt;Node14</title>
<path fill="none" stroke="#9a32cd" stroke-dasharray="5,2" d="M78.75,-92.28C96.07,-92.28 116.33,-92.28 135.28,-92.28"/>
<polygon fill="#9a32cd" stroke="#9a32cd" points="78.39,-88.78 68.39,-92.28 78.39,-95.78 78.39,-88.78"/>
<text text-anchor="middle" x="101" y="-95.28" font-family="Helvetica" font-size="10.00"> value</text>
</g>
<!-- Node17 -->
<g id="node17" class="node">
<title>Node17</title>
<g id="a_node17"><a xlink:href="classutility_1_1Max.html" target="_top" xlink:title=" ">
<polygon fill="white" stroke="black" points="134,-120.78 134,-139.78 268,-139.78 268,-120.78 134,-120.78"/>
<text text-anchor="middle" x="201" y="-127.78" font-family="Helvetica" font-size="10.00">utility::Max&lt; decikelvin_t &gt;</text>
</a>
</g>
</g>
<!-- Node15&#45;&gt;Node17 -->
<g id="edge23" class="edge">
<title>Node15&#45;&gt;Node17</title>
<path fill="none" stroke="#9a32cd" stroke-dasharray="5,2" d="M77.96,-104.27C80.67,-104.97 83.37,-105.65 86,-106.28 107.43,-111.47 131.27,-116.6 151.6,-120.77"/>
<polygon fill="#9a32cd" stroke="#9a32cd" points="78.68,-100.85 68.12,-101.69 76.9,-107.62 78.68,-100.85"/>
<text text-anchor="middle" x="101" y="-116.28" font-family="Helvetica" font-size="10.00"> value</text>
</g>
<!-- Node16&#45;&gt;Node9 -->
<g id="edge20" class="edge">
<title>Node16&#45;&gt;Node9</title>
<path fill="none" stroke="#9a32cd" stroke-dasharray="5,2" d="M266.37,-333.56C323.91,-326.95 403.57,-316.15 433,-304.28 459.41,-293.64 485.58,-273.48 501.88,-259.49"/>
<polygon fill="#9a32cd" stroke="#9a32cd" points="265.8,-330.1 256.25,-334.71 266.58,-337.06 265.8,-330.1"/>
<text text-anchor="middle" x="359.5" y="-344.28" font-family="Helvetica" font-size="10.00"> load</text>
<text text-anchor="middle" x="359.5" y="-333.28" font-family="Helvetica" font-size="10.00">min</text>
</g>
<!-- Node17&#45;&gt;Node9 -->
<g id="edge22" class="edge">
<title>Node17&#45;&gt;Node9</title>
<path fill="none" stroke="#9a32cd" stroke-dasharray="5,2" d="M278.45,-124.87C336,-122.37 408.93,-123.08 433,-140.28 450.86,-153.05 438.3,-168.38 451,-186.28 463.07,-203.3 481.18,-218.5 495.6,-229.06"/>
<polygon fill="#9a32cd" stroke="#9a32cd" points="278.09,-121.38 268.26,-125.35 278.42,-128.37 278.09,-121.38"/>
<text text-anchor="middle" x="359.5" y="-143.28" font-family="Helvetica" font-size="10.00"> temp</text>
</g>
<!-- Node18&#45;&gt;Node1 -->
<g id="edge24" class="edge">
<title>Node18&#45;&gt;Node1</title>
<path fill="none" stroke="#9a32cd" stroke-dasharray="5,2" d="M1017.01,-316.83C1088.96,-315.32 1200.57,-312.98 1268.98,-311.54"/>
<polygon fill="#9a32cd" stroke="#9a32cd" points="1016.62,-313.34 1006.7,-317.05 1016.77,-320.34 1016.62,-313.34"/>
<text text-anchor="middle" x="1106" y="-319.28" font-family="Helvetica" font-size="10.00"> cp_times</text>
</g>
<!-- Node19 -->
<g id="node19" class="node">
<title>Node19</title>
<g id="a_node19"><a xlink:href="classsys_1_1ctl_1_1Sysctl.html" target="_top" xlink:title="Represents a sysctl MIB address.">
<polygon fill="white" stroke="black" points="1035,-6.78 1035,-25.78 1177,-25.78 1177,-6.78 1035,-6.78"/>
<text text-anchor="middle" x="1106" y="-13.78" font-family="Helvetica" font-size="10.00">sys::ctl::Sysctl&lt; MibDepth &gt;</text>
</a>
</g>
</g>
<!-- Node19&#45;&gt;Node1 -->
<g id="edge27" class="edge">
<title>Node19&#45;&gt;Node1</title>
<path fill="none" stroke="#9a32cd" stroke-dasharray="5,2" d="M1148.14,-4.61C1179.58,1.65 1222.26,4.11 1251,-18.28 1296.12,-53.43 1320.96,-240.47 1327.34,-295.22"/>
<polygon fill="#9a32cd" stroke="#9a32cd" points="1147.38,-1.2 1138.36,-6.76 1148.88,-8.03 1147.38,-1.2"/>
<text text-anchor="middle" x="1223" y="-32.28" font-family="Helvetica" font-size="10.00"> acline_ctl</text>
<text text-anchor="middle" x="1223" y="-21.28" font-family="Helvetica" font-size="10.00">cp_times_ctl</text>
</g>
<!-- Node20 -->
<g id="node20" class="node">
<title>Node20</title>
<g id="a_node20"><a xlink:title=" ">
<polygon fill="white" stroke="#bfbfbf" points="1036,-182.78 1036,-223.78 1176,-223.78 1176,-182.78 1036,-182.78"/>
<text text-anchor="start" x="1044" y="-211.78" font-family="Helvetica" font-size="10.00">std::unique_ptr&lt; anonymous</text>
<text text-anchor="start" x="1044" y="-200.78" font-family="Helvetica" font-size="10.00">_namespace{powerd++.cpp}</text>
<text text-anchor="middle" x="1106" y="-189.78" font-family="Helvetica" font-size="10.00">::Core[]&gt;</text>
</a>
</g>
</g>
<!-- Node20&#45;&gt;Node1 -->
<g id="edge28" class="edge">
<title>Node20&#45;&gt;Node1</title>
<path fill="none" stroke="#9a32cd" stroke-dasharray="5,2" d="M1186.22,-214.27C1208.05,-219.32 1231.17,-226.65 1251,-237.28 1278.3,-251.92 1303.17,-278.52 1317.17,-295.26"/>
<polygon fill="#9a32cd" stroke="#9a32cd" points="1186.81,-210.81 1176.3,-212.1 1185.32,-217.65 1186.81,-210.81"/>
<text text-anchor="middle" x="1223" y="-240.28" font-family="Helvetica" font-size="10.00"> cores</text>
</g>
<!-- Node21&#45;&gt;Node20 -->
<g id="edge29" class="edge">
<title>Node21&#45;&gt;Node20</title>
<path fill="none" stroke="#9a32cd" stroke-dasharray="5,2" d="M869.18,-200.97C919.22,-201.46 986.18,-202.12 1035.96,-202.61"/>
<polygon fill="#9a32cd" stroke="#9a32cd" points="869.12,-197.47 859.09,-200.87 869.06,-204.47 869.12,-197.47"/>
<text text-anchor="middle" x="947" y="-205.28" font-family="Helvetica" font-size="10.00"> ptr</text>
</g>
<!-- Node22&#45;&gt;Node21 -->
<g id="edge32" class="edge">
<title>Node22&#45;&gt;Node21</title>
<path fill="none" stroke="#9a32cd" stroke-dasharray="5,2" d="M443.28,-175.16C528.96,-181.25 660.72,-190.61 736.92,-196.02"/>
<polygon fill="#9a32cd" stroke="#9a32cd" points="443.29,-171.65 433.07,-174.44 442.8,-178.64 443.29,-171.65"/>
<text text-anchor="middle" x="519.5" y="-187.28" font-family="Helvetica" font-size="10.00"> temp</text>
</g>
</g>
</svg>
