<?xml version="1.0" encoding="UTF-8" standalone="no"?>
<!DOCTYPE svg PUBLIC "-//W3C//DTD SVG 1.1//EN"
 "http://www.w3.org/Graphics/SVG/1.1/DTD/svg11.dtd">
<!-- Generated by graphviz version 2.40.1 (20161225.0304)
 -->
<!-- Title: anonymous_namespace{libloadplay.cpp}::CoreFrameReport Pages: 1 -->
<svg width="151pt" height="206pt"
 viewBox="0.00 0.00 151.00 206.00" xmlns="http://www.w3.org/2000/svg" xmlns:xlink="http://www.w3.org/1999/xlink">
<g id="graph0" class="graph" transform="scale(1 1) rotate(0) translate(4 202)">
<title>anonymous_namespace{libloadplay.cpp}::CoreFrameReport</title>
<polygon fill="#ffffff" stroke="transparent" points="-4,4 -4,-202 147,-202 147,4 -4,4"/>
<!-- Node1 -->
<g id="node1" class="node">
<title>Node1</title>
<g id="a_node1"><a xlink:title="The report frame information for a single CPU pipeline.">
<polygon fill="#bfbfbf" stroke="#000000" points=".5,-.5 .5,-41.5 142.5,-41.5 142.5,-.5 .5,-.5"/>
<text text-anchor="start" x="8.5" y="-29.5" font-family="Helvetica,sans-Serif" font-size="10.00" fill="#000000">anonymous_namespace</text>
<text text-anchor="start" x="8.5" y="-18.5" font-family="Helvetica,sans-Serif" font-size="10.00" fill="#000000">{libloadplay.cpp}::CoreFrame</text>
<text text-anchor="middle" x="71.5" y="-7.5" font-family="Helvetica,sans-Serif" font-size="10.00" fill="#000000">Report</text>
</a>
</g>
</g>
<!-- Node2 -->
<g id="node2" class="node">
<title>Node2</title>
<g id="a_node2"><a xlink:href="namespaceanonymous__namespace_02libloadplay_8cpp_03.html#structanonymous__namespace_02libloadplay_8cpp_03_1_1CoreReport" target="_top" xlink:title="The reported state of a single CPU pipeline.">
<polygon fill="#ffffff" stroke="#000000" points="0,-100.5 0,-130.5 143,-130.5 143,-100.5 0,-100.5"/>
<text text-anchor="start" x="8" y="-118.5" font-family="Helvetica,sans-Serif" font-size="10.00" fill="#000000">anonymous_namespace</text>
<text text-anchor="middle" x="71.5" y="-107.5" font-family="Helvetica,sans-Serif" font-size="10.00" fill="#000000">{libloadplay.cpp}::CoreReport</text>
</a>
</g>
</g>
<!-- Node2&#45;&gt;Node1 -->
<g id="edge1" class="edge">
<title>Node2&#45;&gt;Node1</title>
<path fill="none" stroke="#9a32cd" stroke-dasharray="5,2" d="M71.5,-90.1013C71.5,-74.9736 71.5,-56.0135 71.5,-41.7823"/>
<polygon fill="#9a32cd" stroke="#9a32cd" points="68.0001,-90.3169 71.5,-100.3169 75.0001,-90.317 68.0001,-90.3169"/>
<text text-anchor="middle" x="80" y="-74" font-family="Helvetica,sans-Serif" font-size="10.00" fill="#000000"> run</text>
<text text-anchor="middle" x="80" y="-63" font-family="Helvetica,sans-Serif" font-size="10.00" fill="#000000">rec</text>
</g>
<!-- Node3 -->
<g id="node3" class="node">
<title>Node3</title>
<g id="a_node3"><a xlink:title=" ">
<polygon fill="#ffffff" stroke="#bfbfbf" points="49.5,-178.5 49.5,-197.5 93.5,-197.5 93.5,-178.5 49.5,-178.5"/>
<text text-anchor="middle" x="71.5" y="-185.5" font-family="Helvetica,sans-Serif" font-size="10.00" fill="#000000">mhz_t</text>
</a>
</g>
</g>
<!-- Node3&#45;&gt;Node2 -->
<g id="edge2" class="edge">
<title>Node3&#45;&gt;Node2</title>
<path fill="none" stroke="#9a32cd" stroke-dasharray="5,2" d="M71.5,-168.0177C71.5,-156.2164 71.5,-141.513 71.5,-130.668"/>
<polygon fill="#9a32cd" stroke="#9a32cd" points="68.0001,-168.2223 71.5,-178.2223 75.0001,-168.2224 68.0001,-168.2223"/>
<text text-anchor="middle" x="81.5" y="-152" font-family="Helvetica,sans-Serif" font-size="10.00" fill="#000000"> freq</text>
</g>
</g>
</svg>
