<?xml version="1.0" encoding="UTF-8" standalone="no"?>
<!DOCTYPE svg PUBLIC "-//W3C//DTD SVG 1.1//EN"
 "http://www.w3.org/Graphics/SVG/1.1/DTD/svg11.dtd">
<!-- Generated by graphviz version 2.40.1 (20161225.0304)
 -->
<!-- Title: anonymous_namespace{loadplay.cpp}::Emulator::Core Pages: 1 -->
<svg width="795pt" height="116pt"
 viewBox="0.00 0.00 795.00 116.00" xmlns="http://www.w3.org/2000/svg" xmlns:xlink="http://www.w3.org/1999/xlink">
<g id="graph0" class="graph" transform="scale(1 1) rotate(0) translate(4 112)">
<title>anonymous_namespace{loadplay.cpp}::Emulator::Core</title>
<polygon fill="#ffffff" stroke="transparent" points="-4,4 -4,-112 791,-112 791,4 -4,4"/>
<!-- Node12 -->
<g id="node1" class="node">
<title>Node12</title>
<g id="a_node1"><a xlink:title="Per core information.">
<polygon fill="#bfbfbf" stroke="#000000" points="638,-40 638,-70 787,-70 787,-40 638,-40"/>
<text text-anchor="start" x="646" y="-58" font-family="Helvetica,sans-Serif" font-size="10.00" fill="#000000">anonymous_namespace</text>
<text text-anchor="middle" x="712.5" y="-47" font-family="Helvetica,sans-Serif" font-size="10.00" fill="#000000">{loadplay.cpp}::Emulator::Core</text>
</a>
</g>
</g>
<!-- Node13 -->
<g id="node2" class="node">
<title>Node13</title>
<g id="a_node2"><a xlink:title=" ">
<polygon fill="#ffffff" stroke="#bfbfbf" points="435,-88.5 435,-107.5 479,-107.5 479,-88.5 435,-88.5"/>
<text text-anchor="middle" x="457" y="-95.5" font-family="Helvetica,sans-Serif" font-size="10.00" fill="#000000">mhz_t</text>
</a>
</g>
</g>
<!-- Node13&#45;&gt;Node12 -->
<g id="edge1" class="edge">
<title>Node13&#45;&gt;Node12</title>
<path fill="none" stroke="#9a32cd" stroke-dasharray="5,2" d="M489.4691,-92.5355C526.638,-86.2801 588.7335,-75.8296 637.9785,-67.5418"/>
<polygon fill="#9a32cd" stroke="#9a32cd" points="488.5074,-89.1481 479.227,-94.2593 489.6692,-96.051 488.5074,-89.1481"/>
<text text-anchor="middle" x="581.5" y="-96" font-family="Helvetica,sans-Serif" font-size="10.00" fill="#000000"> runFreq</text>
<text text-anchor="middle" x="581.5" y="-85" font-family="Helvetica,sans-Serif" font-size="10.00" fill="#000000">recFreq</text>
</g>
<!-- Node14 -->
<g id="node3" class="node">
<title>Node14</title>
<g id="a_node3"><a xlink:href="classanonymous__namespace_02loadplay_8cpp_03_1_1SysctlValue.html" target="_top" xlink:title="Instances of this class represents a specific sysctl value.">
<polygon fill="#ffffff" stroke="#000000" points="389,-39 389,-69 525,-69 525,-39 389,-39"/>
<text text-anchor="start" x="397" y="-57" font-family="Helvetica,sans-Serif" font-size="10.00" fill="#000000">anonymous_namespace</text>
<text text-anchor="middle" x="457" y="-46" font-family="Helvetica,sans-Serif" font-size="10.00" fill="#000000">{loadplay.cpp}::SysctlValue</text>
</a>
</g>
</g>
<!-- Node14&#45;&gt;Node12 -->
<g id="edge2" class="edge">
<title>Node14&#45;&gt;Node12</title>
<path fill="none" stroke="#9a32cd" stroke-dasharray="5,2" d="M535.5149,-54.3073C568.0754,-54.4347 605.6739,-54.5819 637.82,-54.7077"/>
<polygon fill="#9a32cd" stroke="#9a32cd" points="535.1473,-50.8059 525.1337,-54.2667 535.1199,-57.8059 535.1473,-50.8059"/>
<text text-anchor="middle" x="581.5" y="-57" font-family="Helvetica,sans-Serif" font-size="10.00" fill="#000000"> freqCtl</text>
</g>
<!-- Node15 -->
<g id="node4" class="node">
<title>Node15</title>
<g id="a_node4"><a xlink:href="classanonymous__namespace_02loadplay_8cpp_03_1_1Callback.html" target="_top" xlink:title=" ">
<polygon fill="#ffffff" stroke="#000000" points="132,-50 132,-102 324,-102 324,-50 132,-50"/>
<text text-anchor="start" x="140" y="-90" font-family="Helvetica,sans-Serif" font-size="10.00" fill="#000000">anonymous_namespace</text>
<text text-anchor="start" x="140" y="-79" font-family="Helvetica,sans-Serif" font-size="10.00" fill="#000000">{loadplay.cpp}::Callback</text>
<text text-anchor="start" x="140" y="-68" font-family="Helvetica,sans-Serif" font-size="10.00" fill="#000000">&lt; anonymous_namespace{loadplay.cpp}</text>
<text text-anchor="middle" x="228" y="-57" font-family="Helvetica,sans-Serif" font-size="10.00" fill="#000000">::SysctlValue &amp; &gt;</text>
</a>
</g>
</g>
<!-- Node15&#45;&gt;Node14 -->
<g id="edge3" class="edge">
<title>Node15&#45;&gt;Node14</title>
<path fill="none" stroke="#9a32cd" stroke-dasharray="5,2" d="M334.1305,-65.8041C352.7696,-64.0134 371.706,-62.1942 388.95,-60.5376"/>
<polygon fill="#9a32cd" stroke="#9a32cd" points="333.7407,-62.3253 324.1213,-66.7656 334.4102,-69.2932 333.7407,-62.3253"/>
<text text-anchor="middle" x="356.5" y="-68" font-family="Helvetica,sans-Serif" font-size="10.00" fill="#000000"> onSet</text>
</g>
<!-- Node16 -->
<g id="node5" class="node">
<title>Node16</title>
<g id="a_node5"><a xlink:title="STL class.">
<polygon fill="#ffffff" stroke="#bfbfbf" points="198,-11.5 198,-30.5 258,-30.5 258,-11.5 198,-11.5"/>
<text text-anchor="middle" x="228" y="-18.5" font-family="Helvetica,sans-Serif" font-size="10.00" fill="#000000">std::string</text>
</a>
</g>
</g>
<!-- Node16&#45;&gt;Node14 -->
<g id="edge4" class="edge">
<title>Node16&#45;&gt;Node14</title>
<path fill="none" stroke="#9a32cd" stroke-dasharray="5,2" d="M268.6728,-26.8611C301.9436,-31.6556 349.7134,-38.5395 388.8157,-44.1743"/>
<polygon fill="#9a32cd" stroke="#9a32cd" points="268.8064,-23.3443 258.4094,-25.3821 267.808,-30.2728 268.8064,-23.3443"/>
<text text-anchor="middle" x="356.5" y="-44" font-family="Helvetica,sans-Serif" font-size="10.00" fill="#000000"> value</text>
</g>
<!-- Node17 -->
<g id="node6" class="node">
<title>Node17</title>
<g id="a_node6"><a xlink:title="STL class.">
<polygon fill="#ffffff" stroke="#bfbfbf" points="0,-6 0,-36 95,-36 95,-6 0,-6"/>
<text text-anchor="start" x="8" y="-24" font-family="Helvetica,sans-Serif" font-size="10.00" fill="#000000">std::basic_string&lt;</text>
<text text-anchor="middle" x="47.5" y="-13" font-family="Helvetica,sans-Serif" font-size="10.00" fill="#000000"> char &gt;</text>
</a>
</g>
</g>
<!-- Node17&#45;&gt;Node16 -->
<g id="edge5" class="edge">
<title>Node17&#45;&gt;Node16</title>
<path fill="none" stroke="#191970" d="M105.5618,-21C136.254,-21 172.6617,-21 197.7542,-21"/>
<polygon fill="#191970" stroke="#191970" points="105.3968,-17.5001 95.3968,-21 105.3968,-24.5001 105.3968,-17.5001"/>
</g>
<!-- Node18 -->
<g id="node7" class="node">
<title>Node18</title>
<g id="a_node7"><a xlink:title=" ">
<polygon fill="#ffffff" stroke="#bfbfbf" points="430,-.5 430,-19.5 484,-19.5 484,-.5 430,-.5"/>
<text text-anchor="middle" x="457" y="-7.5" font-family="Helvetica,sans-Serif" font-size="10.00" fill="#000000">cptime_t</text>
</a>
</g>
</g>
<!-- Node18&#45;&gt;Node12 -->
<g id="edge6" class="edge">
<title>Node18&#45;&gt;Node12</title>
<path fill="none" stroke="#9a32cd" stroke-dasharray="5,2" d="M494.2156,-12.2589C527.4376,-14.7133 577.2971,-19.4773 620,-28 635.4213,-31.0778 651.989,-35.5357 666.7821,-39.9451"/>
<polygon fill="#9a32cd" stroke="#9a32cd" points="494.2655,-8.7539 484.044,-11.5414 493.7729,-15.7365 494.2655,-8.7539"/>
<text text-anchor="middle" x="581.5" y="-42" font-family="Helvetica,sans-Serif" font-size="10.00" fill="#000000"> carryLoadCycles</text>
<text text-anchor="middle" x="581.5" y="-31" font-family="Helvetica,sans-Serif" font-size="10.00" fill="#000000">runLoadCycles</text>
</g>
</g>
</svg>
