<?xml version="1.0" encoding="UTF-8" standalone="no"?>
<!DOCTYPE svg PUBLIC "-//W3C//DTD SVG 1.1//EN"
 "http://www.w3.org/Graphics/SVG/1.1/DTD/svg11.dtd">
<!-- Generated by graphviz version 2.42.2 ()
 -->
<!-- Title: anonymous_namespace{powerd++.cpp}::Global::ACSet Pages: 1 -->
<svg width="145pt" height="139pt"
 viewBox="0.00 0.00 145.00 139.00" xmlns="http://www.w3.org/2000/svg" xmlns:xlink="http://www.w3.org/1999/xlink">
<g id="graph0" class="graph" transform="scale(1 1) rotate(0) translate(4 135)">
<title>anonymous_namespace{powerd++.cpp}::Global::ACSet</title>
<polygon fill="white" stroke="transparent" points="-4,4 -4,-135 141,-135 141,4 -4,4"/>
<!-- Node1 -->
<g id="node1" class="node">
<title>Node1</title>
<g id="a_node1"><a xlink:title="Per AC line state settings.">
<polygon fill="#bfbfbf" stroke="black" points="0,-0.5 0,-41.5 122,-41.5 122,-0.5 0,-0.5"/>
<text text-anchor="start" x="8" y="-29.5" font-family="Helvetica,sans-Serif" font-size="10.00">anonymous_namespace</text>
<text text-anchor="start" x="8" y="-18.5" font-family="Helvetica,sans-Serif" font-size="10.00">{powerd++.cpp}::Global</text>
<text text-anchor="middle" x="61" y="-7.5" font-family="Helvetica,sans-Serif" font-size="10.00">::ACSet</text>
</a>
</g>
</g>
<!-- Node2 -->
<g id="node2" class="node">
<title>Node2</title>
<g id="a_node2"><a xlink:title=" ">
<polygon fill="white" stroke="#bfbfbf" points="4,-111.5 4,-130.5 48,-130.5 48,-111.5 4,-111.5"/>
<text text-anchor="middle" x="26" y="-118.5" font-family="Helvetica,sans-Serif" font-size="10.00">mhz_t</text>
</a>
</g>
</g>
<!-- Node2&#45;&gt;Node1 -->
<g id="edge1" class="edge">
<title>Node2&#45;&gt;Node1</title>
<path fill="none" stroke="#9a32cd" stroke-dasharray="5,2" d="M23.02,-101.21C21.87,-89.04 21.88,-73.09 27,-60 29.58,-53.41 33.87,-47.22 38.55,-41.84"/>
<polygon fill="#9a32cd" stroke="#9a32cd" points="19.59,-102.02 24.34,-111.49 26.54,-101.13 19.59,-102.02"/>
<text text-anchor="middle" x="50.5" y="-85" font-family="Helvetica,sans-Serif" font-size="10.00"> freq_max</text>
<text text-anchor="middle" x="50.5" y="-74" font-family="Helvetica,sans-Serif" font-size="10.00">target_freq</text>
<text text-anchor="middle" x="50.5" y="-63" font-family="Helvetica,sans-Serif" font-size="10.00">freq_min</text>
</g>
<!-- Node3 -->
<g id="node3" class="node">
<title>Node3</title>
<g id="a_node3"><a xlink:title=" ">
<polygon fill="white" stroke="#bfbfbf" points="69,-111.5 69,-130.5 123,-130.5 123,-111.5 69,-111.5"/>
<text text-anchor="middle" x="96" y="-118.5" font-family="Helvetica,sans-Serif" font-size="10.00">cptime_t</text>
</a>
</g>
</g>
<!-- Node3&#45;&gt;Node1 -->
<g id="edge2" class="edge">
<title>Node3&#45;&gt;Node1</title>
<path fill="none" stroke="#9a32cd" stroke-dasharray="5,2" d="M89.36,-101.4C83.25,-84.29 74.22,-59 67.99,-41.59"/>
<polygon fill="#9a32cd" stroke="#9a32cd" points="86.23,-103.06 92.89,-111.3 92.83,-100.71 86.23,-103.06"/>
<text text-anchor="middle" x="111" y="-74" font-family="Helvetica,sans-Serif" font-size="10.00"> target_load</text>
</g>
</g>
</svg>
