<?xml version="1.0" encoding="UTF-8" standalone="no"?>
<!DOCTYPE svg PUBLIC "-//W3C//DTD SVG 1.1//EN"
 "http://www.w3.org/Graphics/SVG/1.1/DTD/svg11.dtd">
<!-- Generated by graphviz version 2.40.1 (20161225.0304)
 -->
<!-- Title: anonymous_namespace{powerd++.cpp}::Core Pages: 1 -->
<svg width="790pt" height="369pt"
 viewBox="0.00 0.00 790.00 369.00" xmlns="http://www.w3.org/2000/svg" xmlns:xlink="http://www.w3.org/1999/xlink">
<g id="graph0" class="graph" transform="scale(1 1) rotate(0) translate(4 365)">
<title>anonymous_namespace{powerd++.cpp}::Core</title>
<polygon fill="#ffffff" stroke="transparent" points="-4,4 -4,-365 786,-365 786,4 -4,4"/>
<!-- Node1 -->
<g id="node1" class="node">
<title>Node1</title>
<g id="a_node1"><a xlink:title="Contains the management information for a single CPU core.">
<polygon fill="#bfbfbf" stroke="#000000" points="660,-43 660,-73 782,-73 782,-43 660,-43"/>
<text text-anchor="start" x="668" y="-61" font-family="Helvetica,sans-Serif" font-size="10.00" fill="#000000">anonymous_namespace</text>
<text text-anchor="middle" x="721" y="-50" font-family="Helvetica,sans-Serif" font-size="10.00" fill="#000000">{powerd++.cpp}::Core</text>
</a>
</g>
</g>
<!-- Node2 -->
<g id="node2" class="node">
<title>Node2</title>
<g id="a_node2"><a xlink:href="namespaceanonymous__namespace_02powerd_09_09_8cpp_03.html#structanonymous__namespace_02powerd_09_09_8cpp_03_1_1CoreGroup" target="_top" xlink:title="Contains the management information for a group of cores with a common clock frequency.">
<polygon fill="#ffffff" stroke="#000000" points="451,-163 451,-193 589,-193 589,-163 451,-163"/>
<text text-anchor="start" x="459" y="-181" font-family="Helvetica,sans-Serif" font-size="10.00" fill="#000000">anonymous_namespace</text>
<text text-anchor="middle" x="520" y="-170" font-family="Helvetica,sans-Serif" font-size="10.00" fill="#000000">{powerd++.cpp}::CoreGroup</text>
</a>
</g>
</g>
<!-- Node2&#45;&gt;Node1 -->
<g id="edge1" class="edge">
<title>Node2&#45;&gt;Node1</title>
<path fill="none" stroke="#9a32cd" stroke-dasharray="5,2" d="M554.0989,-157.6424C594.2275,-133.6851 659.9196,-94.4659 695.7499,-73.0747"/>
<polygon fill="#9a32cd" stroke="#9a32cd" points="552.2489,-154.6706 545.4568,-162.8019 555.8372,-160.681 552.2489,-154.6706"/>
<text text-anchor="middle" x="624.5" y="-128" font-family="Helvetica,sans-Serif" font-size="10.00" fill="#000000"> group</text>
</g>
<!-- Node3 -->
<g id="node3" class="node">
<title>Node3</title>
<g id="a_node3"><a xlink:title=" ">
<polygon fill="#ffffff" stroke="#bfbfbf" points="12,-263.5 12,-282.5 56,-282.5 56,-263.5 12,-263.5"/>
<text text-anchor="middle" x="34" y="-270.5" font-family="Helvetica,sans-Serif" font-size="10.00" fill="#000000">mhz_t</text>
</a>
</g>
</g>
<!-- Node3&#45;&gt;Node2 -->
<g id="edge2" class="edge">
<title>Node3&#45;&gt;Node2</title>
<path fill="none" stroke="#9a32cd" stroke-dasharray="5,2" d="M61.4003,-286.9771C81.0301,-296.0913 108.4119,-307.0088 134,-311 265.302,-331.4803 316.2177,-375.4158 433,-312 480.2877,-286.3216 505.8673,-222.6085 515.4838,-193.2537"/>
<polygon fill="#9a32cd" stroke="#9a32cd" points="62.6919,-283.7151 52.1609,-282.5541 59.6694,-290.0289 62.6919,-283.7151"/>
<text text-anchor="middle" x="201" y="-353" font-family="Helvetica,sans-Serif" font-size="10.00" fill="#000000"> loadsum</text>
<text text-anchor="middle" x="201" y="-342" font-family="Helvetica,sans-Serif" font-size="10.00" fill="#000000">sample_freq</text>
</g>
<!-- Node7 -->
<g id="node7" class="node">
<title>Node7</title>
<g id="a_node7"><a xlink:title=" ">
<polygon fill="#ffffff" stroke="#bfbfbf" points="136.5,-282.5 136.5,-301.5 265.5,-301.5 265.5,-282.5 136.5,-282.5"/>
<text text-anchor="middle" x="201" y="-289.5" font-family="Helvetica,sans-Serif" font-size="10.00" fill="#000000">std::unique_ptr&lt; mhz_t[]&gt;</text>
</a>
</g>
</g>
<!-- Node3&#45;&gt;Node7 -->
<g id="edge7" class="edge">
<title>Node3&#45;&gt;Node7</title>
<path fill="none" stroke="#9a32cd" stroke-dasharray="5,2" d="M66.212,-276.6648C86.0492,-278.9218 112.1899,-281.8959 136.1664,-284.6237"/>
<polygon fill="#9a32cd" stroke="#9a32cd" points="66.5079,-273.176 56.1763,-275.5231 65.7165,-280.1311 66.5079,-273.176"/>
<text text-anchor="middle" x="101" y="-284" font-family="Helvetica,sans-Serif" font-size="10.00" fill="#000000"> ptr</text>
</g>
<!-- Node8 -->
<g id="node8" class="node">
<title>Node8</title>
<g id="a_node8"><a xlink:href="classutility_1_1Min.html" target="_top" xlink:title=" ">
<polygon fill="#ffffff" stroke="#000000" points="147.5,-244.5 147.5,-263.5 254.5,-263.5 254.5,-244.5 147.5,-244.5"/>
<text text-anchor="middle" x="201" y="-251.5" font-family="Helvetica,sans-Serif" font-size="10.00" fill="#000000">utility::Min&lt; mhz_t &gt;</text>
</a>
</g>
</g>
<!-- Node3&#45;&gt;Node8 -->
<g id="edge9" class="edge">
<title>Node3&#45;&gt;Node8</title>
<path fill="none" stroke="#9a32cd" stroke-dasharray="5,2" d="M66.1472,-266.9986C72.7008,-265.8985 79.5604,-264.8357 86,-264 105.9733,-261.4079 127.988,-259.3098 147.363,-257.7173"/>
<polygon fill="#9a32cd" stroke="#9a32cd" points="65.456,-263.5663 56.2051,-268.7308 66.6575,-270.4624 65.456,-263.5663"/>
<text text-anchor="middle" x="101" y="-267" font-family="Helvetica,sans-Serif" font-size="10.00" fill="#000000"> value</text>
</g>
<!-- Node11 -->
<g id="node11" class="node">
<title>Node11</title>
<g id="a_node11"><a xlink:href="classutility_1_1Max.html" target="_top" xlink:title=" ">
<polygon fill="#ffffff" stroke="#000000" points="146,-206.5 146,-225.5 256,-225.5 256,-206.5 146,-206.5"/>
<text text-anchor="middle" x="201" y="-213.5" font-family="Helvetica,sans-Serif" font-size="10.00" fill="#000000">utility::Max&lt; mhz_t &gt;</text>
</a>
</g>
</g>
<!-- Node3&#45;&gt;Node11 -->
<g id="edge13" class="edge">
<title>Node3&#45;&gt;Node11</title>
<path fill="none" stroke="#9a32cd" stroke-dasharray="5,2" d="M58.1633,-258.3846C66.7364,-253.6352 76.5946,-248.6532 86,-245 107.1126,-236.7995 131.3142,-230.292 152.0521,-225.5366"/>
<polygon fill="#9a32cd" stroke="#9a32cd" points="56.3877,-255.3681 49.4471,-263.373 59.8648,-261.4434 56.3877,-255.3681"/>
<text text-anchor="middle" x="101" y="-248" font-family="Helvetica,sans-Serif" font-size="10.00" fill="#000000"> value</text>
</g>
<!-- Node4 -->
<g id="node4" class="node">
<title>Node4</title>
<g id="a_node4"><a xlink:title=" ">
<polygon fill="#ffffff" stroke="#bfbfbf" points="175.5,-130.5 175.5,-149.5 226.5,-149.5 226.5,-130.5 175.5,-130.5"/>
<text text-anchor="middle" x="201" y="-137.5" font-family="Helvetica,sans-Serif" font-size="10.00" fill="#000000">coreid_t</text>
</a>
</g>
</g>
<!-- Node4&#45;&gt;Node2 -->
<g id="edge3" class="edge">
<title>Node4&#45;&gt;Node2</title>
<path fill="none" stroke="#9a32cd" stroke-dasharray="5,2" d="M236.8165,-142.7465C282.473,-146.4321 363.7899,-153.6153 433,-163 438.7715,-163.7826 444.7464,-164.6634 450.7374,-165.5959"/>
<polygon fill="#9a32cd" stroke="#9a32cd" points="237.0656,-139.2554 226.819,-141.9496 236.5092,-146.2332 237.0656,-139.2554"/>
<text text-anchor="middle" x="359.5" y="-166" font-family="Helvetica,sans-Serif" font-size="10.00" fill="#000000"> corei</text>
</g>
<!-- Node5 -->
<g id="node5" class="node">
<title>Node5</title>
<g id="a_node5"><a xlink:href="classsys_1_1ctl_1_1Sync.html" target="_top" xlink:title=" ">
<polygon fill="#ffffff" stroke="#000000" points="140,-54.5 140,-73.5 262,-73.5 262,-54.5 140,-54.5"/>
<text text-anchor="middle" x="201" y="-61.5" font-family="Helvetica,sans-Serif" font-size="10.00" fill="#000000">sys::ctl::Sync&lt; mhz_t &gt;</text>
</a>
</g>
</g>
<!-- Node5&#45;&gt;Node2 -->
<g id="edge4" class="edge">
<title>Node5&#45;&gt;Node2</title>
<path fill="none" stroke="#9a32cd" stroke-dasharray="5,2" d="M272.5666,-57.6254C320.3207,-56.3753 383.2363,-60.6849 433,-85 468.7568,-102.4712 497.2421,-141.3513 511.0038,-162.8965"/>
<polygon fill="#9a32cd" stroke="#9a32cd" points="272.182,-54.1367 262.3107,-57.9847 272.4272,-61.1324 272.182,-54.1367"/>
<text text-anchor="middle" x="359.5" y="-88" font-family="Helvetica,sans-Serif" font-size="10.00" fill="#000000"> freq</text>
</g>
<!-- Node6 -->
<g id="node6" class="node">
<title>Node6</title>
<g id="a_node6"><a xlink:title=" ">
<polygon fill="#ffffff" stroke="#bfbfbf" points="9,-34.5 9,-53.5 59,-53.5 59,-34.5 9,-34.5"/>
<text text-anchor="middle" x="34" y="-41.5" font-family="Helvetica,sans-Serif" font-size="10.00" fill="#000000">SysctlT</text>
</a>
</g>
</g>
<!-- Node6&#45;&gt;Node5 -->
<g id="edge5" class="edge">
<title>Node6&#45;&gt;Node5</title>
<path fill="none" stroke="#9a32cd" stroke-dasharray="5,2" d="M69.1122,-48.2051C89.5634,-50.6543 115.9278,-53.8117 139.7026,-56.659"/>
<polygon fill="#9a32cd" stroke="#9a32cd" points="69.3469,-44.7082 59.0016,-46.9942 68.5144,-51.6586 69.3469,-44.7082"/>
<text text-anchor="middle" x="101" y="-57" font-family="Helvetica,sans-Serif" font-size="10.00" fill="#000000"> sysctl</text>
</g>
<!-- Node14 -->
<g id="node14" class="node">
<title>Node14</title>
<g id="a_node14"><a xlink:href="classsys_1_1ctl_1_1Sync.html" target="_top" xlink:title=" ">
<polygon fill="#ffffff" stroke="#000000" points="286,-19.5 286,-38.5 433,-38.5 433,-19.5 286,-19.5"/>
<text text-anchor="middle" x="359.5" y="-26.5" font-family="Helvetica,sans-Serif" font-size="10.00" fill="#000000">sys::ctl::Sync&lt; decikelvin_t &gt;</text>
</a>
</g>
</g>
<!-- Node6&#45;&gt;Node14 -->
<g id="edge18" class="edge">
<title>Node6&#45;&gt;Node14</title>
<path fill="none" stroke="#9a32cd" stroke-dasharray="5,2" d="M68.9949,-37.9946C74.665,-37.2009 80.4845,-36.4928 86,-36 153.5346,-29.9654 230.7935,-28.4842 285.9329,-28.3547"/>
<polygon fill="#9a32cd" stroke="#9a32cd" points="68.4175,-34.542 59.0479,-39.4878 69.4567,-41.4644 68.4175,-34.542"/>
<text text-anchor="middle" x="101" y="-39" font-family="Helvetica,sans-Serif" font-size="10.00" fill="#000000"> sysctl</text>
</g>
<!-- Node7&#45;&gt;Node2 -->
<g id="edge6" class="edge">
<title>Node7&#45;&gt;Node2</title>
<path fill="none" stroke="#9a32cd" stroke-dasharray="5,2" d="M275.7102,-297.4933C323.0324,-297.9364 384.2696,-292.7406 433,-269 468.1722,-251.8647 496.6932,-214.2015 510.6683,-193.095"/>
<polygon fill="#9a32cd" stroke="#9a32cd" points="275.5901,-293.9907 265.5286,-297.3098 275.4638,-300.9895 275.5901,-293.9907"/>
<text text-anchor="middle" x="359.5" y="-300" font-family="Helvetica,sans-Serif" font-size="10.00" fill="#000000"> loads</text>
</g>
<!-- Node8&#45;&gt;Node2 -->
<g id="edge8" class="edge">
<title>Node8&#45;&gt;Node2</title>
<path fill="none" stroke="#9a32cd" stroke-dasharray="5,2" d="M265.114,-255.7182C312.6315,-255.1441 378.3494,-250.4156 433,-232 458.6065,-223.3714 484.4762,-205.9521 501.2692,-193.2231"/>
<polygon fill="#9a32cd" stroke="#9a32cd" points="264.9378,-252.2192 254.9597,-255.7813 264.9813,-259.219 264.9378,-252.2192"/>
<text text-anchor="middle" x="359.5" y="-257" font-family="Helvetica,sans-Serif" font-size="10.00" fill="#000000"> max</text>
</g>
<!-- Node9 -->
<g id="node9" class="node">
<title>Node9</title>
<g id="a_node9"><a xlink:href="classutility_1_1Min.html" target="_top" xlink:title=" ">
<polygon fill="#ffffff" stroke="#000000" points="135.5,-92.5 135.5,-111.5 266.5,-111.5 266.5,-92.5 135.5,-92.5"/>
<text text-anchor="middle" x="201" y="-99.5" font-family="Helvetica,sans-Serif" font-size="10.00" fill="#000000">utility::Min&lt; decikelvin_t &gt;</text>
</a>
</g>
</g>
<!-- Node9&#45;&gt;Node2 -->
<g id="edge10" class="edge">
<title>Node9&#45;&gt;Node2</title>
<path fill="none" stroke="#9a32cd" stroke-dasharray="5,2" d="M276.7734,-98.8625C323.064,-99.2077 382.8091,-103.7602 433,-121 459.6415,-130.1509 486.1201,-149.3154 502.7413,-162.8914"/>
<polygon fill="#9a32cd" stroke="#9a32cd" points="276.5147,-95.3624 266.5113,-98.8527 276.5079,-102.3624 276.5147,-95.3624"/>
<text text-anchor="middle" x="359.5" y="-135" font-family="Helvetica,sans-Serif" font-size="10.00" fill="#000000"> temp_crit</text>
<text text-anchor="middle" x="359.5" y="-124" font-family="Helvetica,sans-Serif" font-size="10.00" fill="#000000">temp_high</text>
</g>
<!-- Node10 -->
<g id="node10" class="node">
<title>Node10</title>
<g id="a_node10"><a xlink:title=" ">
<polygon fill="#ffffff" stroke="#bfbfbf" points="0,-125.5 0,-144.5 68,-144.5 68,-125.5 0,-125.5"/>
<text text-anchor="middle" x="34" y="-132.5" font-family="Helvetica,sans-Serif" font-size="10.00" fill="#000000">decikelvin_t</text>
</a>
</g>
</g>
<!-- Node10&#45;&gt;Node9 -->
<g id="edge11" class="edge">
<title>Node10&#45;&gt;Node9</title>
<path fill="none" stroke="#9a32cd" stroke-dasharray="5,2" d="M77.9614,-125.6377C80.6804,-125.0781 83.3767,-124.5283 86,-124 106.9236,-119.786 130.0295,-115.3277 150.0077,-111.5345"/>
<polygon fill="#9a32cd" stroke="#9a32cd" points="77.1839,-122.2245 68.1054,-127.6864 78.6084,-129.078 77.1839,-122.2245"/>
<text text-anchor="middle" x="101" y="-127" font-family="Helvetica,sans-Serif" font-size="10.00" fill="#000000"> value</text>
</g>
<!-- Node12 -->
<g id="node12" class="node">
<title>Node12</title>
<g id="a_node12"><a xlink:href="classutility_1_1Max.html" target="_top" xlink:title=" ">
<polygon fill="#ffffff" stroke="#000000" points="134,-168.5 134,-187.5 268,-187.5 268,-168.5 134,-168.5"/>
<text text-anchor="middle" x="201" y="-175.5" font-family="Helvetica,sans-Serif" font-size="10.00" fill="#000000">utility::Max&lt; decikelvin_t &gt;</text>
</a>
</g>
</g>
<!-- Node10&#45;&gt;Node12 -->
<g id="edge15" class="edge">
<title>Node10&#45;&gt;Node12</title>
<path fill="none" stroke="#9a32cd" stroke-dasharray="5,2" d="M78.0747,-146.3486C104.8239,-153.2361 138.5794,-161.9276 163.947,-168.4594"/>
<polygon fill="#9a32cd" stroke="#9a32cd" points="78.7548,-142.9096 68.1979,-143.8055 77.0093,-149.6885 78.7548,-142.9096"/>
<text text-anchor="middle" x="101" y="-158" font-family="Helvetica,sans-Serif" font-size="10.00" fill="#000000"> value</text>
</g>
<!-- Node11&#45;&gt;Node2 -->
<g id="edge12" class="edge">
<title>Node11&#45;&gt;Node2</title>
<path fill="none" stroke="#9a32cd" stroke-dasharray="5,2" d="M266.3073,-209.13C312.8224,-204.1272 376.7982,-197.0241 433,-190 438.7492,-189.2815 444.7085,-188.5118 450.6889,-187.7221"/>
<polygon fill="#9a32cd" stroke="#9a32cd" points="265.9301,-205.6503 256.3602,-210.1964 266.6763,-212.6104 265.9301,-205.6503"/>
<text text-anchor="middle" x="359.5" y="-220" font-family="Helvetica,sans-Serif" font-size="10.00" fill="#000000"> load</text>
<text text-anchor="middle" x="359.5" y="-209" font-family="Helvetica,sans-Serif" font-size="10.00" fill="#000000">min</text>
</g>
<!-- Node12&#45;&gt;Node2 -->
<g id="edge14" class="edge">
<title>Node12&#45;&gt;Node2</title>
<path fill="none" stroke="#9a32cd" stroke-dasharray="5,2" d="M278.5597,-178C331.1892,-178 400.159,-178 450.9026,-178"/>
<polygon fill="#9a32cd" stroke="#9a32cd" points="278.2619,-174.5001 268.2619,-178 278.2619,-181.5001 278.2619,-174.5001"/>
<text text-anchor="middle" x="359.5" y="-181" font-family="Helvetica,sans-Serif" font-size="10.00" fill="#000000"> temp</text>
</g>
<!-- Node13 -->
<g id="node13" class="node">
<title>Node13</title>
<g id="a_node13"><a xlink:title=" ">
<polygon fill="#ffffff" stroke="#bfbfbf" points="493,-.5 493,-19.5 547,-19.5 547,-.5 493,-.5"/>
<text text-anchor="middle" x="520" y="-7.5" font-family="Helvetica,sans-Serif" font-size="10.00" fill="#000000">cptime_t</text>
</a>
</g>
</g>
<!-- Node13&#45;&gt;Node1 -->
<g id="edge16" class="edge">
<title>Node13&#45;&gt;Node1</title>
<path fill="none" stroke="#9a32cd" stroke-dasharray="5,2" d="M557.2037,-5.328C581.7386,-3.4498 614.3325,-3.27 642,-11 664.4408,-17.2697 686.9803,-31.6751 702.2069,-42.8971"/>
<polygon fill="#9a32cd" stroke="#9a32cd" points="556.8694,-1.8438 547.22,-6.2188 557.4916,-8.8161 556.8694,-1.8438"/>
<text text-anchor="middle" x="624.5" y="-36" font-family="Helvetica,sans-Serif" font-size="10.00" fill="#000000"> idle</text>
<text text-anchor="middle" x="624.5" y="-25" font-family="Helvetica,sans-Serif" font-size="10.00" fill="#000000">all</text>
<text text-anchor="middle" x="624.5" y="-14" font-family="Helvetica,sans-Serif" font-size="10.00" fill="#000000">cp_time</text>
</g>
<!-- Node14&#45;&gt;Node1 -->
<g id="edge17" class="edge">
<title>Node14&#45;&gt;Node1</title>
<path fill="none" stroke="#9a32cd" stroke-dasharray="5,2" d="M443.0842,-35.7052C509.296,-41.0168 600.2606,-48.3141 659.8175,-53.0919"/>
<polygon fill="#9a32cd" stroke="#9a32cd" points="443.3385,-32.2145 433.0906,-34.9035 442.7787,-39.1921 443.3385,-32.2145"/>
<text text-anchor="middle" x="520" y="-51" font-family="Helvetica,sans-Serif" font-size="10.00" fill="#000000"> temp</text>
</g>
</g>
</svg>
