<?xml version="1.0" encoding="UTF-8" standalone="no"?>
<!DOCTYPE svg PUBLIC "-//W3C//DTD SVG 1.1//EN"
 "http://www.w3.org/Graphics/SVG/1.1/DTD/svg11.dtd">
<!-- Generated by graphviz version 2.40.1 (20161225.0304)
 -->
<!-- Title: sys::io::contains&lt; set&lt; Set ... &gt;, Value &gt; Pages: 1 -->
<svg width="126pt" height="106pt"
 viewBox="0.00 0.00 126.00 106.00" xmlns="http://www.w3.org/2000/svg" xmlns:xlink="http://www.w3.org/1999/xlink">
<g id="graph0" class="graph" transform="scale(1 1) rotate(0) translate(4 102)">
<title>sys::io::contains&lt; set&lt; Set ... &gt;, Value &gt;</title>
<polygon fill="#ffffff" stroke="transparent" points="-4,4 -4,-102 122,-102 122,4 -4,4"/>
<!-- Node0 -->
<g id="node1" class="node">
<title>Node0</title>
<g id="a_node1"><a xlink:title="Specialise io::contains to unpack io::set.">
<polygon fill="#bfbfbf" stroke="#000000" points="0,-.5 0,-30.5 118,-30.5 118,-.5 0,-.5"/>
<text text-anchor="start" x="8" y="-18.5" font-family="Helvetica,sans-Serif" font-size="10.00" fill="#000000">sys::io::contains&lt;</text>
<text text-anchor="middle" x="59" y="-7.5" font-family="Helvetica,sans-Serif" font-size="10.00" fill="#000000"> set&lt; Set ... &gt;, Value &gt;</text>
</a>
</g>
</g>
<!-- Node1 -->
<g id="node2" class="node">
<title>Node1</title>
<g id="a_node2"><a xlink:href="structsys_1_1io_1_1enable__if.html" target="_top" xlink:title=" ">
<polygon fill="#ffffff" stroke="#000000" points="6,-67.5 6,-97.5 112,-97.5 112,-67.5 6,-67.5"/>
<text text-anchor="start" x="14" y="-85.5" font-family="Helvetica,sans-Serif" font-size="10.00" fill="#000000">sys::io::enable_if</text>
<text text-anchor="middle" x="59" y="-74.5" font-family="Helvetica,sans-Serif" font-size="10.00" fill="#000000">&lt;((Set==Value)||...)&gt;</text>
</a>
</g>
</g>
<!-- Node1&#45;&gt;Node0 -->
<g id="edge1" class="edge">
<title>Node1&#45;&gt;Node0</title>
<path fill="none" stroke="#191970" d="M59,-57.0249C59,-48.128 59,-38.4287 59,-30.6432"/>
<polygon fill="#191970" stroke="#191970" points="55.5001,-57.2966 59,-67.2967 62.5001,-57.2967 55.5001,-57.2966"/>
</g>
</g>
</svg>
