<?xml version="1.0" encoding="UTF-8" standalone="no"?>
<!DOCTYPE svg PUBLIC "-//W3C//DTD SVG 1.1//EN"
 "http://www.w3.org/Graphics/SVG/1.1/DTD/svg11.dtd">
<!-- Generated by graphviz version 2.42.2 ()
 -->
<!-- Title: anonymous_namespace{libloadplay.cpp}::CoreFrameReport Pages: 1 -->
<svg width="151pt" height="206pt"
 viewBox="0.00 0.00 151.00 206.00" xmlns="http://www.w3.org/2000/svg" xmlns:xlink="http://www.w3.org/1999/xlink">
<g id="graph0" class="graph" transform="scale(1 1) rotate(0) translate(4 202)">
<title>anonymous_namespace{libloadplay.cpp}::CoreFrameReport</title>
<polygon fill="white" stroke="transparent" points="-4,4 -4,-202 147,-202 147,4 -4,4"/>
<!-- Node1 -->
<g id="node1" class="node">
<title>Node1</title>
<g id="a_node1"><a xlink:title="The report frame information for a single CPU pipeline.">
<polygon fill="#bfbfbf" stroke="black" points="0.5,-0.5 0.5,-41.5 142.5,-41.5 142.5,-0.5 0.5,-0.5"/>
<text text-anchor="start" x="8.5" y="-29.5" font-family="Helvetica,sans-Serif" font-size="10.00">anonymous_namespace</text>
<text text-anchor="start" x="8.5" y="-18.5" font-family="Helvetica,sans-Serif" font-size="10.00">{libloadplay.cpp}::CoreFrame</text>
<text text-anchor="middle" x="71.5" y="-7.5" font-family="Helvetica,sans-Serif" font-size="10.00">Report</text>
</a>
</g>
</g>
<!-- Node2 -->
<g id="node2" class="node">
<title>Node2</title>
<g id="a_node2"><a xlink:href="namespaceanonymous__namespace_02libloadplay_8cpp_03.html#structanonymous__namespace_02libloadplay_8cpp_03_1_1CoreReport" target="_top" xlink:title="The reported state of a single CPU pipeline.">
<polygon fill="white" stroke="black" points="0,-100.5 0,-130.5 143,-130.5 143,-100.5 0,-100.5"/>
<text text-anchor="start" x="8" y="-118.5" font-family="Helvetica,sans-Serif" font-size="10.00">anonymous_namespace</text>
<text text-anchor="middle" x="71.5" y="-107.5" font-family="Helvetica,sans-Serif" font-size="10.00">{libloadplay.cpp}::CoreReport</text>
</a>
</g>
</g>
<!-- Node2&#45;&gt;Node1 -->
<g id="edge1" class="edge">
<title>Node2&#45;&gt;Node1</title>
<path fill="none" stroke="#9a32cd" stroke-dasharray="5,2" d="M71.5,-90.28C71.5,-75.14 71.5,-55.88 71.5,-41.68"/>
<polygon fill="#9a32cd" stroke="#9a32cd" points="68,-90.45 71.5,-100.45 75,-90.45 68,-90.45"/>
<text text-anchor="middle" x="80" y="-74" font-family="Helvetica,sans-Serif" font-size="10.00"> run</text>
<text text-anchor="middle" x="80" y="-63" font-family="Helvetica,sans-Serif" font-size="10.00">rec</text>
</g>
<!-- Node3 -->
<g id="node3" class="node">
<title>Node3</title>
<g id="a_node3"><a xlink:title=" ">
<polygon fill="white" stroke="#bfbfbf" points="49.5,-178.5 49.5,-197.5 93.5,-197.5 93.5,-178.5 49.5,-178.5"/>
<text text-anchor="middle" x="71.5" y="-185.5" font-family="Helvetica,sans-Serif" font-size="10.00">mhz_t</text>
</a>
</g>
</g>
<!-- Node3&#45;&gt;Node2 -->
<g id="edge2" class="edge">
<title>Node3&#45;&gt;Node2</title>
<path fill="none" stroke="#9a32cd" stroke-dasharray="5,2" d="M71.5,-168.24C71.5,-156.41 71.5,-141.38 71.5,-130.58"/>
<polygon fill="#9a32cd" stroke="#9a32cd" points="68,-168.36 71.5,-178.36 75,-168.36 68,-168.36"/>
<text text-anchor="middle" x="81.5" y="-152" font-family="Helvetica,sans-Serif" font-size="10.00"> freq</text>
</g>
</g>
</svg>
