<?xml version="1.0" encoding="UTF-8" standalone="no"?>
<!DOCTYPE svg PUBLIC "-//W3C//DTD SVG 1.1//EN"
 "http://www.w3.org/Graphics/SVG/1.1/DTD/svg11.dtd">
<!-- Generated by graphviz version 2.40.1 (20161225.0304)
 -->
<!-- Title: anonymous_namespace{libloadplay.cpp}::Emulator::Core Pages: 1 -->
<svg width="825pt" height="116pt"
 viewBox="0.00 0.00 825.00 116.00" xmlns="http://www.w3.org/2000/svg" xmlns:xlink="http://www.w3.org/1999/xlink">
<g id="graph0" class="graph" transform="scale(1 1) rotate(0) translate(4 112)">
<title>anonymous_namespace{libloadplay.cpp}::Emulator::Core</title>
<polygon fill="#ffffff" stroke="transparent" points="-4,4 -4,-112 821,-112 821,4 -4,4"/>
<!-- Node13 -->
<g id="node1" class="node">
<title>Node13</title>
<g id="a_node1"><a xlink:title="Per core information.">
<polygon fill="#bfbfbf" stroke="#000000" points="658,-40 658,-70 817,-70 817,-40 658,-40"/>
<text text-anchor="start" x="666" y="-58" font-family="Helvetica,sans-Serif" font-size="10.00" fill="#000000">anonymous_namespace</text>
<text text-anchor="middle" x="737.5" y="-47" font-family="Helvetica,sans-Serif" font-size="10.00" fill="#000000">{libloadplay.cpp}::Emulator::Core</text>
</a>
</g>
</g>
<!-- Node14 -->
<g id="node2" class="node">
<title>Node14</title>
<g id="a_node2"><a xlink:title=" ">
<polygon fill="#ffffff" stroke="#bfbfbf" points="450,-88.5 450,-107.5 494,-107.5 494,-88.5 450,-88.5"/>
<text text-anchor="middle" x="472" y="-95.5" font-family="Helvetica,sans-Serif" font-size="10.00" fill="#000000">mhz_t</text>
</a>
</g>
</g>
<!-- Node14&#45;&gt;Node13 -->
<g id="edge1" class="edge">
<title>Node14&#45;&gt;Node13</title>
<path fill="none" stroke="#9a32cd" stroke-dasharray="5,2" d="M504.1364,-92.7952C542.0416,-86.6562 606.4154,-76.2303 657.9621,-67.8818"/>
<polygon fill="#9a32cd" stroke="#9a32cd" points="503.4915,-89.354 494.1797,-94.4078 504.6107,-96.2639 503.4915,-89.354"/>
<text text-anchor="middle" x="601.5" y="-96" font-family="Helvetica,sans-Serif" font-size="10.00" fill="#000000"> runFreq</text>
<text text-anchor="middle" x="601.5" y="-85" font-family="Helvetica,sans-Serif" font-size="10.00" fill="#000000">recFreq</text>
</g>
<!-- Node15 -->
<g id="node3" class="node">
<title>Node15</title>
<g id="a_node3"><a xlink:href="classanonymous__namespace_02libloadplay_8cpp_03_1_1SysctlValue.html" target="_top" xlink:title="Instances of this class represents a specific sysctl value.">
<polygon fill="#ffffff" stroke="#000000" points="399,-39 399,-69 545,-69 545,-39 399,-39"/>
<text text-anchor="start" x="407" y="-57" font-family="Helvetica,sans-Serif" font-size="10.00" fill="#000000">anonymous_namespace</text>
<text text-anchor="middle" x="472" y="-46" font-family="Helvetica,sans-Serif" font-size="10.00" fill="#000000">{libloadplay.cpp}::SysctlValue</text>
</a>
</g>
</g>
<!-- Node15&#45;&gt;Node13 -->
<g id="edge2" class="edge">
<title>Node15&#45;&gt;Node13</title>
<path fill="none" stroke="#9a32cd" stroke-dasharray="5,2" d="M555.2669,-54.3136C588.0589,-54.4371 625.5521,-54.5784 657.9705,-54.7005"/>
<polygon fill="#9a32cd" stroke="#9a32cd" points="555.265,-50.8137 545.2519,-54.2759 555.2386,-57.8136 555.265,-50.8137"/>
<text text-anchor="middle" x="601.5" y="-57" font-family="Helvetica,sans-Serif" font-size="10.00" fill="#000000"> freqCtl</text>
</g>
<!-- Node16 -->
<g id="node4" class="node">
<title>Node16</title>
<g id="a_node4"><a xlink:href="classanonymous__namespace_02libloadplay_8cpp_03_1_1Callback.html" target="_top" xlink:title=" ">
<polygon fill="#ffffff" stroke="#000000" points="132,-50 132,-102 334,-102 334,-50 132,-50"/>
<text text-anchor="start" x="140" y="-90" font-family="Helvetica,sans-Serif" font-size="10.00" fill="#000000">anonymous_namespace</text>
<text text-anchor="start" x="140" y="-79" font-family="Helvetica,sans-Serif" font-size="10.00" fill="#000000">{libloadplay.cpp}::Callback</text>
<text text-anchor="start" x="140" y="-68" font-family="Helvetica,sans-Serif" font-size="10.00" fill="#000000">&lt; anonymous_namespace{libloadplay.cpp}</text>
<text text-anchor="middle" x="233" y="-57" font-family="Helvetica,sans-Serif" font-size="10.00" fill="#000000">::SysctlValue &amp; &gt;</text>
</a>
</g>
</g>
<!-- Node16&#45;&gt;Node15 -->
<g id="edge3" class="edge">
<title>Node16&#45;&gt;Node15</title>
<path fill="none" stroke="#9a32cd" stroke-dasharray="5,2" d="M344.0156,-65.781C362.6402,-64.0666 381.541,-62.3268 398.8962,-60.7292"/>
<polygon fill="#9a32cd" stroke="#9a32cd" points="343.6482,-62.2999 334.0111,-66.7019 344.2899,-69.2705 343.6482,-62.2999"/>
<text text-anchor="middle" x="366.5" y="-68" font-family="Helvetica,sans-Serif" font-size="10.00" fill="#000000"> onSet</text>
</g>
<!-- Node17 -->
<g id="node5" class="node">
<title>Node17</title>
<g id="a_node5"><a xlink:title="STL class.">
<polygon fill="#ffffff" stroke="#bfbfbf" points="203,-11.5 203,-30.5 263,-30.5 263,-11.5 203,-11.5"/>
<text text-anchor="middle" x="233" y="-18.5" font-family="Helvetica,sans-Serif" font-size="10.00" fill="#000000">std::string</text>
</a>
</g>
</g>
<!-- Node17&#45;&gt;Node15 -->
<g id="edge4" class="edge">
<title>Node17&#45;&gt;Node15</title>
<path fill="none" stroke="#9a32cd" stroke-dasharray="5,2" d="M273.3682,-26.5738C307.6261,-31.304 357.6448,-38.2104 398.9172,-43.9091"/>
<polygon fill="#9a32cd" stroke="#9a32cd" points="273.6543,-23.0802 263.2695,-25.1795 272.6968,-30.0144 273.6543,-23.0802"/>
<text text-anchor="middle" x="366.5" y="-44" font-family="Helvetica,sans-Serif" font-size="10.00" fill="#000000"> value</text>
</g>
<!-- Node18 -->
<g id="node6" class="node">
<title>Node18</title>
<g id="a_node6"><a xlink:title="STL class.">
<polygon fill="#ffffff" stroke="#bfbfbf" points="0,-6 0,-36 95,-36 95,-6 0,-6"/>
<text text-anchor="start" x="8" y="-24" font-family="Helvetica,sans-Serif" font-size="10.00" fill="#000000">std::basic_string&lt;</text>
<text text-anchor="middle" x="47.5" y="-13" font-family="Helvetica,sans-Serif" font-size="10.00" fill="#000000"> char &gt;</text>
</a>
</g>
</g>
<!-- Node18&#45;&gt;Node17 -->
<g id="edge5" class="edge">
<title>Node18&#45;&gt;Node17</title>
<path fill="none" stroke="#191970" d="M105.4878,-21C137.74,-21 176.549,-21 202.8157,-21"/>
<polygon fill="#191970" stroke="#191970" points="105.2709,-17.5001 95.2709,-21 105.2708,-24.5001 105.2709,-17.5001"/>
</g>
<!-- Node19 -->
<g id="node7" class="node">
<title>Node19</title>
<g id="a_node7"><a xlink:title=" ">
<polygon fill="#ffffff" stroke="#bfbfbf" points="445,-.5 445,-19.5 499,-19.5 499,-.5 445,-.5"/>
<text text-anchor="middle" x="472" y="-7.5" font-family="Helvetica,sans-Serif" font-size="10.00" fill="#000000">cptime_t</text>
</a>
</g>
</g>
<!-- Node19&#45;&gt;Node13 -->
<g id="edge6" class="edge">
<title>Node19&#45;&gt;Node13</title>
<path fill="none" stroke="#9a32cd" stroke-dasharray="5,2" d="M509.2817,-12.2404C543.4972,-14.7106 595.4774,-19.5092 640,-28 656.218,-31.0929 673.6715,-35.5548 689.2666,-39.9633"/>
<polygon fill="#9a32cd" stroke="#9a32cd" points="509.4791,-8.7458 499.2613,-11.547 508.9958,-15.7291 509.4791,-8.7458"/>
<text text-anchor="middle" x="601.5" y="-42" font-family="Helvetica,sans-Serif" font-size="10.00" fill="#000000"> carryLoadCycles</text>
<text text-anchor="middle" x="601.5" y="-31" font-family="Helvetica,sans-Serif" font-size="10.00" fill="#000000">runLoadCycles</text>
</g>
</g>
</svg>
