<?xml version="1.0" encoding="UTF-8" standalone="no"?>
<!DOCTYPE svg PUBLIC "-//W3C//DTD SVG 1.1//EN"
 "http://www.w3.org/Graphics/SVG/1.1/DTD/svg11.dtd">
<!-- Generated by graphviz version 2.42.2 ()
 -->
<!-- Title: anonymous_namespace{powerd++.cpp}::Core Pages: 1 -->
<svg width="686pt" height="263pt"
 viewBox="0.00 0.00 686.00 263.00" xmlns="http://www.w3.org/2000/svg" xmlns:xlink="http://www.w3.org/1999/xlink">
<g id="graph0" class="graph" transform="scale(1 1) rotate(0) translate(4 259)">
<title>anonymous_namespace{powerd++.cpp}::Core</title>
<polygon fill="white" stroke="transparent" points="-4,4 -4,-259 682,-259 682,4 -4,4"/>
<!-- Node1 -->
<g id="node1" class="node">
<title>Node1</title>
<g id="a_node1"><a xlink:title="Contains the management information for a single CPU core.">
<polygon fill="#bfbfbf" stroke="black" points="556,-83 556,-113 678,-113 678,-83 556,-83"/>
<text text-anchor="start" x="564" y="-101" font-family="Helvetica,sans-Serif" font-size="10.00">anonymous_namespace</text>
<text text-anchor="middle" x="617" y="-90" font-family="Helvetica,sans-Serif" font-size="10.00">{powerd++.cpp}::Core</text>
</a>
</g>
</g>
<!-- Node2 -->
<g id="node2" class="node">
<title>Node2</title>
<g id="a_node2"><a xlink:href="namespaceanonymous__namespace_02powerd_09_09_8cpp_03.html#structanonymous__namespace_02powerd_09_09_8cpp_03_1_1CoreGroup" target="_top" xlink:title="Contains the management information for a group of cores with a common clock frequency.">
<polygon fill="white" stroke="black" points="347,-111 347,-141 485,-141 485,-111 347,-111"/>
<text text-anchor="start" x="355" y="-129" font-family="Helvetica,sans-Serif" font-size="10.00">anonymous_namespace</text>
<text text-anchor="middle" x="416" y="-118" font-family="Helvetica,sans-Serif" font-size="10.00">{powerd++.cpp}::CoreGroup</text>
</a>
</g>
</g>
<!-- Node2&#45;&gt;Node1 -->
<g id="edge1" class="edge">
<title>Node2&#45;&gt;Node1</title>
<path fill="none" stroke="#9a32cd" stroke-dasharray="5,2" d="M495.3,-114.98C515.44,-112.15 536.81,-109.14 555.87,-106.46"/>
<polygon fill="#9a32cd" stroke="#9a32cd" points="494.62,-111.54 485.21,-116.4 495.6,-118.48 494.62,-111.54"/>
<text text-anchor="middle" x="520.5" y="-116" font-family="Helvetica,sans-Serif" font-size="10.00"> group</text>
</g>
<!-- Node3 -->
<g id="node3" class="node">
<title>Node3</title>
<g id="a_node3"><a xlink:title=" ">
<polygon fill="white" stroke="#bfbfbf" points="12,-176.5 12,-195.5 56,-195.5 56,-176.5 12,-176.5"/>
<text text-anchor="middle" x="34" y="-183.5" font-family="Helvetica,sans-Serif" font-size="10.00">mhz_t</text>
</a>
</g>
</g>
<!-- Node3&#45;&gt;Node2 -->
<g id="edge2" class="edge">
<title>Node3&#45;&gt;Node2</title>
<path fill="none" stroke="#9a32cd" stroke-dasharray="5,2" d="M64.35,-199.85C71.38,-203 78.91,-206.23 86,-209 160.35,-238.07 186.45,-238.24 265,-224 294.89,-218.58 302.86,-215.48 329,-200 356.96,-183.44 384.61,-157.49 400.73,-141.13"/>
<polygon fill="#9a32cd" stroke="#9a32cd" points="65.7,-196.62 55.15,-195.66 62.8,-202.99 65.7,-196.62"/>
<text text-anchor="middle" x="198" y="-247" font-family="Helvetica,sans-Serif" font-size="10.00"> loadsum</text>
<text text-anchor="middle" x="198" y="-236" font-family="Helvetica,sans-Serif" font-size="10.00">sample_freq</text>
</g>
<!-- Node5 -->
<g id="node5" class="node">
<title>Node5</title>
<g id="a_node5"><a xlink:title=" ">
<polygon fill="white" stroke="#bfbfbf" points="133.5,-195.5 133.5,-214.5 262.5,-214.5 262.5,-195.5 133.5,-195.5"/>
<text text-anchor="middle" x="198" y="-202.5" font-family="Helvetica,sans-Serif" font-size="10.00">std::unique_ptr&lt; mhz_t[]&gt;</text>
</a>
</g>
</g>
<!-- Node3&#45;&gt;Node5 -->
<g id="edge5" class="edge">
<title>Node3&#45;&gt;Node5</title>
<path fill="none" stroke="#9a32cd" stroke-dasharray="5,2" d="M66.38,-189.68C85.43,-191.92 110.45,-194.85 133.49,-197.55"/>
<polygon fill="#9a32cd" stroke="#9a32cd" points="66.52,-186.17 56.18,-188.48 65.7,-193.13 66.52,-186.17"/>
<text text-anchor="middle" x="99.5" y="-197" font-family="Helvetica,sans-Serif" font-size="10.00"> ptr</text>
</g>
<!-- Node6 -->
<g id="node6" class="node">
<title>Node6</title>
<g id="a_node6"><a xlink:href="classutility_1_1Min.html" target="_top" xlink:title=" ">
<polygon fill="white" stroke="black" points="144.5,-157.5 144.5,-176.5 251.5,-176.5 251.5,-157.5 144.5,-157.5"/>
<text text-anchor="middle" x="198" y="-164.5" font-family="Helvetica,sans-Serif" font-size="10.00">utility::Min&lt; mhz_t &gt;</text>
</a>
</g>
</g>
<!-- Node3&#45;&gt;Node6 -->
<g id="edge7" class="edge">
<title>Node3&#45;&gt;Node6</title>
<path fill="none" stroke="#9a32cd" stroke-dasharray="5,2" d="M66.17,-180.07C72.71,-178.94 79.57,-177.86 86,-177 104.99,-174.47 125.89,-172.41 144.39,-170.82"/>
<polygon fill="#9a32cd" stroke="#9a32cd" points="65.51,-176.63 56.28,-181.83 66.74,-183.52 65.51,-176.63"/>
<text text-anchor="middle" x="99.5" y="-180" font-family="Helvetica,sans-Serif" font-size="10.00"> value</text>
</g>
<!-- Node9 -->
<g id="node9" class="node">
<title>Node9</title>
<g id="a_node9"><a xlink:href="classutility_1_1Max.html" target="_top" xlink:title=" ">
<polygon fill="white" stroke="black" points="143,-119.5 143,-138.5 253,-138.5 253,-119.5 143,-119.5"/>
<text text-anchor="middle" x="198" y="-126.5" font-family="Helvetica,sans-Serif" font-size="10.00">utility::Max&lt; mhz_t &gt;</text>
</a>
</g>
</g>
<!-- Node3&#45;&gt;Node9 -->
<g id="edge11" class="edge">
<title>Node3&#45;&gt;Node9</title>
<path fill="none" stroke="#9a32cd" stroke-dasharray="5,2" d="M60.04,-171.32C68.15,-166.96 77.29,-162.43 86,-159 107.45,-150.55 132.14,-143.61 152.78,-138.55"/>
<polygon fill="#9a32cd" stroke="#9a32cd" points="58.14,-168.37 51.1,-176.29 61.54,-174.49 58.14,-168.37"/>
<text text-anchor="middle" x="99.5" y="-162" font-family="Helvetica,sans-Serif" font-size="10.00"> value</text>
</g>
<!-- Node4 -->
<g id="node4" class="node">
<title>Node4</title>
<g id="a_node4"><a xlink:title=" ">
<polygon fill="white" stroke="#bfbfbf" points="172.5,-81.5 172.5,-100.5 223.5,-100.5 223.5,-81.5 172.5,-81.5"/>
<text text-anchor="middle" x="198" y="-88.5" font-family="Helvetica,sans-Serif" font-size="10.00">coreid_t</text>
</a>
</g>
</g>
<!-- Node4&#45;&gt;Node2 -->
<g id="edge3" class="edge">
<title>Node4&#45;&gt;Node2</title>
<path fill="none" stroke="#9a32cd" stroke-dasharray="5,2" d="M234.13,-96.21C260.31,-100.14 296.92,-105.73 329,-111 334.83,-111.96 340.88,-112.97 346.95,-114"/>
<polygon fill="#9a32cd" stroke="#9a32cd" points="234.35,-92.7 223.95,-94.69 233.32,-99.63 234.35,-92.7"/>
<text text-anchor="middle" x="306" y="-114" font-family="Helvetica,sans-Serif" font-size="10.00"> corei</text>
</g>
<!-- Node5&#45;&gt;Node2 -->
<g id="edge4" class="edge">
<title>Node5&#45;&gt;Node2</title>
<path fill="none" stroke="#9a32cd" stroke-dasharray="5,2" d="M255.82,-193.09C278.9,-187.5 305.59,-180.05 329,-171 350.22,-162.8 372.97,-150.73 389.74,-141.16"/>
<polygon fill="#9a32cd" stroke="#9a32cd" points="254.76,-189.75 245.83,-195.45 256.37,-196.56 254.76,-189.75"/>
<text text-anchor="middle" x="306" y="-188" font-family="Helvetica,sans-Serif" font-size="10.00"> loads</text>
</g>
<!-- Node6&#45;&gt;Node2 -->
<g id="edge6" class="edge">
<title>Node6&#45;&gt;Node2</title>
<path fill="none" stroke="#9a32cd" stroke-dasharray="5,2" d="M261.72,-159.91C283.15,-157.07 307.21,-153.4 329,-149 340.06,-146.76 351.8,-143.93 362.94,-141.03"/>
<polygon fill="#9a32cd" stroke="#9a32cd" points="261.22,-156.45 251.75,-161.2 262.12,-163.39 261.22,-156.45"/>
<text text-anchor="middle" x="306" y="-159" font-family="Helvetica,sans-Serif" font-size="10.00"> max</text>
</g>
<!-- Node7 -->
<g id="node7" class="node">
<title>Node7</title>
<g id="a_node7"><a xlink:href="classutility_1_1Min.html" target="_top" xlink:title=" ">
<polygon fill="white" stroke="black" points="132.5,-38.5 132.5,-57.5 263.5,-57.5 263.5,-38.5 132.5,-38.5"/>
<text text-anchor="middle" x="198" y="-45.5" font-family="Helvetica,sans-Serif" font-size="10.00">utility::Min&lt; decikelvin_t &gt;</text>
</a>
</g>
</g>
<!-- Node7&#45;&gt;Node2 -->
<g id="edge8" class="edge">
<title>Node7&#45;&gt;Node2</title>
<path fill="none" stroke="#9a32cd" stroke-dasharray="5,2" d="M268.44,-59.7C288.4,-64.21 309.92,-70.21 329,-78 337.68,-81.54 338.88,-84.31 347,-89 359.8,-96.39 374.16,-104.26 386.37,-110.83"/>
<polygon fill="#9a32cd" stroke="#9a32cd" points="269,-56.24 258.48,-57.54 267.51,-63.08 269,-56.24"/>
<text text-anchor="middle" x="306" y="-92" font-family="Helvetica,sans-Serif" font-size="10.00"> temp_crit</text>
<text text-anchor="middle" x="306" y="-81" font-family="Helvetica,sans-Serif" font-size="10.00">temp_high</text>
</g>
<!-- Node8 -->
<g id="node8" class="node">
<title>Node8</title>
<g id="a_node8"><a xlink:title=" ">
<polygon fill="white" stroke="#bfbfbf" points="0,-19.5 0,-38.5 68,-38.5 68,-19.5 0,-19.5"/>
<text text-anchor="middle" x="34" y="-26.5" font-family="Helvetica,sans-Serif" font-size="10.00">decikelvin_t</text>
</a>
</g>
</g>
<!-- Node8&#45;&gt;Node7 -->
<g id="edge9" class="edge">
<title>Node8&#45;&gt;Node7</title>
<path fill="none" stroke="#9a32cd" stroke-dasharray="5,2" d="M78.15,-34.06C94.79,-36.01 114.18,-38.29 132.41,-40.43"/>
<polygon fill="#9a32cd" stroke="#9a32cd" points="78.51,-30.58 68.17,-32.89 77.7,-37.53 78.51,-30.58"/>
<text text-anchor="middle" x="99.5" y="-41" font-family="Helvetica,sans-Serif" font-size="10.00"> value</text>
</g>
<!-- Node10 -->
<g id="node10" class="node">
<title>Node10</title>
<g id="a_node10"><a xlink:href="classutility_1_1Max.html" target="_top" xlink:title=" ">
<polygon fill="white" stroke="black" points="131,-0.5 131,-19.5 265,-19.5 265,-0.5 131,-0.5"/>
<text text-anchor="middle" x="198" y="-7.5" font-family="Helvetica,sans-Serif" font-size="10.00">utility::Max&lt; decikelvin_t &gt;</text>
</a>
</g>
</g>
<!-- Node8&#45;&gt;Node10 -->
<g id="edge13" class="edge">
<title>Node8&#45;&gt;Node10</title>
<path fill="none" stroke="#9a32cd" stroke-dasharray="5,2" d="M78.26,-22.04C80.88,-21.67 83.47,-21.32 86,-21 100.5,-19.15 116.11,-17.43 130.9,-15.93"/>
<polygon fill="#9a32cd" stroke="#9a32cd" points="77.54,-18.61 68.16,-23.52 78.56,-25.53 77.54,-18.61"/>
<text text-anchor="middle" x="99.5" y="-24" font-family="Helvetica,sans-Serif" font-size="10.00"> value</text>
</g>
<!-- Node9&#45;&gt;Node2 -->
<g id="edge10" class="edge">
<title>Node9&#45;&gt;Node2</title>
<path fill="none" stroke="#9a32cd" stroke-dasharray="5,2" d="M263.52,-127.36C270.1,-127.22 276.68,-127.1 283,-127 303.74,-126.67 326.31,-126.45 346.83,-126.31"/>
<polygon fill="#9a32cd" stroke="#9a32cd" points="263.14,-123.86 253.22,-127.58 263.29,-130.86 263.14,-123.86"/>
<text text-anchor="middle" x="306" y="-141" font-family="Helvetica,sans-Serif" font-size="10.00"> load</text>
<text text-anchor="middle" x="306" y="-130" font-family="Helvetica,sans-Serif" font-size="10.00">min</text>
</g>
<!-- Node10&#45;&gt;Node2 -->
<g id="edge12" class="edge">
<title>Node10&#45;&gt;Node2</title>
<path fill="none" stroke="#9a32cd" stroke-dasharray="5,2" d="M242.36,-22.33C249.92,-24.52 257.69,-26.81 265,-29 293.54,-37.57 306.7,-29.23 329,-49 343.59,-61.93 333.74,-74.7 347,-89 355.32,-97.97 366.31,-105.24 377.03,-110.88"/>
<polygon fill="#9a32cd" stroke="#9a32cd" points="243.2,-18.93 232.62,-19.52 241.26,-25.66 243.2,-18.93"/>
<text text-anchor="middle" x="306" y="-52" font-family="Helvetica,sans-Serif" font-size="10.00"> temp</text>
</g>
<!-- Node11 -->
<g id="node11" class="node">
<title>Node11</title>
<g id="a_node11"><a xlink:title=" ">
<polygon fill="white" stroke="#bfbfbf" points="389,-60.5 389,-79.5 443,-79.5 443,-60.5 389,-60.5"/>
<text text-anchor="middle" x="416" y="-67.5" font-family="Helvetica,sans-Serif" font-size="10.00">cptime_t</text>
</a>
</g>
</g>
<!-- Node11&#45;&gt;Node1 -->
<g id="edge14" class="edge">
<title>Node11&#45;&gt;Node1</title>
<path fill="none" stroke="#9a32cd" stroke-dasharray="5,2" d="M453.33,-67.73C477.5,-66.93 509.86,-67.19 538,-72 551.51,-74.31 565.85,-78.54 578.51,-82.93"/>
<polygon fill="#9a32cd" stroke="#9a32cd" points="453.02,-64.24 443.18,-68.15 453.31,-71.24 453.02,-64.24"/>
<text text-anchor="middle" x="520.5" y="-97" font-family="Helvetica,sans-Serif" font-size="10.00"> idle</text>
<text text-anchor="middle" x="520.5" y="-86" font-family="Helvetica,sans-Serif" font-size="10.00">all</text>
<text text-anchor="middle" x="520.5" y="-75" font-family="Helvetica,sans-Serif" font-size="10.00">cp_time</text>
</g>
</g>
</svg>
