<?xml version="1.0" encoding="UTF-8" standalone="no"?>
<!DOCTYPE svg PUBLIC "-//W3C//DTD SVG 1.1//EN"
 "http://www.w3.org/Graphics/SVG/1.1/DTD/svg11.dtd">
<!-- Generated by graphviz version 2.42.2 ()
 -->
<!-- Title: sys::io::is_superset_of&lt; LSetT, set&lt; RSet ... &gt; &gt; Pages: 1 -->
<svg width="124pt" height="128pt"
 viewBox="0.00 0.00 124.00 128.00" xmlns="http://www.w3.org/2000/svg" xmlns:xlink="http://www.w3.org/1999/xlink">
<g id="graph0" class="graph" transform="scale(1 1) rotate(0) translate(4 124)">
<title>sys::io::is_superset_of&lt; LSetT, set&lt; RSet ... &gt; &gt;</title>
<polygon fill="white" stroke="transparent" points="-4,4 -4,-124 120,-124 120,4 -4,4"/>
<!-- Node1 -->
<g id="node1" class="node">
<title>Node1</title>
<g id="a_node1"><a xlink:title="Specialise is_superset_of to unpack the right hand io::set.">
<polygon fill="#bfbfbf" stroke="black" points="0,-0.5 0,-41.5 116,-41.5 116,-0.5 0,-0.5"/>
<text text-anchor="start" x="8" y="-29.5" font-family="Helvetica,sans-Serif" font-size="10.00">sys::io::is_superset</text>
<text text-anchor="start" x="8" y="-18.5" font-family="Helvetica,sans-Serif" font-size="10.00">_of&lt; LSetT, set&lt; RSet</text>
<text text-anchor="middle" x="58" y="-7.5" font-family="Helvetica,sans-Serif" font-size="10.00"> ... &gt; &gt;</text>
</a>
</g>
</g>
<!-- Node2 -->
<g id="node2" class="node">
<title>Node2</title>
<g id="a_node2"><a xlink:href="structsys_1_1io_1_1enable__if.html" target="_top" xlink:title=" ">
<polygon fill="white" stroke="black" points="2.5,-78.5 2.5,-119.5 113.5,-119.5 113.5,-78.5 2.5,-78.5"/>
<text text-anchor="start" x="10.5" y="-107.5" font-family="Helvetica,sans-Serif" font-size="10.00">sys::io::enable_if</text>
<text text-anchor="start" x="10.5" y="-96.5" font-family="Helvetica,sans-Serif" font-size="10.00">&lt;(contains_v&lt; LSetT,</text>
<text text-anchor="middle" x="58" y="-85.5" font-family="Helvetica,sans-Serif" font-size="10.00"> RSet &gt; &amp;&amp;...)&gt;</text>
</a>
</g>
</g>
<!-- Node2&#45;&gt;Node1 -->
<g id="edge1" class="edge">
<title>Node2&#45;&gt;Node1</title>
<path fill="none" stroke="midnightblue" d="M58,-68.3C58,-59.3 58,-49.65 58,-41.51"/>
<polygon fill="midnightblue" stroke="midnightblue" points="54.5,-68.43 58,-78.43 61.5,-68.43 54.5,-68.43"/>
</g>
</g>
</svg>
