<?xml version="1.0" encoding="UTF-8" standalone="no"?>
<!DOCTYPE svg PUBLIC "-//W3C//DTD SVG 1.1//EN"
 "http://www.w3.org/Graphics/SVG/1.1/DTD/svg11.dtd">
<!-- Generated by graphviz version 2.40.1 (20161225.0304)
 -->
<!-- Title: anonymous_namespace{powerd++.cpp}::Global::ACSet Pages: 1 -->
<svg width="145pt" height="139pt"
 viewBox="0.00 0.00 145.00 139.00" xmlns="http://www.w3.org/2000/svg" xmlns:xlink="http://www.w3.org/1999/xlink">
<g id="graph0" class="graph" transform="scale(1 1) rotate(0) translate(4 135)">
<title>anonymous_namespace{powerd++.cpp}::Global::ACSet</title>
<polygon fill="#ffffff" stroke="transparent" points="-4,4 -4,-135 141,-135 141,4 -4,4"/>
<!-- Node28 -->
<g id="node1" class="node">
<title>Node28</title>
<polygon fill="#bfbfbf" stroke="#000000" points="0,-.5 0,-41.5 122,-41.5 122,-.5 0,-.5"/>
<text text-anchor="start" x="8" y="-29.5" font-family="Helvetica,sans-Serif" font-size="10.00" fill="#000000">anonymous_namespace</text>
<text text-anchor="start" x="8" y="-18.5" font-family="Helvetica,sans-Serif" font-size="10.00" fill="#000000">{powerd++.cpp}::Global</text>
<text text-anchor="middle" x="61" y="-7.5" font-family="Helvetica,sans-Serif" font-size="10.00" fill="#000000">::ACSet</text>
</g>
<!-- Node29 -->
<g id="node2" class="node">
<title>Node29</title>
<polygon fill="#ffffff" stroke="#bfbfbf" points="4,-111.5 4,-130.5 48,-130.5 48,-111.5 4,-111.5"/>
<text text-anchor="middle" x="26" y="-118.5" font-family="Helvetica,sans-Serif" font-size="10.00" fill="#000000">mhz_t</text>
</g>
<!-- Node29&#45;&gt;Node28 -->
<g id="edge1" class="edge">
<title>Node29&#45;&gt;Node28</title>
<path fill="none" stroke="#9a32cd" stroke-dasharray="5,2" d="M22.9407,-101.0285C21.8786,-88.7868 21.9991,-73.0206 27,-60 29.5121,-53.4594 33.6497,-47.2839 38.1892,-41.8583"/>
<polygon fill="#9a32cd" stroke="#9a32cd" points="19.4823,-101.5854 24.1426,-111.1002 26.4329,-100.7559 19.4823,-101.5854"/>
<text text-anchor="middle" x="50.5" y="-85" font-family="Helvetica,sans-Serif" font-size="10.00" fill="#000000"> freq_max</text>
<text text-anchor="middle" x="50.5" y="-74" font-family="Helvetica,sans-Serif" font-size="10.00" fill="#000000">target_freq</text>
<text text-anchor="middle" x="50.5" y="-63" font-family="Helvetica,sans-Serif" font-size="10.00" fill="#000000">freq_min</text>
</g>
<!-- Node30 -->
<g id="node3" class="node">
<title>Node30</title>
<polygon fill="#ffffff" stroke="#bfbfbf" points="69,-111.5 69,-130.5 123,-130.5 123,-111.5 69,-111.5"/>
<text text-anchor="middle" x="96" y="-118.5" font-family="Helvetica,sans-Serif" font-size="10.00" fill="#000000">cptime_t</text>
</g>
<!-- Node30&#45;&gt;Node28 -->
<g id="edge2" class="edge">
<title>Node30&#45;&gt;Node28</title>
<path fill="none" stroke="#9a32cd" stroke-dasharray="5,2" d="M89.3091,-101.883C83.2937,-84.6962 74.4775,-59.5073 68.2859,-41.8169"/>
<polygon fill="#9a32cd" stroke="#9a32cd" points="86.037,-103.1292 92.6441,-111.4116 92.644,-100.8167 86.037,-103.1292"/>
<text text-anchor="middle" x="111" y="-74" font-family="Helvetica,sans-Serif" font-size="10.00" fill="#000000"> target_load</text>
</g>
</g>
</svg>
