<?xml version="1.0" encoding="UTF-8" standalone="no"?>
<!DOCTYPE svg PUBLIC "-//W3C//DTD SVG 1.1//EN"
 "http://www.w3.org/Graphics/SVG/1.1/DTD/svg11.dtd">
<!-- Generated by graphviz version 2.40.1 (20161225.0304)
 -->
<!-- Title: anonymous_namespace{powerd++.cpp}::Global Pages: 1 -->
<svg width="1011pt" height="411pt"
 viewBox="0.00 0.00 1011.00 411.00" xmlns="http://www.w3.org/2000/svg" xmlns:xlink="http://www.w3.org/1999/xlink">
<g id="graph0" class="graph" transform="scale(1 1) rotate(0) translate(4 407)">
<title>anonymous_namespace{powerd++.cpp}::Global</title>
<polygon fill="#ffffff" stroke="transparent" points="-4,4 -4,-407 1007,-407 1007,4 -4,4"/>
<!-- Node11 -->
<g id="node1" class="node">
<title>Node11</title>
<g id="a_node1"><a xlink:title="A collection of all the gloabl, mutable states.">
<polygon fill="#bfbfbf" stroke="#000000" points="881,-173 881,-203 1003,-203 1003,-173 881,-173"/>
<text text-anchor="start" x="889" y="-191" font-family="Helvetica,sans-Serif" font-size="10.00" fill="#000000">anonymous_namespace</text>
<text text-anchor="middle" x="942" y="-180" font-family="Helvetica,sans-Serif" font-size="10.00" fill="#000000">{powerd++.cpp}::Global</text>
</a>
</g>
</g>
<!-- Node12 -->
<g id="node2" class="node">
<title>Node12</title>
<g id="a_node2"><a xlink:title=" ">
<polygon fill="#ffffff" stroke="#bfbfbf" points="702.5,-378.5 702.5,-397.5 732.5,-397.5 732.5,-378.5 702.5,-378.5"/>
<text text-anchor="middle" x="717.5" y="-385.5" font-family="Helvetica,sans-Serif" font-size="10.00" fill="#000000">ms</text>
</a>
</g>
</g>
<!-- Node12&#45;&gt;Node11 -->
<g id="edge1" class="edge">
<title>Node12&#45;&gt;Node11</title>
<path fill="none" stroke="#9a32cd" stroke-dasharray="5,2" d="M743.0909,-390.4113C774.5928,-391.982 828.1825,-389.936 863,-363 915.9942,-322.0018 934.4721,-237.5013 939.9657,-203.0848"/>
<polygon fill="#9a32cd" stroke="#9a32cd" points="743.1456,-386.9073 732.9364,-389.7397 742.6836,-393.8921 743.1456,-386.9073"/>
<text text-anchor="middle" x="835" y="-389" font-family="Helvetica,sans-Serif" font-size="10.00" fill="#000000"> interval</text>
</g>
<!-- Node13 -->
<g id="node3" class="node">
<title>Node13</title>
<g id="a_node3"><a xlink:href="namespaceanonymous__namespace_02powerd_09_09_8cpp_03.html#structanonymous__namespace_02powerd_09_09_8cpp_03_1_1Global_1_1ACSet" target="_top" xlink:title="Per AC line state settings.">
<polygon fill="#ffffff" stroke="#000000" points="369,-280.5 369,-321.5 491,-321.5 491,-280.5 369,-280.5"/>
<text text-anchor="start" x="377" y="-309.5" font-family="Helvetica,sans-Serif" font-size="10.00" fill="#000000">anonymous_namespace</text>
<text text-anchor="start" x="377" y="-298.5" font-family="Helvetica,sans-Serif" font-size="10.00" fill="#000000">{powerd++.cpp}::Global</text>
<text text-anchor="middle" x="430" y="-287.5" font-family="Helvetica,sans-Serif" font-size="10.00" fill="#000000">::ACSet</text>
</a>
</g>
</g>
<!-- Node13&#45;&gt;Node11 -->
<g id="edge2" class="edge">
<title>Node13&#45;&gt;Node11</title>
<path fill="none" stroke="#9a32cd" stroke-dasharray="5,2" d="M473.3763,-275.4148C515.7867,-251.8521 582.9965,-218.3033 646,-203 668.0942,-197.6334 800.7806,-192.5269 880.8147,-189.8796"/>
<polygon fill="#9a32cd" stroke="#9a32cd" points="471.4561,-272.4791 464.4527,-280.4292 474.8853,-278.5816 471.4561,-272.4791"/>
<text text-anchor="middle" x="717.5" y="-305" font-family="Helvetica,sans-Serif" font-size="10.00" fill="#000000"> online</text>
<text text-anchor="middle" x="717.5" y="-294" font-family="Helvetica,sans-Serif" font-size="10.00" fill="#000000">HADP</text>
<text text-anchor="middle" x="717.5" y="-283" font-family="Helvetica,sans-Serif" font-size="10.00" fill="#000000">battery</text>
<text text-anchor="start" x="678" y="-272" font-family="Helvetica,sans-Serif" font-size="10.00" fill="#000000">FREQ_DEFAULT</text>
<text text-anchor="middle" x="717.5" y="-261" font-family="Helvetica,sans-Serif" font-size="10.00" fill="#000000">_MIN</text>
<text text-anchor="middle" x="717.5" y="-250" font-family="Helvetica,sans-Serif" font-size="10.00" fill="#000000">ADP</text>
<text text-anchor="start" x="678" y="-239" font-family="Helvetica,sans-Serif" font-size="10.00" fill="#000000">FREQ_DEFAULT</text>
<text text-anchor="middle" x="717.5" y="-228" font-family="Helvetica,sans-Serif" font-size="10.00" fill="#000000">_MAX</text>
<text text-anchor="middle" x="717.5" y="-217" font-family="Helvetica,sans-Serif" font-size="10.00" fill="#000000">unknown</text>
<text text-anchor="middle" x="717.5" y="-206" font-family="Helvetica,sans-Serif" font-size="10.00" fill="#000000">FREQ_UNSET</text>
</g>
<!-- Node14 -->
<g id="node4" class="node">
<title>Node14</title>
<g id="a_node4"><a xlink:title=" ">
<polygon fill="#ffffff" stroke="#bfbfbf" points="3,-161.5 3,-180.5 47,-180.5 47,-161.5 3,-161.5"/>
<text text-anchor="middle" x="25" y="-168.5" font-family="Helvetica,sans-Serif" font-size="10.00" fill="#000000">mhz_t</text>
</a>
</g>
</g>
<!-- Node14&#45;&gt;Node13 -->
<g id="edge3" class="edge">
<title>Node14&#45;&gt;Node13</title>
<path fill="none" stroke="#9a32cd" stroke-dasharray="5,2" d="M29.4021,-190.7687C38.5491,-226.6357 63.3036,-301.7875 116,-335 204.4391,-390.7398 249.8174,-371.277 351,-345 368.9302,-340.3436 387.1156,-330.6314 401.5114,-321.5136"/>
<polygon fill="#9a32cd" stroke="#9a32cd" points="32.7007,-189.5149 26.9651,-180.6069 25.8937,-191.1474 32.7007,-189.5149"/>
<text text-anchor="middle" x="189.5" y="-395" font-family="Helvetica,sans-Serif" font-size="10.00" fill="#000000"> freq_max</text>
<text text-anchor="middle" x="189.5" y="-384" font-family="Helvetica,sans-Serif" font-size="10.00" fill="#000000">target_freq</text>
<text text-anchor="middle" x="189.5" y="-373" font-family="Helvetica,sans-Serif" font-size="10.00" fill="#000000">freq_min</text>
</g>
<!-- Node21 -->
<g id="node11" class="node">
<title>Node21</title>
<g id="a_node11"><a xlink:href="namespaceanonymous__namespace_02powerd_09_09_8cpp_03.html#structanonymous__namespace_02powerd_09_09_8cpp_03_1_1Core" target="_top" xlink:title="Contains the management information for a single CPU core.">
<polygon fill="#ffffff" stroke="#000000" points="369,-130 369,-160 491,-160 491,-130 369,-130"/>
<text text-anchor="start" x="377" y="-148" font-family="Helvetica,sans-Serif" font-size="10.00" fill="#000000">anonymous_namespace</text>
<text text-anchor="middle" x="430" y="-137" font-family="Helvetica,sans-Serif" font-size="10.00" fill="#000000">{powerd++.cpp}::Core</text>
</a>
</g>
</g>
<!-- Node14&#45;&gt;Node21 -->
<g id="edge12" class="edge">
<title>Node14&#45;&gt;Node21</title>
<path fill="none" stroke="#9a32cd" stroke-dasharray="5,2" d="M57.2706,-169.7083C115.8421,-167.2546 243.5366,-161.4035 351,-153 356.7723,-152.5486 362.7769,-152.03 368.7823,-151.4784"/>
<polygon fill="#9a32cd" stroke="#9a32cd" points="57.0056,-166.2161 47.1589,-170.1267 57.2951,-173.2101 57.0056,-166.2161"/>
<text text-anchor="middle" x="189.5" y="-215" font-family="Helvetica,sans-Serif" font-size="10.00" fill="#000000"> loadsum</text>
<text text-anchor="middle" x="189.5" y="-204" font-family="Helvetica,sans-Serif" font-size="10.00" fill="#000000">group_loadsum</text>
<text text-anchor="middle" x="189.5" y="-193" font-family="Helvetica,sans-Serif" font-size="10.00" fill="#000000">min</text>
<text text-anchor="middle" x="189.5" y="-182" font-family="Helvetica,sans-Serif" font-size="10.00" fill="#000000">max</text>
<text text-anchor="middle" x="189.5" y="-171" font-family="Helvetica,sans-Serif" font-size="10.00" fill="#000000">sample_freq</text>
</g>
<!-- Node24 -->
<g id="node14" class="node">
<title>Node24</title>
<g id="a_node14"><a xlink:title=" ">
<polygon fill="#ffffff" stroke="#bfbfbf" points="125,-115.5 125,-134.5 254,-134.5 254,-115.5 125,-115.5"/>
<text text-anchor="middle" x="189.5" y="-122.5" font-family="Helvetica,sans-Serif" font-size="10.00" fill="#000000">std::unique_ptr&lt; mhz_t[]&gt;</text>
</a>
</g>
</g>
<!-- Node14&#45;&gt;Node24 -->
<g id="edge17" class="edge">
<title>Node14&#45;&gt;Node24</title>
<path fill="none" stroke="#9a32cd" stroke-dasharray="5,2" d="M47.4696,-155.927C53.8784,-152.1931 61.0211,-148.5387 68,-146 85.904,-139.4871 106.0442,-134.9645 124.7018,-131.8356"/>
<polygon fill="#9a32cd" stroke="#9a32cd" points="45.3808,-153.1032 38.7096,-161.3339 49.0575,-159.0599 45.3808,-153.1032"/>
<text text-anchor="middle" x="83" y="-149" font-family="Helvetica,sans-Serif" font-size="10.00" fill="#000000"> ptr</text>
</g>
<!-- Node15 -->
<g id="node5" class="node">
<title>Node15</title>
<g id="a_node5"><a xlink:title=" ">
<polygon fill="#ffffff" stroke="#bfbfbf" points="162.5,-306.5 162.5,-325.5 216.5,-325.5 216.5,-306.5 162.5,-306.5"/>
<text text-anchor="middle" x="189.5" y="-313.5" font-family="Helvetica,sans-Serif" font-size="10.00" fill="#000000">cptime_t</text>
</a>
</g>
</g>
<!-- Node15&#45;&gt;Node13 -->
<g id="edge4" class="edge">
<title>Node15&#45;&gt;Node13</title>
<path fill="none" stroke="#9a32cd" stroke-dasharray="5,2" d="M226.6865,-313.6807C264.4929,-311.3227 323.719,-307.6288 368.5165,-304.8347"/>
<polygon fill="#9a32cd" stroke="#9a32cd" points="226.3836,-310.1927 216.6209,-314.3085 226.8194,-317.1791 226.3836,-310.1927"/>
<text text-anchor="middle" x="316" y="-313" font-family="Helvetica,sans-Serif" font-size="10.00" fill="#000000"> target_load</text>
</g>
<!-- Node18 -->
<g id="node8" class="node">
<title>Node18</title>
<g id="a_node8"><a xlink:title=" ">
<polygon fill="#ffffff" stroke="#bfbfbf" points="509,-334 509,-364 628,-364 628,-334 509,-334"/>
<text text-anchor="start" x="517" y="-352" font-family="Helvetica,sans-Serif" font-size="10.00" fill="#000000">std::unique_ptr&lt; cptime</text>
<text text-anchor="middle" x="568.5" y="-341" font-family="Helvetica,sans-Serif" font-size="10.00" fill="#000000">_t[][CPUSTATES]&gt;</text>
</a>
</g>
</g>
<!-- Node15&#45;&gt;Node18 -->
<g id="edge8" class="edge">
<title>Node15&#45;&gt;Node18</title>
<path fill="none" stroke="#9a32cd" stroke-dasharray="5,2" d="M227.0778,-319.8223C243.6109,-321.4714 263.2655,-323.3877 281,-325 359.6874,-332.1538 450.5671,-339.6043 508.7341,-344.2694"/>
<polygon fill="#9a32cd" stroke="#9a32cd" points="227.0149,-316.2985 216.7155,-318.7831 226.3163,-323.2636 227.0149,-316.2985"/>
<text text-anchor="middle" x="316" y="-333" font-family="Helvetica,sans-Serif" font-size="10.00" fill="#000000"> ptr</text>
</g>
<!-- Node15&#45;&gt;Node21 -->
<g id="edge19" class="edge">
<title>Node15&#45;&gt;Node21</title>
<path fill="none" stroke="#9a32cd" stroke-dasharray="5,2" d="M216.4209,-301.6545C234.5412,-292.1269 259.0449,-279.4895 281,-269 311.7013,-254.3318 323.7441,-258.3677 351,-238 380.8672,-215.6809 407.0069,-180.0935 420.4274,-160.031"/>
<polygon fill="#9a32cd" stroke="#9a32cd" points="214.7831,-298.5613 207.5743,-306.3256 218.0516,-304.7514 214.7831,-298.5613"/>
<text text-anchor="middle" x="316" y="-294" font-family="Helvetica,sans-Serif" font-size="10.00" fill="#000000"> idle</text>
<text text-anchor="middle" x="316" y="-283" font-family="Helvetica,sans-Serif" font-size="10.00" fill="#000000">all</text>
<text text-anchor="middle" x="316" y="-272" font-family="Helvetica,sans-Serif" font-size="10.00" fill="#000000">cp_time</text>
</g>
<!-- Node16 -->
<g id="node6" class="node">
<title>Node16</title>
<g id="a_node6"><a xlink:href="classsys_1_1ctl_1_1Once.html" target="_top" xlink:title=" ">
<polygon fill="#ffffff" stroke="#000000" points="512,-38 512,-68 625,-68 625,-38 512,-38"/>
<text text-anchor="start" x="520" y="-56" font-family="Helvetica,sans-Serif" font-size="10.00" fill="#000000">sys::ctl::Once&lt; coreid</text>
<text text-anchor="middle" x="568.5" y="-45" font-family="Helvetica,sans-Serif" font-size="10.00" fill="#000000">_t, 2 &gt;</text>
</a>
</g>
</g>
<!-- Node16&#45;&gt;Node11 -->
<g id="edge5" class="edge">
<title>Node16&#45;&gt;Node11</title>
<path fill="none" stroke="#9a32cd" stroke-dasharray="5,2" d="M634.9949,-66.652C689.2094,-78.1577 761.1931,-94.3959 789,-105 837.4245,-123.4666 889.6334,-154.4409 918.8235,-172.8767"/>
<polygon fill="#9a32cd" stroke="#9a32cd" points="635.6007,-63.2028 625.0933,-64.5611 634.1544,-70.0518 635.6007,-63.2028"/>
<text text-anchor="middle" x="717.5" y="-108" font-family="Helvetica,sans-Serif" font-size="10.00" fill="#000000"> ncpu</text>
</g>
<!-- Node17 -->
<g id="node7" class="node">
<title>Node17</title>
<g id="a_node7"><a xlink:title=" ">
<polygon fill="#ffffff" stroke="#bfbfbf" points="164,-.5 164,-19.5 215,-19.5 215,-.5 164,-.5"/>
<text text-anchor="middle" x="189.5" y="-7.5" font-family="Helvetica,sans-Serif" font-size="10.00" fill="#000000">coreid_t</text>
</a>
</g>
</g>
<!-- Node17&#45;&gt;Node16 -->
<g id="edge6" class="edge">
<title>Node17&#45;&gt;Node16</title>
<path fill="none" stroke="#9a32cd" stroke-dasharray="5,2" d="M225.1583,-9.5199C242.0796,-9.3152 262.582,-9.1006 281,-9 312.1106,-8.83 320.0437,-5.9002 351,-9 406.2004,-14.5275 468.1187,-27.7584 511.7315,-38.2775"/>
<polygon fill="#9a32cd" stroke="#9a32cd" points="225.0913,-6.0204 215.1358,-9.645 225.1787,-13.0198 225.0913,-6.0204"/>
<text text-anchor="middle" x="316" y="-12" font-family="Helvetica,sans-Serif" font-size="10.00" fill="#000000"> value</text>
</g>
<!-- Node17&#45;&gt;Node21 -->
<g id="edge13" class="edge">
<title>Node17&#45;&gt;Node21</title>
<path fill="none" stroke="#9a32cd" stroke-dasharray="5,2" d="M225.2672,-12.7363C259.7444,-16.7691 312.2473,-26.6904 351,-51 383.144,-71.164 408.7811,-108.7326 421.4196,-129.7541"/>
<polygon fill="#9a32cd" stroke="#9a32cd" points="225.4952,-9.2409 215.1813,-11.6644 224.7553,-16.2017 225.4952,-9.2409"/>
<text text-anchor="middle" x="316" y="-54" font-family="Helvetica,sans-Serif" font-size="10.00" fill="#000000"> controller</text>
</g>
<!-- Node18&#45;&gt;Node11 -->
<g id="edge7" class="edge">
<title>Node18&#45;&gt;Node11</title>
<path fill="none" stroke="#9a32cd" stroke-dasharray="5,2" d="M638.2683,-348.6291C683.0687,-346.0771 741.5356,-338.3278 789,-317 849.8477,-289.6585 905.4864,-230.7668 929.5027,-203.0297"/>
<polygon fill="#9a32cd" stroke="#9a32cd" points="637.8741,-345.1443 628.0596,-349.1349 638.2205,-352.1357 637.8741,-345.1443"/>
<text text-anchor="middle" x="717.5" y="-350" font-family="Helvetica,sans-Serif" font-size="10.00" fill="#000000"> cp_times</text>
</g>
<!-- Node19 -->
<g id="node9" class="node">
<title>Node19</title>
<g id="a_node9"><a xlink:href="classsys_1_1ctl_1_1Sysctl.html" target="_top" xlink:title="Represents a sysctl MIB address.">
<polygon fill="#ffffff" stroke="#000000" points="646,-40.5 646,-59.5 789,-59.5 789,-40.5 646,-40.5"/>
<text text-anchor="middle" x="717.5" y="-47.5" font-family="Helvetica,sans-Serif" font-size="10.00" fill="#000000">sys::ctl::Sysctl&lt; MibDepth &gt;</text>
</a>
</g>
</g>
<!-- Node19&#45;&gt;Node11 -->
<g id="edge9" class="edge">
<title>Node19&#45;&gt;Node11</title>
<path fill="none" stroke="#9a32cd" stroke-dasharray="5,2" d="M799.239,-42.426C821.2181,-43.7945 844.1097,-48.5935 863,-60 905.921,-85.9168 928.898,-144.9584 937.7039,-172.8594"/>
<polygon fill="#9a32cd" stroke="#9a32cd" points="799.3537,-38.9279 789.2224,-42.0273 799.0752,-45.9224 799.3537,-38.9279"/>
<text text-anchor="middle" x="835" y="-74" font-family="Helvetica,sans-Serif" font-size="10.00" fill="#000000"> acline_ctl</text>
<text text-anchor="middle" x="835" y="-63" font-family="Helvetica,sans-Serif" font-size="10.00" fill="#000000">cp_times_ctl</text>
</g>
<!-- Node20 -->
<g id="node10" class="node">
<title>Node20</title>
<g id="a_node10"><a xlink:title=" ">
<polygon fill="#ffffff" stroke="#bfbfbf" points="647.5,-125.5 647.5,-166.5 787.5,-166.5 787.5,-125.5 647.5,-125.5"/>
<text text-anchor="start" x="655.5" y="-154.5" font-family="Helvetica,sans-Serif" font-size="10.00" fill="#000000">std::unique_ptr&lt; anonymous</text>
<text text-anchor="start" x="655.5" y="-143.5" font-family="Helvetica,sans-Serif" font-size="10.00" fill="#000000">_namespace{powerd++.cpp}</text>
<text text-anchor="middle" x="717.5" y="-132.5" font-family="Helvetica,sans-Serif" font-size="10.00" fill="#000000">::Core[]&gt;</text>
</a>
</g>
</g>
<!-- Node20&#45;&gt;Node11 -->
<g id="edge10" class="edge">
<title>Node20&#45;&gt;Node11</title>
<path fill="none" stroke="#9a32cd" stroke-dasharray="5,2" d="M797.5569,-160.9772C824.9358,-166.0994 855.1061,-171.7437 880.761,-176.5433"/>
<polygon fill="#9a32cd" stroke="#9a32cd" points="798.0829,-157.515 787.6097,-159.1163 796.7956,-164.3956 798.0829,-157.515"/>
<text text-anchor="middle" x="835" y="-177" font-family="Helvetica,sans-Serif" font-size="10.00" fill="#000000"> cores</text>
</g>
<!-- Node21&#45;&gt;Node20 -->
<g id="edge11" class="edge">
<title>Node21&#45;&gt;Node20</title>
<path fill="none" stroke="#9a32cd" stroke-dasharray="5,2" d="M501.4965,-145.2487C546.0564,-145.4037 603.134,-145.6022 647.4242,-145.7563"/>
<polygon fill="#9a32cd" stroke="#9a32cd" points="501.3355,-141.7482 491.3233,-145.2133 501.3111,-148.7482 501.3355,-141.7482"/>
<text text-anchor="middle" x="568.5" y="-149" font-family="Helvetica,sans-Serif" font-size="10.00" fill="#000000"> ptr</text>
</g>
<!-- Node22 -->
<g id="node12" class="node">
<title>Node22</title>
<g id="a_node12"><a xlink:href="classsys_1_1ctl_1_1Sync.html" target="_top" xlink:title=" ">
<polygon fill="#ffffff" stroke="#000000" points="128.5,-77.5 128.5,-96.5 250.5,-96.5 250.5,-77.5 128.5,-77.5"/>
<text text-anchor="middle" x="189.5" y="-84.5" font-family="Helvetica,sans-Serif" font-size="10.00" fill="#000000">sys::ctl::Sync&lt; mhz_t &gt;</text>
</a>
</g>
</g>
<!-- Node22&#45;&gt;Node21 -->
<g id="edge14" class="edge">
<title>Node22&#45;&gt;Node21</title>
<path fill="none" stroke="#9a32cd" stroke-dasharray="5,2" d="M259.6629,-98.2648C288.2039,-103.4171 321.3793,-110.1366 351,-118 363.6081,-121.3471 377.1152,-125.6778 389.3309,-129.8869"/>
<polygon fill="#9a32cd" stroke="#9a32cd" points="260.2323,-94.8113 249.7743,-96.5085 259.008,-101.7034 260.2323,-94.8113"/>
<text text-anchor="middle" x="316" y="-121" font-family="Helvetica,sans-Serif" font-size="10.00" fill="#000000"> freq</text>
</g>
<!-- Node23 -->
<g id="node13" class="node">
<title>Node23</title>
<g id="a_node13"><a xlink:title=" ">
<polygon fill="#ffffff" stroke="#bfbfbf" points="0,-58.5 0,-77.5 50,-77.5 50,-58.5 0,-58.5"/>
<text text-anchor="middle" x="25" y="-65.5" font-family="Helvetica,sans-Serif" font-size="10.00" fill="#000000">SysctlT</text>
</a>
</g>
</g>
<!-- Node23&#45;&gt;Node22 -->
<g id="edge15" class="edge">
<title>Node23&#45;&gt;Node22</title>
<path fill="none" stroke="#9a32cd" stroke-dasharray="5,2" d="M60.4299,-72.0922C80.1939,-74.375 105.3659,-77.2824 128.2225,-79.9224"/>
<polygon fill="#9a32cd" stroke="#9a32cd" points="60.6782,-68.5977 50.3426,-70.9271 59.875,-75.5515 60.6782,-68.5977"/>
<text text-anchor="middle" x="83" y="-80" font-family="Helvetica,sans-Serif" font-size="10.00" fill="#000000"> sysctl</text>
</g>
<!-- Node26 -->
<g id="node16" class="node">
<title>Node26</title>
<g id="a_node16"><a xlink:href="classsys_1_1ctl_1_1Sync.html" target="_top" xlink:title=" ">
<polygon fill="#ffffff" stroke="#000000" points="116,-39.5 116,-58.5 263,-58.5 263,-39.5 116,-39.5"/>
<text text-anchor="middle" x="189.5" y="-46.5" font-family="Helvetica,sans-Serif" font-size="10.00" fill="#000000">sys::ctl::Sync&lt; decikelvin_t &gt;</text>
</a>
</g>
</g>
<!-- Node23&#45;&gt;Node26 -->
<g id="edge21" class="edge">
<title>Node23&#45;&gt;Node26</title>
<path fill="none" stroke="#9a32cd" stroke-dasharray="5,2" d="M60.312,-60.2439C62.9072,-59.7861 65.4903,-59.3645 68,-59 83.3948,-56.7642 99.9651,-54.9879 115.7669,-53.5916"/>
<polygon fill="#9a32cd" stroke="#9a32cd" points="59.5376,-56.8285 50.3729,-62.1443 60.8523,-63.7039 59.5376,-56.8285"/>
<text text-anchor="middle" x="83" y="-62" font-family="Helvetica,sans-Serif" font-size="10.00" fill="#000000"> sysctl</text>
</g>
<!-- Node24&#45;&gt;Node21 -->
<g id="edge16" class="edge">
<title>Node24&#45;&gt;Node21</title>
<path fill="none" stroke="#9a32cd" stroke-dasharray="5,2" d="M264.4881,-131.236C298.0415,-134.0263 337.0997,-137.2744 368.8452,-139.9144"/>
<polygon fill="#9a32cd" stroke="#9a32cd" points="264.5216,-127.7268 254.266,-130.3859 263.9415,-134.7027 264.5216,-127.7268"/>
<text text-anchor="middle" x="316" y="-141" font-family="Helvetica,sans-Serif" font-size="10.00" fill="#000000"> loads</text>
</g>
<!-- Node25 -->
<g id="node15" class="node">
<title>Node25</title>
<g id="a_node15"><a xlink:title=" ">
<polygon fill="#ffffff" stroke="#bfbfbf" points="155.5,-244.5 155.5,-263.5 223.5,-263.5 223.5,-244.5 155.5,-244.5"/>
<text text-anchor="middle" x="189.5" y="-251.5" font-family="Helvetica,sans-Serif" font-size="10.00" fill="#000000">decikelvin_t</text>
</a>
</g>
</g>
<!-- Node25&#45;&gt;Node21 -->
<g id="edge18" class="edge">
<title>Node25&#45;&gt;Node21</title>
<path fill="none" stroke="#9a32cd" stroke-dasharray="5,2" d="M233.5336,-244.5951C243.8159,-241.0959 254.2948,-236.363 263,-230 274.0535,-221.9205 269.954,-213.0897 281,-205 307.42,-185.6511 320.5612,-194.0778 351,-182 367.4705,-175.4647 385.3872,-167.1746 399.988,-160.0988"/>
<polygon fill="#9a32cd" stroke="#9a32cd" points="232.3313,-241.3029 223.7998,-247.5849 234.3867,-247.9944 232.3313,-241.3029"/>
<text text-anchor="middle" x="316" y="-230" font-family="Helvetica,sans-Serif" font-size="10.00" fill="#000000"> temp_crit</text>
<text text-anchor="middle" x="316" y="-219" font-family="Helvetica,sans-Serif" font-size="10.00" fill="#000000">temp_high</text>
<text text-anchor="middle" x="316" y="-208" font-family="Helvetica,sans-Serif" font-size="10.00" fill="#000000">group_maxtemp</text>
</g>
<!-- Node26&#45;&gt;Node21 -->
<g id="edge20" class="edge">
<title>Node26&#45;&gt;Node21</title>
<path fill="none" stroke="#9a32cd" stroke-dasharray="5,2" d="M260.7534,-60.6538C289.5937,-66.8887 322.6949,-76.0283 351,-89 374.0775,-99.576 397.4161,-117.1589 412.6788,-129.8032"/>
<polygon fill="#9a32cd" stroke="#9a32cd" points="261.2485,-57.1819 250.7448,-58.5681 259.8204,-64.0347 261.2485,-57.1819"/>
<text text-anchor="middle" x="316" y="-92" font-family="Helvetica,sans-Serif" font-size="10.00" fill="#000000"> temp</text>
</g>
</g>
</svg>
