<?xml version="1.0" encoding="UTF-8" standalone="no"?>
<!DOCTYPE svg PUBLIC "-//W3C//DTD SVG 1.1//EN"
 "http://www.w3.org/Graphics/SVG/1.1/DTD/svg11.dtd">
<!-- Generated by graphviz version 2.40.1 (20161225.0304)
 -->
<!-- Title: anonymous_namespace{powerd++.cpp}::Core Pages: 1 -->
<svg width="493pt" height="230pt"
 viewBox="0.00 0.00 493.50 230.00" xmlns="http://www.w3.org/2000/svg" xmlns:xlink="http://www.w3.org/1999/xlink">
<g id="graph0" class="graph" transform="scale(1 1) rotate(0) translate(4 226)">
<title>anonymous_namespace{powerd++.cpp}::Core</title>
<polygon fill="#ffffff" stroke="transparent" points="-4,4 -4,-226 489.5,-226 489.5,4 -4,4"/>
<!-- Node11 -->
<g id="node1" class="node">
<title>Node11</title>
<polygon fill="#bfbfbf" stroke="#000000" points="203,-.5 203,-30.5 325,-30.5 325,-.5 203,-.5"/>
<text text-anchor="start" x="211" y="-18.5" font-family="Helvetica,sans-Serif" font-size="10.00" fill="#000000">anonymous_namespace</text>
<text text-anchor="middle" x="264" y="-7.5" font-family="Helvetica,sans-Serif" font-size="10.00" fill="#000000">{powerd++.cpp}::Core</text>
</g>
<!-- Node12 -->
<g id="node2" class="node">
<title>Node12</title>
<polygon fill="#ffffff" stroke="#bfbfbf" points="0,-202.5 0,-221.5 44,-221.5 44,-202.5 0,-202.5"/>
<text text-anchor="middle" x="22" y="-209.5" font-family="Helvetica,sans-Serif" font-size="10.00" fill="#000000">mhz_t</text>
</g>
<!-- Node12&#45;&gt;Node11 -->
<g id="edge1" class="edge">
<title>Node12&#45;&gt;Node11</title>
<path fill="none" stroke="#9a32cd" stroke-dasharray="5,2" d="M14,-192.7352C5.4049,-168.6615 -4.5739,-127.3129 15,-100 37.2376,-68.9703 136.6987,-42.4184 202.9883,-27.7377"/>
<polygon fill="#9a32cd" stroke="#9a32cd" points="10.7758,-194.1027 17.6246,-202.1863 17.3117,-191.5961 10.7758,-194.1027"/>
<text text-anchor="middle" x="48.5" y="-147" font-family="Helvetica,sans-Serif" font-size="10.00" fill="#000000"> loadsum</text>
<text text-anchor="middle" x="48.5" y="-136" font-family="Helvetica,sans-Serif" font-size="10.00" fill="#000000">group_loadsum</text>
<text text-anchor="middle" x="48.5" y="-125" font-family="Helvetica,sans-Serif" font-size="10.00" fill="#000000">min</text>
<text text-anchor="middle" x="48.5" y="-114" font-family="Helvetica,sans-Serif" font-size="10.00" fill="#000000">max</text>
<text text-anchor="middle" x="48.5" y="-103" font-family="Helvetica,sans-Serif" font-size="10.00" fill="#000000">sample_freq</text>
</g>
<!-- Node14 -->
<g id="node4" class="node">
<title>Node14</title>
<polygon fill="#ffffff" stroke="#bfbfbf" points="91.5,-118 91.5,-137 220.5,-137 220.5,-118 91.5,-118"/>
<text text-anchor="middle" x="156" y="-125" font-family="Helvetica,sans-Serif" font-size="10.00" fill="#000000">std::unique_ptr&lt; mhz_t[]&gt;</text>
</g>
<!-- Node12&#45;&gt;Node14 -->
<g id="edge4" class="edge">
<title>Node12&#45;&gt;Node14</title>
<path fill="none" stroke="#9a32cd" stroke-dasharray="5,2" d="M45.7118,-197.0474C73.1498,-179.7451 117.5249,-151.7623 140.7386,-137.1238"/>
<polygon fill="#9a32cd" stroke="#9a32cd" points="43.7028,-194.1765 37.111,-202.471 47.4366,-200.0975 43.7028,-194.1765"/>
<text text-anchor="middle" x="88.5" y="-176" font-family="Helvetica,sans-Serif" font-size="10.00" fill="#000000"> ptr</text>
</g>
<!-- Node13 -->
<g id="node3" class="node">
<title>Node13</title>
<polygon fill="#ffffff" stroke="#bfbfbf" points="238.5,-118 238.5,-137 289.5,-137 289.5,-118 238.5,-118"/>
<text text-anchor="middle" x="264" y="-125" font-family="Helvetica,sans-Serif" font-size="10.00" fill="#000000">coreid_t</text>
</g>
<!-- Node13&#45;&gt;Node11 -->
<g id="edge2" class="edge">
<title>Node13&#45;&gt;Node11</title>
<path fill="none" stroke="#9a32cd" stroke-dasharray="5,2" d="M264,-107.7834C264,-85.7618 264,-50.5949 264,-30.6339"/>
<polygon fill="#9a32cd" stroke="#9a32cd" points="260.5001,-107.9509 264,-117.9509 267.5001,-107.951 260.5001,-107.9509"/>
<text text-anchor="middle" x="285.5" y="-63" font-family="Helvetica,sans-Serif" font-size="10.00" fill="#000000"> controller</text>
</g>
<!-- Node14&#45;&gt;Node11 -->
<g id="edge3" class="edge">
<title>Node14&#45;&gt;Node11</title>
<path fill="none" stroke="#9a32cd" stroke-dasharray="5,2" d="M172.1728,-110.7282C193.1056,-89.0201 229.2755,-51.5106 249.4066,-30.6339"/>
<polygon fill="#9a32cd" stroke="#9a32cd" points="169.6299,-108.323 165.208,-117.9509 174.6689,-113.182 169.6299,-108.323"/>
<text text-anchor="middle" x="242.5" y="-63" font-family="Helvetica,sans-Serif" font-size="10.00" fill="#000000"> loads</text>
</g>
<!-- Node15 -->
<g id="node5" class="node">
<title>Node15</title>
<polygon fill="#ffffff" stroke="#bfbfbf" points="308,-118 308,-137 362,-137 362,-118 308,-118"/>
<text text-anchor="middle" x="335" y="-125" font-family="Helvetica,sans-Serif" font-size="10.00" fill="#000000">cptime_t</text>
</g>
<!-- Node15&#45;&gt;Node11 -->
<g id="edge5" class="edge">
<title>Node15&#45;&gt;Node11</title>
<path fill="none" stroke="#9a32cd" stroke-dasharray="5,2" d="M332.5535,-107.5701C329.6761,-90.6759 323.5861,-66.4767 311,-49 305.8469,-41.8445 298.6829,-35.65 291.4993,-30.6012"/>
<polygon fill="#9a32cd" stroke="#9a32cd" points="329.1583,-108.5405 334.0726,-117.9266 336.0842,-107.5245 329.1583,-108.5405"/>
<text text-anchor="middle" x="343.5" y="-74" font-family="Helvetica,sans-Serif" font-size="10.00" fill="#000000"> idle</text>
<text text-anchor="middle" x="343.5" y="-63" font-family="Helvetica,sans-Serif" font-size="10.00" fill="#000000">all</text>
<text text-anchor="middle" x="343.5" y="-52" font-family="Helvetica,sans-Serif" font-size="10.00" fill="#000000">cp_time</text>
</g>
<!-- Node16 -->
<g id="node6" class="node">
<title>Node16</title>
<g id="a_node6"><a xlink:href="classsys_1_1ctl_1_1Sync.html" target="_top" xlink:title="sys::ctl::Sync\&lt; mhz\l_t, 4 \&gt;">
<polygon fill="#ffffff" stroke="#000000" points="380.5,-112.5 380.5,-142.5 485.5,-142.5 485.5,-112.5 380.5,-112.5"/>
<text text-anchor="start" x="388.5" y="-130.5" font-family="Helvetica,sans-Serif" font-size="10.00" fill="#000000">sys::ctl::Sync&lt; mhz</text>
<text text-anchor="middle" x="433" y="-119.5" font-family="Helvetica,sans-Serif" font-size="10.00" fill="#000000">_t, 4 &gt;</text>
</a>
</g>
</g>
<!-- Node16&#45;&gt;Node11 -->
<g id="edge6" class="edge">
<title>Node16&#45;&gt;Node11</title>
<path fill="none" stroke="#9a32cd" stroke-dasharray="5,2" d="M417.7199,-103.8175C405.3886,-86.4239 386.5819,-63.4068 365,-49 353.0152,-40.9996 338.9573,-34.7646 325.2023,-29.9617"/>
<polygon fill="#9a32cd" stroke="#9a32cd" points="415.0142,-106.0605 423.5584,-112.3252 420.7858,-102.0996 415.0142,-106.0605"/>
<text text-anchor="middle" x="410" y="-63" font-family="Helvetica,sans-Serif" font-size="10.00" fill="#000000"> freq</text>
</g>
</g>
</svg>
