<?xml version="1.0" encoding="UTF-8" standalone="no"?>
<!DOCTYPE svg PUBLIC "-//W3C//DTD SVG 1.1//EN"
 "http://www.w3.org/Graphics/SVG/1.1/DTD/svg11.dtd">
<!-- Generated by graphviz version 2.42.2 ()
 -->
<!-- Title: anonymous_namespace{powerd++.cpp}::CoreGroup Pages: 1 -->
<svg width="493pt" height="263pt"
 viewBox="0.00 0.00 493.00 263.00" xmlns="http://www.w3.org/2000/svg" xmlns:xlink="http://www.w3.org/1999/xlink">
<g id="graph0" class="graph" transform="scale(1 1) rotate(0) translate(4 259)">
<title>anonymous_namespace{powerd++.cpp}::CoreGroup</title>
<polygon fill="white" stroke="transparent" points="-4,4 -4,-259 489,-259 489,4 -4,4"/>
<!-- Node1 -->
<g id="node1" class="node">
<title>Node1</title>
<g id="a_node1"><a xlink:title="Contains the management information for a group of cores with a common clock frequency.">
<polygon fill="#bfbfbf" stroke="black" points="347,-111 347,-141 485,-141 485,-111 347,-111"/>
<text text-anchor="start" x="355" y="-129" font-family="Helvetica,sans-Serif" font-size="10.00">anonymous_namespace</text>
<text text-anchor="middle" x="416" y="-118" font-family="Helvetica,sans-Serif" font-size="10.00">{powerd++.cpp}::CoreGroup</text>
</a>
</g>
</g>
<!-- Node2 -->
<g id="node2" class="node">
<title>Node2</title>
<g id="a_node2"><a xlink:title=" ">
<polygon fill="white" stroke="#bfbfbf" points="12,-178.5 12,-197.5 56,-197.5 56,-178.5 12,-178.5"/>
<text text-anchor="middle" x="34" y="-185.5" font-family="Helvetica,sans-Serif" font-size="10.00">mhz_t</text>
</a>
</g>
</g>
<!-- Node2&#45;&gt;Node1 -->
<g id="edge1" class="edge">
<title>Node2&#45;&gt;Node1</title>
<path fill="none" stroke="#9a32cd" stroke-dasharray="5,2" d="M65.56,-201.8C72.24,-204.65 79.32,-207.53 86,-210 160.84,-237.7 186.48,-238.24 265,-224 294.89,-218.58 302.86,-215.48 329,-200 356.96,-183.44 384.61,-157.49 400.73,-141.13"/>
<polygon fill="#9a32cd" stroke="#9a32cd" points="66.7,-198.49 56.14,-197.71 63.92,-204.91 66.7,-198.49"/>
<text text-anchor="middle" x="198" y="-247" font-family="Helvetica,sans-Serif" font-size="10.00"> loadsum</text>
<text text-anchor="middle" x="198" y="-236" font-family="Helvetica,sans-Serif" font-size="10.00">sample_freq</text>
</g>
<!-- Node4 -->
<g id="node4" class="node">
<title>Node4</title>
<g id="a_node4"><a xlink:title=" ">
<polygon fill="white" stroke="#bfbfbf" points="133.5,-195.5 133.5,-214.5 262.5,-214.5 262.5,-195.5 133.5,-195.5"/>
<text text-anchor="middle" x="198" y="-202.5" font-family="Helvetica,sans-Serif" font-size="10.00">std::unique_ptr&lt; mhz_t[]&gt;</text>
</a>
</g>
</g>
<!-- Node2&#45;&gt;Node4 -->
<g id="edge4" class="edge">
<title>Node2&#45;&gt;Node4</title>
<path fill="none" stroke="#9a32cd" stroke-dasharray="5,2" d="M66.38,-191.29C85.43,-193.29 110.45,-195.92 133.49,-198.34"/>
<polygon fill="#9a32cd" stroke="#9a32cd" points="66.49,-187.79 56.18,-190.22 65.76,-194.75 66.49,-187.79"/>
<text text-anchor="middle" x="99.5" y="-198" font-family="Helvetica,sans-Serif" font-size="10.00"> ptr</text>
</g>
<!-- Node5 -->
<g id="node5" class="node">
<title>Node5</title>
<g id="a_node5"><a xlink:href="classutility_1_1Min.html" target="_top" xlink:title=" ">
<polygon fill="white" stroke="black" points="144.5,-157.5 144.5,-176.5 251.5,-176.5 251.5,-157.5 144.5,-157.5"/>
<text text-anchor="middle" x="198" y="-164.5" font-family="Helvetica,sans-Serif" font-size="10.00">utility::Min&lt; mhz_t &gt;</text>
</a>
</g>
</g>
<!-- Node2&#45;&gt;Node5 -->
<g id="edge6" class="edge">
<title>Node2&#45;&gt;Node5</title>
<path fill="none" stroke="#9a32cd" stroke-dasharray="5,2" d="M66.16,-181.4C72.69,-180.16 79.56,-178.95 86,-178 104.97,-175.21 125.86,-172.93 144.36,-171.19"/>
<polygon fill="#9a32cd" stroke="#9a32cd" points="65.39,-177.99 56.26,-183.36 66.75,-184.85 65.39,-177.99"/>
<text text-anchor="middle" x="99.5" y="-181" font-family="Helvetica,sans-Serif" font-size="10.00"> value</text>
</g>
<!-- Node8 -->
<g id="node8" class="node">
<title>Node8</title>
<g id="a_node8"><a xlink:href="classutility_1_1Max.html" target="_top" xlink:title=" ">
<polygon fill="white" stroke="black" points="143,-119.5 143,-138.5 253,-138.5 253,-119.5 143,-119.5"/>
<text text-anchor="middle" x="198" y="-126.5" font-family="Helvetica,sans-Serif" font-size="10.00">utility::Max&lt; mhz_t &gt;</text>
</a>
</g>
</g>
<!-- Node2&#45;&gt;Node8 -->
<g id="edge10" class="edge">
<title>Node2&#45;&gt;Node8</title>
<path fill="none" stroke="#9a32cd" stroke-dasharray="5,2" d="M58.27,-173.12C66.76,-168.14 76.59,-162.87 86,-159 106.95,-150.38 131.14,-143.5 151.59,-138.52"/>
<polygon fill="#9a32cd" stroke="#9a32cd" points="56.41,-170.16 49.67,-178.33 60.03,-176.14 56.41,-170.16"/>
<text text-anchor="middle" x="99.5" y="-162" font-family="Helvetica,sans-Serif" font-size="10.00"> value</text>
</g>
<!-- Node3 -->
<g id="node3" class="node">
<title>Node3</title>
<g id="a_node3"><a xlink:title=" ">
<polygon fill="white" stroke="#bfbfbf" points="172.5,-81.5 172.5,-100.5 223.5,-100.5 223.5,-81.5 172.5,-81.5"/>
<text text-anchor="middle" x="198" y="-88.5" font-family="Helvetica,sans-Serif" font-size="10.00">coreid_t</text>
</a>
</g>
</g>
<!-- Node3&#45;&gt;Node1 -->
<g id="edge2" class="edge">
<title>Node3&#45;&gt;Node1</title>
<path fill="none" stroke="#9a32cd" stroke-dasharray="5,2" d="M234.13,-96.21C260.31,-100.14 296.92,-105.73 329,-111 334.83,-111.96 340.88,-112.97 346.95,-114"/>
<polygon fill="#9a32cd" stroke="#9a32cd" points="234.35,-92.7 223.95,-94.69 233.32,-99.63 234.35,-92.7"/>
<text text-anchor="middle" x="306" y="-114" font-family="Helvetica,sans-Serif" font-size="10.00"> corei</text>
</g>
<!-- Node4&#45;&gt;Node1 -->
<g id="edge3" class="edge">
<title>Node4&#45;&gt;Node1</title>
<path fill="none" stroke="#9a32cd" stroke-dasharray="5,2" d="M255.82,-193.09C278.9,-187.5 305.59,-180.05 329,-171 350.22,-162.8 372.97,-150.73 389.74,-141.16"/>
<polygon fill="#9a32cd" stroke="#9a32cd" points="254.76,-189.75 245.83,-195.45 256.37,-196.56 254.76,-189.75"/>
<text text-anchor="middle" x="306" y="-188" font-family="Helvetica,sans-Serif" font-size="10.00"> loads</text>
</g>
<!-- Node5&#45;&gt;Node1 -->
<g id="edge5" class="edge">
<title>Node5&#45;&gt;Node1</title>
<path fill="none" stroke="#9a32cd" stroke-dasharray="5,2" d="M261.72,-159.91C283.15,-157.07 307.21,-153.4 329,-149 340.06,-146.76 351.8,-143.93 362.94,-141.03"/>
<polygon fill="#9a32cd" stroke="#9a32cd" points="261.22,-156.45 251.75,-161.2 262.12,-163.39 261.22,-156.45"/>
<text text-anchor="middle" x="306" y="-159" font-family="Helvetica,sans-Serif" font-size="10.00"> max</text>
</g>
<!-- Node6 -->
<g id="node6" class="node">
<title>Node6</title>
<g id="a_node6"><a xlink:href="classutility_1_1Min.html" target="_top" xlink:title=" ">
<polygon fill="white" stroke="black" points="132.5,-38.5 132.5,-57.5 263.5,-57.5 263.5,-38.5 132.5,-38.5"/>
<text text-anchor="middle" x="198" y="-45.5" font-family="Helvetica,sans-Serif" font-size="10.00">utility::Min&lt; decikelvin_t &gt;</text>
</a>
</g>
</g>
<!-- Node6&#45;&gt;Node1 -->
<g id="edge7" class="edge">
<title>Node6&#45;&gt;Node1</title>
<path fill="none" stroke="#9a32cd" stroke-dasharray="5,2" d="M265.96,-59.67C286.55,-64.25 309.03,-70.3 329,-78 351.5,-86.67 375.3,-100.35 392.15,-110.89"/>
<polygon fill="#9a32cd" stroke="#9a32cd" points="266.54,-56.21 256.03,-57.53 265.07,-63.06 266.54,-56.21"/>
<text text-anchor="middle" x="306" y="-92" font-family="Helvetica,sans-Serif" font-size="10.00"> temp_crit</text>
<text text-anchor="middle" x="306" y="-81" font-family="Helvetica,sans-Serif" font-size="10.00">temp_high</text>
</g>
<!-- Node7 -->
<g id="node7" class="node">
<title>Node7</title>
<g id="a_node7"><a xlink:title=" ">
<polygon fill="white" stroke="#bfbfbf" points="0,-19.5 0,-38.5 68,-38.5 68,-19.5 0,-19.5"/>
<text text-anchor="middle" x="34" y="-26.5" font-family="Helvetica,sans-Serif" font-size="10.00">decikelvin_t</text>
</a>
</g>
</g>
<!-- Node7&#45;&gt;Node6 -->
<g id="edge8" class="edge">
<title>Node7&#45;&gt;Node6</title>
<path fill="none" stroke="#9a32cd" stroke-dasharray="5,2" d="M78.15,-34.06C94.79,-36.01 114.18,-38.29 132.41,-40.43"/>
<polygon fill="#9a32cd" stroke="#9a32cd" points="78.51,-30.58 68.17,-32.89 77.7,-37.53 78.51,-30.58"/>
<text text-anchor="middle" x="99.5" y="-40" font-family="Helvetica,sans-Serif" font-size="10.00"> value</text>
</g>
<!-- Node9 -->
<g id="node9" class="node">
<title>Node9</title>
<g id="a_node9"><a xlink:href="classutility_1_1Max.html" target="_top" xlink:title=" ">
<polygon fill="white" stroke="black" points="131,-0.5 131,-19.5 265,-19.5 265,-0.5 131,-0.5"/>
<text text-anchor="middle" x="198" y="-7.5" font-family="Helvetica,sans-Serif" font-size="10.00">utility::Max&lt; decikelvin_t &gt;</text>
</a>
</g>
</g>
<!-- Node7&#45;&gt;Node9 -->
<g id="edge12" class="edge">
<title>Node7&#45;&gt;Node9</title>
<path fill="none" stroke="#9a32cd" stroke-dasharray="5,2" d="M78.24,-21.11C80.86,-20.71 83.47,-20.34 86,-20 100.48,-18.07 116.07,-16.41 130.87,-15.03"/>
<polygon fill="#9a32cd" stroke="#9a32cd" points="77.45,-17.69 68.13,-22.73 78.56,-24.6 77.45,-17.69"/>
<text text-anchor="middle" x="99.5" y="-23" font-family="Helvetica,sans-Serif" font-size="10.00"> value</text>
</g>
<!-- Node8&#45;&gt;Node1 -->
<g id="edge9" class="edge">
<title>Node8&#45;&gt;Node1</title>
<path fill="none" stroke="#9a32cd" stroke-dasharray="5,2" d="M263.52,-127.36C270.1,-127.22 276.68,-127.1 283,-127 303.74,-126.67 326.31,-126.45 346.83,-126.31"/>
<polygon fill="#9a32cd" stroke="#9a32cd" points="263.14,-123.86 253.22,-127.58 263.29,-130.86 263.14,-123.86"/>
<text text-anchor="middle" x="306" y="-141" font-family="Helvetica,sans-Serif" font-size="10.00"> load</text>
<text text-anchor="middle" x="306" y="-130" font-family="Helvetica,sans-Serif" font-size="10.00">min</text>
</g>
<!-- Node9&#45;&gt;Node1 -->
<g id="edge11" class="edge">
<title>Node9&#45;&gt;Node1</title>
<path fill="none" stroke="#9a32cd" stroke-dasharray="5,2" d="M260.9,-21.95C283.26,-27.83 308.12,-36.25 329,-48 358.69,-64.71 386.66,-93.35 402.24,-110.89"/>
<polygon fill="#9a32cd" stroke="#9a32cd" points="261.7,-18.55 251.15,-19.51 260,-25.34 261.7,-18.55"/>
<text text-anchor="middle" x="306" y="-51" font-family="Helvetica,sans-Serif" font-size="10.00"> temp</text>
</g>
</g>
</svg>
