<?xml version="1.0" encoding="UTF-8" standalone="no"?>
<!DOCTYPE svg PUBLIC "-//W3C//DTD SVG 1.1//EN"
 "http://www.w3.org/Graphics/SVG/1.1/DTD/svg11.dtd">
<!-- Generated by graphviz version 2.40.1 (20161225.0304)
 -->
<!-- Title: anonymous_namespace{powerd++.cpp}::Core Pages: 1 -->
<svg width="499pt" height="331pt"
 viewBox="0.00 0.00 499.00 331.00" xmlns="http://www.w3.org/2000/svg" xmlns:xlink="http://www.w3.org/1999/xlink">
<g id="graph0" class="graph" transform="scale(1 1) rotate(0) translate(4 327)">
<title>anonymous_namespace{powerd++.cpp}::Core</title>
<polygon fill="#ffffff" stroke="transparent" points="-4,4 -4,-327 495,-327 495,4 -4,4"/>
<!-- Node1 -->
<g id="node1" class="node">
<title>Node1</title>
<polygon fill="#bfbfbf" stroke="#000000" points="369,-141 369,-171 491,-171 491,-141 369,-141"/>
<text text-anchor="start" x="377" y="-159" font-family="Helvetica,sans-Serif" font-size="10.00" fill="#000000">anonymous_namespace</text>
<text text-anchor="middle" x="430" y="-148" font-family="Helvetica,sans-Serif" font-size="10.00" fill="#000000">{powerd++.cpp}::Core</text>
</g>
<!-- Node2 -->
<g id="node2" class="node">
<title>Node2</title>
<polygon fill="#ffffff" stroke="#bfbfbf" points="3,-251.5 3,-270.5 47,-270.5 47,-251.5 3,-251.5"/>
<text text-anchor="middle" x="25" y="-258.5" font-family="Helvetica,sans-Serif" font-size="10.00" fill="#000000">mhz_t</text>
</g>
<!-- Node2&#45;&gt;Node1 -->
<g id="edge1" class="edge">
<title>Node2&#45;&gt;Node1</title>
<path fill="none" stroke="#9a32cd" stroke-dasharray="5,2" d="M57.332,-264.9467C118.5202,-270.8793 253.8174,-276.5526 351,-226 377.6613,-212.1313 402.5844,-187.3038 417.0546,-171.2503"/>
<polygon fill="#9a32cd" stroke="#9a32cd" points="57.4444,-261.4397 47.1363,-263.8875 56.721,-268.4022 57.4444,-261.4397"/>
<text text-anchor="middle" x="189.5" y="-315" font-family="Helvetica,sans-Serif" font-size="10.00" fill="#000000"> loadsum</text>
<text text-anchor="middle" x="189.5" y="-304" font-family="Helvetica,sans-Serif" font-size="10.00" fill="#000000">group_loadsum</text>
<text text-anchor="middle" x="189.5" y="-293" font-family="Helvetica,sans-Serif" font-size="10.00" fill="#000000">min</text>
<text text-anchor="middle" x="189.5" y="-282" font-family="Helvetica,sans-Serif" font-size="10.00" fill="#000000">max</text>
<text text-anchor="middle" x="189.5" y="-271" font-family="Helvetica,sans-Serif" font-size="10.00" fill="#000000">sample_freq</text>
</g>
<!-- Node6 -->
<g id="node6" class="node">
<title>Node6</title>
<polygon fill="#ffffff" stroke="#bfbfbf" points="125,-218.5 125,-237.5 254,-237.5 254,-218.5 125,-218.5"/>
<text text-anchor="middle" x="189.5" y="-225.5" font-family="Helvetica,sans-Serif" font-size="10.00" fill="#000000">std::unique_ptr&lt; mhz_t[]&gt;</text>
</g>
<!-- Node2&#45;&gt;Node6 -->
<g id="edge6" class="edge">
<title>Node2&#45;&gt;Node6</title>
<path fill="none" stroke="#9a32cd" stroke-dasharray="5,2" d="M56.888,-251.7157C60.6203,-250.7436 64.3849,-249.8147 68,-249 87.1078,-244.6941 108.0782,-240.7834 127.1386,-237.5356"/>
<polygon fill="#9a32cd" stroke="#9a32cd" points="55.9443,-248.3451 47.2092,-254.341 57.7768,-255.101 55.9443,-248.3451"/>
<text text-anchor="middle" x="83" y="-252" font-family="Helvetica,sans-Serif" font-size="10.00" fill="#000000"> ptr</text>
</g>
<!-- Node3 -->
<g id="node3" class="node">
<title>Node3</title>
<polygon fill="#ffffff" stroke="#bfbfbf" points="164,-180.5 164,-199.5 215,-199.5 215,-180.5 164,-180.5"/>
<text text-anchor="middle" x="189.5" y="-187.5" font-family="Helvetica,sans-Serif" font-size="10.00" fill="#000000">coreid_t</text>
</g>
<!-- Node3&#45;&gt;Node1 -->
<g id="edge2" class="edge">
<title>Node3&#45;&gt;Node1</title>
<path fill="none" stroke="#9a32cd" stroke-dasharray="5,2" d="M225.2511,-185.2901C257.9916,-180.9387 307.7834,-174.2254 351,-168 356.767,-167.1693 362.768,-166.2881 368.7712,-165.3954"/>
<polygon fill="#9a32cd" stroke="#9a32cd" points="224.7033,-181.832 215.2502,-186.6163 225.6235,-188.7712 224.7033,-181.832"/>
<text text-anchor="middle" x="316" y="-180" font-family="Helvetica,sans-Serif" font-size="10.00" fill="#000000"> controller</text>
</g>
<!-- Node4 -->
<g id="node4" class="node">
<title>Node4</title>
<g id="a_node4"><a xlink:href="classsys_1_1ctl_1_1Sync.html" target="_top" xlink:title="sys::ctl::Sync\&lt; mhz_t \&gt;">
<polygon fill="#ffffff" stroke="#000000" points="128.5,-142.5 128.5,-161.5 250.5,-161.5 250.5,-142.5 128.5,-142.5"/>
<text text-anchor="middle" x="189.5" y="-149.5" font-family="Helvetica,sans-Serif" font-size="10.00" fill="#000000">sys::ctl::Sync&lt; mhz_t &gt;</text>
</a>
</g>
</g>
<!-- Node4&#45;&gt;Node1 -->
<g id="edge3" class="edge">
<title>Node4&#45;&gt;Node1</title>
<path fill="none" stroke="#9a32cd" stroke-dasharray="5,2" d="M261.2211,-153.1929C295.469,-153.7625 336.0276,-154.437 368.8014,-154.9821"/>
<polygon fill="#9a32cd" stroke="#9a32cd" points="260.8674,-149.6866 250.8106,-153.0197 260.751,-156.6856 260.8674,-149.6866"/>
<text text-anchor="middle" x="316" y="-157" font-family="Helvetica,sans-Serif" font-size="10.00" fill="#000000"> freq</text>
</g>
<!-- Node5 -->
<g id="node5" class="node">
<title>Node5</title>
<polygon fill="#ffffff" stroke="#bfbfbf" points="0,-123.5 0,-142.5 50,-142.5 50,-123.5 0,-123.5"/>
<text text-anchor="middle" x="25" y="-130.5" font-family="Helvetica,sans-Serif" font-size="10.00" fill="#000000">SysctlT</text>
</g>
<!-- Node5&#45;&gt;Node4 -->
<g id="edge4" class="edge">
<title>Node5&#45;&gt;Node4</title>
<path fill="none" stroke="#9a32cd" stroke-dasharray="5,2" d="M60.4299,-137.0922C80.1939,-139.375 105.3659,-142.2824 128.2225,-144.9224"/>
<polygon fill="#9a32cd" stroke="#9a32cd" points="60.6782,-133.5977 50.3426,-135.9271 59.875,-140.5515 60.6782,-133.5977"/>
<text text-anchor="middle" x="83" y="-144" font-family="Helvetica,sans-Serif" font-size="10.00" fill="#000000"> sysctl</text>
</g>
<!-- Node9 -->
<g id="node9" class="node">
<title>Node9</title>
<g id="a_node9"><a xlink:href="classsys_1_1ctl_1_1Sync.html" target="_top" xlink:title="sys::ctl::Sync\&lt; decikelvin_t \&gt;">
<polygon fill="#ffffff" stroke="#000000" points="116,-104.5 116,-123.5 263,-123.5 263,-104.5 116,-104.5"/>
<text text-anchor="middle" x="189.5" y="-111.5" font-family="Helvetica,sans-Serif" font-size="10.00" fill="#000000">sys::ctl::Sync&lt; decikelvin_t &gt;</text>
</a>
</g>
</g>
<!-- Node5&#45;&gt;Node9 -->
<g id="edge10" class="edge">
<title>Node5&#45;&gt;Node9</title>
<path fill="none" stroke="#9a32cd" stroke-dasharray="5,2" d="M60.29,-124.3342C62.8903,-123.8368 65.4806,-123.3839 68,-123 83.369,-120.6581 99.9283,-118.919 115.7275,-117.6297"/>
<polygon fill="#9a32cd" stroke="#9a32cd" points="59.408,-120.943 50.34,-126.4222 60.8457,-127.7938 59.408,-120.943"/>
<text text-anchor="middle" x="83" y="-126" font-family="Helvetica,sans-Serif" font-size="10.00" fill="#000000"> sysctl</text>
</g>
<!-- Node6&#45;&gt;Node1 -->
<g id="edge5" class="edge">
<title>Node6&#45;&gt;Node1</title>
<path fill="none" stroke="#9a32cd" stroke-dasharray="5,2" d="M255.4097,-216.5405C285.0231,-210.5702 320.1672,-202.3359 351,-192 367.8629,-186.3471 385.9649,-178.2568 400.581,-171.1771"/>
<polygon fill="#9a32cd" stroke="#9a32cd" points="254.726,-213.1078 245.5931,-218.4782 256.0816,-219.9753 254.726,-213.1078"/>
<text text-anchor="middle" x="316" y="-214" font-family="Helvetica,sans-Serif" font-size="10.00" fill="#000000"> loads</text>
</g>
<!-- Node7 -->
<g id="node7" class="node">
<title>Node7</title>
<polygon fill="#ffffff" stroke="#bfbfbf" points="155.5,-56.5 155.5,-75.5 223.5,-75.5 223.5,-56.5 155.5,-56.5"/>
<text text-anchor="middle" x="189.5" y="-63.5" font-family="Helvetica,sans-Serif" font-size="10.00" fill="#000000">decikelvin_t</text>
</g>
<!-- Node7&#45;&gt;Node1 -->
<g id="edge7" class="edge">
<title>Node7&#45;&gt;Node1</title>
<path fill="none" stroke="#9a32cd" stroke-dasharray="5,2" d="M234.1976,-65.769C267.6927,-67.131 313.9387,-72.3415 351,-89 377.9006,-101.0915 402.7564,-125.1876 417.1473,-140.945"/>
<polygon fill="#9a32cd" stroke="#9a32cd" points="233.9003,-62.2585 223.7984,-65.4524 233.6872,-69.2552 233.9003,-62.2585"/>
<text text-anchor="middle" x="316" y="-114" font-family="Helvetica,sans-Serif" font-size="10.00" fill="#000000"> temp_crit</text>
<text text-anchor="middle" x="316" y="-103" font-family="Helvetica,sans-Serif" font-size="10.00" fill="#000000">temp_high</text>
<text text-anchor="middle" x="316" y="-92" font-family="Helvetica,sans-Serif" font-size="10.00" fill="#000000">group_maxtemp</text>
</g>
<!-- Node8 -->
<g id="node8" class="node">
<title>Node8</title>
<polygon fill="#ffffff" stroke="#bfbfbf" points="162.5,-.5 162.5,-19.5 216.5,-19.5 216.5,-.5 162.5,-.5"/>
<text text-anchor="middle" x="189.5" y="-7.5" font-family="Helvetica,sans-Serif" font-size="10.00" fill="#000000">cptime_t</text>
</g>
<!-- Node8&#45;&gt;Node1 -->
<g id="edge8" class="edge">
<title>Node8&#45;&gt;Node1</title>
<path fill="none" stroke="#9a32cd" stroke-dasharray="5,2" d="M226.9352,-7.1756C261.7601,-6.3765 313.737,-10.0187 351,-34 391.1038,-59.8095 415.0515,-114.0069 424.8397,-140.608"/>
<polygon fill="#9a32cd" stroke="#9a32cd" points="226.579,-3.6861 216.7133,-7.5486 226.8343,-10.6815 226.579,-3.6861"/>
<text text-anchor="middle" x="316" y="-59" font-family="Helvetica,sans-Serif" font-size="10.00" fill="#000000"> idle</text>
<text text-anchor="middle" x="316" y="-48" font-family="Helvetica,sans-Serif" font-size="10.00" fill="#000000">all</text>
<text text-anchor="middle" x="316" y="-37" font-family="Helvetica,sans-Serif" font-size="10.00" fill="#000000">cp_time</text>
</g>
<!-- Node9&#45;&gt;Node1 -->
<g id="edge9" class="edge">
<title>Node9&#45;&gt;Node1</title>
<path fill="none" stroke="#9a32cd" stroke-dasharray="5,2" d="M271.6523,-124.9676C297.1492,-128.7041 325.2996,-133.1698 351,-138 356.8064,-139.0913 362.834,-140.309 368.8539,-141.5822"/>
<polygon fill="#9a32cd" stroke="#9a32cd" points="272.0493,-121.4886 261.6508,-123.5189 271.0458,-128.4163 272.0493,-121.4886"/>
<text text-anchor="middle" x="316" y="-141" font-family="Helvetica,sans-Serif" font-size="10.00" fill="#000000"> temp</text>
</g>
</g>
</svg>
