<?xml version="1.0" encoding="UTF-8" standalone="no"?>
<!DOCTYPE svg PUBLIC "-//W3C//DTD SVG 1.1//EN"
 "http://www.w3.org/Graphics/SVG/1.1/DTD/svg11.dtd">
<!-- Generated by graphviz version 2.40.1 (20161225.0304)
 -->
<!-- Title: sys/sysctl.hpp Pages: 1 -->
<svg width="401pt" height="140pt"
 viewBox="0.00 0.00 401.00 140.00" xmlns="http://www.w3.org/2000/svg" xmlns:xlink="http://www.w3.org/1999/xlink">
<g id="graph0" class="graph" transform="scale(1 1) rotate(0) translate(4 136)">
<title>sys/sysctl.hpp</title>
<polygon fill="#ffffff" stroke="transparent" points="-4,4 -4,-136 397,-136 397,4 -4,4"/>
<!-- Node0 -->
<g id="node1" class="node">
<title>Node0</title>
<g id="a_node1"><a xlink:title="Implements safer c++ wrappers for the sysctl() interface.">
<polygon fill="#bfbfbf" stroke="#000000" points="154,-112.5 154,-131.5 234,-131.5 234,-112.5 154,-112.5"/>
<text text-anchor="middle" x="194" y="-119.5" font-family="Helvetica,sans-Serif" font-size="10.00" fill="#000000">sys/sysctl.hpp</text>
</a>
</g>
</g>
<!-- Node1 -->
<g id="node2" class="node">
<title>Node1</title>
<g id="a_node2"><a xlink:href="error_8hpp.html" target="_top" xlink:title="Provides system call error handling.">
<polygon fill="#ffffff" stroke="#000000" points="25.5,-56.5 25.5,-75.5 80.5,-75.5 80.5,-56.5 25.5,-56.5"/>
<text text-anchor="middle" x="53" y="-63.5" font-family="Helvetica,sans-Serif" font-size="10.00" fill="#000000">error.hpp</text>
</a>
</g>
</g>
<!-- Node0&#45;&gt;Node1 -->
<g id="edge1" class="edge">
<title>Node0&#45;&gt;Node1</title>
<path fill="none" stroke="#191970" d="M169.7612,-112.3733C146.7211,-103.2226 111.8786,-89.3844 86.2499,-79.2057"/>
<polygon fill="#191970" stroke="#191970" points="87.5082,-75.9395 76.9225,-75.5011 84.9244,-82.4452 87.5082,-75.9395"/>
</g>
<!-- Node4 -->
<g id="node5" class="node">
<title>Node4</title>
<g id="a_node5"><a xlink:title=" ">
<polygon fill="#ffffff" stroke="#bfbfbf" points="99,-56.5 99,-75.5 151,-75.5 151,-56.5 99,-56.5"/>
<text text-anchor="middle" x="125" y="-63.5" font-family="Helvetica,sans-Serif" font-size="10.00" fill="#000000">memory</text>
</a>
</g>
</g>
<!-- Node0&#45;&gt;Node4 -->
<g id="edge4" class="edge">
<title>Node0&#45;&gt;Node4</title>
<path fill="none" stroke="#191970" d="M181.9811,-112.2455C171.7902,-103.9746 156.9638,-91.9416 144.9893,-82.2232"/>
<polygon fill="#191970" stroke="#191970" points="146.8514,-79.2268 136.8812,-75.6427 142.4402,-84.662 146.8514,-79.2268"/>
</g>
<!-- Node5 -->
<g id="node6" class="node">
<title>Node5</title>
<g id="a_node6"><a xlink:title=" ">
<polygon fill="#ffffff" stroke="#bfbfbf" points="169.5,-56.5 169.5,-75.5 218.5,-75.5 218.5,-56.5 169.5,-56.5"/>
<text text-anchor="middle" x="194" y="-63.5" font-family="Helvetica,sans-Serif" font-size="10.00" fill="#000000">cassert</text>
</a>
</g>
</g>
<!-- Node0&#45;&gt;Node5 -->
<g id="edge5" class="edge">
<title>Node0&#45;&gt;Node5</title>
<path fill="none" stroke="#191970" d="M194,-112.2455C194,-104.9382 194,-94.6944 194,-85.7046"/>
<polygon fill="#191970" stroke="#191970" points="197.5001,-85.6426 194,-75.6427 190.5001,-85.6427 197.5001,-85.6426"/>
</g>
<!-- Node6 -->
<g id="node7" class="node">
<title>Node6</title>
<g id="a_node7"><a xlink:title=" ">
<polygon fill="#ffffff" stroke="#bfbfbf" points="237,-56.5 237,-75.5 305,-75.5 305,-56.5 237,-56.5"/>
<text text-anchor="middle" x="271" y="-63.5" font-family="Helvetica,sans-Serif" font-size="10.00" fill="#000000">sys/types.h</text>
</a>
</g>
</g>
<!-- Node0&#45;&gt;Node6 -->
<g id="edge6" class="edge">
<title>Node0&#45;&gt;Node6</title>
<path fill="none" stroke="#191970" d="M207.4124,-112.2455C219.0057,-103.814 235.9748,-91.4729 249.4678,-81.6598"/>
<polygon fill="#191970" stroke="#191970" points="251.7126,-84.355 257.7413,-75.6427 247.5953,-78.6938 251.7126,-84.355"/>
</g>
<!-- Node7 -->
<g id="node8" class="node">
<title>Node7</title>
<g id="a_node8"><a xlink:title=" ">
<polygon fill="#ffffff" stroke="#bfbfbf" points="323,-56.5 323,-75.5 393,-75.5 393,-56.5 323,-56.5"/>
<text text-anchor="middle" x="358" y="-63.5" font-family="Helvetica,sans-Serif" font-size="10.00" fill="#000000">sys/sysctl.h</text>
</a>
</g>
</g>
<!-- Node0&#45;&gt;Node7 -->
<g id="edge7" class="edge">
<title>Node0&#45;&gt;Node7</title>
<path fill="none" stroke="#191970" d="M222.1926,-112.3733C249.3453,-103.1016 290.5907,-89.0178 320.5025,-78.804"/>
<polygon fill="#191970" stroke="#191970" points="321.8428,-82.0449 330.1753,-75.5011 319.5808,-75.4204 321.8428,-82.0449"/>
</g>
<!-- Node2 -->
<g id="node3" class="node">
<title>Node2</title>
<g id="a_node3"><a xlink:title=" ">
<polygon fill="#ffffff" stroke="#bfbfbf" points="0,-.5 0,-19.5 44,-19.5 44,-.5 0,-.5"/>
<text text-anchor="middle" x="22" y="-7.5" font-family="Helvetica,sans-Serif" font-size="10.00" fill="#000000">cerrno</text>
</a>
</g>
</g>
<!-- Node1&#45;&gt;Node2 -->
<g id="edge2" class="edge">
<title>Node1&#45;&gt;Node2</title>
<path fill="none" stroke="#191970" d="M47.6002,-56.2455C43.3773,-48.617 37.3827,-37.7881 32.2559,-28.5267"/>
<polygon fill="#191970" stroke="#191970" points="35.2432,-26.6965 27.3379,-19.6427 29.119,-30.0867 35.2432,-26.6965"/>
</g>
<!-- Node3 -->
<g id="node4" class="node">
<title>Node3</title>
<g id="a_node4"><a xlink:title=" ">
<polygon fill="#ffffff" stroke="#bfbfbf" points="62,-.5 62,-19.5 108,-19.5 108,-.5 62,-.5"/>
<text text-anchor="middle" x="85" y="-7.5" font-family="Helvetica,sans-Serif" font-size="10.00" fill="#000000">cstring</text>
</a>
</g>
</g>
<!-- Node1&#45;&gt;Node3 -->
<g id="edge3" class="edge">
<title>Node1&#45;&gt;Node3</title>
<path fill="none" stroke="#191970" d="M58.574,-56.2455C62.9331,-48.617 69.1211,-37.7881 74.4133,-28.5267"/>
<polygon fill="#191970" stroke="#191970" points="77.5673,-30.0616 79.4899,-19.6427 71.4896,-26.5886 77.5673,-30.0616"/>
</g>
</g>
</svg>
