<?xml version="1.0" encoding="UTF-8" standalone="no"?>
<!DOCTYPE svg PUBLIC "-//W3C//DTD SVG 1.1//EN"
 "http://www.w3.org/Graphics/SVG/1.1/DTD/svg11.dtd">
<!-- Generated by graphviz version 2.42.2 ()
 -->
<!-- Title: src/sys/sysctl.hpp Pages: 1 -->
<svg width="400pt" height="140pt"
 viewBox="0.00 0.00 400.00 140.00" xmlns="http://www.w3.org/2000/svg" xmlns:xlink="http://www.w3.org/1999/xlink">
<g id="graph0" class="graph" transform="scale(1 1) rotate(0) translate(4 136)">
<title>src/sys/sysctl.hpp</title>
<polygon fill="white" stroke="transparent" points="-4,4 -4,-136 396,-136 396,4 -4,4"/>
<!-- Node1 -->
<g id="node1" class="node">
<title>Node1</title>
<g id="a_node1"><a xlink:title=" ">
<polygon fill="#bfbfbf" stroke="black" points="144.5,-112.5 144.5,-131.5 241.5,-131.5 241.5,-112.5 144.5,-112.5"/>
<text text-anchor="middle" x="193" y="-119.5" font-family="Helvetica" font-size="10.00">src/sys/sysctl.hpp</text>
</a>
</g>
</g>
<!-- Node2 -->
<g id="node2" class="node">
<title>Node2</title>
<g id="a_node2"><a xlink:href="error_8hpp.html" target="_top" xlink:title=" ">
<polygon fill="white" stroke="black" points="26,-56.5 26,-75.5 80,-75.5 80,-56.5 26,-56.5"/>
<text text-anchor="middle" x="53" y="-63.5" font-family="Helvetica" font-size="10.00">error.hpp</text>
</a>
</g>
</g>
<!-- Node1&#45;&gt;Node2 -->
<g id="edge1" class="edge">
<title>Node1&#45;&gt;Node2</title>
<path fill="none" stroke="midnightblue" d="M170.82,-112.44C147.57,-103.48 110.85,-89.31 84.58,-79.18"/>
<polygon fill="midnightblue" stroke="midnightblue" points="85.67,-75.85 75.08,-75.52 83.15,-82.38 85.67,-75.85"/>
</g>
<!-- Node5 -->
<g id="node5" class="node">
<title>Node5</title>
<g id="a_node5"><a xlink:title=" ">
<polygon fill="white" stroke="#bfbfbf" points="98,-56.5 98,-75.5 150,-75.5 150,-56.5 98,-56.5"/>
<text text-anchor="middle" x="124" y="-63.5" font-family="Helvetica" font-size="10.00">memory</text>
</a>
</g>
</g>
<!-- Node1&#45;&gt;Node5 -->
<g id="edge4" class="edge">
<title>Node1&#45;&gt;Node5</title>
<path fill="none" stroke="midnightblue" d="M181.91,-112.32C171.51,-104.18 155.74,-91.84 143.28,-82.09"/>
<polygon fill="midnightblue" stroke="midnightblue" points="145.32,-79.24 135.29,-75.83 141.01,-84.75 145.32,-79.24"/>
</g>
<!-- Node6 -->
<g id="node6" class="node">
<title>Node6</title>
<g id="a_node6"><a xlink:title=" ">
<polygon fill="white" stroke="#bfbfbf" points="168.5,-56.5 168.5,-75.5 217.5,-75.5 217.5,-56.5 168.5,-56.5"/>
<text text-anchor="middle" x="193" y="-63.5" font-family="Helvetica" font-size="10.00">cassert</text>
</a>
</g>
</g>
<!-- Node1&#45;&gt;Node6 -->
<g id="edge5" class="edge">
<title>Node1&#45;&gt;Node6</title>
<path fill="none" stroke="midnightblue" d="M193,-112.08C193,-105.01 193,-94.86 193,-85.99"/>
<polygon fill="midnightblue" stroke="midnightblue" points="196.5,-85.75 193,-75.75 189.5,-85.75 196.5,-85.75"/>
</g>
<!-- Node7 -->
<g id="node7" class="node">
<title>Node7</title>
<g id="a_node7"><a xlink:title=" ">
<polygon fill="white" stroke="#bfbfbf" points="236,-56.5 236,-75.5 304,-75.5 304,-56.5 236,-56.5"/>
<text text-anchor="middle" x="270" y="-63.5" font-family="Helvetica" font-size="10.00">sys/types.h</text>
</a>
</g>
</g>
<!-- Node1&#45;&gt;Node7 -->
<g id="edge6" class="edge">
<title>Node1&#45;&gt;Node7</title>
<path fill="none" stroke="midnightblue" d="M205.37,-112.32C217.16,-104.06 235.13,-91.45 249.14,-81.63"/>
<polygon fill="midnightblue" stroke="midnightblue" points="251.48,-84.26 257.66,-75.65 247.46,-78.53 251.48,-84.26"/>
</g>
<!-- Node8 -->
<g id="node8" class="node">
<title>Node8</title>
<g id="a_node8"><a xlink:title=" ">
<polygon fill="white" stroke="#bfbfbf" points="322,-56.5 322,-75.5 392,-75.5 392,-56.5 322,-56.5"/>
<text text-anchor="middle" x="357" y="-63.5" font-family="Helvetica" font-size="10.00">sys/sysctl.h</text>
</a>
</g>
</g>
<!-- Node1&#45;&gt;Node8 -->
<g id="edge7" class="edge">
<title>Node1&#45;&gt;Node8</title>
<path fill="none" stroke="midnightblue" d="M218.99,-112.44C246.7,-103.32 290.75,-88.81 321.62,-78.65"/>
<polygon fill="midnightblue" stroke="midnightblue" points="322.73,-81.97 331.14,-75.52 320.54,-75.32 322.73,-81.97"/>
</g>
<!-- Node3 -->
<g id="node3" class="node">
<title>Node3</title>
<g id="a_node3"><a xlink:title=" ">
<polygon fill="white" stroke="#bfbfbf" points="0,-0.5 0,-19.5 44,-19.5 44,-0.5 0,-0.5"/>
<text text-anchor="middle" x="22" y="-7.5" font-family="Helvetica" font-size="10.00">cerrno</text>
</a>
</g>
</g>
<!-- Node2&#45;&gt;Node3 -->
<g id="edge2" class="edge">
<title>Node2&#45;&gt;Node3</title>
<path fill="none" stroke="midnightblue" d="M47.88,-56.08C43.59,-48.61 37.34,-37.72 32.06,-28.52"/>
<polygon fill="midnightblue" stroke="midnightblue" points="35.04,-26.68 27.02,-19.75 28.97,-30.17 35.04,-26.68"/>
</g>
<!-- Node4 -->
<g id="node4" class="node">
<title>Node4</title>
<g id="a_node4"><a xlink:title=" ">
<polygon fill="white" stroke="#bfbfbf" points="62,-0.5 62,-19.5 108,-19.5 108,-0.5 62,-0.5"/>
<text text-anchor="middle" x="85" y="-7.5" font-family="Helvetica" font-size="10.00">cstring</text>
</a>
</g>
</g>
<!-- Node2&#45;&gt;Node4 -->
<g id="edge3" class="edge">
<title>Node2&#45;&gt;Node4</title>
<path fill="none" stroke="midnightblue" d="M58.28,-56.08C62.71,-48.61 69.16,-37.72 74.62,-28.52"/>
<polygon fill="midnightblue" stroke="midnightblue" points="77.73,-30.14 79.81,-19.75 71.71,-26.57 77.73,-30.14"/>
</g>
</g>
</svg>
