<?xml version="1.0" encoding="UTF-8" standalone="no"?>
<!DOCTYPE svg PUBLIC "-//W3C//DTD SVG 1.1//EN"
 "http://www.w3.org/Graphics/SVG/1.1/DTD/svg11.dtd">
<!-- Generated by graphviz version 2.42.2 ()
 -->
<!-- Title: src/sys/sysctl.hpp Pages: 1 -->
<svg width="401pt" height="140pt"
 viewBox="0.00 0.00 401.00 140.00" xmlns="http://www.w3.org/2000/svg" xmlns:xlink="http://www.w3.org/1999/xlink">
<g id="graph0" class="graph" transform="scale(1 1) rotate(0) translate(4 136)">
<title>src/sys/sysctl.hpp</title>
<polygon fill="white" stroke="transparent" points="-4,4 -4,-136 397,-136 397,4 -4,4"/>
<!-- Node1 -->
<g id="node1" class="node">
<title>Node1</title>
<g id="a_node1"><a xlink:title="Implements safer c++ wrappers for the sysctl() interface.">
<polygon fill="#bfbfbf" stroke="black" points="145.5,-112.5 145.5,-131.5 242.5,-131.5 242.5,-112.5 145.5,-112.5"/>
<text text-anchor="middle" x="194" y="-119.5" font-family="Helvetica,sans-Serif" font-size="10.00">src/sys/sysctl.hpp</text>
</a>
</g>
</g>
<!-- Node2 -->
<g id="node2" class="node">
<title>Node2</title>
<g id="a_node2"><a xlink:href="error_8hpp.html" target="_top" xlink:title="Provides system call error handling.">
<polygon fill="white" stroke="black" points="25.5,-56.5 25.5,-75.5 80.5,-75.5 80.5,-56.5 25.5,-56.5"/>
<text text-anchor="middle" x="53" y="-63.5" font-family="Helvetica,sans-Serif" font-size="10.00">error.hpp</text>
</a>
</g>
</g>
<!-- Node1&#45;&gt;Node2 -->
<g id="edge1" class="edge">
<title>Node1&#45;&gt;Node2</title>
<path fill="none" stroke="midnightblue" d="M171.66,-112.44C148.25,-103.48 111.26,-89.31 84.81,-79.18"/>
<polygon fill="midnightblue" stroke="midnightblue" points="85.83,-75.82 75.24,-75.52 83.32,-82.36 85.83,-75.82"/>
</g>
<!-- Node5 -->
<g id="node5" class="node">
<title>Node5</title>
<g id="a_node5"><a xlink:title=" ">
<polygon fill="white" stroke="#bfbfbf" points="99,-56.5 99,-75.5 151,-75.5 151,-56.5 99,-56.5"/>
<text text-anchor="middle" x="125" y="-63.5" font-family="Helvetica,sans-Serif" font-size="10.00">memory</text>
</a>
</g>
</g>
<!-- Node1&#45;&gt;Node5 -->
<g id="edge4" class="edge">
<title>Node1&#45;&gt;Node5</title>
<path fill="none" stroke="midnightblue" d="M182.91,-112.32C172.51,-104.18 156.74,-91.84 144.28,-82.09"/>
<polygon fill="midnightblue" stroke="midnightblue" points="146.32,-79.24 136.29,-75.83 142.01,-84.75 146.32,-79.24"/>
</g>
<!-- Node6 -->
<g id="node6" class="node">
<title>Node6</title>
<g id="a_node6"><a xlink:title=" ">
<polygon fill="white" stroke="#bfbfbf" points="169.5,-56.5 169.5,-75.5 218.5,-75.5 218.5,-56.5 169.5,-56.5"/>
<text text-anchor="middle" x="194" y="-63.5" font-family="Helvetica,sans-Serif" font-size="10.00">cassert</text>
</a>
</g>
</g>
<!-- Node1&#45;&gt;Node6 -->
<g id="edge5" class="edge">
<title>Node1&#45;&gt;Node6</title>
<path fill="none" stroke="midnightblue" d="M194,-112.08C194,-105.01 194,-94.86 194,-85.99"/>
<polygon fill="midnightblue" stroke="midnightblue" points="197.5,-85.75 194,-75.75 190.5,-85.75 197.5,-85.75"/>
</g>
<!-- Node7 -->
<g id="node7" class="node">
<title>Node7</title>
<g id="a_node7"><a xlink:title=" ">
<polygon fill="white" stroke="#bfbfbf" points="237,-56.5 237,-75.5 305,-75.5 305,-56.5 237,-56.5"/>
<text text-anchor="middle" x="271" y="-63.5" font-family="Helvetica,sans-Serif" font-size="10.00">sys/types.h</text>
</a>
</g>
</g>
<!-- Node1&#45;&gt;Node7 -->
<g id="edge6" class="edge">
<title>Node1&#45;&gt;Node7</title>
<path fill="none" stroke="midnightblue" d="M206.37,-112.32C218.16,-104.06 236.13,-91.45 250.14,-81.63"/>
<polygon fill="midnightblue" stroke="midnightblue" points="252.48,-84.26 258.66,-75.65 248.46,-78.53 252.48,-84.26"/>
</g>
<!-- Node8 -->
<g id="node8" class="node">
<title>Node8</title>
<g id="a_node8"><a xlink:title=" ">
<polygon fill="white" stroke="#bfbfbf" points="323,-56.5 323,-75.5 393,-75.5 393,-56.5 323,-56.5"/>
<text text-anchor="middle" x="358" y="-63.5" font-family="Helvetica,sans-Serif" font-size="10.00">sys/sysctl.h</text>
</a>
</g>
</g>
<!-- Node1&#45;&gt;Node8 -->
<g id="edge7" class="edge">
<title>Node1&#45;&gt;Node8</title>
<path fill="none" stroke="midnightblue" d="M219.99,-112.44C247.7,-103.32 291.75,-88.81 322.62,-78.65"/>
<polygon fill="midnightblue" stroke="midnightblue" points="323.73,-81.97 332.14,-75.52 321.54,-75.32 323.73,-81.97"/>
</g>
<!-- Node3 -->
<g id="node3" class="node">
<title>Node3</title>
<g id="a_node3"><a xlink:title=" ">
<polygon fill="white" stroke="#bfbfbf" points="0,-0.5 0,-19.5 44,-19.5 44,-0.5 0,-0.5"/>
<text text-anchor="middle" x="22" y="-7.5" font-family="Helvetica,sans-Serif" font-size="10.00">cerrno</text>
</a>
</g>
</g>
<!-- Node2&#45;&gt;Node3 -->
<g id="edge2" class="edge">
<title>Node2&#45;&gt;Node3</title>
<path fill="none" stroke="midnightblue" d="M47.88,-56.08C43.59,-48.61 37.34,-37.72 32.06,-28.52"/>
<polygon fill="midnightblue" stroke="midnightblue" points="35.04,-26.68 27.02,-19.75 28.97,-30.17 35.04,-26.68"/>
</g>
<!-- Node4 -->
<g id="node4" class="node">
<title>Node4</title>
<g id="a_node4"><a xlink:title=" ">
<polygon fill="white" stroke="#bfbfbf" points="62,-0.5 62,-19.5 108,-19.5 108,-0.5 62,-0.5"/>
<text text-anchor="middle" x="85" y="-7.5" font-family="Helvetica,sans-Serif" font-size="10.00">cstring</text>
</a>
</g>
</g>
<!-- Node2&#45;&gt;Node4 -->
<g id="edge3" class="edge">
<title>Node2&#45;&gt;Node4</title>
<path fill="none" stroke="midnightblue" d="M58.28,-56.08C62.71,-48.61 69.16,-37.72 74.62,-28.52"/>
<polygon fill="midnightblue" stroke="midnightblue" points="77.73,-30.14 79.81,-19.75 71.71,-26.57 77.73,-30.14"/>
</g>
</g>
</svg>
