<?xml version="1.0" encoding="UTF-8" standalone="no"?>
<!DOCTYPE svg PUBLIC "-//W3C//DTD SVG 1.1//EN"
 "http://www.w3.org/Graphics/SVG/1.1/DTD/svg11.dtd">
<!-- Generated by graphviz version 2.42.2 ()
 -->
<!-- Title: src/types.hpp Pages: 1 -->
<svg width="408pt" height="140pt"
 viewBox="0.00 0.00 407.50 140.00" xmlns="http://www.w3.org/2000/svg" xmlns:xlink="http://www.w3.org/1999/xlink">
<g id="graph0" class="graph" transform="scale(1 1) rotate(0) translate(4 136)">
<title>src/types.hpp</title>
<polygon fill="white" stroke="transparent" points="-4,4 -4,-136 403.5,-136 403.5,4 -4,4"/>
<!-- Node1 -->
<g id="node1" class="node">
<title>Node1</title>
<g id="a_node1"><a xlink:title="A collection of type aliases.">
<polygon fill="#bfbfbf" stroke="black" points="145,-112.5 145,-131.5 221,-131.5 221,-112.5 145,-112.5"/>
<text text-anchor="middle" x="183" y="-119.5" font-family="Helvetica" font-size="10.00">src/types.hpp</text>
</a>
</g>
</g>
<!-- Node2 -->
<g id="node2" class="node">
<title>Node2</title>
<g id="a_node2"><a xlink:href="clas_8hpp.html" target="_top" xlink:title="Provides functions to process command line arguments.">
<polygon fill="white" stroke="black" points="47,-56.5 47,-75.5 117,-75.5 117,-56.5 47,-56.5"/>
<text text-anchor="middle" x="82" y="-63.5" font-family="Helvetica" font-size="10.00">src/clas.hpp</text>
</a>
</g>
</g>
<!-- Node1&#45;&gt;Node2 -->
<g id="edge1" class="edge">
<title>Node1&#45;&gt;Node2</title>
<path fill="none" stroke="midnightblue" d="M157.92,-107.59C139.24,-97.61 114.3,-84.27 98.19,-75.65"/>
<polygon fill="midnightblue" stroke="midnightblue" points="156.3,-110.7 166.77,-112.32 159.6,-104.52 156.3,-110.7"/>
</g>
<!-- Node4 -->
<g id="node4" class="node">
<title>Node4</title>
<g id="a_node4"><a xlink:href="loadrec_8cpp.html" target="_top" xlink:title="Implements a load recorder, useful for simulating loads to test CPU clock daemons and settings.">
<polygon fill="white" stroke="black" points="88.5,-0.5 88.5,-19.5 171.5,-19.5 171.5,-0.5 88.5,-0.5"/>
<text text-anchor="middle" x="130" y="-7.5" font-family="Helvetica" font-size="10.00">src/loadrec.cpp</text>
</a>
</g>
</g>
<!-- Node1&#45;&gt;Node4 -->
<g id="edge9" class="edge">
<title>Node1&#45;&gt;Node4</title>
<path fill="none" stroke="midnightblue" d="M174.48,-103.32C162.94,-79.37 142.79,-37.55 134.14,-19.59"/>
<polygon fill="midnightblue" stroke="midnightblue" points="171.35,-104.88 178.84,-112.37 177.65,-101.84 171.35,-104.88"/>
</g>
<!-- Node5 -->
<g id="node5" class="node">
<title>Node5</title>
<g id="a_node5"><a xlink:href="powerd_09_09_8cpp.html" target="_top" xlink:title="Implements powerd++ a drop in replacement for FreeBSD&#39;s powerd.">
<polygon fill="white" stroke="black" points="189.5,-0.5 189.5,-19.5 284.5,-19.5 284.5,-0.5 189.5,-0.5"/>
<text text-anchor="middle" x="237" y="-7.5" font-family="Helvetica" font-size="10.00">src/powerd++.cpp</text>
</a>
</g>
</g>
<!-- Node1&#45;&gt;Node5 -->
<g id="edge10" class="edge">
<title>Node1&#45;&gt;Node5</title>
<path fill="none" stroke="midnightblue" d="M230.97,-109.97C248.91,-103.27 267.46,-92.66 278,-76 290.77,-55.82 265.64,-32.08 249.36,-19.63"/>
<polygon fill="midnightblue" stroke="midnightblue" points="229.48,-106.78 221.13,-113.3 231.73,-113.41 229.48,-106.78"/>
</g>
<!-- Node6 -->
<g id="node6" class="node">
<title>Node6</title>
<g id="a_node6"><a xlink:href="constants_8hpp.html" target="_top" xlink:title="Defines a collection of constants.">
<polygon fill="white" stroke="black" points="173.5,-56.5 173.5,-75.5 268.5,-75.5 268.5,-56.5 173.5,-56.5"/>
<text text-anchor="middle" x="221" y="-63.5" font-family="Helvetica" font-size="10.00">src/constants.hpp</text>
</a>
</g>
</g>
<!-- Node1&#45;&gt;Node6 -->
<g id="edge5" class="edge">
<title>Node1&#45;&gt;Node6</title>
<path fill="none" stroke="midnightblue" d="M195.06,-103.86C201.64,-94.5 209.51,-83.33 214.84,-75.75"/>
<polygon fill="midnightblue" stroke="midnightblue" points="192.17,-101.89 189.27,-112.08 197.89,-105.92 192.17,-101.89"/>
</g>
<!-- Node3 -->
<g id="node3" class="node">
<title>Node3</title>
<g id="a_node3"><a xlink:href="clas_8cpp.html" target="_top" xlink:title="Implements functions to process command line arguments.">
<polygon fill="white" stroke="black" points="0,-0.5 0,-19.5 70,-19.5 70,-0.5 0,-0.5"/>
<text text-anchor="middle" x="35" y="-7.5" font-family="Helvetica" font-size="10.00">src/clas.cpp</text>
</a>
</g>
</g>
<!-- Node2&#45;&gt;Node3 -->
<g id="edge2" class="edge">
<title>Node2&#45;&gt;Node3</title>
<path fill="none" stroke="midnightblue" d="M67.58,-48.43C59.34,-38.97 49.35,-27.48 42.62,-19.75"/>
<polygon fill="midnightblue" stroke="midnightblue" points="65.03,-50.84 74.24,-56.08 70.31,-46.24 65.03,-50.84"/>
</g>
<!-- Node2&#45;&gt;Node4 -->
<g id="edge3" class="edge">
<title>Node2&#45;&gt;Node4</title>
<path fill="none" stroke="midnightblue" d="M96.73,-48.43C105.14,-38.97 115.35,-27.48 122.22,-19.75"/>
<polygon fill="midnightblue" stroke="midnightblue" points="93.95,-46.28 89.93,-56.08 99.19,-50.93 93.95,-46.28"/>
</g>
<!-- Node2&#45;&gt;Node5 -->
<g id="edge4" class="edge">
<title>Node2&#45;&gt;Node5</title>
<path fill="none" stroke="midnightblue" d="M116.33,-53.04C145.5,-42.88 186.64,-28.55 212.55,-19.52"/>
<polygon fill="midnightblue" stroke="midnightblue" points="114.85,-49.85 106.56,-56.44 117.16,-56.46 114.85,-49.85"/>
</g>
<!-- Node6&#45;&gt;Node4 -->
<g id="edge7" class="edge">
<title>Node6&#45;&gt;Node4</title>
<path fill="none" stroke="midnightblue" d="M197.71,-51.18C180.96,-41.24 158.9,-28.15 144.58,-19.65"/>
<polygon fill="midnightblue" stroke="midnightblue" points="195.99,-54.23 206.38,-56.32 199.57,-48.21 195.99,-54.23"/>
</g>
<!-- Node6&#45;&gt;Node5 -->
<g id="edge8" class="edge">
<title>Node6&#45;&gt;Node5</title>
<path fill="none" stroke="midnightblue" d="M226.51,-46.4C229.19,-37.36 232.28,-26.94 234.41,-19.75"/>
<polygon fill="midnightblue" stroke="midnightblue" points="223.13,-45.5 223.64,-56.08 229.84,-47.49 223.13,-45.5"/>
</g>
<!-- Node7 -->
<g id="node7" class="node">
<title>Node7</title>
<g id="a_node7"><a xlink:href="libloadplay_8cpp.html" target="_top" xlink:title="Implements a library intended to be injected into a clock frequency deamon via LD_PRELOAD.">
<polygon fill="white" stroke="black" points="302.5,-0.5 302.5,-19.5 399.5,-19.5 399.5,-0.5 302.5,-0.5"/>
<text text-anchor="middle" x="351" y="-7.5" font-family="Helvetica" font-size="10.00">src/libloadplay.cpp</text>
</a>
</g>
</g>
<!-- Node6&#45;&gt;Node7 -->
<g id="edge6" class="edge">
<title>Node6&#45;&gt;Node7</title>
<path fill="none" stroke="midnightblue" d="M251.09,-52.5C275.46,-42.38 309.14,-28.39 330.5,-19.52"/>
<polygon fill="midnightblue" stroke="midnightblue" points="249.49,-49.38 241.6,-56.44 252.18,-55.84 249.49,-49.38"/>
</g>
</g>
</svg>
