<?xml version="1.0" encoding="UTF-8" standalone="no"?>
<!DOCTYPE svg PUBLIC "-//W3C//DTD SVG 1.1//EN"
 "http://www.w3.org/Graphics/SVG/1.1/DTD/svg11.dtd">
<!-- Generated by graphviz version 2.42.2 ()
 -->
<!-- Title: src/types.hpp Pages: 1 -->
<svg width="319pt" height="140pt"
 viewBox="0.00 0.00 319.00 140.00" xmlns="http://www.w3.org/2000/svg" xmlns:xlink="http://www.w3.org/1999/xlink">
<g id="graph0" class="graph" transform="scale(1 1) rotate(0) translate(4 136)">
<title>src/types.hpp</title>
<polygon fill="white" stroke="transparent" points="-4,4 -4,-136 315,-136 315,4 -4,4"/>
<!-- Node1 -->
<g id="node1" class="node">
<title>Node1</title>
<g id="a_node1"><a xlink:title=" ">
<polygon fill="#bfbfbf" stroke="black" points="149.5,-112.5 149.5,-131.5 225.5,-131.5 225.5,-112.5 149.5,-112.5"/>
<text text-anchor="middle" x="187.5" y="-119.5" font-family="Helvetica" font-size="10.00">src/types.hpp</text>
</a>
</g>
</g>
<!-- Node2 -->
<g id="node2" class="node">
<title>Node2</title>
<g id="a_node2"><a xlink:href="clas_8hpp.html" target="_top" xlink:title=" ">
<polygon fill="white" stroke="black" points="184.5,-56.5 184.5,-75.5 254.5,-75.5 254.5,-56.5 184.5,-56.5"/>
<text text-anchor="middle" x="219.5" y="-63.5" font-family="Helvetica" font-size="10.00">src/clas.hpp</text>
</a>
</g>
</g>
<!-- Node1&#45;&gt;Node2 -->
<g id="edge1" class="edge">
<title>Node1&#45;&gt;Node2</title>
<path fill="none" stroke="midnightblue" d="M198,-103.27C203.47,-94.05 209.92,-83.17 214.31,-75.75"/>
<polygon fill="midnightblue" stroke="midnightblue" points="194.87,-101.7 192.78,-112.08 200.89,-105.26 194.87,-101.7"/>
</g>
<!-- Node3 -->
<g id="node3" class="node">
<title>Node3</title>
<g id="a_node3"><a xlink:href="loadrec_8cpp.html" target="_top" xlink:title=" ">
<polygon fill="white" stroke="black" points="115,-0.5 115,-19.5 198,-19.5 198,-0.5 115,-0.5"/>
<text text-anchor="middle" x="156.5" y="-7.5" font-family="Helvetica" font-size="10.00">src/loadrec.cpp</text>
</a>
</g>
</g>
<!-- Node1&#45;&gt;Node3 -->
<g id="edge8" class="edge">
<title>Node1&#45;&gt;Node3</title>
<path fill="none" stroke="midnightblue" d="M182.34,-102.67C175.56,-78.62 163.94,-37.39 158.92,-19.59"/>
<polygon fill="midnightblue" stroke="midnightblue" points="178.99,-103.69 185.07,-112.37 185.72,-101.79 178.99,-103.69"/>
</g>
<!-- Node4 -->
<g id="node4" class="node">
<title>Node4</title>
<g id="a_node4"><a xlink:href="powerd_09_09_8cpp.html" target="_top" xlink:title=" ">
<polygon fill="white" stroke="black" points="216,-0.5 216,-19.5 311,-19.5 311,-0.5 216,-0.5"/>
<text text-anchor="middle" x="263.5" y="-7.5" font-family="Helvetica" font-size="10.00">src/powerd++.cpp</text>
</a>
</g>
</g>
<!-- Node1&#45;&gt;Node4 -->
<g id="edge9" class="edge">
<title>Node1&#45;&gt;Node4</title>
<path fill="none" stroke="midnightblue" d="M225.02,-108.23C239.73,-101.16 255.09,-90.75 263.5,-76 273.67,-58.16 269.38,-32.83 266.05,-19.68"/>
<polygon fill="midnightblue" stroke="midnightblue" points="223.26,-105.17 215.52,-112.4 226.08,-111.58 223.26,-105.17"/>
</g>
<!-- Node5 -->
<g id="node5" class="node">
<title>Node5</title>
<g id="a_node5"><a xlink:href="constants_8hpp.html" target="_top" xlink:title=" ">
<polygon fill="white" stroke="black" points="33,-56.5 33,-75.5 128,-75.5 128,-56.5 33,-56.5"/>
<text text-anchor="middle" x="80.5" y="-63.5" font-family="Helvetica" font-size="10.00">src/constants.hpp</text>
</a>
</g>
</g>
<!-- Node1&#45;&gt;Node5 -->
<g id="edge4" class="edge">
<title>Node1&#45;&gt;Node5</title>
<path fill="none" stroke="midnightblue" d="M161.2,-107.73C141.39,-97.73 114.79,-84.31 97.65,-75.65"/>
<polygon fill="midnightblue" stroke="midnightblue" points="159.8,-110.94 170.31,-112.32 162.96,-104.69 159.8,-110.94"/>
</g>
<!-- Node2&#45;&gt;Node3 -->
<g id="edge2" class="edge">
<title>Node2&#45;&gt;Node3</title>
<path fill="none" stroke="midnightblue" d="M201.46,-49.54C190.23,-39.91 176.18,-27.87 166.81,-19.83"/>
<polygon fill="midnightblue" stroke="midnightblue" points="199.51,-52.47 209.38,-56.32 204.06,-47.16 199.51,-52.47"/>
</g>
<!-- Node2&#45;&gt;Node4 -->
<g id="edge3" class="edge">
<title>Node2&#45;&gt;Node4</title>
<path fill="none" stroke="midnightblue" d="M233.23,-48.14C240.9,-38.74 250.13,-27.4 256.37,-19.75"/>
<polygon fill="midnightblue" stroke="midnightblue" points="230.37,-46.12 226.77,-56.08 235.8,-50.54 230.37,-46.12"/>
</g>
<!-- Node5&#45;&gt;Node3 -->
<g id="edge6" class="edge">
<title>Node5&#45;&gt;Node3</title>
<path fill="none" stroke="midnightblue" d="M101.08,-50.38C114.81,-40.62 132.43,-28.11 144.07,-19.83"/>
<polygon fill="midnightblue" stroke="midnightblue" points="98.84,-47.68 92.71,-56.32 102.89,-53.38 98.84,-47.68"/>
</g>
<!-- Node5&#45;&gt;Node4 -->
<g id="edge7" class="edge">
<title>Node5&#45;&gt;Node4</title>
<path fill="none" stroke="midnightblue" d="M119.24,-53.57C153.76,-43.38 203.51,-28.7 234.64,-19.52"/>
<polygon fill="midnightblue" stroke="midnightblue" points="118.1,-50.26 109.5,-56.44 120.08,-56.97 118.1,-50.26"/>
</g>
<!-- Node6 -->
<g id="node6" class="node">
<title>Node6</title>
<g id="a_node6"><a xlink:href="libloadplay_8cpp.html" target="_top" xlink:title=" ">
<polygon fill="white" stroke="black" points="0,-0.5 0,-19.5 97,-19.5 97,-0.5 0,-0.5"/>
<text text-anchor="middle" x="48.5" y="-7.5" font-family="Helvetica" font-size="10.00">src/libloadplay.cpp</text>
</a>
</g>
</g>
<!-- Node5&#45;&gt;Node6 -->
<g id="edge5" class="edge">
<title>Node5&#45;&gt;Node6</title>
<path fill="none" stroke="midnightblue" d="M70,-47.27C64.53,-38.05 58.08,-27.17 53.69,-19.75"/>
<polygon fill="midnightblue" stroke="midnightblue" points="67.11,-49.26 75.22,-56.08 73.13,-45.7 67.11,-49.26"/>
</g>
</g>
</svg>
