<?xml version="1.0" encoding="UTF-8" standalone="no"?>
<!DOCTYPE svg PUBLIC "-//W3C//DTD SVG 1.1//EN"
 "http://www.w3.org/Graphics/SVG/1.1/DTD/svg11.dtd">
<!-- Generated by graphviz version 2.40.1 (20161225.0304)
 -->
<!-- Title: types.hpp Pages: 1 -->
<svg width="261pt" height="140pt"
 viewBox="0.00 0.00 261.00 140.00" xmlns="http://www.w3.org/2000/svg" xmlns:xlink="http://www.w3.org/1999/xlink">
<g id="graph0" class="graph" transform="scale(1 1) rotate(0) translate(4 136)">
<title>types.hpp</title>
<polygon fill="#ffffff" stroke="transparent" points="-4,4 -4,-136 257,-136 257,4 -4,4"/>
<!-- Node2 -->
<g id="node1" class="node">
<title>Node2</title>
<polygon fill="#bfbfbf" stroke="#000000" points="120,-112.5 120,-131.5 179,-131.5 179,-112.5 120,-112.5"/>
<text text-anchor="middle" x="149.5" y="-119.5" font-family="Helvetica,sans-Serif" font-size="10.00" fill="#000000">types.hpp</text>
</g>
<!-- Node3 -->
<g id="node2" class="node">
<title>Node3</title>
<g id="a_node2"><a xlink:href="clas_8hpp.html" target="_top" xlink:title="Implements functions to process command line arguments. ">
<polygon fill="#ffffff" stroke="#000000" points="151,-56.5 151,-75.5 204,-75.5 204,-56.5 151,-56.5"/>
<text text-anchor="middle" x="177.5" y="-63.5" font-family="Helvetica,sans-Serif" font-size="10.00" fill="#000000">clas.hpp</text>
</a>
</g>
</g>
<!-- Node2&#45;&gt;Node3 -->
<g id="edge1" class="edge">
<title>Node2&#45;&gt;Node3</title>
<path fill="none" stroke="#191970" d="M158.9781,-103.0437C163.5835,-93.8331 168.9201,-83.1598 172.6787,-75.6427"/>
<polygon fill="#191970" stroke="#191970" points="155.7189,-101.736 154.3772,-112.2455 161.9799,-104.8665 155.7189,-101.736"/>
</g>
<!-- Node4 -->
<g id="node3" class="node">
<title>Node4</title>
<g id="a_node3"><a xlink:href="loadrec_8cpp.html" target="_top" xlink:title="Implements a load recorder, useful for simulating loads to test CPU clock daemons and settings...">
<polygon fill="#ffffff" stroke="#000000" points="89,-.5 89,-19.5 156,-19.5 156,-.5 89,-.5"/>
<text text-anchor="middle" x="122.5" y="-7.5" font-family="Helvetica,sans-Serif" font-size="10.00" fill="#000000">loadrec.cpp</text>
</a>
</g>
</g>
<!-- Node2&#45;&gt;Node4 -->
<g id="edge8" class="edge">
<title>Node2&#45;&gt;Node4</title>
<path fill="none" stroke="#191970" d="M144.8229,-102.5987C138.9804,-78.363 129.2151,-37.8551 124.7962,-19.5249"/>
<polygon fill="#191970" stroke="#191970" points="141.4518,-103.5497 147.198,-112.4509 148.2569,-101.9092 141.4518,-103.5497"/>
</g>
<!-- Node5 -->
<g id="node4" class="node">
<title>Node5</title>
<g id="a_node4"><a xlink:href="powerd_09_09_8cpp.html" target="_top" xlink:title="Implements powerd++ a drop in replacement for FreeBSD&#39;s powerd. ">
<polygon fill="#ffffff" stroke="#000000" points="174,-.5 174,-19.5 253,-19.5 253,-.5 174,-.5"/>
<text text-anchor="middle" x="213.5" y="-7.5" font-family="Helvetica,sans-Serif" font-size="10.00" fill="#000000">powerd++.cpp</text>
</a>
</g>
</g>
<!-- Node2&#45;&gt;Node5 -->
<g id="edge9" class="edge">
<title>Node2&#45;&gt;Node5</title>
<path fill="none" stroke="#191970" d="M181.1519,-107.4623C193.6064,-99.9674 206.567,-89.5211 213.5,-76 222.806,-57.8509 219.1708,-33.0321 216.0918,-19.593"/>
<polygon fill="#191970" stroke="#191970" points="179.3072,-104.4832 172.266,-112.3999 182.7072,-110.6021 179.3072,-104.4832"/>
</g>
<!-- Node6 -->
<g id="node5" class="node">
<title>Node6</title>
<g id="a_node5"><a xlink:href="constants_8hpp.html" target="_top" xlink:title="Defines a collection of constants. ">
<polygon fill="#ffffff" stroke="#000000" points="16.5,-56.5 16.5,-75.5 94.5,-75.5 94.5,-56.5 16.5,-56.5"/>
<text text-anchor="middle" x="55.5" y="-63.5" font-family="Helvetica,sans-Serif" font-size="10.00" fill="#000000">constants.hpp</text>
</a>
</g>
</g>
<!-- Node2&#45;&gt;Node6 -->
<g id="edge4" class="edge">
<title>Node2&#45;&gt;Node6</title>
<path fill="none" stroke="#191970" d="M124.3995,-107.0465C107.674,-97.0824 86.1832,-84.2794 71.6859,-75.6427"/>
<polygon fill="#191970" stroke="#191970" points="122.7441,-110.1343 133.1264,-112.2455 126.3268,-104.1206 122.7441,-110.1343"/>
</g>
<!-- Node3&#45;&gt;Node4 -->
<g id="edge2" class="edge">
<title>Node3&#45;&gt;Node4</title>
<path fill="none" stroke="#191970" d="M160.8774,-49.0751C151.4145,-39.4402 139.9031,-27.7196 131.9705,-19.6427"/>
<polygon fill="#191970" stroke="#191970" points="158.4155,-51.5635 167.9197,-56.2455 163.4097,-46.6585 158.4155,-51.5635"/>
</g>
<!-- Node3&#45;&gt;Node5 -->
<g id="edge3" class="edge">
<title>Node3&#45;&gt;Node5</title>
<path fill="none" stroke="#191970" d="M189.3096,-47.6296C195.3144,-38.2887 202.3659,-27.3197 207.3011,-19.6427"/>
<polygon fill="#191970" stroke="#191970" points="186.2342,-45.9411 183.7707,-56.2455 192.1225,-49.7264 186.2342,-45.9411"/>
</g>
<!-- Node6&#45;&gt;Node4 -->
<g id="edge6" class="edge">
<title>Node6&#45;&gt;Node4</title>
<path fill="none" stroke="#191970" d="M75.0676,-49.645C86.7198,-39.9058 101.1084,-27.8795 110.9632,-19.6427"/>
<polygon fill="#191970" stroke="#191970" points="72.5988,-47.1469 67.1705,-56.2455 77.0879,-52.5179 72.5988,-47.1469"/>
</g>
<!-- Node6&#45;&gt;Node5 -->
<g id="edge7" class="edge">
<title>Node6&#45;&gt;Node5</title>
<path fill="none" stroke="#191970" d="M92.3955,-52.9231C121.2787,-42.686 160.7706,-28.6889 186.6933,-19.5011"/>
<polygon fill="#191970" stroke="#191970" points="90.9174,-49.7336 82.6612,-56.3733 93.2559,-56.3314 90.9174,-49.7336"/>
</g>
<!-- Node7 -->
<g id="node6" class="node">
<title>Node7</title>
<g id="a_node6"><a xlink:href="loadplay_8cpp.html" target="_top" xlink:title="Implements a library intended to be injected into a clock frequency deamon via LD_PRELOAD. ">
<polygon fill="#ffffff" stroke="#000000" points="0,-.5 0,-19.5 71,-19.5 71,-.5 0,-.5"/>
<text text-anchor="middle" x="35.5" y="-7.5" font-family="Helvetica,sans-Serif" font-size="10.00" fill="#000000">loadplay.cpp</text>
</a>
</g>
</g>
<!-- Node6&#45;&gt;Node7 -->
<g id="edge5" class="edge">
<title>Node6&#45;&gt;Node7</title>
<path fill="none" stroke="#191970" d="M48.6247,-46.7493C45.3594,-37.6064 41.5999,-27.0798 38.9438,-19.6427"/>
<polygon fill="#191970" stroke="#191970" points="45.3567,-48.0053 52.0163,-56.2455 51.9489,-45.6509 45.3567,-48.0053"/>
</g>
</g>
</svg>
