<?xml version="1.0" encoding="UTF-8" standalone="no"?>
<!DOCTYPE svg PUBLIC "-//W3C//DTD SVG 1.1//EN"
 "http://www.w3.org/Graphics/SVG/1.1/DTD/svg11.dtd">
<!-- Generated by graphviz version 2.40.1 (20161225.0304)
 -->
<!-- Title: utility.hpp Pages: 1 -->
<svg width="348pt" height="196pt"
 viewBox="0.00 0.00 348.00 196.00" xmlns="http://www.w3.org/2000/svg" xmlns:xlink="http://www.w3.org/1999/xlink">
<g id="graph0" class="graph" transform="scale(1 1) rotate(0) translate(4 192)">
<title>utility.hpp</title>
<polygon fill="#ffffff" stroke="transparent" points="-4,4 -4,-192 344,-192 344,4 -4,4"/>
<!-- Node4 -->
<g id="node1" class="node">
<title>Node4</title>
<g id="a_node1"><a xlink:title="Implements generally useful functions.">
<polygon fill="#bfbfbf" stroke="#000000" points="134,-168.5 134,-187.5 193,-187.5 193,-168.5 134,-168.5"/>
<text text-anchor="middle" x="163.5" y="-175.5" font-family="Helvetica,sans-Serif" font-size="10.00" fill="#000000">utility.hpp</text>
</a>
</g>
</g>
<!-- Node5 -->
<g id="node2" class="node">
<title>Node5</title>
<g id="a_node2"><a xlink:href="errors_8hpp.html" target="_top" xlink:title="Common error handling code.">
<polygon fill="#ffffff" stroke="#000000" points="49.5,-112.5 49.5,-131.5 109.5,-131.5 109.5,-112.5 49.5,-112.5"/>
<text text-anchor="middle" x="79.5" y="-119.5" font-family="Helvetica,sans-Serif" font-size="10.00" fill="#000000">errors.hpp</text>
</a>
</g>
</g>
<!-- Node4&#45;&gt;Node5 -->
<g id="edge1" class="edge">
<title>Node4&#45;&gt;Node5</title>
<path fill="none" stroke="#191970" d="M140.2351,-162.49C125.4144,-152.6096 106.6791,-140.1194 93.964,-131.6427"/>
<polygon fill="#191970" stroke="#191970" points="138.6063,-165.6107 148.8683,-168.2455 142.4893,-159.7863 138.6063,-165.6107"/>
</g>
<!-- Node6 -->
<g id="node3" class="node">
<title>Node6</title>
<g id="a_node3"><a xlink:href="clas_8hpp.html" target="_top" xlink:title="Implements functions to process command line arguments.">
<polygon fill="#ffffff" stroke="#000000" points="106,-56.5 106,-75.5 159,-75.5 159,-56.5 106,-56.5"/>
<text text-anchor="middle" x="132.5" y="-63.5" font-family="Helvetica,sans-Serif" font-size="10.00" fill="#000000">clas.hpp</text>
</a>
</g>
</g>
<!-- Node4&#45;&gt;Node6 -->
<g id="edge7" class="edge">
<title>Node4&#45;&gt;Node6</title>
<path fill="none" stroke="#191970" d="M158.13,-158.5987C151.4219,-134.363 140.2099,-93.8551 135.1364,-75.5249"/>
<polygon fill="#191970" stroke="#191970" points="154.8161,-159.747 160.857,-168.4509 161.5625,-157.8796 154.8161,-159.747"/>
</g>
<!-- Node7 -->
<g id="node4" class="node">
<title>Node7</title>
<g id="a_node4"><a xlink:href="loadrec_8cpp.html" target="_top" xlink:title="Implements a load recorder, useful for simulating loads to test CPU clock daemons and settings.">
<polygon fill="#ffffff" stroke="#000000" points="126,-.5 126,-19.5 193,-19.5 193,-.5 126,-.5"/>
<text text-anchor="middle" x="159.5" y="-7.5" font-family="Helvetica,sans-Serif" font-size="10.00" fill="#000000">loadrec.cpp</text>
</a>
</g>
</g>
<!-- Node4&#45;&gt;Node7 -->
<g id="edge12" class="edge">
<title>Node4&#45;&gt;Node7</title>
<path fill="none" stroke="#191970" d="M165.9473,-158.4851C168.5937,-134.3589 171.995,-92.0653 168.5,-56 167.2755,-43.3646 164.2014,-29.0471 161.9865,-19.7895"/>
<polygon fill="#191970" stroke="#191970" points="162.4633,-158.1449 164.7771,-168.4839 169.4158,-158.9586 162.4633,-158.1449"/>
</g>
<!-- Node8 -->
<g id="node5" class="node">
<title>Node8</title>
<g id="a_node5"><a xlink:href="powerd_09_09_8cpp.html" target="_top" xlink:title="Implements powerd++ a drop in replacement for FreeBSD&#39;s powerd.">
<polygon fill="#ffffff" stroke="#000000" points="0,-.5 0,-19.5 79,-19.5 79,-.5 0,-.5"/>
<text text-anchor="middle" x="39.5" y="-7.5" font-family="Helvetica,sans-Serif" font-size="10.00" fill="#000000">powerd++.cpp</text>
</a>
</g>
</g>
<!-- Node4&#45;&gt;Node8 -->
<g id="edge13" class="edge">
<title>Node4&#45;&gt;Node8</title>
<path fill="none" stroke="#191970" d="M123.7552,-168.3522C91.712,-159.679 50.4074,-146.1585 40.5,-132 16.0911,-97.1176 29.3953,-41.8021 36.2387,-19.6438"/>
<polygon fill="#191970" stroke="#191970" points="123.2203,-171.8306 133.7819,-170.9926 125.0029,-165.0614 123.2203,-171.8306"/>
</g>
<!-- Node9 -->
<g id="node6" class="node">
<title>Node9</title>
<g id="a_node6"><a xlink:href="loadplay_8cpp.html" target="_top" xlink:title="Implements a library intended to be injected into a clock frequency deamon via LD_PRELOAD.">
<polygon fill="#ffffff" stroke="#000000" points="269,-56.5 269,-75.5 340,-75.5 340,-56.5 269,-56.5"/>
<text text-anchor="middle" x="304.5" y="-63.5" font-family="Helvetica,sans-Serif" font-size="10.00" fill="#000000">loadplay.cpp</text>
</a>
</g>
</g>
<!-- Node4&#45;&gt;Node9 -->
<g id="edge8" class="edge">
<title>Node4&#45;&gt;Node9</title>
<path fill="none" stroke="#191970" d="M203.0536,-173.8045C231.466,-168.676 268.4937,-157.2862 290.5,-132 304.3414,-116.0957 305.6397,-89.9274 305.1907,-75.7917"/>
<polygon fill="#191970" stroke="#191970" points="202.3335,-170.3753 193.0194,-175.4247 203.4495,-177.2858 202.3335,-170.3753"/>
</g>
<!-- Node10 -->
<g id="node7" class="node">
<title>Node10</title>
<g id="a_node7"><a xlink:href="version_8hpp.html" target="_top" xlink:title="Defines types and constants used for version management.">
<polygon fill="#ffffff" stroke="#000000" points="214,-112.5 214,-131.5 281,-131.5 281,-112.5 214,-112.5"/>
<text text-anchor="middle" x="247.5" y="-119.5" font-family="Helvetica,sans-Serif" font-size="10.00" fill="#000000">version.hpp</text>
</a>
</g>
</g>
<!-- Node4&#45;&gt;Node10 -->
<g id="edge9" class="edge">
<title>Node4&#45;&gt;Node10</title>
<path fill="none" stroke="#191970" d="M186.7649,-162.49C201.5856,-152.6096 220.3209,-140.1194 233.036,-131.6427"/>
<polygon fill="#191970" stroke="#191970" points="184.5107,-159.7863 178.1317,-168.2455 188.3937,-165.6107 184.5107,-159.7863"/>
</g>
<!-- Node5&#45;&gt;Node6 -->
<g id="edge2" class="edge">
<title>Node5&#45;&gt;Node6</title>
<path fill="none" stroke="#191970" d="M95.7896,-104.7884C104.8562,-95.2085 115.8054,-83.6396 123.3739,-75.6427"/>
<polygon fill="#191970" stroke="#191970" points="93.0637,-102.5767 88.7319,-112.2455 98.1478,-107.3884 93.0637,-102.5767"/>
</g>
<!-- Node5&#45;&gt;Node7 -->
<g id="edge5" class="edge">
<title>Node5&#45;&gt;Node7</title>
<path fill="none" stroke="#191970" d="M81.4395,-102.2187C83.5871,-88.3004 88.0897,-69.7737 97.5,-56 108.3876,-40.0639 126.6439,-27.5012 140.5341,-19.5591"/>
<polygon fill="#191970" stroke="#191970" points="77.9579,-101.8534 80.1734,-112.214 84.9024,-102.7331 77.9579,-101.8534"/>
</g>
<!-- Node5&#45;&gt;Node8 -->
<g id="edge6" class="edge">
<title>Node5&#45;&gt;Node8</title>
<path fill="none" stroke="#191970" d="M72.6876,-102.9253C64.0458,-78.7284 49.4777,-37.9376 42.9017,-19.5249"/>
<polygon fill="#191970" stroke="#191970" points="69.4301,-104.2107 76.0896,-112.4509 76.0223,-101.8563 69.4301,-104.2107"/>
</g>
<!-- Node6&#45;&gt;Node7 -->
<g id="edge3" class="edge">
<title>Node6&#45;&gt;Node7</title>
<path fill="none" stroke="#191970" d="M141.6396,-47.0437C146.0805,-37.8331 151.2265,-27.1598 154.8509,-19.6427"/>
<polygon fill="#191970" stroke="#191970" points="138.3934,-45.7178 137.203,-56.2455 144.6988,-48.7579 138.3934,-45.7178"/>
</g>
<!-- Node6&#45;&gt;Node8 -->
<g id="edge4" class="edge">
<title>Node6&#45;&gt;Node8</title>
<path fill="none" stroke="#191970" d="M107.6665,-51.0465C91.1189,-41.0824 69.8568,-28.2794 55.5137,-19.6427"/>
<polygon fill="#191970" stroke="#191970" points="105.9283,-54.0854 116.3006,-56.2455 109.5393,-48.0886 105.9283,-54.0854"/>
</g>
<!-- Node10&#45;&gt;Node7 -->
<g id="edge11" class="edge">
<title>Node10&#45;&gt;Node7</title>
<path fill="none" stroke="#191970" d="M235.8136,-103.8933C226.8622,-90.3666 213.9704,-71.601 201.5,-56 190.9667,-42.8223 177.6747,-28.6234 168.8975,-19.5413"/>
<polygon fill="#191970" stroke="#191970" points="232.9226,-105.8674 241.3276,-112.3177 238.7796,-102.0338 232.9226,-105.8674"/>
</g>
<!-- Node10&#45;&gt;Node9 -->
<g id="edge10" class="edge">
<title>Node10&#45;&gt;Node9</title>
<path fill="none" stroke="#191970" d="M264.7271,-105.0751C274.5341,-95.4402 286.464,-83.7196 294.6851,-75.6427"/>
<polygon fill="#191970" stroke="#191970" points="262.1091,-102.7406 257.4286,-112.2455 267.0149,-107.734 262.1091,-102.7406"/>
</g>
</g>
</svg>
