<?xml version="1.0" encoding="UTF-8" standalone="no"?>
<!DOCTYPE svg PUBLIC "-//W3C//DTD SVG 1.1//EN"
 "http://www.w3.org/Graphics/SVG/1.1/DTD/svg11.dtd">
<!-- Generated by graphviz version 2.40.1 (20161225.0304)
 -->
<!-- Title: utility.hpp Pages: 1 -->
<svg width="289pt" height="196pt"
 viewBox="0.00 0.00 289.00 196.00" xmlns="http://www.w3.org/2000/svg" xmlns:xlink="http://www.w3.org/1999/xlink">
<g id="graph0" class="graph" transform="scale(1 1) rotate(0) translate(4 192)">
<title>utility.hpp</title>
<polygon fill="#ffffff" stroke="transparent" points="-4,4 -4,-192 285,-192 285,4 -4,4"/>
<!-- Node4 -->
<g id="node1" class="node">
<title>Node4</title>
<polygon fill="#bfbfbf" stroke="#000000" points="100,-168.5 100,-187.5 159,-187.5 159,-168.5 100,-168.5"/>
<text text-anchor="middle" x="129.5" y="-175.5" font-family="Helvetica,sans-Serif" font-size="10.00" fill="#000000">utility.hpp</text>
</g>
<!-- Node5 -->
<g id="node2" class="node">
<title>Node5</title>
<g id="a_node2"><a xlink:href="errors_8hpp.html" target="_top" xlink:title="Common error handling code. ">
<polygon fill="#ffffff" stroke="#000000" points="41.5,-112.5 41.5,-131.5 101.5,-131.5 101.5,-112.5 41.5,-112.5"/>
<text text-anchor="middle" x="71.5" y="-119.5" font-family="Helvetica,sans-Serif" font-size="10.00" fill="#000000">errors.hpp</text>
</a>
</g>
</g>
<!-- Node4&#45;&gt;Node5 -->
<g id="edge1" class="edge">
<title>Node4&#45;&gt;Node5</title>
<path fill="none" stroke="#191970" d="M111.9707,-161.0751C101.9917,-151.4402 89.8524,-139.7196 81.4871,-131.6427"/>
<polygon fill="#191970" stroke="#191970" points="109.772,-163.8175 119.3972,-168.2455 114.6342,-158.7817 109.772,-163.8175"/>
</g>
<!-- Node6 -->
<g id="node3" class="node">
<title>Node6</title>
<g id="a_node3"><a xlink:href="clas_8hpp.html" target="_top" xlink:title="Implements functions to process command line arguments. ">
<polygon fill="#ffffff" stroke="#000000" points="100,-56.5 100,-75.5 153,-75.5 153,-56.5 100,-56.5"/>
<text text-anchor="middle" x="126.5" y="-63.5" font-family="Helvetica,sans-Serif" font-size="10.00" fill="#000000">clas.hpp</text>
</a>
</g>
</g>
<!-- Node4&#45;&gt;Node6 -->
<g id="edge7" class="edge">
<title>Node4&#45;&gt;Node6</title>
<path fill="none" stroke="#191970" d="M128.9715,-158.2702C128.3214,-133.9985 127.2439,-93.7725 126.7551,-75.5249"/>
<polygon fill="#191970" stroke="#191970" points="125.4776,-158.5483 129.2442,-168.4509 132.4751,-158.3608 125.4776,-158.5483"/>
</g>
<!-- Node7 -->
<g id="node4" class="node">
<title>Node7</title>
<g id="a_node4"><a xlink:href="loadrec_8cpp.html" target="_top" xlink:title="Implements a load recorder, useful for simulating loads to test CPU clock daemons and settings...">
<polygon fill="#ffffff" stroke="#000000" points="0,-.5 0,-19.5 67,-19.5 67,-.5 0,-.5"/>
<text text-anchor="middle" x="33.5" y="-7.5" font-family="Helvetica,sans-Serif" font-size="10.00" fill="#000000">loadrec.cpp</text>
</a>
</g>
</g>
<!-- Node4&#45;&gt;Node7 -->
<g id="edge9" class="edge">
<title>Node4&#45;&gt;Node7</title>
<path fill="none" stroke="#191970" d="M90.0221,-169.9541C69.0878,-163.464 45.1435,-151.989 32.5,-132 9.8546,-96.1982 23.203,-41.8738 30.1265,-19.8201"/>
<polygon fill="#191970" stroke="#191970" points="89.1105,-173.3335 99.6849,-172.6766 91.0088,-166.5958 89.1105,-173.3335"/>
</g>
<!-- Node8 -->
<g id="node5" class="node">
<title>Node8</title>
<g id="a_node5"><a xlink:href="powerd_09_09_8cpp.html" target="_top" xlink:title="Implements powerd++ a drop in replacement for FreeBSD&#39;s powerd. ">
<polygon fill="#ffffff" stroke="#000000" points="87,-.5 87,-19.5 166,-19.5 166,-.5 87,-.5"/>
<text text-anchor="middle" x="126.5" y="-7.5" font-family="Helvetica,sans-Serif" font-size="10.00" fill="#000000">powerd++.cpp</text>
</a>
</g>
</g>
<!-- Node4&#45;&gt;Node8 -->
<g id="edge10" class="edge">
<title>Node4&#45;&gt;Node8</title>
<path fill="none" stroke="#191970" d="M141.3132,-159.5865C155.2218,-135.495 174.9462,-92.0983 162.5,-56 157.5417,-41.6192 146.0343,-28.2981 137.3548,-19.7321"/>
<polygon fill="#191970" stroke="#191970" points="138.1776,-158.0078 135.9949,-168.3754 144.1665,-161.6318 138.1776,-158.0078"/>
</g>
<!-- Node9 -->
<g id="node6" class="node">
<title>Node9</title>
<g id="a_node6"><a xlink:href="loadplay_8cpp.html" target="_top" xlink:title="Implements a library intended to be injected into a clock frequency deamon via LD_PRELOAD. ">
<polygon fill="#ffffff" stroke="#000000" points="210,-112.5 210,-131.5 281,-131.5 281,-112.5 210,-112.5"/>
<text text-anchor="middle" x="245.5" y="-119.5" font-family="Helvetica,sans-Serif" font-size="10.00" fill="#000000">loadplay.cpp</text>
</a>
</g>
</g>
<!-- Node4&#45;&gt;Node9 -->
<g id="edge8" class="edge">
<title>Node4&#45;&gt;Node9</title>
<path fill="none" stroke="#191970" d="M158.5537,-163.9741C179.5565,-153.8348 207.3691,-140.408 225.8191,-131.5011"/>
<polygon fill="#191970" stroke="#191970" points="156.925,-160.8738 149.4411,-168.3733 159.9683,-167.1776 156.925,-160.8738"/>
</g>
<!-- Node5&#45;&gt;Node6 -->
<g id="edge2" class="edge">
<title>Node5&#45;&gt;Node6</title>
<path fill="none" stroke="#191970" d="M88.1226,-105.0751C97.5855,-95.4402 109.0969,-83.7196 117.0295,-75.6427"/>
<polygon fill="#191970" stroke="#191970" points="85.5903,-102.6585 81.0803,-112.2455 90.5845,-107.5635 85.5903,-102.6585"/>
</g>
<!-- Node5&#45;&gt;Node7 -->
<g id="edge5" class="edge">
<title>Node5&#45;&gt;Node7</title>
<path fill="none" stroke="#191970" d="M65.0282,-102.9253C56.8185,-78.7284 42.9788,-37.9376 36.7317,-19.5249"/>
<polygon fill="#191970" stroke="#191970" points="61.7327,-104.1057 68.2601,-112.4509 68.3615,-101.8566 61.7327,-104.1057"/>
</g>
<!-- Node5&#45;&gt;Node8 -->
<g id="edge6" class="edge">
<title>Node5&#45;&gt;Node8</title>
<path fill="none" stroke="#191970" d="M75.5742,-102.0907C78.7963,-88.6123 84.0101,-70.6602 91.5,-56 98.5309,-42.2382 109.7685,-28.3872 117.6072,-19.5344"/>
<polygon fill="#191970" stroke="#191970" points="72.0827,-101.6688 73.33,-112.19 78.916,-103.1874 72.0827,-101.6688"/>
</g>
<!-- Node6&#45;&gt;Node7 -->
<g id="edge3" class="edge">
<title>Node6&#45;&gt;Node7</title>
<path fill="none" stroke="#191970" d="M101.6665,-51.0465C85.1189,-41.0824 63.8568,-28.2794 49.5137,-19.6427"/>
<polygon fill="#191970" stroke="#191970" points="99.9283,-54.0854 110.3006,-56.2455 103.5393,-48.0886 99.9283,-54.0854"/>
</g>
<!-- Node6&#45;&gt;Node8 -->
<g id="edge4" class="edge">
<title>Node6&#45;&gt;Node8</title>
<path fill="none" stroke="#191970" d="M126.5,-46.1575C126.5,-37.155 126.5,-26.9199 126.5,-19.6427"/>
<polygon fill="#191970" stroke="#191970" points="123.0001,-46.2455 126.5,-56.2455 130.0001,-46.2456 123.0001,-46.2455"/>
</g>
</g>
</svg>
