<?xml version="1.0" encoding="UTF-8" standalone="no"?>
<!DOCTYPE svg PUBLIC "-//W3C//DTD SVG 1.1//EN"
 "http://www.w3.org/Graphics/SVG/1.1/DTD/svg11.dtd">
<!-- Generated by graphviz version 2.40.1 (20161225.0304)
 -->
<!-- Title: src/utility.hpp Pages: 1 -->
<svg width="190pt" height="84pt"
 viewBox="0.00 0.00 190.50 84.00" xmlns="http://www.w3.org/2000/svg" xmlns:xlink="http://www.w3.org/1999/xlink">
<g id="graph0" class="graph" transform="scale(1 1) rotate(0) translate(4 80)">
<title>src/utility.hpp</title>
<polygon fill="#ffffff" stroke="transparent" points="-4,4 -4,-80 186.5,-80 186.5,4 -4,4"/>
<!-- Node0 -->
<g id="node1" class="node">
<title>Node0</title>
<g id="a_node1"><a xlink:title="Implements generally useful functions.">
<polygon fill="#bfbfbf" stroke="#000000" points="63.5,-56.5 63.5,-75.5 138.5,-75.5 138.5,-56.5 63.5,-56.5"/>
<text text-anchor="middle" x="101" y="-63.5" font-family="Helvetica,sans-Serif" font-size="10.00" fill="#000000">src/utility.hpp</text>
</a>
</g>
</g>
<!-- Node1 -->
<g id="node2" class="node">
<title>Node1</title>
<g id="a_node2"><a xlink:title=" ">
<polygon fill="#ffffff" stroke="#bfbfbf" points="0,-.5 0,-19.5 62,-19.5 62,-.5 0,-.5"/>
<text text-anchor="middle" x="31" y="-7.5" font-family="Helvetica,sans-Serif" font-size="10.00" fill="#000000">type_traits</text>
</a>
</g>
</g>
<!-- Node0&#45;&gt;Node1 -->
<g id="edge1" class="edge">
<title>Node0&#45;&gt;Node1</title>
<path fill="none" stroke="#191970" d="M88.8069,-56.2455C78.3679,-47.8943 63.1345,-35.7076 50.926,-25.9408"/>
<polygon fill="#191970" stroke="#191970" points="53.0485,-23.1566 43.0533,-19.6427 48.6756,-28.6227 53.0485,-23.1566"/>
</g>
<!-- Node2 -->
<g id="node3" class="node">
<title>Node2</title>
<g id="a_node3"><a xlink:title=" ">
<polygon fill="#ffffff" stroke="#bfbfbf" points="80.5,-.5 80.5,-19.5 121.5,-19.5 121.5,-.5 80.5,-.5"/>
<text text-anchor="middle" x="101" y="-7.5" font-family="Helvetica,sans-Serif" font-size="10.00" fill="#000000">string</text>
</a>
</g>
</g>
<!-- Node0&#45;&gt;Node2 -->
<g id="edge2" class="edge">
<title>Node0&#45;&gt;Node2</title>
<path fill="none" stroke="#191970" d="M101,-56.2455C101,-48.9382 101,-38.6944 101,-29.7046"/>
<polygon fill="#191970" stroke="#191970" points="104.5001,-29.6426 101,-19.6427 97.5001,-29.6427 104.5001,-29.6426"/>
</g>
<!-- Node3 -->
<g id="node4" class="node">
<title>Node3</title>
<g id="a_node4"><a xlink:title=" ">
<polygon fill="#ffffff" stroke="#bfbfbf" points="139.5,-.5 139.5,-19.5 182.5,-19.5 182.5,-.5 139.5,-.5"/>
<text text-anchor="middle" x="161" y="-7.5" font-family="Helvetica,sans-Serif" font-size="10.00" fill="#000000">cstdio</text>
</a>
</g>
</g>
<!-- Node0&#45;&gt;Node3 -->
<g id="edge3" class="edge">
<title>Node0&#45;&gt;Node3</title>
<path fill="none" stroke="#191970" d="M111.4512,-56.2455C120.2269,-48.0549 132.9554,-36.1749 143.314,-26.5069"/>
<polygon fill="#191970" stroke="#191970" points="145.7461,-29.0246 150.6686,-19.6427 140.9699,-23.9072 145.7461,-29.0246"/>
</g>
</g>
</svg>
