<?xml version="1.0" encoding="UTF-8" standalone="no"?>
<!DOCTYPE svg PUBLIC "-//W3C//DTD SVG 1.1//EN"
 "http://www.w3.org/Graphics/SVG/1.1/DTD/svg11.dtd">
<!-- Generated by graphviz version 2.42.2 ()
 -->
<!-- Title: src/utility.hpp Pages: 1 -->
<svg width="584pt" height="196pt"
 viewBox="0.00 0.00 583.50 196.00" xmlns="http://www.w3.org/2000/svg" xmlns:xlink="http://www.w3.org/1999/xlink">
<g id="graph0" class="graph" transform="scale(1 1) rotate(0) translate(4 192)">
<title>src/utility.hpp</title>
<polygon fill="white" stroke="transparent" points="-4,4 -4,-192 579.5,-192 579.5,4 -4,4"/>
<!-- Node1 -->
<g id="node1" class="node">
<title>Node1</title>
<g id="a_node1"><a xlink:title="Implements generally useful functions.">
<polygon fill="#bfbfbf" stroke="black" points="249,-168.5 249,-187.5 323,-187.5 323,-168.5 249,-168.5"/>
<text text-anchor="middle" x="286" y="-175.5" font-family="Helvetica" font-size="10.00">src/utility.hpp</text>
</a>
</g>
</g>
<!-- Node2 -->
<g id="node2" class="node">
<title>Node2</title>
<g id="a_node2"><a xlink:href="errors_8hpp.html" target="_top" xlink:title="Common error handling code.">
<polygon fill="white" stroke="black" points="112.5,-112.5 112.5,-131.5 189.5,-131.5 189.5,-112.5 112.5,-112.5"/>
<text text-anchor="middle" x="151" y="-119.5" font-family="Helvetica" font-size="10.00">src/errors.hpp</text>
</a>
</g>
</g>
<!-- Node1&#45;&gt;Node2 -->
<g id="edge1" class="edge">
<title>Node1&#45;&gt;Node2</title>
<path fill="none" stroke="midnightblue" d="M255.09,-164.64C229.76,-154.5 194.57,-140.43 172.29,-131.52"/>
<polygon fill="midnightblue" stroke="midnightblue" points="254.02,-167.98 264.61,-168.44 256.62,-161.48 254.02,-167.98"/>
</g>
<!-- Node3 -->
<g id="node3" class="node">
<title>Node3</title>
<g id="a_node3"><a xlink:href="clas_8hpp.html" target="_top" xlink:title="Provides functions to process command line arguments.">
<polygon fill="white" stroke="black" points="38,-56.5 38,-75.5 108,-75.5 108,-56.5 38,-56.5"/>
<text text-anchor="middle" x="73" y="-63.5" font-family="Helvetica" font-size="10.00">src/clas.hpp</text>
</a>
</g>
</g>
<!-- Node1&#45;&gt;Node3 -->
<g id="edge9" class="edge">
<title>Node1&#45;&gt;Node3</title>
<path fill="none" stroke="midnightblue" d="M238.76,-176.41C198.52,-173.55 141.31,-163.6 103,-132 85.17,-117.29 77.41,-89.64 74.5,-75.62"/>
<polygon fill="midnightblue" stroke="midnightblue" points="238.67,-179.91 248.85,-177.01 239.08,-172.92 238.67,-179.91"/>
</g>
<!-- Node5 -->
<g id="node5" class="node">
<title>Node5</title>
<g id="a_node5"><a xlink:href="loadrec_8cpp.html" target="_top" xlink:title="Implements a load recorder, useful for simulating loads to test CPU clock daemons and settings.">
<polygon fill="white" stroke="black" points="208.5,-0.5 208.5,-19.5 291.5,-19.5 291.5,-0.5 208.5,-0.5"/>
<text text-anchor="middle" x="250" y="-7.5" font-family="Helvetica" font-size="10.00">src/loadrec.cpp</text>
</a>
</g>
</g>
<!-- Node1&#45;&gt;Node5 -->
<g id="edge19" class="edge">
<title>Node1&#45;&gt;Node5</title>
<path fill="none" stroke="midnightblue" d="M309.94,-162.84C344.8,-140.39 402.53,-95.17 375,-56 356.3,-29.39 320.28,-18.44 291.69,-13.98"/>
<polygon fill="midnightblue" stroke="midnightblue" points="307.84,-160.02 301.22,-168.29 311.55,-165.96 307.84,-160.02"/>
</g>
<!-- Node6 -->
<g id="node6" class="node">
<title>Node6</title>
<g id="a_node6"><a xlink:href="powerd_09_09_8cpp.html" target="_top" xlink:title="Implements powerd++ a drop in replacement for FreeBSD&#39;s powerd.">
<polygon fill="white" stroke="black" points="88.5,-0.5 88.5,-19.5 183.5,-19.5 183.5,-0.5 88.5,-0.5"/>
<text text-anchor="middle" x="136" y="-7.5" font-family="Helvetica" font-size="10.00">src/powerd++.cpp</text>
</a>
</g>
</g>
<!-- Node1&#45;&gt;Node6 -->
<g id="edge20" class="edge">
<title>Node1&#45;&gt;Node6</title>
<path fill="none" stroke="midnightblue" d="M238.57,-176.62C173.63,-173.07 61.4,-155.23 29,-76 16.58,-45.62 56.04,-28.47 90.49,-19.5"/>
<polygon fill="midnightblue" stroke="midnightblue" points="238.81,-180.13 248.95,-177.08 239.12,-173.14 238.81,-180.13"/>
</g>
<!-- Node7 -->
<g id="node7" class="node">
<title>Node7</title>
<g id="a_node7"><a xlink:href="loadplay_8cpp.html" target="_top" xlink:title="Implements loadplay, a bootstrapping tool for libloadplay.">
<polygon fill="white" stroke="black" points="278.5,-56.5 278.5,-75.5 365.5,-75.5 365.5,-56.5 278.5,-56.5"/>
<text text-anchor="middle" x="322" y="-63.5" font-family="Helvetica" font-size="10.00">src/loadplay.cpp</text>
</a>
</g>
</g>
<!-- Node1&#45;&gt;Node7 -->
<g id="edge18" class="edge">
<title>Node1&#45;&gt;Node7</title>
<path fill="none" stroke="midnightblue" d="M293.22,-158.86C296.37,-150.7 300.02,-140.92 303,-132 309.64,-112.15 316.23,-88.48 319.63,-75.9"/>
<polygon fill="midnightblue" stroke="midnightblue" points="289.85,-157.86 289.46,-168.44 296.37,-160.41 289.85,-157.86"/>
</g>
<!-- Node8 -->
<g id="node8" class="node">
<title>Node8</title>
<g id="a_node8"><a xlink:href="libloadplay_8cpp.html" target="_top" xlink:title="Implements a library intended to be injected into a clock frequency deamon via LD_PRELOAD.">
<polygon fill="white" stroke="black" points="478.5,-56.5 478.5,-75.5 575.5,-75.5 575.5,-56.5 478.5,-56.5"/>
<text text-anchor="middle" x="527" y="-63.5" font-family="Helvetica" font-size="10.00">src/libloadplay.cpp</text>
</a>
</g>
</g>
<!-- Node1&#45;&gt;Node8 -->
<g id="edge10" class="edge">
<title>Node1&#45;&gt;Node8</title>
<path fill="none" stroke="midnightblue" d="M333.18,-173.44C391.47,-168.08 486.02,-155.9 511,-132 526.62,-117.05 527.99,-89.51 527.57,-75.57"/>
<polygon fill="midnightblue" stroke="midnightblue" points="332.75,-169.97 323.1,-174.34 333.37,-176.94 332.75,-169.97"/>
</g>
<!-- Node9 -->
<g id="node9" class="node">
<title>Node9</title>
<g id="a_node9"><a xlink:href="version_8hpp.html" target="_top" xlink:title="Defines types and constants used for version management.">
<polygon fill="white" stroke="black" points="418.5,-112.5 418.5,-131.5 501.5,-131.5 501.5,-112.5 418.5,-112.5"/>
<text text-anchor="middle" x="460" y="-119.5" font-family="Helvetica" font-size="10.00">src/version.hpp</text>
</a>
</g>
</g>
<!-- Node1&#45;&gt;Node9 -->
<g id="edge11" class="edge">
<title>Node1&#45;&gt;Node9</title>
<path fill="none" stroke="midnightblue" d="M323.26,-165.44C356.07,-155.26 403.08,-140.66 432.56,-131.52"/>
<polygon fill="midnightblue" stroke="midnightblue" points="322.08,-162.14 313.57,-168.44 324.16,-168.82 322.08,-162.14"/>
</g>
<!-- Node10 -->
<g id="node10" class="node">
<title>Node10</title>
<g id="a_node10"><a xlink:href="Options_8hpp.html" target="_top" xlink:title="Provides the nih::Options functor template, a substitute for getopt(3).">
<polygon fill="white" stroke="black" points="208,-112.5 208,-131.5 294,-131.5 294,-112.5 208,-112.5"/>
<text text-anchor="middle" x="251" y="-119.5" font-family="Helvetica" font-size="10.00">src/Options.hpp</text>
</a>
</g>
</g>
<!-- Node1&#45;&gt;Node10 -->
<g id="edge14" class="edge">
<title>Node1&#45;&gt;Node10</title>
<path fill="none" stroke="midnightblue" d="M274.7,-159.57C268.68,-150.27 261.53,-139.25 256.67,-131.75"/>
<polygon fill="midnightblue" stroke="midnightblue" points="271.84,-161.6 280.22,-168.08 277.72,-157.79 271.84,-161.6"/>
</g>
<!-- Node2&#45;&gt;Node3 -->
<g id="edge2" class="edge">
<title>Node2&#45;&gt;Node3</title>
<path fill="none" stroke="midnightblue" d="M130.23,-106.62C115.98,-96.76 97.54,-83.99 85.5,-75.65"/>
<polygon fill="midnightblue" stroke="midnightblue" points="128.25,-109.51 138.47,-112.32 132.24,-103.75 128.25,-109.51"/>
</g>
<!-- Node2&#45;&gt;Node5 -->
<g id="edge7" class="edge">
<title>Node2&#45;&gt;Node5</title>
<path fill="none" stroke="midnightblue" d="M165.49,-104.9C186.78,-81.25 225.75,-37.95 242.27,-19.59"/>
<polygon fill="midnightblue" stroke="midnightblue" points="162.86,-102.59 158.77,-112.37 168.06,-107.28 162.86,-102.59"/>
</g>
<!-- Node2&#45;&gt;Node6 -->
<g id="edge8" class="edge">
<title>Node2&#45;&gt;Node6</title>
<path fill="none" stroke="midnightblue" d="M148.46,-102.35C145.17,-78.25 139.59,-37.31 137.17,-19.59"/>
<polygon fill="midnightblue" stroke="midnightblue" points="145,-102.93 149.82,-112.37 151.94,-101.99 145,-102.93"/>
</g>
<!-- Node2&#45;&gt;Node7 -->
<g id="edge6" class="edge">
<title>Node2&#45;&gt;Node7</title>
<path fill="none" stroke="midnightblue" d="M188.04,-109.3C220.26,-99.13 266.19,-84.62 295.03,-75.52"/>
<polygon fill="midnightblue" stroke="midnightblue" points="186.58,-106.09 178.1,-112.44 188.69,-112.77 186.58,-106.09"/>
</g>
<!-- Node4 -->
<g id="node4" class="node">
<title>Node4</title>
<g id="a_node4"><a xlink:href="clas_8cpp.html" target="_top" xlink:title="Implements functions to process command line arguments.">
<polygon fill="white" stroke="black" points="0,-0.5 0,-19.5 70,-19.5 70,-0.5 0,-0.5"/>
<text text-anchor="middle" x="35" y="-7.5" font-family="Helvetica" font-size="10.00">src/clas.cpp</text>
</a>
</g>
</g>
<!-- Node3&#45;&gt;Node4 -->
<g id="edge3" class="edge">
<title>Node3&#45;&gt;Node4</title>
<path fill="none" stroke="midnightblue" d="M60.94,-47.86C54.36,-38.5 46.49,-27.33 41.16,-19.75"/>
<polygon fill="midnightblue" stroke="midnightblue" points="58.11,-49.92 66.73,-56.08 63.83,-45.89 58.11,-49.92"/>
</g>
<!-- Node3&#45;&gt;Node5 -->
<g id="edge4" class="edge">
<title>Node3&#45;&gt;Node5</title>
<path fill="none" stroke="midnightblue" d="M110.9,-53.44C144.28,-43.26 192.1,-28.66 222.09,-19.52"/>
<polygon fill="midnightblue" stroke="midnightblue" points="109.59,-50.18 101.05,-56.44 111.63,-56.87 109.59,-50.18"/>
</g>
<!-- Node3&#45;&gt;Node6 -->
<g id="edge5" class="edge">
<title>Node3&#45;&gt;Node6</title>
<path fill="none" stroke="midnightblue" d="M91.04,-49.54C102.27,-39.91 116.32,-27.87 125.69,-19.83"/>
<polygon fill="midnightblue" stroke="midnightblue" points="88.44,-47.16 83.12,-56.32 92.99,-52.47 88.44,-47.16"/>
</g>
<!-- Node9&#45;&gt;Node5 -->
<g id="edge13" class="edge">
<title>Node9&#45;&gt;Node5</title>
<path fill="none" stroke="midnightblue" d="M450.39,-103.72C441.31,-88.95 426.36,-68.21 408,-56 372.73,-32.55 325.21,-21.16 291.53,-15.74"/>
<polygon fill="midnightblue" stroke="midnightblue" points="447.41,-105.56 455.48,-112.42 453.45,-102.02 447.41,-105.56"/>
</g>
<!-- Node9&#45;&gt;Node8 -->
<g id="edge12" class="edge">
<title>Node9&#45;&gt;Node8</title>
<path fill="none" stroke="midnightblue" d="M478.83,-105.82C490.84,-96.15 505.97,-83.95 516.04,-75.83"/>
<polygon fill="midnightblue" stroke="midnightblue" points="476.35,-103.32 470.76,-112.32 480.75,-108.77 476.35,-103.32"/>
</g>
<!-- Node10&#45;&gt;Node5 -->
<g id="edge16" class="edge">
<title>Node10&#45;&gt;Node5</title>
<path fill="none" stroke="midnightblue" d="M250.83,-102.35C250.61,-78.25 250.24,-37.31 250.08,-19.59"/>
<polygon fill="midnightblue" stroke="midnightblue" points="247.33,-102.4 250.92,-112.37 254.33,-102.34 247.33,-102.4"/>
</g>
<!-- Node10&#45;&gt;Node6 -->
<g id="edge17" class="edge">
<title>Node10&#45;&gt;Node6</title>
<path fill="none" stroke="midnightblue" d="M234.49,-105.21C209.84,-81.63 164.26,-38.03 144.98,-19.59"/>
<polygon fill="midnightblue" stroke="midnightblue" points="232.33,-107.99 241.98,-112.37 237.17,-102.93 232.33,-107.99"/>
</g>
<!-- Node10&#45;&gt;Node7 -->
<g id="edge15" class="edge">
<title>Node10&#45;&gt;Node7</title>
<path fill="none" stroke="midnightblue" d="M270.59,-106.1C283.37,-96.38 299.61,-84.03 310.39,-75.83"/>
<polygon fill="midnightblue" stroke="midnightblue" points="268.25,-103.48 262.41,-112.32 272.49,-109.06 268.25,-103.48"/>
</g>
</g>
</svg>
