<?xml version="1.0" encoding="UTF-8" standalone="no"?>
<!DOCTYPE svg PUBLIC "-//W3C//DTD SVG 1.1//EN"
 "http://www.w3.org/Graphics/SVG/1.1/DTD/svg11.dtd">
<!-- Generated by graphviz version 2.40.1 (20161225.0304)
 -->
<!-- Title: src/utility.hpp Pages: 1 -->
<svg width="440pt" height="196pt"
 viewBox="0.00 0.00 439.67 196.00" xmlns="http://www.w3.org/2000/svg" xmlns:xlink="http://www.w3.org/1999/xlink">
<g id="graph0" class="graph" transform="scale(1 1) rotate(0) translate(4 192)">
<title>src/utility.hpp</title>
<polygon fill="#ffffff" stroke="transparent" points="-4,4 -4,-192 435.6661,-192 435.6661,4 -4,4"/>
<!-- Node4 -->
<g id="node1" class="node">
<title>Node4</title>
<g id="a_node1"><a xlink:title="Implements generally useful functions.">
<polygon fill="#bfbfbf" stroke="#000000" points="164.0873,-168.5 164.0873,-187.5 239.0873,-187.5 239.0873,-168.5 164.0873,-168.5"/>
<text text-anchor="middle" x="201.5873" y="-175.5" font-family="Helvetica,sans-Serif" font-size="10.00" fill="#000000">src/utility.hpp</text>
</a>
</g>
</g>
<!-- Node5 -->
<g id="node2" class="node">
<title>Node5</title>
<g id="a_node2"><a xlink:href="errors_8hpp.html" target="_top" xlink:title="Common error handling code.">
<polygon fill="#ffffff" stroke="#000000" points="230.0873,-112.5 230.0873,-131.5 307.0873,-131.5 307.0873,-112.5 230.0873,-112.5"/>
<text text-anchor="middle" x="268.5873" y="-119.5" font-family="Helvetica,sans-Serif" font-size="10.00" fill="#000000">src/errors.hpp</text>
</a>
</g>
</g>
<!-- Node4&#45;&gt;Node5 -->
<g id="edge1" class="edge">
<title>Node4&#45;&gt;Node5</title>
<path fill="none" stroke="#191970" d="M221.1548,-161.645C232.8071,-151.9058 247.1957,-139.8795 257.0505,-131.6427"/>
<polygon fill="#191970" stroke="#191970" points="218.686,-159.1469 213.2578,-168.2455 223.1752,-164.5179 218.686,-159.1469"/>
</g>
<!-- Node6 -->
<g id="node3" class="node">
<title>Node6</title>
<g id="a_node3"><a xlink:href="clas_8hpp.html" target="_top" xlink:title="Implements functions to process command line arguments.">
<polygon fill="#ffffff" stroke="#000000" points="166.5873,-56.5 166.5873,-75.5 236.5873,-75.5 236.5873,-56.5 166.5873,-56.5"/>
<text text-anchor="middle" x="201.5873" y="-63.5" font-family="Helvetica,sans-Serif" font-size="10.00" fill="#000000">src/clas.hpp</text>
</a>
</g>
</g>
<!-- Node4&#45;&gt;Node6 -->
<g id="edge8" class="edge">
<title>Node4&#45;&gt;Node6</title>
<path fill="none" stroke="#191970" d="M201.5873,-158.2702C201.5873,-133.9985 201.5873,-93.7725 201.5873,-75.5249"/>
<polygon fill="#191970" stroke="#191970" points="198.0874,-158.4509 201.5873,-168.4509 205.0874,-158.451 198.0874,-158.4509"/>
</g>
<!-- Node7 -->
<g id="node4" class="node">
<title>Node7</title>
<g id="a_node4"><a xlink:href="loadrec_8cpp.html" target="_top" xlink:title="Implements a load recorder, useful for simulating loads to test CPU clock daemons and settings.">
<polygon fill="#ffffff" stroke="#000000" points="126.0873,-.5 126.0873,-19.5 209.0873,-19.5 209.0873,-.5 126.0873,-.5"/>
<text text-anchor="middle" x="167.5873" y="-7.5" font-family="Helvetica,sans-Serif" font-size="10.00" fill="#000000">src/loadrec.cpp</text>
</a>
</g>
</g>
<!-- Node4&#45;&gt;Node7 -->
<g id="edge14" class="edge">
<title>Node4&#45;&gt;Node7</title>
<path fill="none" stroke="#191970" d="M153.8255,-170.5324C103.9464,-159.7188 29.4387,-134.1851 3.5873,-76 -.0218,-67.8768 -1.7827,-63.0835 3.5873,-56 18.3256,-36.559 82.1943,-23.0693 125.7386,-15.9355"/>
<polygon fill="#191970" stroke="#191970" points="153.2614,-173.9894 163.7599,-172.5636 154.6637,-167.1313 153.2614,-173.9894"/>
</g>
<!-- Node8 -->
<g id="node5" class="node">
<title>Node8</title>
<g id="a_node5"><a xlink:href="powerd_09_09_8cpp.html" target="_top" xlink:title="Implements powerd++ a drop in replacement for FreeBSD&#39;s powerd.">
<polygon fill="#ffffff" stroke="#000000" points="255.0873,-.5 255.0873,-19.5 350.0873,-19.5 350.0873,-.5 255.0873,-.5"/>
<text text-anchor="middle" x="302.5873" y="-7.5" font-family="Helvetica,sans-Serif" font-size="10.00" fill="#000000">src/powerd++.cpp</text>
</a>
</g>
</g>
<!-- Node4&#45;&gt;Node8 -->
<g id="edge15" class="edge">
<title>Node4&#45;&gt;Node8</title>
<path fill="none" stroke="#191970" d="M249.1744,-172.9385C304.4569,-164.1206 392.5546,-140.2125 427.5873,-76 446.3338,-41.6388 393.197,-24.4745 350.473,-16.4168"/>
<polygon fill="#191970" stroke="#191970" points="248.6294,-169.481 239.254,-174.4157 249.6605,-176.4046 248.6294,-169.481"/>
</g>
<!-- Node9 -->
<g id="node6" class="node">
<title>Node9</title>
<g id="a_node6"><a xlink:href="loadplay_8cpp.html" target="_top" xlink:title="Implements the loadplay a bootstrapping tool for libloadplay.">
<polygon fill="#ffffff" stroke="#000000" points="330.5873,-56.5 330.5873,-75.5 418.5873,-75.5 418.5873,-56.5 330.5873,-56.5"/>
<text text-anchor="middle" x="374.5873" y="-63.5" font-family="Helvetica,sans-Serif" font-size="10.00" fill="#000000">src/loadplay.cpp</text>
</a>
</g>
</g>
<!-- Node4&#45;&gt;Node9 -->
<g id="edge13" class="edge">
<title>Node4&#45;&gt;Node9</title>
<path fill="none" stroke="#191970" d="M246.9968,-165.3302C269.2205,-157.8078 295.6297,-146.8094 316.5873,-132 339.0111,-116.1545 358.5757,-89.9624 368.2159,-75.8073"/>
<polygon fill="#191970" stroke="#191970" points="245.8622,-162.0187 237.4369,-168.4424 248.0292,-168.6748 245.8622,-162.0187"/>
</g>
<!-- Node10 -->
<g id="node7" class="node">
<title>Node10</title>
<g id="a_node7"><a xlink:href="libloadplay_8cpp.html" target="_top" xlink:title="Implements a library intended to be injected into a clock frequency deamon via LD_PRELOAD.">
<polygon fill="#ffffff" stroke="#000000" points="12.5873,-56.5 12.5873,-75.5 110.5873,-75.5 110.5873,-56.5 12.5873,-56.5"/>
<text text-anchor="middle" x="61.5873" y="-63.5" font-family="Helvetica,sans-Serif" font-size="10.00" fill="#000000">src/libloadplay.cpp</text>
</a>
</g>
</g>
<!-- Node4&#45;&gt;Node10 -->
<g id="edge9" class="edge">
<title>Node4&#45;&gt;Node10</title>
<path fill="none" stroke="#191970" d="M153.7874,-170.4005C128.8133,-164.0871 99.5806,-152.6388 80.5873,-132 66.0535,-116.2071 62.5646,-89.9936 61.7739,-75.8212"/>
<polygon fill="#191970" stroke="#191970" points="153.2975,-173.8797 163.8296,-172.7283 154.8782,-167.0605 153.2975,-173.8797"/>
</g>
<!-- Node11 -->
<g id="node8" class="node">
<title>Node11</title>
<g id="a_node8"><a xlink:href="version_8hpp.html" target="_top" xlink:title="Defines types and constants used for version management.">
<polygon fill="#ffffff" stroke="#000000" points="90.0873,-112.5 90.0873,-131.5 173.0873,-131.5 173.0873,-112.5 90.0873,-112.5"/>
<text text-anchor="middle" x="131.5873" y="-119.5" font-family="Helvetica,sans-Serif" font-size="10.00" fill="#000000">src/version.hpp</text>
</a>
</g>
</g>
<!-- Node4&#45;&gt;Node11 -->
<g id="edge10" class="edge">
<title>Node4&#45;&gt;Node11</title>
<path fill="none" stroke="#191970" d="M181.4973,-161.928C169.2619,-152.1397 154.0366,-139.9595 143.6406,-131.6427"/>
<polygon fill="#191970" stroke="#191970" points="179.3991,-164.7316 189.3942,-168.2455 183.7719,-159.2655 179.3991,-164.7316"/>
</g>
<!-- Node5&#45;&gt;Node6 -->
<g id="edge2" class="edge">
<title>Node5&#45;&gt;Node6</title>
<path fill="none" stroke="#191970" d="M249.0197,-105.645C237.3675,-95.9058 222.9788,-83.8795 213.1241,-75.6427"/>
<polygon fill="#191970" stroke="#191970" points="246.9993,-108.5179 256.9168,-112.2455 251.4885,-103.1469 246.9993,-108.5179"/>
</g>
<!-- Node5&#45;&gt;Node7 -->
<g id="edge6" class="edge">
<title>Node5&#45;&gt;Node7</title>
<path fill="none" stroke="#191970" d="M265.4668,-102.3294C262.3949,-88.1833 256.5128,-69.3287 245.5873,-56 231.8338,-39.2213 210.2424,-27.1651 193.2599,-19.6156"/>
<polygon fill="#191970" stroke="#191970" points="262.0853,-103.287 267.3706,-112.4694 268.9651,-101.9952 262.0853,-103.287"/>
</g>
<!-- Node5&#45;&gt;Node8 -->
<g id="edge7" class="edge">
<title>Node5&#45;&gt;Node8</title>
<path fill="none" stroke="#191970" d="M274.4769,-102.5987C281.8342,-78.363 294.1313,-37.8551 299.6958,-19.5249"/>
<polygon fill="#191970" stroke="#191970" points="271.0419,-101.8654 271.4861,-112.4509 277.7401,-103.8988 271.0419,-101.8654"/>
</g>
<!-- Node5&#45;&gt;Node9 -->
<g id="edge5" class="edge">
<title>Node5&#45;&gt;Node9</title>
<path fill="none" stroke="#191970" d="M296.1094,-107.46C315.0781,-97.4388 339.76,-84.3993 356.3351,-75.6427"/>
<polygon fill="#191970" stroke="#191970" points="294.2581,-104.4796 287.0511,-112.2455 297.528,-110.669 294.2581,-104.4796"/>
</g>
<!-- Node6&#45;&gt;Node7 -->
<g id="edge3" class="edge">
<title>Node6&#45;&gt;Node7</title>
<path fill="none" stroke="#191970" d="M190.4338,-47.6296C184.7626,-38.2887 178.1028,-27.3197 173.4418,-19.6427"/>
<polygon fill="#191970" stroke="#191970" points="187.4833,-49.5141 195.6649,-56.2455 193.4669,-45.8812 187.4833,-49.5141"/>
</g>
<!-- Node6&#45;&gt;Node8 -->
<g id="edge4" class="edge">
<title>Node6&#45;&gt;Node8</title>
<path fill="none" stroke="#191970" d="M228.0591,-51.3225C246.0997,-41.3198 269.4749,-28.3593 285.196,-19.6427"/>
<polygon fill="#191970" stroke="#191970" points="226.2286,-48.3354 219.1801,-56.2455 229.623,-54.4574 226.2286,-48.3354"/>
</g>
<!-- Node11&#45;&gt;Node7 -->
<g id="edge12" class="edge">
<title>Node11&#45;&gt;Node7</title>
<path fill="none" stroke="#191970" d="M137.7184,-102.9253C145.496,-78.7284 158.6073,-37.9376 164.5257,-19.5249"/>
<polygon fill="#191970" stroke="#191970" points="134.3847,-101.8596 134.6566,-112.4509 141.0489,-104.0017 134.3847,-101.8596"/>
</g>
<!-- Node11&#45;&gt;Node10 -->
<g id="edge11" class="edge">
<title>Node11&#45;&gt;Node10</title>
<path fill="none" stroke="#191970" d="M111.4973,-105.928C99.2619,-96.1397 84.0366,-83.9595 73.6406,-75.6427"/>
<polygon fill="#191970" stroke="#191970" points="109.3991,-108.7316 119.3942,-112.2455 113.7719,-103.2655 109.3991,-108.7316"/>
</g>
</g>
</svg>
