<?xml version="1.0" encoding="UTF-8" standalone="no"?>
<!DOCTYPE svg PUBLIC "-//W3C//DTD SVG 1.1//EN"
 "http://www.w3.org/Graphics/SVG/1.1/DTD/svg11.dtd">
<!-- Generated by graphviz version 2.42.2 ()
 -->
<!-- Title: src/utility.hpp Pages: 1 -->
<svg width="545pt" height="196pt"
 viewBox="0.00 0.00 545.20 196.00" xmlns="http://www.w3.org/2000/svg" xmlns:xlink="http://www.w3.org/1999/xlink">
<g id="graph0" class="graph" transform="scale(1 1) rotate(0) translate(4 192)">
<title>src/utility.hpp</title>
<polygon fill="white" stroke="transparent" points="-4,4 -4,-192 541.2,-192 541.2,4 -4,4"/>
<!-- Node1 -->
<g id="node1" class="node">
<title>Node1</title>
<g id="a_node1"><a xlink:title=" ">
<polygon fill="#bfbfbf" stroke="black" points="265.5,-168.5 265.5,-187.5 339.5,-187.5 339.5,-168.5 265.5,-168.5"/>
<text text-anchor="middle" x="302.5" y="-175.5" font-family="Helvetica" font-size="10.00">src/utility.hpp</text>
</a>
</g>
</g>
<!-- Node2 -->
<g id="node2" class="node">
<title>Node2</title>
<g id="a_node2"><a xlink:href="errors_8hpp.html" target="_top" xlink:title=" ">
<polygon fill="white" stroke="black" points="298,-112.5 298,-131.5 375,-131.5 375,-112.5 298,-112.5"/>
<text text-anchor="middle" x="336.5" y="-119.5" font-family="Helvetica" font-size="10.00">src/errors.hpp</text>
</a>
</g>
</g>
<!-- Node1&#45;&gt;Node2 -->
<g id="edge1" class="edge">
<title>Node1&#45;&gt;Node2</title>
<path fill="none" stroke="midnightblue" d="M313.48,-159.57C319.33,-150.27 326.27,-139.25 330.99,-131.75"/>
<polygon fill="midnightblue" stroke="midnightblue" points="310.48,-157.76 308.11,-168.08 316.4,-161.49 310.48,-157.76"/>
</g>
<!-- Node3 -->
<g id="node3" class="node">
<title>Node3</title>
<g id="a_node3"><a xlink:href="clas_8hpp.html" target="_top" xlink:title=" ">
<polygon fill="white" stroke="black" points="238.5,-56.5 238.5,-75.5 308.5,-75.5 308.5,-56.5 238.5,-56.5"/>
<text text-anchor="middle" x="273.5" y="-63.5" font-family="Helvetica" font-size="10.00">src/clas.hpp</text>
</a>
</g>
</g>
<!-- Node1&#45;&gt;Node3 -->
<g id="edge8" class="edge">
<title>Node1&#45;&gt;Node3</title>
<path fill="none" stroke="midnightblue" d="M296.51,-158.84C293.91,-150.68 290.91,-140.9 288.5,-132 283.12,-112.1 277.97,-88.45 275.33,-75.88"/>
<polygon fill="midnightblue" stroke="midnightblue" points="293.21,-160 299.62,-168.43 299.86,-157.84 293.21,-160"/>
</g>
<!-- Node4 -->
<g id="node4" class="node">
<title>Node4</title>
<g id="a_node4"><a xlink:href="loadrec_8cpp.html" target="_top" xlink:title=" ">
<polygon fill="white" stroke="black" points="169,-0.5 169,-19.5 252,-19.5 252,-0.5 169,-0.5"/>
<text text-anchor="middle" x="210.5" y="-7.5" font-family="Helvetica" font-size="10.00">src/loadrec.cpp</text>
</a>
</g>
</g>
<!-- Node1&#45;&gt;Node4 -->
<g id="edge18" class="edge">
<title>Node1&#45;&gt;Node4</title>
<path fill="none" stroke="midnightblue" d="M283.33,-161.89C262.19,-143.96 229.23,-111.93 214.5,-76 206.78,-57.17 207.94,-32.68 209.31,-19.81"/>
<polygon fill="midnightblue" stroke="midnightblue" points="281.37,-164.82 291.31,-168.47 285.82,-159.41 281.37,-164.82"/>
</g>
<!-- Node5 -->
<g id="node5" class="node">
<title>Node5</title>
<g id="a_node5"><a xlink:href="powerd_09_09_8cpp.html" target="_top" xlink:title=" ">
<polygon fill="white" stroke="black" points="380,-0.5 380,-19.5 475,-19.5 475,-0.5 380,-0.5"/>
<text text-anchor="middle" x="427.5" y="-7.5" font-family="Helvetica" font-size="10.00">src/powerd++.cpp</text>
</a>
</g>
</g>
<!-- Node1&#45;&gt;Node5 -->
<g id="edge19" class="edge">
<title>Node1&#45;&gt;Node5</title>
<path fill="none" stroke="midnightblue" d="M349.64,-174.58C409.83,-170.4 508.93,-159.43 531.5,-132 547.72,-112.28 525.71,-74.42 509.5,-56 494.27,-38.69 470.7,-26.74 452.74,-19.52"/>
<polygon fill="midnightblue" stroke="midnightblue" points="349.35,-171.1 339.6,-175.24 349.81,-178.08 349.35,-171.1"/>
</g>
<!-- Node6 -->
<g id="node6" class="node">
<title>Node6</title>
<g id="a_node6"><a xlink:href="loadplay_8cpp.html" target="_top" xlink:title=" ">
<polygon fill="white" stroke="black" points="365,-56.5 365,-75.5 452,-75.5 452,-56.5 365,-56.5"/>
<text text-anchor="middle" x="408.5" y="-63.5" font-family="Helvetica" font-size="10.00">src/loadplay.cpp</text>
</a>
</g>
</g>
<!-- Node1&#45;&gt;Node6 -->
<g id="edge17" class="edge">
<title>Node1&#45;&gt;Node6</title>
<path fill="none" stroke="midnightblue" d="M337.05,-164.28C352.99,-156.93 371.09,-146.28 383.5,-132 398.09,-115.21 404.62,-88.98 407.14,-75.55"/>
<polygon fill="midnightblue" stroke="midnightblue" points="335.25,-161.25 327.47,-168.43 338.04,-167.67 335.25,-161.25"/>
</g>
<!-- Node7 -->
<g id="node7" class="node">
<title>Node7</title>
<g id="a_node7"><a xlink:href="libloadplay_8cpp.html" target="_top" xlink:title=" ">
<polygon fill="white" stroke="black" points="0,-56.5 0,-75.5 97,-75.5 97,-56.5 0,-56.5"/>
<text text-anchor="middle" x="48.5" y="-63.5" font-family="Helvetica" font-size="10.00">src/libloadplay.cpp</text>
</a>
</g>
</g>
<!-- Node1&#45;&gt;Node7 -->
<g id="edge9" class="edge">
<title>Node1&#45;&gt;Node7</title>
<path fill="none" stroke="midnightblue" d="M255.13,-174.93C191.12,-171.08 81.93,-160.43 55.5,-132 41.28,-116.7 43.89,-89.82 46.48,-75.9"/>
<polygon fill="midnightblue" stroke="midnightblue" points="255.2,-178.44 265.38,-175.51 255.6,-171.45 255.2,-178.44"/>
</g>
<!-- Node8 -->
<g id="node8" class="node">
<title>Node8</title>
<g id="a_node8"><a xlink:href="version_8hpp.html" target="_top" xlink:title=" ">
<polygon fill="white" stroke="black" points="65,-112.5 65,-131.5 148,-131.5 148,-112.5 65,-112.5"/>
<text text-anchor="middle" x="106.5" y="-119.5" font-family="Helvetica" font-size="10.00">src/version.hpp</text>
</a>
</g>
</g>
<!-- Node1&#45;&gt;Node8 -->
<g id="edge10" class="edge">
<title>Node1&#45;&gt;Node8</title>
<path fill="none" stroke="midnightblue" d="M261.48,-165.7C224.49,-155.51 170.9,-140.74 137.41,-131.52"/>
<polygon fill="midnightblue" stroke="midnightblue" points="260.87,-169.16 271.44,-168.44 262.73,-162.41 260.87,-169.16"/>
</g>
<!-- Node9 -->
<g id="node9" class="node">
<title>Node9</title>
<g id="a_node9"><a xlink:href="Options_8hpp.html" target="_top" xlink:title=" ">
<polygon fill="white" stroke="black" points="436.5,-112.5 436.5,-131.5 522.5,-131.5 522.5,-112.5 436.5,-112.5"/>
<text text-anchor="middle" x="479.5" y="-119.5" font-family="Helvetica" font-size="10.00">src/Options.hpp</text>
</a>
</g>
</g>
<!-- Node1&#45;&gt;Node9 -->
<g id="edge13" class="edge">
<title>Node1&#45;&gt;Node9</title>
<path fill="none" stroke="midnightblue" d="M340.4,-165.44C373.78,-155.26 421.6,-140.66 451.59,-131.52"/>
<polygon fill="midnightblue" stroke="midnightblue" points="339.09,-162.18 330.55,-168.44 341.13,-168.87 339.09,-162.18"/>
</g>
<!-- Node2&#45;&gt;Node3 -->
<g id="edge2" class="edge">
<title>Node2&#45;&gt;Node3</title>
<path fill="none" stroke="midnightblue" d="M318.46,-105.54C307.23,-95.91 293.18,-83.87 283.81,-75.83"/>
<polygon fill="midnightblue" stroke="midnightblue" points="316.51,-108.47 326.38,-112.32 321.06,-103.16 316.51,-108.47"/>
</g>
<!-- Node2&#45;&gt;Node4 -->
<g id="edge6" class="edge">
<title>Node2&#45;&gt;Node4</title>
<path fill="none" stroke="midnightblue" d="M288.35,-110.64C267.67,-103.93 244.79,-93.13 229.5,-76 215.1,-59.86 211.58,-33.34 210.75,-19.7"/>
<polygon fill="midnightblue" stroke="midnightblue" points="287.39,-114 297.97,-113.52 289.4,-107.3 287.39,-114"/>
</g>
<!-- Node2&#45;&gt;Node5 -->
<g id="edge7" class="edge">
<title>Node2&#45;&gt;Node5</title>
<path fill="none" stroke="midnightblue" d="M338.38,-102.2C340.57,-88.27 345.3,-69.46 355.5,-56 368.32,-39.08 389.5,-26.96 405.57,-19.59"/>
<polygon fill="midnightblue" stroke="midnightblue" points="334.9,-101.76 337.11,-112.12 341.85,-102.65 334.9,-101.76"/>
</g>
<!-- Node2&#45;&gt;Node6 -->
<g id="edge5" class="edge">
<title>Node2&#45;&gt;Node6</title>
<path fill="none" stroke="midnightblue" d="M356.37,-106.1C369.32,-96.38 385.8,-84.03 396.72,-75.83"/>
<polygon fill="midnightblue" stroke="midnightblue" points="353.97,-103.52 348.07,-112.32 358.17,-109.12 353.97,-103.52"/>
</g>
<!-- Node3&#45;&gt;Node4 -->
<g id="edge3" class="edge">
<title>Node3&#45;&gt;Node4</title>
<path fill="none" stroke="midnightblue" d="M255.46,-49.54C244.23,-39.91 230.18,-27.87 220.81,-19.83"/>
<polygon fill="midnightblue" stroke="midnightblue" points="253.51,-52.47 263.38,-56.32 258.06,-47.16 253.51,-52.47"/>
</g>
<!-- Node3&#45;&gt;Node5 -->
<g id="edge4" class="edge">
<title>Node3&#45;&gt;Node5</title>
<path fill="none" stroke="midnightblue" d="M307.61,-53.04C336.59,-42.88 377.46,-28.55 403.21,-19.52"/>
<polygon fill="midnightblue" stroke="midnightblue" points="306.18,-49.83 297.9,-56.44 308.5,-56.44 306.18,-49.83"/>
</g>
<!-- Node8&#45;&gt;Node4 -->
<g id="edge12" class="edge">
<title>Node8&#45;&gt;Node4</title>
<path fill="none" stroke="midnightblue" d="M118.9,-103.8C128.96,-90.27 143.85,-71.23 158.5,-56 171.58,-42.41 188.32,-28.45 199.22,-19.76"/>
<polygon fill="midnightblue" stroke="midnightblue" points="115.85,-102.04 112.76,-112.17 121.5,-106.18 115.85,-102.04"/>
</g>
<!-- Node8&#45;&gt;Node7 -->
<g id="edge11" class="edge">
<title>Node8&#45;&gt;Node7</title>
<path fill="none" stroke="midnightblue" d="M89.59,-105.25C79.3,-95.67 66.53,-83.79 57.99,-75.83"/>
<polygon fill="midnightblue" stroke="midnightblue" points="87.48,-108.07 97.18,-112.32 92.25,-102.95 87.48,-108.07"/>
</g>
<!-- Node9&#45;&gt;Node4 -->
<g id="edge15" class="edge">
<title>Node9&#45;&gt;Node4</title>
<path fill="none" stroke="midnightblue" d="M479.44,-102.35C478.34,-87.63 474.33,-67.69 461.5,-56 431.44,-28.6 315.22,-17.35 252.01,-13.18"/>
<polygon fill="midnightblue" stroke="midnightblue" points="475.94,-102.51 479.81,-112.37 482.93,-102.25 475.94,-102.51"/>
</g>
<!-- Node9&#45;&gt;Node5 -->
<g id="edge16" class="edge">
<title>Node9&#45;&gt;Node5</title>
<path fill="none" stroke="midnightblue" d="M489.99,-103.25C496.55,-89.66 502.39,-70.8 494.5,-56 485.21,-38.56 465.83,-26.68 450.29,-19.53"/>
<polygon fill="midnightblue" stroke="midnightblue" points="486.9,-101.61 485.27,-112.08 493.07,-104.91 486.9,-101.61"/>
</g>
<!-- Node9&#45;&gt;Node6 -->
<g id="edge14" class="edge">
<title>Node9&#45;&gt;Node6</title>
<path fill="none" stroke="midnightblue" d="M459.91,-106.1C447.13,-96.38 430.89,-84.03 420.11,-75.83"/>
<polygon fill="midnightblue" stroke="midnightblue" points="458.01,-109.06 468.09,-112.32 462.25,-103.48 458.01,-109.06"/>
</g>
</g>
</svg>
