<?xml version="1.0" encoding="UTF-8" standalone="no"?>
<!DOCTYPE svg PUBLIC "-//W3C//DTD SVG 1.1//EN"
 "http://www.w3.org/Graphics/SVG/1.1/DTD/svg11.dtd">
<!-- Generated by graphviz version 2.42.2 ()
 -->
<!-- Title: src/utility.hpp Pages: 1 -->
<svg width="660pt" height="196pt"
 viewBox="0.00 0.00 659.50 196.00" xmlns="http://www.w3.org/2000/svg" xmlns:xlink="http://www.w3.org/1999/xlink">
<g id="graph0" class="graph" transform="scale(1 1) rotate(0) translate(4 192)">
<title>src/utility.hpp</title>
<polygon fill="white" stroke="transparent" points="-4,4 -4,-192 655.5,-192 655.5,4 -4,4"/>
<!-- Node1 -->
<g id="node1" class="node">
<title>Node1</title>
<g id="a_node1"><a xlink:title="Implements generally useful functions.">
<polygon fill="#bfbfbf" stroke="black" points="277.5,-168.5 277.5,-187.5 352.5,-187.5 352.5,-168.5 277.5,-168.5"/>
<text text-anchor="middle" x="315" y="-175.5" font-family="Helvetica,sans-Serif" font-size="10.00">src/utility.hpp</text>
</a>
</g>
</g>
<!-- Node2 -->
<g id="node2" class="node">
<title>Node2</title>
<g id="a_node2"><a xlink:href="errors_8hpp.html" target="_top" xlink:title="Common error handling code.">
<polygon fill="white" stroke="black" points="135.5,-112.5 135.5,-131.5 212.5,-131.5 212.5,-112.5 135.5,-112.5"/>
<text text-anchor="middle" x="174" y="-119.5" font-family="Helvetica,sans-Serif" font-size="10.00">src/errors.hpp</text>
</a>
</g>
</g>
<!-- Node1&#45;&gt;Node2 -->
<g id="edge1" class="edge">
<title>Node1&#45;&gt;Node2</title>
<path fill="none" stroke="midnightblue" d="M283.07,-164.77C256.59,-154.63 219.61,-140.47 196.24,-131.52"/>
<polygon fill="midnightblue" stroke="midnightblue" points="282.07,-168.14 292.66,-168.44 284.57,-161.6 282.07,-168.14"/>
</g>
<!-- Node3 -->
<g id="node3" class="node">
<title>Node3</title>
<g id="a_node3"><a xlink:href="clas_8hpp.html" target="_top" xlink:title="Provides functions to process command line arguments.">
<polygon fill="white" stroke="black" points="38,-56.5 38,-75.5 108,-75.5 108,-56.5 38,-56.5"/>
<text text-anchor="middle" x="73" y="-63.5" font-family="Helvetica,sans-Serif" font-size="10.00">src/clas.hpp</text>
</a>
</g>
</g>
<!-- Node1&#45;&gt;Node3 -->
<g id="edge9" class="edge">
<title>Node1&#45;&gt;Node3</title>
<path fill="none" stroke="midnightblue" d="M267.37,-174.15C227.05,-169.84 169.11,-159.04 126,-132 103.06,-117.61 85.48,-89.82 77.57,-75.69"/>
<polygon fill="midnightblue" stroke="midnightblue" points="267.18,-177.65 277.47,-175.13 267.86,-170.68 267.18,-177.65"/>
</g>
<!-- Node5 -->
<g id="node5" class="node">
<title>Node5</title>
<g id="a_node5"><a xlink:href="loadrec_8cpp.html" target="_top" xlink:title="Implements a load recorder, useful for simulating loads to test CPU clock daemons and settings.">
<polygon fill="white" stroke="black" points="314.5,-0.5 314.5,-19.5 397.5,-19.5 397.5,-0.5 314.5,-0.5"/>
<text text-anchor="middle" x="356" y="-7.5" font-family="Helvetica,sans-Serif" font-size="10.00">src/loadrec.cpp</text>
</a>
</g>
</g>
<!-- Node1&#45;&gt;Node5 -->
<g id="edge19" class="edge">
<title>Node1&#45;&gt;Node5</title>
<path fill="none" stroke="midnightblue" d="M362.87,-172.82C399.19,-167.76 449,-156.59 486,-132 512.13,-114.63 518.91,-105.71 529,-76 547.57,-21.32 454.5,-11.4 397.6,-10.33"/>
<polygon fill="midnightblue" stroke="midnightblue" points="362.01,-169.41 352.54,-174.15 362.9,-176.35 362.01,-169.41"/>
</g>
<!-- Node6 -->
<g id="node6" class="node">
<title>Node6</title>
<g id="a_node6"><a xlink:href="powerd_09_09_8cpp.html" target="_top" xlink:title="Implements powerd++ a drop in replacement for FreeBSD&#39;s powerd.">
<polygon fill="white" stroke="black" points="88.5,-0.5 88.5,-19.5 183.5,-19.5 183.5,-0.5 88.5,-0.5"/>
<text text-anchor="middle" x="136" y="-7.5" font-family="Helvetica,sans-Serif" font-size="10.00">src/powerd++.cpp</text>
</a>
</g>
</g>
<!-- Node1&#45;&gt;Node6 -->
<g id="edge20" class="edge">
<title>Node1&#45;&gt;Node6</title>
<path fill="none" stroke="midnightblue" d="M267.16,-173.32C222.23,-168.43 154.01,-157.23 100,-132 63.59,-114.99 46.53,-112.16 29,-76 14.49,-46.08 55.54,-28.7 90.93,-19.57"/>
<polygon fill="midnightblue" stroke="midnightblue" points="266.92,-176.82 277.22,-174.36 267.63,-169.85 266.92,-176.82"/>
</g>
<!-- Node7 -->
<g id="node7" class="node">
<title>Node7</title>
<g id="a_node7"><a xlink:href="loadplay_8cpp.html" target="_top" xlink:title="Implements loadplay, a bootstrapping tool for libloadplay.">
<polygon fill="white" stroke="black" points="202,-56.5 202,-75.5 290,-75.5 290,-56.5 202,-56.5"/>
<text text-anchor="middle" x="246" y="-63.5" font-family="Helvetica,sans-Serif" font-size="10.00">src/loadplay.cpp</text>
</a>
</g>
</g>
<!-- Node1&#45;&gt;Node7 -->
<g id="edge18" class="edge">
<title>Node1&#45;&gt;Node7</title>
<path fill="none" stroke="midnightblue" d="M292.65,-162.45C282.22,-154.59 270.49,-144.04 263,-132 251.78,-113.98 247.92,-88.73 246.63,-75.64"/>
<polygon fill="midnightblue" stroke="midnightblue" points="290.8,-165.43 300.97,-168.38 294.86,-159.73 290.8,-165.43"/>
</g>
<!-- Node8 -->
<g id="node8" class="node">
<title>Node8</title>
<g id="a_node8"><a xlink:href="libloadplay_8cpp.html" target="_top" xlink:title="Implements a library intended to be injected into a clock frequency deamon via LD_PRELOAD.">
<polygon fill="white" stroke="black" points="422,-56.5 422,-75.5 520,-75.5 520,-56.5 422,-56.5"/>
<text text-anchor="middle" x="471" y="-63.5" font-family="Helvetica,sans-Serif" font-size="10.00">src/libloadplay.cpp</text>
</a>
</g>
</g>
<!-- Node1&#45;&gt;Node8 -->
<g id="edge10" class="edge">
<title>Node1&#45;&gt;Node8</title>
<path fill="none" stroke="midnightblue" d="M362.68,-176.98C398.05,-174.16 444.25,-163.98 469,-132 481.71,-115.57 477.18,-89.18 473.63,-75.63"/>
<polygon fill="midnightblue" stroke="midnightblue" points="362.32,-173.5 352.56,-177.62 362.76,-180.48 362.32,-173.5"/>
</g>
<!-- Node9 -->
<g id="node9" class="node">
<title>Node9</title>
<g id="a_node9"><a xlink:href="version_8hpp.html" target="_top" xlink:title="Defines types and constants used for version management.">
<polygon fill="white" stroke="black" points="376.5,-112.5 376.5,-131.5 459.5,-131.5 459.5,-112.5 376.5,-112.5"/>
<text text-anchor="middle" x="418" y="-119.5" font-family="Helvetica,sans-Serif" font-size="10.00">src/version.hpp</text>
</a>
</g>
</g>
<!-- Node1&#45;&gt;Node9 -->
<g id="edge11" class="edge">
<title>Node1&#45;&gt;Node9</title>
<path fill="none" stroke="midnightblue" d="M340.58,-163.59C359.62,-153.61 385.06,-140.27 401.49,-131.65"/>
<polygon fill="midnightblue" stroke="midnightblue" points="338.78,-160.58 331.55,-168.32 342.03,-166.78 338.78,-160.58"/>
</g>
<!-- Node10 -->
<g id="node10" class="node">
<title>Node10</title>
<g id="a_node10"><a xlink:href="Options_8hpp.html" target="_top" xlink:title="Provides the nih::Options functor template, a substitute for getopt(3).">
<polygon fill="white" stroke="black" points="272,-112.5 272,-131.5 358,-131.5 358,-112.5 272,-112.5"/>
<text text-anchor="middle" x="315" y="-119.5" font-family="Helvetica,sans-Serif" font-size="10.00">src/Options.hpp</text>
</a>
</g>
</g>
<!-- Node1&#45;&gt;Node10 -->
<g id="edge14" class="edge">
<title>Node1&#45;&gt;Node10</title>
<path fill="none" stroke="midnightblue" d="M315,-157.8C315,-148.91 315,-138.78 315,-131.75"/>
<polygon fill="midnightblue" stroke="midnightblue" points="311.5,-158.08 315,-168.08 318.5,-158.08 311.5,-158.08"/>
</g>
<!-- Node11 -->
<g id="node11" class="node">
<title>Node11</title>
<g id="a_node11"><a xlink:href="utility_8cpp.html" target="_top" xlink:title="Implements generally useful functions not intended for inlining.">
<polygon fill="white" stroke="black" points="576.5,-112.5 576.5,-131.5 651.5,-131.5 651.5,-112.5 576.5,-112.5"/>
<text text-anchor="middle" x="614" y="-119.5" font-family="Helvetica,sans-Serif" font-size="10.00">src/utility.cpp</text>
</a>
</g>
</g>
<!-- Node1&#45;&gt;Node11 -->
<g id="edge21" class="edge">
<title>Node1&#45;&gt;Node11</title>
<path fill="none" stroke="midnightblue" d="M362.43,-168.43C421.73,-157.72 522.04,-139.61 576.35,-129.8"/>
<polygon fill="midnightblue" stroke="midnightblue" points="361.78,-164.99 352.57,-170.22 363.03,-171.88 361.78,-164.99"/>
</g>
<!-- Node2&#45;&gt;Node3 -->
<g id="edge2" class="edge">
<title>Node2&#45;&gt;Node3</title>
<path fill="none" stroke="midnightblue" d="M148.92,-107.59C130.24,-97.61 105.3,-84.27 89.19,-75.65"/>
<polygon fill="midnightblue" stroke="midnightblue" points="147.3,-110.7 157.77,-112.32 150.6,-104.52 147.3,-110.7"/>
</g>
<!-- Node2&#45;&gt;Node5 -->
<g id="edge7" class="edge">
<title>Node2&#45;&gt;Node5</title>
<path fill="none" stroke="midnightblue" d="M174.76,-101.74C176.36,-87.28 180.84,-67.98 193,-56 225.21,-24.27 277.65,-14.43 314.33,-11.63"/>
<polygon fill="midnightblue" stroke="midnightblue" points="171.25,-101.84 174.01,-112.07 178.23,-102.35 171.25,-101.84"/>
</g>
<!-- Node2&#45;&gt;Node6 -->
<g id="edge8" class="edge">
<title>Node2&#45;&gt;Node6</title>
<path fill="none" stroke="midnightblue" d="M167.67,-102.67C159.36,-78.62 145.12,-37.39 138.97,-19.59"/>
<polygon fill="midnightblue" stroke="midnightblue" points="164.44,-104.06 171.02,-112.37 171.06,-101.77 164.44,-104.06"/>
</g>
<!-- Node2&#45;&gt;Node7 -->
<g id="edge6" class="edge">
<title>Node2&#45;&gt;Node7</title>
<path fill="none" stroke="midnightblue" d="M193.87,-106.1C206.82,-96.38 223.3,-84.03 234.22,-75.83"/>
<polygon fill="midnightblue" stroke="midnightblue" points="191.47,-103.52 185.57,-112.32 195.67,-109.12 191.47,-103.52"/>
</g>
<!-- Node4 -->
<g id="node4" class="node">
<title>Node4</title>
<g id="a_node4"><a xlink:href="clas_8cpp.html" target="_top" xlink:title="Implements functions to process command line arguments.">
<polygon fill="white" stroke="black" points="0,-0.5 0,-19.5 70,-19.5 70,-0.5 0,-0.5"/>
<text text-anchor="middle" x="35" y="-7.5" font-family="Helvetica,sans-Serif" font-size="10.00">src/clas.cpp</text>
</a>
</g>
</g>
<!-- Node3&#45;&gt;Node4 -->
<g id="edge3" class="edge">
<title>Node3&#45;&gt;Node4</title>
<path fill="none" stroke="midnightblue" d="M60.94,-47.86C54.36,-38.5 46.49,-27.33 41.16,-19.75"/>
<polygon fill="midnightblue" stroke="midnightblue" points="58.11,-49.92 66.73,-56.08 63.83,-45.89 58.11,-49.92"/>
</g>
<!-- Node3&#45;&gt;Node5 -->
<g id="edge4" class="edge">
<title>Node3&#45;&gt;Node5</title>
<path fill="none" stroke="midnightblue" d="M118.25,-56.37C172.28,-46.06 261.89,-28.96 314.3,-18.96"/>
<polygon fill="midnightblue" stroke="midnightblue" points="117.44,-52.96 108.27,-58.27 118.75,-59.83 117.44,-52.96"/>
</g>
<!-- Node3&#45;&gt;Node6 -->
<g id="edge5" class="edge">
<title>Node3&#45;&gt;Node6</title>
<path fill="none" stroke="midnightblue" d="M91.04,-49.54C102.27,-39.91 116.32,-27.87 125.69,-19.83"/>
<polygon fill="midnightblue" stroke="midnightblue" points="88.44,-47.16 83.12,-56.32 92.99,-52.47 88.44,-47.16"/>
</g>
<!-- Node9&#45;&gt;Node5 -->
<g id="edge13" class="edge">
<title>Node9&#45;&gt;Node5</title>
<path fill="none" stroke="midnightblue" d="M408.22,-103.64C394.75,-79.74 371.01,-37.63 360.84,-19.59"/>
<polygon fill="midnightblue" stroke="midnightblue" points="405.18,-105.38 413.13,-112.37 411.27,-101.94 405.18,-105.38"/>
</g>
<!-- Node9&#45;&gt;Node8 -->
<g id="edge12" class="edge">
<title>Node9&#45;&gt;Node8</title>
<path fill="none" stroke="midnightblue" d="M433.98,-104.72C443.32,-95.2 454.75,-83.56 462.41,-75.75"/>
<polygon fill="midnightblue" stroke="midnightblue" points="431.26,-102.49 426.75,-112.08 436.25,-107.4 431.26,-102.49"/>
</g>
<!-- Node10&#45;&gt;Node5 -->
<g id="edge16" class="edge">
<title>Node10&#45;&gt;Node5</title>
<path fill="none" stroke="midnightblue" d="M321.93,-102.76C325.02,-94.58 328.71,-84.81 332,-76 339.49,-55.94 348.17,-32.35 352.76,-19.84"/>
<polygon fill="midnightblue" stroke="midnightblue" points="318.55,-101.79 318.28,-112.38 325.1,-104.27 318.55,-101.79"/>
</g>
<!-- Node10&#45;&gt;Node6 -->
<g id="edge17" class="edge">
<title>Node10&#45;&gt;Node6</title>
<path fill="none" stroke="midnightblue" d="M315.21,-101.81C314.33,-87.38 310.76,-68.1 299,-56 269.12,-25.27 220.3,-14.96 183.87,-11.76"/>
<polygon fill="midnightblue" stroke="midnightblue" points="311.72,-102.19 315.45,-112.11 318.72,-102.03 311.72,-102.19"/>
</g>
<!-- Node10&#45;&gt;Node7 -->
<g id="edge15" class="edge">
<title>Node10&#45;&gt;Node7</title>
<path fill="none" stroke="midnightblue" d="M295.96,-106.1C283.54,-96.38 267.76,-84.03 257.29,-75.83"/>
<polygon fill="midnightblue" stroke="midnightblue" points="293.88,-108.92 303.91,-112.32 298.2,-103.4 293.88,-108.92"/>
</g>
</g>
</svg>
