<?xml version="1.0" encoding="UTF-8" standalone="no"?>
<!DOCTYPE svg PUBLIC "-//W3C//DTD SVG 1.1//EN"
 "http://www.w3.org/Graphics/SVG/1.1/DTD/svg11.dtd">
<!-- Generated by graphviz version 2.42.2 ()
 -->
<!-- Title: src/version.hpp Pages: 1 -->
<svg width="207pt" height="84pt"
 viewBox="0.00 0.00 207.50 84.00" xmlns="http://www.w3.org/2000/svg" xmlns:xlink="http://www.w3.org/1999/xlink">
<g id="graph0" class="graph" transform="scale(1 1) rotate(0) translate(4 80)">
<title>src/version.hpp</title>
<polygon fill="white" stroke="transparent" points="-4,4 -4,-80 203.5,-80 203.5,4 -4,4"/>
<!-- Node1 -->
<g id="node1" class="node">
<title>Node1</title>
<g id="a_node1"><a xlink:title="Defines types and constants used for version management.">
<polygon fill="#bfbfbf" stroke="black" points="61.5,-56.5 61.5,-75.5 144.5,-75.5 144.5,-56.5 61.5,-56.5"/>
<text text-anchor="middle" x="103" y="-63.5" font-family="Helvetica,sans-Serif" font-size="10.00">src/version.hpp</text>
</a>
</g>
</g>
<!-- Node2 -->
<g id="node2" class="node">
<title>Node2</title>
<g id="a_node2"><a xlink:href="libloadplay_8cpp.html" target="_top" xlink:title="Implements a library intended to be injected into a clock frequency deamon via LD_PRELOAD.">
<polygon fill="white" stroke="black" points="0,-0.5 0,-19.5 98,-19.5 98,-0.5 0,-0.5"/>
<text text-anchor="middle" x="49" y="-7.5" font-family="Helvetica,sans-Serif" font-size="10.00">src/libloadplay.cpp</text>
</a>
</g>
</g>
<!-- Node1&#45;&gt;Node2 -->
<g id="edge1" class="edge">
<title>Node1&#45;&gt;Node2</title>
<path fill="none" stroke="midnightblue" d="M87,-49C77.43,-39.43 65.64,-27.64 57.75,-19.75"/>
<polygon fill="midnightblue" stroke="midnightblue" points="84.54,-51.49 94.08,-56.08 89.49,-46.54 84.54,-51.49"/>
</g>
<!-- Node3 -->
<g id="node3" class="node">
<title>Node3</title>
<g id="a_node3"><a xlink:href="loadrec_8cpp.html" target="_top" xlink:title="Implements a load recorder, useful for simulating loads to test CPU clock daemons and settings.">
<polygon fill="white" stroke="black" points="116.5,-0.5 116.5,-19.5 199.5,-19.5 199.5,-0.5 116.5,-0.5"/>
<text text-anchor="middle" x="158" y="-7.5" font-family="Helvetica,sans-Serif" font-size="10.00">src/loadrec.cpp</text>
</a>
</g>
</g>
<!-- Node1&#45;&gt;Node3 -->
<g id="edge2" class="edge">
<title>Node1&#45;&gt;Node3</title>
<path fill="none" stroke="midnightblue" d="M119.29,-49C129.04,-39.43 141.05,-27.64 149.09,-19.75"/>
<polygon fill="midnightblue" stroke="midnightblue" points="116.77,-46.58 112.08,-56.08 121.67,-51.57 116.77,-46.58"/>
</g>
</g>
</svg>
