<?xml version="1.0" encoding="UTF-8" standalone="no"?>
<!DOCTYPE svg PUBLIC "-//W3C//DTD SVG 1.1//EN"
 "http://www.w3.org/Graphics/SVG/1.1/DTD/svg11.dtd">
<!-- Generated by graphviz version 2.40.1 (20161225.0304)
 -->
<!-- Title: src/version.hpp Pages: 1 -->
<svg width="207pt" height="84pt"
 viewBox="0.00 0.00 207.50 84.00" xmlns="http://www.w3.org/2000/svg" xmlns:xlink="http://www.w3.org/1999/xlink">
<g id="graph0" class="graph" transform="scale(1 1) rotate(0) translate(4 80)">
<title>src/version.hpp</title>
<polygon fill="#ffffff" stroke="transparent" points="-4,4 -4,-80 203.5,-80 203.5,4 -4,4"/>
<!-- Node1 -->
<g id="node1" class="node">
<title>Node1</title>
<g id="a_node1"><a xlink:title=" ">
<polygon fill="#bfbfbf" stroke="#000000" points="61.5,-56.5 61.5,-75.5 144.5,-75.5 144.5,-56.5 61.5,-56.5"/>
<text text-anchor="middle" x="103" y="-63.5" font-family="Helvetica,sans-Serif" font-size="10.00" fill="#000000">src/version.hpp</text>
</a>
</g>
</g>
<!-- Node2 -->
<g id="node2" class="node">
<title>Node2</title>
<g id="a_node2"><a xlink:href="libloadplay_8cpp.html" target="_top" xlink:title=" ">
<polygon fill="#ffffff" stroke="#000000" points="0,-.5 0,-19.5 98,-19.5 98,-.5 0,-.5"/>
<text text-anchor="middle" x="49" y="-7.5" font-family="Helvetica,sans-Serif" font-size="10.00" fill="#000000">src/libloadplay.cpp</text>
</a>
</g>
</g>
<!-- Node1&#45;&gt;Node2 -->
<g id="edge1" class="edge">
<title>Node1&#45;&gt;Node2</title>
<path fill="none" stroke="#191970" d="M86.4031,-48.7884C77.1653,-39.2085 66.0096,-27.6396 58.2983,-19.6427"/>
<polygon fill="#191970" stroke="#191970" points="84.1331,-51.4766 93.5939,-56.2455 89.172,-46.6176 84.1331,-51.4766"/>
</g>
<!-- Node3 -->
<g id="node3" class="node">
<title>Node3</title>
<g id="a_node3"><a xlink:href="loadrec_8cpp.html" target="_top" xlink:title=" ">
<polygon fill="#ffffff" stroke="#000000" points="116.5,-.5 116.5,-19.5 199.5,-19.5 199.5,-.5 116.5,-.5"/>
<text text-anchor="middle" x="158" y="-7.5" font-family="Helvetica,sans-Serif" font-size="10.00" fill="#000000">src/loadrec.cpp</text>
</a>
</g>
</g>
<!-- Node1&#45;&gt;Node3 -->
<g id="edge2" class="edge">
<title>Node1&#45;&gt;Node3</title>
<path fill="none" stroke="#191970" d="M119.6226,-49.0751C129.0855,-39.4402 140.5969,-27.7196 148.5295,-19.6427"/>
<polygon fill="#191970" stroke="#191970" points="117.0903,-46.6585 112.5803,-56.2455 122.0845,-51.5635 117.0903,-46.6585"/>
</g>
</g>
</svg>
